<!-- Generated by IcoMoon.io -->
<svg version="1.1" xmlns="http://www.w3.org/2000/svg" width="18" height="20" viewBox="0 0 18 20">
<title>apple-alt</title>
<path d="M13.718 5.045c-1.388-0.244-3.83 0.561-4.968 1.204-1.138-0.643-3.58-1.448-4.968-1.204-3.173 0.559-4.196 4.863-3.636 8.031s2.395 6.924 6.121 6.924c0.471 0 0.942-0.18 1.345-0.404 0.706-0.392 1.571-0.392 2.278 0 0.403 0.224 0.874 0.404 1.345 0.404 3.726 0 5.561-3.755 6.12-6.924s-0.462-7.473-3.636-8.031zM11.548 3.423c1.194-1.194 0.927-3.397 0.927-3.397s-2.204-0.268-3.397 0.927c-1.194 1.194-0.927 3.397-0.927 3.397s2.203 0.268 3.397-0.927z"></path>
</svg>
