<!-- Generated by IcoMoon.io -->
<svg version="1.1" xmlns="http://www.w3.org/2000/svg" width="20" height="20" viewBox="0 0 20 20">
<title>broom</title>
<path d="M0.422 9.656c-0.449 0.18-0.566 0.762-0.227 1.102l2.141 2.141 2.859-0.953-0.953 2.859 5 5c0.344 0.344 0.922 0.223 1.102-0.227l3.832-9.52-4.234-4.234-9.52 3.832zM19.816 1.066l-0.883-0.883c-0.242-0.246-0.641-0.246-0.883 0l-3.996 3.992-1.578-1.578c-0.164-0.168-0.445-0.117-0.543 0.098l-1.063 2.289 4.145 4.145 2.289-1.063c0.211-0.098 0.262-0.379 0.098-0.543l-1.578-1.578 3.992-3.996c0.246-0.242 0.246-0.637 0-0.883z"></path>
</svg>
