<!-- Generated by IcoMoon.io -->
<svg version="1.1" xmlns="http://www.w3.org/2000/svg" width="20" height="20" viewBox="0 0 20 20">
<title>address-book-o</title>
<path d="M12.188 7.188q0 1.194-0.854 2.042t-2.048 0.848-2.048-0.848-0.854-2.042q0-1.205 0.854-2.054t2.048-0.848 2.048 0.848 0.854 2.054zM11.652 9.643q0.513 0 0.921 0.19t0.67 0.53 0.441 0.748 0.268 0.904 0.128 0.921 0.039 0.882q0 0.748-0.441 1.323t-1.177 0.575h-6.429q-0.737 0-1.177-0.575t-0.441-1.323q0-0.536 0.050-1.044t0.206-1.099 0.407-1.021 0.703-0.72 1.044-0.29h0.056q0.078 0.045 0.357 0.218t0.396 0.234 0.368 0.19 0.413 0.179 0.391 0.1 0.441 0.050 0.441-0.050 0.391-0.1 0.413-0.179 0.368-0.19 0.396-0.234 0.357-0.218zM19.286 6.786q0 0.145-0.106 0.251t-0.251 0.106h-1.071v1.429h1.071q0.145 0 0.251 0.106t0.106 0.251v2.143q0 0.145-0.106 0.251t-0.251 0.106h-1.071v1.429h1.071q0.145 0 0.251 0.106t0.106 0.251v2.143q0 0.145-0.106 0.251t-0.251 0.106h-1.071v2.5q0 0.737-0.525 1.261t-1.261 0.525h-13.571q-0.737 0-1.261-0.525t-0.525-1.261v-16.429q0-0.737 0.525-1.261t1.261-0.525h13.571q0.737 0 1.261 0.525t0.525 1.261v2.5h1.071q0.145 0 0.251 0.106t0.106 0.251v2.143zM16.429 18.214v-16.429q0-0.145-0.106-0.251t-0.251-0.106h-13.571q-0.145 0-0.251 0.106t-0.106 0.251v16.429q0 0.145 0.106 0.251t0.251 0.106h13.571q0.145 0 0.251-0.106t0.106-0.251z"></path>
</svg>
