<!-- Generated by IcoMoon.io -->
<svg version="1.1" xmlns="http://www.w3.org/2000/svg" width="23" height="20" viewBox="0 0 23 20">
<title>address-card-o</title>
<path d="M11.429 12.623q0 0.714-0.413 1.189t-1.016 0.474h-5.714q-0.603 0-1.016-0.474t-0.413-1.189 0.1-1.311 0.329-1.15 0.675-0.871 1.083-0.318q0.067 0.045 0.335 0.201t0.419 0.24 0.396 0.195 0.48 0.162 0.469 0.050 0.469-0.050 0.48-0.162 0.396-0.195 0.419-0.24 0.335-0.201q0.636 0 1.083 0.318t0.675 0.871 0.329 1.15 0.1 1.311zM9.676 6.819q0 1.049-0.742 1.791t-1.791 0.742-1.791-0.742-0.742-1.791 0.742-1.791 1.791-0.742 1.791 0.742 0.742 1.791zM20 11.786v0.714q0 0.156-0.1 0.257t-0.257 0.1h-6.429q-0.156 0-0.257-0.1t-0.1-0.257v-0.714q0-0.156 0.1-0.257t0.257-0.1h6.429q0.156 0 0.257 0.1t0.1 0.257zM20 8.973v0.625q0 0.167-0.117 0.285t-0.285 0.117h-6.339q-0.167 0-0.285-0.117t-0.117-0.285v-0.625q0-0.167 0.117-0.285t0.285-0.117h6.339q0.167 0 0.285 0.117t0.117 0.285zM20 6.071v0.714q0 0.156-0.1 0.257t-0.257 0.1h-6.429q-0.156 0-0.257-0.1t-0.1-0.257v-0.714q0-0.156 0.1-0.257t0.257-0.1h6.429q0.156 0 0.257 0.1t0.1 0.257zM21.429 16.786v-13.571q0-0.145-0.106-0.251t-0.251-0.106h-19.286q-0.145 0-0.251 0.106t-0.106 0.251v13.571q0 0.145 0.106 0.251t0.251 0.106h3.929v-1.071q0-0.156 0.1-0.257t0.257-0.1h0.714q0.156 0 0.257 0.1t0.1 0.257v1.071h8.571v-1.071q0-0.156 0.1-0.257t0.257-0.1h0.714q0.156 0 0.257 0.1t0.1 0.257v1.071h3.929q0.145 0 0.251-0.106t0.106-0.251zM22.857 3.214v13.571q0 0.737-0.525 1.261t-1.261 0.525h-19.286q-0.737 0-1.261-0.525t-0.525-1.261v-13.571q0-0.737 0.525-1.261t1.261-0.525h19.286q0.737 0 1.261 0.525t0.525 1.261z"></path>
</svg>
