<!-- Generated by IcoMoon.io -->
<svg version="1.1" xmlns="http://www.w3.org/2000/svg" width="20" height="20" viewBox="0 0 20 20">
<title>address-book</title>
<path d="M14.118 13.817q0-0.636-0.061-1.194t-0.234-1.122-0.441-0.96-0.714-0.647-1.016-0.251q-0.067 0.045-0.374 0.229t-0.474 0.273-0.452 0.223-0.547 0.19-0.519 0.056-0.519-0.056-0.547-0.19-0.452-0.223-0.474-0.273-0.374-0.229q-0.569 0-1.016 0.251t-0.714 0.647-0.441 0.96-0.234 1.122-0.061 1.194q0 0.815 0.469 1.356t1.15 0.541h6.429q0.681 0 1.15-0.541t0.469-1.356zM12.188 7.188q0-1.205-0.854-2.054t-2.048-0.848-2.048 0.848-0.854 2.054q0 1.194 0.854 2.042t2.048 0.848 2.048-0.848 0.854-2.042zM19.286 13.214v2.143q0 0.156-0.1 0.257t-0.257 0.1h-1.071v2.5q0 0.737-0.525 1.261t-1.261 0.525h-13.571q-0.737 0-1.261-0.525t-0.525-1.261v-16.429q0-0.737 0.525-1.261t1.261-0.525h13.571q0.737 0 1.261 0.525t0.525 1.261v2.5h1.071q0.156 0 0.257 0.1t0.1 0.257v2.143q0 0.156-0.1 0.257t-0.257 0.1h-1.071v1.429h1.071q0.156 0 0.257 0.1t0.1 0.257v2.143q0 0.156-0.1 0.257t-0.257 0.1h-1.071v1.429h1.071q0.156 0 0.257 0.1t0.1 0.257z"></path>
</svg>
