<!-- Generated by IcoMoon.io -->
<svg version="1.1" xmlns="http://www.w3.org/2000/svg" width="20" height="20" viewBox="0 0 20 20">
<title>align-justify</title>
<path d="M20 15v1.429q0 0.29-0.212 0.502t-0.502 0.212h-18.571q-0.29 0-0.502-0.212t-0.212-0.502v-1.429q0-0.29 0.212-0.502t0.502-0.212h18.571q0.29 0 0.502 0.212t0.212 0.502zM20 10.714v1.429q0 0.29-0.212 0.502t-0.502 0.212h-18.571q-0.29 0-0.502-0.212t-0.212-0.502v-1.429q0-0.29 0.212-0.502t0.502-0.212h18.571q0.29 0 0.502 0.212t0.212 0.502zM20 6.429v1.429q0 0.29-0.212 0.502t-0.502 0.212h-18.571q-0.29 0-0.502-0.212t-0.212-0.502v-1.429q0-0.29 0.212-0.502t0.502-0.212h18.571q0.29 0 0.502 0.212t0.212 0.502zM20 2.143v1.429q0 0.29-0.212 0.502t-0.502 0.212h-18.571q-0.29 0-0.502-0.212t-0.212-0.502v-1.429q0-0.29 0.212-0.502t0.502-0.212h18.571q0.29 0 0.502 0.212t0.212 0.502z"></path>
</svg>
