<!-- Generated by IcoMoon.io -->
<svg version="1.1" xmlns="http://www.w3.org/2000/svg" width="20" height="20" viewBox="0 0 20 20">
<title>amazon</title>
<path d="M17.31 16.473q0.167-0.067 0.29-0.033t0.123 0.195-0.167 0.374q-0.145 0.179-0.491 0.485t-1.066 0.759-1.574 0.826-2.098 0.647-2.561 0.273q-1.328 0-2.656-0.346t-2.333-0.854-1.925-1.161-1.479-1.172-0.938-0.977q-0.089-0.1-0.112-0.184t0.011-0.134 0.089-0.078 0.128-0.022 0.128 0.050q2.143 1.306 3.348 1.853 4.342 1.964 8.917 1.004 2.121-0.446 4.364-1.507zM19.621 15.19q0.123 0.179 0.028 0.776t-0.318 1.144q-0.379 0.926-0.949 1.384-0.19 0.156-0.29 0.1t0-0.268q0.234-0.502 0.497-1.356t0.073-1.099q-0.056-0.078-0.173-0.128t-0.301-0.067-0.329-0.028-0.391 0-0.352 0.022-0.346 0.033-0.251 0.022q-0.067 0.011-0.145 0.017t-0.123 0.011-0.095 0.011-0.078 0.006h-0.112l-0.033-0.006-0.022-0.017-0.017-0.033q-0.067-0.179 0.525-0.446t1.15-0.335q0.513-0.078 1.205-0.011t0.848 0.268zM15.223 10.246q0 0.346 0.151 0.714t0.357 0.647 0.419 0.513 0.368 0.357l0.145 0.123-2.533 2.5q-0.446-0.413-0.882-0.843t-0.647-0.653l-0.212-0.223q-0.123-0.123-0.279-0.368-0.424 0.658-1.088 1.144t-1.423 0.709-1.563 0.257-1.535-0.234-1.311-0.731-0.926-1.261-0.346-1.814q0-0.938 0.313-1.719t0.804-1.3 1.189-0.926 1.367-0.636 1.451-0.385 1.334-0.206 1.11-0.073v-1.417q0-0.725-0.234-1.083-0.379-0.592-1.35-0.592-0.067 0-0.184 0.011t-0.452 0.134-0.625 0.329-0.625 0.664-0.536 1.071l-3.281-0.301q0-0.67 0.246-1.328t0.748-1.261 1.205-1.060 1.691-0.731 2.126-0.273q1.116 0 2.020 0.279t1.445 0.686 0.904 0.926 0.502 0.96 0.14 0.82v6.574zM7.723 10.48q0 0.96 0.781 1.484 0.737 0.491 1.551 0.246 0.938-0.279 1.272-1.373 0.156-0.502 0.156-1.127v-1.808q-0.658 0.022-1.239 0.134t-1.189 0.374-0.971 0.792-0.363 1.278z"></path>
</svg>
