<!-- Generated by IcoMoon.io -->
<svg version="1.1" xmlns="http://www.w3.org/2000/svg" width="23" height="20" viewBox="0 0 23 20">
<title>ambulance</title>
<path d="M7.857 15.714q0-0.592-0.419-1.010t-1.010-0.419-1.010 0.419-0.419 1.010 0.419 1.010 1.010 0.419 1.010-0.419 0.419-1.010zM3.571 10h4.286v-2.857h-1.763q-0.156 0.022-0.246 0.1l-2.176 2.176q-0.078 0.134-0.1 0.246v0.335zM17.857 15.714q0-0.592-0.419-1.010t-1.010-0.419-1.010 0.419-0.419 1.010 0.419 1.010 1.010 0.419 1.010-0.419 0.419-1.010zM19.286 8.214v-2.143q0-0.156-0.1-0.257t-0.257-0.1h-2.5v-2.5q0-0.156-0.1-0.257t-0.257-0.1h-2.143q-0.156 0-0.257 0.1t-0.1 0.257v2.5h-2.5q-0.156 0-0.257 0.1t-0.1 0.257v2.143q0 0.156 0.1 0.257t0.257 0.1h2.5v2.5q0 0.156 0.1 0.257t0.257 0.1h2.143q0.156 0 0.257-0.1t0.1-0.257v-2.5h2.5q0.156 0 0.257-0.1t0.1-0.257zM22.143 2.143v12.857q0 0.29-0.212 0.502t-0.502 0.212h-2.143q0 1.183-0.837 2.020t-2.020 0.837-2.020-0.837-0.837-2.020h-4.286q0 1.183-0.837 2.020t-2.020 0.837-2.020-0.837-0.837-2.020h-1.429q-0.29 0-0.502-0.212t-0.212-0.502 0.212-0.502 0.502-0.212v-4.643q0-0.29 0.145-0.647t0.357-0.569l2.21-2.21q0.212-0.212 0.569-0.357t0.647-0.145h1.786v-3.571q0-0.29 0.212-0.502t0.502-0.212h12.857q0.29 0 0.502 0.212t0.212 0.502z"></path>
</svg>
