<!-- Generated by IcoMoon.io -->
<svg version="1.1" xmlns="http://www.w3.org/2000/svg" width="20" height="20" viewBox="0 0 20 20">
<title>anchor</title>
<path d="M10.714 2.857q0-0.29-0.212-0.502t-0.502-0.212-0.502 0.212-0.212 0.502 0.212 0.502 0.502 0.212 0.502-0.212 0.212-0.502zM20 13.214v3.929q0 0.246-0.223 0.335-0.089 0.022-0.134 0.022-0.134 0-0.257-0.1l-1.038-1.038q-1.328 1.596-3.555 2.528t-4.794 0.932-4.794-0.932-3.555-2.528l-1.038 1.038q-0.1 0.1-0.257 0.1-0.045 0-0.134-0.022-0.223-0.089-0.223-0.335v-3.929q0-0.156 0.1-0.257t0.257-0.1h3.929q0.246 0 0.335 0.223 0.089 0.212-0.078 0.391l-1.116 1.116q0.748 1.016 2.115 1.713t3.030 0.921v-7.221h-2.143q-0.29 0-0.502-0.212t-0.212-0.502v-1.429q0-0.29 0.212-0.502t0.502-0.212h2.143v-1.819q-0.647-0.379-1.038-1.032t-0.391-1.434q0-1.183 0.837-2.020t2.020-0.837 2.020 0.837 0.837 2.020q0 0.781-0.391 1.434t-1.038 1.032v1.819h2.143q0.29 0 0.502 0.212t0.212 0.502v1.429q0 0.29-0.212 0.502t-0.502 0.212h-2.143v7.221q1.663-0.223 3.030-0.921t2.115-1.713l-1.116-1.116q-0.167-0.179-0.078-0.391 0.089-0.223 0.335-0.223h3.929q0.156 0 0.257 0.1t0.1 0.257z"></path>
</svg>
