<!-- Generated by IcoMoon.io -->
<svg version="1.1" xmlns="http://www.w3.org/2000/svg" width="20" height="20" viewBox="0 0 20 20">
<title>android</title>
<path d="M7.645 5.391q0.179 0 0.307-0.128t0.128-0.307-0.128-0.307-0.307-0.128-0.301 0.128-0.123 0.307 0.123 0.307 0.301 0.128zM12.355 5.391q0.179 0 0.301-0.128t0.123-0.307-0.123-0.307-0.301-0.128-0.307 0.128-0.128 0.307 0.128 0.307 0.307 0.128zM3.292 7.444q0.469 0 0.804 0.335t0.335 0.804v4.799q0 0.48-0.329 0.815t-0.809 0.335-0.815-0.335-0.335-0.815v-4.799q0-0.469 0.335-0.804t0.815-0.335zM15.123 7.656v7.433q0 0.513-0.357 0.871t-0.859 0.357h-0.837v2.533q0 0.48-0.335 0.815t-0.815 0.335-0.815-0.335-0.335-0.815v-2.533h-1.54v2.533q0 0.48-0.335 0.815t-0.815 0.335q-0.469 0-0.804-0.335t-0.335-0.815l-0.011-2.533h-0.826q-0.513 0-0.871-0.357t-0.357-0.871v-7.433h10.246zM12.533 3.136q1.194 0.614 1.908 1.713t0.714 2.405h-10.324q0-1.306 0.714-2.405t1.92-1.713l-0.792-1.462q-0.078-0.145 0.056-0.223 0.145-0.067 0.223 0.067l0.804 1.473q1.060-0.469 2.243-0.469t2.243 0.469l0.804-1.473q0.078-0.134 0.223-0.067 0.134 0.078 0.056 0.223zM17.857 8.583v4.799q0 0.48-0.335 0.815t-0.815 0.335q-0.469 0-0.804-0.335t-0.335-0.815v-4.799q0-0.48 0.335-0.809t0.804-0.329q0.48 0 0.815 0.329t0.335 0.809z"></path>
</svg>
