<!-- Generated by IcoMoon.io -->
<svg version="1.1" xmlns="http://www.w3.org/2000/svg" width="20" height="20" viewBox="0 0 20 20">
<title>angellist</title>
<path d="M13.493 4.219l-1.272 3.661 1.306 0.234q1.842-5.033 1.842-5.781 0-0.625-0.424-0.625-0.636 0-1.451 2.511zM10.156 11.886l0.368 0.982q0.413-0.469 0.792-0.748l-0.368-0.061-0.43-0.078-0.363-0.095zM6.897 1.886q0 1.094 1.775 5.815 0.19-0.112 0.547-0.112 0.167 0 0.837 0.056l-1.35-3.917q-0.837-2.455-1.373-2.455-0.212 0-0.324 0.195t-0.112 0.419zM6.016 10.357q0 0.402 0.575 1.328t1.311 1.708 1.116 0.781q0.156 0 0.285-0.145t0.128-0.301q0-0.268-0.357-1.138-0.145-0.357-0.357-0.804t-0.53-0.993-0.686-0.904-0.692-0.357q-0.223 0-0.508 0.301t-0.285 0.525zM4.252 14.096q0 0.458 0.279 1.161 0.658 1.618 2.048 2.533t3.142 0.915q2.533 0 4.263-1.897 1.696-1.886 1.696-4.766 0-0.48-0.011-0.748t-0.128-0.692-0.34-0.625q-0.625-0.547-2.36-0.843t-3.019-0.296q-0.413 0-0.547 0.123-0.134 0.056-0.134 0.391 0 0.379 0.24 0.67t0.619 0.446 0.865 0.262 0.977 0.128 0.949 0.045 0.781 0h0.257q0.268 0 0.446 0.212 0.167 0.212 0.212 0.614-0.313 0.313-1.071 0.603-0.681 0.246-1.038 0.513-0.714 0.513-1.211 1.272t-0.497 1.529q0 0.346 0.206 0.988t0.206 0.977l-0.033 0.134q-0.045 0.134-0.045 0.156-1.529-0.112-1.629-2.411-0.089 0.022-0.458 0.022 0.022 0.078 0.022 0.234 0 0.592-0.452 0.999t-1.055 0.407q-0.915 0-1.858-0.871t-0.943-1.775q0-0.379 0.368-0.748 0.58 0.714 0.67 0.848 0.859 1.161 1.484 1.161 0.134 0 0.296-0.095t0.162-0.229q0-0.379-0.977-1.618t-1.3-1.239q-0.48 0-0.781 0.497t-0.301 1.010zM2.98 14.196q0-1.127 0.474-1.819t1.523-0.982q-0.313-0.826-0.313-1.161 0-0.692 0.681-1.373t1.362-0.681q0.324 0 0.781 0.167-1.819-5.156-1.819-6.328 0-0.893 0.458-1.456t1.328-0.564q1.462 0 3.627 6.484 0.067 0.19 0.089 0.257 0.067-0.179 0.324-0.887t0.485-1.323 0.603-1.423 0.72-1.373 0.787-0.965 0.854-0.402q0.792 0 1.25 0.547t0.458 1.362q0 1.205-1.775 6.138 0.681 0.167 1.122 0.513t0.653 0.871 0.29 1.044 0.078 1.233q0 1.674-0.525 3.125t-1.473 2.511-2.355 1.674-3.103 0.614q-1.239 0-2.489-0.469-1.663-0.636-2.879-2.137t-1.217-3.198z"></path>
</svg>
