<!-- Generated by IcoMoon.io -->
<svg version="1.1" xmlns="http://www.w3.org/2000/svg" width="20" height="20" viewBox="0 0 20 20">
<title>angle-double-right</title>
<path d="M10.926 10.714q0 0.145-0.112 0.257l-5.201 5.201q-0.112 0.112-0.257 0.112t-0.257-0.112l-0.558-0.558q-0.112-0.112-0.112-0.257t0.112-0.257l4.386-4.386-4.386-4.386q-0.112-0.112-0.112-0.257t0.112-0.257l0.558-0.558q0.112-0.112 0.257-0.112t0.257 0.112l5.201 5.201q0.112 0.112 0.112 0.257zM15.212 10.714q0 0.145-0.112 0.257l-5.201 5.201q-0.112 0.112-0.257 0.112t-0.257-0.112l-0.558-0.558q-0.112-0.112-0.112-0.257t0.112-0.257l4.386-4.386-4.386-4.386q-0.112-0.112-0.112-0.257t0.112-0.257l0.558-0.558q0.112-0.112 0.257-0.112t0.257 0.112l5.201 5.201q0.112 0.112 0.112 0.257z"></path>
</svg>
