<!-- Generated by IcoMoon.io -->
<svg version="1.1" xmlns="http://www.w3.org/2000/svg" width="20" height="20" viewBox="0 0 20 20">
<title>apple</title>
<path d="M17.69 13.56q-0.435 1.395-1.373 2.79-1.44 2.188-2.868 2.188-0.547 0-1.563-0.357-0.96-0.357-1.685-0.357-0.681 0-1.585 0.368-0.904 0.379-1.473 0.379-1.696 0-3.359-2.891-1.641-2.913-1.641-5.614 0-2.545 1.261-4.174 1.261-1.607 3.17-1.607 0.804 0 1.975 0.335 1.161 0.335 1.54 0.335 0.502 0 1.596-0.379 1.138-0.379 1.931-0.379 1.328 0 2.377 0.725 0.58 0.402 1.161 1.116-0.882 0.748-1.272 1.317-0.725 1.049-0.725 2.31 0 1.384 0.77 2.489t1.763 1.406zM13.493 0.469q0 0.681-0.324 1.518-0.335 0.837-1.038 1.54-0.603 0.603-1.205 0.804-0.413 0.123-1.161 0.19 0.033-1.663 0.871-2.868 0.826-1.194 2.79-1.652 0.011 0.033 0.028 0.123t0.028 0.123q0 0.045 0.006 0.112t0.006 0.112z"></path>
</svg>
