<!-- Generated by IcoMoon.io -->
<svg version="1.1" xmlns="http://www.w3.org/2000/svg" width="20" height="20" viewBox="0 0 20 20">
<title>archive</title>
<path d="M12.143 9.286q0-0.29-0.212-0.502t-0.502-0.212h-2.857q-0.29 0-0.502 0.212t-0.212 0.502 0.212 0.502 0.502 0.212h2.857q0.29 0 0.502-0.212t0.212-0.502zM18.571 7.143v10.714q0 0.29-0.212 0.502t-0.502 0.212h-15.714q-0.29 0-0.502-0.212t-0.212-0.502v-10.714q0-0.29 0.212-0.502t0.502-0.212h15.714q0.29 0 0.502 0.212t0.212 0.502zM19.286 2.143v2.857q0 0.29-0.212 0.502t-0.502 0.212h-17.143q-0.29 0-0.502-0.212t-0.212-0.502v-2.857q0-0.29 0.212-0.502t0.502-0.212h17.143q0.29 0 0.502 0.212t0.212 0.502z"></path>
</svg>
