<!-- Generated by IcoMoon.io -->
<svg version="1.1" xmlns="http://www.w3.org/2000/svg" width="20" height="20" viewBox="0 0 20 20">
<title>arrow-left</title>
<path d="M18.571 10v1.429q0 0.592-0.363 1.010t-0.943 0.419h-7.857l3.27 3.281q0.424 0.402 0.424 1.004t-0.424 1.004l-0.837 0.848q-0.413 0.413-1.004 0.413-0.58 0-1.016-0.413l-7.266-7.277q-0.413-0.413-0.413-1.004 0-0.58 0.413-1.016l7.266-7.254q0.424-0.424 1.016-0.424 0.58 0 1.004 0.424l0.837 0.826q0.424 0.424 0.424 1.016t-0.424 1.016l-3.27 3.27h7.857q0.58 0 0.943 0.419t0.363 1.010z"></path>
</svg>
