<!-- Generated by IcoMoon.io -->
<svg version="1.1" xmlns="http://www.w3.org/2000/svg" width="20" height="20" viewBox="0 0 20 20">
<title>arrows-h</title>
<path d="M20 10q0 0.29-0.212 0.502l-2.857 2.857q-0.212 0.212-0.502 0.212t-0.502-0.212-0.212-0.502v-1.429h-11.429v1.429q0 0.29-0.212 0.502t-0.502 0.212-0.502-0.212l-2.857-2.857q-0.212-0.212-0.212-0.502t0.212-0.502l2.857-2.857q0.212-0.212 0.502-0.212t0.502 0.212 0.212 0.502v1.429h11.429v-1.429q0-0.29 0.212-0.502t0.502-0.212 0.502 0.212l2.857 2.857q0.212 0.212 0.212 0.502z"></path>
</svg>
