<!-- Generated by IcoMoon.io -->
<svg version="1.1" xmlns="http://www.w3.org/2000/svg" width="20" height="20" viewBox="0 0 20 20">
<title>arrow-up</title>
<path d="M18.694 10.837q0 0.569-0.413 1.004l-0.837 0.837q-0.424 0.424-1.016 0.424-0.603 0-1.004-0.424l-3.281-3.27v7.857q0 0.58-0.419 0.943t-1.010 0.363h-1.429q-0.592 0-1.010-0.363t-0.419-0.943v-7.857l-3.281 3.27q-0.402 0.424-1.004 0.424t-1.004-0.424l-0.837-0.837q-0.424-0.424-0.424-1.004 0-0.592 0.424-1.016l7.266-7.266q0.391-0.413 1.004-0.413 0.603 0 1.016 0.413l7.266 7.266q0.413 0.435 0.413 1.016z"></path>
</svg>
