<!-- Generated by IcoMoon.io -->
<svg version="1.1" xmlns="http://www.w3.org/2000/svg" width="20" height="20" viewBox="0 0 20 20">
<title>arrow-circle-o-left</title>
<path d="M14.286 8.929v2.143q0 0.145-0.106 0.251t-0.251 0.106h-3.929v2.143q0 0.156-0.1 0.257t-0.257 0.1q-0.134 0-0.268-0.112l-3.56-3.56q-0.1-0.1-0.1-0.257t0.1-0.257l3.571-3.571q0.1-0.1 0.257-0.1 0.145 0 0.251 0.106t0.106 0.251v2.143h3.929q0.145 0 0.251 0.106t0.106 0.251zM16.071 10q0-1.652-0.815-3.047t-2.21-2.21-3.047-0.815-3.047 0.815-2.21 2.21-0.815 3.047 0.815 3.047 2.21 2.21 3.047 0.815 3.047-0.815 2.21-2.21 0.815-3.047zM18.571 10q0 2.333-1.15 4.302t-3.119 3.119-4.302 1.15-4.302-1.15-3.119-3.119-1.15-4.302 1.15-4.302 3.119-3.119 4.302-1.15 4.302 1.15 3.119 3.119 1.15 4.302z"></path>
</svg>
