<!-- Generated by IcoMoon.io -->
<svg version="1.1" xmlns="http://www.w3.org/2000/svg" width="20" height="20" viewBox="0 0 20 20">
<title>arrow-down</title>
<path d="M18.694 9.286q0 0.592-0.413 1.004l-7.266 7.277q-0.435 0.413-1.016 0.413-0.592 0-1.004-0.413l-7.266-7.277q-0.424-0.402-0.424-1.004 0-0.592 0.424-1.016l0.826-0.837q0.435-0.413 1.016-0.413 0.592 0 1.004 0.413l3.281 3.281v-7.857q0-0.58 0.424-1.004t1.004-0.424h1.429q0.58 0 1.004 0.424t0.424 1.004v7.857l3.281-3.281q0.413-0.413 1.004-0.413 0.58 0 1.016 0.413l0.837 0.837q0.413 0.435 0.413 1.016z"></path>
</svg>
