<!-- Generated by IcoMoon.io -->
<svg version="1.1" xmlns="http://www.w3.org/2000/svg" width="20" height="20" viewBox="0 0 20 20">
<title>arrows-alt</title>
<path d="M15.748 6.038l-3.962 3.962 3.962 3.962 1.607-1.607q0.324-0.346 0.781-0.156 0.435 0.19 0.435 0.658v5q0 0.29-0.212 0.502t-0.502 0.212h-5q-0.469 0-0.658-0.446-0.19-0.435 0.156-0.77l1.607-1.607-3.962-3.962-3.962 3.962 1.607 1.607q0.346 0.335 0.156 0.77-0.19 0.446-0.658 0.446h-5q-0.29 0-0.502-0.212t-0.212-0.502v-5q0-0.469 0.446-0.658 0.435-0.19 0.77 0.156l1.607 1.607 3.962-3.962-3.962-3.962-1.607 1.607q-0.212 0.212-0.502 0.212-0.134 0-0.268-0.056-0.446-0.19-0.446-0.658v-5q0-0.29 0.212-0.502t0.502-0.212h5q0.469 0 0.658 0.446 0.19 0.435-0.156 0.77l-1.607 1.607 3.962 3.962 3.962-3.962-1.607-1.607q-0.346-0.335-0.156-0.77 0.19-0.446 0.658-0.446h5q0.29 0 0.502 0.212t0.212 0.502v5q0 0.469-0.435 0.658-0.145 0.056-0.279 0.056-0.29 0-0.502-0.212z"></path>
</svg>
