<!-- Generated by IcoMoon.io -->
<svg version="1.1" xmlns="http://www.w3.org/2000/svg" width="20" height="20" viewBox="0 0 20 20">
<title>arrow-circle-left</title>
<path d="M15.714 10.714v-1.429q0-0.29-0.212-0.502t-0.502-0.212h-5.603l2.109-2.109q0.212-0.212 0.212-0.502t-0.212-0.502l-1.016-1.016q-0.201-0.201-0.502-0.201t-0.502 0.201l-5.056 5.056q-0.201 0.201-0.201 0.502t0.201 0.502l5.056 5.056q0.201 0.201 0.502 0.201t0.502-0.201l1.016-1.016q0.201-0.201 0.201-0.502t-0.201-0.502l-2.109-2.109h5.603q0.29 0 0.502-0.212t0.212-0.502zM18.571 10q0 2.333-1.15 4.302t-3.119 3.119-4.302 1.15-4.302-1.15-3.119-3.119-1.15-4.302 1.15-4.302 3.119-3.119 4.302-1.15 4.302 1.15 3.119 3.119 1.15 4.302z"></path>
</svg>
