<!-- Generated by IcoMoon.io -->
<svg version="1.1" xmlns="http://www.w3.org/2000/svg" width="20" height="20" viewBox="0 0 20 20">
<title>arrows-v</title>
<path d="M13.571 3.571q0 0.29-0.212 0.502t-0.502 0.212h-1.429v11.429h1.429q0.29 0 0.502 0.212t0.212 0.502-0.212 0.502l-2.857 2.857q-0.212 0.212-0.502 0.212t-0.502-0.212l-2.857-2.857q-0.212-0.212-0.212-0.502t0.212-0.502 0.502-0.212h1.429v-11.429h-1.429q-0.29 0-0.502-0.212t-0.212-0.502 0.212-0.502l2.857-2.857q0.212-0.212 0.502-0.212t0.502 0.212l2.857 2.857q0.212 0.212 0.212 0.502z"></path>
</svg>
