<!-- Generated by IcoMoon.io -->
<svg version="1.1" xmlns="http://www.w3.org/2000/svg" width="20" height="20" viewBox="0 0 20 20">
<title>arrow-circle-o-right</title>
<path d="M14.286 10q0 0.156-0.1 0.257l-3.571 3.571q-0.1 0.1-0.257 0.1-0.145 0-0.251-0.106t-0.106-0.251v-2.143h-3.929q-0.145 0-0.251-0.106t-0.106-0.251v-2.143q0-0.145 0.106-0.251t0.251-0.106h3.929v-2.143q0-0.156 0.1-0.257t0.257-0.1q0.134 0 0.268 0.112l3.56 3.56q0.1 0.1 0.1 0.257zM16.071 10q0-1.652-0.815-3.047t-2.21-2.21-3.047-0.815-3.047 0.815-2.21 2.21-0.815 3.047 0.815 3.047 2.21 2.21 3.047 0.815 3.047-0.815 2.21-2.21 0.815-3.047zM18.571 10q0 2.333-1.15 4.302t-3.119 3.119-4.302 1.15-4.302-1.15-3.119-3.119-1.15-4.302 1.15-4.302 3.119-3.119 4.302-1.15 4.302 1.15 3.119 3.119 1.15 4.302z"></path>
</svg>
