<!-- Generated by IcoMoon.io -->
<svg version="1.1" xmlns="http://www.w3.org/2000/svg" width="20" height="20" viewBox="0 0 20 20">
<title>arrow-circle-o-up</title>
<path d="M13.906 9.777q-0.089 0.223-0.335 0.223h-2.143v3.929q0 0.156-0.1 0.257t-0.257 0.1h-2.143q-0.156 0-0.257-0.1t-0.1-0.257v-3.929h-2.143q-0.156 0-0.257-0.1t-0.1-0.257q0-0.134 0.112-0.268l3.56-3.56q0.123-0.1 0.257-0.1t0.257 0.1l3.571 3.571q0.167 0.179 0.078 0.391zM10 3.929q-1.652 0-3.047 0.815t-2.21 2.21-0.815 3.047 0.815 3.047 2.21 2.21 3.047 0.815 3.047-0.815 2.21-2.21 0.815-3.047-0.815-3.047-2.21-2.21-3.047-0.815zM18.571 10q0 2.333-1.15 4.302t-3.119 3.119-4.302 1.15-4.302-1.15-3.119-3.119-1.15-4.302 1.15-4.302 3.119-3.119 4.302-1.15 4.302 1.15 3.119 3.119 1.15 4.302z"></path>
</svg>
