<!-- Generated by IcoMoon.io -->
<svg version="1.1" xmlns="http://www.w3.org/2000/svg" width="20" height="20" viewBox="0 0 20 20">
<title>arrow-right</title>
<path d="M17.857 10.714q0 0.603-0.413 1.016l-7.266 7.266q-0.435 0.413-1.016 0.413-0.569 0-1.004-0.413l-0.837-0.837q-0.424-0.424-0.424-1.016t0.424-1.016l3.27-3.27h-7.857q-0.58 0-0.943-0.419t-0.363-1.010v-1.429q0-0.592 0.363-1.010t0.943-0.419h7.857l-3.27-3.281q-0.424-0.402-0.424-1.004t0.424-1.004l0.837-0.837q0.424-0.424 1.004-0.424 0.592 0 1.016 0.424l7.266 7.266q0.413 0.391 0.413 1.004z"></path>
</svg>
