<!-- Generated by IcoMoon.io -->
<svg version="1.1" xmlns="http://www.w3.org/2000/svg" width="26" height="20" viewBox="0 0 26 20">
<title>asl-interpreting</title>
<path d="M11.518 10.714q-0.658-0.022-0.938-0.614-0.19-0.379-0.536-0.597t-0.759-0.218q-0.592 0-1.010 0.419t-0.419 1.010q0 0.625 0.402 0.993l0.112 0.089q0.379 0.346 0.915 0.346 0.413 0 0.759-0.218t0.536-0.597q0.279-0.592 0.938-0.614zM17.857 9.286q0-0.625-0.402-0.993l-0.112-0.089q-0.379-0.346-0.915-0.346-0.413 0-0.759 0.218t-0.536 0.597q-0.279 0.592-0.938 0.614 0.658 0.022 0.938 0.614 0.19 0.379 0.536 0.597t0.759 0.218q0.592 0 1.010-0.419t0.419-1.010zM13.103 6.819q-0.19 0.391-0.614 0.536t-0.815-0.045q-0.692-0.346-1.496-0.346-0.569 0-1.105 0.19 0.033 0 0.106-0.006t0.106-0.006q1.027 0 1.903 0.558t1.323 1.484q0.19 0.402 0.039 0.82t-0.552 0.608q-0.201 0.1-0.435 0.1 0.234 0 0.435 0.1 0.402 0.19 0.552 0.608t-0.039 0.82q-0.446 0.926-1.323 1.484t-1.903 0.558h-0.067q-0.179-0.022-0.491-0.045l-3.237-0.301-2.667 1.339q-0.156 0.078-0.324 0.078-0.446 0-0.636-0.391l-1.786-3.571q-0.123-0.257-0.045-0.53t0.324-0.419l2.333-1.328 1.652-2.98q0.19-1.73 1.021-3.253t2.182-2.64q0.346-0.279 0.787-0.24t0.72 0.385 0.24 0.781-0.385 0.725q-0.781 0.658-1.306 1.429 1.373-0.938 2.98-1.127 0.446-0.056 0.798 0.212t0.396 0.714q0.056 0.446-0.212 0.798t-0.714 0.396q-0.938 0.112-1.775 0.614 0.513-0.112 1.105-0.112 1.283 0 2.433 0.558 0.402 0.201 0.547 0.619t-0.056 0.82zM23.85 5.033l1.786 3.571q0.123 0.257 0.045 0.53t-0.324 0.419l-2.333 1.328-1.652 2.98q-0.19 1.73-1.021 3.253t-2.182 2.64q-0.29 0.246-0.681 0.246-0.502 0-0.826-0.391-0.279-0.346-0.24-0.781t0.385-0.725q0.781-0.658 1.306-1.429-1.373 0.938-2.98 1.127-0.045 0.011-0.134 0.011-0.402 0-0.709-0.268t-0.352-0.67q-0.056-0.446 0.212-0.798t0.714-0.396q0.938-0.112 1.775-0.614-0.513 0.112-1.105 0.112-1.283 0-2.433-0.558-0.402-0.201-0.547-0.619t0.056-0.82q0.19-0.391 0.614-0.536t0.815 0.045q0.692 0.346 1.496 0.346 0.569 0 1.105-0.19-0.033 0-0.106 0.006t-0.106 0.006q-1.027 0-1.903-0.558t-1.323-1.484q-0.19-0.402-0.039-0.82t0.552-0.608q0.201-0.1 0.435-0.1-0.234 0-0.435-0.1-0.402-0.19-0.552-0.608t0.039-0.82q0.446-0.926 1.323-1.484t1.903-0.558h0.078q0.156 0.022 0.469 0.045l3.248 0.301 2.667-1.339q0.156-0.078 0.324-0.078 0.446 0 0.636 0.391z"></path>
</svg>
