<!-- Generated by IcoMoon.io -->
<svg version="1.1" xmlns="http://www.w3.org/2000/svg" width="20" height="20" viewBox="0 0 20 20">
<title>assistive-listening-systems</title>
<path d="M1.429 19.286q0 0.29-0.212 0.502t-0.502 0.212-0.502-0.212-0.212-0.502 0.212-0.502 0.502-0.212 0.502 0.212 0.212 0.502zM3.571 17.143q0 0.29-0.212 0.502t-0.502 0.212-0.502-0.212-0.212-0.502 0.212-0.502 0.502-0.212 0.502 0.212 0.212 0.502zM4.074 13.069l2.857 2.857-1.004 1.004-2.857-2.857zM7.857 12.857q0 0.29-0.212 0.502t-0.502 0.212-0.502-0.212-0.212-0.502 0.212-0.502 0.502-0.212 0.502 0.212 0.212 0.502zM15.748 9.286q0 0.658-0.128 1.211t-0.419 1.044-0.491 0.753-0.592 0.72q-0.346 0.391-0.508 0.603t-0.374 0.558-0.296 0.714-0.084 0.826q0 1.775-1.256 3.030t-3.030 1.256q-0.29 0-0.502-0.212t-0.212-0.502 0.212-0.502 0.502-0.212q1.183 0 2.020-0.837t0.837-2.020q0-0.636 0.128-1.177t0.413-1.016 0.485-0.742 0.58-0.703q0.446-0.513 0.664-0.804t0.419-0.831 0.201-1.155q0-2.065-1.468-3.532t-3.532-1.468-3.532 1.468-1.468 3.532q0 0.29-0.212 0.502t-0.502 0.212-0.502-0.212-0.212-0.502q0-1.306 0.508-2.494t1.373-2.054 2.054-1.373 2.494-0.508 2.494 0.508 2.054 1.373 1.373 2.054 0.508 2.494zM10 10.714q0 0.29-0.212 0.502t-0.502 0.212-0.502-0.212-0.212-0.502 0.212-0.502 0.502-0.212 0.502 0.212 0.212 0.502zM13.214 9.286q0 0.29-0.212 0.502t-0.502 0.212-0.502-0.212-0.212-0.502q0-1.038-0.731-1.769t-1.769-0.731q-1.027 0-1.763 0.731t-0.737 1.769q0 0.29-0.212 0.502t-0.502 0.212-0.502-0.212-0.212-0.502q0-1.629 1.15-2.779t2.779-1.15 2.779 1.15 1.15 2.779zM17.612 6.060q0.112 0.279-0.011 0.547t-0.402 0.379q-0.1 0.045-0.257 0.045-0.212 0-0.396-0.123t-0.262-0.335q-0.759-1.987-2.5-3.292-0.234-0.179-0.279-0.469t0.134-0.525q0.19-0.234 0.48-0.279t0.525 0.134q2.042 1.529 2.969 3.917zM19.955 5.156q0.1 0.279-0.017 0.547t-0.396 0.379q-0.123 0.045-0.257 0.045-0.491 0-0.67-0.458-1.027-2.656-3.315-4.386-0.246-0.179-0.285-0.469t0.14-0.525q0.179-0.246 0.469-0.285t0.525 0.14q2.623 1.953 3.806 5.011z"></path>
</svg>
