<!-- Generated by IcoMoon.io -->
<svg version="1.1" xmlns="http://www.w3.org/2000/svg" width="20" height="20" viewBox="0 0 20 20">
<title>asterisk</title>
<path d="M17.254 11.719q0.513 0.29 0.664 0.865t-0.14 1.088l-0.714 1.228q-0.29 0.513-0.865 0.664t-1.088-0.14l-2.969-1.708v3.426q0 0.58-0.424 1.004t-1.004 0.424h-1.429q-0.58 0-1.004-0.424t-0.424-1.004v-3.426l-2.969 1.708q-0.513 0.29-1.088 0.14t-0.865-0.664l-0.714-1.228q-0.29-0.513-0.14-1.088t0.664-0.865l2.969-1.719-2.969-1.719q-0.513-0.29-0.664-0.865t0.14-1.088l0.714-1.228q0.29-0.513 0.865-0.664t1.088 0.14l2.969 1.708v-3.426q0-0.58 0.424-1.004t1.004-0.424h1.429q0.58 0 1.004 0.424t0.424 1.004v3.426l2.969-1.708q0.513-0.29 1.088-0.14t0.865 0.664l0.714 1.228q0.29 0.513 0.14 1.088t-0.664 0.865l-2.969 1.719z"></path>
</svg>
