<!-- Generated by IcoMoon.io -->
<svg version="1.1" xmlns="http://www.w3.org/2000/svg" width="20" height="20" viewBox="0 0 20 20">
<title>at</title>
<path d="M12.277 8.65q0-1.205-0.597-1.886t-1.646-0.681q-0.703 0-1.384 0.34t-1.228 0.943-0.887 1.529-0.34 2.009q0 1.25 0.597 1.931t1.68 0.681q1.071 0 1.964-0.742t1.367-1.853 0.474-2.271zM18.571 10q0 1.239-0.413 2.199t-1.099 1.507-1.468 0.831-1.618 0.307q-0.067 0-0.173 0.006t-0.184 0.006q-1.060 0-1.585-0.592-0.313-0.368-0.368-0.926-0.58 0.737-1.468 1.228t-1.936 0.491q-1.797 0-2.785-1.066t-0.988-3.008q0-1.752 0.737-3.237t1.998-2.349 2.746-0.865q0.971 0 1.73 0.396t1.183 1.11l0.022-0.212 0.123-0.625q0.011-0.067 0.061-0.134t0.106-0.067h1.317q0.056 0 0.145 0.123 0.056 0.056 0.033 0.179l-1.339 6.853q-0.056 0.268-0.056 0.536 0 0.435 0.14 0.58t0.497 0.145q0.313-0.011 0.636-0.061t0.815-0.268 0.859-0.558 0.636-0.999 0.268-1.529q0-3.259-1.942-5.201t-5.201-1.942q-1.451 0-2.773 0.569t-2.277 1.523-1.523 2.277-0.569 2.773 0.569 2.773 1.523 2.277 2.277 1.523 2.773 0.569q2.545 0 4.52-1.607 0.123-0.1 0.268-0.089t0.234 0.134l0.458 0.547q0.089 0.134 0.078 0.268-0.022 0.145-0.134 0.246-1.138 0.926-2.539 1.429t-2.885 0.502q-1.741 0-3.326-0.681t-2.734-1.83-1.83-2.734-0.681-3.326 0.681-3.326 1.83-2.734 2.734-1.83 3.326-0.681q3.839 0 6.205 2.366t2.366 6.205z"></path>
</svg>
