<!-- Generated by IcoMoon.io -->
<svg version="1.1" xmlns="http://www.w3.org/2000/svg" width="26" height="20" viewBox="0 0 26 20">
<title>audio-description</title>
<path d="M5.625 11.094h1.908l-0.011-2.958zM17.076 9.989q0-0.971-0.564-1.563t-1.635-0.592h-0.603v4.33h0.58q1.016 0 1.618-0.636t0.603-1.54zM10.67 5.781l0.011 8.438q0 0.156-0.106 0.268t-0.262 0.112h-2.411q-0.156 0-0.262-0.112t-0.106-0.268v-0.692h-3.248l-0.614 0.904q-0.112 0.167-0.313 0.167h-2.98q-0.234 0-0.34-0.201t0.039-0.391l6.205-8.449q0.1-0.156 0.301-0.156h3.705q0.156 0 0.268 0.112t0.112 0.268zM19.9 9.989q0 2.154-1.401 3.382t-3.622 1.228h-3.013q-0.156 0-0.268-0.112t-0.112-0.268v-8.438q0-0.156 0.112-0.268t0.268-0.112h2.991q2.232 0 3.638 1.217t1.406 3.371zM21.641 10q0 0.123-0.006 0.324t-0.089 0.798-0.24 1.138-0.497 1.205-0.82 1.144h-0.569q0.424-0.502 0.742-1.166t0.463-1.25 0.234-1.094 0.1-0.809l0.011-0.301q0-0.089-0.006-0.251t-0.084-0.67-0.223-1.021-0.458-1.244-0.737-1.39h0.48q0.458 0.525 0.804 1.194t0.508 1.244 0.257 1.071 0.117 0.787zM23.694 10q0 0.123-0.006 0.324t-0.089 0.798-0.24 1.138-0.502 1.205-0.826 1.144h-0.569q0.424-0.502 0.742-1.166t0.463-1.25 0.234-1.094 0.1-0.809l0.011-0.301q0-0.089-0.006-0.251t-0.084-0.67-0.218-1.021-0.452-1.244-0.737-1.39h0.48q0.458 0.525 0.804 1.194t0.508 1.244 0.257 1.071 0.117 0.787zM25.714 10q0 0.123-0.006 0.324t-0.089 0.798-0.24 1.138-0.497 1.205-0.82 1.144h-0.569q0.424-0.502 0.737-1.166t0.458-1.25 0.234-1.094 0.1-0.809l0.011-0.301q0-0.089-0.006-0.251t-0.084-0.67-0.218-1.021-0.452-1.244-0.737-1.39h0.48q0.458 0.525 0.804 1.194t0.508 1.244 0.257 1.071 0.106 0.787z"></path>
</svg>
