<!-- Generated by IcoMoon.io -->
<svg version="1.1" xmlns="http://www.w3.org/2000/svg" width="26" height="20" viewBox="0 0 26 20">
<title>balance-scale</title>
<path d="M19.286 5l-4.286 7.857h8.571zM5 5l-4.286 7.857h8.571zM14.163 2.857q-0.156 0.446-0.508 0.798t-0.798 0.508v14.408h6.786q0.156 0 0.257 0.1t0.1 0.257v0.714q0 0.156-0.1 0.257t-0.257 0.1h-15q-0.156 0-0.257-0.1t-0.1-0.257v-0.714q0-0.156 0.1-0.257t0.257-0.1h6.786v-14.408q-0.446-0.156-0.798-0.508t-0.508-0.798h-5.48q-0.156 0-0.257-0.1t-0.1-0.257v-0.714q0-0.156 0.1-0.257t0.257-0.1h5.48q0.234-0.636 0.781-1.032t1.239-0.396 1.239 0.396 0.781 1.032h5.48q0.156 0 0.257 0.1t0.1 0.257v0.714q0 0.156-0.1 0.257t-0.257 0.1h-5.48zM12.143 3.036q0.368 0 0.631-0.262t0.262-0.631-0.262-0.631-0.631-0.262-0.631 0.262-0.262 0.631 0.262 0.631 0.631 0.262zM24.286 12.857q0 0.815-0.519 1.462t-1.311 1.016-1.613 0.552-1.557 0.184-1.557-0.184-1.613-0.552-1.311-1.016-0.519-1.462q0-0.123 0.391-0.904t1.027-1.948 1.194-2.182 1.138-2.054 0.625-1.116q0.201-0.368 0.625-0.368t0.625 0.368q0.045 0.078 0.625 1.116t1.138 2.054 1.194 2.182 1.027 1.948 0.391 0.904zM10 12.857q0 0.815-0.519 1.462t-1.311 1.016-1.613 0.552-1.557 0.184-1.557-0.184-1.613-0.552-1.311-1.016-0.519-1.462q0-0.123 0.391-0.904t1.027-1.948 1.194-2.182 1.138-2.054 0.625-1.116q0.201-0.368 0.625-0.368t0.625 0.368q0.045 0.078 0.625 1.116t1.138 2.054 1.194 2.182 1.027 1.948 0.391 0.904z"></path>
</svg>
