<!-- Generated by IcoMoon.io -->
<svg version="1.1" xmlns="http://www.w3.org/2000/svg" width="20" height="20" viewBox="0 0 20 20">
<title>ban</title>
<path d="M16.071 9.967q0-1.797-0.971-3.292l-8.415 8.404q1.529 0.993 3.315 0.993 1.239 0 2.36-0.485t1.936-1.3 1.295-1.948 0.48-2.372zM4.922 13.304l8.426-8.415q-1.507-1.016-3.348-1.016-1.652 0-3.047 0.815t-2.21 2.221-0.815 3.058q0 1.808 0.993 3.337zM18.571 9.967q0 1.752-0.681 3.348t-1.825 2.746-2.734 1.83-3.331 0.681-3.331-0.681-2.734-1.83-1.825-2.746-0.681-3.348 0.681-3.343 1.825-2.74 2.734-1.83 3.331-0.681 3.331 0.681 2.734 1.83 1.825 2.74 0.681 3.343z"></path>
</svg>
