<!-- Generated by IcoMoon.io -->
<svg version="1.1" xmlns="http://www.w3.org/2000/svg" width="23" height="20" viewBox="0 0 23 20">
<title>bank</title>
<path d="M10.714 0l10.714 4.286v1.429h-1.429q0 0.29-0.229 0.502t-0.541 0.212h-17.031q-0.313 0-0.541-0.212t-0.229-0.502h-1.429v-1.429zM2.857 7.143h2.857v8.571h1.429v-8.571h2.857v8.571h1.429v-8.571h2.857v8.571h1.429v-8.571h2.857v8.571h0.658q0.313 0 0.541 0.212t0.229 0.502v0.714h-18.571v-0.714q0-0.29 0.229-0.502t0.541-0.212h0.658v-8.571zM20.658 17.857q0.313 0 0.541 0.212t0.229 0.502v1.429h-21.429v-1.429q0-0.29 0.229-0.502t0.541-0.212h19.888z"></path>
</svg>
