<!-- Generated by IcoMoon.io -->
<svg version="1.1" xmlns="http://www.w3.org/2000/svg" width="20" height="20" viewBox="0 0 20 20">
<title>barcode</title>
<path d="M0.703 17.143h-0.703v-15.714h0.703v15.714zM1.406 17.132h-0.357v-15.703h0.357v15.703zM2.455 17.132h-0.346v-15.703h0.346v15.703zM4.208 17.132h-0.346v-15.703h0.346v15.703zM5.96 17.132h-0.692v-15.703h0.692v15.703zM7.366 17.132h-0.346v-15.703h0.346v15.703zM8.069 17.132h-0.346v-15.703h0.346v15.703zM8.772 17.132h-0.346v-15.703h0.346v15.703zM10.525 17.132h-0.703v-15.703h0.703v15.703zM12.277 17.132h-0.703v-15.703h0.703v15.703zM13.683 17.132h-0.703v-15.703h0.703v15.703zM15.089 17.132h-0.703v-15.703h0.703v15.703zM16.138 17.132h-0.703v-15.703h0.703v15.703zM18.248 17.132h-1.049v-15.703h1.049v15.703zM18.951 17.132h-0.357v-15.703h0.357v15.703zM20 17.143h-0.703v-15.714h0.703v15.714z"></path>
</svg>
