<!-- Generated by IcoMoon.io -->
<svg version="1.1" xmlns="http://www.w3.org/2000/svg" width="20" height="20" viewBox="0 0 20 20">
<title>bath</title>
<path d="M18.571 12.143v2.143q0 1.886-1.429 3.192v2.165q0 0.156-0.1 0.257t-0.257 0.1h-0.714q-0.156 0-0.257-0.1t-0.1-0.257v-1.317q-0.703 0.246-1.429 0.246h-8.571q-0.725 0-1.429-0.246v1.228q0 0.19-0.106 0.318t-0.251 0.128h-0.714q-0.145 0-0.251-0.128t-0.106-0.318v-2.076q-1.429-1.306-1.429-3.192v-2.143h17.143zM7.857 7.5q0 0.156-0.1 0.257t-0.257 0.1-0.257-0.1-0.1-0.257 0.1-0.257 0.257-0.1 0.257 0.1 0.1 0.257zM8.571 6.786q0 0.156-0.1 0.257t-0.257 0.1-0.257-0.1-0.1-0.257 0.1-0.257 0.257-0.1 0.257 0.1 0.1 0.257zM7.857 6.071q0 0.156-0.1 0.257t-0.257 0.1-0.257-0.1-0.1-0.257 0.1-0.257 0.257-0.1 0.257 0.1 0.1 0.257zM9.286 6.071q0 0.156-0.1 0.257t-0.257 0.1-0.257-0.1-0.1-0.257 0.1-0.257 0.257-0.1 0.257 0.1 0.1 0.257zM8.571 5.357q0 0.156-0.1 0.257t-0.257 0.1-0.257-0.1-0.1-0.257 0.1-0.257 0.257-0.1 0.257 0.1 0.1 0.257zM7.857 4.643q0 0.156-0.1 0.257t-0.257 0.1-0.257-0.1-0.1-0.257 0.1-0.257 0.257-0.1 0.257 0.1 0.1 0.257zM20 10.357v0.714q0 0.156-0.1 0.257t-0.257 0.1h-19.286q-0.156 0-0.257-0.1t-0.1-0.257v-0.714q0-0.156 0.1-0.257t0.257-0.1h1.071v-7.143q0-1.183 0.837-2.020t2.020-0.837q1.205 0 2.054 0.871 0.513-0.212 1.094-0.134t1.038 0.435l0.246-0.246q0.123-0.123 0.246 0l0.469 0.469q0.123 0.123 0 0.246l-3.504 3.504q-0.123 0.123-0.246 0l-0.469-0.469q-0.123-0.123 0-0.246l0.246-0.246q-0.402-0.513-0.452-1.161t0.262-1.205q-0.413-0.391-0.982-0.391-0.592 0-1.010 0.419t-0.419 1.010v7.143h16.786q0.156 0 0.257 0.1t0.1 0.257zM10 5.357q0 0.156-0.1 0.257t-0.257 0.1-0.257-0.1-0.1-0.257 0.1-0.257 0.257-0.1 0.257 0.1 0.1 0.257zM9.286 4.643q0 0.156-0.1 0.257t-0.257 0.1-0.257-0.1-0.1-0.257 0.1-0.257 0.257-0.1 0.257 0.1 0.1 0.257zM8.571 3.929q0 0.156-0.1 0.257t-0.257 0.1-0.257-0.1-0.1-0.257 0.1-0.257 0.257-0.1 0.257 0.1 0.1 0.257zM10.714 4.643q0 0.156-0.1 0.257t-0.257 0.1-0.257-0.1-0.1-0.257 0.1-0.257 0.257-0.1 0.257 0.1 0.1 0.257zM10 3.929q0 0.156-0.1 0.257t-0.257 0.1-0.257-0.1-0.1-0.257 0.1-0.257 0.257-0.1 0.257 0.1 0.1 0.257zM9.286 3.214q0 0.156-0.1 0.257t-0.257 0.1-0.257-0.1-0.1-0.257 0.1-0.257 0.257-0.1 0.257 0.1 0.1 0.257zM11.429 3.929q0 0.156-0.1 0.257t-0.257 0.1-0.257-0.1-0.1-0.257 0.1-0.257 0.257-0.1 0.257 0.1 0.1 0.257zM10.714 3.214q0 0.156-0.1 0.257t-0.257 0.1-0.257-0.1-0.1-0.257 0.1-0.257 0.257-0.1 0.257 0.1 0.1 0.257zM12.143 3.214q0 0.156-0.1 0.257t-0.257 0.1-0.257-0.1-0.1-0.257 0.1-0.257 0.257-0.1 0.257 0.1 0.1 0.257z"></path>
</svg>
