<!-- Generated by IcoMoon.io -->
<svg version="1.1" xmlns="http://www.w3.org/2000/svg" width="26" height="20" viewBox="0 0 26 20">
<title>battery-full</title>
<path d="M21.429 5.714v8.571h-18.571v-8.571h18.571zM22.857 12.143h1.429v-4.286h-1.429v-3.214q0-0.156-0.1-0.257t-0.257-0.1h-20.714q-0.156 0-0.257 0.1t-0.1 0.257v10.714q0 0.156 0.1 0.257t0.257 0.1h20.714q0.156 0 0.257-0.1t0.1-0.257v-3.214zM25.714 7.857v4.286q0 0.592-0.419 1.010t-1.010 0.419v1.786q0 0.737-0.525 1.261t-1.261 0.525h-20.714q-0.737 0-1.261-0.525t-0.525-1.261v-10.714q0-0.737 0.525-1.261t1.261-0.525h20.714q0.737 0 1.261 0.525t0.525 1.261v1.786q0.592 0 1.010 0.419t0.419 1.010z"></path>
</svg>
