<!-- Generated by IcoMoon.io -->
<svg version="1.1" xmlns="http://www.w3.org/2000/svg" width="20" height="20" viewBox="0 0 20 20">
<title>behance-square</title>
<path d="M15.357 1.429q1.328 0 2.271 0.943t0.943 2.271v10.714q0 1.328-0.943 2.271t-2.271 0.943h-10.714q-1.328 0-2.271-0.943t-0.943-2.271v-10.714q0-1.328 0.943-2.271t2.271-0.943h10.714zM6.998 5.525h-4.141v8.783h4.263q1.306 0 2.199-0.642t0.893-1.903q0-1.763-1.596-2.232 1.194-0.58 1.194-1.83 0-0.636-0.218-1.077t-0.631-0.675-0.882-0.329-1.083-0.095zM6.752 9.074h-1.964v-2.054h1.819q1.328 0 1.328 1.004 0 1.049-1.183 1.049zM6.853 12.813h-2.065v-2.422h2.109q1.384 0 1.384 1.261 0 1.161-1.429 1.161zM14.107 13.17q-0.759 0-1.161-0.424t-0.402-1.194h4.587q0.011-0.112 0.011-0.335 0-1.473-0.831-2.461t-2.271-0.988q-1.429 0-2.344 0.96t-0.915 2.411q0 1.507 0.882 2.422t2.377 0.915q2.288 0 2.98-2.132h-1.54q-0.123 0.379-0.53 0.603t-0.843 0.223zM13.996 9.085q1.261 0 1.384 1.362h-2.835q0.045-0.625 0.435-0.993t1.016-0.368zM12.188 6.116h3.56v0.859h-3.56v-0.859z"></path>
</svg>
