<!-- Generated by IcoMoon.io -->
<svg version="1.1" xmlns="http://www.w3.org/2000/svg" width="23" height="20" viewBox="0 0 23 20">
<title>behance</title>
<path d="M20.625 3.783h-5.703v1.384h5.703v-1.384zM17.813 8.538q-1.004 0-1.629 0.586t-0.692 1.59h4.554q-0.201-2.176-2.232-2.176zM17.991 15.067q0.703 0 1.362-0.357t0.848-0.971h2.467q-1.116 3.426-4.766 3.426-2.388 0-3.8-1.473t-1.412-3.873q0-2.321 1.456-3.856t3.756-1.535q1.54 0 2.684 0.759t1.708 1.998 0.564 2.768q0 0.19-0.022 0.525h-7.344q0 1.239 0.642 1.914t1.858 0.675zM3.092 14.509h3.304q2.288 0 2.288-1.864 0-2.009-2.221-2.009h-3.371v3.873zM3.092 8.516h3.136q0.871 0 1.378-0.407t0.508-1.267q0-1.607-2.121-1.607h-2.902v3.281zM0 2.835h6.629q0.971 0 1.73 0.156t1.412 0.53 1.004 1.077 0.352 1.719q0 2.020-1.92 2.935 1.272 0.357 1.92 1.283t0.647 2.277q0 0.837-0.273 1.523t-0.737 1.155-1.099 0.792-1.35 0.469-1.496 0.145h-6.819v-14.063z"></path>
</svg>
