<!-- Generated by IcoMoon.io -->
<svg version="1.1" xmlns="http://www.w3.org/2000/svg" width="23" height="20" viewBox="0 0 23 20">
<title>bell-slash-o</title>
<path d="M11.607 18.929q0-0.179-0.179-0.179-0.658 0-1.133-0.474t-0.474-1.133q0-0.179-0.179-0.179t-0.179 0.179q0 0.815 0.575 1.39t1.39 0.575q0.179 0 0.179-0.179zM5.614 13.627l9.788-8.482q-0.469-0.982-1.479-1.635t-2.494-0.653q-1.038 0-1.892 0.352t-1.356 0.898-0.77 1.15-0.268 1.172q0 4.286-1.529 7.199zM20.714 15.714q0 0.58-0.424 1.004t-1.004 0.424h-5q0 1.183-0.837 2.020t-2.020 0.837-2.015-0.831-0.843-2.015l1.663-1.44h8.449q-1.853-2.087-2.533-5.123l1.239-1.083q0.681 3.973 3.326 6.205zM21.674 0.179l0.938 1.071q0.089 0.112 0.084 0.262t-0.117 0.251l-20.893 18.103q-0.112 0.089-0.262 0.078t-0.24-0.123l-0.937-1.071q-0.089-0.112-0.084-0.262t0.117-0.24l2.076-1.797q-0.212-0.357-0.212-0.737 0.558-0.469 1.016-0.982t0.949-1.334 0.831-1.769 0.558-2.299 0.218-2.902q0-1.696 1.306-3.153t3.426-1.769q-0.089-0.212-0.089-0.435 0-0.446 0.313-0.759t0.759-0.313 0.759 0.313 0.313 0.759q0 0.223-0.089 0.435 1.384 0.201 2.444 0.921t1.652 1.758l4.665-4.051q0.112-0.089 0.262-0.078t0.24 0.123z"></path>
</svg>
