<!-- Generated by IcoMoon.io -->
<svg version="1.1" xmlns="http://www.w3.org/2000/svg" width="20" height="20" viewBox="0 0 20 20">
<title>bell</title>
<path d="M10.179 18.929q0-0.179-0.179-0.179-0.658 0-1.133-0.474t-0.474-1.133q0-0.179-0.179-0.179t-0.179 0.179q0 0.815 0.575 1.39t1.39 0.575q0.179 0 0.179-0.179zM19.286 15.714q0 0.58-0.424 1.004t-1.004 0.424h-5q0 1.183-0.837 2.020t-2.020 0.837-2.020-0.837-0.837-2.020h-5q-0.58 0-1.004-0.424t-0.424-1.004q0.558-0.469 1.016-0.982t0.949-1.334 0.831-1.769 0.558-2.299 0.218-2.902q0-1.696 1.306-3.153t3.426-1.769q-0.089-0.212-0.089-0.435 0-0.446 0.313-0.759t0.759-0.313 0.759 0.313 0.313 0.759q0 0.223-0.089 0.435 2.121 0.313 3.426 1.769t1.306 3.153q0 1.551 0.218 2.902t0.558 2.299 0.831 1.769 0.949 1.334 1.016 0.982z"></path>
</svg>
