<!-- Generated by IcoMoon.io -->
<svg version="1.1" xmlns="http://www.w3.org/2000/svg" width="26" height="20" viewBox="0 0 26 20">
<title>bicycle</title>
<path d="M8.504 12.857h-3.504q-0.446 0-0.642-0.391t0.073-0.748l2.098-2.801q-0.725-0.346-1.529-0.346-1.473 0-2.522 1.049t-1.049 2.522 1.049 2.522 2.522 1.049q1.283 0 2.266-0.809t1.239-2.048zM6.429 11.429h2.076q-0.201-0.949-0.837-1.652zM11.786 11.429l3.214-4.286h-5.357l-1.105 1.473q1.172 1.15 1.406 2.813h1.842zM24.286 12.143q0-1.473-1.049-2.522t-2.522-1.049q-0.67 0-1.35 0.268l1.942 2.902q0.167 0.257 0.112 0.547t-0.301 0.446q-0.167 0.123-0.402 0.123-0.391 0-0.592-0.324l-1.942-2.902q-1.038 1.060-1.038 2.511 0 1.473 1.049 2.522t2.522 1.049 2.522-1.049 1.049-2.522zM25.714 12.143q0 2.065-1.468 3.532t-3.532 1.468-3.532-1.468-1.468-3.532q0-1.083 0.441-2.048t1.222-1.669l-0.725-1.094-3.94 5.234q-0.201 0.29-0.569 0.29h-2.199q-0.257 1.83-1.663 3.058t-3.281 1.228q-2.065 0-3.532-1.468t-1.468-3.532 1.468-3.532 3.532-1.468q1.272 0 2.4 0.614l1.529-2.042h-2.5q-0.29 0-0.502-0.212t-0.212-0.502 0.212-0.502 0.502-0.212h4.286v1.429h4.855l-0.949-1.429h-2.478q-0.29 0-0.502-0.212t-0.212-0.502 0.212-0.502 0.502-0.212h2.857q0.368 0 0.592 0.313l2.98 4.464q1.016-0.491 2.143-0.491 2.065 0 3.532 1.468t1.468 3.532z"></path>
</svg>
