<!-- Generated by IcoMoon.io -->
<svg version="1.1" xmlns="http://www.w3.org/2000/svg" width="20" height="20" viewBox="0 0 20 20">
<title>binoculars</title>
<path d="M7.857 3.571v8.571q0 0.29-0.212 0.502t-0.502 0.212v6.429q0 0.29-0.212 0.502t-0.502 0.212h-5.714q-0.29 0-0.502-0.212t-0.212-0.502v-5.714l2.779-9.743q0.078-0.257 0.346-0.257h4.732zM11.429 3.571v7.857h-2.857v-7.857h2.857zM20 13.571v5.714q0 0.29-0.212 0.502t-0.502 0.212h-5.714q-0.29 0-0.502-0.212t-0.212-0.502v-6.429q-0.29 0-0.502-0.212t-0.212-0.502v-8.571h4.732q0.268 0 0.346 0.257zM8.214 0.357v2.5h-3.929v-2.5q0-0.156 0.1-0.257t0.257-0.1h3.214q0.156 0 0.257 0.1t0.1 0.257zM15.714 0.357v2.5h-3.929v-2.5q0-0.156 0.1-0.257t0.257-0.1h3.214q0.156 0 0.257 0.1t0.1 0.257z"></path>
</svg>
