<!-- Generated by IcoMoon.io -->
<svg version="1.1" xmlns="http://www.w3.org/2000/svg" width="20" height="20" viewBox="0 0 20 20">
<title>birthday-cake</title>
<path d="M20 15.714v4.286h-20v-4.286q0.502 0 0.949-0.156t0.658-0.307 0.525-0.419q0.335-0.301 0.575-0.424t0.631-0.123q0.268 0 0.491 0.078t0.346 0.167 0.368 0.301q0.324 0.279 0.525 0.424t0.647 0.301 0.96 0.156q0.502 0 0.949-0.162t0.647-0.301 0.536-0.419q0.234-0.212 0.363-0.301t0.346-0.167 0.485-0.078q0.391 0 0.631 0.123t0.575 0.424q0.313 0.268 0.525 0.419t0.658 0.307 0.949 0.156 0.949-0.156 0.658-0.307 0.525-0.419q0.335-0.301 0.575-0.424t0.631-0.123q0.379 0 0.619 0.123t0.575 0.424q0.313 0.268 0.525 0.419t0.658 0.307 0.949 0.156zM20 12.143v2.143q-0.268 0-0.491-0.078t-0.346-0.167-0.368-0.301q-0.324-0.279-0.525-0.424t-0.647-0.301-0.949-0.156q-0.513 0-0.96 0.156t-0.647 0.301-0.525 0.424q-0.246 0.212-0.368 0.301t-0.346 0.167-0.491 0.078q-0.391 0-0.631-0.123t-0.575-0.424q-0.324-0.279-0.525-0.424t-0.647-0.301-0.96-0.156q-0.502 0-0.949 0.162t-0.647 0.301-0.536 0.419q-0.234 0.212-0.363 0.301t-0.346 0.167-0.485 0.078q-0.391 0-0.631-0.123t-0.575-0.424q-0.313-0.268-0.525-0.419t-0.658-0.307-0.949-0.156q-0.513 0-0.96 0.156t-0.647 0.301-0.525 0.424q-0.335 0.301-0.575 0.424t-0.631 0.123v-2.143q0-0.893 0.625-1.518t1.518-0.625h0.714v-5h2.857v5h2.857v-5h2.857v5h2.857v-5h2.857v5h0.714q0.893 0 1.518 0.625t0.625 1.518zM5.714 2.5q0 0.859-0.402 1.323t-1.027 0.463q-0.592 0-1.010-0.419t-0.419-1.010q0-0.324 0.106-0.569t0.262-0.379 0.346-0.313 0.346-0.352 0.262-0.497 0.106-0.748q0.424 0 0.926 0.826t0.502 1.674zM11.429 2.5q0 0.859-0.402 1.323t-1.027 0.463q-0.592 0-1.010-0.419t-0.419-1.010q0-0.324 0.106-0.569t0.262-0.379 0.346-0.313 0.346-0.352 0.262-0.497 0.106-0.748q0.424 0 0.926 0.826t0.502 1.674zM17.143 2.5q0 0.859-0.402 1.323t-1.027 0.463q-0.592 0-1.010-0.419t-0.419-1.010q0-0.324 0.106-0.569t0.262-0.379 0.346-0.313 0.346-0.352 0.262-0.497 0.106-0.748q0.424 0 0.926 0.826t0.502 1.674z"></path>
</svg>
