<!-- Generated by IcoMoon.io -->
<svg version="1.1" xmlns="http://www.w3.org/2000/svg" width="20" height="20" viewBox="0 0 20 20">
<title>bitbucket</title>
<path d="M11.239 9.587q0.089 0.703-0.564 1.127t-1.244 0.067q-0.435-0.19-0.597-0.647t-0.006-0.915 0.58-0.647q0.402-0.201 0.809-0.134t0.714 0.396 0.307 0.753zM12.478 9.353q-0.156-1.194-1.261-1.83t-2.199-0.145q-0.703 0.313-1.122 0.988t-0.385 1.445q0.045 1.016 0.865 1.73t1.847 0.625q1.016-0.089 1.696-0.938t0.558-1.875zM15.145 3.304q-0.223-0.301-0.625-0.497t-0.647-0.246-0.792-0.14q-3.248-0.525-6.317 0.022-0.48 0.078-0.737 0.134t-0.614 0.246-0.558 0.48q0.335 0.313 0.848 0.508t0.82 0.246 0.977 0.128q2.545 0.324 5 0.011 0.703-0.089 0.999-0.134t0.809-0.24 0.837-0.519zM15.781 14.855q-0.089 0.29-0.173 0.854t-0.156 0.938-0.318 0.781-0.647 0.631q-0.96 0.536-2.115 0.798t-2.254 0.246-2.249-0.206q-0.513-0.089-0.91-0.201t-0.854-0.301-0.815-0.485-0.58-0.686q-0.279-1.071-0.636-3.259l0.067-0.179 0.201-0.1q2.489 1.652 5.653 1.652t5.664-1.652q0.234 0.067 0.268 0.257t-0.056 0.502-0.089 0.413zM17.801 4.129q-0.29 1.864-1.239 7.31-0.056 0.335-0.301 0.625t-0.485 0.446-0.608 0.346q-2.813 1.406-6.808 0.982-2.768-0.301-4.397-1.551-0.167-0.134-0.285-0.296t-0.19-0.391-0.1-0.379-0.067-0.441-0.061-0.391q-0.1-0.558-0.296-1.674t-0.313-1.802-0.262-1.646-0.246-1.763q0.033-0.29 0.195-0.541t0.352-0.419 0.502-0.335 0.513-0.251 0.536-0.206q1.395-0.513 3.493-0.714 4.23-0.413 7.545 0.558 1.73 0.513 2.4 1.362 0.179 0.223 0.184 0.569t-0.061 0.603z"></path>
</svg>
