<!-- Generated by IcoMoon.io -->
<svg version="1.1" xmlns="http://www.w3.org/2000/svg" width="20" height="20" viewBox="0 0 20 20">
<title>bitbucket-square</title>
<path d="M10.893 9.71q0-0.48-0.458-0.737t-0.859-0.011q-0.48 0.223-0.474 0.809t0.485 0.787q0.435 0.257 0.904-0.045t0.402-0.804zM11.786 9.531q0.089 0.737-0.402 1.35t-1.228 0.681-1.328-0.446-0.625-1.261q-0.022-0.547 0.285-1.038t0.809-0.714q0.781-0.346 1.579 0.112t0.91 1.317zM13.705 5.167q-0.223 0.234-0.597 0.379t-0.592 0.179-0.709 0.089q-1.73 0.223-3.616 0-0.491-0.067-0.703-0.106t-0.586-0.179-0.608-0.363q0.145-0.212 0.402-0.346t0.446-0.173 0.525-0.095q2.21-0.391 4.554-0.011 0.368 0.056 0.569 0.095t0.48 0.179 0.435 0.352zM14.174 13.493q0-0.078 0.061-0.296t0.033-0.357-0.195-0.184q-1.797 1.183-4.074 1.183t-4.085-1.183l-0.134 0.067-0.056 0.134q0.29 1.719 0.458 2.344 0.525 0.904 2.277 1.205 2.779 0.513 4.777-0.592 0.379-0.212 0.547-0.575t0.251-0.954 0.14-0.792zM15.625 5.759q0.1-0.592-0.089-0.837-0.48-0.614-1.73-0.982-2.411-0.703-5.435-0.402-1.473 0.134-2.522 0.513-0.424 0.167-0.664 0.279t-0.525 0.379-0.329 0.603q0.089 0.759 0.212 1.54t0.324 1.908 0.268 1.529q0.011 0.056 0.056 0.346t0.078 0.402 0.134 0.301 0.246 0.313q1.172 0.893 3.17 1.116 2.891 0.313 4.911-0.703 0.268-0.145 0.441-0.257t0.346-0.324 0.218-0.446q0.536-2.98 0.893-5.279zM18.571 4.643v10.714q0 1.328-0.943 2.271t-2.271 0.943h-10.714q-1.328 0-2.271-0.943t-0.943-2.271v-10.714q0-1.328 0.943-2.271t2.271-0.943h10.714q1.328 0 2.271 0.943t0.943 2.271z"></path>
</svg>
