<!-- Generated by IcoMoon.io -->
<svg version="1.1" xmlns="http://www.w3.org/2000/svg" width="20" height="20" viewBox="0 0 20 20">
<title>blind</title>
<path d="M6.228 3.471q-0.714 0-1.228-0.508t-0.513-1.233q0-0.714 0.513-1.222t1.228-0.508 1.222 0.508 0.508 1.222q0 0.725-0.508 1.233t-1.222 0.508zM12.377 10.636q0 0.558-0.335 0.753t-0.709 0.073-0.53-0.379l-4.096-4.888q-0.078-0.134-0.156-0.173t-0.123-0.017l-0.033 0.033q-0.078 0.089 0.045 0.234l1.362 1.551 0.011 3.951-1.797 5.1q-0.748 2.143-1.027 2.612-0.167 0.29-0.313 0.357-0.558 0.29-1.15 0.011-0.324-0.145-0.463-0.48t-0.106-0.636q0.022-0.19 2.199-6.897l0.056-4.643-0.949 1.83 0.391 2.478q0.045 0.268-0.011 0.469t-0.156 0.307-0.212 0.179-0.19 0.084l-0.078 0.022q-0.212 0.033-0.385-0.033t-0.268-0.179-0.156-0.246-0.084-0.218-0.022-0.106l-0.513-3.337 2.355-4.252q0.257-0.379 1.261-0.379 0.837 0 1.194 0.446l4.732 5.815q0.078 0.056 0.156 0.19l0.033 0.033-0.011 0.011q0.078 0.145 0.078 0.324zM7.879 12.31q0.48 1.261 0.988 2.511t0.776 1.875l0.268 0.614q0.402 1.038 0.469 1.395 0.123 0.781-0.402 1.083-0.391 0.246-0.737 0.179t-0.569-0.246-0.324-0.391h-0.011q-0.067-0.179-0.089-0.279l-1.384-3.917zM17.076 18.917q0.346 0.547 0.346 0.636 0 0.056-0.033 0.078-0.1 0.056-0.162-0.006t-0.173-0.29-0.179-0.34q-1.272-1.92-4.721-7.377 0.033 0.011 0.078-0.011t0.078-0.045l0.033-0.022q0.123-0.1 0.123-0.19z"></path>
</svg>
