<!-- Generated by IcoMoon.io -->
<svg version="1.1" xmlns="http://www.w3.org/2000/svg" width="20" height="20" viewBox="0 0 20 20">
<title>bluetooth</title>
<path d="M10.815 11.752l1.652 1.652-1.663 1.663zM10.804 4.933l1.663 1.663-1.652 1.652zM9.353 18.594l5.179-5.179-3.415-3.415 3.415-3.415-5.179-5.179v6.819l-2.846-2.846-1.038 1.038 3.571 3.583-3.571 3.583 1.038 1.038 2.846-2.846v6.819zM17.377 10q0 2.333-0.357 4.079t-0.977 2.868-1.568 1.814-2.026 0.965-2.45 0.273-2.45-0.273-2.026-0.965-1.568-1.814-0.977-2.868-0.357-4.079 0.357-4.079 0.977-2.868 1.568-1.814 2.026-0.965 2.45-0.273 2.45 0.273 2.026 0.965 1.568 1.814 0.977 2.868 0.357 4.079z"></path>
</svg>
