<!-- Generated by IcoMoon.io -->
<svg version="1.1" xmlns="http://www.w3.org/2000/svg" width="20" height="20" viewBox="0 0 20 20">
<title>bold</title>
<path d="M8.337 16.975q0.826 0.357 1.563 0.357 4.196 0 4.196-3.739 0-1.272-0.458-2.009-0.301-0.491-0.686-0.826t-0.753-0.519-0.898-0.279-0.938-0.117-1.055-0.022q-0.815 0-1.127 0.112 0 0.592-0.006 1.775t-0.006 1.763q0 0.089-0.011 0.753t-0.006 1.077 0.050 0.932 0.134 0.742zM8.181 8.65q0.469 0.078 1.217 0.078 0.915 0 1.596-0.145t1.228-0.497 0.831-0.999 0.285-1.585q0-0.781-0.324-1.367t-0.882-0.915-1.205-0.485-1.384-0.156q-0.558 0-1.451 0.145 0 0.558 0.045 1.685t0.045 1.696q0 0.301-0.006 0.893t-0.006 0.882q0 0.513 0.011 0.77zM2.143 18.571l0.022-1.049q0.167-0.045 0.949-0.179t1.183-0.301q0.078-0.134 0.14-0.301t0.095-0.374 0.061-0.363 0.033-0.419 0.006-0.379v-0.731q0-10.96-0.246-11.44-0.045-0.089-0.246-0.162t-0.497-0.123-0.552-0.078-0.541-0.050-0.34-0.033l-0.045-0.926q1.094-0.022 3.795-0.128t4.163-0.106q0.257 0 0.759 0.006t0.759 0.006q0.781 0 1.523 0.145t1.434 0.469 1.205 0.792 0.826 1.166 0.313 1.535q0 0.58-0.184 1.066t-0.435 0.804-0.72 0.642-0.815 0.502-0.938 0.446q1.719 0.391 2.863 1.496t1.144 2.768q0 1.116-0.391 2.003t-1.044 1.456-1.54 0.954-1.825 0.541-1.964 0.156q-0.491 0-1.473-0.033t-1.473-0.033q-1.183 0-3.426 0.123t-2.578 0.134z"></path>
</svg>
