<!-- Generated by IcoMoon.io -->
<svg version="1.1" xmlns="http://www.w3.org/2000/svg" width="20" height="20" viewBox="0 0 20 20">
<title>bolt</title>
<path d="M14.877 6.317q0.201 0.223 0.078 0.491l-6.027 12.913q-0.145 0.279-0.469 0.279-0.045 0-0.156-0.022-0.19-0.056-0.285-0.212t-0.050-0.335l2.199-9.018-4.531 1.127q-0.045 0.011-0.134 0.011-0.201 0-0.346-0.123-0.201-0.167-0.145-0.435l2.243-9.208q0.045-0.156 0.179-0.257t0.313-0.1h3.661q0.212 0 0.357 0.14t0.145 0.329q0 0.089-0.056 0.201l-1.908 5.167 4.42-1.094q0.089-0.022 0.134-0.022 0.212 0 0.379 0.167z"></path>
</svg>
