<!-- Generated by IcoMoon.io -->
<svg version="1.1" xmlns="http://www.w3.org/2000/svg" width="20" height="20" viewBox="0 0 20 20">
<title>bomb</title>
<path d="M6.373 6.574q-0.112-0.279-0.379-0.391t-0.547 0q-1.205 0.491-2.132 1.417t-1.417 2.132q-0.112 0.279 0 0.547t0.391 0.379q0.145 0.056 0.268 0.056 0.469 0 0.67-0.446 0.379-0.938 1.099-1.657t1.657-1.099q0.279-0.123 0.391-0.391t0-0.547zM16.886 2.6l0.513 0.513-2.723 2.712 0.759 0.759q0.212 0.212 0.212 0.508t-0.212 0.508l-0.714 0.714q0.993 1.797 0.993 3.828 0 1.596-0.619 3.052t-1.674 2.511-2.511 1.674-3.052 0.619-3.052-0.619-2.511-1.674-1.674-2.511-0.619-3.052 0.619-3.052 1.674-2.511 2.511-1.674 3.052-0.619q2.031 0 3.828 0.993l0.714-0.714q0.212-0.212 0.508-0.212t0.508 0.212l0.759 0.759zM16.975 1.975q-0.112 0.112-0.246 0.112-0.145 0-0.257-0.112l-1.016-1.004q-0.1-0.112-0.1-0.257t0.1-0.257q0.112-0.1 0.257-0.1t0.257 0.1l1.004 1.016q0.112 0.1 0.112 0.251t-0.112 0.251zM19.542 4.542q-0.123 0.1-0.257 0.1t-0.257-0.1l-1.004-1.016q-0.112-0.1-0.112-0.251t0.112-0.251q0.1-0.112 0.251-0.112t0.251 0.112l1.016 1.004q0.1 0.112 0.1 0.257t-0.1 0.257zM20 2.5q0 0.156-0.1 0.257t-0.257 0.1h-1.071q-0.156 0-0.257-0.1t-0.1-0.257 0.1-0.257 0.257-0.1h1.071q0.156 0 0.257 0.1t0.1 0.257zM17.857 0.357v1.071q0 0.156-0.1 0.257t-0.257 0.1-0.257-0.1-0.1-0.257v-1.071q0-0.156 0.1-0.257t0.257-0.1 0.257 0.1 0.1 0.257zM19.542 0.971l-1.016 1.004q-0.112 0.112-0.246 0.112-0.145 0-0.257-0.112-0.112-0.1-0.112-0.251t0.112-0.251l1.004-1.016q0.112-0.1 0.257-0.1t0.257 0.1q0.1 0.112 0.1 0.257t-0.1 0.257z"></path>
</svg>
