<!-- Generated by IcoMoon.io -->
<svg version="1.1" xmlns="http://www.w3.org/2000/svg" width="20" height="20" viewBox="0 0 20 20">
<title>book</title>
<path d="M19.007 5.335q0.446 0.636 0.201 1.44l-3.069 10.112q-0.212 0.714-0.854 1.2t-1.367 0.485h-10.301q-0.859 0-1.657-0.597t-1.11-1.468q-0.268-0.748-0.022-1.417 0-0.045 0.033-0.301t0.045-0.413q0.011-0.089-0.033-0.24t-0.033-0.218q0.022-0.123 0.089-0.234t0.184-0.262 0.184-0.262q0.257-0.424 0.502-1.021t0.335-1.021q0.033-0.112 0.006-0.335t-0.006-0.313q0.033-0.123 0.19-0.313t0.19-0.257q0.234-0.402 0.469-1.027t0.279-1.004q0.011-0.1-0.028-0.357t0.006-0.313q0.045-0.145 0.246-0.34t0.246-0.251q0.212-0.29 0.474-0.943t0.307-1.077q0.011-0.089-0.033-0.285t-0.022-0.296q0.022-0.089 0.1-0.201t0.201-0.257 0.19-0.234q0.089-0.134 0.184-0.34t0.167-0.391 0.179-0.402 0.218-0.357 0.296-0.262 0.402-0.128 0.53 0.061l-0.011 0.033q0.424-0.1 0.569-0.1h8.493q0.826 0 1.272 0.625t0.201 1.451l-3.058 10.112q-0.402 1.328-0.798 1.713t-1.434 0.385h-9.699q-0.301 0-0.424 0.167-0.123 0.179-0.011 0.48 0.268 0.781 1.607 0.781h10.301q0.324 0 0.625-0.173t0.391-0.463l3.348-11.016q0.078-0.246 0.056-0.636 0.424 0.167 0.658 0.48zM7.132 5.357q-0.045 0.145 0.022 0.251t0.223 0.106h6.786q0.145 0 0.285-0.106t0.184-0.251l0.234-0.714q0.045-0.145-0.022-0.251t-0.223-0.106h-6.786q-0.145 0-0.285 0.106t-0.184 0.251zM6.205 8.214q-0.045 0.145 0.022 0.251t0.223 0.106h6.786q0.145 0 0.285-0.106t0.184-0.251l0.234-0.714q0.045-0.145-0.022-0.251t-0.223-0.106h-6.786q-0.145 0-0.285 0.106t-0.184 0.251z"></path>
</svg>
