<!-- Generated by IcoMoon.io -->
<svg version="1.1" xmlns="http://www.w3.org/2000/svg" width="20" height="20" viewBox="0 0 20 20">
<title>bookmark-o</title>
<path d="M15.714 2.857h-11.429v13.862l5.714-5.48 0.993 0.949 4.721 4.531v-13.862zM15.848 1.429q0.257 0 0.491 0.1 0.368 0.145 0.586 0.458t0.218 0.692v14.386q0 0.379-0.218 0.692t-0.586 0.458q-0.212 0.089-0.491 0.089-0.536 0-0.926-0.357l-4.922-4.732-4.922 4.732q-0.402 0.368-0.926 0.368-0.257 0-0.491-0.1-0.368-0.145-0.586-0.458t-0.218-0.692v-14.386q0-0.379 0.218-0.692t0.586-0.458q0.234-0.1 0.491-0.1h11.696z"></path>
</svg>
