<!-- Generated by IcoMoon.io -->
<svg version="1.1" xmlns="http://www.w3.org/2000/svg" width="26" height="20" viewBox="0 0 26 20">
<title>braille</title>
<path d="M2.857 13.214q-0.737 0-1.261 0.525t-0.525 1.261 0.525 1.261 1.261 0.525 1.261-0.525 0.525-1.261-0.525-1.261-1.261-0.525zM8.571 13.214q-0.737 0-1.261 0.525t-0.525 1.261 0.525 1.261 1.261 0.525 1.261-0.525 0.525-1.261-0.525-1.261-1.261-0.525zM8.571 7.5q-0.737 0-1.261 0.525t-0.525 1.261 0.525 1.261 1.261 0.525 1.261-0.525 0.525-1.261-0.525-1.261-1.261-0.525zM17.143 13.214q-0.737 0-1.261 0.525t-0.525 1.261 0.525 1.261 1.261 0.525 1.261-0.525 0.525-1.261-0.525-1.261-1.261-0.525zM22.857 13.214q-0.737 0-1.261 0.525t-0.525 1.261 0.525 1.261 1.261 0.525 1.261-0.525 0.525-1.261-0.525-1.261-1.261-0.525zM17.143 7.5q-0.737 0-1.261 0.525t-0.525 1.261 0.525 1.261 1.261 0.525 1.261-0.525 0.525-1.261-0.525-1.261-1.261-0.525zM22.857 7.5q-0.737 0-1.261 0.525t-0.525 1.261 0.525 1.261 1.261 0.525 1.261-0.525 0.525-1.261-0.525-1.261-1.261-0.525zM22.857 1.786q-0.737 0-1.261 0.525t-0.525 1.261 0.525 1.261 1.261 0.525 1.261-0.525 0.525-1.261-0.525-1.261-1.261-0.525zM5 15q0 0.893-0.625 1.518t-1.518 0.625-1.518-0.625-0.625-1.518 0.625-1.518 1.518-0.625 1.518 0.625 0.625 1.518zM10.714 15q0 0.893-0.625 1.518t-1.518 0.625-1.518-0.625-0.625-1.518 0.625-1.518 1.518-0.625 1.518 0.625 0.625 1.518zM5 9.286q0 0.893-0.625 1.518t-1.518 0.625-1.518-0.625-0.625-1.518 0.625-1.518 1.518-0.625 1.518 0.625 0.625 1.518zM10.714 9.286q0 0.893-0.625 1.518t-1.518 0.625-1.518-0.625-0.625-1.518 0.625-1.518 1.518-0.625 1.518 0.625 0.625 1.518zM5 3.571q0 0.893-0.625 1.518t-1.518 0.625-1.518-0.625-0.625-1.518 0.625-1.518 1.518-0.625 1.518 0.625 0.625 1.518zM19.286 15q0 0.893-0.625 1.518t-1.518 0.625-1.518-0.625-0.625-1.518 0.625-1.518 1.518-0.625 1.518 0.625 0.625 1.518zM10.714 3.571q0 0.893-0.625 1.518t-1.518 0.625-1.518-0.625-0.625-1.518 0.625-1.518 1.518-0.625 1.518 0.625 0.625 1.518zM25 15q0 0.893-0.625 1.518t-1.518 0.625-1.518-0.625-0.625-1.518 0.625-1.518 1.518-0.625 1.518 0.625 0.625 1.518zM19.286 9.286q0 0.893-0.625 1.518t-1.518 0.625-1.518-0.625-0.625-1.518 0.625-1.518 1.518-0.625 1.518 0.625 0.625 1.518zM25 9.286q0 0.893-0.625 1.518t-1.518 0.625-1.518-0.625-0.625-1.518 0.625-1.518 1.518-0.625 1.518 0.625 0.625 1.518zM19.286 3.571q0 0.893-0.625 1.518t-1.518 0.625-1.518-0.625-0.625-1.518 0.625-1.518 1.518-0.625 1.518 0.625 0.625 1.518zM25 3.571q0 0.893-0.625 1.518t-1.518 0.625-1.518-0.625-0.625-1.518 0.625-1.518 1.518-0.625 1.518 0.625 0.625 1.518z"></path>
</svg>
