<!-- Generated by IcoMoon.io -->
<svg version="1.1" xmlns="http://www.w3.org/2000/svg" width="20" height="20" viewBox="0 0 20 20">
<title>briefcase</title>
<path d="M7.143 2.857h5.714v-1.429h-5.714v1.429zM20 10v5.357q0 0.737-0.525 1.261t-1.261 0.525h-16.429q-0.737 0-1.261-0.525t-0.525-1.261v-5.357h7.5v1.786q0 0.29 0.212 0.502t0.502 0.212h3.571q0.29 0 0.502-0.212t0.212-0.502v-1.786h7.5zM11.429 10v1.429h-2.857v-1.429h2.857zM20 4.643v4.286h-20v-4.286q0-0.737 0.525-1.261t1.261-0.525h3.929v-1.786q0-0.446 0.313-0.759t0.759-0.313h6.429q0.446 0 0.759 0.313t0.313 0.759v1.786h3.929q0.737 0 1.261 0.525t0.525 1.261z"></path>
</svg>
