<!-- Generated by IcoMoon.io -->
<svg version="1.1" xmlns="http://www.w3.org/2000/svg" width="20" height="20" viewBox="0 0 20 20">
<title>btc</title>
<path d="M15.882 7.143q0.201 2.031-1.462 2.879 1.306 0.313 1.953 1.15t0.502 2.388q-0.078 0.792-0.363 1.395t-0.72 0.993-1.083 0.653-1.356 0.385-1.624 0.167v2.846h-1.719v-2.801q-0.893 0-1.362-0.011v2.813h-1.719v-2.846q-0.201 0-0.603-0.006t-0.614-0.006h-2.232l0.346-2.042h1.239q0.558 0 0.647-0.569v-4.487h0.179q-0.067-0.011-0.179-0.011v-3.203q-0.145-0.759-0.993-0.759h-1.239v-1.83l2.366 0.011q0.714 0 1.083-0.011v-2.813h1.719v2.757q0.915-0.022 1.362-0.022v-2.734h1.719v2.813q0.882 0.078 1.563 0.251t1.261 0.502 0.921 0.871 0.407 1.278zM13.482 13.225q0-0.402-0.167-0.714t-0.413-0.513-0.642-0.34-0.731-0.206-0.826-0.1-0.77-0.033-0.72 0.011-0.53 0.011v3.772q0.089 0 0.413 0.006t0.536 0.006 0.592-0.017 0.653-0.045 0.636-0.095 0.619-0.156 0.53-0.234 0.441-0.335 0.273-0.446 0.106-0.569zM12.69 7.913q0-0.368-0.14-0.653t-0.34-0.469-0.536-0.313-0.614-0.184-0.686-0.089-0.647-0.028-0.603 0.011-0.441 0.006v3.426q0.056 0 0.385 0.006t0.519 0 0.558-0.022 0.614-0.061 0.575-0.123 0.541-0.206 0.413-0.301 0.301-0.43 0.1-0.569z"></path>
</svg>
