<!-- Generated by IcoMoon.io -->
<svg version="1.1" xmlns="http://www.w3.org/2000/svg" width="20" height="20" viewBox="0 0 20 20">
<title>bug</title>
<path d="M18.929 10.714q0 0.29-0.212 0.502t-0.502 0.212h-2.5q0 1.908-0.748 3.237l2.321 2.333q0.212 0.212 0.212 0.502t-0.212 0.502q-0.201 0.212-0.502 0.212t-0.502-0.212l-2.21-2.199q-0.056 0.056-0.167 0.145t-0.469 0.318-0.725 0.407-0.915 0.324-1.083 0.145v-10h-1.429v10q-0.569 0-1.133-0.151t-0.971-0.368-0.737-0.435-0.485-0.363l-0.167-0.156-2.042 2.31q-0.223 0.234-0.536 0.234-0.268 0-0.48-0.179-0.212-0.201-0.229-0.497t0.173-0.519l2.254-2.533q-0.647-1.272-0.647-3.058h-2.5q-0.29 0-0.502-0.212t-0.212-0.502 0.212-0.502 0.502-0.212h2.5v-3.281l-1.931-1.931q-0.212-0.212-0.212-0.502t0.212-0.502 0.502-0.212 0.502 0.212l1.931 1.931h9.42l1.931-1.931q0.212-0.212 0.502-0.212t0.502 0.212 0.212 0.502-0.212 0.502l-1.931 1.931v3.281h2.5q0.29 0 0.502 0.212t0.212 0.502zM13.571 4.286h-7.143q0-1.484 1.044-2.528t2.528-1.044 2.528 1.044 1.044 2.528z"></path>
</svg>
