<!-- Generated by IcoMoon.io -->
<svg version="1.1" xmlns="http://www.w3.org/2000/svg" width="20" height="20" viewBox="0 0 20 20">
<title>building-o</title>
<path d="M6.429 14.643v0.714q0 0.145-0.106 0.251t-0.251 0.106h-0.714q-0.145 0-0.251-0.106t-0.106-0.251v-0.714q0-0.145 0.106-0.251t0.251-0.106h0.714q0.145 0 0.251 0.106t0.106 0.251zM6.429 11.786v0.714q0 0.145-0.106 0.251t-0.251 0.106h-0.714q-0.145 0-0.251-0.106t-0.106-0.251v-0.714q0-0.145 0.106-0.251t0.251-0.106h0.714q0.145 0 0.251 0.106t0.106 0.251zM9.286 11.786v0.714q0 0.145-0.106 0.251t-0.251 0.106h-0.714q-0.145 0-0.251-0.106t-0.106-0.251v-0.714q0-0.145 0.106-0.251t0.251-0.106h0.714q0.145 0 0.251 0.106t0.106 0.251zM6.429 8.929v0.714q0 0.145-0.106 0.251t-0.251 0.106h-0.714q-0.145 0-0.251-0.106t-0.106-0.251v-0.714q0-0.145 0.106-0.251t0.251-0.106h0.714q0.145 0 0.251 0.106t0.106 0.251zM15 14.643v0.714q0 0.145-0.106 0.251t-0.251 0.106h-0.714q-0.145 0-0.251-0.106t-0.106-0.251v-0.714q0-0.145 0.106-0.251t0.251-0.106h0.714q0.145 0 0.251 0.106t0.106 0.251zM12.143 11.786v0.714q0 0.145-0.106 0.251t-0.251 0.106h-0.714q-0.145 0-0.251-0.106t-0.106-0.251v-0.714q0-0.145 0.106-0.251t0.251-0.106h0.714q0.145 0 0.251 0.106t0.106 0.251zM9.286 8.929v0.714q0 0.145-0.106 0.251t-0.251 0.106h-0.714q-0.145 0-0.251-0.106t-0.106-0.251v-0.714q0-0.145 0.106-0.251t0.251-0.106h0.714q0.145 0 0.251 0.106t0.106 0.251zM6.429 6.071v0.714q0 0.145-0.106 0.251t-0.251 0.106h-0.714q-0.145 0-0.251-0.106t-0.106-0.251v-0.714q0-0.145 0.106-0.251t0.251-0.106h0.714q0.145 0 0.251 0.106t0.106 0.251zM15 11.786v0.714q0 0.145-0.106 0.251t-0.251 0.106h-0.714q-0.145 0-0.251-0.106t-0.106-0.251v-0.714q0-0.145 0.106-0.251t0.251-0.106h0.714q0.145 0 0.251 0.106t0.106 0.251zM12.143 8.929v0.714q0 0.145-0.106 0.251t-0.251 0.106h-0.714q-0.145 0-0.251-0.106t-0.106-0.251v-0.714q0-0.145 0.106-0.251t0.251-0.106h0.714q0.145 0 0.251 0.106t0.106 0.251zM9.286 6.071v0.714q0 0.145-0.106 0.251t-0.251 0.106h-0.714q-0.145 0-0.251-0.106t-0.106-0.251v-0.714q0-0.145 0.106-0.251t0.251-0.106h0.714q0.145 0 0.251 0.106t0.106 0.251zM6.429 3.214v0.714q0 0.145-0.106 0.251t-0.251 0.106h-0.714q-0.145 0-0.251-0.106t-0.106-0.251v-0.714q0-0.145 0.106-0.251t0.251-0.106h0.714q0.145 0 0.251 0.106t0.106 0.251zM15 8.929v0.714q0 0.145-0.106 0.251t-0.251 0.106h-0.714q-0.145 0-0.251-0.106t-0.106-0.251v-0.714q0-0.145 0.106-0.251t0.251-0.106h0.714q0.145 0 0.251 0.106t0.106 0.251zM12.143 6.071v0.714q0 0.145-0.106 0.251t-0.251 0.106h-0.714q-0.145 0-0.251-0.106t-0.106-0.251v-0.714q0-0.145 0.106-0.251t0.251-0.106h0.714q0.145 0 0.251 0.106t0.106 0.251zM9.286 3.214v0.714q0 0.145-0.106 0.251t-0.251 0.106h-0.714q-0.145 0-0.251-0.106t-0.106-0.251v-0.714q0-0.145 0.106-0.251t0.251-0.106h0.714q0.145 0 0.251 0.106t0.106 0.251zM15 6.071v0.714q0 0.145-0.106 0.251t-0.251 0.106h-0.714q-0.145 0-0.251-0.106t-0.106-0.251v-0.714q0-0.145 0.106-0.251t0.251-0.106h0.714q0.145 0 0.251 0.106t0.106 0.251zM12.143 3.214v0.714q0 0.145-0.106 0.251t-0.251 0.106h-0.714q-0.145 0-0.251-0.106t-0.106-0.251v-0.714q0-0.145 0.106-0.251t0.251-0.106h0.714q0.145 0 0.251 0.106t0.106 0.251zM15 3.214v0.714q0 0.145-0.106 0.251t-0.251 0.106h-0.714q-0.145 0-0.251-0.106t-0.106-0.251v-0.714q0-0.145 0.106-0.251t0.251-0.106h0.714q0.145 0 0.251 0.106t0.106 0.251zM12.143 18.571h4.286v-17.143h-12.857v17.143h4.286v-2.5q0-0.145 0.106-0.251t0.251-0.106h3.571q0.145 0 0.251 0.106t0.106 0.251v2.5zM17.857 0.714v18.571q0 0.29-0.212 0.502t-0.502 0.212h-14.286q-0.29 0-0.502-0.212t-0.212-0.502v-18.571q0-0.29 0.212-0.502t0.502-0.212h14.286q0.29 0 0.502 0.212t0.212 0.502z"></path>
</svg>
