<!-- Generated by IcoMoon.io -->
<svg version="1.1" xmlns="http://www.w3.org/2000/svg" width="20" height="20" viewBox="0 0 20 20">
<title>building</title>
<path d="M16.429 0q0.29 0 0.502 0.212t0.212 0.502v18.571q0 0.29-0.212 0.502t-0.502 0.212h-14.286q-0.29 0-0.502-0.212t-0.212-0.502v-18.571q0-0.29 0.212-0.502t0.502-0.212h14.286zM7.143 3.214v0.714q0 0.156 0.1 0.257t0.257 0.1h0.714q0.156 0 0.257-0.1t0.1-0.257v-0.714q0-0.156-0.1-0.257t-0.257-0.1h-0.714q-0.156 0-0.257 0.1t-0.1 0.257zM7.143 6.071v0.714q0 0.156 0.1 0.257t0.257 0.1h0.714q0.156 0 0.257-0.1t0.1-0.257v-0.714q0-0.156-0.1-0.257t-0.257-0.1h-0.714q-0.156 0-0.257 0.1t-0.1 0.257zM7.143 8.929v0.714q0 0.156 0.1 0.257t0.257 0.1h0.714q0.156 0 0.257-0.1t0.1-0.257v-0.714q0-0.156-0.1-0.257t-0.257-0.1h-0.714q-0.156 0-0.257 0.1t-0.1 0.257zM7.143 11.786v0.714q0 0.156 0.1 0.257t0.257 0.1h0.714q0.156 0 0.257-0.1t0.1-0.257v-0.714q0-0.156-0.1-0.257t-0.257-0.1h-0.714q-0.156 0-0.257 0.1t-0.1 0.257zM5.714 15.357v-0.714q0-0.156-0.1-0.257t-0.257-0.1h-0.714q-0.156 0-0.257 0.1t-0.1 0.257v0.714q0 0.156 0.1 0.257t0.257 0.1h0.714q0.156 0 0.257-0.1t0.1-0.257zM5.714 12.5v-0.714q0-0.156-0.1-0.257t-0.257-0.1h-0.714q-0.156 0-0.257 0.1t-0.1 0.257v0.714q0 0.156 0.1 0.257t0.257 0.1h0.714q0.156 0 0.257-0.1t0.1-0.257zM5.714 9.643v-0.714q0-0.156-0.1-0.257t-0.257-0.1h-0.714q-0.156 0-0.257 0.1t-0.1 0.257v0.714q0 0.156 0.1 0.257t0.257 0.1h0.714q0.156 0 0.257-0.1t0.1-0.257zM5.714 6.786v-0.714q0-0.156-0.1-0.257t-0.257-0.1h-0.714q-0.156 0-0.257 0.1t-0.1 0.257v0.714q0 0.156 0.1 0.257t0.257 0.1h0.714q0.156 0 0.257-0.1t0.1-0.257zM5.714 3.929v-0.714q0-0.156-0.1-0.257t-0.257-0.1h-0.714q-0.156 0-0.257 0.1t-0.1 0.257v0.714q0 0.156 0.1 0.257t0.257 0.1h0.714q0.156 0 0.257-0.1t0.1-0.257zM11.429 18.214v-2.143q0-0.156-0.1-0.257t-0.257-0.1h-3.571q-0.156 0-0.257 0.1t-0.1 0.257v2.143q0 0.156 0.1 0.257t0.257 0.1h3.571q0.156 0 0.257-0.1t0.1-0.257zM11.429 12.5v-0.714q0-0.156-0.1-0.257t-0.257-0.1h-0.714q-0.156 0-0.257 0.1t-0.1 0.257v0.714q0 0.156 0.1 0.257t0.257 0.1h0.714q0.156 0 0.257-0.1t0.1-0.257zM11.429 9.643v-0.714q0-0.156-0.1-0.257t-0.257-0.1h-0.714q-0.156 0-0.257 0.1t-0.1 0.257v0.714q0 0.156 0.1 0.257t0.257 0.1h0.714q0.156 0 0.257-0.1t0.1-0.257zM11.429 6.786v-0.714q0-0.156-0.1-0.257t-0.257-0.1h-0.714q-0.156 0-0.257 0.1t-0.1 0.257v0.714q0 0.156 0.1 0.257t0.257 0.1h0.714q0.156 0 0.257-0.1t0.1-0.257zM11.429 3.929v-0.714q0-0.156-0.1-0.257t-0.257-0.1h-0.714q-0.156 0-0.257 0.1t-0.1 0.257v0.714q0 0.156 0.1 0.257t0.257 0.1h0.714q0.156 0 0.257-0.1t0.1-0.257zM14.286 15.357v-0.714q0-0.156-0.1-0.257t-0.257-0.1h-0.714q-0.156 0-0.257 0.1t-0.1 0.257v0.714q0 0.156 0.1 0.257t0.257 0.1h0.714q0.156 0 0.257-0.1t0.1-0.257zM14.286 12.5v-0.714q0-0.156-0.1-0.257t-0.257-0.1h-0.714q-0.156 0-0.257 0.1t-0.1 0.257v0.714q0 0.156 0.1 0.257t0.257 0.1h0.714q0.156 0 0.257-0.1t0.1-0.257zM14.286 9.643v-0.714q0-0.156-0.1-0.257t-0.257-0.1h-0.714q-0.156 0-0.257 0.1t-0.1 0.257v0.714q0 0.156 0.1 0.257t0.257 0.1h0.714q0.156 0 0.257-0.1t0.1-0.257zM14.286 6.786v-0.714q0-0.156-0.1-0.257t-0.257-0.1h-0.714q-0.156 0-0.257 0.1t-0.1 0.257v0.714q0 0.156 0.1 0.257t0.257 0.1h0.714q0.156 0 0.257-0.1t0.1-0.257zM14.286 3.929v-0.714q0-0.156-0.1-0.257t-0.257-0.1h-0.714q-0.156 0-0.257 0.1t-0.1 0.257v0.714q0 0.156 0.1 0.257t0.257 0.1h0.714q0.156 0 0.257-0.1t0.1-0.257z"></path>
</svg>
