<!-- Generated by IcoMoon.io -->
<svg version="1.1" xmlns="http://www.w3.org/2000/svg" width="20" height="20" viewBox="0 0 20 20">
<title>bullhorn</title>
<path d="M18.571 7.143q0.592 0 1.010 0.419t0.419 1.010-0.419 1.010-1.010 0.419v4.286q0 0.58-0.424 1.004t-1.004 0.424q-4.654-3.873-9.063-4.241-0.647 0.212-1.016 0.737t-0.346 1.122 0.446 1.032q-0.223 0.368-0.257 0.731t0.067 0.647 0.374 0.614 0.536 0.558 0.686 0.564q-0.324 0.647-1.244 0.926t-1.881 0.128-1.473-0.619q-0.078-0.257-0.329-0.977t-0.357-1.055-0.257-0.993-0.167-1.127 0.039-1.099 0.246-1.233h-1.362q-0.737 0-1.261-0.525t-0.525-1.261v-2.143q0-0.737 0.525-1.261t1.261-0.525h5.357q4.855 0 10-4.286 0.58 0 1.004 0.424t0.424 1.004v4.286zM17.143 13.884v-10.647q-4.397 3.371-8.571 3.828v3.013q4.208 0.469 8.571 3.806z"></path>
</svg>
