<!-- Generated by IcoMoon.io -->
<svg version="1.1" xmlns="http://www.w3.org/2000/svg" width="20" height="20" viewBox="0 0 20 20">
<title>bullseye</title>
<path d="M12.857 10q0 1.183-0.837 2.020t-2.020 0.837-2.020-0.837-0.837-2.020 0.837-2.020 2.020-0.837 2.020 0.837 0.837 2.020zM14.286 10q0-1.775-1.256-3.030t-3.030-1.256-3.030 1.256-1.256 3.030 1.256 3.030 3.030 1.256 3.030-1.256 1.256-3.030zM15.714 10q0 2.366-1.674 4.040t-4.040 1.674-4.040-1.674-1.674-4.040 1.674-4.040 4.040-1.674 4.040 1.674 1.674 4.040zM17.143 10q0-1.451-0.569-2.773t-1.523-2.277-2.277-1.523-2.773-0.569-2.773 0.569-2.277 1.523-1.523 2.277-0.569 2.773 0.569 2.773 1.523 2.277 2.277 1.523 2.773 0.569 2.773-0.569 2.277-1.523 1.523-2.277 0.569-2.773zM18.571 10q0 2.333-1.15 4.302t-3.119 3.119-4.302 1.15-4.302-1.15-3.119-3.119-1.15-4.302 1.15-4.302 3.119-3.119 4.302-1.15 4.302 1.15 3.119 3.119 1.15 4.302z"></path>
</svg>
