<!-- Generated by IcoMoon.io -->
<svg version="1.1" xmlns="http://www.w3.org/2000/svg" width="20" height="20" viewBox="0 0 20 20">
<title>bus</title>
<path d="M5.714 13.571q0-0.592-0.419-1.010t-1.010-0.419-1.010 0.419-0.419 1.010 0.419 1.010 1.010 0.419 1.010-0.419 0.419-1.010zM17.143 13.571q0-0.592-0.419-1.010t-1.010-0.419-1.010 0.419-0.419 1.010 0.419 1.010 1.010 0.419 1.010-0.419 0.419-1.010zM16.629 9.152l-0.804-4.286q-0.056-0.257-0.251-0.419t-0.452-0.162h-10.246q-0.257 0-0.452 0.162t-0.251 0.419l-0.804 4.286q-0.056 0.335 0.156 0.592t0.547 0.257h11.853q0.335 0 0.547-0.257t0.156-0.592zM14.107 2.321q0-0.223-0.156-0.379t-0.379-0.156h-7.143q-0.223 0-0.379 0.156t-0.156 0.379 0.156 0.379 0.379 0.156h7.143q0.223 0 0.379-0.156t0.156-0.379zM18.571 10.413v6.73h-1.429v1.429q0 0.592-0.419 1.010t-1.010 0.419-1.010-0.419-0.419-1.010v-1.429h-8.571v1.429q0 0.592-0.419 1.010t-1.010 0.419-1.010-0.419-0.419-1.010v-1.429h-1.429v-6.73q0-1.25 0.279-2.489l1.15-5.067q0.1-0.871 1.088-1.529t2.567-0.993 3.488-0.335 3.488 0.335 2.567 0.993 1.088 1.529l1.172 5.067q0.257 1.138 0.257 2.489z"></path>
</svg>
