<!-- Generated by IcoMoon.io -->
<svg version="1.1" xmlns="http://www.w3.org/2000/svg" width="20" height="20" viewBox="0 0 20 20">
<title>calculator</title>
<path d="M4.286 17.143q0-0.592-0.419-1.010t-1.010-0.419-1.010 0.419-0.419 1.010 0.419 1.010 1.010 0.419 1.010-0.419 0.419-1.010zM8.571 17.143q0-0.592-0.419-1.010t-1.010-0.419-1.010 0.419-0.419 1.010 0.419 1.010 1.010 0.419 1.010-0.419 0.419-1.010zM4.286 12.857q0-0.592-0.419-1.010t-1.010-0.419-1.010 0.419-0.419 1.010 0.419 1.010 1.010 0.419 1.010-0.419 0.419-1.010zM12.857 17.143q0-0.592-0.419-1.010t-1.010-0.419-1.010 0.419-0.419 1.010 0.419 1.010 1.010 0.419 1.010-0.419 0.419-1.010zM8.571 12.857q0-0.592-0.419-1.010t-1.010-0.419-1.010 0.419-0.419 1.010 0.419 1.010 1.010 0.419 1.010-0.419 0.419-1.010zM4.286 8.571q0-0.592-0.419-1.010t-1.010-0.419-1.010 0.419-0.419 1.010 0.419 1.010 1.010 0.419 1.010-0.419 0.419-1.010zM12.857 12.857q0-0.592-0.419-1.010t-1.010-0.419-1.010 0.419-0.419 1.010 0.419 1.010 1.010 0.419 1.010-0.419 0.419-1.010zM8.571 8.571q0-0.592-0.419-1.010t-1.010-0.419-1.010 0.419-0.419 1.010 0.419 1.010 1.010 0.419 1.010-0.419 0.419-1.010zM17.143 17.143v-4.286q0-0.58-0.424-1.004t-1.004-0.424-1.004 0.424-0.424 1.004v4.286q0 0.58 0.424 1.004t1.004 0.424 1.004-0.424 0.424-1.004zM12.857 8.571q0-0.592-0.419-1.010t-1.010-0.419-1.010 0.419-0.419 1.010 0.419 1.010 1.010 0.419 1.010-0.419 0.419-1.010zM17.143 5v-2.857q0-0.29-0.212-0.502t-0.502-0.212h-14.286q-0.29 0-0.502 0.212t-0.212 0.502v2.857q0 0.29 0.212 0.502t0.502 0.212h14.286q0.29 0 0.502-0.212t0.212-0.502zM17.143 8.571q0-0.592-0.419-1.010t-1.010-0.419-1.010 0.419-0.419 1.010 0.419 1.010 1.010 0.419 1.010-0.419 0.419-1.010zM18.571 1.429v17.143q0 0.58-0.424 1.004t-1.004 0.424h-15.714q-0.58 0-1.004-0.424t-0.424-1.004v-17.143q0-0.58 0.424-1.004t1.004-0.424h15.714q0.58 0 1.004 0.424t0.424 1.004z"></path>
</svg>
