<!-- Generated by IcoMoon.io -->
<svg version="1.1" xmlns="http://www.w3.org/2000/svg" width="20" height="20" viewBox="0 0 20 20">
<title>calendar-check-o</title>
<path d="M14.542 10.759l-5.714 5.714q-0.112 0.1-0.257 0.1t-0.257-0.1l-3.214-3.214q-0.1-0.112-0.1-0.257t0.1-0.246l0.513-0.513q0.1-0.1 0.246-0.1t0.257 0.1l2.455 2.455 4.955-4.955q0.112-0.1 0.257-0.1t0.246 0.1l0.513 0.513q0.1 0.1 0.1 0.246t-0.1 0.257zM1.429 18.571h15.714v-11.429h-15.714v11.429zM5.714 5v-3.214q0-0.156-0.1-0.257t-0.257-0.1h-0.714q-0.156 0-0.257 0.1t-0.1 0.257v3.214q0 0.156 0.1 0.257t0.257 0.1h0.714q0.156 0 0.257-0.1t0.1-0.257zM14.286 5v-3.214q0-0.156-0.1-0.257t-0.257-0.1h-0.714q-0.156 0-0.257 0.1t-0.1 0.257v3.214q0 0.156 0.1 0.257t0.257 0.1h0.714q0.156 0 0.257-0.1t0.1-0.257zM18.571 4.286v14.286q0 0.58-0.424 1.004t-1.004 0.424h-15.714q-0.58 0-1.004-0.424t-0.424-1.004v-14.286q0-0.58 0.424-1.004t1.004-0.424h1.429v-1.071q0-0.737 0.525-1.261t1.261-0.525h0.714q0.737 0 1.261 0.525t0.525 1.261v1.071h4.286v-1.071q0-0.737 0.525-1.261t1.261-0.525h0.714q0.737 0 1.261 0.525t0.525 1.261v1.071h1.429q0.58 0 1.004 0.424t0.424 1.004z"></path>
</svg>
