<!-- Generated by IcoMoon.io -->
<svg version="1.1" xmlns="http://www.w3.org/2000/svg" width="20" height="20" viewBox="0 0 20 20">
<title>calendar</title>
<path d="M2.143 18.571h3.214v-3.214h-3.214v3.214zM6.071 18.571h3.571v-3.214h-3.571v3.214zM2.143 14.643h3.214v-3.571h-3.214v3.571zM6.071 14.643h3.571v-3.571h-3.571v3.571zM2.143 10.357h3.214v-3.214h-3.214v3.214zM10.357 18.571h3.571v-3.214h-3.571v3.214zM6.071 10.357h3.571v-3.214h-3.571v3.214zM14.643 18.571h3.214v-3.214h-3.214v3.214zM10.357 14.643h3.571v-3.571h-3.571v3.571zM6.429 5v-3.214q0-0.145-0.106-0.251t-0.251-0.106h-0.714q-0.145 0-0.251 0.106t-0.106 0.251v3.214q0 0.145 0.106 0.251t0.251 0.106h0.714q0.145 0 0.251-0.106t0.106-0.251zM14.643 14.643h3.214v-3.571h-3.214v3.571zM10.357 10.357h3.571v-3.214h-3.571v3.214zM14.643 10.357h3.214v-3.214h-3.214v3.214zM15 5v-3.214q0-0.145-0.106-0.251t-0.251-0.106h-0.714q-0.145 0-0.251 0.106t-0.106 0.251v3.214q0 0.145 0.106 0.251t0.251 0.106h0.714q0.145 0 0.251-0.106t0.106-0.251zM19.286 4.286v14.286q0 0.58-0.424 1.004t-1.004 0.424h-15.714q-0.58 0-1.004-0.424t-0.424-1.004v-14.286q0-0.58 0.424-1.004t1.004-0.424h1.429v-1.071q0-0.737 0.525-1.261t1.261-0.525h0.714q0.737 0 1.261 0.525t0.525 1.261v1.071h4.286v-1.071q0-0.737 0.525-1.261t1.261-0.525h0.714q0.737 0 1.261 0.525t0.525 1.261v1.071h1.429q0.58 0 1.004 0.424t0.424 1.004z"></path>
</svg>
