<!-- Generated by IcoMoon.io -->
<svg version="1.1" xmlns="http://www.w3.org/2000/svg" width="20" height="20" viewBox="0 0 20 20">
<title>camera-retro</title>
<path d="M10.357 9.286q0-0.156-0.1-0.257t-0.257-0.1q-0.737 0-1.261 0.525t-0.525 1.261q0 0.156 0.1 0.257t0.257 0.1 0.257-0.1 0.1-0.257q0-0.446 0.313-0.759t0.759-0.313q0.156 0 0.257-0.1t0.1-0.257zM12.857 10.737q0 1.183-0.837 2.020t-2.020 0.837-2.020-0.837-0.837-2.020 0.837-2.020 2.020-0.837 2.020 0.837 0.837 2.020zM1.429 17.143h17.143v-1.429h-17.143v1.429zM14.286 10.737q0-1.775-1.256-3.030t-3.030-1.256-3.030 1.256-1.256 3.030 1.256 3.030 3.030 1.256 3.030-1.256 1.256-3.030zM2.857 3.571h4.286v-1.429h-4.286v1.429zM1.429 5.714h17.143v-2.857h-9.241l-0.714 1.429h-7.188v1.429zM20 2.857v14.286q0 0.592-0.419 1.010t-1.010 0.419h-17.143q-0.592 0-1.010-0.419t-0.419-1.010v-14.286q0-0.592 0.419-1.010t1.010-0.419h17.143q0.592 0 1.010 0.419t0.419 1.010z"></path>
</svg>
