<!-- Generated by IcoMoon.io -->
<svg version="1.1" xmlns="http://www.w3.org/2000/svg" width="23" height="20" viewBox="0 0 23 20">
<title>camera</title>
<path d="M11.429 7.5q1.328 0 2.271 0.943t0.943 2.271-0.943 2.271-2.271 0.943-2.271-0.943-0.943-2.271 0.943-2.271 2.271-0.943zM19.286 2.857q1.183 0 2.020 0.837t0.837 2.020v10q0 1.183-0.837 2.020t-2.020 0.837h-15.714q-1.183 0-2.020-0.837t-0.837-2.020v-10q0-1.183 0.837-2.020t2.020-0.837h2.5l0.569-1.518q0.212-0.547 0.776-0.943t1.155-0.396h5.714q0.592 0 1.155 0.396t0.776 0.943l0.569 1.518h2.5zM11.429 15.714q2.065 0 3.532-1.468t1.468-3.532-1.468-3.532-3.532-1.468-3.532 1.468-1.468 3.532 1.468 3.532 3.532 1.468z"></path>
</svg>
