<!-- Generated by IcoMoon.io -->
<svg version="1.1" xmlns="http://www.w3.org/2000/svg" width="23" height="20" viewBox="0 0 23 20">
<title>car</title>
<path d="M5.357 12.143q0-0.737-0.525-1.261t-1.261-0.525-1.261 0.525-0.525 1.261 0.525 1.261 1.261 0.525 1.261-0.525 0.525-1.261zM5.759 8.571h11.339l-0.993-3.984q-0.022-0.089-0.156-0.195t-0.234-0.106h-8.571q-0.1 0-0.234 0.106t-0.156 0.195zM21.071 12.143q0-0.737-0.525-1.261t-1.261-0.525-1.261 0.525-0.525 1.261 0.525 1.261 1.261 0.525 1.261-0.525 0.525-1.261zM22.857 11.071v4.286q0 0.156-0.1 0.257t-0.257 0.1h-1.071v1.429q0 0.893-0.625 1.518t-1.518 0.625-1.518-0.625-0.625-1.518v-1.429h-11.429v1.429q0 0.893-0.625 1.518t-1.518 0.625-1.518-0.625-0.625-1.518v-1.429h-1.071q-0.156 0-0.257-0.1t-0.1-0.257v-4.286q0-1.038 0.731-1.769t1.769-0.731h0.313l1.172-4.676q0.257-1.049 1.161-1.758t1.998-0.709h8.571q1.094 0 1.998 0.709t1.161 1.758l1.172 4.676h0.313q1.038 0 1.769 0.731t0.731 1.769z"></path>
</svg>
