<!-- Generated by IcoMoon.io -->
<svg version="1.1" xmlns="http://www.w3.org/2000/svg" width="20" height="20" viewBox="0 0 20 20">
<title>cart-plus</title>
<path d="M14.286 7.857q0-0.29-0.212-0.502t-0.502-0.212h-1.429v-1.429q0-0.29-0.212-0.502t-0.502-0.212-0.502 0.212-0.212 0.502v1.429h-1.429q-0.29 0-0.502 0.212t-0.212 0.502 0.212 0.502 0.502 0.212h1.429v1.429q0 0.29 0.212 0.502t0.502 0.212 0.502-0.212 0.212-0.502v-1.429h1.429q0.29 0 0.502-0.212t0.212-0.502zM7.857 17.143q0 0.592-0.419 1.010t-1.010 0.419-1.010-0.419-0.419-1.010 0.419-1.010 1.010-0.419 1.010 0.419 0.419 1.010zM17.857 17.143q0 0.592-0.419 1.010t-1.010 0.419-1.010-0.419-0.419-1.010 0.419-1.010 1.010-0.419 1.010 0.419 0.419 1.010zM19.286 5v5.714q0 0.268-0.179 0.474t-0.458 0.24l-11.652 1.362q0.011 0.078 0.050 0.24t0.067 0.296 0.028 0.246q0 0.179-0.268 0.714h10.268q0.29 0 0.502 0.212t0.212 0.502-0.212 0.502-0.502 0.212h-11.429q-0.29 0-0.502-0.212t-0.212-0.502q0-0.156 0.123-0.441t0.329-0.664 0.229-0.424l-1.975-9.185h-2.277q-0.29 0-0.502-0.212t-0.212-0.502 0.212-0.502 0.502-0.212h2.857q0.179 0 0.318 0.073t0.223 0.173 0.145 0.273 0.084 0.296 0.061 0.329 0.050 0.285h13.404q0.29 0 0.502 0.212t0.212 0.502z"></path>
</svg>
