<!-- Generated by IcoMoon.io -->
<svg version="1.1" xmlns="http://www.w3.org/2000/svg" width="26" height="20" viewBox="0 0 26 20">
<title>cc-amex</title>
<path d="M1.328 7.612h0.993l-0.502-1.205zM8.259 13.482l0.826-0.882-0.781-0.882h-1.819v0.547h1.585v0.614h-1.585v0.603h1.775zM10.022 12.612l1.105 1.228v-2.422zM13.237 12.087q0-0.368-0.446-0.368h-0.938v0.77h0.926q0.458 0 0.458-0.402zM16.462 12.042q0-0.324-0.469-0.324h-0.915v0.681h0.904q0.48 0 0.48-0.357zM13.359 6.842q0-0.324-0.469-0.324h-0.915v0.67h0.904q0.48 0 0.48-0.346zM18.482 7.612h0.993l-0.491-1.205zM7.801 5.882v3.025h-0.737v-2.366l-1.049 2.366h-0.636l-1.049-2.366v2.366h-1.473l-0.279-0.67h-1.507l-0.279 0.67h-0.781l1.295-3.025h1.071l1.228 2.868v-2.868h1.183l0.949 2.054 0.859-2.054h1.205zM14.007 12.087q0 0.223-0.061 0.391t-0.156 0.279-0.251 0.184-0.29 0.112-0.352 0.050-0.352 0.011-0.363-0.006-0.329-0.006v1.016h-1.406l-0.893-1.004-0.926 1.004h-2.857v-3.025h2.902l0.893 0.993 0.915-0.993h2.31q1.217 0 1.217 0.993zM10.759 8.281v0.625h-2.422v-3.025h2.422v0.636h-1.696v0.547h1.652v0.614h-1.652v0.603h1.696zM25.714 14.52v2.556q0 0.614-0.43 1.055t-1.044 0.441h-22.768q-0.614 0-1.044-0.441t-0.43-1.055v-7.567h1.239l0.279-0.681h0.614l0.279 0.681h2.433v-0.513l0.212 0.513h1.261l0.223-0.525v0.525h6.038v-1.105l0.112-0.011q0.112 0 0.112 0.156v0.96h3.114v-0.257q0.257 0.134 0.614 0.201t0.586 0.073 0.703-0.006 0.575-0.011l0.279-0.681h0.625l0.279 0.681h2.533v-0.647l0.379 0.647h2.031v-4.219h-2.009v0.491l-0.279-0.491h-2.065v0.491l-0.257-0.491h-2.779q-0.77 0-1.217 0.246v-0.246h-1.92v0.246q-0.268-0.246-0.815-0.246h-7.009l-0.48 1.083-0.48-1.083h-2.21v0.491l-0.246-0.491h-1.886l-0.871 1.998v-4.364q0-0.614 0.43-1.055t1.044-0.441h22.768q0.614 0 1.044 0.441t0.43 1.055v7.567h-1.339q-0.569 0-0.904 0.246v-0.246h-1.975q-0.614 0-0.871 0.246v-0.246h-3.527v0.246q-0.346-0.246-0.971-0.246h-2.333v0.246q-0.257-0.246-1.016-0.246h-2.612l-0.603 0.647-0.558-0.647h-3.895v4.219h3.828l0.614-0.658 0.58 0.658h2.355v-0.993h0.234q0.658 0 1.004-0.145v1.138h1.942v-1.105h0.089q0.089 0 0.112 0.022t0.022 0.112v0.971h5.904q0.636 0 0.982-0.268v0.268h1.875q0.67 0 1.060-0.19zM17.254 11.908q0 0.257-0.134 0.48t-0.379 0.324q0.279 0.1 0.379 0.29t0.1 0.513v0.603h-0.725v-0.502q0-0.368-0.134-0.485t-0.513-0.117h-0.77v1.105h-0.725v-3.025h1.719q0.536 0 0.859 0.167t0.324 0.647zM14.163 6.696q0 0.268-0.14 0.491t-0.374 0.324q0.29 0.1 0.385 0.285t0.095 0.519v0.592h-0.725q0-0.1 0.006-0.296t0-0.279-0.033-0.206-0.095-0.179-0.195-0.095-0.329-0.039h-0.781v1.094h-0.714v-3.025l1.708 0.011q0.547 0 0.871 0.162t0.324 0.642zM20.067 13.493v0.625h-2.411v-3.025h2.411v0.625h-1.685v0.547h1.652v0.614h-1.652v0.603zM15.313 5.882v3.025h-0.737v-3.025h0.737zM23.047 13.158q0 0.96-1.138 0.96h-1.406v-0.647h1.406q0.379 0 0.379-0.279 0-0.179-0.19-0.234t-0.463-0.056-0.552-0.039-0.469-0.251-0.19-0.614q0-0.435 0.29-0.67t0.737-0.234h1.451v0.636h-1.328q-0.402 0-0.402 0.279 0 0.179 0.195 0.229t0.469 0.045 0.547 0.028 0.469 0.24 0.195 0.608zM25.714 12.6v1.127q-0.268 0.391-0.982 0.391h-1.395v-0.647h1.395q0.368 0 0.368-0.279 0-0.145-0.14-0.212t-0.346-0.061-0.446-0.022-0.446-0.089-0.346-0.268-0.14-0.541q0-0.435 0.296-0.67t0.742-0.234h1.44v0.636h-1.317q-0.402 0-0.402 0.279 0 0.223 0.324 0.246t0.765 0.056 0.631 0.29zM23.873 5.893v3.013h-1.027l-1.362-2.266v2.266h-1.473l-0.29-0.67h-1.496l-0.279 0.67h-0.837q-1.44 0-1.44-1.484 0-1.54 1.484-1.54h0.703v0.658q-0.078 0-0.313-0.011t-0.318-0.006-0.257 0.022-0.24 0.073-0.162 0.151-0.128 0.257-0.033 0.374q0 0.424 0.151 0.647t0.552 0.223h0.324l1.027-2.377h1.083l1.217 2.857v-2.857h1.105l1.272 2.098v-2.098h0.737z"></path>
</svg>
