<!-- Generated by IcoMoon.io -->
<svg version="1.1" xmlns="http://www.w3.org/2000/svg" width="26" height="20" viewBox="0 0 26 20">
<title>cc-discover</title>
<path d="M3.493 8.672q0 0.569-0.402 0.938-0.324 0.29-0.993 0.29h-0.19v-2.455h0.19q0.681 0 0.993 0.301 0.402 0.346 0.402 0.926zM23.315 7.946q0 0.58-0.714 0.58h-0.212v-1.127h0.223q0.703 0 0.703 0.547zM4.241 8.672q0-0.826-0.558-1.345t-1.44-0.519h-1.060v3.717h1.060q0.826 0 1.328-0.424 0.67-0.569 0.67-1.429zM4.576 10.525h0.725v-3.717h-0.725v3.717zM8.147 9.397q0-0.446-0.229-0.692t-0.843-0.469q-0.324-0.112-0.441-0.212t-0.117-0.257q0-0.179 0.151-0.296t0.385-0.117q0.324 0 0.592 0.301l0.379-0.491q-0.458-0.413-1.094-0.413-0.491 0-0.826 0.307t-0.335 0.753q0 0.391 0.201 0.619t0.714 0.407q0.413 0.145 0.502 0.212 0.212 0.134 0.212 0.379 0 0.223-0.156 0.374t-0.402 0.151q-0.536 0-0.792-0.491l-0.469 0.446q0.491 0.714 1.283 0.714 0.569 0 0.926-0.34t0.357-0.887zM11.25 10.402v-0.859q-0.413 0.413-0.871 0.413-0.547 0-0.898-0.363t-0.352-0.921q0-0.536 0.352-0.91t0.865-0.374q0.48 0 0.904 0.424v-0.859q-0.446-0.223-0.893-0.223-0.826 0-1.401 0.564t-0.575 1.378 0.569 1.378 1.395 0.564q0.469 0 0.904-0.212zM25 17.143v-5.882q-0.725 0.446-1.613 0.938t-2.651 1.306-3.677 1.535-4.66 1.501-5.625 1.317h17.511q0.29 0 0.502-0.212t0.212-0.502zM15.502 8.694q0-0.837-0.592-1.429t-1.429-0.592-1.429 0.592-0.592 1.429 0.592 1.429 1.429 0.592 1.429-0.592 0.592-1.429zM17.199 10.625l1.607-3.817h-0.792l-1.004 2.5-0.993-2.5h-0.792l1.585 3.817h0.391zM19.129 10.525h2.054v-0.625h-1.328v-1.004h1.283v-0.625h-1.283v-0.826h1.328v-0.636h-2.054v3.717zM23.493 10.525h0.893l-1.172-1.563q0.848-0.179 0.848-1.049 0-0.525-0.346-0.815t-0.971-0.29h-1.083v3.717h0.725v-1.484h0.1zM25.714 2.924v14.152q0 0.625-0.43 1.060t-1.044 0.435h-22.768q-0.614 0-1.044-0.435t-0.43-1.060v-14.152q0-0.625 0.43-1.060t1.044-0.435h22.768q0.614 0 1.044 0.435t0.43 1.060z"></path>
</svg>
