<!-- Generated by IcoMoon.io -->
<svg version="1.1" xmlns="http://www.w3.org/2000/svg" width="26" height="20" viewBox="0 0 26 20">
<title>cc-diners-club</title>
<path d="M9.576 13.85v-7.734q-1.183 0.458-1.92 1.512t-0.737 2.36 0.737 2.36 1.92 1.501zM15.201 9.989q0-1.306-0.737-2.36t-1.92-1.512v7.746q1.183-0.458 1.92-1.512t0.737-2.36zM17.6 9.989q0 1.775-0.876 3.281t-2.383 2.383-3.281 0.876q-1.328 0-2.539-0.519t-2.087-1.395-1.395-2.087-0.519-2.539q0-1.775 0.876-3.281t2.383-2.383 3.281-0.876 3.281 0.876 2.383 2.383 0.876 3.281zM21.875 10.067q0-1.551-0.619-2.919t-1.646-2.294-2.383-1.462-2.818-0.536h-3.359q-1.964 0-3.61 0.904t-2.623 2.567-0.977 3.739q0 1.908 0.971 3.544t2.634 2.584 3.605 0.949h3.359q1.44 0 2.807-0.564t2.394-1.507 1.646-2.26 0.619-2.746zM25.714 2.857v14.286q0 0.58-0.424 1.004t-1.004 0.424h-22.857q-0.58 0-1.004-0.424t-0.424-1.004v-14.286q0-0.58 0.424-1.004t1.004-0.424h22.857q0.58 0 1.004 0.424t0.424 1.004z"></path>
</svg>
