<!-- Generated by IcoMoon.io -->
<svg version="1.1" xmlns="http://www.w3.org/2000/svg" width="26" height="20" viewBox="0 0 26 20">
<title>cc-jcb</title>
<path d="M21.775 11.138q0 0.29-0.173 0.497t-0.43 0.262q-0.089 0.022-0.201 0.022h-1.708v-1.563h1.708q0.112 0 0.201 0.022 0.257 0.056 0.43 0.262t0.173 0.497zM21.574 8.761q0 0.279-0.167 0.469t-0.424 0.234q-0.033 0.011-0.167 0.011h-1.551v-1.44h1.551q0.033 0 0.095 0.006t0.073 0.006q0.257 0.045 0.424 0.24t0.167 0.474zM8.125 10.592v-3.438h-2.545v3.438q0 0.647-0.424 1.055t-1.172 0.407q-1.205 0-2.556-0.658v1.25q0.592 0.167 1.35 0.257t1.217 0.1l0.469 0.011q3.661 0 3.661-2.422zM16.094 12.645v-1.261q-1.105 0.58-2.232 0.658-1.205 0.089-1.886-0.458t-0.681-1.585 0.681-1.585 1.886-0.458q1.127 0.078 2.232 0.647v-1.25q-0.536-0.134-1.116-0.218t-0.893-0.106l-0.313-0.022q-1.417-0.067-2.439 0.156t-1.568 0.67-0.792 0.982-0.246 1.183 0.246 1.183 0.792 0.982 1.568 0.67 2.439 0.156q1.127-0.045 2.321-0.346zM24.286 11.362q0-0.603-0.48-0.988t-1.217-0.441v-0.033q0.636-0.089 0.993-0.463t0.357-0.887q0-0.614-0.458-0.982t-1.194-0.402q-0.033 0-0.134-0.006t-0.156-0.006h-5.078v5.692h5.48q0.826 0 1.356-0.407t0.53-1.077zM25.714 2.857v14.286q0 0.58-0.424 1.004t-1.004 0.424h-22.857q-0.58 0-1.004-0.424t-0.424-1.004v-14.286q0-0.58 0.424-1.004t1.004-0.424h22.857q0.58 0 1.004 0.424t0.424 1.004z"></path>
</svg>
