<!-- Generated by IcoMoon.io -->
<svg version="1.1" xmlns="http://www.w3.org/2000/svg" width="26" height="20" viewBox="0 0 26 20">
<title>cc-mastercard</title>
<path d="M12.489 3.806q-1.429-0.949-3.136-0.949-1.15 0-2.204 0.452t-1.814 1.211-1.211 1.808-0.452 2.199q0 1.161 0.452 2.21t1.211 1.808 1.808 1.211 2.21 0.452q1.708 0 3.136-0.949-1.462-1.194-1.987-2.963t0.006-3.532 1.981-2.958zM12.857 4.074q-1.406 1.105-1.92 2.785t-0.006 3.354 1.925 2.779q1.417-1.105 1.925-2.779t-0.006-3.354-1.92-2.785zM13.225 3.806q1.451 1.194 1.981 2.963t0.006 3.538-1.987 2.952q1.429 0.949 3.136 0.949 1.161 0 2.21-0.452t1.808-1.211 1.211-1.808 0.452-2.21q0-1.15-0.452-2.199t-1.211-1.808-1.814-1.211-2.204-0.452q-1.708 0-3.136 0.949zM21.496 11.864h0.078v-0.033h-0.19v0.033h0.078v0.19h0.033v-0.19zM21.819 12.054h0.045v-0.223h-0.056l-0.067 0.145-0.067-0.145h-0.056v0.223h0.033v-0.167l0.067 0.145h0.045l0.056-0.145v0.167zM21.73 16.964v0.022h-0.056v-0.033h0.056v0.011zM21.73 17.065h0.033l-0.045-0.056h0.022l0.011-0.011q0.011-0.011 0.011-0.033t-0.011-0.033l-0.011-0.011h-0.1v0.145h0.033v-0.056h0.011zM7.645 16.306q0-0.212 0.123-0.346t0.335-0.134q0.201 0 0.324 0.14t0.123 0.34q0 0.212-0.123 0.346t-0.324 0.134q-0.212 0-0.335-0.134t-0.123-0.346zM12.924 15.815q0.335 0 0.391 0.357h-0.781q0.056-0.357 0.391-0.357zM16.897 16.306q0-0.212 0.123-0.346t0.324-0.134 0.329 0.14 0.128 0.34q0 0.212-0.123 0.346t-0.335 0.134q-0.201 0-0.324-0.134t-0.123-0.346zM19.933 16.306q0-0.201 0.128-0.34t0.329-0.14 0.329 0.14 0.128 0.34q0 0.212-0.128 0.346t-0.329 0.134-0.329-0.14-0.128-0.34zM21.696 17.109q-0.022 0-0.045-0.011-0.011 0-0.033-0.022t-0.022-0.033q-0.011-0.022-0.011-0.045 0-0.033 0.011-0.045 0-0.022 0.022-0.045l0.011-0.011q0.022 0 0.022-0.011 0.022-0.011 0.045-0.011 0.033 0 0.045 0.011l0.045 0.022 0.022 0.045v0.011q0.011 0.022 0.011 0.033l-0.011 0.011v0.033l-0.011 0.011-0.011 0.022q-0.022 0.022-0.045 0.022-0.011 0.011-0.045 0.011zM6.685 17.065h0.335v-0.949q0-0.268-0.162-0.43t-0.441-0.173q-0.357 0-0.525 0.268-0.156-0.268-0.502-0.268-0.268 0-0.435 0.223v-0.179h-0.335v1.507h0.335v-0.837q0-0.402 0.368-0.402 0.335 0 0.335 0.402v0.837h0.324v-0.837q0-0.402 0.368-0.402 0.335 0 0.335 0.402v0.837zM8.538 17.065h0.324v-1.507h-0.324v0.179q-0.19-0.223-0.48-0.223-0.324 0-0.536 0.223t-0.212 0.569 0.212 0.569 0.536 0.223q0.313 0 0.48-0.223v0.19zM10.525 16.607q0-0.379-0.525-0.446l-0.156-0.022q-0.257-0.045-0.257-0.156 0-0.167 0.279-0.167 0.257 0 0.48 0.123l0.134-0.268q-0.246-0.156-0.614-0.156-0.29 0-0.458 0.134t-0.167 0.357q0 0.368 0.525 0.435l0.145 0.022q0.268 0.045 0.268 0.156 0 0.19-0.346 0.19-0.279 0-0.502-0.156l-0.145 0.257q0.279 0.19 0.647 0.19 0.324 0 0.508-0.134t0.184-0.357zM11.975 16.987l-0.089-0.279q-0.145 0.078-0.29 0.078-0.212 0-0.212-0.246v-0.681h0.536v-0.301h-0.536v-0.458h-0.335v0.458h-0.313v0.301h0.313v0.681q0 0.558 0.525 0.558 0.234 0 0.402-0.112zM12.935 15.513q-0.324 0-0.536 0.223t-0.212 0.569q0 0.357 0.218 0.575t0.552 0.218q0.368 0 0.614-0.212l-0.156-0.246q-0.201 0.167-0.435 0.167-0.379 0-0.458-0.368h1.127v-0.134q0-0.357-0.201-0.575t-0.513-0.218zM14.71 15.513q-0.257 0-0.391 0.223v-0.179h-0.335v1.507h0.335v-0.848q0-0.391 0.324-0.391 0.112 0 0.201 0.045l0.1-0.313q-0.1-0.045-0.234-0.045zM15.045 16.306q0 0.346 0.218 0.569t0.586 0.223q0.324 0 0.536-0.179l-0.156-0.268q-0.201 0.145-0.391 0.134-0.201 0-0.329-0.134t-0.128-0.346 0.128-0.346 0.329-0.134q0.212 0 0.391 0.134l0.156-0.268q-0.223-0.179-0.536-0.179-0.368 0-0.586 0.223t-0.218 0.569zM17.779 17.065h0.335v-1.507h-0.335v0.179q-0.167-0.223-0.469-0.223-0.324 0-0.541 0.223t-0.218 0.569 0.218 0.569 0.541 0.223q0.313 0 0.469-0.223v0.19zM19.263 15.513q-0.257 0-0.391 0.223v-0.179h-0.324v1.507h0.324v-0.848q0-0.391 0.324-0.391 0.112 0 0.201 0.045l0.1-0.313q-0.089-0.045-0.234-0.045zM20.826 17.065h0.324v-2.121h-0.324v0.792q-0.167-0.223-0.48-0.223t-0.53 0.229-0.218 0.564 0.218 0.564 0.53 0.229q0.324 0 0.48-0.223v0.19zM21.696 16.842l-0.022 0.011h-0.033q-0.022 0.011-0.045 0.033-0.033 0.011-0.033 0.045-0.011 0.022-0.011 0.067 0 0.033 0.011 0.056 0 0.022 0.033 0.045 0.022 0.022 0.045 0.033t0.056 0.011q0.045 0 0.067-0.011 0-0.011 0.022-0.022l0.022-0.011q0.011-0.011 0.033-0.045 0.011-0.022 0.011-0.056 0-0.045-0.011-0.067-0.011-0.011-0.033-0.045 0-0.011-0.022-0.022l-0.022-0.011q-0.011 0-0.033-0.006t-0.033-0.006zM25.714 2.857v14.286q0 0.58-0.424 1.004t-1.004 0.424h-22.857q-0.58 0-1.004-0.424t-0.424-1.004v-14.286q0-0.58 0.424-1.004t1.004-0.424h22.857q0.58 0 1.004 0.424t0.424 1.004z"></path>
</svg>
