<!-- Generated by IcoMoon.io -->
<svg version="1.1" xmlns="http://www.w3.org/2000/svg" width="26" height="20" viewBox="0 0 26 20">
<title>cc-paypal</title>
<path d="M8.315 10.112q0 0.413-0.285 0.686t-0.698 0.273q-0.324 0-0.519-0.179t-0.195-0.491q0-0.413 0.279-0.698t0.692-0.285q0.313 0 0.519 0.184t0.206 0.508zM17.076 8.449q0 0.469-0.246 0.636t-0.737 0.167l-0.357 0.011 0.19-1.194q0.022-0.123 0.145-0.123h0.201q0.246 0 0.391 0.022t0.279 0.14 0.134 0.34zM20.993 10.112q0 0.402-0.285 0.681t-0.686 0.279q-0.324 0-0.525-0.179t-0.201-0.491q0-0.413 0.279-0.698t0.692-0.285q0.313 0 0.519 0.184t0.206 0.508zM5.725 8.203q0-0.658-0.43-0.954t-1.122-0.296h-1.786q-0.212 0-0.234 0.212l-0.725 4.554q-0.011 0.067 0.033 0.123t0.112 0.056h0.848q0.223 0 0.246-0.212l0.201-1.228q0.011-0.089 0.078-0.145t0.167-0.073 0.19-0.017 0.212 0.011 0.156 0.011q0.96 0 1.507-0.541t0.547-1.501zM9.174 11.685l0.458-2.913q0.011-0.067-0.033-0.123t-0.112-0.056h-0.848q-0.156 0-0.19 0.368-0.301-0.446-1.060-0.446-0.804 0-1.367 0.603t-0.564 1.417q0 0.658 0.385 1.049t1.032 0.391q0.313 0 0.647-0.134t0.536-0.357q-0.045 0.134-0.045 0.234 0 0.179 0.145 0.179h0.77q0.212 0 0.246-0.212zM14.163 8.75q0-0.056-0.045-0.106t-0.1-0.050h-0.859q-0.123 0-0.201 0.112l-1.183 1.741-0.491-1.674q-0.056-0.179-0.246-0.179h-0.837q-0.056 0-0.1 0.050t-0.045 0.106q0 0.022 0.218 0.658t0.469 1.373 0.262 0.781q-0.915 1.25-0.915 1.339 0 0.145 0.145 0.145h0.859q0.123 0 0.201-0.112l2.846-4.107q0.022-0.022 0.022-0.078zM18.404 8.203q0-0.658-0.43-0.954t-1.122-0.296h-1.775q-0.223 0-0.246 0.212l-0.725 4.554q-0.011 0.067 0.033 0.123t0.112 0.056h0.915q0.134 0 0.179-0.145l0.201-1.295q0.011-0.089 0.078-0.145t0.167-0.073 0.19-0.017 0.212 0.011 0.156 0.011q0.96 0 1.507-0.541t0.547-1.501zM21.853 11.685l0.458-2.913q0.011-0.067-0.033-0.123t-0.112-0.056h-0.848q-0.156 0-0.19 0.368-0.29-0.446-1.060-0.446-0.804 0-1.367 0.603t-0.564 1.417q0 0.658 0.385 1.049t1.032 0.391q0.324 0 0.658-0.134t0.525-0.357q0 0.011-0.022 0.1t-0.022 0.134q0 0.179 0.145 0.179h0.77q0.212 0 0.246-0.212zM24.286 7.121v-0.011q0-0.156-0.145-0.156h-0.826q-0.123 0-0.145 0.123l-0.725 4.643-0.011 0.022q0 0.056 0.045 0.106t0.112 0.050h0.737q0.212 0 0.234-0.212zM4.375 8.616q-0.056 0.391-0.29 0.513t-0.67 0.123l-0.368 0.011 0.19-1.194q0.022-0.123 0.145-0.123h0.212q0.446 0 0.647 0.128t0.134 0.541zM25.714 2.857v14.286q0 0.58-0.424 1.004t-1.004 0.424h-22.857q-0.58 0-1.004-0.424t-0.424-1.004v-14.286q0-0.58 0.424-1.004t1.004-0.424h22.857q0.58 0 1.004 0.424t0.424 1.004z"></path>
</svg>
