<!-- Generated by IcoMoon.io -->
<svg version="1.1" xmlns="http://www.w3.org/2000/svg" width="26" height="20" viewBox="0 0 26 20">
<title>cc-stripe</title>
<path d="M17.824 10.078q0 0.77-0.234 1.183-0.212 0.391-0.58 0.391-0.257 0-0.458-0.1v-2.5q0.324-0.335 0.636-0.335 0.636 0 0.636 1.362zM22.712 9.676h-1.228q0.067-1.094 0.625-1.094 0.569 0 0.603 1.094zM5.313 11.183q0-0.658-0.368-1.021t-1.127-0.642q-0.402-0.145-0.58-0.268t-0.179-0.279q0-0.29 0.424-0.29 0.647 0 1.384 0.368l0.201-1.25q-0.748-0.357-1.663-0.357-0.859 0-1.373 0.424-0.536 0.435-0.536 1.217 0 0.647 0.363 1.010t1.11 0.631q0.435 0.156 0.608 0.285t0.173 0.307q0 0.346-0.536 0.346-0.324 0-0.781-0.14t-0.804-0.34l-0.201 1.261q0.804 0.458 1.875 0.458 0.904 0 1.44-0.413 0.569-0.458 0.569-1.306zM8.605 8.783l0.212-1.239h-1.071v-1.507l-1.44 0.234-0.201 1.272-0.513 0.089-0.19 1.15h0.692v2.444q0 0.938 0.491 1.339 0.424 0.335 1.239 0.335 0.357 0 0.882-0.123v-1.317q-0.357 0.078-0.491 0.078-0.469 0-0.469-0.558v-2.199h0.859zM12.132 9.063v-1.551q-0.167-0.033-0.313-0.033-0.357 0-0.619 0.179t-0.374 0.513l-0.112-0.625h-1.462v5.257h1.674v-3.415q0.29-0.346 0.915-0.346 0.179 0 0.29 0.022zM12.545 12.801h1.674v-5.257h-1.674v5.257zM19.487 10.022q0-1.362-0.502-1.998-0.446-0.58-1.239-0.58-0.714 0-1.306 0.625l-0.089-0.525h-1.473v7.199l1.674-0.279v-1.685q0.402 0.123 0.759 0.123 0.926 0 1.496-0.625 0.681-0.725 0.681-2.254zM14.263 6.138q0-0.368-0.257-0.625t-0.625-0.257-0.625 0.257-0.257 0.625 0.257 0.631 0.625 0.262 0.625-0.262 0.257-0.631zM24.286 10.123q0-1.261-0.536-1.964-0.558-0.714-1.607-0.714-1.071 0-1.691 0.737t-0.619 2.009q0 1.429 0.703 2.098 0.614 0.614 1.797 0.614 1.127 0 1.786-0.446l-0.179-1.15q-0.636 0.346-1.429 0.346-0.48 0-0.703-0.212-0.257-0.212-0.313-0.737h2.768q0.022-0.156 0.022-0.58zM25.714 2.857v14.286q0 0.58-0.424 1.004t-1.004 0.424h-22.857q-0.58 0-1.004-0.424t-0.424-1.004v-14.286q0-0.58 0.424-1.004t1.004-0.424h22.857q0.58 0 1.004 0.424t0.424 1.004z"></path>
</svg>
