<!-- Generated by IcoMoon.io -->
<svg version="1.1" xmlns="http://www.w3.org/2000/svg" width="26" height="20" viewBox="0 0 26 20">
<title>cc-visa</title>
<path d="M22.042 11.049h-1.54q0.156-0.413 0.737-1.998l0.033-0.1q0.045-0.112 0.112-0.29t0.1-0.29l0.134 0.614zM5.926 10.324l-0.647-3.292q-0.123-0.603-0.837-0.603h-2.991l-0.022 0.145q3.471 0.882 4.498 3.75zM7.924 6.429l-1.808 4.888-0.19-0.993q-0.29-0.781-0.949-1.445t-1.462-0.988l1.507 5.692h1.953l2.913-7.154h-1.964zM9.475 13.594h1.853l1.161-7.165h-1.853zM18.047 6.607q-0.77-0.301-1.663-0.301-1.373 0-2.243 0.658t-0.882 1.708q-0.011 1.138 1.618 1.942 0.536 0.257 0.748 0.458t0.212 0.435q0 0.335-0.335 0.513t-0.77 0.179q-0.96 0-1.741-0.368l-0.246-0.123-0.257 1.607q0.826 0.379 2.065 0.379 1.451 0.011 2.327-0.658t0.898-1.786q0-1.183-1.563-1.942-0.547-0.279-0.792-0.469t-0.246-0.424q0-0.246 0.273-0.43t0.787-0.184q0.781-0.011 1.384 0.268l0.167 0.089zM22.79 6.429h-1.429q-0.725 0-0.971 0.603l-2.746 6.563h1.942l0.391-1.071h2.366q0.056 0.246 0.223 1.071h1.719zM25.714 2.857v14.286q0 0.58-0.424 1.004t-1.004 0.424h-22.857q-0.58 0-1.004-0.424t-0.424-1.004v-14.286q0-0.58 0.424-1.004t1.004-0.424h22.857q0.58 0 1.004 0.424t0.424 1.004z"></path>
</svg>
