<!-- Generated by IcoMoon.io -->
<svg version="1.1" xmlns="http://www.w3.org/2000/svg" width="23" height="20" viewBox="0 0 23 20">
<title>cc</title>
<path d="M8.761 11.25h2.31q-0.156 1.763-1.099 2.773t-2.394 1.010q-1.808 0-2.84-1.295t-1.032-3.527q0-2.165 1.038-3.477t2.6-1.311q1.652 0 2.589 0.971t1.083 2.757h-2.266q-0.056-0.714-0.396-1.105t-0.91-0.391q-0.636 0-0.988 0.675t-0.352 1.981q0 0.536 0.056 0.938t0.201 0.776 0.446 0.575 0.737 0.201q1.060 0 1.217-1.551zM16.708 11.25h2.299q-0.156 1.763-1.094 2.773t-2.388 1.010q-1.808 0-2.84-1.295t-1.032-3.527q0-2.165 1.038-3.477t2.6-1.311q1.652 0 2.589 0.971t1.083 2.757h-2.277q-0.045-0.714-0.391-1.105t-0.904-0.391q-0.636 0-0.988 0.675t-0.352 1.981q0 0.536 0.056 0.938t0.201 0.776 0.441 0.575 0.731 0.201q0.547 0 0.854-0.424t0.374-1.127zM20.714 9.922q0-2.31-0.173-3.426t-0.675-1.797q-0.067-0.089-0.151-0.156t-0.24-0.167-0.179-0.123q-0.96-0.703-7.779-0.703-6.975 0-7.924 0.703-0.056 0.045-0.195 0.128t-0.234 0.156-0.162 0.162q-0.502 0.67-0.67 1.78t-0.167 3.443q0 2.321 0.167 3.432t0.67 1.791q0.067 0.089 0.167 0.167t0.229 0.156 0.195 0.134q0.491 0.368 2.673 0.547t5.251 0.179q6.808 0 7.779-0.725 0.056-0.045 0.19-0.123t0.229-0.156 0.151-0.179q0.513-0.67 0.681-1.775t0.167-3.449zM22.857 1.429v17.143h-22.857v-17.143h22.857z"></path>
</svg>
