<!-- Generated by IcoMoon.io -->
<svg version="1.1" xmlns="http://www.w3.org/2000/svg" width="20" height="20" viewBox="0 0 20 20">
<title>certificate</title>
<path d="M16.786 10l1.54 1.507q0.335 0.313 0.223 0.781-0.134 0.458-0.58 0.569l-2.098 0.536 0.592 2.076q0.134 0.458-0.212 0.781-0.324 0.346-0.781 0.212l-2.076-0.592-0.536 2.098q-0.112 0.446-0.569 0.58-0.134 0.022-0.212 0.022-0.346 0-0.569-0.246l-1.507-1.54-1.507 1.54q-0.313 0.335-0.781 0.223-0.458-0.123-0.569-0.58l-0.536-2.098-2.076 0.592q-0.458 0.134-0.781-0.212-0.346-0.324-0.212-0.781l0.592-2.076-2.098-0.536q-0.446-0.112-0.58-0.569-0.112-0.469 0.223-0.781l1.54-1.507-1.54-1.507q-0.335-0.313-0.223-0.781 0.134-0.458 0.58-0.569l2.098-0.536-0.592-2.076q-0.134-0.458 0.212-0.781 0.324-0.346 0.781-0.212l2.076 0.592 0.536-2.098q0.112-0.458 0.569-0.569 0.458-0.134 0.781 0.212l1.507 1.551 1.507-1.551q0.324-0.335 0.781-0.212 0.458 0.112 0.569 0.569l0.536 2.098 2.076-0.592q0.458-0.134 0.781 0.212 0.346 0.324 0.212 0.781l-0.592 2.076 2.098 0.536q0.446 0.112 0.58 0.569 0.112 0.469-0.223 0.781z"></path>
</svg>
