<!-- Generated by IcoMoon.io -->
<svg version="1.1" xmlns="http://www.w3.org/2000/svg" width="20" height="20" viewBox="0 0 20 20">
<title>chain-broken</title>
<path d="M5.614 14.185l-2.857 2.857q-0.123 0.1-0.257 0.1t-0.257-0.1q-0.1-0.112-0.1-0.257t0.1-0.257l2.857-2.857q0.112-0.1 0.257-0.1t0.257 0.1q0.1 0.112 0.1 0.257t-0.1 0.257zM7.5 14.643v3.571q0 0.156-0.1 0.257t-0.257 0.1-0.257-0.1-0.1-0.257v-3.571q0-0.156 0.1-0.257t0.257-0.1 0.257 0.1 0.1 0.257zM5 12.143q0 0.156-0.1 0.257t-0.257 0.1h-3.571q-0.156 0-0.257-0.1t-0.1-0.257 0.1-0.257 0.257-0.1h3.571q0.156 0 0.257 0.1t0.1 0.257zM19.107 13.571q0 1.339-0.949 2.266l-1.641 1.629q-0.926 0.926-2.266 0.926-1.35 0-2.277-0.949l-3.728-3.739q-0.234-0.234-0.469-0.625l2.667-0.201 3.047 3.058q0.301 0.301 0.759 0.307t0.759-0.296l1.641-1.629q0.313-0.313 0.313-0.748 0-0.446-0.313-0.759l-3.058-3.069 0.201-2.667q0.391 0.234 0.625 0.469l3.75 3.75q0.938 0.96 0.938 2.277zM12.221 5.491l-2.667 0.201-3.047-3.058q-0.313-0.313-0.759-0.313-0.435 0-0.759 0.301l-1.641 1.629q-0.313 0.313-0.313 0.748 0 0.446 0.313 0.759l3.058 3.058-0.201 2.679q-0.391-0.234-0.625-0.469l-3.75-3.75q-0.938-0.96-0.938-2.277 0-1.339 0.949-2.266l1.641-1.629q0.926-0.926 2.266-0.926 1.35 0 2.277 0.949l3.728 3.739q0.234 0.234 0.469 0.625zM19.286 6.429q0 0.156-0.1 0.257t-0.257 0.1h-3.571q-0.156 0-0.257-0.1t-0.1-0.257 0.1-0.257 0.257-0.1h3.571q0.156 0 0.257 0.1t0.1 0.257zM13.214 0.357v3.571q0 0.156-0.1 0.257t-0.257 0.1-0.257-0.1-0.1-0.257v-3.571q0-0.156 0.1-0.257t0.257-0.1 0.257 0.1 0.1 0.257zM17.757 2.042l-2.857 2.857q-0.123 0.1-0.257 0.1t-0.257-0.1q-0.1-0.112-0.1-0.257t0.1-0.257l2.857-2.857q0.112-0.1 0.257-0.1t0.257 0.1q0.1 0.112 0.1 0.257t-0.1 0.257z"></path>
</svg>
