<!-- Generated by IcoMoon.io -->
<svg version="1.1" xmlns="http://www.w3.org/2000/svg" width="20" height="20" viewBox="0 0 20 20">
<title>check-square</title>
<path d="M9.074 14.498l6.853-6.853q0.212-0.212 0.212-0.502t-0.212-0.502l-1.138-1.138q-0.212-0.212-0.502-0.212t-0.502 0.212l-5.212 5.212-2.355-2.355q-0.212-0.212-0.502-0.212t-0.502 0.212l-1.138 1.138q-0.212 0.212-0.212 0.502t0.212 0.502l3.996 3.996q0.212 0.212 0.502 0.212t0.502-0.212zM18.571 4.643v10.714q0 1.328-0.943 2.271t-2.271 0.943h-10.714q-1.328 0-2.271-0.943t-0.943-2.271v-10.714q0-1.328 0.943-2.271t2.271-0.943h10.714q1.328 0 2.271 0.943t0.943 2.271z"></path>
</svg>
