<!-- Generated by IcoMoon.io -->
<svg version="1.1" xmlns="http://www.w3.org/2000/svg" width="20" height="20" viewBox="0 0 20 20">
<title>check-circle-o</title>
<path d="M14.498 9.074l-4.71 4.71q-0.212 0.212-0.502 0.212t-0.502-0.212l-3.281-3.281q-0.212-0.212-0.212-0.502t0.212-0.502l1.138-1.138q0.212-0.212 0.502-0.212t0.502 0.212l1.641 1.641 3.069-3.069q0.212-0.212 0.502-0.212t0.502 0.212l1.138 1.138q0.212 0.212 0.212 0.502t-0.212 0.502zM16.071 10q0-1.652-0.815-3.047t-2.21-2.21-3.047-0.815-3.047 0.815-2.21 2.21-0.815 3.047 0.815 3.047 2.21 2.21 3.047 0.815 3.047-0.815 2.21-2.21 0.815-3.047zM18.571 10q0 2.333-1.15 4.302t-3.119 3.119-4.302 1.15-4.302-1.15-3.119-3.119-1.15-4.302 1.15-4.302 3.119-3.119 4.302-1.15 4.302 1.15 3.119 3.119 1.15 4.302z"></path>
</svg>
