<!-- Generated by IcoMoon.io -->
<svg version="1.1" xmlns="http://www.w3.org/2000/svg" width="20" height="20" viewBox="0 0 20 20">
<title>check-circle</title>
<path d="M15.759 8.192q0-0.313-0.201-0.513l-1.016-1.004q-0.212-0.212-0.502-0.212t-0.502 0.212l-4.554 4.542-2.522-2.522q-0.212-0.212-0.502-0.212t-0.502 0.212l-1.016 1.004q-0.201 0.201-0.201 0.513 0 0.301 0.201 0.502l4.040 4.040q0.212 0.212 0.502 0.212 0.301 0 0.513-0.212l6.060-6.060q0.201-0.201 0.201-0.502zM18.571 10q0 2.333-1.15 4.302t-3.119 3.119-4.302 1.15-4.302-1.15-3.119-3.119-1.15-4.302 1.15-4.302 3.119-3.119 4.302-1.15 4.302 1.15 3.119 3.119 1.15 4.302z"></path>
</svg>
