<!-- Generated by IcoMoon.io -->
<svg version="1.1" xmlns="http://www.w3.org/2000/svg" width="20" height="20" viewBox="0 0 20 20">
<title>check-square-o</title>
<path d="M16.429 10.379v3.549q0 1.328-0.943 2.271t-2.271 0.943h-9.286q-1.328 0-2.271-0.943t-0.943-2.271v-9.286q0-1.328 0.943-2.271t2.271-0.943h9.286q0.703 0 1.306 0.279 0.167 0.078 0.201 0.257 0.033 0.19-0.1 0.324l-0.547 0.547q-0.112 0.112-0.257 0.112-0.033 0-0.1-0.022-0.257-0.067-0.502-0.067h-9.286q-0.737 0-1.261 0.525t-0.525 1.261v9.286q0 0.737 0.525 1.261t1.261 0.525h9.286q0.737 0 1.261-0.525t0.525-1.261v-2.835q0-0.145 0.1-0.246l0.714-0.714q0.112-0.112 0.257-0.112 0.067 0 0.134 0.033 0.223 0.089 0.223 0.324zM19.007 4.922l-9.085 9.085q-0.268 0.268-0.636 0.268t-0.636-0.268l-4.799-4.799q-0.268-0.268-0.268-0.636t0.268-0.636l1.228-1.228q0.268-0.268 0.636-0.268t0.636 0.268l2.935 2.935 7.221-7.221q0.268-0.268 0.636-0.268t0.636 0.268l1.228 1.228q0.268 0.268 0.268 0.636t-0.268 0.636z"></path>
</svg>
