<!-- Generated by IcoMoon.io -->
<svg version="1.1" xmlns="http://www.w3.org/2000/svg" width="20" height="20" viewBox="0 0 20 20">
<title>chevron-circle-left</title>
<path d="M11.574 15.569l1.138-1.138q0.212-0.212 0.212-0.502t-0.212-0.502l-3.426-3.426 3.426-3.426q0.212-0.212 0.212-0.502t-0.212-0.502l-1.138-1.138q-0.212-0.212-0.502-0.212t-0.502 0.212l-5.067 5.067q-0.212 0.212-0.212 0.502t0.212 0.502l5.067 5.067q0.212 0.212 0.502 0.212t0.502-0.212zM18.571 10q0 2.333-1.15 4.302t-3.119 3.119-4.302 1.15-4.302-1.15-3.119-3.119-1.15-4.302 1.15-4.302 3.119-3.119 4.302-1.15 4.302 1.15 3.119 3.119 1.15 4.302z"></path>
</svg>
