<!-- Generated by IcoMoon.io -->
<svg version="1.1" xmlns="http://www.w3.org/2000/svg" width="20" height="20" viewBox="0 0 20 20">
<title>child</title>
<path d="M16.116 6.116l-3.259 3.259v9.196q0 0.513-0.368 0.882t-0.882 0.368-0.882-0.368-0.368-0.882v-4.286h-0.714v4.286q0 0.513-0.368 0.882t-0.882 0.368-0.882-0.368-0.368-0.882v-9.196l-3.259-3.259q-0.313-0.313-0.313-0.759t0.313-0.759q0.324-0.313 0.765-0.313t0.753 0.313l2.545 2.545h4.107l2.545-2.545q0.313-0.313 0.759-0.313t0.759 0.313q0.313 0.324 0.313 0.765t-0.313 0.753zM12.5 4.286q0 1.038-0.731 1.769t-1.769 0.731-1.769-0.731-0.731-1.769 0.731-1.769 1.769-0.731 1.769 0.731 0.731 1.769z"></path>
</svg>
