<!-- Generated by IcoMoon.io -->
<svg version="1.1" xmlns="http://www.w3.org/2000/svg" width="20" height="20" viewBox="0 0 20 20">
<title>chrome</title>
<path d="M9.967 0q2.679-0.022 5.033 1.339 2.589 1.496 3.929 4.152l-8.281-0.435q-1.786-0.1-3.281 0.831t-2.065 2.561l-3.080-4.732q1.429-1.775 3.471-2.74t4.275-0.977zM1.629 4.52l3.761 7.4q0.804 1.596 2.355 2.422t3.27 0.502l-2.567 5.033q-2.366-0.368-4.297-1.758t-3.041-3.527-1.11-4.593q0-2.98 1.629-5.48zM19.33 6.406q0.647 1.674 0.664 3.465t-0.541 3.415-1.708 3.036-2.746 2.338q-2.567 1.484-5.558 1.328l4.52-6.953q0.982-1.462 0.921-3.242t-1.189-3.097zM10 6.629q1.395 0 2.383 0.988t0.988 2.383-0.988 2.383-2.383 0.988-2.383-0.988-0.988-2.383 0.988-2.383 2.383-0.988z"></path>
</svg>
