<!-- Generated by IcoMoon.io -->
<svg version="1.1" xmlns="http://www.w3.org/2000/svg" width="20" height="20" viewBox="0 0 20 20">
<title>circle-thin</title>
<path d="M10 2.857q-1.451 0-2.773 0.569t-2.277 1.523-1.523 2.277-0.569 2.773 0.569 2.773 1.523 2.277 2.277 1.523 2.773 0.569 2.773-0.569 2.277-1.523 1.523-2.277 0.569-2.773-0.569-2.773-1.523-2.277-2.277-1.523-2.773-0.569zM18.571 10q0 2.333-1.15 4.302t-3.119 3.119-4.302 1.15-4.302-1.15-3.119-3.119-1.15-4.302 1.15-4.302 3.119-3.119 4.302-1.15 4.302 1.15 3.119 3.119 1.15 4.302z"></path>
</svg>
