<!-- Generated by IcoMoon.io -->
<svg version="1.1" xmlns="http://www.w3.org/2000/svg" width="20" height="20" viewBox="0 0 20 20">
<title>clone</title>
<path d="M18.571 18.214v-12.143q0-0.145-0.106-0.251t-0.251-0.106h-12.143q-0.145 0-0.251 0.106t-0.106 0.251v12.143q0 0.145 0.106 0.251t0.251 0.106h12.143q0.145 0 0.251-0.106t0.106-0.251zM20 6.071v12.143q0 0.737-0.525 1.261t-1.261 0.525h-12.143q-0.737 0-1.261-0.525t-0.525-1.261v-12.143q0-0.737 0.525-1.261t1.261-0.525h12.143q0.737 0 1.261 0.525t0.525 1.261zM15.714 1.786v1.786h-1.429v-1.786q0-0.145-0.106-0.251t-0.251-0.106h-12.143q-0.145 0-0.251 0.106t-0.106 0.251v12.143q0 0.145 0.106 0.251t0.251 0.106h1.786v1.429h-1.786q-0.737 0-1.261-0.525t-0.525-1.261v-12.143q0-0.737 0.525-1.261t1.261-0.525h12.143q0.737 0 1.261 0.525t0.525 1.261z"></path>
</svg>
