<!-- Generated by IcoMoon.io -->
<svg version="1.1" xmlns="http://www.w3.org/2000/svg" width="23" height="20" viewBox="0 0 23 20">
<title>cloud-upload</title>
<path d="M15 9.643q0-0.156-0.1-0.257l-3.929-3.929q-0.1-0.1-0.257-0.1t-0.257 0.1l-3.917 3.917q-0.112 0.134-0.112 0.268 0 0.156 0.1 0.257t0.257 0.1h2.5v3.929q0 0.145 0.106 0.251t0.251 0.106h2.143q0.145 0 0.251-0.106t0.106-0.251v-3.929h2.5q0.145 0 0.251-0.106t0.106-0.251zM22.143 12.857q0 1.775-1.256 3.030t-3.030 1.256h-12.143q-2.065 0-3.532-1.468t-1.468-3.532q0-1.451 0.781-2.679t2.098-1.842q-0.022-0.335-0.022-0.48 0-2.366 1.674-4.040t4.040-1.674q1.741 0 3.186 0.971t2.104 2.578q0.792-0.692 1.853-0.692 1.183 0 2.020 0.837t0.837 2.020q0 0.848-0.458 1.54 1.451 0.346 2.383 1.512t0.932 2.662z"></path>
</svg>
