<!-- Generated by IcoMoon.io -->
<svg version="1.1" xmlns="http://www.w3.org/2000/svg" width="23" height="20" viewBox="0 0 23 20">
<title>code</title>
<path d="M7.6 15.614l-0.558 0.558q-0.112 0.112-0.257 0.112t-0.257-0.112l-5.201-5.201q-0.112-0.112-0.112-0.257t0.112-0.257l5.201-5.201q0.112-0.112 0.257-0.112t0.257 0.112l0.558 0.558q0.112 0.112 0.112 0.257t-0.112 0.257l-4.386 4.386 4.386 4.386q0.112 0.112 0.112 0.257t-0.112 0.257zM14.196 3.705l-4.163 14.408q-0.045 0.145-0.173 0.218t-0.262 0.028l-0.692-0.19q-0.145-0.045-0.218-0.173t-0.028-0.273l4.163-14.408q0.045-0.145 0.173-0.218t0.262-0.028l0.692 0.19q0.145 0.045 0.218 0.173t0.028 0.273zM21.529 10.971l-5.201 5.201q-0.112 0.112-0.257 0.112t-0.257-0.112l-0.558-0.558q-0.112-0.112-0.112-0.257t0.112-0.257l4.386-4.386-4.386-4.386q-0.112-0.112-0.112-0.257t0.112-0.257l0.558-0.558q0.112-0.112 0.257-0.112t0.257 0.112l5.201 5.201q0.112 0.112 0.112 0.257t-0.112 0.257z"></path>
</svg>
