<!-- Generated by IcoMoon.io -->
<svg version="1.1" xmlns="http://www.w3.org/2000/svg" width="20" height="20" viewBox="0 0 20 20">
<title>codepen</title>
<path d="M2.411 13.047l6.73 4.487v-4.007l-3.728-2.489zM1.719 11.44l2.154-1.44-2.154-1.44v2.879zM10.859 17.533l6.73-4.487-3.002-2.009-3.728 2.489v4.007zM10 12.031l3.036-2.031-3.036-2.031-3.036 2.031zM5.413 8.962l3.728-2.489v-4.007l-6.73 4.487zM16.127 10l2.154 1.44v-2.879zM14.587 8.962l3.002-2.009-6.73-4.487v4.007zM20 6.953v6.094q0 0.458-0.379 0.714l-9.141 6.094q-0.234 0.145-0.48 0.145t-0.48-0.145l-9.141-6.094q-0.379-0.257-0.379-0.714v-6.094q0-0.458 0.379-0.714l9.141-6.094q0.234-0.145 0.48-0.145t0.48 0.145l9.141 6.094q0.379 0.257 0.379 0.714z"></path>
</svg>
