<!-- Generated by IcoMoon.io -->
<svg version="1.1" xmlns="http://www.w3.org/2000/svg" width="20" height="20" viewBox="0 0 20 20">
<title>code-fork</title>
<path d="M7.5 16.429q0-0.446-0.313-0.759t-0.759-0.313-0.759 0.313-0.313 0.759 0.313 0.759 0.759 0.313 0.759-0.313 0.313-0.759zM7.5 3.571q0-0.446-0.313-0.759t-0.759-0.313-0.759 0.313-0.313 0.759 0.313 0.759 0.759 0.313 0.759-0.313 0.313-0.759zM14.643 5q0-0.446-0.313-0.759t-0.759-0.312-0.759 0.312-0.313 0.759 0.313 0.759 0.759 0.313 0.759-0.313 0.313-0.759zM15.714 5q0 0.58-0.29 1.077t-0.781 0.776q-0.022 3.203-2.522 4.621-0.748 0.424-2.266 0.904-1.429 0.446-1.892 0.792t-0.463 1.116v0.29q0.491 0.279 0.781 0.776t0.29 1.077q0 0.893-0.625 1.518t-1.518 0.625-1.518-0.625-0.625-1.518q0-0.58 0.29-1.077t0.781-0.776v-9.152q-0.491-0.279-0.781-0.776t-0.29-1.077q0-0.893 0.625-1.518t1.518-0.625 1.518 0.625 0.625 1.518q0 0.58-0.29 1.077t-0.781 0.776v5.547q0.603-0.29 1.719-0.636 0.614-0.19 0.977-0.329t0.787-0.346 0.658-0.441 0.452-0.569 0.313-0.776 0.095-1.021q-0.491-0.279-0.781-0.776t-0.29-1.077q0-0.893 0.625-1.518t1.518-0.625 1.518 0.625 0.625 1.518z"></path>
</svg>
