<!-- Generated by IcoMoon.io -->
<svg version="1.1" xmlns="http://www.w3.org/2000/svg" width="20" height="20" viewBox="0 0 20 20">
<title>codiepie</title>
<path d="M17.679 14.397l-2.433-1.239q-0.826 1.339-2.193 2.109t-2.941 0.77q-1.641 0-3.025-0.804t-2.188-2.188-0.804-3.013q0-1.228 0.474-2.338t1.283-1.92 1.92-1.283 2.338-0.474q1.462 0 2.762 0.675t2.148 1.881l2.4-1.395q-1.228-1.886-3.198-2.958t-4.224-1.071q-1.797 0-3.438 0.703t-2.824 1.886-1.886 2.824-0.703 3.438 0.703 3.438 1.886 2.824 2.824 1.886 3.438 0.703q2.377 0 4.436-1.194t3.242-3.259zM11.496 9.967l7.734 3.929q-1.295 2.824-3.733 4.464t-5.497 1.641q-2.031 0-3.884-0.792t-3.192-2.132-2.132-3.192-0.792-3.884 0.792-3.884 2.132-3.192 3.192-2.132 3.884-0.792q2.902 0 5.251 1.49t3.744 4.090zM17.221 10h-0.435v1.786h-1.071v-3.929h1.518q0.357 0 0.608 0.223t0.318 0.536 0.011 0.625-0.307 0.536-0.642 0.223z"></path>
</svg>
