<!-- Generated by IcoMoon.io -->
<svg version="1.1" xmlns="http://www.w3.org/2000/svg" width="23" height="20" viewBox="0 0 23 20">
<title>coffee</title>
<path d="M19.286 7.143q0-0.893-0.625-1.518t-1.518-0.625h-0.714v4.286h0.714q0.893 0 1.518-0.625t0.625-1.518zM0.714 15.714h20q0 1.183-0.837 2.020t-2.020 0.837h-14.286q-1.183 0-2.020-0.837t-0.837-2.020zM21.429 7.143q0 1.775-1.256 3.030t-3.030 1.256h-0.714v0.357q0 1.027-0.737 1.763t-1.763 0.737h-7.857q-1.027 0-1.763-0.737t-0.737-1.763v-8.214q0-0.29 0.212-0.502t0.502-0.212h12.857q1.775 0 3.030 1.256t1.256 3.030z"></path>
</svg>
