<!-- Generated by IcoMoon.io -->
<svg version="1.1" xmlns="http://www.w3.org/2000/svg" width="20" height="20" viewBox="0 0 20 20">
<title>cog</title>
<path d="M12.857 10q0-1.183-0.837-2.020t-2.020-0.837-2.020 0.837-0.837 2.020 0.837 2.020 2.020 0.837 2.020-0.837 0.837-2.020zM18.571 8.783v2.478q0 0.134-0.089 0.257t-0.223 0.145l-2.065 0.313q-0.212 0.603-0.435 1.016 0.391 0.558 1.194 1.54 0.112 0.134 0.112 0.279t-0.1 0.257q-0.301 0.413-1.105 1.205t-1.049 0.792q-0.134 0-0.29-0.1l-1.54-1.205q-0.491 0.257-1.016 0.424-0.179 1.518-0.324 2.076-0.078 0.313-0.402 0.313h-2.478q-0.156 0-0.273-0.095t-0.128-0.24l-0.313-2.054q-0.547-0.179-1.004-0.413l-1.574 1.194q-0.112 0.1-0.279 0.1-0.156 0-0.279-0.123-1.406-1.272-1.842-1.875-0.078-0.112-0.078-0.257 0-0.134 0.089-0.257 0.167-0.234 0.569-0.742t0.603-0.787q-0.301-0.558-0.458-1.105l-2.042-0.301q-0.145-0.022-0.234-0.14t-0.089-0.262v-2.478q0-0.134 0.089-0.257t0.212-0.145l2.076-0.313q0.156-0.513 0.435-1.027-0.446-0.636-1.194-1.54-0.112-0.134-0.112-0.268 0-0.112 0.1-0.257 0.29-0.402 1.099-1.2t1.055-0.798q0.145 0 0.29 0.112l1.54 1.194q0.491-0.257 1.016-0.424 0.179-1.518 0.324-2.076 0.078-0.313 0.402-0.313h2.478q0.156 0 0.273 0.095t0.128 0.24l0.313 2.054q0.547 0.179 1.004 0.413l1.585-1.194q0.1-0.1 0.268-0.1 0.145 0 0.279 0.112 1.44 1.328 1.842 1.897 0.078 0.089 0.078 0.246 0 0.134-0.089 0.257-0.167 0.234-0.569 0.742t-0.603 0.787q0.29 0.558 0.458 1.094l2.042 0.313q0.145 0.022 0.234 0.14t0.089 0.262z"></path>
</svg>
