<!-- Generated by IcoMoon.io -->
<svg version="1.1" xmlns="http://www.w3.org/2000/svg" width="20" height="20" viewBox="0 0 20 20">
<title>comment</title>
<path d="M20 10q0 1.942-1.339 3.588t-3.638 2.6-5.022 0.954q-0.781 0-1.618-0.089-2.21 1.953-5.134 2.701-0.547 0.156-1.272 0.246-0.19 0.022-0.34-0.1t-0.195-0.324v-0.011q-0.033-0.045-0.006-0.134t0.022-0.112 0.050-0.106l0.067-0.1 0.078-0.095 0.089-0.1q0.078-0.089 0.346-0.385t0.385-0.424 0.346-0.441 0.363-0.569 0.301-0.658 0.29-0.848q-1.752-0.993-2.762-2.455t-1.010-3.136q0-1.451 0.792-2.773t2.132-2.282 3.192-1.523 3.884-0.564q2.723 0 5.022 0.954t3.638 2.6 1.339 3.588z"></path>
</svg>
