<!-- Generated by IcoMoon.io -->
<svg version="1.1" xmlns="http://www.w3.org/2000/svg" width="20" height="20" viewBox="0 0 20 20">
<title>commenting</title>
<path d="M7.143 10q0-0.592-0.419-1.010t-1.010-0.419-1.010 0.419-0.419 1.010 0.419 1.010 1.010 0.419 1.010-0.419 0.419-1.010zM11.429 10q0-0.592-0.419-1.010t-1.010-0.419-1.010 0.419-0.419 1.010 0.419 1.010 1.010 0.419 1.010-0.419 0.419-1.010zM15.714 10q0-0.592-0.419-1.010t-1.010-0.419-1.010 0.419-0.419 1.010 0.419 1.010 1.010 0.419 1.010-0.419 0.419-1.010zM20 10q0 1.942-1.339 3.588t-3.638 2.6-5.022 0.954q-1.228 0-2.355-0.201-1.931 1.931-4.855 2.556-0.58 0.112-0.96 0.145-0.134 0.011-0.246-0.067t-0.145-0.201q-0.045-0.167 0.223-0.413 0.056-0.056 0.262-0.24t0.285-0.262 0.262-0.285 0.268-0.352 0.229-0.413 0.223-0.536 0.162-0.642 0.14-0.809q-1.629-1.004-2.561-2.416t-0.932-3.008q0-1.942 1.339-3.588t3.638-2.6 5.022-0.954 5.022 0.954 3.638 2.6 1.339 3.588z"></path>
</svg>
