<!-- Generated by IcoMoon.io -->
<svg version="1.1" xmlns="http://www.w3.org/2000/svg" width="20" height="20" viewBox="0 0 20 20">
<title>commenting-o</title>
<path d="M7.143 10q0 0.592-0.419 1.010t-1.010 0.419-1.010-0.419-0.419-1.010 0.419-1.010 1.010-0.419 1.010 0.419 0.419 1.010zM11.429 10q0 0.592-0.419 1.010t-1.010 0.419-1.010-0.419-0.419-1.010 0.419-1.010 1.010-0.419 1.010 0.419 0.419 1.010zM15.714 10q0 0.592-0.419 1.010t-1.010 0.419-1.010-0.419-0.419-1.010 0.419-1.010 1.010-0.419 1.010 0.419 0.419 1.010zM10 4.286q-2.277 0-4.258 0.776t-3.147 2.093-1.166 2.846q0 1.25 0.798 2.383t2.249 1.959l0.971 0.558-0.301 1.071q-0.268 1.016-0.781 1.92 1.696-0.703 3.069-1.908l0.48-0.424 0.636 0.067q0.77 0.089 1.451 0.089 2.277 0 4.258-0.776t3.147-2.093 1.166-2.846-1.166-2.846-3.147-2.093-4.258-0.776zM20 10q0 1.942-1.339 3.588t-3.638 2.6-5.022 0.954q-0.781 0-1.618-0.089-2.21 1.953-5.134 2.701-0.547 0.156-1.272 0.246h-0.056q-0.167 0-0.301-0.117t-0.179-0.307v-0.011q-0.033-0.045-0.006-0.134t0.022-0.112 0.050-0.106l0.067-0.1 0.078-0.095 0.089-0.1q0.078-0.089 0.346-0.385t0.385-0.424 0.346-0.441 0.363-0.569 0.301-0.658 0.29-0.848q-1.752-0.993-2.762-2.455t-1.010-3.136q0-1.451 0.792-2.773t2.132-2.282 3.192-1.523 3.884-0.564 3.884 0.564 3.192 1.523 2.132 2.282 0.792 2.773z"></path>
</svg>
