<!-- Generated by IcoMoon.io -->
<svg version="1.1" xmlns="http://www.w3.org/2000/svg" width="20" height="20" viewBox="0 0 20 20">
<title>comments-o</title>
<path d="M7.857 4.286q-1.708 0-3.192 0.58t-2.36 1.574-0.876 2.132q0 0.915 0.592 1.763t1.663 1.473l1.083 0.625-0.391 0.938q0.379-0.223 0.692-0.435l0.491-0.346 0.592 0.112q0.871 0.156 1.708 0.156 1.708 0 3.192-0.58t2.36-1.574 0.876-2.132-0.876-2.132-2.36-1.574-3.192-0.58zM7.857 2.857q2.132 0 3.945 0.765t2.863 2.081 1.049 2.868-1.049 2.868-2.863 2.081-3.945 0.765q-0.96 0-1.964-0.179-1.384 0.982-3.103 1.429-0.402 0.1-0.96 0.179h-0.033q-0.123 0-0.229-0.089t-0.128-0.234q-0.011-0.033-0.011-0.073t0.006-0.073 0.022-0.067l0.028-0.056 0.039-0.061 0.045-0.056 0.050-0.056 0.045-0.050q0.056-0.067 0.257-0.279t0.29-0.329 0.251-0.324 0.279-0.43 0.229-0.491q-1.384-0.804-2.176-1.975t-0.792-2.5q0-1.551 1.049-2.868t2.863-2.081 3.945-0.765zM17.031 15.904q0.112 0.268 0.229 0.491t0.279 0.43 0.251 0.324 0.29 0.329 0.257 0.279q0.011 0.011 0.045 0.050t0.050 0.056 0.045 0.056 0.039 0.061l0.028 0.056 0.022 0.067 0.006 0.073-0.011 0.073q-0.033 0.156-0.145 0.246t-0.246 0.078q-0.558-0.078-0.96-0.179-1.719-0.446-3.103-1.429-1.004 0.179-1.964 0.179-3.025 0-5.268-1.473 0.647 0.045 0.982 0.045 1.797 0 3.449-0.502t2.946-1.44q1.395-1.027 2.143-2.366t0.748-2.835q0-0.859-0.257-1.696 1.44 0.792 2.277 1.987t0.837 2.567q0 1.339-0.792 2.506t-2.176 1.97z"></path>
</svg>
