<!-- Generated by IcoMoon.io -->
<svg version="1.1" xmlns="http://www.w3.org/2000/svg" width="20" height="20" viewBox="0 0 20 20">
<title>compass</title>
<path d="M8.571 12.143l2.857-1.429-2.857-1.429v2.857zM12.857 5.547v6.049l-5.714 2.857v-6.049zM16.071 10q0-1.652-0.815-3.047t-2.21-2.21-3.047-0.815-3.047 0.815-2.21 2.21-0.815 3.047 0.815 3.047 2.21 2.21 3.047 0.815 3.047-0.815 2.21-2.21 0.815-3.047zM18.571 10q0 2.333-1.15 4.302t-3.119 3.119-4.302 1.15-4.302-1.15-3.119-3.119-1.15-4.302 1.15-4.302 3.119-3.119 4.302-1.15 4.302 1.15 3.119 3.119 1.15 4.302z"></path>
</svg>
