<!-- Generated by IcoMoon.io -->
<svg version="1.1" xmlns="http://www.w3.org/2000/svg" width="23" height="20" viewBox="0 0 23 20">
<title>connectdevelop</title>
<path d="M22.857 9.989q0 0.234-0.145 0.407t-0.368 0.218l-2.288 3.973q0.033 0.1 0.033 0.201 0 0.223-0.14 0.396t-0.363 0.218l-2.154 3.761q0.033 0.089 0.033 0.179 0 0.257-0.184 0.446t-0.452 0.19q-0.279 0-0.458-0.201h-4.464q-0.19 0.223-0.48 0.223t-0.48-0.223h-4.453q-0.19 0.223-0.48 0.223-0.257 0-0.446-0.184t-0.19-0.452q0-0.089 0.045-0.223l-2.154-3.739q-0.223-0.045-0.363-0.218t-0.14-0.396q0-0.1 0.033-0.201l-2.299-3.973q-0.223-0.056-0.363-0.229t-0.14-0.396q0-0.234 0.151-0.407t0.374-0.218l2.221-3.839q0-0.011-0.006-0.033t-0.006-0.033q0-0.402 0.379-0.569l2.333-4.051q-0.045-0.112-0.045-0.201 0-0.268 0.19-0.452t0.446-0.184q0.29 0 0.491 0.234h4.42q0.179-0.234 0.48-0.234t0.48 0.234h4.442q0.201-0.234 0.491-0.234 0.257 0 0.446 0.184t0.19 0.452q0 0.067-0.045 0.201l2.31 3.996q0.257 0.011 0.435 0.195t0.179 0.43q0 0.145-0.078 0.301l2.087 3.616q0.212 0.045 0.352 0.218t0.14 0.396zM11.864 18.906h4.342l-3.817-3.951h-1.596l-3.817 3.951h4.018q0.201-0.179 0.435-0.179t0.435 0.179zM1.25 9.844q0.011 0.045 0.011 0.145 0 0.112-0.022 0.167l2.321 4.018 0.167 0.067 2.098-2.221v-3.873l-2.087-2.165q-0.145 0.089-0.324 0.112zM11.004 1.094h-4.33l2.121 2.232 6.183-2.232h-3.125q-0.179 0.179-0.424 0.179t-0.424-0.179zM18.85 14.621q0.011-0.067 0.056-0.123l-0.714-0.759-0.19 0.882h0.848zM17.667 14.621l0.246-1.172-2.813-2.969-3.304 3.426 0.703 0.714h5.167zM16.685 18.728l0.179-0.313 0.725-3.46h-4.766l3.717 3.828q0.089-0.045 0.145-0.056zM6.451 18.906h0.056l3.817-3.951h-4.163v3.739l0.045 0.067q0.156 0.056 0.246 0.145zM6.161 14.621h4.487l0.714-0.737-3.449-3.583-1.752 1.853v2.467zM4.007 14.621h1.819v-2.109l-1.875 1.975q0.045 0.089 0.056 0.134zM3.996 5.413q0 0.011 0.006 0.022t0.006 0.022q0 0.179-0.089 0.324l1.908 1.975v-3.002zM6.161 4.632v3.471l1.708 1.752 3.315-3.504-2.489-2.634zM6.205 1.239l-0.045 0.089v2.946l2.288-0.826-2.132-2.243q-0.067 0.022-0.112 0.033zM16.15 1.094h-0.179l-6.931 2.5 2.377 2.511zM11.417 6.585l-3.315 3.516 3.471 3.56 3.304-3.426zM7.679 10.067l-1.518-1.574v3.17zM11.585 14.129l-0.469 0.491h0.949zM15.335 10.246l2.656 2.801 1.473-6.964-0.033-0.056-0.011-0.011zM19.174 5.781q-0.089-0.145-0.089-0.324v-0.022l-2.411-4.196q-0.056-0.011-0.145-0.056l-4.877 5.167 3.46 3.65zM5.826 4.397v-2.489l-1.819 3.147zM5.826 14.955h-1.819l1.819 3.158v-3.158zM17.935 14.955l-0.536 2.533 1.451-2.533h-0.915zM19.297 14.174l2.31-4.029q-0.022-0.112-0.022-0.156 0-0.011 0.033-0.179l-1.908-3.304-1.44 6.83 0.859 0.915q0.056-0.033 0.167-0.078z"></path>
</svg>
