<!-- Generated by IcoMoon.io -->
<svg version="1.1" xmlns="http://www.w3.org/2000/svg" width="20" height="20" viewBox="0 0 20 20">
<title>contao</title>
<path d="M1.54 1.429h2.199q-0.781 0.714-1.406 1.663-0.402 0.625-0.658 1.283t-0.335 1.401-0.095 1.339 0.117 1.473 0.234 1.406 0.313 1.523q0.045 0.212 0.067 0.313 0.569 2.656 0.904 3.672 0.636 1.908 1.696 3.069h-3.036q-0.536 0-0.915-0.379t-0.379-0.915v-14.554q0-0.536 0.379-0.915t0.915-0.379zM15.022 1.429h3.438q0.536 0 0.915 0.379t0.379 0.915v14.554q0 0.536-0.379 0.915t-0.915 0.379h-1.987q2.366-2.344 2.188-6.306l-5.234 1.127q-0.022 0.502-0.134 0.915t-0.346 0.804-0.664 0.664-1.044 0.407q-1.373 0.29-2.221-0.446-0.357-0.301-0.592-0.681t-0.575-1.44-0.72-2.879q-0.391-1.819-0.508-2.935t-0.061-1.551 0.257-0.859q0.223-0.458 0.698-0.815t1.144-0.502q0.502-0.134 0.932-0.073t0.748 0.19 0.603 0.391 0.48 0.536 0.385 0.631l5.223-1.116q-0.759-1.953-2.009-3.203z"></path>
</svg>
