<!-- Generated by IcoMoon.io -->
<svg version="1.1" xmlns="http://www.w3.org/2000/svg" width="20" height="20" viewBox="0 0 20 20">
<title>copyright</title>
<path d="M14.263 11.987v1.217q0 0.558-0.407 0.993t-1.049 0.675-1.317 0.363-1.311 0.123q-2.288 0-3.823-1.551t-1.535-3.862q0-2.266 1.518-3.783t3.783-1.518q0.379 0 0.843 0.050t1.038 0.201 1.032 0.379 0.77 0.631 0.313 0.904v1.217q0 0.179-0.179 0.179h-1.317q-0.179 0-0.179-0.179v-0.781q0-0.48-0.731-0.753t-1.535-0.273q-1.563 0-2.55 1.021t-0.988 2.651q0 1.685 1.021 2.785t2.606 1.099q0.759 0 1.54-0.268t0.781-0.737v-0.781q0-0.078 0.050-0.128t0.117-0.050h1.328q0.067 0 0.123 0.050t0.056 0.128zM10 2.857q-1.451 0-2.773 0.569t-2.277 1.523-1.523 2.277-0.569 2.773 0.569 2.773 1.523 2.277 2.277 1.523 2.773 0.569 2.773-0.569 2.277-1.523 1.523-2.277 0.569-2.773-0.569-2.773-1.523-2.277-2.277-1.523-2.773-0.569zM18.571 10q0 2.333-1.15 4.302t-3.119 3.119-4.302 1.15-4.302-1.15-3.119-3.119-1.15-4.302 1.15-4.302 3.119-3.119 4.302-1.15 4.302 1.15 3.119 3.119 1.15 4.302z"></path>
</svg>
