<!-- Generated by IcoMoon.io -->
<svg version="1.1" xmlns="http://www.w3.org/2000/svg" width="20" height="20" viewBox="0 0 20 20">
<title>copy</title>
<path d="M18.929 4.286q0.446 0 0.759 0.313t0.313 0.759v13.571q0 0.446-0.313 0.759t-0.759 0.313h-10.714q-0.446 0-0.759-0.313t-0.313-0.759v-3.214h-6.071q-0.446 0-0.759-0.313t-0.313-0.759v-7.5q0-0.446 0.223-0.982t0.536-0.848l4.554-4.554q0.313-0.313 0.848-0.536t0.982-0.223h4.643q0.446 0 0.759 0.313t0.313 0.759v3.661q0.759-0.446 1.429-0.446h4.643zM12.857 6.663l-3.337 3.337h3.337v-3.337zM5.714 2.377l-3.337 3.337h3.337v-3.337zM7.902 9.598l3.527-3.527v-4.643h-4.286v4.643q0 0.446-0.313 0.759t-0.759 0.313h-4.643v7.143h5.714v-2.857q0-0.446 0.223-0.982t0.536-0.848zM18.571 18.571v-12.857h-4.286v4.643q0 0.446-0.313 0.759t-0.759 0.313h-4.643v7.143h10z"></path>
</svg>
