<!-- Generated by IcoMoon.io -->
<svg version="1.1" xmlns="http://www.w3.org/2000/svg" width="20" height="20" viewBox="0 0 20 20">
<title>creative-commons</title>
<path d="M6.752 13.761q1.708 0 2.868-1.161 0.156-0.201 0.033-0.402l-0.502-0.915q-0.067-0.145-0.268-0.19-0.179-0.022-0.301 0.123l-0.045 0.033q-0.045 0.045-0.128 0.112t-0.195 0.151-0.262 0.162-0.318 0.145-0.374 0.106-0.419 0.039q-0.848 0-1.395-0.558t-0.547-1.417q0-0.848 0.536-1.401t1.362-0.552q0.413 0 0.798 0.156t0.564 0.313l0.179 0.156q0.123 0.123 0.29 0.112 0.179-0.022 0.268-0.156l0.592-0.871q0.145-0.223-0.022-0.435-0.033-0.045-0.123-0.134t-0.335-0.262-0.541-0.313-0.753-0.251-0.96-0.112q-1.652 0-2.746 1.077t-1.094 2.684q0 1.629 1.083 2.695t2.757 1.066zM13.783 13.761q1.708 0 2.868-1.161 0.156-0.201 0.045-0.402l-0.502-0.915q-0.089-0.156-0.279-0.19-0.179-0.022-0.301 0.123l-0.045 0.033q-0.045 0.045-0.128 0.112t-0.195 0.151-0.262 0.162-0.318 0.145-0.374 0.106-0.419 0.039q-0.848 0-1.395-0.558t-0.547-1.417q0-0.848 0.536-1.401t1.362-0.552q0.413 0 0.798 0.156t0.564 0.313l0.179 0.156q0.123 0.123 0.29 0.112 0.179-0.022 0.268-0.156l0.592-0.871q0.145-0.223-0.022-0.435-0.033-0.045-0.123-0.134t-0.335-0.262-0.541-0.313-0.753-0.251-0.96-0.112q-1.641 0-2.74 1.077t-1.099 2.684q0 1.629 1.083 2.695t2.757 1.066zM10 1.786q-1.674 0-3.192 0.653t-2.617 1.752-1.752 2.617-0.653 3.192 0.653 3.192 1.752 2.617 2.617 1.752 3.192 0.653 3.192-0.653 2.617-1.752 1.752-2.617 0.653-3.192-0.653-3.192-1.752-2.617-2.617-1.752-3.192-0.653zM10 0q2.031 0 3.884 0.792t3.192 2.132 2.132 3.192 0.792 3.884-0.792 3.884-2.132 3.192-3.192 2.132-3.884 0.792-3.884-0.792-3.192-2.132-2.132-3.192-0.792-3.884 0.792-3.884 2.132-3.192 3.192-2.132 3.884-0.792z"></path>
</svg>
