<!-- Generated by IcoMoon.io -->
<svg version="1.1" xmlns="http://www.w3.org/2000/svg" width="23" height="20" viewBox="0 0 23 20">
<title>credit-card</title>
<path d="M20.357 1.429q0.737 0 1.261 0.525t0.525 1.261v13.571q0 0.737-0.525 1.261t-1.261 0.525h-17.857q-0.737 0-1.261-0.525t-0.525-1.261v-13.571q0-0.737 0.525-1.261t1.261-0.525h17.857zM2.5 2.857q-0.145 0-0.251 0.106t-0.106 0.251v2.5h18.571v-2.5q0-0.145-0.106-0.251t-0.251-0.106h-17.857zM20.357 17.143q0.145 0 0.251-0.106t0.106-0.251v-6.786h-18.571v6.786q0 0.145 0.106 0.251t0.251 0.106h17.857zM3.571 15.714v-1.429h2.857v1.429h-2.857zM7.857 15.714v-1.429h4.286v1.429h-4.286z"></path>
</svg>
