<!-- Generated by IcoMoon.io -->
<svg version="1.1" xmlns="http://www.w3.org/2000/svg" width="20" height="20" viewBox="0 0 20 20">
<title>crop</title>
<path d="M6.931 14.286h6.641v-6.641zM6.429 13.783l6.641-6.641h-6.641v6.641zM19.286 14.643v2.143q0 0.156-0.1 0.257t-0.257 0.1h-2.5v2.5q0 0.156-0.1 0.257t-0.257 0.1h-2.143q-0.156 0-0.257-0.1t-0.1-0.257v-2.5h-9.643q-0.156 0-0.257-0.1t-0.1-0.257v-9.643h-2.5q-0.156 0-0.257-0.1t-0.1-0.257v-2.143q0-0.156 0.1-0.257t0.257-0.1h2.5v-2.5q0-0.156 0.1-0.257t0.257-0.1h2.143q0.156 0 0.257 0.1t0.1 0.257v2.5h9.498l2.746-2.757q0.112-0.1 0.257-0.1t0.257 0.1q0.1 0.112 0.1 0.257t-0.1 0.257l-2.757 2.746v9.498h2.5q0.156 0 0.257 0.1t0.1 0.257z"></path>
</svg>
