<!-- Generated by IcoMoon.io -->
<svg version="1.1" xmlns="http://www.w3.org/2000/svg" width="20" height="20" viewBox="0 0 20 20">
<title>crosshairs</title>
<path d="M14.788 11.429h-1.217q-0.29 0-0.502-0.212t-0.212-0.502v-1.429q0-0.29 0.212-0.502t0.502-0.212h1.217q-0.357-1.205-1.256-2.104t-2.104-1.256v1.217q0 0.29-0.212 0.502t-0.502 0.212h-1.429q-0.29 0-0.502-0.212t-0.212-0.502v-1.217q-1.205 0.357-2.104 1.256t-1.256 2.104h1.217q0.29 0 0.502 0.212t0.212 0.502v1.429q0 0.29-0.212 0.502t-0.502 0.212h-1.217q0.357 1.205 1.256 2.104t2.104 1.256v-1.217q0-0.29 0.212-0.502t0.502-0.212h1.429q0.29 0 0.502 0.212t0.212 0.502v1.217q1.205-0.357 2.104-1.256t1.256-2.104zM18.571 9.286v1.429q0 0.29-0.212 0.502t-0.502 0.212h-1.596q-0.413 1.797-1.724 3.108t-3.108 1.724v1.596q0 0.29-0.212 0.502t-0.502 0.212h-1.429q-0.29 0-0.502-0.212t-0.212-0.502v-1.596q-1.797-0.413-3.108-1.724t-1.724-3.108h-1.596q-0.29 0-0.502-0.212t-0.212-0.502v-1.429q0-0.29 0.212-0.502t0.502-0.212h1.596q0.413-1.797 1.724-3.108t3.108-1.724v-1.596q0-0.29 0.212-0.502t0.502-0.212h1.429q0.29 0 0.502 0.212t0.212 0.502v1.596q1.797 0.413 3.108 1.724t1.724 3.108h1.596q0.29 0 0.502 0.212t0.212 0.502z"></path>
</svg>
