<!-- Generated by IcoMoon.io -->
<svg version="1.1" xmlns="http://www.w3.org/2000/svg" width="26" height="20" viewBox="0 0 26 20">
<title>cubes</title>
<path d="M7.143 18.214l4.286-2.143v-3.504l-4.286 1.83v3.817zM6.429 13.147l4.509-1.931-4.509-1.931-4.509 1.931zM18.571 18.214l4.286-2.143v-3.504l-4.286 1.83v3.817zM17.857 13.147l4.509-1.931-4.509-1.931-4.509 1.931zM12.857 9.877l4.286-1.842v-2.969l-4.286 1.83v2.98zM12.143 5.647l4.922-2.109-4.922-2.109-4.922 2.109zM24.286 11.429v4.643q0 0.402-0.212 0.748t-0.58 0.525l-5 2.5q-0.279 0.156-0.636 0.156t-0.636-0.156l-5-2.5q-0.045-0.022-0.078-0.045-0.022 0.022-0.078 0.045l-5 2.5q-0.279 0.156-0.636 0.156t-0.636-0.156l-5-2.5q-0.368-0.179-0.58-0.525t-0.212-0.748v-4.643q0-0.424 0.24-0.781t0.631-0.536l4.844-2.076v-4.464q0-0.424 0.24-0.781t0.631-0.536l5-2.143q0.257-0.112 0.558-0.112t0.558 0.112l5 2.143q0.391 0.179 0.631 0.536t0.24 0.781v4.464l4.844 2.076q0.402 0.179 0.636 0.536t0.234 0.781z"></path>
</svg>
