<!-- Generated by IcoMoon.io -->
<svg version="1.1" xmlns="http://www.w3.org/2000/svg" width="20" height="20" viewBox="0 0 20 20">
<title>cube</title>
<path d="M10 18.181l7.143-3.895v-7.098l-7.143 2.6v8.393zM9.286 8.527l7.79-2.835-7.79-2.835-7.79 2.835zM18.571 5.714v8.571q0 0.391-0.201 0.725t-0.547 0.525l-7.857 4.286q-0.313 0.179-0.681 0.179t-0.681-0.179l-7.857-4.286q-0.346-0.19-0.547-0.525t-0.201-0.725v-8.571q0-0.446 0.257-0.815t0.681-0.525l7.857-2.857q0.246-0.089 0.491-0.089t0.491 0.089l7.857 2.857q0.424 0.156 0.681 0.525t0.257 0.815z"></path>
</svg>
