<!-- Generated by IcoMoon.io -->
<svg version="1.1" xmlns="http://www.w3.org/2000/svg" width="20" height="20" viewBox="0 0 20 20">
<title>cutlery</title>
<path d="M9.286 0.714v7.143q0 0.681-0.396 1.239t-1.032 0.781v8.694q0 0.58-0.424 1.004t-1.004 0.424h-1.429q-0.58 0-1.004-0.424t-0.424-1.004v-8.694q-0.636-0.223-1.032-0.781t-0.396-1.239v-7.143q0-0.29 0.212-0.502t0.502-0.212 0.502 0.212 0.212 0.502v4.643q0 0.29 0.212 0.502t0.502 0.212 0.502-0.212 0.212-0.502v-4.643q0-0.29 0.212-0.502t0.502-0.212 0.502 0.212 0.212 0.502v4.643q0 0.29 0.212 0.502t0.502 0.212 0.502-0.212 0.212-0.502v-4.643q0-0.29 0.212-0.502t0.502-0.212 0.502 0.212 0.212 0.502zM17.857 0.714v17.857q0 0.58-0.424 1.004t-1.004 0.424h-1.429q-0.58 0-1.004-0.424t-0.424-1.004v-5.714h-2.5q-0.145 0-0.251-0.106t-0.106-0.251v-8.929q0-1.473 1.049-2.522t2.522-1.049h2.857q0.29 0 0.502 0.212t0.212 0.502z"></path>
</svg>
