<!-- Generated by IcoMoon.io -->
<svg version="1.1" xmlns="http://www.w3.org/2000/svg" width="20" height="20" viewBox="0 0 20 20">
<title>database</title>
<path d="M10 8.571q2.645 0 4.944-0.48t3.627-1.417v1.897q0 0.77-1.15 1.429t-3.125 1.044-4.297 0.385-4.297-0.385-3.125-1.044-1.15-1.429v-1.897q1.328 0.938 3.627 1.417t4.944 0.48zM10 17.143q2.645 0 4.944-0.48t3.627-1.417v1.897q0 0.77-1.15 1.429t-3.125 1.044-4.297 0.385-4.297-0.385-3.125-1.044-1.15-1.429v-1.897q1.328 0.937 3.627 1.417t4.944 0.48zM10 12.857q2.645 0 4.944-0.48t3.627-1.417v1.897q0 0.77-1.15 1.429t-3.125 1.044-4.297 0.385-4.297-0.385-3.125-1.044-1.15-1.429v-1.897q1.328 0.938 3.627 1.417t4.944 0.48zM10 0q2.321 0 4.297 0.385t3.125 1.044 1.15 1.429v1.429q0 0.77-1.15 1.429t-3.125 1.044-4.297 0.385-4.297-0.385-3.125-1.044-1.15-1.429v-1.429q0-0.77 1.15-1.429t3.125-1.044 4.297-0.385z"></path>
</svg>
