<!-- Generated by IcoMoon.io -->
<svg version="1.1" xmlns="http://www.w3.org/2000/svg" width="20" height="20" viewBox="0 0 20 20">
<title>dedent</title>
<path d="M4.286 6.071v6.429q0 0.145-0.106 0.251t-0.251 0.106q-0.156 0-0.257-0.1l-3.214-3.214q-0.1-0.1-0.1-0.257t0.1-0.257l3.214-3.214q0.1-0.1 0.257-0.1 0.145 0 0.251 0.106t0.106 0.251zM20 14.643v2.143q0 0.145-0.106 0.251t-0.251 0.106h-19.286q-0.145 0-0.251-0.106t-0.106-0.251v-2.143q0-0.145 0.106-0.251t0.251-0.106h19.286q0.145 0 0.251 0.106t0.106 0.251zM20 10.357v2.143q0 0.145-0.106 0.251t-0.251 0.106h-12.143q-0.145 0-0.251-0.106t-0.106-0.251v-2.143q0-0.145 0.106-0.251t0.251-0.106h12.143q0.145 0 0.251 0.106t0.106 0.251zM20 6.071v2.143q0 0.145-0.106 0.251t-0.251 0.106h-12.143q-0.145 0-0.251-0.106t-0.106-0.251v-2.143q0-0.145 0.106-0.251t0.251-0.106h12.143q0.145 0 0.251 0.106t0.106 0.251zM20 1.786v2.143q0 0.145-0.106 0.251t-0.251 0.106h-19.286q-0.145 0-0.251-0.106t-0.106-0.251v-2.143q0-0.145 0.106-0.251t0.251-0.106h19.286q0.145 0 0.251 0.106t0.106 0.251z"></path>
</svg>
