<!-- Generated by IcoMoon.io -->
<svg version="1.1" xmlns="http://www.w3.org/2000/svg" width="23" height="20" viewBox="0 0 23 20">
<title>desktop</title>
<path d="M20.714 11.071v-9.286q0-0.145-0.106-0.251t-0.251-0.106h-17.857q-0.145 0-0.251 0.106t-0.106 0.251v9.286q0 0.145 0.106 0.251t0.251 0.106h17.857q0.145 0 0.251-0.106t0.106-0.251zM22.143 1.786v12.143q0 0.737-0.525 1.261t-1.261 0.525h-6.071q0 0.413 0.179 0.865t0.357 0.792 0.179 0.485q0 0.29-0.212 0.502t-0.502 0.212h-5.714q-0.29 0-0.502-0.212t-0.212-0.502q0-0.156 0.179-0.491t0.357-0.781 0.179-0.871h-6.071q-0.737 0-1.261-0.525t-0.525-1.261v-12.143q0-0.737 0.525-1.261t1.261-0.525h17.857q0.737 0 1.261 0.525t0.525 1.261z"></path>
</svg>
