<!-- Generated by IcoMoon.io -->
<svg version="1.1" xmlns="http://www.w3.org/2000/svg" width="23" height="20" viewBox="0 0 23 20">
<title>diamond</title>
<path d="M2.366 8.571l6.953 7.422-3.348-7.422h-3.605zM11.429 17.188l3.895-8.616h-7.79zM6.004 7.143l2.277-4.286h-2.924l-3.214 4.286h3.862zM13.538 15.993l6.953-7.422h-3.605zM7.623 7.143h7.612l-2.277-4.286h-3.058zM16.853 7.143h3.862l-3.214-4.286h-2.924zM18.426 1.719l4.286 5.714q0.156 0.201 0.145 0.463t-0.19 0.452l-10.714 11.429q-0.201 0.223-0.525 0.223t-0.525-0.223l-10.714-11.429q-0.179-0.19-0.19-0.452t0.145-0.463l4.286-5.714q0.201-0.29 0.569-0.29h12.857q0.368 0 0.569 0.29z"></path>
</svg>
