<!-- Generated by IcoMoon.io -->
<svg version="1.1" xmlns="http://www.w3.org/2000/svg" width="23" height="20" viewBox="0 0 23 20">
<title>digg</title>
<path d="M3.661 3.147h2.277v10.971h-5.938v-7.779h3.661v-3.192zM3.661 12.288v-4.118h-1.373v4.118h1.373zM6.853 6.339v7.779h2.288v-7.779h-2.288zM6.853 3.147v2.277h2.288v-2.277h-2.288zM10.056 6.339h5.949v10.513h-5.949v-1.819h3.661v-0.915h-3.661v-7.779zM13.717 12.288v-4.118h-1.373v4.118h1.373zM16.92 6.339h5.938v10.513h-5.938v-1.819h3.65v-0.915h-3.65v-7.779zM20.569 12.288v-4.118h-1.373v4.118h1.373z"></path>
</svg>
