<!-- Generated by IcoMoon.io -->
<svg version="1.1" xmlns="http://www.w3.org/2000/svg" width="20" height="20" viewBox="0 0 20 20">
<title>dot-circle-o</title>
<path d="M12.857 10q0 1.183-0.837 2.020t-2.020 0.837-2.020-0.837-0.837-2.020 0.837-2.020 2.020-0.837 2.020 0.837 0.837 2.020zM10 3.929q-1.652 0-3.047 0.815t-2.21 2.21-0.815 3.047 0.815 3.047 2.21 2.21 3.047 0.815 3.047-0.815 2.21-2.21 0.815-3.047-0.815-3.047-2.21-2.21-3.047-0.815zM18.571 10q0 2.333-1.15 4.302t-3.119 3.119-4.302 1.15-4.302-1.15-3.119-3.119-1.15-4.302 1.15-4.302 3.119-3.119 4.302-1.15 4.302 1.15 3.119 3.119 1.15 4.302z"></path>
</svg>
