<!-- Generated by IcoMoon.io -->
<svg version="1.1" xmlns="http://www.w3.org/2000/svg" width="20" height="20" viewBox="0 0 20 20">
<title>download</title>
<path d="M15 15q0-0.29-0.212-0.502t-0.502-0.212-0.502 0.212-0.212 0.502 0.212 0.502 0.502 0.212 0.502-0.212 0.212-0.502zM17.857 15q0-0.29-0.212-0.502t-0.502-0.212-0.502 0.212-0.212 0.502 0.212 0.502 0.502 0.212 0.502-0.212 0.212-0.502zM19.286 12.5v3.571q0 0.446-0.313 0.759t-0.759 0.313h-16.429q-0.446 0-0.759-0.313t-0.313-0.759v-3.571q0-0.446 0.313-0.759t0.759-0.313h5.19l1.507 1.518q0.647 0.625 1.518 0.625t1.518-0.625l1.518-1.518h5.179q0.446 0 0.759 0.313t0.313 0.759zM15.658 6.15q0.19 0.458-0.156 0.781l-5 5q-0.201 0.212-0.502 0.212t-0.502-0.212l-5-5q-0.346-0.324-0.156-0.781 0.19-0.435 0.658-0.435h2.857v-5q0-0.29 0.212-0.502t0.502-0.212h2.857q0.29 0 0.502 0.212t0.212 0.502v5h2.857q0.469 0 0.658 0.435z"></path>
</svg>
