<!-- Generated by IcoMoon.io -->
<svg version="1.1" xmlns="http://www.w3.org/2000/svg" width="20" height="20" viewBox="0 0 20 20">
<title>dribbble</title>
<path d="M12.857 16.741q-0.469-2.69-1.563-5.558h-0.022l-0.022 0.011q-0.179 0.067-0.48 0.184t-1.127 0.547-1.529 0.915-1.462 1.278-1.15 1.652l-0.167-0.123q2.054 1.674 4.665 1.674 1.473 0 2.857-0.58zM10.792 9.967q-0.234-0.547-0.592-1.239-3.471 1.038-7.511 1.038-0.011 0.078-0.011 0.234 0 1.384 0.491 2.64t1.384 2.249q0.558-0.993 1.378-1.858t1.59-1.39 1.456-0.904 1.11-0.536l0.413-0.145q0.045-0.011 0.145-0.039t0.145-0.050zM9.598 7.6q-1.339-2.377-2.723-4.219-1.54 0.725-2.612 2.076t-1.429 3.036q3.371 0 6.763-0.893zM17.232 11.161q-2.344-0.67-4.565-0.324 0.971 2.667 1.429 5.234 1.239-0.837 2.065-2.115t1.071-2.796zM8.248 2.891q-0.011 0-0.022 0.011 0.011-0.011 0.022-0.011zM14.833 4.509q-2.065-1.83-4.833-1.83-0.848 0-1.73 0.212 1.462 1.897 2.746 4.263 0.77-0.29 1.451-0.675t1.077-0.686 0.731-0.636 0.419-0.452zM17.321 9.922q-0.033-2.589-1.663-4.576l-0.011 0.011q-0.1 0.134-0.212 0.273t-0.485 0.497-0.792 0.675-1.116 0.725-1.468 0.72q0.279 0.592 0.491 1.060 0.022 0.056 0.073 0.19t0.084 0.19q0.402-0.056 0.831-0.078t0.82-0.022 0.77 0.017 0.714 0.045 0.631 0.061 0.536 0.073 0.407 0.067 0.279 0.050zM18.571 10q0 2.333-1.15 4.302t-3.119 3.119-4.302 1.15-4.302-1.15-3.119-3.119-1.15-4.302 1.15-4.302 3.119-3.119 4.302-1.15 4.302 1.15 3.119 3.119 1.15 4.302z"></path>
</svg>
