<!-- Generated by IcoMoon.io -->
<svg version="1.1" xmlns="http://www.w3.org/2000/svg" width="20" height="20" viewBox="0 0 20 20">
<title>dropbox</title>
<path d="M4.487 7.891l5.513 3.404-3.817 3.181-5.469-3.56zM15.491 14.085v1.205l-5.469 3.27v0.011l-0.011-0.011-0.011 0.011v-0.011l-5.458-3.27v-1.205l1.641 1.071 3.817-3.17v-0.022l0.011 0.011 0.011-0.011v0.022l3.828 3.17zM6.183 1.317l3.817 3.181-5.513 3.393-3.772-3.013zM15.513 7.891l3.772 3.025-5.458 3.56-3.828-3.181zM13.828 1.317l5.458 3.56-3.772 3.013-5.513-3.393z"></path>
</svg>
