<!-- Generated by IcoMoon.io -->
<svg version="1.1" xmlns="http://www.w3.org/2000/svg" width="20" height="20" viewBox="0 0 20 20">
<title>drupal</title>
<path d="M14.453 17.701q-0.056-0.212-0.268-0.056-0.335 0.246-0.971 0.435t-1.462 0.19q-1.44 0-2.154-0.547-0.056-0.045-0.145-0.045-0.123 0-0.29 0.134-0.078 0.067-0.084 0.179t0.084 0.223q0.379 0.357 0.977 0.513t1.144 0.14 1.105-0.050q0.458-0.045 0.943-0.229t0.725-0.335 0.318-0.229q0.134-0.134 0.078-0.324zM14.018 16.417q-0.212-0.525-0.435-0.681-0.257-0.167-0.848-0.167-0.525 0-0.792 0.112-0.324 0.134-0.871 0.625-0.29 0.268-0.134 0.491 0.1 0.089 0.195 0.050t0.352-0.262q0.033-0.022 0.117-0.095t0.117-0.095 0.112-0.078 0.128-0.078 0.14-0.056 0.167-0.050 0.184-0.028 0.229-0.011q0.301 0 0.497 0.084t0.257 0.162 0.151 0.246q0.112 0.19 0.14 0.223t0.14-0.011q0.257-0.134 0.156-0.379zM17.98 13.281q0-0.246-0.056-0.497t-0.184-0.502-0.379-0.407-0.586-0.156q-0.368 0-1.083 0.463t-1.44 0.932-1.127 0.469q-0.301 0.011-0.709-0.212t-0.848-0.547-0.932-0.647-1.116-0.547-1.239-0.212q-1.283 0.011-2.199 0.876t-0.938 1.992q-0.022 1.25 0.826 1.83 0.324 0.223 0.698 0.318t1.155 0.095q0.636 0 1.473-0.363t1.496-0.792 1.339-0.787 1.038-0.346q0.29 0.011 0.725 0.352t0.798 0.748 0.759 0.753 0.619 0.357q0.391 0.033 0.653-0.156t0.619-0.703q0.313-0.458 0.474-1.127t0.162-1.183zM18.571 11.496q0 1.83-0.692 3.398t-1.853 2.634-2.706 1.669-3.242 0.603-3.27-0.642-2.762-1.752-1.903-2.695-0.714-3.371q0-0.993 0.218-1.925t0.547-1.624 0.787-1.323 0.876-1.049 0.876-0.776 0.72-0.519 0.474-0.273q0.156-0.089 0.569-0.296t0.608-0.318 0.536-0.335 0.675-0.491q0.402-0.313 0.647-0.809t0.335-1.401q1.44 1.73 2.076 2.154 0.491 0.324 1.451 0.759t1.44 0.737q0.234 0.145 0.435 0.279t0.675 0.519 0.848 0.787 0.837 1.060 0.77 1.362 0.525 1.657 0.218 1.981z"></path>
</svg>
