<!-- Generated by IcoMoon.io -->
<svg version="1.1" xmlns="http://www.w3.org/2000/svg" width="20" height="20" viewBox="0 0 20 20">
<title>edge</title>
<path d="M0.77 8.873h0.011q0.179-1.406 0.653-2.695t1.283-2.422 1.869-1.964 2.494-1.311 3.086-0.48q2.578 0 4.621 1.177t3.281 3.387q1.161 2.087 1.161 4.933v2.098h-12.556q0.011 1.239 0.597 2.148t1.523 1.367 2.115 0.636 2.377 0.033 2.321-0.519 1.936-0.943v4.208q-1.027 0.614-2.561 1.027t-3.488 0.424-3.527-0.592q-2.109-0.815-3.477-2.779t-1.39-4.152q-0.033-2.701 1.239-4.598t3.627-2.991q-0.536 0.67-0.871 1.401t-0.513 1.78h7.087q0.089-0.859-0.089-1.563t-0.525-1.133-0.787-0.742-0.898-0.458-0.837-0.229-0.625-0.095l-0.246-0.011q-1.507 0.056-2.896 0.497t-2.494 1.166-1.964 1.568-1.54 1.825z"></path>
</svg>
