<!-- Generated by IcoMoon.io -->
<svg version="1.1" xmlns="http://www.w3.org/2000/svg" width="20" height="20" viewBox="0 0 20 20">
<title>edit</title>
<path d="M9.911 13.214l1.295-1.295-1.696-1.696-1.295 1.295v0.625h1.071v1.071h0.625zM14.821 5.179q-0.179-0.179-0.368 0.011l-3.906 3.906q-0.19 0.19-0.011 0.368t0.368-0.011l3.906-3.906q0.19-0.19 0.011-0.368zM15.714 11.808v2.121q0 1.328-0.943 2.271t-2.271 0.943h-9.286q-1.328 0-2.271-0.943t-0.943-2.271v-9.286q0-1.328 0.943-2.271t2.271-0.943h9.286q0.703 0 1.306 0.279 0.167 0.078 0.201 0.257 0.033 0.19-0.1 0.324l-0.547 0.547q-0.156 0.156-0.357 0.089-0.257-0.067-0.502-0.067h-9.286q-0.737 0-1.261 0.525t-0.525 1.261v9.286q0 0.737 0.525 1.261t1.261 0.525h9.286q0.737 0 1.261-0.525t0.525-1.261v-1.406q0-0.145 0.1-0.246l0.714-0.714q0.167-0.167 0.391-0.078t0.223 0.324zM14.643 3.571l3.214 3.214-7.5 7.5h-3.214v-3.214zM19.598 5.045l-1.027 1.027-3.214-3.214 1.027-1.027q0.313-0.313 0.759-0.313t0.759 0.313l1.696 1.696q0.313 0.313 0.313 0.759t-0.313 0.759z"></path>
</svg>
