<!-- Generated by IcoMoon.io -->
<svg version="1.1" xmlns="http://www.w3.org/2000/svg" width="20" height="20" viewBox="0 0 20 20">
<title>eercast</title>
<path d="M14.967 8.75q0.324-0.491-0.073-1.445t-1.356-1.59q-0.647-0.435-1.401-0.597t-1.317-0.050-0.765 0.413q-0.134 0.257-0.050 0.313t0.474 0.112q0.257 0.033 0.43 0.056t0.497 0.106 0.625 0.195q0.402 0.145 0.753 0.352t0.592 0.413 0.446 0.43 0.34 0.424 0.246 0.385 0.184 0.318 0.134 0.206 0.117 0.067 0.123-0.106zM19.018 15.156q-0.58 1.417-1.657 2.455t-2.394 1.579-2.824 0.675-2.969-0.151-2.801-1.016-2.344-1.802-1.579-2.628-0.519-3.387q0.011-0.458 0.095-0.943t0.14-0.714 0.268-0.898 0.257-0.815q-0.569 2.321 0.011 4.431t1.931 3.549 3.248 2.299 3.862 0.926 3.895-0.831 3.225-2.729q0.223-0.301 0.201-0.156 0 0.045-0.045 0.156zM16.35 10.145q0 1.161-0.452 2.221t-1.211 1.83-1.808 1.222-2.21 0.452-2.21-0.452-1.808-1.222-1.211-1.83-0.452-2.221 0.452-2.221 1.211-1.83 1.808-1.222 2.21-0.452 2.21 0.452 1.808 1.222 1.211 1.83 0.452 2.221zM19.554 6.931q-0.725-1.641-2.015-2.801t-2.824-1.713-3.259-0.597-3.359 0.407-3.075 1.44-2.455 2.36-1.462 3.315-0.112 4.163q-0.547-1.797-0.575-3.477t0.396-3.041 1.217-2.533 1.847-2.015 2.31-1.406 2.589-0.792 2.706-0.1 2.634 0.603 2.411 1.39 1.987 2.199q0.368 0.558 0.692 1.35t0.346 1.25zM18.862 10.748q0.134-2.723-1.523-4.643t-4.425-2.679q-0.089 0-0.112-0.056t0.268-0.089q1.395 0.045 2.567 0.558t1.931 1.339 1.295 1.881 0.653 2.221-0.011 2.321-0.686 2.204-1.367 1.864-2.065 1.311-2.773 0.519q1.205-0.335 2.249-0.893t1.942-1.373 1.445-1.97 0.614-2.517z"></path>
</svg>
