<!-- Generated by IcoMoon.io -->
<svg version="1.1" xmlns="http://www.w3.org/2000/svg" width="20" height="20" viewBox="0 0 20 20">
<title>ellipsis-h</title>
<path d="M6.429 8.214v2.143q0 0.446-0.313 0.759t-0.759 0.313h-2.143q-0.446 0-0.759-0.313t-0.313-0.759v-2.143q0-0.446 0.313-0.759t0.759-0.313h2.143q0.446 0 0.759 0.313t0.313 0.759zM12.143 8.214v2.143q0 0.446-0.313 0.759t-0.759 0.313h-2.143q-0.446 0-0.759-0.313t-0.313-0.759v-2.143q0-0.446 0.313-0.759t0.759-0.313h2.143q0.446 0 0.759 0.313t0.313 0.759zM17.857 8.214v2.143q0 0.446-0.313 0.759t-0.759 0.313h-2.143q-0.446 0-0.759-0.313t-0.313-0.759v-2.143q0-0.446 0.313-0.759t0.759-0.313h2.143q0.446 0 0.759 0.313t0.313 0.759z"></path>
</svg>
