<!-- Generated by IcoMoon.io -->
<svg version="1.1" xmlns="http://www.w3.org/2000/svg" width="20" height="20" viewBox="0 0 20 20">
<title>empire</title>
<path d="M9.754 18.281v0.737q-2.321-0.067-4.297-1.222t-3.158-3.075l0.647-0.379q0.324 0.547 0.815 1.105l0.725-0.636q1.652 1.875 4.107 2.366l-0.19 0.96q0.725 0.134 1.35 0.145zM3.080 12.366l-0.926 0.313q0.246 0.67 0.547 1.25l-0.636 0.368q-1.094-2.009-1.094-4.297t1.094-4.297l0.636 0.368q-0.335 0.625-0.547 1.25l0.915 0.313q-0.391 1.116-0.391 2.366 0 1.217 0.402 2.366zM17.054 14.342l0.647 0.379q-1.183 1.92-3.158 3.075t-4.297 1.222v-0.737q0.625-0.011 1.35-0.145l-0.19-0.96q2.455-0.491 4.107-2.366l0.725 0.636q0.491-0.558 0.815-1.105zM15.368 8.158l-2.6 0.893q0.156 0.469 0.156 0.949t-0.156 0.949l2.589 0.893q-0.346 1.027-1.094 1.886l-2.065-1.808q-0.636 0.748-1.641 0.949l0.536 2.69q-0.58 0.112-1.094 0.112t-1.094-0.112l0.536-2.69q-1.004-0.201-1.641-0.949l-2.065 1.808q-0.748-0.859-1.094-1.886l2.589-0.893q-0.156-0.469-0.156-0.949t0.156-0.949l-2.6-0.893q0.368-1.038 1.105-1.886l2.065 1.808q0.658-0.759 1.641-0.96l-0.536-2.679q0.491-0.112 1.094-0.112t1.094 0.112l-0.536 2.679q0.982 0.201 1.641 0.96l2.065-1.808q0.737 0.848 1.105 1.886zM9.754 0.982v0.737q-0.725 0.022-1.35 0.145l0.19 0.96q-2.455 0.469-4.107 2.355l-0.725-0.625q-0.424 0.469-0.815 1.094l-0.636-0.368q1.183-1.92 3.147-3.075t4.297-1.222zM19.029 10q0 2.288-1.094 4.297l-0.636-0.368q0.301-0.58 0.547-1.25l-0.926-0.313q0.402-1.15 0.402-2.366 0-1.25-0.391-2.366l0.915-0.313q-0.212-0.625-0.547-1.25l0.636-0.368q1.094 2.009 1.094 4.297zM17.69 5.279l-0.636 0.368q-0.391-0.625-0.815-1.094l-0.725 0.625q-1.652-1.886-4.107-2.355l0.19-0.96q-0.625-0.123-1.35-0.145v-0.737q2.333 0.067 4.297 1.222t3.147 3.075zM19.509 10q0-1.931-0.753-3.694t-2.026-3.036-3.036-2.026-3.694-0.753-3.694 0.753-3.036 2.026-2.026 3.036-0.753 3.694 0.753 3.694 2.026 3.036 3.036 2.026 3.694 0.753 3.694-0.753 3.036-2.026 2.026-3.036 0.753-3.694zM20 10q0 2.031-0.792 3.884t-2.132 3.192-3.192 2.132-3.884 0.792-3.884-0.792-3.192-2.132-2.132-3.192-0.792-3.884 0.792-3.884 2.132-3.192 3.192-2.132 3.884-0.792 3.884 0.792 3.192 2.132 2.132 3.192 0.792 3.884z"></path>
</svg>
