<!-- Generated by IcoMoon.io -->
<svg version="1.1" xmlns="http://www.w3.org/2000/svg" width="20" height="20" viewBox="0 0 20 20">
<title>envelope-open</title>
<path d="M20 7.299v10.915q0 0.737-0.525 1.261t-1.261 0.525h-16.429q-0.737 0-1.261-0.525t-0.525-1.261v-10.915q0-0.167 0.123-0.268 0.089-0.078 0.435-0.385t0.463-0.402 0.508-0.419 0.781-0.619 1.071-0.815 1.602-1.194 2.148-1.568q0.056-0.045 0.586-0.446t0.798-0.586 0.714-0.391 0.77-0.206 0.77 0.206 0.725 0.396 0.792 0.58 0.58 0.446q1.228 0.893 2.148 1.568t1.602 1.194 1.071 0.815 0.781 0.619 0.508 0.419 0.463 0.402 0.435 0.385q0.123 0.1 0.123 0.268zM13.705 13.828q2.935-2.132 3.85-2.813 0.123-0.089 0.14-0.229t-0.073-0.262l-0.424-0.58q-0.089-0.123-0.234-0.14t-0.268 0.073q-2.578 1.886-3.828 2.79-0.056 0.033-0.58 0.435t-0.798 0.586-0.72 0.391-0.77 0.206-0.77-0.206-0.72-0.391-0.798-0.586-0.58-0.435q-2.076-1.496-3.828-2.79-0.123-0.089-0.268-0.073t-0.234 0.14l-0.424 0.58q-0.089 0.123-0.073 0.262t0.14 0.229q0.915 0.681 3.85 2.813 0.112 0.089 0.558 0.424t0.725 0.525 0.714 0.441 0.865 0.374 0.843 0.123 0.843-0.123 0.882-0.385 0.72-0.441 0.725-0.53 0.536-0.407z"></path>
</svg>
