<!-- Generated by IcoMoon.io -->
<svg version="1.1" xmlns="http://www.w3.org/2000/svg" width="20" height="20" viewBox="0 0 20 20">
<title>envelope-open-o</title>
<path d="M16.451 10.19l0.435 0.569q0.089 0.123 0.073 0.262t-0.128 0.229q-0.48 0.379-1.412 1.099t-1.635 1.261-0.748 0.575q-0.435 0.357-0.67 0.536t-0.675 0.458-0.854 0.407-0.826 0.128h-0.022q-0.413 0-0.826-0.128t-0.848-0.407-0.681-0.463-0.67-0.53q-0.056-0.045-0.725-0.564t-1.602-1.239-1.367-1.055q-0.123-0.089-0.14-0.229t0.073-0.262l0.413-0.58q0.089-0.123 0.24-0.145t0.273 0.078q1.049 0.815 3.415 2.634 0.056 0.045 0.485 0.391t0.675 0.519 0.631 0.363 0.653 0.19h0.022q0.268 0 0.653-0.19t0.631-0.363 0.675-0.519 0.485-0.391q2.879-2.21 3.493-2.701 0.123-0.089 0.268-0.073t0.234 0.14zM18.571 18.214v-10.357q-1.004-0.926-1.775-1.551-1.016-0.826-4.342-3.393-0.033-0.022-0.48-0.391t-0.681-0.536-0.625-0.363-0.658-0.195h-0.022q-0.268 0-0.658 0.195t-0.625 0.363-0.681 0.536-0.48 0.391q-2.4 1.853-3.521 2.74t-1.445 1.161-0.915 0.831q-0.156 0.134-0.234 0.212v10.357q0 0.145 0.106 0.251t0.251 0.106h16.429q0.145 0 0.251-0.106t0.106-0.251zM20 7.857v10.357q0 0.737-0.525 1.261t-1.261 0.525h-16.429q-0.737 0-1.261-0.525t-0.525-1.261v-10.357q0-0.625 0.458-1.049 1.373-1.272 3.906-3.242t2.6-2.026q0.402-0.335 0.658-0.53t0.686-0.469 0.848-0.407 0.831-0.134h0.022q0.413 0 0.831 0.134t0.848 0.407 0.686 0.469 0.658 0.53q0.48 0.402 1.741 1.362t2.522 1.975 2.243 1.931q0.458 0.424 0.458 1.049z"></path>
</svg>
