<!-- Generated by IcoMoon.io -->
<svg version="1.1" xmlns="http://www.w3.org/2000/svg" width="20" height="20" viewBox="0 0 20 20">
<title>envelope-square</title>
<path d="M15.357 1.429q1.328 0 2.271 0.943t0.943 2.271v10.714q0 1.328-0.943 2.271t-2.271 0.943h-10.714q-1.328 0-2.271-0.943t-0.943-2.271v-10.714q0-1.328 0.943-2.271t2.271-0.943h10.714zM15.714 13.214v-4.866q-0.346 0.391-0.714 0.614-0.379 0.246-1.479 0.949t-1.691 1.105q-1.094 0.77-1.83 0.77t-1.83-0.77q-0.525-0.357-1.585-1.032t-1.585-1.032q-0.134-0.089-0.368-0.301t-0.346-0.301v4.866q0 0.446 0.313 0.759t0.759 0.313h9.286q0.446 0 0.759-0.313t0.313-0.759zM15.714 6.819q0-0.458-0.307-0.781t-0.765-0.324h-9.286q-0.446 0-0.759 0.313t-0.313 0.759q0 0.413 0.34 0.854t0.753 0.72q0.525 0.357 1.535 0.993t1.445 0.926q0.033 0.022 0.19 0.128t0.234 0.156 0.234 0.145 0.262 0.145 0.24 0.106 0.251 0.084 0.229 0.028 0.229-0.028 0.251-0.084 0.24-0.106 0.262-0.145 0.234-0.145 0.234-0.156 0.19-0.128l2.98-1.942q0.391-0.257 0.742-0.698t0.352-0.82z"></path>
</svg>
