<!-- Generated by IcoMoon.io -->
<svg version="1.1" xmlns="http://www.w3.org/2000/svg" width="20" height="20" viewBox="0 0 20 20">
<title>envelope</title>
<path d="M20 7.924v8.862q0 0.737-0.525 1.261t-1.261 0.525h-16.429q-0.737 0-1.261-0.525t-0.525-1.261v-8.862q0.491 0.547 1.127 0.971 4.040 2.746 5.547 3.85 0.636 0.469 1.032 0.731t1.055 0.536 1.228 0.273h0.022q0.569 0 1.228-0.273t1.055-0.536 1.032-0.731q1.897-1.373 5.558-3.85 0.636-0.435 1.116-0.971zM20 4.643q0 0.882-0.547 1.685t-1.362 1.373q-4.196 2.913-5.223 3.627-0.112 0.078-0.474 0.34t-0.603 0.424-0.58 0.363-0.642 0.301-0.558 0.1h-0.022q-0.257 0-0.558-0.1t-0.642-0.301-0.58-0.363-0.603-0.424-0.474-0.34q-1.016-0.714-2.924-2.037t-2.288-1.59q-0.692-0.469-1.306-1.289t-0.614-1.523q0-0.871 0.463-1.451t1.323-0.58h16.429q0.725 0 1.256 0.525t0.53 1.261z"></path>
</svg>
