<!-- Generated by IcoMoon.io -->
<svg version="1.1" xmlns="http://www.w3.org/2000/svg" width="20" height="20" viewBox="0 0 20 20">
<title>envira</title>
<path d="M10 9.107q-1.161-2.187-1.786-3.103-1.551-2.254-3.873-3.549-0.379-0.212-0.781-0.402-0.993-0.446-1.049-0.357t0.379 0.424l0.435 0.346q0.692 0.48 1.256 1.044t1.055 1.3 0.787 1.261 0.787 1.462q0.1 0.19 0.145 0.279 0.491 0.937 0.938 1.708t1.094 1.719 1.289 1.674 1.462 1.378 1.657 1.010q1.708 0.737 1.719 0.67 0.011-0.033-0.547-0.413-0.592-0.402-0.904-0.636-0.859-0.647-1.998-2.355t-2.065-3.46zM6.127 15.167q-0.848-0.67-1.479-1.395t-1.094-1.602-0.792-1.724-0.653-2.076-0.58-2.333-0.675-2.813-0.854-3.225q3.047 0 5.552 0.402t4.23 1.027 3.025 1.613 2.070 1.925 1.228 2.215 0.625 2.227 0.14 2.215-0.106 1.931-0.223 1.602-0.145 1.194l3.605 3.65h-1.161l-3.136-3.181q-0.246 0.022-1.021 0.156t-1.356 0.212-1.54 0.067-1.791-0.19-1.869-0.658-1.998-1.239z"></path>
</svg>
