<!-- Generated by IcoMoon.io -->
<svg version="1.1" xmlns="http://www.w3.org/2000/svg" width="20" height="20" viewBox="0 0 20 20">
<title>etsy</title>
<path d="M7.21 2.042v7.31q1.15 0.011 2.137-0.017t1.401-0.061l0.413-0.033q0.759-0.022 1.010-0.273t0.441-1.055l0.368-1.585h1.15l-0.156 3.594 0.078 3.56h-1.15l-0.324-1.417q-0.167-0.759-0.502-1.038t-0.938-0.29q-0.971-0.089-3.929-0.089v6.205q0 0.871 0.485 1.289t1.49 0.419h3.984q0.391 0 0.664-0.022t0.614-0.084 0.603-0.201 0.541-0.357 0.513-0.564 0.435-0.815l1.038-2.411h0.993q-0.067 0.413-0.352 2.813t-0.34 3.080q-1.629-0.056-2.941-0.089t-1.814-0.045h-7.5l-4.196 0.134v-1.138l1.417-0.279q0.748-0.145 1.021-0.413t0.285-0.882l0.089-7.176q0.033-4.487-0.089-7.199-0.022-0.681-0.285-0.938t-1.021-0.402l-1.417-0.268v-1.138l4.196 0.134h7.835q1.551 0 4.174-0.301-0.067 0.759-0.156 2.171t-0.134 2.45l-0.056 1.027h-1.038l-0.357-1.384q-0.346-1.35-0.826-2.003t-1.261-0.653h-6.116q-0.313 0-0.396 0.095t-0.084 0.34z"></path>
</svg>
