<!-- Generated by IcoMoon.io -->
<svg version="1.1" xmlns="http://www.w3.org/2000/svg" width="20" height="20" viewBox="0 0 20 20">
<title>eur</title>
<path d="M15.179 14.587l0.391 1.775q0.033 0.134-0.033 0.251t-0.19 0.162l-0.056 0.011q-0.045 0.022-0.117 0.039t-0.179 0.050-0.24 0.061-0.285 0.056-0.335 0.056-0.374 0.050-0.407 0.033-0.43 0.011q-2.612 0-4.565-1.456t-2.656-3.923h-1.060q-0.145 0-0.251-0.106t-0.106-0.251v-1.261q0-0.145 0.106-0.251t0.251-0.106h0.737q-0.022-0.636 0.011-1.172h-0.748q-0.156 0-0.257-0.1t-0.1-0.257v-1.272q0-0.156 0.1-0.257t0.257-0.1h1.094q0.748-2.344 2.718-3.772t4.47-1.429q1.138 0 2.165 0.257 0.123 0.033 0.223 0.167 0.067 0.123 0.033 0.268l-0.48 1.775q-0.033 0.145-0.156 0.218t-0.268 0.028l-0.045-0.011q-0.045-0.011-0.128-0.028l-0.195-0.039-0.251-0.039-0.29-0.033-0.324-0.028-0.329-0.011q-1.406 0-2.522 0.714t-1.674 1.964h5.223q0.179 0 0.279 0.134 0.112 0.134 0.078 0.29l-0.268 1.272q-0.056 0.29-0.357 0.29h-5.446q-0.033 0.413 0 1.172h5.123q0.167 0 0.279 0.134 0.1 0.134 0.067 0.301l-0.268 1.25q-0.022 0.123-0.123 0.206t-0.223 0.084h-4.319q0.536 1.306 1.669 2.070t2.55 0.765q0.201 0 0.402-0.017t0.374-0.039 0.329-0.050 0.273-0.056 0.206-0.050l0.134-0.033 0.056-0.022q0.145-0.056 0.29 0.022 0.134 0.078 0.167 0.234z"></path>
</svg>
