<!-- Generated by IcoMoon.io -->
<svg version="1.1" xmlns="http://www.w3.org/2000/svg" width="20" height="20" viewBox="0 0 20 20">
<title>exchange</title>
<path d="M20 13.214v2.143q0 0.145-0.106 0.251t-0.251 0.106h-15.357v2.143q0 0.145-0.106 0.251t-0.251 0.106q-0.134 0-0.268-0.112l-3.56-3.571q-0.1-0.1-0.1-0.246 0-0.156 0.1-0.257l3.571-3.571q0.1-0.1 0.257-0.1 0.145 0 0.251 0.106t0.106 0.251v2.143h15.357q0.145 0 0.251 0.106t0.106 0.251zM20 7.143q0 0.156-0.1 0.257l-3.571 3.571q-0.1 0.1-0.257 0.1-0.145 0-0.251-0.106t-0.106-0.251v-2.143h-15.357q-0.145 0-0.251-0.106t-0.106-0.251v-2.143q0-0.145 0.106-0.251t0.251-0.106h15.357v-2.143q0-0.156 0.1-0.257t0.257-0.1q0.134 0 0.268 0.112l3.56 3.56q0.1 0.1 0.1 0.257z"></path>
</svg>
