<!-- Generated by IcoMoon.io -->
<svg version="1.1" xmlns="http://www.w3.org/2000/svg" width="20" height="20" viewBox="0 0 20 20">
<title>exclamation-circle</title>
<path d="M10 1.429q2.333 0 4.302 1.15t3.119 3.119 1.15 4.302-1.15 4.302-3.119 3.119-4.302 1.15-4.302-1.15-3.119-3.119-1.15-4.302 1.15-4.302 3.119-3.119 4.302-1.15zM11.429 15.346v-2.121q0-0.156-0.1-0.262t-0.246-0.106h-2.143q-0.145 0-0.257 0.112t-0.112 0.257v2.121q0 0.145 0.112 0.257t0.257 0.112h2.143q0.145 0 0.246-0.106t0.1-0.262zM11.406 11.507l0.201-6.931q0-0.134-0.112-0.201-0.112-0.089-0.268-0.089h-2.455q-0.156 0-0.268 0.089-0.112 0.067-0.112 0.201l0.19 6.931q0 0.112 0.112 0.195t0.268 0.084h2.065q0.156 0 0.262-0.084t0.117-0.195z"></path>
</svg>
