<!-- Generated by IcoMoon.io -->
<svg version="1.1" xmlns="http://www.w3.org/2000/svg" width="20" height="20" viewBox="0 0 20 20">
<title>exclamation</title>
<path d="M12.143 13.929v2.5q0 0.29-0.212 0.502t-0.502 0.212h-2.857q-0.29 0-0.502-0.212t-0.212-0.502v-2.5q0-0.29 0.212-0.502t0.502-0.212h2.857q0.29 0 0.502 0.212t0.212 0.502zM12.478 2.143l-0.313 8.571q-0.011 0.29-0.229 0.502t-0.508 0.212h-2.857q-0.29 0-0.508-0.212t-0.229-0.502l-0.313-8.571q-0.011-0.29 0.195-0.502t0.497-0.212h3.571q0.29 0 0.497 0.212t0.195 0.502z"></path>
</svg>
