<!-- Generated by IcoMoon.io -->
<svg version="1.1" xmlns="http://www.w3.org/2000/svg" width="20" height="20" viewBox="0 0 20 20">
<title>expand</title>
<path d="M9.855 11.786q0 0.145-0.112 0.257l-3.705 3.705 1.607 1.607q0.212 0.212 0.212 0.502t-0.212 0.502-0.502 0.212h-5q-0.29 0-0.502-0.212t-0.212-0.502v-5q0-0.29 0.212-0.502t0.502-0.212 0.502 0.212l1.607 1.607 3.705-3.705q0.112-0.112 0.257-0.112t0.257 0.112l1.272 1.272q0.112 0.112 0.112 0.257zM18.571 2.143v5q0 0.29-0.212 0.502t-0.502 0.212-0.502-0.212l-1.607-1.607-3.705 3.705q-0.112 0.112-0.257 0.112t-0.257-0.112l-1.272-1.272q-0.112-0.112-0.112-0.257t0.112-0.257l3.705-3.705-1.607-1.607q-0.212-0.212-0.212-0.502t0.212-0.502 0.502-0.212h5q0.29 0 0.502 0.212t0.212 0.502z"></path>
</svg>
