<!-- Generated by IcoMoon.io -->
<svg version="1.1" xmlns="http://www.w3.org/2000/svg" width="20" height="20" viewBox="0 0 20 20">
<title>expeditedssl</title>
<path d="M10 0.714q-1.886 0-3.605 0.737t-2.963 1.981-1.981 2.963-0.737 3.605 0.737 3.605 1.981 2.963 2.963 1.981 3.605 0.737 3.605-0.737 2.963-1.981 1.981-2.963 0.737-3.605-0.737-3.605-1.981-2.963-2.963-1.981-3.605-0.737zM10 0q2.031 0 3.884 0.792t3.192 2.132 2.132 3.192 0.792 3.884-0.792 3.884-2.132 3.192-3.192 2.132-3.884 0.792-3.884-0.792-3.192-2.132-2.132-3.192-0.792-3.884 0.792-3.884 2.132-3.192 3.192-2.132 3.884-0.792zM5.536 9.286q0.179 0 0.179 0.179v5.357q0 0.179-0.179 0.179h-0.357q-0.179 0-0.179-0.179v-5.357q0-0.179 0.179-0.179h0.357zM10 10q0.592 0 1.010 0.419t0.419 1.010q0 0.391-0.195 0.714t-0.519 0.513v1.272q0 0.156-0.1 0.257t-0.257 0.1h-0.714q-0.156 0-0.257-0.1t-0.1-0.257v-1.272q-0.324-0.19-0.519-0.513t-0.195-0.714q0-0.592 0.419-1.010t1.010-0.419zM10 1.429q2.333 0 4.302 1.15t3.119 3.119 1.15 4.302-1.15 4.302-3.119 3.119-4.302 1.15-4.302-1.15-3.119-3.119-1.15-4.302 1.15-4.302 3.119-3.119 4.302-1.15zM6.071 6.786v1.071q0 0.156 0.1 0.257t0.257 0.1h0.714q0.156 0 0.257-0.1t0.1-0.257v-1.071q0-1.038 0.731-1.769t1.769-0.731 1.769 0.731 0.731 1.769v1.071q0 0.156 0.1 0.257t0.257 0.1h0.714q0.156 0 0.257-0.1t0.1-0.257v-1.071q0-1.629-1.15-2.779t-2.779-1.15-2.779 1.15-1.15 2.779zM15.714 15v-5.714q0-0.29-0.212-0.502t-0.502-0.212h-10q-0.29 0-0.502 0.212t-0.212 0.502v5.714q0 0.29 0.212 0.502t0.502 0.212h10q0.29 0 0.502-0.212t0.212-0.502z"></path>
</svg>
