<!-- Generated by IcoMoon.io -->
<svg version="1.1" xmlns="http://www.w3.org/2000/svg" width="20" height="20" viewBox="0 0 20 20">
<title>external-link-square</title>
<path d="M15.714 10.357v-5.357q0-0.29-0.212-0.502t-0.502-0.212h-5.357q-0.469 0-0.658 0.435-0.19 0.458 0.156 0.781l1.607 1.607-5.96 5.96q-0.212 0.212-0.212 0.502t0.212 0.502l1.138 1.138q0.212 0.212 0.502 0.212t0.502-0.212l5.96-5.96 1.607 1.607q0.201 0.212 0.502 0.212 0.134 0 0.279-0.056 0.435-0.19 0.435-0.658zM18.571 4.643v10.714q0 1.328-0.943 2.271t-2.271 0.943h-10.714q-1.328 0-2.271-0.943t-0.943-2.271v-10.714q0-1.328 0.943-2.271t2.271-0.943h10.714q1.328 0 2.271 0.943t0.943 2.271z"></path>
</svg>
