<!-- Generated by IcoMoon.io -->
<svg version="1.1" xmlns="http://www.w3.org/2000/svg" width="20" height="20" viewBox="0 0 20 20">
<title>external-link</title>
<path d="M15.714 10.357v3.571q0 1.328-0.943 2.271t-2.271 0.943h-9.286q-1.328 0-2.271-0.943t-0.943-2.271v-9.286q0-1.328 0.943-2.271t2.271-0.943h7.857q0.156 0 0.257 0.1t0.1 0.257v0.714q0 0.156-0.1 0.257t-0.257 0.1h-7.857q-0.737 0-1.261 0.525t-0.525 1.261v9.286q0 0.737 0.525 1.261t1.261 0.525h9.286q0.737 0 1.261-0.525t0.525-1.261v-3.571q0-0.156 0.1-0.257t0.257-0.1h0.714q0.156 0 0.257 0.1t0.1 0.257zM20 0.714v5.714q0 0.29-0.212 0.502t-0.502 0.212-0.502-0.212l-1.964-1.964-7.277 7.277q-0.112 0.112-0.257 0.112t-0.257-0.112l-1.272-1.272q-0.112-0.112-0.112-0.257t0.112-0.257l7.277-7.277-1.964-1.964q-0.212-0.212-0.212-0.502t0.212-0.502 0.502-0.212h5.714q0.29 0 0.502 0.212t0.212 0.502z"></path>
</svg>
