<!-- Generated by IcoMoon.io -->
<svg version="1.1" xmlns="http://www.w3.org/2000/svg" width="20" height="20" viewBox="0 0 20 20">
<title>eye-slash</title>
<path d="M6.194 14.9l0.871-1.574q-0.971-0.703-1.518-1.775t-0.547-2.266q0-1.35 0.681-2.511-2.556 1.306-4.252 3.94 1.864 2.879 4.766 4.185zM10.536 6.429q0-0.223-0.156-0.379t-0.379-0.156q-1.395 0-2.394 0.999t-0.999 2.394q0 0.223 0.156 0.379t0.379 0.156 0.379-0.156 0.156-0.379q0-0.96 0.681-1.641t1.641-0.681q0.223 0 0.379-0.156t0.156-0.379zM14.587 4.297q0 0.078-0.011 0.1-1.183 2.109-3.527 6.328t-3.516 6.317l-0.547 0.993q-0.112 0.179-0.313 0.179-0.134 0-1.496-0.781-0.179-0.112-0.179-0.313 0-0.134 0.491-0.971-1.596-0.725-2.941-1.931t-2.327-2.734q-0.223-0.346-0.223-0.77t0.223-0.77q1.708-2.623 4.241-4.141t5.536-1.518q0.993 0 2.009 0.19l0.603-1.083q0.112-0.179 0.313-0.179 0.056 0 0.201 0.067t0.346 0.173 0.368 0.206 0.352 0.206 0.218 0.128q0.179 0.112 0.179 0.301zM15 9.286q0 1.551-0.882 2.829t-2.333 1.836l3.125-5.603q0.089 0.502 0.089 0.938zM20 10.714q0 0.391-0.223 0.77-0.435 0.714-1.217 1.618-1.674 1.92-3.878 2.98t-4.682 1.060l0.826-1.473q2.366-0.201 4.381-1.529t3.365-3.426q-1.283-1.998-3.147-3.281l0.703-1.25q1.060 0.714 2.037 1.708t1.613 2.054q0.223 0.379 0.223 0.77z"></path>
</svg>
