<!-- Generated by IcoMoon.io -->
<svg version="1.1" xmlns="http://www.w3.org/2000/svg" width="20" height="20" viewBox="0 0 20 20">
<title>eye</title>
<path d="M18.571 10.714q-1.696-2.634-4.252-3.94 0.681 1.161 0.681 2.511 0 2.065-1.468 3.532t-3.532 1.468-3.532-1.468-1.468-3.532q0-1.35 0.681-2.511-2.556 1.306-4.252 3.94 1.484 2.288 3.722 3.644t4.849 1.356 4.849-1.356 3.722-3.644zM10.536 6.429q0-0.223-0.156-0.379t-0.379-0.156q-1.395 0-2.394 0.999t-0.999 2.394q0 0.223 0.156 0.379t0.379 0.156 0.379-0.156 0.156-0.379q0-0.96 0.681-1.641t1.641-0.681q0.223 0 0.379-0.156t0.156-0.379zM20 10.714q0 0.379-0.223 0.77-1.563 2.567-4.202 4.113t-5.575 1.546-5.575-1.551-4.202-4.107q-0.223-0.391-0.223-0.77t0.223-0.77q1.563-2.556 4.202-4.107t5.575-1.551 5.575 1.551 4.202 4.107q0.223 0.391 0.223 0.77z"></path>
</svg>
