<!-- Generated by IcoMoon.io -->
<svg version="1.1" xmlns="http://www.w3.org/2000/svg" width="20" height="20" viewBox="0 0 20 20">
<title>eyedropper</title>
<path d="M18.951 1.049q1.049 1.049 1.049 2.528t-1.049 2.517l-2.511 2.489 1.161 1.161q0.112 0.112 0.112 0.257t-0.112 0.257l-2.344 2.344q-0.112 0.112-0.257 0.112t-0.257-0.112l-1.172-1.172-6.73 6.73q-0.413 0.413-1.004 0.413h-2.266l-2.857 1.429-0.714-0.714 1.429-2.857v-2.266q0-0.592 0.413-1.004l6.73-6.73-1.172-1.172q-0.112-0.112-0.112-0.257t0.112-0.257l2.344-2.344q0.112-0.112 0.257-0.112t0.257 0.112l1.161 1.161 2.489-2.511q1.038-1.049 2.517-1.049t2.528 1.049zM5.714 16.429l6.429-6.429-2.143-2.143-6.429 6.429v2.143h2.143z"></path>
</svg>
