<!-- Generated by IcoMoon.io -->
<svg version="1.1" xmlns="http://www.w3.org/2000/svg" width="20" height="20" viewBox="0 0 20 20">
<title>facebook-square</title>
<path d="M15.357 1.429q1.328 0 2.271 0.943t0.943 2.271v10.714q0 1.328-0.943 2.271t-2.271 0.943h-2.098v-6.641h2.221l0.335-2.589h-2.556v-1.652q0-0.625 0.262-0.938t1.021-0.313l1.362-0.011v-2.31q-0.703-0.1-1.987-0.1-1.518 0-2.427 0.893t-0.91 2.522v1.908h-2.232v2.589h2.232v6.641h-5.938q-1.328 0-2.271-0.943t-0.943-2.271v-10.714q0-1.328 0.943-2.271t2.271-0.943h10.714z"></path>
</svg>
