<!-- Generated by IcoMoon.io -->
<svg version="1.1" xmlns="http://www.w3.org/2000/svg" width="20" height="20" viewBox="0 0 20 20">
<title>facebook-official</title>
<path d="M17.623 1.429q0.391 0 0.67 0.279t0.279 0.67v15.246q0 0.391-0.279 0.67t-0.67 0.279h-4.364v-6.641h2.221l0.335-2.589h-2.556v-1.652q0-0.625 0.262-0.938t1.021-0.313l1.362-0.011v-2.31q-0.703-0.1-1.987-0.1-1.518 0-2.427 0.893t-0.91 2.522v1.908h-2.232v2.589h2.232v6.641h-8.203q-0.391 0-0.67-0.279t-0.279-0.67v-15.246q0-0.391 0.279-0.67t0.67-0.279h15.246z"></path>
</svg>
