<!-- Generated by IcoMoon.io -->
<svg version="1.1" xmlns="http://www.w3.org/2000/svg" width="20" height="20" viewBox="0 0 20 20">
<title>fast-forward</title>
<path d="M0.502 18.426q-0.212 0.212-0.357 0.145t-0.145-0.357v-16.429q0-0.29 0.145-0.357t0.357 0.145l7.924 7.924q0.1 0.1 0.145 0.212v-7.924q0-0.29 0.145-0.357t0.357 0.145l7.924 7.924q0.1 0.1 0.145 0.212v-7.567q0-0.29 0.212-0.502t0.502-0.212h1.429q0.29 0 0.502 0.212t0.212 0.502v15.714q0 0.29-0.212 0.502t-0.502 0.212h-1.429q-0.29 0-0.502-0.212t-0.212-0.502v-7.567q-0.045 0.112-0.145 0.212l-7.924 7.924q-0.212 0.212-0.357 0.145t-0.145-0.357v-7.924q-0.045 0.112-0.145 0.212z"></path>
</svg>
