<!-- Generated by IcoMoon.io -->
<svg version="1.1" xmlns="http://www.w3.org/2000/svg" width="20" height="20" viewBox="0 0 20 20">
<title>fax</title>
<path d="M3.214 4.286q0.737 0 1.261 0.525t0.525 1.261v12.143q0 0.737-0.525 1.261t-1.261 0.525h-1.429q-0.737 0-1.261-0.525t-0.525-1.261v-12.143q0-0.737 0.525-1.261t1.261-0.525h1.429zM18.571 6.105q0.647 0.379 1.038 1.038t0.391 1.429v8.571q0 1.183-0.837 2.020t-2.020 0.837h-9.643q-0.737 0-1.261-0.525t-0.525-1.261v-17.143q0-0.446 0.313-0.759t0.759-0.313h7.5q0.446 0 0.982 0.223t0.848 0.536l1.696 1.696q0.313 0.313 0.536 0.848t0.223 0.982v1.819zM10.357 17.143v-1.429q0-0.156-0.1-0.257t-0.257-0.1h-1.429q-0.156 0-0.257 0.1t-0.1 0.257v1.429q0 0.156 0.1 0.257t0.257 0.1h1.429q0.156 0 0.257-0.1t0.1-0.257zM10.357 14.286v-1.429q0-0.156-0.1-0.257t-0.257-0.1h-1.429q-0.156 0-0.257 0.1t-0.1 0.257v1.429q0 0.156 0.1 0.257t0.257 0.1h1.429q0.156 0 0.257-0.1t0.1-0.257zM10.357 11.429v-1.429q0-0.156-0.1-0.257t-0.257-0.1h-1.429q-0.156 0-0.257 0.1t-0.1 0.257v1.429q0 0.156 0.1 0.257t0.257 0.1h1.429q0.156 0 0.257-0.1t0.1-0.257zM13.214 17.143v-1.429q0-0.156-0.1-0.257t-0.257-0.1h-1.429q-0.156 0-0.257 0.1t-0.1 0.257v1.429q0 0.156 0.1 0.257t0.257 0.1h1.429q0.156 0 0.257-0.1t0.1-0.257zM13.214 14.286v-1.429q0-0.156-0.1-0.257t-0.257-0.1h-1.429q-0.156 0-0.257 0.1t-0.1 0.257v1.429q0 0.156 0.1 0.257t0.257 0.1h1.429q0.156 0 0.257-0.1t0.1-0.257zM13.214 11.429v-1.429q0-0.156-0.1-0.257t-0.257-0.1h-1.429q-0.156 0-0.257 0.1t-0.1 0.257v1.429q0 0.156 0.1 0.257t0.257 0.1h1.429q0.156 0 0.257-0.1t0.1-0.257zM16.071 17.143v-1.429q0-0.156-0.1-0.257t-0.257-0.1h-1.429q-0.156 0-0.257 0.1t-0.1 0.257v1.429q0 0.156 0.1 0.257t0.257 0.1h1.429q0.156 0 0.257-0.1t0.1-0.257zM16.071 14.286v-1.429q0-0.156-0.1-0.257t-0.257-0.1h-1.429q-0.156 0-0.257 0.1t-0.1 0.257v1.429q0 0.156 0.1 0.257t0.257 0.1h1.429q0.156 0 0.257-0.1t0.1-0.257zM16.071 11.429v-1.429q0-0.156-0.1-0.257t-0.257-0.1h-1.429q-0.156 0-0.257 0.1t-0.1 0.257v1.429q0 0.156 0.1 0.257t0.257 0.1h1.429q0.156 0 0.257-0.1t0.1-0.257zM17.143 7.143v-2.857h-1.786q-0.446 0-0.759-0.312t-0.313-0.759v-1.786h-7.143v5.714h10z"></path>
</svg>
