<!-- Generated by IcoMoon.io -->
<svg version="1.1" xmlns="http://www.w3.org/2000/svg" width="20" height="20" viewBox="0 0 20 20">
<title>female</title>
<path d="M17.143 11.786q0 0.446-0.313 0.759t-0.759 0.313q-0.569 0-0.893-0.48l-2.533-3.806h-0.502v1.473l2.757 4.587q0.1 0.167 0.1 0.368 0 0.29-0.212 0.502t-0.502 0.212h-2.143v3.036q0 0.513-0.368 0.882t-0.882 0.368h-1.786q-0.513 0-0.882-0.368t-0.368-0.882v-3.036h-2.143q-0.29 0-0.502-0.212t-0.212-0.502q0-0.201 0.1-0.368l2.757-4.587v-1.473h-0.502l-2.533 3.806q-0.324 0.48-0.893 0.48-0.446 0-0.759-0.313t-0.313-0.759q0-0.324 0.179-0.592l2.857-4.286q0.815-1.194 1.964-1.194h4.286q1.15 0 1.964 1.194l2.857 4.286q0.179 0.268 0.179 0.592zM12.5 2.857q0 1.038-0.731 1.769t-1.769 0.731-1.769-0.731-0.731-1.769 0.731-1.769 1.769-0.731 1.769 0.731 0.731 1.769z"></path>
</svg>
