<!-- Generated by IcoMoon.io -->
<svg version="1.1" xmlns="http://www.w3.org/2000/svg" width="23" height="20" viewBox="0 0 23 20">
<title>fighter-jet</title>
<path d="M22.143 10.714q-0.011 0.357-3.214 1.071l-3.929 0.357-2.5 0.714h-0.714l-3.27 3.929h0.77q0.29 0 0.502 0.050t0.212 0.128-0.212 0.128-0.502 0.050h-3.571v-0.357h0.714v-4.643h-1.786l-2.143 2.5h-1.071l-0.357-0.357v-2.143h0.357v-0.357h1.429v-0.089l-2.143-0.268v-1.429l2.143-0.268v-0.089h-1.429v-0.357h-0.357v-2.143l0.357-0.357h1.071l2.143 2.5h1.786v-4.643h-0.714v-0.357h3.571q0.29 0 0.502 0.050t0.212 0.128-0.212 0.128-0.502 0.050h-0.77l3.27 3.929h0.714l2.5 0.714 3.929 0.357q1.429 0.313 2.232 0.58t0.893 0.379z"></path>
</svg>
