<!-- Generated by IcoMoon.io -->
<svg version="1.1" xmlns="http://www.w3.org/2000/svg" width="20" height="20" viewBox="0 0 20 20">
<title>file-excel-o</title>
<path d="M17.813 4.241q0.313 0.313 0.536 0.848t0.223 0.982v12.857q0 0.446-0.313 0.759t-0.759 0.313h-15q-0.446 0-0.759-0.313t-0.313-0.759v-17.857q0-0.446 0.313-0.759t0.759-0.313h10q0.446 0 0.982 0.223t0.848 0.536zM12.857 1.518v4.196h4.196q-0.112-0.324-0.246-0.458l-3.493-3.493q-0.134-0.134-0.458-0.246zM17.143 18.571v-11.429h-4.643q-0.446 0-0.759-0.313t-0.313-0.759v-4.643h-8.571v17.143h14.286zM6.217 15.96v1.183h3.136v-1.183h-0.837l1.15-1.797q0.056-0.078 0.112-0.184t0.084-0.151 0.039-0.045h0.022q0.011 0.045 0.056 0.112 0.022 0.045 0.050 0.084t0.067 0.089 0.073 0.095l1.194 1.797h-0.848v1.183h3.248v-1.183h-0.759l-2.143-3.047 2.176-3.147h0.748v-1.194h-3.114v1.194h0.826l-1.15 1.775q-0.045 0.078-0.112 0.184t-0.1 0.151l-0.022 0.033h-0.022q-0.011-0.045-0.056-0.112-0.067-0.123-0.19-0.257l-1.183-1.775h0.848v-1.194h-3.237v1.194h0.759l2.109 3.036-2.165 3.158h-0.759z"></path>
</svg>
