<!-- Generated by IcoMoon.io -->
<svg version="1.1" xmlns="http://www.w3.org/2000/svg" width="20" height="20" viewBox="0 0 20 20">
<title>file-archive-o</title>
<path d="M8.571 4.286v-1.429h-1.429v1.429h1.429zM10 5.714v-1.429h-1.429v1.429h1.429zM8.571 7.143v-1.429h-1.429v1.429h1.429zM10 8.571v-1.429h-1.429v1.429h1.429zM17.813 4.241q0.313 0.313 0.536 0.848t0.223 0.982v12.857q0 0.446-0.313 0.759t-0.759 0.313h-15q-0.446 0-0.759-0.313t-0.313-0.759v-17.857q0-0.446 0.313-0.759t0.759-0.313h10q0.446 0 0.982 0.223t0.848 0.536zM12.857 1.518v4.196h4.196q-0.112-0.324-0.246-0.458l-3.493-3.493q-0.134-0.134-0.458-0.246zM17.143 18.571v-11.429h-4.643q-0.446 0-0.759-0.313t-0.313-0.759v-4.643h-1.429v1.429h-1.429v-1.429h-5.714v17.143h14.286zM10.145 10.525l1.194 3.895q0.089 0.301 0.089 0.58 0 0.926-0.809 1.535t-2.048 0.608-2.048-0.608-0.809-1.535q0-0.279 0.089-0.58 0.234-0.703 1.339-4.42v-1.429h1.429v1.429h0.882q0.246 0 0.435 0.145t0.257 0.379zM8.571 15.714q0.592 0 1.010-0.212t0.419-0.502-0.419-0.502-1.010-0.212-1.010 0.212-0.419 0.502 0.419 0.502 1.010 0.212z"></path>
</svg>
