<!-- Generated by IcoMoon.io -->
<svg version="1.1" xmlns="http://www.w3.org/2000/svg" width="20" height="20" viewBox="0 0 20 20">
<title>file-code-o</title>
<path d="M17.813 4.241q0.313 0.313 0.536 0.848t0.223 0.982v12.857q0 0.446-0.313 0.759t-0.759 0.313h-15q-0.446 0-0.759-0.313t-0.313-0.759v-17.857q0-0.446 0.313-0.759t0.759-0.313h10q0.446 0 0.982 0.223t0.848 0.536zM12.857 1.518v4.196h4.196q-0.112-0.324-0.246-0.458l-3.493-3.493q-0.134-0.134-0.458-0.246zM17.143 18.571v-11.429h-4.643q-0.446 0-0.759-0.313t-0.313-0.759v-4.643h-8.571v17.143h14.286zM6.786 8.571q0.089-0.123 0.234-0.14t0.268 0.073l0.569 0.424q0.123 0.089 0.14 0.234t-0.073 0.268l-2.031 2.712 2.031 2.712q0.089 0.123 0.073 0.268t-0.14 0.234l-0.569 0.424q-0.123 0.089-0.268 0.073t-0.234-0.14l-2.522-3.359q-0.156-0.212 0-0.424zM15.737 11.931q0.156 0.212 0 0.424l-2.522 3.359q-0.089 0.123-0.234 0.14t-0.268-0.073l-0.569-0.424q-0.123-0.089-0.14-0.234t0.073-0.268l2.031-2.712-2.031-2.712q-0.089-0.123-0.073-0.268t0.14-0.234l0.569-0.424q0.123-0.089 0.268-0.073t0.234 0.14zM8.817 17.076q-0.145-0.022-0.229-0.145t-0.061-0.268l1.54-9.275q0.022-0.145 0.145-0.229t0.268-0.061l0.703 0.112q0.145 0.022 0.229 0.145t0.061 0.268l-1.54 9.275q-0.022 0.145-0.145 0.229t-0.268 0.061z"></path>
</svg>
