<!-- Generated by IcoMoon.io -->
<svg version="1.1" xmlns="http://www.w3.org/2000/svg" width="20" height="20" viewBox="0 0 20 20">
<title>file-text</title>
<path d="M17.813 5.313q0.156 0.156 0.313 0.402h-5.268v-5.268q0.246 0.156 0.402 0.313zM12.5 7.143h6.071v11.786q0 0.446-0.313 0.759t-0.759 0.313h-15q-0.446 0-0.759-0.313t-0.313-0.759v-17.857q0-0.446 0.313-0.759t0.759-0.313h8.929v6.071q0 0.446 0.313 0.759t0.759 0.313zM14.286 15.357v-0.714q0-0.156-0.1-0.257t-0.257-0.1h-7.857q-0.156 0-0.257 0.1t-0.1 0.257v0.714q0 0.156 0.1 0.257t0.257 0.1h7.857q0.156 0 0.257-0.1t0.1-0.257zM14.286 12.5v-0.714q0-0.156-0.1-0.257t-0.257-0.1h-7.857q-0.156 0-0.257 0.1t-0.1 0.257v0.714q0 0.156 0.1 0.257t0.257 0.1h7.857q0.156 0 0.257-0.1t0.1-0.257zM14.286 9.643v-0.714q0-0.156-0.1-0.257t-0.257-0.1h-7.857q-0.156 0-0.257 0.1t-0.1 0.257v0.714q0 0.156 0.1 0.257t0.257 0.1h7.857q0.156 0 0.257-0.1t0.1-0.257z"></path>
</svg>
