<!-- Generated by IcoMoon.io -->
<svg version="1.1" xmlns="http://www.w3.org/2000/svg" width="20" height="20" viewBox="0 0 20 20">
<title>file-movie-o</title>
<path d="M17.813 4.241q0.313 0.313 0.536 0.848t0.223 0.982v12.857q0 0.446-0.313 0.759t-0.759 0.313h-15q-0.446 0-0.759-0.313t-0.313-0.759v-17.857q0-0.446 0.313-0.759t0.759-0.313h10q0.446 0 0.982 0.223t0.848 0.536zM12.857 1.518v4.196h4.196q-0.112-0.324-0.246-0.458l-3.493-3.493q-0.134-0.134-0.458-0.246zM17.143 18.571v-11.429h-4.643q-0.446 0-0.759-0.313t-0.313-0.759v-4.643h-8.571v17.143h14.286zM10 8.571q0.58 0 1.004 0.424t0.424 1.004v4.286q0 0.58-0.424 1.004t-1.004 0.424h-4.286q-0.58 0-1.004-0.424t-0.424-1.004v-4.286q0-0.58 0.424-1.004t1.004-0.424h4.286zM15.491 8.594q0.223 0.089 0.223 0.335v6.429q0 0.246-0.223 0.335-0.089 0.022-0.134 0.022-0.156 0-0.257-0.1l-2.958-2.969v-1.004l2.958-2.969q0.1-0.1 0.257-0.1 0.045 0 0.134 0.022z"></path>
</svg>
