<!-- Generated by IcoMoon.io -->
<svg version="1.1" xmlns="http://www.w3.org/2000/svg" width="20" height="20" viewBox="0 0 20 20">
<title>file-powerpoint-o</title>
<path d="M17.813 4.241q0.313 0.313 0.536 0.848t0.223 0.982v12.857q0 0.446-0.313 0.759t-0.759 0.313h-15q-0.446 0-0.759-0.313t-0.313-0.759v-17.857q0-0.446 0.313-0.759t0.759-0.313h10q0.446 0 0.982 0.223t0.848 0.536zM12.857 1.518v4.196h4.196q-0.112-0.324-0.246-0.458l-3.493-3.493q-0.134-0.134-0.458-0.246zM17.143 18.571v-11.429h-4.643q-0.446 0-0.759-0.313t-0.313-0.759v-4.643h-8.571v17.143h14.286zM6.071 15.96v1.183h3.65v-1.183h-1.038v-1.864h1.529q0.848 0 1.317-0.167 0.748-0.257 1.189-0.971t0.441-1.629q0-0.904-0.413-1.574t-1.116-0.971q-0.536-0.212-1.451-0.212h-4.107v1.194h1.027v6.194h-1.027zM10.011 12.835h-1.328v-2.991h1.339q0.58 0 0.926 0.201 0.625 0.368 0.625 1.283 0 0.993-0.692 1.339-0.346 0.167-0.871 0.167z"></path>
</svg>
