<!-- Generated by IcoMoon.io -->
<svg version="1.1" xmlns="http://www.w3.org/2000/svg" width="20" height="20" viewBox="0 0 20 20">
<title>file-audio-o</title>
<path d="M17.813 4.241q0.313 0.313 0.536 0.848t0.223 0.982v12.857q0 0.446-0.313 0.759t-0.759 0.313h-15q-0.446 0-0.759-0.313t-0.313-0.759v-17.857q0-0.446 0.313-0.759t0.759-0.313h10q0.446 0 0.982 0.223t0.848 0.536zM12.857 1.518v4.196h4.196q-0.112-0.324-0.246-0.458l-3.493-3.493q-0.134-0.134-0.458-0.246zM17.143 18.571v-11.429h-4.643q-0.446 0-0.759-0.313t-0.313-0.759v-4.643h-8.571v17.143h14.286zM8.348 9.487q0.223 0.089 0.223 0.335v6.071q0 0.246-0.223 0.335-0.089 0.022-0.134 0.022-0.134 0-0.257-0.1l-1.853-1.864h-1.462q-0.156 0-0.257-0.1t-0.1-0.257v-2.143q0-0.156 0.1-0.257t0.257-0.1h1.462l1.853-1.864q0.179-0.167 0.391-0.078zM13.002 17.176q0.346 0 0.558-0.268 1.44-1.775 1.44-4.051t-1.44-4.051q-0.179-0.234-0.48-0.268t-0.525 0.156q-0.234 0.19-0.262 0.485t0.162 0.53q1.116 1.373 1.116 3.147t-1.116 3.147q-0.19 0.234-0.162 0.53t0.262 0.474q0.201 0.167 0.446 0.167zM10.647 15.525q0.301 0 0.525-0.223 0.971-1.038 0.971-2.444t-0.971-2.444q-0.201-0.212-0.502-0.223t-0.513 0.19-0.223 0.497 0.201 0.519q0.58 0.636 0.58 1.462t-0.58 1.462q-0.212 0.223-0.201 0.519t0.223 0.497q0.223 0.19 0.491 0.19z"></path>
</svg>
