<!-- Generated by IcoMoon.io -->
<svg version="1.1" xmlns="http://www.w3.org/2000/svg" width="20" height="20" viewBox="0 0 20 20">
<title>file-pdf-o</title>
<path d="M17.813 4.241q0.313 0.313 0.536 0.848t0.223 0.982v12.857q0 0.446-0.313 0.759t-0.759 0.313h-15q-0.446 0-0.759-0.313t-0.313-0.759v-17.857q0-0.446 0.313-0.759t0.759-0.313h10q0.446 0 0.982 0.223t0.848 0.536zM12.857 1.518v4.196h4.196q-0.112-0.324-0.246-0.458l-3.493-3.493q-0.134-0.134-0.458-0.246zM17.143 18.571v-11.429h-4.643q-0.446 0-0.759-0.313t-0.313-0.759v-4.643h-8.571v17.143h14.286zM11.406 11.953q0.368 0.29 0.938 0.625 0.658-0.078 1.306-0.078 1.641 0 1.975 0.547 0.179 0.246 0.022 0.58 0 0.011-0.011 0.022l-0.022 0.022v0.011q-0.067 0.424-0.792 0.424-0.536 0-1.283-0.223t-1.451-0.592q-2.467 0.268-4.375 0.926-1.708 2.924-2.701 2.924-0.167 0-0.313-0.078l-0.268-0.134q-0.011-0.011-0.067-0.056-0.112-0.112-0.067-0.402 0.1-0.446 0.625-1.021t1.473-1.077q0.156-0.1 0.257 0.067 0.022 0.022 0.022 0.045 0.58-0.949 1.194-2.199 0.759-1.518 1.161-2.924-0.268-0.915-0.34-1.78t0.073-1.423q0.123-0.446 0.469-0.446h0.246q0.257 0 0.391 0.167 0.201 0.234 0.1 0.759-0.022 0.067-0.045 0.089 0.011 0.033 0.011 0.089v0.335q-0.022 1.373-0.156 2.143 0.614 1.83 1.629 2.656zM4.978 16.54q0.58-0.268 1.529-1.763-0.569 0.446-0.977 0.938t-0.552 0.826zM9.42 6.272q-0.167 0.469-0.022 1.473 0.011-0.078 0.078-0.491 0-0.033 0.078-0.48 0.011-0.045 0.045-0.089-0.011-0.011-0.011-0.022-0.011-0.022-0.011-0.033-0.011-0.246-0.145-0.402 0 0.011-0.011 0.022v0.022zM8.036 13.65q1.507-0.603 3.17-0.904-0.022-0.011-0.145-0.106t-0.179-0.151q-0.848-0.748-1.417-1.964-0.301 0.96-0.926 2.199-0.335 0.625-0.502 0.926zM15.246 13.471q-0.268-0.268-1.563-0.268 0.848 0.313 1.384 0.313 0.156 0 0.201-0.011 0-0.011-0.022-0.033z"></path>
</svg>
