<!-- Generated by IcoMoon.io -->
<svg version="1.1" xmlns="http://www.w3.org/2000/svg" width="20" height="20" viewBox="0 0 20 20">
<title>file-photo-o</title>
<path d="M17.813 4.241q0.313 0.313 0.536 0.848t0.223 0.982v12.857q0 0.446-0.313 0.759t-0.759 0.313h-15q-0.446 0-0.759-0.313t-0.313-0.759v-17.857q0-0.446 0.313-0.759t0.759-0.313h10q0.446 0 0.982 0.223t0.848 0.536zM12.857 1.518v4.196h4.196q-0.112-0.324-0.246-0.458l-3.493-3.493q-0.134-0.134-0.458-0.246zM17.143 18.571v-11.429h-4.643q-0.446 0-0.759-0.313t-0.313-0.759v-4.643h-8.571v17.143h14.286zM15.714 13.571v3.571h-11.429v-2.143l2.143-2.143 1.429 1.429 4.286-4.286zM6.429 11.429q-0.893 0-1.518-0.625t-0.625-1.518 0.625-1.518 1.518-0.625 1.518 0.625 0.625 1.518-0.625 1.518-1.518 0.625z"></path>
</svg>
