<!-- Generated by IcoMoon.io -->
<svg version="1.1" xmlns="http://www.w3.org/2000/svg" width="20" height="20" viewBox="0 0 20 20">
<title>file-word-o</title>
<path d="M17.813 4.241q0.313 0.313 0.536 0.848t0.223 0.982v12.857q0 0.446-0.313 0.759t-0.759 0.313h-15q-0.446 0-0.759-0.313t-0.313-0.759v-17.857q0-0.446 0.313-0.759t0.759-0.313h10q0.446 0 0.982 0.223t0.848 0.536zM12.857 1.518v4.196h4.196q-0.112-0.324-0.246-0.458l-3.493-3.493q-0.134-0.134-0.458-0.246zM17.143 18.571v-11.429h-4.643q-0.446 0-0.759-0.313t-0.313-0.759v-4.643h-8.571v17.143h14.286zM4.029 8.571v1.194h0.781l1.83 7.377h1.775l1.429-5.413q0.078-0.223 0.112-0.513 0.022-0.179 0.022-0.268h0.045l0.033 0.268q0.011 0.033 0.039 0.223t0.061 0.29l1.429 5.413h1.775l1.83-7.377h0.781v-1.194h-3.348v1.194h1.004l-1.105 4.888q-0.056 0.223-0.078 0.513l-0.022 0.234h-0.045q0-0.033-0.006-0.073t-0.017-0.089-0.011-0.073q-0.011-0.056-0.045-0.234t-0.056-0.279l-1.607-6.083h-1.272l-1.607 6.083q-0.022 0.1-0.050 0.273t-0.039 0.24l-0.045 0.234h-0.045l-0.022-0.234q-0.022-0.29-0.078-0.513l-1.105-4.888h1.004v-1.194h-3.348z"></path>
</svg>
