<!-- Generated by IcoMoon.io -->
<svg version="1.1" xmlns="http://www.w3.org/2000/svg" width="23" height="20" viewBox="0 0 23 20">
<title>film</title>
<path d="M5 17.857v-1.429q0-0.29-0.212-0.502t-0.502-0.212h-1.429q-0.29 0-0.502 0.212t-0.212 0.502v1.429q0 0.29 0.212 0.502t0.502 0.212h1.429q0.29 0 0.502-0.212t0.212-0.502zM5 13.571v-1.429q0-0.29-0.212-0.502t-0.502-0.212h-1.429q-0.29 0-0.502 0.212t-0.212 0.502v1.429q0 0.29 0.212 0.502t0.502 0.212h1.429q0.29 0 0.502-0.212t0.212-0.502zM5 9.286v-1.429q0-0.29-0.212-0.502t-0.502-0.212h-1.429q-0.29 0-0.502 0.212t-0.212 0.502v1.429q0 0.29 0.212 0.502t0.502 0.212h1.429q0.29 0 0.502-0.212t0.212-0.502zM16.429 17.857v-5.714q0-0.29-0.212-0.502t-0.502-0.212h-8.571q-0.29 0-0.502 0.212t-0.212 0.502v5.714q0 0.29 0.212 0.502t0.502 0.212h8.571q0.29 0 0.502-0.212t0.212-0.502zM5 5v-1.429q0-0.29-0.212-0.502t-0.502-0.212h-1.429q-0.29 0-0.502 0.212t-0.212 0.502v1.429q0 0.29 0.212 0.502t0.502 0.212h1.429q0.29 0 0.502-0.212t0.212-0.502zM20.714 17.857v-1.429q0-0.29-0.212-0.502t-0.502-0.212h-1.429q-0.29 0-0.502 0.212t-0.212 0.502v1.429q0 0.29 0.212 0.502t0.502 0.212h1.429q0.29 0 0.502-0.212t0.212-0.502zM16.429 9.286v-5.714q0-0.29-0.212-0.502t-0.502-0.212h-8.571q-0.29 0-0.502 0.212t-0.212 0.502v5.714q0 0.29 0.212 0.502t0.502 0.212h8.571q0.29 0 0.502-0.212t0.212-0.502zM20.714 13.571v-1.429q0-0.29-0.212-0.502t-0.502-0.212h-1.429q-0.29 0-0.502 0.212t-0.212 0.502v1.429q0 0.29 0.212 0.502t0.502 0.212h1.429q0.29 0 0.502-0.212t0.212-0.502zM20.714 9.286v-1.429q0-0.29-0.212-0.502t-0.502-0.212h-1.429q-0.29 0-0.502 0.212t-0.212 0.502v1.429q0 0.29 0.212 0.502t0.502 0.212h1.429q0.29 0 0.502-0.212t0.212-0.502zM20.714 5v-1.429q0-0.29-0.212-0.502t-0.502-0.212h-1.429q-0.29 0-0.502 0.212t-0.212 0.502v1.429q0 0.29 0.212 0.502t0.502 0.212h1.429q0.29 0 0.502-0.212t0.212-0.502zM22.143 3.214v15q0 0.737-0.525 1.261t-1.261 0.525h-17.857q-0.737 0-1.261-0.525t-0.525-1.261v-15q0-0.737 0.525-1.261t1.261-0.525h17.857q0.737 0 1.261 0.525t0.525 1.261z"></path>
</svg>
