<!-- Generated by IcoMoon.io -->
<svg version="1.1" xmlns="http://www.w3.org/2000/svg" width="20" height="20" viewBox="0 0 20 20">
<title>fire-extinguisher</title>
<path d="M7.857 2.143q0-0.29-0.212-0.502t-0.502-0.212-0.502 0.212-0.212 0.502 0.212 0.502 0.502 0.212 0.502-0.212 0.212-0.502zM17.857 1.786v3.571q0 0.179-0.134 0.279-0.089 0.078-0.223 0.078-0.045 0-0.078-0.011l-5-1.071q-0.123-0.022-0.201-0.123t-0.078-0.223h-2.857v1.138q1.239 0.257 2.048 1.239t0.809 2.266v8.929q0 0.29-0.212 0.502t-0.502 0.212h-5.714q-0.29 0-0.502-0.212t-0.212-0.502v-8.929q0-1.183 0.698-2.126t1.802-1.278v-1.239h-0.357q-0.658 0-1.283 0.262t-1.021 0.592-0.737 0.742-0.452 0.597-0.156 0.273q-0.19 0.391-0.636 0.391-0.179 0-0.324-0.078-0.257-0.134-0.352-0.413t0.039-0.547q0.056-0.112 0.162-0.29t0.419-0.597 0.675-0.781 0.949-0.748 1.211-0.586q-0.279-0.469-0.279-0.96 0-0.737 0.525-1.261t1.261-0.525 1.261 0.525 0.525 1.261q0 0.368-0.156 0.714h3.371q0-0.123 0.078-0.223t0.201-0.123l5-1.071q0.033-0.011 0.078-0.011 0.134 0 0.223 0.078 0.134 0.1 0.134 0.279z"></path>
</svg>
