<!-- Generated by IcoMoon.io -->
<svg version="1.1" xmlns="http://www.w3.org/2000/svg" width="20" height="20" viewBox="0 0 20 20">
<title>fire</title>
<path d="M17.857 18.929v0.714q0 0.145-0.106 0.251t-0.251 0.106h-15q-0.145 0-0.251-0.106t-0.106-0.251v-0.714q0-0.145 0.106-0.251t0.251-0.106h15q0.145 0 0.251 0.106t0.106 0.251zM15 7.143q0 0.871-0.273 1.607t-0.714 1.256-0.977 0.982-1.071 0.865-0.977 0.804-0.714 0.91-0.273 1.077q0 1.071 0.748 2.5l-0.045-0.011 0.011 0.011q-1.004-0.458-1.786-0.926t-1.546-1.116-1.267-1.367-0.809-1.68-0.307-2.054q0-0.871 0.273-1.607t0.714-1.256 0.977-0.982 1.071-0.865 0.977-0.804 0.714-0.91 0.273-1.077q0-1.049-0.737-2.5l0.033 0.011-0.011-0.011q1.004 0.458 1.786 0.926t1.546 1.116 1.267 1.367 0.809 1.68 0.307 2.054z"></path>
</svg>
