<!-- Generated by IcoMoon.io -->
<svg version="1.1" xmlns="http://www.w3.org/2000/svg" width="20" height="20" viewBox="0 0 20 20">
<title>firefox</title>
<path d="M10.078 20q-3.158 0-5.631-1.68t-3.677-4.448q-0.647-1.462-0.748-3.359t0.29-3.711 1.239-3.482 1.998-2.706l-0.123 3.136q0.123-0.156 0.759-0.173t0.781 0.173q0.469-0.904 1.791-1.54t2.617-0.658q-0.603 0.502-1.334 1.657t-0.653 1.825q0.279 0.089 0.698 0.151t0.703 0.084 0.759 0.045 0.564 0.033q0.167 0.056 0.106 0.508t-0.34 0.843q-0.056 0.078-0.184 0.206t-0.631 0.396-1.127 0.379l0.167 2.109-1.551-0.748q-0.201 0.48-0.084 0.91t0.402 0.742 0.731 0.463 0.904 0.073q0.569-0.1 1.094-0.385t0.932-0.502 0.82-0.195q0.681 0.045 0.999 0.368t0.218 0.725q-0.011 0.022-0.028 0.061t-0.095 0.14-0.201 0.173-0.352 0.117-0.519 0.011q-0.67 1.060-1.613 1.512t-2.338 0.329q0.826 0.681 1.814 0.921t1.881 0.067 1.724-0.58 1.429-0.977 0.898-1.161q0.48-1.016 0.435-2.148t-0.419-2.104-0.876-1.395q0.971 0.424 1.529 0.887t0.859 1.256q0.167-1.897-0.642-3.828t-2.338-3.17q2.958 0.859 4.598 3.119t1.685 5.776q0.022 1.417-0.452 2.846t-1.378 2.656-2.109 2.188-2.762 1.512-3.22 0.552z"></path>
</svg>
