<!-- Generated by IcoMoon.io -->
<svg version="1.1" xmlns="http://www.w3.org/2000/svg" width="20" height="20" viewBox="0 0 20 20">
<title>first-order</title>
<path d="M16.183 10q0 0.502-0.056 0.848l-2.634-0.156 2.5 0.871q-0.212 0.815-0.647 1.574l-2.388-1.15 1.975 1.763q-0.491 0.681-1.194 1.205l-1.752-1.987 1.15 2.4q-0.681 0.413-1.563 0.658l-0.882-2.545 0.156 2.679q-0.424 0.067-0.848 0.067t-0.848-0.067l0.156-2.656-0.871 2.522q-0.826-0.212-1.563-0.658l1.15-2.4-1.752 1.987q-0.658-0.48-1.205-1.205l1.987-1.763-2.388 1.161q-0.435-0.77-0.647-1.574l2.5-0.882-2.645 0.156q-0.056-0.469-0.056-0.848 0-0.391 0.056-0.859l2.656 0.156-2.511-0.882q0.212-0.815 0.647-1.563l2.388 1.161-1.975-1.775q0.513-0.681 1.194-1.205l1.763 1.987-1.15-2.4q0.748-0.435 1.562-0.647l0.859 2.5-0.145-2.634q0.402-0.067 0.837-0.067 0.424 0 0.848 0.067l-0.156 2.645 0.871-2.511q0.826 0.212 1.563 0.658l-1.15 2.388 1.763-1.987q0.681 0.525 1.194 1.205l-1.975 1.775 2.377-1.161q0.413 0.692 0.647 1.574l-2.5 0.871 2.645-0.156q0.056 0.346 0.056 0.859zM16.518 10q0-1.786-0.876-3.298t-2.377-2.388-3.265-0.876q-1.328 0-2.533 0.519t-2.081 1.395-1.39 2.093-0.513 2.556q0 1.328 0.513 2.545t1.39 2.093 2.081 1.395 2.533 0.519q1.763 0 3.265-0.876t2.377-2.388 0.876-3.287zM17.333 5.725v8.549l-7.333 4.275-7.333-4.275v-8.549l7.333-4.275zM10 19.185l7.902-4.598v-9.185l-7.902-4.587-7.902 4.587v9.185zM18.571 5v10l-8.571 5-8.571-5v-10l8.571-5z"></path>
</svg>
