<!-- Generated by IcoMoon.io -->
<svg version="1.1" xmlns="http://www.w3.org/2000/svg" width="20" height="20" viewBox="0 0 20 20">
<title>flag</title>
<path d="M3.571 2.857q0 0.804-0.714 1.228v14.129q0 0.145-0.106 0.251t-0.251 0.106h-0.714q-0.145 0-0.251-0.106t-0.106-0.251v-14.129q-0.714-0.424-0.714-1.228 0-0.592 0.419-1.010t1.010-0.419 1.010 0.419 0.419 1.010zM20 3.571v8.516q0 0.279-0.14 0.43t-0.441 0.307q-2.4 1.295-4.118 1.295-0.681 0-1.378-0.246t-1.211-0.536-1.289-0.536-1.59-0.246q-2.143 0-5.179 1.629-0.19 0.1-0.368 0.1-0.29 0-0.502-0.212t-0.212-0.502v-8.281q0-0.357 0.346-0.614 0.234-0.156 0.882-0.48 2.634-1.339 4.699-1.339 1.194 0 2.232 0.324t2.444 0.982q0.424 0.212 0.982 0.212 0.603 0 1.311-0.234t1.228-0.525 0.982-0.525 0.608-0.234q0.29 0 0.502 0.212t0.212 0.502z"></path>
</svg>
