<!-- Generated by IcoMoon.io -->
<svg version="1.1" xmlns="http://www.w3.org/2000/svg" width="20" height="20" viewBox="0 0 20 20">
<title>flag-checkered</title>
<path d="M9.286 11.161v-2.143q-2.020 0.179-4.286 1.306v2.065q2.288-1.071 4.286-1.228zM9.286 6.496v-2.199q-1.92 0.089-4.286 1.406v2.109q2.4-1.239 4.286-1.317zM18.571 11.663v-2.054q-2.623 1.295-4.286 0.792v-2.5q-0.223-0.067-0.435-0.167-0.056-0.033-0.368-0.19t-0.385-0.19-0.352-0.167-0.385-0.173-0.363-0.145-0.402-0.14-0.391-0.095-0.441-0.084-0.441-0.045-0.491-0.022q-0.257 0-0.547 0.033v2.478h0.212q1.138 0 2.148 0.324t2.204 0.915q0.212 0.1 0.435 0.167v2.098q0.469 0.19 1.016 0.19 1.339 0 3.27-1.027zM18.571 6.897v-2.109q-1.886 1.016-3.415 1.016-0.502 0-0.871-0.089v2.188q1.652 0.469 4.286-1.004zM3.571 2.857q0 0.391-0.195 0.714t-0.519 0.513v14.129q0 0.156-0.1 0.257t-0.257 0.1h-0.714q-0.156 0-0.257-0.1t-0.1-0.257v-14.129q-0.324-0.19-0.519-0.513t-0.195-0.714q0-0.592 0.419-1.010t1.010-0.419 1.010 0.419 0.419 1.010zM20 3.571v8.516q0 0.435-0.391 0.636-0.112 0.056-0.19 0.1-2.433 1.295-4.118 1.295-0.982 0-1.763-0.391l-0.313-0.156q-0.714-0.368-1.105-0.536t-1.016-0.324-1.272-0.156q-1.138 0-2.628 0.491t-2.55 1.138q-0.167 0.1-0.368 0.1-0.179 0-0.357-0.089-0.357-0.212-0.357-0.625v-8.281q0-0.391 0.346-0.614 0.391-0.234 0.876-0.474t1.272-0.58 1.702-0.552 1.73-0.212q1.25 0 2.333 0.346t2.333 0.96q0.424 0.212 0.993 0.212 1.362 0 3.46-1.25 0.246-0.134 0.346-0.19 0.346-0.179 0.692 0.022 0.346 0.223 0.346 0.614z"></path>
</svg>
