<!-- Generated by IcoMoon.io -->
<svg version="1.1" xmlns="http://www.w3.org/2000/svg" width="20" height="20" viewBox="0 0 20 20">
<title>flag-o</title>
<path d="M18.571 11.663v-6.875q-1.886 1.016-3.415 1.016-0.915 0-1.618-0.357-1.116-0.547-2.054-0.854t-1.987-0.307q-1.931 0-4.498 1.417v6.685q2.734-1.261 4.833-1.261 0.614 0 1.155 0.084t1.094 0.29 0.859 0.346 0.921 0.441l0.313 0.156q0.491 0.246 1.127 0.246 1.339 0 3.27-1.027zM3.571 2.857q0 0.391-0.195 0.714t-0.519 0.513v14.129q0 0.156-0.1 0.257t-0.257 0.1h-0.714q-0.156 0-0.257-0.1t-0.1-0.257v-14.129q-0.324-0.19-0.519-0.513t-0.195-0.714q0-0.592 0.419-1.010t1.010-0.419 1.010 0.419 0.419 1.010zM20 3.571v8.516q0 0.435-0.391 0.636-0.112 0.056-0.19 0.1-2.433 1.295-4.118 1.295-0.982 0-1.763-0.391l-0.313-0.156q-0.714-0.368-1.105-0.536t-1.016-0.324-1.272-0.156q-1.138 0-2.628 0.491t-2.55 1.138q-0.167 0.1-0.368 0.1-0.179 0-0.357-0.089-0.357-0.212-0.357-0.625v-8.281q0-0.391 0.346-0.614 0.391-0.234 0.876-0.474t1.272-0.58 1.702-0.552 1.73-0.212q1.25 0 2.333 0.346t2.333 0.96q0.424 0.212 0.993 0.212 1.362 0 3.46-1.25 0.246-0.134 0.346-0.19 0.346-0.179 0.692 0.022 0.346 0.223 0.346 0.614z"></path>
</svg>
