<!-- Generated by IcoMoon.io -->
<svg version="1.1" xmlns="http://www.w3.org/2000/svg" width="20" height="20" viewBox="0 0 20 20">
<title>flickr</title>
<path d="M15.357 1.429q1.328 0 2.271 0.943t0.943 2.271v10.714q0 1.328-0.943 2.271t-2.271 0.943h-10.714q-1.328 0-2.271-0.943t-0.943-2.271v-10.714q0-1.328 0.943-2.271t2.271-0.943h10.714zM9.219 10q0-0.982-0.692-1.674t-1.674-0.692-1.674 0.692-0.692 1.674 0.692 1.674 1.674 0.692 1.674-0.692 0.692-1.674zM15.513 10q0-0.982-0.692-1.674t-1.674-0.692-1.674 0.692-0.692 1.674 0.692 1.674 1.674 0.692 1.674-0.692 0.692-1.674z"></path>
</svg>
