<!-- Generated by IcoMoon.io -->
<svg version="1.1" xmlns="http://www.w3.org/2000/svg" width="20" height="20" viewBox="0 0 20 20">
<title>floppy-o</title>
<path d="M5.714 17.143h8.571v-4.286h-8.571v4.286zM15.714 17.143h1.429v-10q0-0.156-0.112-0.43t-0.223-0.385l-3.136-3.136q-0.112-0.112-0.379-0.223t-0.435-0.112v4.643q0 0.446-0.313 0.759t-0.759 0.313h-6.429q-0.446 0-0.759-0.313t-0.313-0.759v-4.643h-1.429v14.286h1.429v-4.643q0-0.446 0.313-0.759t0.759-0.313h9.286q0.446 0 0.759 0.313t0.313 0.759v4.643zM11.429 6.786v-3.571q0-0.145-0.106-0.251t-0.251-0.106h-2.143q-0.145 0-0.251 0.106t-0.106 0.251v3.571q0 0.145 0.106 0.251t0.251 0.106h2.143q0.145 0 0.251-0.106t0.106-0.251zM18.571 7.143v10.357q0 0.446-0.313 0.759t-0.759 0.313h-15q-0.446 0-0.759-0.313t-0.313-0.759v-15q0-0.446 0.313-0.759t0.759-0.313h10.357q0.446 0 0.982 0.223t0.848 0.536l3.125 3.125q0.313 0.313 0.536 0.848t0.223 0.982z"></path>
</svg>
