<!-- Generated by IcoMoon.io -->
<svg version="1.1" xmlns="http://www.w3.org/2000/svg" width="23" height="20" viewBox="0 0 23 20">
<title>folder-open</title>
<path d="M21.685 10.625q0 0.346-0.346 0.737l-3.75 4.42q-0.48 0.569-1.345 0.965t-1.602 0.396h-12.143q-0.379 0-0.675-0.145t-0.296-0.48q0-0.346 0.346-0.737l3.75-4.42q0.48-0.569 1.345-0.965t1.602-0.396h12.143q0.379 0 0.675 0.145t0.296 0.48zM17.857 6.786v1.786h-9.286q-1.049 0-2.199 0.53t-1.83 1.334l-3.817 4.487q0-0.045-0.006-0.14t-0.006-0.14v-10.714q0-1.027 0.737-1.763t1.763-0.737h3.571q1.027 0 1.763 0.737t0.737 1.763v0.357h6.071q1.027 0 1.763 0.737t0.737 1.763z"></path>
</svg>
