<!-- Generated by IcoMoon.io -->
<svg version="1.1" xmlns="http://www.w3.org/2000/svg" width="23" height="20" viewBox="0 0 23 20">
<title>folder-open-o</title>
<path d="M20.592 10.391q0-0.391-0.592-0.391h-12.143q-0.446 0-0.954 0.24t-0.798 0.586l-3.281 4.051q-0.201 0.268-0.201 0.446 0 0.391 0.592 0.391h12.143q0.446 0 0.96-0.246t0.792-0.592l3.281-4.051q0.201-0.246 0.201-0.435zM7.857 8.571h8.571v-1.786q0-0.446-0.313-0.759t-0.759-0.313h-6.429q-0.446 0-0.759-0.313t-0.313-0.759v-0.714q0-0.446-0.313-0.759t-0.759-0.313h-3.571q-0.446 0-0.759 0.313t-0.313 0.759v9.52l2.857-3.516q0.491-0.592 1.295-0.977t1.563-0.385zM22.020 10.391q0 0.692-0.513 1.339l-3.292 4.051q-0.48 0.592-1.295 0.977t-1.563 0.385h-12.143q-1.027 0-1.763-0.737t-0.737-1.763v-10.714q0-1.027 0.737-1.763t1.763-0.737h3.571q1.027 0 1.763 0.737t0.737 1.763v0.357h6.071q1.027 0 1.763 0.737t0.737 1.763v1.786h2.143q0.603 0 1.105 0.273t0.748 0.787q0.167 0.357 0.167 0.759z"></path>
</svg>
