<!-- Generated by IcoMoon.io -->
<svg version="1.1" xmlns="http://www.w3.org/2000/svg" width="20" height="20" viewBox="0 0 20 20">
<title>folder-o</title>
<path d="M17.857 14.643v-7.857q0-0.446-0.313-0.759t-0.759-0.313h-7.857q-0.446 0-0.759-0.313t-0.313-0.759v-0.714q0-0.446-0.313-0.759t-0.759-0.313h-3.571q-0.446 0-0.759 0.313t-0.313 0.759v10.714q0 0.446 0.313 0.759t0.759 0.313h13.571q0.446 0 0.759-0.313t0.313-0.759zM19.286 6.786v7.857q0 1.027-0.737 1.763t-1.763 0.737h-13.571q-1.027 0-1.763-0.737t-0.737-1.763v-10.714q0-1.027 0.737-1.763t1.763-0.737h3.571q1.027 0 1.763 0.737t0.737 1.763v0.357h7.5q1.027 0 1.763 0.737t0.737 1.763z"></path>
</svg>
