<!-- Generated by IcoMoon.io -->
<svg version="1.1" xmlns="http://www.w3.org/2000/svg" width="20" height="20" viewBox="0 0 20 20">
<title>font</title>
<path d="M8.806 6.239l-1.897 5.022q0.368 0 1.523 0.022t1.791 0.022q0.212 0 0.636-0.022-0.971-2.824-2.054-5.045zM0.714 18.571l0.022-0.882q0.257-0.078 0.625-0.14t0.636-0.117 0.552-0.162 0.497-0.324 0.346-0.564l2.645-6.875 3.125-8.080h1.429q0.089 0.156 0.123 0.234l2.288 5.357q0.368 0.871 1.183 2.874t1.272 3.064q0.167 0.379 0.647 1.613t0.804 1.881q0.223 0.502 0.391 0.636 0.212 0.167 0.982 0.329t0.938 0.229q0.067 0.424 0.067 0.636 0 0.056-0.006 0.151t-0.006 0.14q-0.703 0-2.121-0.089t-2.132-0.089q-0.848 0-2.4 0.078t-1.987 0.089q0-0.48 0.045-0.871l1.462-0.313q0.011 0 0.14-0.028t0.173-0.039 0.162-0.050 0.167-0.073 0.123-0.089 0.1-0.123 0.028-0.156q0-0.179-0.346-1.077t-0.804-1.981-0.469-1.116l-5.022-0.022q-0.29 0.647-0.854 2.182t-0.564 1.814q0 0.246 0.156 0.419t0.485 0.273 0.541 0.151 0.636 0.095 0.458 0.045q0.011 0.212 0.011 0.647 0 0.1-0.022 0.301-0.647 0-1.948-0.112t-1.948-0.112q-0.089 0-0.296 0.045t-0.24 0.045q-0.893 0.156-2.098 0.156z"></path>
</svg>
