<!-- Generated by IcoMoon.io -->
<svg version="1.1" xmlns="http://www.w3.org/2000/svg" width="20" height="20" viewBox="0 0 20 20">
<title>font-awesome</title>
<path d="M18.571 5.714v9.364q0 0.536-0.547 0.692-1.942 0.58-3.772 0.58-0.815 0-2.405-0.329t-2.539-0.329q-1.83 0-4.129 0.536v3.772h-1.786v-15.268q-0.703-0.279-1.127-0.904t-0.424-1.384q0-1.016 0.714-1.73t1.73-0.714 1.73 0.714 0.714 1.73q0 0.759-0.424 1.384t-1.127 0.904v0.759q2.121-0.491 3.828-0.491 1.105 0 2.21 0.167 0.156 0.022 1.244 0.251t1.669 0.229q0.859 0 1.842-0.201 0.123-0.022 0.893-0.234t0.993-0.212q0.29 0 0.502 0.212t0.212 0.502z"></path>
</svg>
