<!-- Generated by IcoMoon.io -->
<svg version="1.1" xmlns="http://www.w3.org/2000/svg" width="20" height="20" viewBox="0 0 20 20">
<title>fonticons</title>
<path d="M1.429 1.429h17.143v17.143h-17.143v-17.143zM11.563 5l-0.134 0.368 0.837 0.926-0.346 1.272 0.279 0.279 1.194-0.636 1.194 0.636 0.279-0.279-0.346-1.272 0.837-0.926-0.134-0.368h-1.060l-0.592-1.071h-0.357l-0.592 1.071h-1.060zM8.583 6.819q0.357 0 0.497 0.179t0.128 0.703l1.942-0.234q0-0.614-0.195-1.032t-0.564-0.625-0.77-0.285-0.949-0.078q-1.484 0-2.221 0.642t-0.737 2.037v0.804h-1.071v1.429h0.848q0.223 0 0.223 0.089v4.263q0 0.156-0.056 0.223t-0.201 0.078l-0.815 0.078v0.982h5v-0.96l-1.663-0.156q-0.067-0.011-0.095-0.017t-0.039-0.028-0.006-0.045 0.011-0.078 0.006-0.112v-4.319h2.132l0.424-1.429h-2.578q-0.067 0-0.022-0.067t0.045-0.1v-0.893q0-0.301 0.017-0.452t0.084-0.313 0.218-0.223 0.407-0.061zM15.357 16.071v-0.96l-0.603-0.1q-0.078-0.011-0.106-0.028t-0.028-0.033 0.011-0.084 0.011-0.134v-5.804h-3.069l-0.257 1.127 0.926 0.246q0.257 0.078 0.257 0.301v4.129q0 0.156-0.067 0.206t-0.223 0.073l-0.781 0.1v0.96h3.929z"></path>
</svg>
