<!-- Generated by IcoMoon.io -->
<svg version="1.1" xmlns="http://www.w3.org/2000/svg" width="20" height="20" viewBox="0 0 20 20">
<title>fort-awesome</title>
<path d="M7.143 11.25v-2.5q0-0.179-0.179-0.179h-1.071q-0.179 0-0.179 0.179v2.5q0 0.179 0.179 0.179h1.071q0.179 0 0.179-0.179zM12.857 11.25v-2.5q0-0.179-0.179-0.179h-1.071q-0.179 0-0.179 0.179v2.5q0 0.179 0.179 0.179h1.071q0.179 0 0.179-0.179zM18.571 11.607v8.393h-7.143v-3.571q0-0.893-0.625-1.518t-1.518-0.625-1.518 0.625-0.625 1.518v3.571h-7.143v-8.393q0-0.179 0.179-0.179h1.071q0.179 0 0.179 0.179v1.25h1.429v-6.964q0-0.179 0.179-0.179h1.071q0.179 0 0.179 0.179v1.25h1.429v-1.25q0-0.179 0.179-0.179h1.071q0.179 0 0.179 0.179v1.25h1.429v-1.25q0-0.067 0.028-0.106t0.095-0.056 0.106-0.022 0.128 0 0.1 0.006v-4.364q-0.357-0.167-0.357-0.558 0-0.257 0.184-0.435t0.43-0.179 0.43 0.179 0.184 0.435q0 0.391-0.357 0.558v0.19q0.502-0.112 0.926-0.112 0.234 0 0.664 0.084t0.608 0.084q0.19 0 0.525-0.084t0.413-0.084q0.179 0 0.179 0.179v2.344q0 0.167-0.391 0.24t-0.692 0.073q-0.201 0-0.608-0.084t-0.619-0.084q-0.446 0-1.004 0.134v1.484q0.011 0 0.1-0.006t0.128 0 0.106 0.022 0.095 0.056 0.028 0.106v1.25h1.429v-1.25q0-0.179 0.179-0.179h1.071q0.179 0 0.179 0.179v1.25h1.429v-1.25q0-0.179 0.179-0.179h1.071q0.179 0 0.179 0.179v6.964h1.429v-1.25q0-0.179 0.179-0.179h1.071q0.179 0 0.179 0.179z"></path>
</svg>
