<!-- Generated by IcoMoon.io -->
<svg version="1.1" xmlns="http://www.w3.org/2000/svg" width="20" height="20" viewBox="0 0 20 20">
<title>forumbee</title>
<path d="M11.853 1.674q-3.538 1.35-6.205 4.046t-3.996 6.256q-0.223-0.993-0.223-1.964 0-2.321 1.144-4.291t3.108-3.114 4.286-1.144q0.915 0 1.886 0.212zM14.855 3.002q1.038 0.725 1.83 1.73-4.342 1.261-7.528 4.47t-4.425 7.55q-1.038-0.804-1.73-1.808 1.25-4.308 4.408-7.489t7.444-4.453zM6.674 17.891q1.283-3.973 4.235-6.942t6.914-4.286q0.446 1.027 0.603 2.176-3.259 1.339-5.759 3.85t-3.828 5.781q-1.15-0.156-2.165-0.58zM18.571 18.538q-2.154-0.558-4.096-1.283-1.507 0.938-3.237 1.194 1.217-2.288 3.058-4.135t4.118-3.075q-0.234 1.696-1.127 3.17 0.725 1.953 1.283 4.129z"></path>
</svg>
