<!-- Generated by IcoMoon.io -->
<svg version="1.1" xmlns="http://www.w3.org/2000/svg" width="20" height="20" viewBox="0 0 20 20">
<title>foursquare</title>
<path d="M14.018 4.844l0.413-2.165q0.056-0.257-0.1-0.446t-0.391-0.19h-7.946q-0.257 0-0.43 0.19t-0.173 0.413v12.288q0 0.078 0.067 0.011l3.248-3.929q0.257-0.29 0.424-0.374t0.536-0.084h2.667q0.246 0 0.413-0.162t0.201-0.329q0.268-1.451 0.413-2.132 0.045-0.234-0.128-0.446t-0.407-0.212h-3.281q-0.324 0-0.536-0.212t-0.212-0.536v-0.469q0-0.324 0.212-0.53t0.536-0.206h3.862q0.201 0 0.391-0.151t0.223-0.329zM16.551 2.366q-0.167 0.815-0.597 2.974t-0.776 3.906-0.391 1.936q-0.067 0.246-0.1 0.363t-0.156 0.363-0.273 0.368-0.43 0.234-0.647 0.112h-3.025q-0.145 0-0.246 0.112-0.089 0.1-4.754 5.513-0.246 0.279-0.653 0.318t-0.541-0.061q-0.614-0.246-0.614-1.094v-15.737q0-0.614 0.424-1.144t1.339-0.53h9.911q1.060 0 1.417 0.592t0.112 1.775zM16.551 2.366l-1.763 8.817q0.045-0.19 0.391-1.936t0.776-3.906 0.597-2.974z"></path>
</svg>
