<!-- Generated by IcoMoon.io -->
<svg version="1.1" xmlns="http://www.w3.org/2000/svg" width="23" height="20" viewBox="0 0 23 20">
<title>gamepad</title>
<path d="M10 12.143v-1.429q0-0.156-0.1-0.257t-0.257-0.1h-2.143v-2.143q0-0.156-0.1-0.257t-0.257-0.1h-1.429q-0.156 0-0.257 0.1t-0.1 0.257v2.143h-2.143q-0.156 0-0.257 0.1t-0.1 0.257v1.429q0 0.156 0.1 0.257t0.257 0.1h2.143v2.143q0 0.156 0.1 0.257t0.257 0.1h1.429q0.156 0 0.257-0.1t0.1-0.257v-2.143h2.143q0.156 0 0.257-0.1t0.1-0.257zM16.429 12.857q0-0.592-0.419-1.010t-1.010-0.419-1.010 0.419-0.419 1.010 0.419 1.010 1.010 0.419 1.010-0.419 0.419-1.010zM19.286 10q0-0.592-0.419-1.010t-1.010-0.419-1.010 0.419-0.419 1.010 0.419 1.010 1.010 0.419 1.010-0.419 0.419-1.010zM22.143 11.429q0 2.366-1.674 4.040t-4.040 1.674q-2.143 0-3.772-1.429h-2.455q-1.629 1.429-3.772 1.429-2.366 0-4.040-1.674t-1.674-4.040 1.674-4.040 4.040-1.674h10q2.366 0 4.040 1.674t1.674 4.040z"></path>
</svg>
