<!-- Generated by IcoMoon.io -->
<svg version="1.1" xmlns="http://www.w3.org/2000/svg" width="20" height="20" viewBox="0 0 20 20">
<title>gbp</title>
<path d="M15.67 12.69v4.096q0 0.156-0.1 0.257t-0.257 0.1h-10.67q-0.156 0-0.257-0.1t-0.1-0.257v-1.674q0-0.145 0.106-0.251t0.251-0.106h1.083v-4.275h-1.060q-0.156 0-0.257-0.106t-0.1-0.251v-1.462q0-0.156 0.1-0.257t0.257-0.1h1.060v-2.489q0-1.908 1.378-3.147t3.51-1.239q2.065 0 3.739 1.395 0.1 0.089 0.112 0.229t-0.078 0.251l-1.15 1.417q-0.1 0.123-0.246 0.134-0.145 0.022-0.257-0.078-0.056-0.056-0.29-0.212t-0.77-0.357-1.038-0.201q-0.949 0-1.529 0.525t-0.58 1.373v2.4h3.404q0.145 0 0.251 0.1t0.106 0.257v1.462q0 0.145-0.106 0.251t-0.251 0.106h-3.404v4.23h4.621v-2.020q0-0.145 0.1-0.251t0.257-0.106h1.808q0.156 0 0.257 0.106t0.1 0.251z"></path>
</svg>
