<!-- Generated by IcoMoon.io -->
<svg version="1.1" xmlns="http://www.w3.org/2000/svg" width="23" height="20" viewBox="0 0 23 20">
<title>gears</title>
<path d="M10.714 10q0-1.183-0.837-2.020t-2.020-0.837-2.020 0.837-0.837 2.020 0.837 2.020 2.020 0.837 2.020-0.837 0.837-2.020zM19.286 15.714q0-0.58-0.424-1.004t-1.004-0.424-1.004 0.424-0.424 1.004q0 0.592 0.419 1.010t1.010 0.419 1.010-0.419 0.419-1.010zM19.286 4.286q0-0.58-0.424-1.004t-1.004-0.424-1.004 0.424-0.424 1.004q0 0.592 0.419 1.010t1.010 0.419 1.010-0.419 0.419-1.010zM15 8.984v2.065q0 0.112-0.078 0.218t-0.179 0.117l-1.73 0.268q-0.123 0.391-0.357 0.848 0.379 0.536 1.004 1.283 0.078 0.123 0.078 0.223 0 0.134-0.078 0.212-0.257 0.335-0.921 0.999t-0.876 0.664q-0.123 0-0.234-0.078l-1.283-1.004q-0.413 0.212-0.859 0.346-0.123 1.205-0.257 1.73-0.078 0.268-0.335 0.268h-2.076q-0.123 0-0.223-0.084t-0.112-0.195l-0.257-1.708q-0.379-0.112-0.837-0.346l-1.317 0.993q-0.078 0.078-0.223 0.078-0.123 0-0.234-0.089-1.607-1.484-1.607-1.786 0-0.1 0.078-0.212 0.112-0.156 0.458-0.592t0.525-0.681q-0.257-0.491-0.391-0.915l-1.696-0.268q-0.112-0.011-0.19-0.106t-0.078-0.218v-2.065q0-0.112 0.078-0.218t0.179-0.117l1.73-0.268q0.123-0.391 0.357-0.848-0.379-0.536-1.004-1.283-0.078-0.123-0.078-0.223 0-0.134 0.078-0.223 0.246-0.335 0.915-0.993t0.882-0.658q0.123 0 0.234 0.078l1.283 1.004q0.379-0.201 0.859-0.357 0.123-1.205 0.257-1.719 0.078-0.268 0.335-0.268h2.076q0.123 0 0.223 0.084t0.112 0.195l0.257 1.708q0.379 0.112 0.837 0.346l1.317-0.993q0.089-0.078 0.223-0.078 0.123 0 0.234 0.089 1.607 1.484 1.607 1.786 0 0.089-0.078 0.212-0.134 0.179-0.469 0.603t-0.502 0.67q0.257 0.536 0.379 0.915l1.696 0.257q0.112 0.022 0.19 0.117t0.078 0.218zM22.143 14.933v1.563q0 0.179-1.663 0.346-0.134 0.301-0.335 0.58 0.569 1.261 0.569 1.54 0 0.045-0.045 0.078-1.362 0.792-1.384 0.792-0.089 0-0.513-0.525t-0.58-0.759q-0.223 0.022-0.335 0.022t-0.335-0.022q-0.156 0.234-0.58 0.759t-0.513 0.525q-0.022 0-1.384-0.792-0.045-0.033-0.045-0.078 0-0.279 0.569-1.54-0.201-0.279-0.335-0.58-1.663-0.167-1.663-0.346v-1.563q0-0.179 1.663-0.346 0.145-0.324 0.335-0.58-0.569-1.261-0.569-1.54 0-0.045 0.045-0.078 0.045-0.022 0.391-0.223t0.658-0.379 0.335-0.179q0.089 0 0.513 0.519t0.58 0.753q0.223-0.022 0.335-0.022t0.335 0.022q0.569-0.792 1.027-1.25l0.067-0.022q0.045 0 1.384 0.781 0.045 0.033 0.045 0.078 0 0.279-0.569 1.54 0.19 0.257 0.335 0.58 1.663 0.167 1.663 0.346zM22.143 3.504v1.563q0 0.179-1.663 0.346-0.134 0.301-0.335 0.58 0.569 1.261 0.569 1.54 0 0.045-0.045 0.078-1.362 0.792-1.384 0.792-0.089 0-0.513-0.525t-0.58-0.759q-0.223 0.022-0.335 0.022t-0.335-0.022q-0.156 0.234-0.58 0.759t-0.513 0.525q-0.022 0-1.384-0.792-0.045-0.033-0.045-0.078 0-0.279 0.569-1.54-0.201-0.279-0.335-0.58-1.663-0.167-1.663-0.346v-1.563q0-0.179 1.663-0.346 0.145-0.324 0.335-0.58-0.569-1.261-0.569-1.54 0-0.045 0.045-0.078 0.045-0.022 0.391-0.223t0.658-0.379 0.335-0.179q0.089 0 0.513 0.519t0.58 0.753q0.223-0.022 0.335-0.022t0.335 0.022q0.569-0.792 1.027-1.25l0.067-0.022q0.045 0 1.384 0.781 0.045 0.033 0.045 0.078 0 0.279-0.569 1.54 0.19 0.257 0.335 0.58 1.663 0.167 1.663 0.346z"></path>
</svg>
