<!-- Generated by IcoMoon.io -->
<svg version="1.1" xmlns="http://www.w3.org/2000/svg" width="20" height="20" viewBox="0 0 20 20">
<title>get-pocket</title>
<path d="M17.868 1.429q0.725 0 1.228 0.508t0.502 1.233v5.792q0 1.964-0.759 3.75t-2.037 3.069-3.058 2.037-3.733 0.753q-1.964 0-3.744-0.753t-3.064-2.037-2.042-3.069-0.759-3.75v-5.792q0-0.714 0.513-1.228t1.228-0.513h15.725zM10.011 13.304q0.525 0 0.915-0.368l4.509-4.33q0.413-0.391 0.413-0.949 0-0.547-0.385-0.932t-0.932-0.385q-0.525 0-0.915 0.368l-3.605 3.46-3.605-3.46q-0.391-0.368-0.904-0.368-0.547 0-0.932 0.385t-0.385 0.932q0 0.569 0.402 0.949l4.52 4.33q0.368 0.368 0.904 0.368z"></path>
</svg>
