<!-- Generated by IcoMoon.io -->
<svg version="1.1" xmlns="http://www.w3.org/2000/svg" width="20" height="20" viewBox="0 0 20 20">
<title>gift</title>
<path d="M11.786 15.134v-7.991h-3.571v7.991q0 0.279 0.201 0.43t0.513 0.151h2.143q0.313 0 0.513-0.151t0.201-0.43zM6.696 5.714h2.176l-1.406-1.797q-0.29-0.346-0.77-0.346-0.446 0-0.759 0.313t-0.313 0.759 0.313 0.759 0.759 0.313zM14.375 4.643q0-0.446-0.313-0.759t-0.759-0.313q-0.48 0-0.77 0.346l-1.395 1.797h2.165q0.446 0 0.759-0.313t0.313-0.759zM18.571 7.5v3.571q0 0.156-0.1 0.257t-0.257 0.1h-1.071v4.643q0 0.446-0.313 0.759t-0.759 0.313h-12.143q-0.446 0-0.759-0.313t-0.313-0.759v-4.643h-1.071q-0.156 0-0.257-0.1t-0.1-0.257v-3.571q0-0.156 0.1-0.257t0.257-0.1h4.911q-1.038 0-1.769-0.731t-0.731-1.769 0.731-1.769 1.769-0.731q1.194 0 1.875 0.859l1.429 1.842 1.429-1.842q0.681-0.859 1.875-0.859 1.038 0 1.769 0.731t0.731 1.769-0.731 1.769-1.769 0.731h4.911q0.156 0 0.257 0.1t0.1 0.257z"></path>
</svg>
