<!-- Generated by IcoMoon.io -->
<svg version="1.1" xmlns="http://www.w3.org/2000/svg" width="20" height="20" viewBox="0 0 20 20">
<title>git-square</title>
<path d="M7.924 14.598q0 0.737-1.038 0.737-1.194 0-1.194-0.703 0-0.714 1.094-0.714 1.138 0 1.138 0.681zM7.522 9.397q0 0.949-0.826 0.949-0.859 0-0.859-0.938 0-1.004 0.859-1.004 0.402 0 0.614 0.285t0.212 0.709zM9.375 8.56v-1.395q-0.871 0.324-1.507 0.324-0.558-0.324-1.228-0.324-0.96 0-1.618 0.636t-0.658 1.596q0 0.558 0.329 1.138t0.82 0.748v0.033q-0.424 0.19-0.424 0.949 0 0.592 0.458 0.859v0.033q-1.261 0.413-1.261 1.551 0 0.502 0.223 0.876t0.603 0.569 0.804 0.285 0.904 0.089q2.5 0 2.5-2.098 0-0.748-0.536-1.105t-1.406-0.513q-0.301-0.056-0.575-0.229t-0.273-0.441q0-0.491 0.547-0.58 0.859-0.167 1.362-0.781t0.502-1.496q0-0.268-0.112-0.58 0.413-0.1 0.547-0.145zM10.033 13.237h1.529q-0.022-0.301-0.022-0.915v-4.319q0-0.513 0.022-0.77h-1.529q0.033 0.257 0.033 0.792v4.375q0 0.558-0.033 0.837zM15.714 13.058v-1.35q-0.335 0.234-0.759 0.234-0.592 0-0.592-0.915v-2.511h0.58q0.1 0 0.296 0.011t0.296 0.011v-1.306h-1.172q0-0.915 0.033-1.138h-1.563q0.045 0.268 0.045 0.614v0.525h-0.67v1.306q0.402-0.033 0.413-0.033 0.033 0 0.123 0.006t0.134 0.006v0.022h-0.022v2.422q0 0.413 0.028 0.714t0.128 0.631 0.273 0.541 0.485 0.346 0.737 0.134q0.714 0 1.205-0.268zM11.741 5.179q0-0.402-0.268-0.709t-0.67-0.307-0.675 0.301-0.273 0.714q0 0.402 0.279 0.698t0.67 0.296 0.664-0.301 0.273-0.692zM18.571 4.643v10.714q0 1.328-0.943 2.271t-2.271 0.943h-10.714q-1.328 0-2.271-0.943t-0.943-2.271v-10.714q0-1.328 0.943-2.271t2.271-0.943h10.714q1.328 0 2.271 0.943t0.943 2.271z"></path>
</svg>
