<!-- Generated by IcoMoon.io -->
<svg version="1.1" xmlns="http://www.w3.org/2000/svg" width="20" height="20" viewBox="0 0 20 20">
<title>git</title>
<path d="M6.641 16.897q0-1.116-1.842-1.116-1.763 0-1.763 1.161 0 1.127 1.92 1.127 1.685 0 1.685-1.172zM5.982 8.471q0-0.681-0.335-1.138t-0.993-0.458q-1.384 0-1.384 1.618 0 1.507 1.384 1.507 1.328 0 1.328-1.529zM8.984 4.855v2.254q-0.402 0.134-0.882 0.246 0.179 0.48 0.179 0.938 0 1.417-0.815 2.416t-2.199 1.256q-0.446 0.089-0.664 0.301t-0.218 0.647q0 0.346 0.251 0.575t0.647 0.357 0.876 0.246 0.96 0.285 0.876 0.419 0.647 0.714 0.251 1.099q0 3.393-4.051 3.393-0.77 0-1.451-0.14t-1.295-0.458-0.977-0.915-0.363-1.423q0-1.842 2.031-2.511v-0.045q-0.748-0.458-0.748-1.406 0-1.217 0.703-1.529v-0.045q-0.804-0.268-1.334-1.211t-0.53-1.847q0-1.551 1.060-2.584t2.623-1.032q1.071 0 1.987 0.525 1.094 0 2.433-0.525zM12.533 14.688h-2.478q0.045-0.502 0.045-1.496v-6.797q0-1.049-0.045-1.429h2.478q-0.045 0.368-0.045 1.384v6.842q0 0.993 0.045 1.496zM19.241 12.21v2.188q-0.792 0.435-1.942 0.435-0.692 0-1.194-0.223t-0.781-0.558-0.441-0.871-0.206-1.027-0.045-1.15v-3.917h0.022v-0.045q-0.078 0-0.212-0.011t-0.201-0.011q-0.234 0-0.658 0.067v-2.121h1.071v-0.848q0-0.603-0.067-0.993h2.533q-0.067 0.458-0.067 1.842h1.908v2.121q-0.167 0-0.485-0.022t-0.474-0.022h-0.949v4.074q0 1.462 0.971 1.462 0.681 0 1.217-0.368zM12.813 1.641q0 0.647-0.435 1.133t-1.071 0.485q-0.647 0-1.094-0.485t-0.446-1.133q0-0.658 0.441-1.15t1.099-0.491q0.647 0 1.077 0.497t0.43 1.144z"></path>
</svg>
