<!-- Generated by IcoMoon.io -->
<svg version="1.1" xmlns="http://www.w3.org/2000/svg" width="20" height="20" viewBox="0 0 20 20">
<title>github-square</title>
<path d="M7.221 13.393q0.045-0.067-0.033-0.145-0.1-0.078-0.156-0.022-0.045 0.067 0.033 0.145 0.1 0.078 0.156 0.022zM6.908 12.935q-0.056-0.078-0.134-0.045-0.067 0.045 0 0.134 0.078 0.089 0.134 0.056 0.067-0.045 0-0.145zM6.451 12.489q0.022-0.045-0.056-0.089-0.078-0.022-0.089 0.022-0.033 0.056 0.045 0.089 0.089 0.022 0.1-0.022zM6.685 12.746q0.022-0.011 0.017-0.050t-0.039-0.061q-0.067-0.078-0.112-0.033t0.011 0.123q0.067 0.067 0.123 0.022zM7.645 13.583q0.022-0.078-0.1-0.123-0.1-0.033-0.145 0.045-0.022 0.078 0.1 0.123 0.1 0.033 0.145-0.045zM8.114 13.616q0-0.089-0.134-0.089-0.112 0-0.112 0.089t0.123 0.089 0.123-0.089zM8.549 13.538q-0.022-0.078-0.145-0.056t-0.1 0.1q0.022 0.089 0.134 0.067t0.112-0.112zM15.714 10q0-2.366-1.674-4.040t-4.040-1.674-4.040 1.674-1.674 4.040q0 1.864 1.094 3.354t2.812 2.070q0.201 0.033 0.296-0.056t0.095-0.223q0-0.58-0.011-1.060-0.067 0.011-0.173 0.028t-0.396 0.022-0.536-0.045-0.485-0.223-0.329-0.463q-0.257-0.658-0.636-0.826-0.022-0.011-0.050-0.039l-0.089-0.089-0.078-0.106 0.045-0.084 0.218-0.039q0.067 0 0.167 0.022t0.335 0.173 0.368 0.396q0.179 0.313 0.419 0.469t0.485 0.156 0.424-0.039 0.335-0.106q0.078-0.525 0.368-0.77-0.547-0.067-0.96-0.206t-0.815-0.435-0.619-0.848-0.218-1.334q0-0.882 0.592-1.529-0.268-0.692 0.056-1.518 0.212-0.067 0.608 0.084t0.675 0.329l0.29 0.179q0.647-0.19 1.429-0.19t1.429 0.19q0.123-0.078 0.318-0.201t0.619-0.29 0.636-0.1q0.324 0.826 0.056 1.518 0.592 0.647 0.592 1.529 0 0.636-0.156 1.122t-0.396 0.781-0.597 0.497-0.698 0.29-0.765 0.134q0.391 0.346 0.391 1.060 0 0.446-0.006 0.993t-0.006 0.569q0 0.134 0.095 0.223t0.296 0.056q1.719-0.58 2.813-2.070t1.094-3.354zM18.571 4.643v10.714q0 1.328-0.943 2.271t-2.271 0.943h-10.714q-1.328 0-2.271-0.943t-0.943-2.271v-10.714q0-1.328 0.943-2.271t2.271-0.943h10.714q1.328 0 2.271 0.943t0.943 2.271z"></path>
</svg>
