<!-- Generated by IcoMoon.io -->
<svg version="1.1" xmlns="http://www.w3.org/2000/svg" width="20" height="20" viewBox="0 0 20 20">
<title>github</title>
<path d="M10 1.429q2.333 0 4.302 1.15t3.119 3.119 1.15 4.302q0 2.801-1.635 5.039t-4.224 3.097q-0.301 0.056-0.446-0.078t-0.145-0.335q0-0.033 0.006-0.854t0.006-1.501q0-1.083-0.58-1.585 0.636-0.067 1.144-0.201t1.049-0.435 0.904-0.742 0.592-1.172 0.229-1.68q0-1.328-0.882-2.299 0.413-1.016-0.089-2.277-0.313-0.1-0.904 0.123t-1.027 0.491l-0.424 0.268q-1.038-0.29-2.143-0.29t-2.143 0.29q-0.179-0.123-0.474-0.301t-0.932-0.43-0.949-0.151q-0.502 1.261-0.089 2.277-0.882 0.971-0.882 2.299 0 0.949 0.229 1.674t0.586 1.172 0.898 0.748 1.049 0.435 1.144 0.201q-0.435 0.402-0.547 1.15-0.234 0.112-0.502 0.167t-0.636 0.056-0.731-0.24-0.619-0.698q-0.212-0.357-0.541-0.58t-0.552-0.268l-0.223-0.033q-0.234 0-0.324 0.050t-0.056 0.128 0.1 0.156 0.145 0.134l0.078 0.056q0.246 0.112 0.485 0.424t0.352 0.569l0.112 0.257q0.145 0.424 0.491 0.686t0.748 0.335 0.776 0.078 0.619-0.039l0.257-0.045q0 0.424 0.006 0.988t0.006 0.608q0 0.201-0.145 0.335t-0.446 0.078q-2.589-0.859-4.224-3.097t-1.635-5.039q0-2.333 1.15-4.302t3.119-3.119 4.302-1.15zM4.676 13.739q0.033-0.078-0.078-0.134-0.112-0.033-0.145 0.022-0.033 0.078 0.078 0.134 0.1 0.067 0.145-0.022zM5.022 14.118q0.078-0.056-0.022-0.179-0.112-0.1-0.179-0.033-0.078 0.056 0.022 0.179 0.112 0.112 0.179 0.033zM5.357 14.621q0.1-0.078 0-0.212-0.089-0.145-0.19-0.067-0.1 0.056 0 0.201t0.19 0.078zM5.826 15.089q0.089-0.089-0.045-0.212-0.134-0.134-0.223-0.033-0.1 0.089 0.045 0.212 0.134 0.134 0.223 0.033zM6.462 15.368q0.033-0.123-0.145-0.179-0.167-0.045-0.212 0.078t0.145 0.167q0.167 0.067 0.212-0.067zM7.165 15.424q0-0.145-0.19-0.123-0.179 0-0.179 0.123 0 0.145 0.19 0.123 0.179 0 0.179-0.123zM7.813 15.313q-0.022-0.123-0.201-0.1-0.179 0.033-0.156 0.167t0.201 0.089 0.156-0.156z"></path>
</svg>
