<!-- Generated by IcoMoon.io -->
<svg version="1.1" xmlns="http://www.w3.org/2000/svg" width="20" height="20" viewBox="0 0 20 20">
<title>github-alt</title>
<path d="M7.857 13.571q0 0.446-0.14 0.915t-0.48 0.848-0.809 0.379-0.809-0.379-0.48-0.848-0.14-0.915 0.14-0.915 0.48-0.848 0.809-0.379 0.809 0.379 0.48 0.848 0.14 0.915zM15 13.571q0 0.446-0.14 0.915t-0.48 0.848-0.809 0.379-0.809-0.379-0.48-0.848-0.14-0.915 0.14-0.915 0.48-0.848 0.809-0.379 0.809 0.379 0.48 0.848 0.14 0.915zM16.786 13.571q0-1.339-0.77-2.277t-2.087-0.938q-0.458 0-2.176 0.234-0.792 0.123-1.752 0.123t-1.752-0.123q-1.696-0.234-2.176-0.234-1.317 0-2.087 0.938t-0.77 2.277q0 0.982 0.357 1.713t0.904 1.15 1.362 0.67 1.563 0.329 1.663 0.078h1.875q0.915 0 1.663-0.078t1.563-0.329 1.362-0.67 0.904-1.15 0.357-1.713zM19.286 11.607q0 2.31-0.681 3.694-0.424 0.859-1.177 1.484t-1.574 0.96-1.897 0.53-1.914 0.246-1.864 0.050q-0.871 0-1.585-0.033t-1.646-0.14-1.702-0.335-1.529-0.575-1.35-0.904-0.96-1.283q-0.692-1.373-0.692-3.694 0-2.645 1.518-4.42-0.301-0.915-0.301-1.897 0-1.295 0.569-2.433 1.205 0 2.121 0.441t2.109 1.378q1.641-0.391 3.449-0.391 1.652 0 3.125 0.357 1.172-0.915 2.087-1.35t2.109-0.435q0.569 1.138 0.569 2.433 0 0.971-0.301 1.875 1.518 1.786 1.518 4.442z"></path>
</svg>
