<!-- Generated by IcoMoon.io -->
<svg version="1.1" xmlns="http://www.w3.org/2000/svg" width="20" height="20" viewBox="0 0 20 20">
<title>glide</title>
<path d="M11.094 5.748q0 0.301-0.145 1.049-0.123 0.558-0.352 1.674t-0.34 1.674q-0.022 0.123-0.050 0.14t-0.151 0.028q-0.223 0.022-0.346 0.022-0.647 0-0.938-0.552t-0.29-1.267q0-0.982 0.391-1.942t1.15-1.384q0.313-0.156 0.569-0.156 0.313 0 0.407 0.184t0.095 0.53zM16.518 10.48q0-0.156-0.435-0.843t-0.58-0.742q-0.234-0.089-0.379-0.089-1.016 0-2.522 0.859l-0.022-0.022q0.033-0.246 0.307-1.507t0.273-1.987q0-2.6-2.701-2.6-0.268 0-0.759 0.067-1.049 0.19-1.881 0.999t-1.244 1.858-0.413 2.109q0 1.629 0.898 2.511t2.539 0.882q0.279 0 0.279 0.033t-0.011 0.056q-0.045 0.379-0.29 1.306-0.156 0.58-0.575 1.127t-0.921 0.547q-0.469 0-0.469-0.525 0-0.268 0.117-0.53t0.279-0.441 0.329-0.318 0.29-0.223 0.123-0.095q0-0.033-0.078-0.112-0.268-0.246-0.653-0.407t-0.731-0.162q-0.391 0-0.709 0.379t-0.458 0.837-0.14 0.837q0 0.982 0.575 1.585t1.546 0.603q0.915 0 1.73-0.592t1.311-1.406 0.731-1.708q0.067-0.246 0.173-0.742t0.162-0.742q0.033-0.134 0.156-0.201 1.317-0.67 2.533-0.67 0.536 0 1.417 0.201 0.011 0.011 0.045 0.011 0.056 0 0.106-0.050t0.050-0.095zM18.571 4.643v10.714q0 1.328-0.943 2.271t-2.271 0.943h-10.714q-1.328 0-2.271-0.943t-0.943-2.271v-10.714q0-1.328 0.943-2.271t2.271-0.943h10.714q1.328 0 2.271 0.943t0.943 2.271z"></path>
</svg>
