<!-- Generated by IcoMoon.io -->
<svg version="1.1" xmlns="http://www.w3.org/2000/svg" width="20" height="20" viewBox="0 0 20 20">
<title>glide-g</title>
<path d="M9.738 3.404q0-0.268-0.022-0.43t-0.095-0.335-0.234-0.257-0.419-0.084q-0.435 0-0.871 0.257-1.172 0.647-1.775 2.126t-0.603 3.008q0 0.491 0.095 0.954t0.296 0.898 0.586 0.698 0.91 0.262q0.045 0 0.201 0.006t0.223 0 0.179-0.033 0.167-0.095 0.078-0.179q0.179-0.859 0.536-2.584t0.536-2.584q0.212-1.016 0.212-1.629zM18.153 10.725q0 0.078-0.084 0.151t-0.173 0.073l-0.067-0.011q-0.246-0.033-0.692-0.123t-0.804-0.14-0.703-0.050q-1.864 0-3.917 1.038-0.167 0.089-0.234 0.301-0.112 0.402-0.273 1.177t-0.251 1.122q-0.257 1.016-0.781 2.003t-1.256 1.836-1.724 1.373-2.065 0.525q-1.507 0-2.394-0.932t-0.887-2.45q0-0.592 0.218-1.306t0.703-1.3 1.088-0.586q0.424 0 1.339 0.374t0.926 0.686q0 0.011-0.184 0.14t-0.441 0.346-0.513 0.497-0.435 0.681-0.179 0.826q0 0.368 0.184 0.592t0.541 0.223q0.502 0 0.949-0.352t0.742-0.871 0.536-1.177 0.363-1.194 0.179-1.004v-0.1q0-0.022-0.039-0.039t-0.095-0.017h-0.112l-0.112 0.006-0.067 0.006q-2.533 0-3.929-1.367t-1.395-3.89q0-1.205 0.385-2.467t1.071-2.344 1.741-1.869 2.282-0.999q0.58-0.1 1.183-0.1 4.174 0 4.174 4.018 0 1.094-0.424 3.047t-0.48 2.355l0.033 0.033q1.127-0.636 2.037-0.982t1.869-0.346q0.246 0 0.592 0.145 0.212 0.078 0.893 1.144t0.681 1.3z"></path>
</svg>
