<!-- Generated by IcoMoon.io -->
<svg version="1.1" xmlns="http://www.w3.org/2000/svg" width="20" height="20" viewBox="0 0 20 20">
<title>globe</title>
<path d="M10 1.429q2.333 0 4.302 1.15t3.119 3.119 1.15 4.302-1.15 4.302-3.119 3.119-4.302 1.15-4.302-1.15-3.119-3.119-1.15-4.302 1.15-4.302 3.119-3.119 4.302-1.15zM13.058 7.243q-0.022 0.011-0.106 0.106t-0.151 0.106q0.022 0 0.050-0.056t0.056-0.123 0.039-0.078q0.067-0.078 0.246-0.167 0.156-0.067 0.58-0.134 0.379-0.089 0.569 0.123-0.022-0.022 0.106-0.145t0.162-0.134q0.033-0.022 0.167-0.050t0.167-0.084l0.022-0.246q-0.134 0.011-0.195-0.078t-0.073-0.234q0 0.022-0.067 0.089 0-0.078-0.050-0.089t-0.128 0.011-0.1 0.011q-0.112-0.033-0.167-0.084t-0.089-0.184-0.045-0.167q-0.022-0.056-0.106-0.123t-0.106-0.112q-0.011-0.022-0.028-0.061t-0.033-0.073-0.045-0.061-0.061-0.028-0.078 0.056-0.084 0.112-0.050 0.056q-0.033-0.022-0.067-0.017t-0.050 0.011-0.050 0.033-0.056 0.039q-0.033 0.022-0.095 0.033t-0.095 0.022q0.167-0.056-0.011-0.123-0.112-0.045-0.179-0.033 0.1-0.045 0.084-0.134t-0.095-0.156h0.056q-0.011-0.045-0.095-0.095t-0.195-0.095-0.145-0.067q-0.089-0.056-0.379-0.106t-0.368-0.006q-0.056 0.067-0.050 0.117t0.045 0.156 0.039 0.14q0.011 0.067-0.061 0.145t-0.073 0.134q0 0.078 0.156 0.173t0.112 0.24q-0.033 0.089-0.179 0.179t-0.179 0.134q-0.056 0.089-0.017 0.206t0.117 0.184q0.022 0.022 0.017 0.045t-0.039 0.050-0.061 0.045-0.073 0.039l-0.033 0.022q-0.123 0.056-0.229-0.067t-0.151-0.29q-0.078-0.279-0.179-0.335-0.257-0.089-0.324 0.011-0.056-0.145-0.458-0.29-0.279-0.1-0.647-0.045 0.067-0.011 0-0.167-0.078-0.167-0.212-0.134 0.033-0.067 0.045-0.195t0.011-0.151q0.033-0.145 0.134-0.257 0.011-0.011 0.078-0.095t0.106-0.151 0.006-0.067q0.391 0.045 0.558-0.123 0.056-0.056 0.128-0.19t0.117-0.19q0.1-0.067 0.156-0.061t0.162 0.061 0.162 0.056q0.156 0.011 0.173-0.123t-0.084-0.223q0.134 0.011 0.033-0.19-0.045-0.078-0.089-0.1-0.134-0.045-0.301 0.056-0.089 0.045 0.022 0.089-0.011-0.011-0.106 0.117t-0.184 0.195-0.179-0.056q-0.011-0.011-0.061-0.151t-0.106-0.151q-0.089 0-0.179 0.167 0.033-0.089-0.123-0.167t-0.268-0.089q0.212-0.134-0.089-0.301-0.078-0.045-0.229-0.056t-0.218 0.045q-0.056 0.078-0.061 0.128t0.056 0.089 0.117 0.061 0.128 0.045 0.095 0.033q0.156 0.112 0.089 0.156-0.022 0.011-0.095 0.039t-0.128 0.050-0.067 0.045q-0.033 0.045 0 0.156t-0.022 0.156q-0.056-0.056-0.1-0.195t-0.078-0.184q0.078 0.1-0.279 0.067l-0.112-0.011q-0.045 0-0.179 0.022t-0.229 0.011-0.151-0.089q-0.045-0.089 0-0.223 0.011-0.045 0.045-0.022-0.045-0.033-0.123-0.106t-0.112-0.095q-0.513 0.167-1.049 0.458 0.067 0.011 0.134-0.011 0.056-0.022 0.145-0.073t0.112-0.061q0.379-0.156 0.469-0.078l0.056-0.056q0.156 0.179 0.223 0.279-0.078-0.045-0.335-0.011-0.223 0.067-0.246 0.134 0.078 0.134 0.056 0.201-0.045-0.033-0.128-0.112t-0.162-0.123-0.167-0.056q-0.179 0-0.246 0.011-1.629 0.893-2.623 2.478 0.078 0.078 0.134 0.089 0.045 0.011 0.056 0.1t0.028 0.123 0.128-0.033q0.1 0.089 0.033 0.212 0.011-0.011 0.491 0.301 0.212 0.19 0.234 0.234 0.033 0.123-0.112 0.201-0.011-0.022-0.1-0.1t-0.1-0.045q-0.033 0.056 0.006 0.206t0.117 0.14q-0.078 0-0.106 0.179t-0.028 0.396-0.011 0.262l0.022 0.011q-0.033 0.134 0.061 0.385t0.24 0.218q-0.145 0.033 0.223 0.48 0.067 0.089 0.089 0.1 0.033 0.022 0.134 0.084t0.167 0.112 0.112 0.117q0.045 0.056 0.112 0.251t0.156 0.262q-0.022 0.067 0.106 0.223t0.117 0.257q-0.011 0-0.028 0.011t-0.028 0.011q0.033 0.078 0.173 0.156t0.173 0.145q0.011 0.033 0.022 0.112t0.033 0.123 0.089 0.022q0.022-0.223-0.268-0.692-0.167-0.279-0.19-0.324-0.033-0.056-0.061-0.173t-0.050-0.162q0.022 0 0.067 0.017t0.095 0.039 0.084 0.045 0.022 0.033q-0.033 0.078 0.022 0.195t0.134 0.206 0.19 0.212 0.134 0.145q0.067 0.067 0.156 0.218t0 0.151q0.1 0 0.223 0.117t0.19 0.218q0.056 0.089 0.089 0.29t0.056 0.268q0.022 0.078 0.095 0.151t0.14 0.106l0.179 0.089 0.145 0.078q0.056 0.022 0.206 0.117t0.24 0.128q0.112 0.045 0.179 0.045t0.162-0.028 0.151-0.039q0.167-0.022 0.324 0.167t0.234 0.234q0.402 0.212 0.614 0.123-0.022 0.011 0.006 0.084t0.089 0.173 0.1 0.162 0.061 0.095q0.056 0.067 0.201 0.167t0.201 0.167q0.067-0.045 0.078-0.1-0.033 0.089 0.078 0.223t0.201 0.112q0.156-0.033 0.156-0.357-0.346 0.167-0.547-0.201 0-0.011-0.028-0.061t-0.045-0.095-0.028-0.095 0-0.084 0.056-0.033q0.1 0 0.112-0.039t-0.022-0.14-0.045-0.145q-0.011-0.089-0.123-0.223t-0.134-0.167q-0.056 0.1-0.179 0.089t-0.179-0.1q0 0.011-0.017 0.061t-0.017 0.073q-0.145 0-0.167-0.011 0.011-0.033 0.028-0.195t0.039-0.251q0.011-0.045 0.061-0.134t0.084-0.162 0.045-0.14-0.050-0.106-0.195-0.028q-0.212 0.011-0.29 0.223-0.011 0.033-0.033 0.117t-0.056 0.128-0.1 0.078q-0.078 0.033-0.268 0.022t-0.268-0.056q-0.145-0.089-0.251-0.324t-0.106-0.413q0-0.112 0.028-0.296t0.033-0.279-0.061-0.273q0.033-0.022 0.1-0.106t0.112-0.117q0.022-0.011 0.050-0.017t0.050 0 0.045-0.017 0.033-0.067q-0.011-0.011-0.045-0.033-0.033-0.033-0.045-0.033 0.078 0.033 0.318-0.017t0.307 0.017q0.167 0.123 0.246-0.022 0-0.011-0.028-0.106t-0.006-0.151q0.056 0.301 0.324 0.1 0.033 0.033 0.173 0.056t0.195 0.056q0.033 0.022 0.078 0.061t0.061 0.050 0.056-0.006 0.095-0.073q0.112 0.156 0.134 0.268 0.123 0.446 0.212 0.491 0.078 0.033 0.123 0.022t0.050-0.106 0-0.156-0.017-0.14l-0.011-0.089v-0.201l-0.011-0.089q-0.167-0.033-0.206-0.134t0.017-0.206 0.167-0.206q0.011-0.011 0.089-0.039t0.173-0.073 0.14-0.089q0.234-0.212 0.167-0.391 0.078 0 0.123-0.1-0.011 0-0.056-0.033t-0.084-0.056-0.050-0.022q0.1-0.056 0.022-0.179 0.056-0.033 0.084-0.123t0.084-0.112q0.1 0.134 0.234 0.022 0.089-0.089 0.011-0.179 0.056-0.078 0.229-0.117t0.206-0.106q0.078 0.022 0.089-0.022t0.011-0.134 0.033-0.134q0.045-0.056 0.167-0.1t0.145-0.056l0.19-0.123q0.033-0.045 0-0.045 0.201 0.022 0.346-0.123 0.112-0.123-0.067-0.223 0.033-0.067-0.033-0.106t-0.167-0.061q0.033-0.011 0.128-0.006t0.117-0.017q0.167-0.112-0.078-0.179-0.19-0.056-0.48 0.134zM11.239 17.031q2.299-0.402 3.917-2.109-0.033-0.033-0.14-0.050t-0.14-0.039q-0.201-0.078-0.268-0.089 0.011-0.078-0.028-0.145t-0.089-0.1-0.14-0.089-0.123-0.078q-0.022-0.022-0.078-0.067t-0.078-0.061-0.084-0.050-0.095-0.022-0.112 0.011l-0.033 0.011q-0.033 0.011-0.061 0.028t-0.061 0.033-0.045 0.033 0 0.028q-0.234-0.19-0.402-0.246-0.056-0.011-0.123-0.061t-0.117-0.078-0.112-0.017-0.128 0.078q-0.056 0.056-0.067 0.167t-0.022 0.145q-0.078-0.056 0-0.195t0.022-0.206q-0.033-0.067-0.117-0.050t-0.134 0.050-0.128 0.095-0.1 0.073-0.095 0.061-0.095 0.084q-0.033 0.045-0.067 0.134t-0.056 0.123q-0.022-0.045-0.128-0.073t-0.106-0.061q0.022 0.112 0.045 0.391t0.056 0.424q0.078 0.346-0.134 0.536-0.301 0.279-0.324 0.446-0.045 0.246 0.134 0.29 0 0.078-0.089 0.229t-0.078 0.24q0 0.067 0.022 0.179z"></path>
</svg>
