<!-- Generated by IcoMoon.io -->
<svg version="1.1" xmlns="http://www.w3.org/2000/svg" width="20" height="20" viewBox="0 0 20 20">
<title>google</title>
<path d="M10 8.772h8.092q0.134 0.748 0.134 1.429 0 2.422-1.016 4.325t-2.896 2.974-4.314 1.071q-1.752 0-3.337-0.675t-2.734-1.825-1.825-2.734-0.675-3.337 0.675-3.337 1.825-2.734 2.734-1.825 3.337-0.675q3.348 0 5.748 2.243l-2.333 2.243q-1.373-1.328-3.415-1.328-1.44 0-2.662 0.725t-1.936 1.97-0.714 2.718 0.714 2.718 1.936 1.97 2.662 0.725q0.971 0 1.786-0.268t1.339-0.67 0.915-0.915 0.575-0.971 0.251-0.871h-4.866v-2.946z"></path>
</svg>
