<!-- Generated by IcoMoon.io -->
<svg version="1.1" xmlns="http://www.w3.org/2000/svg" width="20" height="20" viewBox="0 0 20 20">
<title>google-plus-official</title>
<path d="M11.663 10.1q0-0.368-0.067-0.714h-4.040v1.473h2.422q-0.134 0.848-0.831 1.345t-1.59 0.497q-1.105 0-1.886-0.798t-0.781-1.903 0.781-1.903 1.886-0.798q1.038 0 1.708 0.658l1.161-1.127q-1.205-1.116-2.868-1.116-1.786 0-3.036 1.256t-1.25 3.030 1.25 3.030 3.036 1.256q1.842 0 2.974-1.172t1.133-3.013zM15.513 10.614h1.217v-1.228h-1.217v-1.228h-1.228v1.228h-1.228v1.228h1.228v1.228h1.228v-1.228zM18.571 10q0 2.333-1.15 4.302t-3.119 3.119-4.302 1.15-4.302-1.15-3.119-3.119-1.15-4.302 1.15-4.302 3.119-3.119 4.302-1.15 4.302 1.15 3.119 3.119 1.15 4.302z"></path>
</svg>
