<!-- Generated by IcoMoon.io -->
<svg version="1.1" xmlns="http://www.w3.org/2000/svg" width="20" height="20" viewBox="0 0 20 20">
<title>google-plus-square</title>
<path d="M11.663 10.1q0-0.29-0.067-0.714h-4.040v1.473h2.422q-0.033 0.268-0.184 0.558t-0.419 0.592-0.742 0.497-1.077 0.195q-1.105 0-1.886-0.792t-0.781-1.908 0.781-1.908 1.886-0.792q1.027 0 1.708 0.658l1.161-1.127q-1.205-1.116-2.868-1.116-1.786 0-3.036 1.256t-1.25 3.030 1.25 3.030 3.036 1.256q1.842 0 2.974-1.172t1.133-3.013zM15.513 10.614h1.217v-1.228h-1.217v-1.228h-1.228v1.228h-1.228v1.228h1.228v1.228h1.228v-1.228zM18.571 4.643v10.714q0 1.328-0.943 2.271t-2.271 0.943h-10.714q-1.328 0-2.271-0.943t-0.943-2.271v-10.714q0-1.328 0.943-2.271t2.271-0.943h10.714q1.328 0 2.271 0.943t0.943 2.271z"></path>
</svg>
