<!-- Generated by IcoMoon.io -->
<svg version="1.1" xmlns="http://www.w3.org/2000/svg" width="26" height="20" viewBox="0 0 26 20">
<title>google-plus</title>
<path d="M16.038 10.19q0 2.321-0.971 4.135t-2.768 2.835-4.118 1.021q-1.663 0-3.181-0.647t-2.612-1.741-1.741-2.612-0.647-3.181 0.647-3.181 1.741-2.612 2.612-1.741 3.181-0.647q3.192 0 5.48 2.143l-2.221 2.132q-1.306-1.261-3.259-1.261-1.373 0-2.539 0.692t-1.847 1.881-0.681 2.595 0.681 2.595 1.847 1.881 2.539 0.692q0.926 0 1.702-0.257t1.278-0.642 0.876-0.876 0.547-0.926 0.24-0.826h-4.643v-2.813h7.723q0.134 0.703 0.134 1.362zM25.714 8.828v2.344h-2.333v2.333h-2.344v-2.333h-2.333v-2.344h2.333v-2.333h2.344v2.333h2.333z"></path>
</svg>
