<!-- Generated by IcoMoon.io -->
<svg version="1.1" xmlns="http://www.w3.org/2000/svg" width="20" height="20" viewBox="0 0 20 20">
<title>google-wallet</title>
<path d="M4.922 7.5q0.368 0 0.58 0.29 2.969 4.063 4.040 8.638h-4.978q-1.417-4.922-4.096-8.359-0.134-0.179-0.033-0.374t0.324-0.195h4.163zM11.161 11.484q-0.547 2.221-1.395 4.386-0.882-3.46-2.857-6.629 0.446-2.467 0.491-5.011 2.355 3.795 3.761 7.254zM12.266 3.571q2.623 3.616 4.291 7.796t2.059 8.633h-5.033q-0.458-7.422-6.172-16.429h4.855zM20 10q0 4.732-1.127 9.063-0.748-6.25-4.007-12.087-0.279-3.359-1.183-6.518-0.045-0.179 0.061-0.318t0.285-0.14h4.007q0.234 0 0.43 0.145t0.251 0.368q1.283 4.565 1.283 9.487z"></path>
</svg>
