<!-- Generated by IcoMoon.io -->
<svg version="1.1" xmlns="http://www.w3.org/2000/svg" width="26" height="20" viewBox="0 0 26 20">
<title>graduation-cap</title>
<path d="M19.799 9.33l0.201 3.527q0.045 0.77-0.915 1.429t-2.623 1.044-3.605 0.385-3.605-0.385-2.623-1.044-0.915-1.429l0.201-3.527 6.406 2.020q0.246 0.078 0.536 0.078t0.536-0.078zM25.714 5.714q0 0.257-0.246 0.346l-12.5 3.929q-0.045 0.011-0.112 0.011t-0.112-0.011l-7.277-2.299q-0.48 0.379-0.792 1.244t-0.379 1.992q0.703 0.402 0.703 1.217 0 0.77-0.647 1.194l0.647 4.833q0.022 0.156-0.089 0.279-0.1 0.123-0.268 0.123h-2.143q-0.167 0-0.268-0.123-0.112-0.123-0.089-0.279l0.647-4.833q-0.647-0.424-0.647-1.194 0-0.815 0.725-1.239 0.123-2.31 1.094-3.683l-3.717-1.161q-0.246-0.089-0.246-0.346t0.246-0.346l12.5-3.929q0.045-0.011 0.112-0.011t0.112 0.011l12.5 3.929q0.246 0.089 0.246 0.346z"></path>
</svg>
