<!-- Generated by IcoMoon.io -->
<svg version="1.1" xmlns="http://www.w3.org/2000/svg" width="20" height="20" viewBox="0 0 20 20">
<title>gratipay</title>
<path d="M10.056 14.531l3.906-5.279q0.179-0.246 0.273-0.658t-0.067-0.949-0.686-0.882q-0.446-0.29-0.926-0.285t-0.82 0.195-0.608 0.502q-0.402 0.446-1.071 0.446-0.658 0-1.060-0.446-0.268-0.313-0.608-0.502t-0.82-0.195-0.938 0.285q-0.513 0.346-0.675 0.882t-0.067 0.949 0.273 0.658zM18.571 10q0 2.333-1.15 4.302t-3.119 3.119-4.302 1.15-4.302-1.15-3.119-3.119-1.15-4.302 1.15-4.302 3.119-3.119 4.302-1.15 4.302 1.15 3.119 3.119 1.15 4.302z"></path>
</svg>
