<!-- Generated by IcoMoon.io -->
<svg version="1.1" xmlns="http://www.w3.org/2000/svg" width="23" height="20" viewBox="0 0 23 20">
<title>grav</title>
<path d="M15.826 5.313q-0.167-0.19-0.391-0.095t-0.29 0.318 0.056 0.424q0.156 0.19 0.446 0.162t0.379-0.229-0.201-0.58zM11.406 8.058q-0.089 0.089-0.218 0.089t-0.206-0.089q-0.089-0.089-0.089-0.212t0.089-0.201q0.078-0.089 0.206-0.089t0.218 0.089q0.078 0.078 0.078 0.201t-0.078 0.212zM13.248 8.884l-0.391 0.391q-0.134 0.145-0.329 0.145t-0.34-0.145l-0.424-0.424q-0.134-0.145-0.134-0.335t0.134-0.335l0.391-0.391q0.134-0.134 0.329-0.134t0.34 0.134l0.424 0.435q0.134 0.134 0.134 0.329t-0.134 0.329zM12.031 7.433q-0.078 0.089-0.206 0.089t-0.218-0.089q-0.078-0.089-0.078-0.212t0.078-0.212q0.089-0.089 0.212-0.089t0.212 0.089 0.089 0.212-0.089 0.212zM16.529 6.339q-0.379 0.714-1.2 0.954t-1.423-0.184q-0.424-0.313-0.681-0.742t-0.234-0.977 0.435-1.027 0.843-0.592 0.787 0.056 0.781 0.569q0.022 0.022 0.145 0.14t0.162 0.151 0.145 0.151 0.14 0.173 0.112 0.173 0.095 0.201 0.045 0.206 0.011 0.234-0.056 0.246-0.106 0.268zM18.772 11.719q0.033-0.223-0.095-0.385t-0.307-0.24-0.368-0.19-0.257-0.223q-0.446-0.792-0.938-1.099t-1.261-0.128q0.212-0.145 0.446-0.206t0.368-0.050l0.134 0.011q0.022-0.502-0.379-1.004 0.067-0.223 0.073-0.452t-0.028-0.34l-0.033-0.112q0.48-0.268 0.792-0.725t0.379-1.016q0.112-0.938-0.48-1.68t-1.529-0.854q-0.67-0.078-1.272 0.206t-0.915 0.831q-0.335 0.569-0.374 1.127t0.162 0.971 0.485 0.714 0.631 0.469q-0.502-0.045-0.982-0.402t-0.636-0.982q-0.313-1.205 0.357-2.478-0.179-0.234-0.324-0.357-0.558 0-0.993 0.212 0.212-0.268 0.469-0.413t0.402-0.156l0.145-0.011q0-0.558-0.145-0.871-0.112-0.234-0.363-0.318t-0.525 0.039-0.419 0.446q0.022-0.045 0.045-0.078-0.078 0.313-0.073 0.843t0.212 1.306 0.541 1.367q-0.279 0.156-0.525 0.402-0.391 0.179-0.954 0.787t-0.943 1.133l-0.368 0.513q-1.004 0.379-2.020 1.401t-0.837 1.814q0.011 0.179 0.123 0.301-0.167 0.134-0.335 0.335-0.234 0.279-0.234 0.603t0.24 0.446 0.709-0.067q0.458-0.212 0.859-0.552t0.614-0.675q-0.022-0.022-0.073-0.056t-0.229-0.084-0.368-0.039q0.257-0.056 0.569-0.14t0.446-0.112 0.307-0.067 0.29-0.045 0.262-0.006q0.156 0.078 0.246-0.379 0.078-0.413 0.078-1.004 0-1.138-0.446-1.674 1.183 1.15 1.127 2.444-0.011 0.324-0.167 0.558t-0.301 0.301l-0.145 0.067q-0.045 0.078-0.212 0.357t-0.29 0.508-0.296 0.58-0.279 0.681-0.19 0.703-0.073 0.742 0.112 0.703q-0.391-0.603-0.413-0.893-0.246 0.268-0.385 0.435t-0.374 0.469-0.34 0.513-0.184 0.458-0.006 0.424 0.285 0.301q0.502 0.279 1.607-0.714t2.126-2.472 1.367-2.55q0.96-0.58 1.618-1.289t0.96-1.334q0.525 1.038 1.719 1.987 1.161 0.926 1.864 0.893 0.435-0.022 0.513-0.48zM21.44 10q0 2.031-0.792 3.884t-2.132 3.192-3.198 2.132-3.89 0.792-3.89-0.792-3.198-2.132-2.132-3.192-0.792-3.884 0.792-3.884 2.132-3.192 3.198-2.132 3.89-0.792 3.89 0.792 3.198 2.132 2.132 3.192 0.792 3.884z"></path>
</svg>
