<!-- Generated by IcoMoon.io -->
<svg version="1.1" xmlns="http://www.w3.org/2000/svg" width="23" height="20" viewBox="0 0 23 20">
<title>group</title>
<path d="M7.333 10q-1.808 0.056-2.958 1.429h-1.496q-0.915 0-1.54-0.452t-0.625-1.323q0-3.94 1.384-3.94 0.067 0 0.485 0.234t1.088 0.474 1.328 0.24q0.748 0 1.484-0.257-0.056 0.413-0.056 0.737 0 1.551 0.904 2.857zM19.286 17.109q0 1.339-0.815 2.115t-2.165 0.776h-9.754q-1.35 0-2.165-0.776t-0.815-2.115q0-0.592 0.039-1.155t0.156-1.217 0.296-1.211 0.48-1.088 0.692-0.904 0.954-0.597 1.244-0.223q0.112 0 0.48 0.24t0.815 0.536 1.194 0.536 1.507 0.24 1.507-0.24 1.194-0.536 0.815-0.536 0.48-0.24q0.681 0 1.244 0.223t0.954 0.597 0.692 0.904 0.48 1.088 0.296 1.211 0.156 1.217 0.039 1.155zM7.857 2.857q0 1.183-0.837 2.020t-2.020 0.837-2.020-0.837-0.837-2.020 0.837-2.020 2.020-0.837 2.020 0.837 0.837 2.020zM15.714 7.143q0 1.775-1.256 3.030t-3.030 1.256-3.030-1.256-1.256-3.030 1.256-3.030 3.030-1.256 3.030 1.256 1.256 3.030zM22.143 9.654q0 0.871-0.625 1.323t-1.54 0.452h-1.496q-1.15-1.373-2.958-1.429 0.904-1.306 0.904-2.857 0-0.324-0.056-0.737 0.737 0.257 1.484 0.257 0.658 0 1.328-0.24t1.088-0.474 0.485-0.234q1.384 0 1.384 3.94zM20.714 2.857q0 1.183-0.837 2.020t-2.020 0.837-2.020-0.837-0.837-2.020 0.837-2.020 2.020-0.837 2.020 0.837 0.837 2.020z"></path>
</svg>
