<!-- Generated by IcoMoon.io -->
<svg version="1.1" xmlns="http://www.w3.org/2000/svg" width="20" height="20" viewBox="0 0 20 20">
<title>hand-peace-o</title>
<path d="M15.804 7.221q0.67 0 1.194 0.257 1.574 0.703 1.574 2.522v1.975q0 1.049-0.257 2.076l-0.949 3.783q-0.234 0.96-1.010 1.563t-1.758 0.603h-7.455q-1.183 0-2.020-0.837t-0.837-2.020v-4.475l-2.667-7.009q-0.19-0.502-0.19-1.016 0-1.183 0.837-2.020t2.020-0.837q0.893 0 1.624 0.508t1.044 1.334l0.19 0.491v-1.261q0-1.183 0.837-2.020t2.020-0.837 2.020 0.837 0.837 2.020v2.913q0.301-0.056 0.536-0.056 0.77 0 1.423 0.407t0.988 1.099zM13.393 7.143q-0.368 0-0.675 0.201t-0.463 0.536l-0.826 1.819-0.792 1.73h0.614q0.558 0 1.004 0.352t0.558 0.898l1.719-3.772q0.112-0.223 0.112-0.513 0-0.513-0.368-0.882t-0.882-0.368zM15.859 8.65q-0.246 0-0.452 0.089t-0.324 0.179-0.262 0.329-0.19 0.34-0.19 0.413l-1.473 3.237q-0.112 0.223-0.112 0.513 0 0.513 0.368 0.882t0.882 0.368q0.368 0 0.675-0.201t0.463-0.536l1.786-3.929q0.1-0.201 0.1-0.424 0-0.558-0.357-0.91t-0.915-0.352zM2.857 4.643q0 0.246 0.089 0.513l2.768 7.254v0.77l1.138-1.239q0.48-0.513 1.183-0.513h2.21l1.183-2.6v-5.971q0-0.592-0.419-1.010t-1.010-0.419-1.010 0.419-0.419 1.010v7.143h-0.714l-2.232-5.871q-0.156-0.413-0.525-0.664t-0.815-0.251q-0.592 0-1.010 0.419t-0.419 1.010zM14.598 18.571q0.491 0 0.876-0.301t0.508-0.781l0.949-3.783q0.212-0.815 0.212-1.73v-1.016l-1.574 3.46q-0.19 0.424-0.592 0.681t-0.871 0.257q-0.592 0-1.044-0.385t-0.541-0.965q-0.491 0.636-1.272 0.636h-2.321v-0.357h2.321q0.513 0 0.904-0.368t0.391-0.882-0.346-0.882-0.859-0.368h-3.304q-0.547 0-0.915 0.402l-1.406 1.518v3.438q0 0.592 0.419 1.010t1.010 0.419h7.455z"></path>
</svg>
