<!-- Generated by IcoMoon.io -->
<svg version="1.1" xmlns="http://www.w3.org/2000/svg" width="20" height="20" viewBox="0 0 20 20">
<title>hand-o-left</title>
<path d="M15.357 15.714h0.357v-7.143h-0.357q-0.391 0-0.753-0.134t-0.698-0.413-0.558-0.513-0.547-0.603q-0.089-0.1-0.134-0.156-0.804-0.904-1.25-1.618-0.156-0.246-0.424-0.759-0.011-0.033-0.117-0.251t-0.206-0.402-0.223-0.396-0.24-0.34-0.206-0.128q-0.792 0-1.289 0.34t-0.497 1.088q0 0.48 0.167 0.943t0.368 0.759 0.368 0.614 0.167 0.541h-6.429q-0.558 0-0.993 0.43t-0.435 0.999q0 0.58 0.424 1.004t1.004 0.424h3.694q-0.167 0.19-0.279 0.53t-0.112 0.619q0 0.77 0.592 1.328-0.201 0.357-0.201 0.77t0.195 0.82 0.53 0.586q-0.045 0.268-0.045 0.625 0 0.949 0.541 1.406t1.512 0.458q0.938 0 2.042-0.357t2.165-0.714 1.864-0.357zM18.571 15q0-0.29-0.212-0.502t-0.502-0.212-0.502 0.212-0.212 0.502 0.212 0.502 0.502 0.212 0.502-0.212 0.212-0.502zM20 8.571v7.143q0 0.592-0.419 1.010t-1.010 0.419h-3.214q-0.658 0-2.489 0.658-2.121 0.77-3.538 0.77-1.585 0-2.567-0.865t-0.971-2.427l0.011-0.056q-0.681-0.848-0.681-1.987 0-0.246 0.033-0.48-0.368-0.636-0.413-1.328h-1.886q-1.172 0-2.015-0.848t-0.843-2.020q0-1.15 0.848-1.998t2.009-0.848h4.174q-0.246-0.67-0.246-1.429 0-1.362 0.91-2.109t2.305-0.748q0.424 0 0.776 0.195t0.614 0.552 0.452 0.703 0.413 0.804 0.368 0.692q0.391 0.614 1.116 1.44 0.022 0.033 0.156 0.19t0.212 0.24 0.229 0.24 0.268 0.251 0.251 0.201 0.262 0.156 0.24 0.050h3.214q0.592 0 1.010 0.419t0.419 1.010z"></path>
</svg>
