<!-- Generated by IcoMoon.io -->
<svg version="1.1" xmlns="http://www.w3.org/2000/svg" width="20" height="20" viewBox="0 0 20 20">
<title>hand-pointer-o</title>
<path d="M7.143 1.429q-0.592 0-1.010 0.419t-0.419 1.010v10l-1.685-2.254q-0.458-0.603-1.194-0.603-0.58 0-0.993 0.424t-0.413 1.004q0 0.48 0.29 0.859l4.286 5.714q0.424 0.569 1.138 0.569h8.013q0.246 0 0.441-0.151t0.251-0.385l1.027-4.107q0.268-1.071 0.268-2.165v-2.422q0-0.458-0.313-0.792t-0.759-0.335-0.759 0.313-0.313 0.759h-0.357v-0.681q0-0.536-0.357-0.91t-0.893-0.374q-0.513 0-0.882 0.368t-0.368 0.882v0.714h-0.357v-1.004q0-0.614-0.413-1.055t-1.016-0.441q-0.592 0-1.010 0.419t-0.419 1.010v1.071h-0.357v-6.362q0-0.614-0.413-1.055t-1.016-0.441zM7.143 0q1.194 0 2.026 0.865t0.831 2.059v2.455q0.246-0.022 0.357-0.022 1.105 0 1.931 0.77 0.525-0.234 1.105-0.234 1.261 0 2.054 0.971 0.301-0.078 0.625-0.078 1.049 0 1.775 0.753t0.725 1.802v2.422q0 1.295-0.313 2.511l-1.027 4.107q-0.179 0.714-0.759 1.166t-1.317 0.452h-8.013q-0.67 0-1.278-0.307t-1.010-0.831l-4.286-5.714q-0.569-0.759-0.569-1.719 0-1.172 0.831-2.015t2.003-0.843q0.792 0 1.451 0.391v-6.105q0-1.183 0.837-2.020t2.020-0.837zM8.571 15.714v-4.286h-0.357v4.286h0.357zM11.429 15.714v-4.286h-0.357v4.286h0.357zM14.286 15.714v-4.286h-0.357v4.286h0.357z"></path>
</svg>
