<!-- Generated by IcoMoon.io -->
<svg version="1.1" xmlns="http://www.w3.org/2000/svg" width="20" height="20" viewBox="0 0 20 20">
<title>hand-stop-o</title>
<path d="M9.821 1.429q-0.513 0-0.882 0.368t-0.368 0.882v7.321h-0.357v-5.893q0-0.513-0.368-0.882t-0.882-0.368-0.882 0.368-0.368 0.882v8.75l-1.719-2.288q-0.424-0.569-1.138-0.569-0.592 0-1.010 0.419t-0.419 1.010q0 0.48 0.29 0.859l4.286 5.714q0.424 0.569 1.138 0.569h7.679q0.379 0 0.681-0.246t0.379-0.625l0.848-4.52q0.056-0.357 0.056-0.658v-5.558q0-0.513-0.368-0.882t-0.882-0.368-0.882 0.368-0.368 0.882v3.036h-0.357v-5.893q0-0.513-0.368-0.882t-0.882-0.368-0.882 0.368-0.368 0.882v5.893h-0.357v-7.321q0-0.513-0.368-0.882t-0.882-0.368zM9.821 0q0.759 0 1.401 0.396t0.988 1.077q0.212-0.045 0.469-0.045 1.105 0 1.892 0.787t0.787 1.892v0.19q1.172-0.067 2.015 0.714t0.843 1.953v5.558q0 0.446-0.089 0.926l-0.848 4.509q-0.156 0.882-0.854 1.462t-1.602 0.58h-7.679q-0.67 0-1.278-0.307t-1.010-0.831l-4.286-5.714q-0.569-0.759-0.569-1.719 0-1.183 0.837-2.020t2.020-0.837q0.871 0 1.429 0.379v-4.844q0-1.105 0.787-1.892t1.892-0.787q0.257 0 0.469 0.045 0.346-0.681 0.988-1.077t1.401-0.396z"></path>
</svg>
