<!-- Generated by IcoMoon.io -->
<svg version="1.1" xmlns="http://www.w3.org/2000/svg" width="20" height="20" viewBox="0 0 20 20">
<title>hand-o-right</title>
<path d="M2.857 15q0-0.29-0.212-0.502t-0.502-0.212-0.502 0.212-0.212 0.502 0.212 0.502 0.502 0.212 0.502-0.212 0.212-0.502zM18.571 8.571q0-0.569-0.435-0.999t-0.993-0.43h-6.429q0-0.223 0.167-0.541t0.368-0.614 0.368-0.759 0.167-0.943q0-0.748-0.497-1.088t-1.289-0.34q-0.268 0-1.004 1.551-0.268 0.491-0.413 0.725-0.446 0.714-1.25 1.618-0.792 0.904-1.127 1.183-0.77 0.636-1.563 0.636h-0.357v7.143h0.357q0.804 0 1.864 0.357t2.16 0.714 2.003 0.357q2.109 0 2.109-1.864 0-0.29-0.056-0.625 0.335-0.179 0.53-0.586t0.195-0.82-0.201-0.77q0.592-0.558 0.592-1.328 0-0.279-0.112-0.619t-0.279-0.53h3.694q0.58 0 1.004-0.424t0.424-1.004zM20 8.56q0 1.172-0.843 2.020t-2.015 0.848h-1.886q-0.045 0.692-0.413 1.328 0.033 0.234 0.033 0.48 0 1.127-0.67 1.987 0.011 1.551-0.949 2.45t-2.533 0.898q-1.484 0-3.594-0.77-1.83-0.658-2.489-0.658h-3.214q-0.592 0-1.010-0.419t-0.419-1.010v-7.143q0-0.592 0.419-1.010t1.010-0.419h3.214q0.112 0 0.24-0.050t0.262-0.156 0.251-0.201 0.268-0.251 0.229-0.24 0.212-0.24 0.156-0.19q0.725-0.826 1.116-1.44 0.145-0.234 0.368-0.692t0.413-0.804 0.452-0.703 0.614-0.552 0.776-0.195q1.395 0 2.305 0.748t0.91 2.109q0 0.759-0.246 1.429h4.174q1.161 0 2.009 0.848t0.848 1.998z"></path>
</svg>
