<!-- Generated by IcoMoon.io -->
<svg version="1.1" xmlns="http://www.w3.org/2000/svg" width="20" height="20" viewBox="0 0 20 20">
<title>hand-o-down</title>
<path d="M17.143 10.714q0-0.938-0.357-2.042t-0.714-2.165-0.357-1.864v-0.357h-7.143v0.357q0 0.391-0.134 0.753t-0.413 0.698-0.513 0.558-0.603 0.547q-0.1 0.089-0.156 0.134-0.904 0.804-1.618 1.25-0.246 0.156-0.759 0.424-0.033 0.011-0.251 0.117t-0.402 0.206-0.396 0.223-0.34 0.24-0.128 0.206q0 0.792 0.34 1.289t1.088 0.497q0.48 0 0.943-0.167t0.759-0.368 0.614-0.368 0.541-0.167v6.429q0 0.558 0.43 0.993t0.999 0.435q0.58 0 1.004-0.424t0.424-1.004v-3.694q0.513 0.391 1.15 0.391 0.77 0 1.328-0.592 0.357 0.201 0.77 0.201t0.82-0.195 0.586-0.53q0.268 0.045 0.625 0.045 0.949 0 1.406-0.541t0.458-1.512zM15.714 2.143q0-0.29-0.212-0.502t-0.502-0.212-0.502 0.212-0.212 0.502 0.212 0.502 0.502 0.212 0.502-0.212 0.212-0.502zM18.571 10.67q0 1.585-0.865 2.567t-2.427 0.971l-0.056-0.011q-0.848 0.681-1.987 0.681-0.246 0-0.48-0.033-0.603 0.335-1.328 0.413v1.886q0 1.172-0.848 2.015t-2.020 0.843q-1.15 0-1.998-0.848t-0.848-2.009v-4.174q-0.603 0.246-1.429 0.246-1.35 0-2.104-0.91t-0.753-2.305q0-0.424 0.195-0.776t0.552-0.614 0.703-0.452 0.804-0.413 0.692-0.368q0.614-0.391 1.44-1.116 0.033-0.022 0.19-0.156t0.24-0.212 0.24-0.229 0.251-0.268 0.201-0.251 0.156-0.262 0.050-0.24v-3.214q0-0.592 0.419-1.010t1.010-0.419h7.143q0.592 0 1.010 0.419t0.419 1.010v3.214q0 0.658 0.658 2.489 0.77 2.121 0.77 3.538z"></path>
</svg>
