<!-- Generated by IcoMoon.io -->
<svg version="1.1" xmlns="http://www.w3.org/2000/svg" width="20" height="20" viewBox="0 0 20 20">
<title>hand-o-up</title>
<path d="M15.714 17.857q0-0.29-0.212-0.502t-0.502-0.212-0.502 0.212-0.212 0.502 0.212 0.502 0.502 0.212 0.502-0.212 0.212-0.502zM17.143 9.33q0-2.109-1.864-2.109-0.29 0-0.625 0.056-0.179-0.335-0.586-0.53t-0.82-0.195-0.77 0.201q-0.558-0.592-1.328-0.592-0.279 0-0.619 0.112t-0.53 0.279v-3.694q0-0.58-0.424-1.004t-1.004-0.424q-0.569 0-0.999 0.435t-0.43 0.993v6.429q-0.223 0-0.541-0.167t-0.614-0.368-0.759-0.368-0.943-0.167q-0.748 0-1.088 0.497t-0.34 1.289q0 0.268 1.551 1.004 0.491 0.268 0.725 0.413 0.714 0.446 1.618 1.25 0.904 0.792 1.183 1.127 0.636 0.77 0.636 1.563v0.357h7.143v-0.357q0-0.804 0.357-1.864t0.714-2.16 0.357-2.003zM18.571 9.275q0 1.484-0.77 3.594-0.658 1.83-0.658 2.489v3.214q0 0.592-0.419 1.010t-1.010 0.419h-7.143q-0.592 0-1.010-0.419t-0.419-1.010v-3.214q0-0.112-0.050-0.24t-0.156-0.262-0.201-0.251-0.251-0.268-0.24-0.229-0.24-0.212-0.19-0.156q-0.826-0.725-1.44-1.116-0.234-0.145-0.692-0.368t-0.804-0.413-0.703-0.452-0.552-0.614-0.195-0.776q0-1.395 0.748-2.305t2.109-0.91q0.759 0 1.429 0.246v-4.174q0-1.161 0.848-2.009t1.998-0.848q1.172 0 2.020 0.843t0.848 2.015v1.886q0.692 0.045 1.328 0.413 0.234-0.033 0.48-0.033 1.127 0 1.987 0.67 1.551-0.011 2.45 0.949t0.898 2.533z"></path>
</svg>
