<!-- Generated by IcoMoon.io -->
<svg version="1.1" xmlns="http://www.w3.org/2000/svg" width="26" height="20" viewBox="0 0 26 20">
<title>handshake-o</title>
<path d="M2.143 12.857q0.446 0 0.625-0.357t0-0.714-0.625-0.357-0.625 0.357 0 0.714 0.625 0.357zM18.583 12.21q-0.112-0.145-0.43-0.558t-0.463-0.603-0.424-0.547-0.474-0.592-0.452-0.525-0.502-0.547l-1.395 1.563q-0.926 1.049-2.327 1.027t-2.294-1.094q-0.636-0.77-0.631-1.763t0.653-1.752l1.975-2.299q-0.246-0.123-0.569-0.184t-0.53-0.067-0.631 0.006-0.547 0.011q-1.027 0-1.763 0.737l-1.763 1.763h-1.73v6.071q0.056 0 0.234-0.006t0.246 0 0.218 0.022 0.229 0.050 0.195 0.095 0.206 0.151l3.315 3.259q1.283 1.239 2.533 1.239 0.871 0 1.395-0.525 0.636 0.223 1.256-0.089t0.809-0.949q0.826 0.067 1.417-0.491 0.223-0.201 0.402-0.508t0.156-0.564q0.112 0.112 0.48 0.112 0.48 0 0.859-0.234t0.552-0.592 0.134-0.798-0.34-0.82zM20.357 12.857h1.071v-5.714h-1.038l-1.752-2.009q-0.737-0.848-1.886-0.848h-1.864q-0.993 0-1.629 0.748l-2.333 2.712q-0.313 0.368-0.313 0.837t0.301 0.837q0.48 0.569 1.228 0.58t1.239-0.547l2.154-2.433q0.279-0.257 0.597-0.24t0.525 0.301 0.095 0.631q0.179 0.212 0.625 0.703t0.67 0.759q0.324 0.402 0.921 1.177t0.72 0.943q0.58 0.737 0.67 1.563zM23.571 12.857q0.446 0 0.625-0.357t0-0.714-0.625-0.357-0.625 0.357 0 0.714 0.625 0.357zM25.714 6.429v7.143q0 0.29-0.212 0.502t-0.502 0.212h-4.844q-0.301 0.725-0.915 1.189t-1.395 0.575q-0.368 0.536-0.898 0.91t-1.144 0.508q-0.469 0.592-1.166 0.91t-1.434 0.273q-0.67 0.379-1.406 0.441t-1.423-0.156-1.306-0.597-1.155-0.904l-3.203-3.147h-3.996q-0.29 0-0.502-0.212t-0.212-0.502v-7.5q0-0.29 0.212-0.502t0.502-0.212h4.699q0.156-0.156 0.525-0.536t0.53-0.536 0.491-0.446 0.564-0.419 0.569-0.285 0.692-0.218 0.759-0.061h1.306q1.105 0 2.020 0.625 0.915-0.625 2.020-0.625h1.864q0.391 0 0.748 0.067t0.631 0.162 0.575 0.296 0.497 0.346 0.48 0.441 0.435 0.469 0.458 0.536 0.463 0.541h3.962q0.29 0 0.502 0.212t0.212 0.502z"></path>
</svg>
