<!-- Generated by IcoMoon.io -->
<svg version="1.1" xmlns="http://www.w3.org/2000/svg" width="23" height="20" viewBox="0 0 23 20">
<title>hand-spock-o</title>
<path d="M5.123 20q-0.859 0-1.535-0.53t-0.887-1.367l-1.127-4.475q-0.145-0.636-0.145-1.205 0-0.502-0.056-0.748l-1.295-5.324q-0.078-0.301-0.078-0.636 0-1.038 0.692-1.797t1.73-0.871q0.19-0.949 0.921-1.551t1.702-0.603q0.926 0 1.652 0.575t0.949 1.479l0.926 3.884 1.15-4.777q0.223-0.904 0.949-1.479t1.652-0.575q0.993 0 1.735 0.642t0.898 1.613q1.027 0.112 1.696 0.882t0.67 1.808q0 0.268-0.078 0.658l-1.373 5.714q0.112-0.078 0.419-0.318t0.43-0.329 0.391-0.257 0.458-0.229 0.463-0.123 0.552-0.061q1.172 0 2.009 0.826t0.837 1.998q0 0.692-0.318 1.317t-0.876 1.049l-5.658 4.241q-0.759 0.569-1.708 0.569h-7.746zM12.321 1.429q-0.424 0-0.765 0.268t-0.441 0.692l-1.83 7.612h-1.417l-1.618-6.719q-0.1-0.424-0.441-0.692t-0.765-0.268q-0.536 0-0.893 0.368t-0.357 0.893q0 0.167 0.033 0.313l1.473 6.105h-0.29l-1.105-4.554q-0.1-0.413-0.446-0.698t-0.77-0.285q-0.525 0-0.893 0.368t-0.368 0.882q0 0.156 0.033 0.29l1.295 5.335q0.078 0.313 0.1 0.96t0.112 0.982l1.116 4.475q0.089 0.357 0.379 0.586t0.658 0.229h7.746q0.469 0 0.848-0.29l5.658-4.23q0.625-0.48 0.625-1.228 0-0.58-0.419-0.988t-0.999-0.407q-0.48 0-0.859 0.29l-3.426 2.567v-2.533q0-0.045 0.357-1.54t0.759-3.147 0.435-1.797q0.045-0.201 0.045-0.324 0-0.525-0.357-0.904t-0.882-0.379q-0.435 0-0.776 0.268t-0.441 0.692l-1.295 5.379h-0.29l1.674-6.964q0.033-0.156 0.033-0.313 0-0.536-0.352-0.915t-0.887-0.379z"></path>
</svg>
