<!-- Generated by IcoMoon.io -->
<svg version="1.1" xmlns="http://www.w3.org/2000/svg" width="20" height="20" viewBox="0 0 20 20">
<title>hand-grab-o</title>
<path d="M10 4.286q-0.592 0-1.010 0.419t-0.419 1.010v1.429h-0.357v-1.038q0-0.536-0.357-0.91t-0.893-0.374q-0.513 0-0.882 0.368t-0.368 0.882v4.788l-0.357-0.335v-1.92q0-0.536-0.357-0.91t-0.893-0.374q-0.513 0-0.882 0.368t-0.368 0.882v2.5q0 0.525 0.391 0.915l3.46 3.304q0.435 0.435 0.435 1.138 0 0.29 0.212 0.502t0.502 0.212h7.143q0.29 0 0.502-0.212t0.212-0.502v-0.279q0-0.458 0.112-0.859l1.205-4.866q0.112-0.402 0.112-0.859v-2.746q0-0.536-0.357-0.91t-0.893-0.374q-0.513 0-0.882 0.368t-0.368 0.882v0.357h-0.357v-1.395q0-0.446-0.279-0.809t-0.714-0.452q-0.156-0.022-0.257-0.022-0.513 0-0.882 0.368t-0.368 0.882v1.429h-0.357v-1.362q0-0.569-0.363-0.999t-0.921-0.485q-0.056-0.011-0.145-0.011zM10 2.857q0.938 0 1.663 0.558 0.636-0.379 1.373-0.379 0.658 0 1.239 0.301t0.96 0.848q0.301-0.078 0.658-0.078 1.116 0 1.897 0.798t0.781 1.914v2.746q0 0.569-0.145 1.205l-1.217 4.866q-0.067 0.268-0.067 0.792 0 0.893-0.625 1.518t-1.518 0.625h-7.143q-0.938 0-1.54-0.653t-0.603-1.59l-3.437-3.304q-0.848-0.815-0.848-1.953v-2.5q0-1.105 0.787-1.892t1.892-0.787q0.123 0 0.179 0.011 0.067-1.060 0.843-1.786t1.836-0.725q0.58 0 1.094 0.234 0.804-0.77 1.942-0.77z"></path>
</svg>
