<!-- Generated by IcoMoon.io -->
<svg version="1.1" xmlns="http://www.w3.org/2000/svg" width="20" height="20" viewBox="0 0 20 20">
<title>hand-scissors-o</title>
<path d="M11.975 18.571h-1.975q-1.819 0-2.522-1.574-0.257-0.547-0.257-1.138v-0.056q-0.692-0.335-1.099-0.988t-0.407-1.423q0-0.424 0.056-0.536h-2.913q-1.183 0-2.020-0.837t-0.837-2.020 0.837-2.020 2.020-0.837h1.261l-0.491-0.19q-0.826-0.313-1.334-1.044t-0.508-1.624q0-1.183 0.837-2.020t2.020-0.837q0.513 0 1.016 0.19l7.009 2.667h4.475q1.183 0 2.020 0.837t0.837 2.020v7.455q0 0.982-0.603 1.758t-1.563 1.010l-3.783 0.949q-1.027 0.257-2.076 0.257zM11.429 10.636l-1.73 0.792-1.819 0.826q-0.335 0.156-0.536 0.463t-0.201 0.675q0 0.513 0.368 0.882t0.882 0.368q0.29 0 0.513-0.112l3.772-1.719q-0.547-0.112-0.898-0.558t-0.352-1.004v-0.614zM15 14.107q0-0.513-0.368-0.882t-0.882-0.368q-0.29 0-0.513 0.112l-3.237 1.473q-0.313 0.145-0.413 0.19t-0.34 0.19-0.329 0.262-0.179 0.324-0.089 0.452q0 0.558 0.352 0.915t0.91 0.357q0.223 0 0.424-0.1l3.929-1.786q0.335-0.156 0.536-0.463t0.201-0.675zM12.411 5.714l-7.254-2.768q-0.268-0.089-0.513-0.089-0.592 0-1.010 0.419t-0.419 1.010q0 0.446 0.251 0.815t0.664 0.525l5.871 2.232v0.714h-7.143q-0.592 0-1.010 0.419t-0.419 1.010 0.419 1.010 1.010 0.419h5.971l2.6-1.183v-2.21q0-0.703 0.513-1.183l1.239-1.138h-0.77zM11.975 17.143q0.915 0 1.73-0.212l3.783-0.949q0.48-0.123 0.781-0.508t0.301-0.876v-7.455q0-0.592-0.419-1.010t-1.010-0.419h-3.438l-1.518 1.406q-0.402 0.368-0.402 0.915v3.304q0 0.513 0.368 0.859t0.882 0.346 0.882-0.391 0.368-0.904v-2.321h0.357v2.321q0 0.781-0.636 1.272 0.58 0.089 0.965 0.541t0.385 1.044q0 0.469-0.257 0.871t-0.681 0.592l-3.46 1.574h1.016z"></path>
</svg>
