<!-- Generated by IcoMoon.io -->
<svg version="1.1" xmlns="http://www.w3.org/2000/svg" width="20" height="20" viewBox="0 0 20 20">
<title>hard-of-hearing</title>
<path d="M11.786 9.286q0 0.29 0.212 0.502t0.502 0.212 0.502-0.212 0.212-0.502q0-1.629-1.15-2.779t-2.779-1.15-2.779 1.15-1.15 2.779q0 0.29 0.212 0.502t0.502 0.212 0.502-0.212 0.212-0.502q0-1.038 0.737-1.769t1.763-0.731 1.763 0.731 0.737 1.769zM9.319 2.857q-1.306 0-2.494 0.508t-2.054 1.373-1.373 2.054-0.508 2.494q0 0.29 0.212 0.502t0.502 0.212 0.502-0.212 0.212-0.502q0-2.065 1.468-3.532t3.532-1.468 3.532 1.468 1.468 3.532q0 0.614-0.201 1.155t-0.419 0.831-0.664 0.804q-0.379 0.435-0.58 0.703t-0.485 0.742-0.413 1.016-0.128 1.177q0 1.183-0.837 2.020t-2.020 0.837q-0.29 0-0.502 0.212t-0.212 0.502 0.212 0.502 0.502 0.212q1.775 0 3.030-1.256t1.256-3.030q0-0.458 0.084-0.826t0.296-0.714 0.374-0.558 0.508-0.603q0.391-0.458 0.592-0.72t0.491-0.753 0.419-1.044 0.128-1.211q0-1.306-0.508-2.494t-1.373-2.054-2.054-1.373-2.494-0.508zM6.596 10.882l2.522 2.522-6.462 6.462q-0.134 0.134-0.324 0.134t-0.324-0.134l-1.875-1.875q-0.134-0.134-0.134-0.324t0.134-0.324zM17.991 0.134l1.875 1.875q0.134 0.134 0.134 0.324t-0.134 0.335l-2.6 2.6-0.29 0.279-0.792 0.792q-0.737-1.708-2.176-2.879l3.326-3.326q0.145-0.134 0.335-0.134t0.324 0.134z"></path>
</svg>
