<!-- Generated by IcoMoon.io -->
<svg version="1.1" xmlns="http://www.w3.org/2000/svg" width="20" height="20" viewBox="0 0 20 20">
<title>hashtag</title>
<path d="M11.060 11.429l0.714-2.857h-2.835l-0.714 2.857h2.835zM19.632 5.804l-0.625 2.5q-0.078 0.268-0.346 0.268h-3.65l-0.714 2.857h3.471q0.167 0 0.279 0.134 0.112 0.156 0.067 0.313l-0.625 2.5q-0.056 0.268-0.346 0.268h-3.65l-0.904 3.661q-0.078 0.268-0.346 0.268h-2.5q-0.179 0-0.29-0.134-0.1-0.134-0.067-0.313l0.871-3.482h-2.835l-0.904 3.661q-0.078 0.268-0.346 0.268h-2.511q-0.167 0-0.279-0.134-0.1-0.134-0.067-0.313l0.871-3.482h-3.471q-0.167 0-0.279-0.134-0.1-0.134-0.067-0.313l0.625-2.5q0.078-0.268 0.346-0.268h3.65l0.714-2.857h-3.471q-0.167 0-0.279-0.134-0.112-0.156-0.067-0.313l0.625-2.5q0.056-0.268 0.346-0.268h3.65l0.904-3.661q0.078-0.268 0.357-0.268h2.5q0.167 0 0.279 0.134 0.1 0.134 0.067 0.313l-0.871 3.482h2.835l0.904-3.661q0.078-0.268 0.357-0.268h2.5q0.167 0 0.279 0.134 0.1 0.134 0.067 0.313l-0.871 3.482h3.471q0.167 0 0.279 0.134 0.1 0.134 0.067 0.313z"></path>
</svg>
