<!-- Generated by IcoMoon.io -->
<svg version="1.1" xmlns="http://www.w3.org/2000/svg" width="20" height="20" viewBox="0 0 20 20">
<title>hdd-o</title>
<path d="M13.036 13.571q0 0.368-0.262 0.631t-0.631 0.262-0.631-0.262-0.262-0.631 0.262-0.631 0.631-0.262 0.631 0.262 0.262 0.631zM15.893 13.571q0 0.368-0.262 0.631t-0.631 0.262-0.631-0.262-0.262-0.631 0.262-0.631 0.631-0.262 0.631 0.262 0.262 0.631zM17.143 15.357v-3.571q0-0.145-0.106-0.251t-0.251-0.106h-13.571q-0.145 0-0.251 0.106t-0.106 0.251v3.571q0 0.145 0.106 0.251t0.251 0.106h13.571q0.145 0 0.251-0.106t0.106-0.251zM3.415 10h13.17l-1.752-5.379q-0.045-0.145-0.179-0.24t-0.29-0.095h-8.728q-0.156 0-0.29 0.095t-0.179 0.24zM18.571 11.786v3.571q0 0.737-0.525 1.261t-1.261 0.525h-13.571q-0.737 0-1.261-0.525t-0.525-1.261v-3.571q0-0.279 0.179-0.837l2.199-6.763q0.19-0.592 0.703-0.96t1.127-0.368h8.728q0.614 0 1.127 0.368t0.703 0.96l2.199 6.763q0.179 0.558 0.179 0.837z"></path>
</svg>
