<!-- Generated by IcoMoon.io -->
<svg version="1.1" xmlns="http://www.w3.org/2000/svg" width="20" height="20" viewBox="0 0 20 20">
<title>header</title>
<path d="M18.772 18.571q-0.491 0-1.479-0.039t-1.49-0.039q-0.491 0-1.473 0.039t-1.473 0.039q-0.268 0-0.413-0.229t-0.145-0.508q0-0.346 0.19-0.513t0.435-0.19 0.569-0.078 0.502-0.167q0.368-0.234 0.368-1.563l-0.011-4.364q0-0.234-0.011-0.346-0.145-0.045-0.558-0.045h-7.533q-0.424 0-0.569 0.045-0.011 0.112-0.011 0.346l-0.011 4.141q0 1.585 0.413 1.83 0.179 0.112 0.536 0.145t0.636 0.039 0.502 0.167 0.223 0.508q0 0.29-0.14 0.536t-0.407 0.246q-0.525 0-1.557-0.039t-1.546-0.039q-0.48 0-1.429 0.039t-1.417 0.039q-0.257 0-0.396-0.234t-0.14-0.502q0-0.335 0.173-0.502t0.402-0.195 0.53-0.084 0.469-0.167q0.368-0.257 0.368-1.596l-0.011-0.636v-9.074q0-0.033 0.006-0.29t0-0.407-0.017-0.43-0.039-0.469-0.073-0.407-0.123-0.352-0.179-0.201q-0.167-0.112-0.502-0.134t-0.592-0.022-0.458-0.156-0.201-0.502q0-0.29 0.134-0.536t0.402-0.246q0.513 0 1.546 0.039t1.546 0.039q0.469 0 1.412-0.039t1.412-0.039q0.279 0 0.419 0.246t0.14 0.536q0 0.335-0.19 0.485t-0.43 0.162-0.552 0.045-0.48 0.145q-0.391 0.234-0.391 1.786l0.011 3.571q0 0.234 0.011 0.357 0.145 0.033 0.435 0.033h7.801q0.279 0 0.424-0.033 0.011-0.123 0.011-0.357l0.011-3.571q0-1.551-0.391-1.786-0.201-0.123-0.653-0.14t-0.737-0.145-0.285-0.552q0-0.29 0.14-0.536t0.419-0.246q0.491 0 1.473 0.039t1.473 0.039q0.48 0 1.44-0.039t1.44-0.039q0.279 0 0.419 0.246t0.14 0.536q0 0.335-0.195 0.491t-0.446 0.162-0.575 0.033-0.491 0.14q-0.391 0.257-0.391 1.797l0.011 10.525q0 1.328 0.379 1.563 0.179 0.112 0.513 0.151t0.597 0.050 0.463 0.173 0.201 0.497q0 0.29-0.134 0.536t-0.402 0.246z"></path>
</svg>
