<!-- Generated by IcoMoon.io -->
<svg version="1.1" xmlns="http://www.w3.org/2000/svg" width="20" height="20" viewBox="0 0 20 20">
<title>headphones</title>
<path d="M19.286 9.888q0 1.853-0.67 3.504l-0.223 0.547-2.065 0.368q-0.246 0.926-1.010 1.523t-1.747 0.597v0.357q0 0.156-0.1 0.257t-0.257 0.1h-0.714q-0.156 0-0.257-0.1t-0.1-0.257v-6.429q0-0.156 0.1-0.257t0.257-0.1h0.714q0.156 0 0.257 0.1t0.1 0.257v0.357q0.792 0 1.451 0.396t1.038 1.066l0.759-0.134q0.324-1.060 0.324-2.154 0-1.652-0.982-3.114t-2.64-2.333-3.521-0.871-3.521 0.871-2.64 2.333-0.982 3.114q0 1.094 0.324 2.154l0.759 0.134q0.379-0.67 1.038-1.066t1.451-0.396v-0.357q0-0.156 0.1-0.257t0.257-0.1h0.714q0.156 0 0.257 0.1t0.1 0.257v6.429q0 0.156-0.1 0.257t-0.257 0.1h-0.714q-0.156 0-0.257-0.1t-0.1-0.257v-0.357q-0.982 0-1.747-0.597t-1.010-1.523l-2.065-0.368-0.223-0.547q-0.67-1.652-0.67-3.504 0-1.685 0.748-3.248t1.998-2.706 2.969-1.825 3.571-0.681 3.571 0.681 2.969 1.825 1.998 2.706 0.748 3.248z"></path>
</svg>
