<!-- Generated by IcoMoon.io -->
<svg version="1.1" xmlns="http://www.w3.org/2000/svg" width="20" height="20" viewBox="0 0 20 20">
<title>heart</title>
<path d="M10 18.571q-0.29 0-0.491-0.201l-6.964-6.719q-0.112-0.089-0.307-0.29t-0.619-0.731-0.759-1.088-0.597-1.35-0.262-1.54q0-2.455 1.417-3.839t3.917-1.384q0.692 0 1.412 0.24t1.339 0.647 1.066 0.765 0.848 0.759q0.402-0.402 0.848-0.759t1.066-0.765 1.339-0.647 1.412-0.24q2.5 0 3.917 1.384t1.417 3.839q0 2.467-2.556 5.022l-6.953 6.696q-0.201 0.201-0.491 0.201z"></path>
</svg>
