<!-- Generated by IcoMoon.io -->
<svg version="1.1" xmlns="http://www.w3.org/2000/svg" width="20" height="20" viewBox="0 0 20 20">
<title>heartbeat</title>
<path d="M14.286 11.429h3.404q-0.056 0.067-0.112 0.117t-0.1 0.084l-0.033 0.045-6.953 6.696q-0.201 0.201-0.491 0.201t-0.491-0.201l-6.964-6.719q-0.056-0.022-0.234-0.223h4.118q0.246 0 0.441-0.151t0.251-0.385l0.781-3.136 2.121 7.444q0.067 0.223 0.257 0.368t0.435 0.145q0.234 0 0.424-0.145t0.257-0.368l1.629-5.413 0.625 1.25q0.201 0.391 0.636 0.391zM20 6.652q0 1.618-1.15 3.348h-4.118l-1.239-2.467q-0.089-0.19-0.285-0.301t-0.407-0.089q-0.502 0.056-0.625 0.513l-1.44 4.799-2.188-7.656q-0.067-0.223-0.262-0.368t-0.441-0.145-0.435 0.151-0.246 0.385l-1.295 5.179h-4.721q-1.15-1.73-1.15-3.348 0-2.455 1.417-3.839t3.917-1.384q0.692 0 1.412 0.24t1.339 0.647 1.066 0.765 0.848 0.759q0.402-0.402 0.848-0.759t1.066-0.765 1.339-0.647 1.412-0.24q2.5 0 3.917 1.384t1.417 3.839z"></path>
</svg>
