<!-- Generated by IcoMoon.io -->
<svg version="1.1" xmlns="http://www.w3.org/2000/svg" width="20" height="20" viewBox="0 0 20 20">
<title>home</title>
<path d="M16.429 11.071v5.357q0 0.29-0.212 0.502t-0.502 0.212h-4.286v-4.286h-2.857v4.286h-4.286q-0.29 0-0.502-0.212t-0.212-0.502v-5.357q0-0.011 0.006-0.033t0.006-0.033l6.417-5.29 6.417 5.29q0.011 0.022 0.011 0.067zM18.917 10.301l-0.692 0.826q-0.089 0.1-0.234 0.123h-0.033q-0.145 0-0.234-0.078l-7.723-6.44-7.723 6.44q-0.134 0.089-0.268 0.078-0.145-0.022-0.234-0.123l-0.692-0.826q-0.089-0.112-0.078-0.262t0.123-0.24l8.025-6.685q0.357-0.29 0.848-0.29t0.848 0.29l2.723 2.277v-2.176q0-0.156 0.1-0.257t0.257-0.1h2.143q0.156 0 0.257 0.1t0.1 0.257v4.554l2.444 2.031q0.112 0.089 0.123 0.24t-0.078 0.262z"></path>
</svg>
