<!-- Generated by IcoMoon.io -->
<svg version="1.1" xmlns="http://www.w3.org/2000/svg" width="20" height="20" viewBox="0 0 20 20">
<title>hospital-o</title>
<path d="M6.429 14.643v0.714q0 0.145-0.106 0.251t-0.251 0.106h-0.714q-0.145 0-0.251-0.106t-0.106-0.251v-0.714q0-0.145 0.106-0.251t0.251-0.106h0.714q0.145 0 0.251 0.106t0.106 0.251zM6.429 11.786v0.714q0 0.145-0.106 0.251t-0.251 0.106h-0.714q-0.145 0-0.251-0.106t-0.106-0.251v-0.714q0-0.145 0.106-0.251t0.251-0.106h0.714q0.145 0 0.251 0.106t0.106 0.251zM9.286 11.786v0.714q0 0.145-0.106 0.251t-0.251 0.106h-0.714q-0.145 0-0.251-0.106t-0.106-0.251v-0.714q0-0.145 0.106-0.251t0.251-0.106h0.714q0.145 0 0.251 0.106t0.106 0.251zM6.429 8.929v0.714q0 0.145-0.106 0.251t-0.251 0.106h-0.714q-0.145 0-0.251-0.106t-0.106-0.251v-0.714q0-0.145 0.106-0.251t0.251-0.106h0.714q0.145 0 0.251 0.106t0.106 0.251zM15 14.643v0.714q0 0.145-0.106 0.251t-0.251 0.106h-0.714q-0.145 0-0.251-0.106t-0.106-0.251v-0.714q0-0.145 0.106-0.251t0.251-0.106h0.714q0.145 0 0.251 0.106t0.106 0.251zM12.143 11.786v0.714q0 0.145-0.106 0.251t-0.251 0.106h-0.714q-0.145 0-0.251-0.106t-0.106-0.251v-0.714q0-0.145 0.106-0.251t0.251-0.106h0.714q0.145 0 0.251 0.106t0.106 0.251zM9.286 8.929v0.714q0 0.145-0.106 0.251t-0.251 0.106h-0.714q-0.145 0-0.251-0.106t-0.106-0.251v-0.714q0-0.145 0.106-0.251t0.251-0.106h0.714q0.145 0 0.251 0.106t0.106 0.251zM15 11.786v0.714q0 0.145-0.106 0.251t-0.251 0.106h-0.714q-0.145 0-0.251-0.106t-0.106-0.251v-0.714q0-0.145 0.106-0.251t0.251-0.106h0.714q0.145 0 0.251 0.106t0.106 0.251zM12.143 8.929v0.714q0 0.145-0.106 0.251t-0.251 0.106h-0.714q-0.145 0-0.251-0.106t-0.106-0.251v-0.714q0-0.145 0.106-0.251t0.251-0.106h0.714q0.145 0 0.251 0.106t0.106 0.251zM15 8.929v0.714q0 0.145-0.106 0.251t-0.251 0.106h-0.714q-0.145 0-0.251-0.106t-0.106-0.251v-0.714q0-0.145 0.106-0.251t0.251-0.106h0.714q0.145 0 0.251 0.106t0.106 0.251zM12.143 18.571h4.286v-12.857h-2.857v0.357q0 0.446-0.313 0.759t-0.759 0.313h-5q-0.446 0-0.759-0.313t-0.313-0.759v-0.357h-2.857v12.857h4.286v-2.5q0-0.145 0.106-0.251t0.251-0.106h3.571q0.145 0 0.251 0.106t0.106 0.251v2.5zM12.143 5.357v-3.571q0-0.145-0.106-0.251t-0.251-0.106h-0.714q-0.145 0-0.251 0.106t-0.106 0.251v1.071h-1.429v-1.071q0-0.145-0.106-0.251t-0.251-0.106h-0.714q-0.145 0-0.251 0.106t-0.106 0.251v3.571q0 0.145 0.106 0.251t0.251 0.106h0.714q0.145 0 0.251-0.106t0.106-0.251v-1.071h1.429v1.071q0 0.145 0.106 0.251t0.251 0.106h0.714q0.145 0 0.251-0.106t0.106-0.251zM17.857 5v14.286q0 0.29-0.212 0.502t-0.502 0.212h-14.286q-0.29 0-0.502-0.212t-0.212-0.502v-14.286q0-0.29 0.212-0.502t0.502-0.212h3.571v-3.214q0-0.446 0.313-0.759t0.759-0.313h5q0.446 0 0.759 0.313t0.313 0.759v3.214h3.571q0.29 0 0.502 0.212t0.212 0.502z"></path>
</svg>
