<!-- Generated by IcoMoon.io -->
<svg version="1.1" xmlns="http://www.w3.org/2000/svg" width="23" height="20" viewBox="0 0 23 20">
<title>hotel</title>
<path d="M2.857 11.429h19.286q0.29 0 0.502 0.212t0.212 0.502v5h-2.857v-2.857h-17.143v2.857h-2.857v-13.571q0-0.29 0.212-0.502t0.502-0.212h1.429q0.29 0 0.502 0.212t0.212 0.502v7.857zM9.286 7.857q0-1.183-0.837-2.020t-2.020-0.837-2.020 0.837-0.837 2.020 0.837 2.020 2.020 0.837 2.020-0.837 0.837-2.020zM22.857 10.714v-0.714q0-1.775-1.256-3.030t-3.030-1.256h-7.857q-0.29 0-0.502 0.212t-0.212 0.502v4.286h12.857z"></path>
</svg>
