<!-- Generated by IcoMoon.io -->
<svg version="1.1" xmlns="http://www.w3.org/2000/svg" width="20" height="20" viewBox="0 0 20 20">
<title>hourglass-1</title>
<path d="M17.143 1.429q0 2.913-1.189 5.151t-2.974 3.421q1.786 1.183 2.974 3.421t1.189 5.151h1.071q0.156 0 0.257 0.1t0.1 0.257v0.714q0 0.156-0.1 0.257t-0.257 0.1h-16.429q-0.156 0-0.257-0.1t-0.1-0.257v-0.714q0-0.156 0.1-0.257t0.257-0.1h1.071q0-2.913 1.189-5.151t2.974-3.421q-1.786-1.183-2.974-3.421t-1.189-5.151h-1.071q-0.156 0-0.257-0.1t-0.1-0.257v-0.714q0-0.156 0.1-0.257t0.257-0.1h16.429q0.156 0 0.257 0.1t0.1 0.257v0.714q0 0.156-0.1 0.257t-0.257 0.1h-1.071zM15.714 1.429h-11.429q0 0.737 0.1 1.429h11.228q0.1-0.681 0.1-1.429zM15.714 18.571q0-1.451-0.379-2.785t-1.010-2.321-1.412-1.696-1.629-1.055h-2.567q-0.848 0.346-1.629 1.055t-1.412 1.696-1.010 2.321-0.379 2.785h11.429z"></path>
</svg>
