<!-- Generated by IcoMoon.io -->
<svg version="1.1" xmlns="http://www.w3.org/2000/svg" width="20" height="20" viewBox="0 0 20 20">
<title>hourglass-3</title>
<path d="M17.143 1.429q0 2.913-1.189 5.151t-2.974 3.421q1.786 1.183 2.974 3.421t1.189 5.151h1.071q0.156 0 0.257 0.1t0.1 0.257v0.714q0 0.156-0.1 0.257t-0.257 0.1h-16.429q-0.156 0-0.257-0.1t-0.1-0.257v-0.714q0-0.156 0.1-0.257t0.257-0.1h1.071q0-2.913 1.189-5.151t2.974-3.421q-1.786-1.183-2.974-3.421t-1.189-5.151h-1.071q-0.156 0-0.257-0.1t-0.1-0.257v-0.714q0-0.156 0.1-0.257t0.257-0.1h16.429q0.156 0 0.257 0.1t0.1 0.257v0.714q0 0.156-0.1 0.257t-0.257 0.1h-1.071zM11.183 9.33q0.859-0.324 1.663-1.032t1.445-1.702 1.032-2.344 0.391-2.824h-11.429q0 1.473 0.391 2.824t1.032 2.344 1.445 1.702 1.663 1.032q0.212 0.078 0.34 0.262t0.128 0.407-0.128 0.407-0.34 0.262q-1.529 0.569-2.723 2.188h7.812q-1.194-1.618-2.723-2.188-0.212-0.078-0.34-0.262t-0.128-0.407 0.128-0.407 0.34-0.262z"></path>
</svg>
