<!-- Generated by IcoMoon.io -->
<svg version="1.1" xmlns="http://www.w3.org/2000/svg" width="20" height="20" viewBox="0 0 20 20">
<title>hourglass-2</title>
<path d="M17.143 1.429q0 2.913-1.189 5.151t-2.974 3.421q1.786 1.183 2.974 3.421t1.189 5.151h1.071q0.156 0 0.257 0.1t0.1 0.257v0.714q0 0.156-0.1 0.257t-0.257 0.1h-16.429q-0.156 0-0.257-0.1t-0.1-0.257v-0.714q0-0.156 0.1-0.257t0.257-0.1h1.071q0-2.913 1.189-5.151t2.974-3.421q-1.786-1.183-2.974-3.421t-1.189-5.151h-1.071q-0.156 0-0.257-0.1t-0.1-0.257v-0.714q0-0.156 0.1-0.257t0.257-0.1h16.429q0.156 0 0.257 0.1t0.1 0.257v0.714q0 0.156-0.1 0.257t-0.257 0.1h-1.071zM15.714 1.429h-11.429q0 2.299 0.949 4.286h9.531q0.949-1.987 0.949-4.286zM15.078 15q-0.603-1.574-1.624-2.695t-2.171-1.59h-2.567q-1.15 0.469-2.171 1.59t-1.624 2.695h10.156z"></path>
</svg>
