<!-- Generated by IcoMoon.io -->
<svg version="1.1" xmlns="http://www.w3.org/2000/svg" width="20" height="20" viewBox="0 0 20 20">
<title>hourglass</title>
<path d="M18.214 17.857q0.156 0 0.257 0.1t0.1 0.257v1.429q0 0.156-0.1 0.257t-0.257 0.1h-16.429q-0.156 0-0.257-0.1t-0.1-0.257v-1.429q0-0.156 0.1-0.257t0.257-0.1h16.429zM2.879 17.143q0.033-0.614 0.179-1.194t0.335-1.060 0.513-0.971 0.597-0.848 0.72-0.776 0.737-0.67 0.787-0.614 0.742-0.53 0.725-0.48q-0.48-0.313-0.725-0.48t-0.742-0.53-0.787-0.614-0.737-0.67-0.72-0.776-0.597-0.848-0.513-0.971-0.335-1.060-0.179-1.194h14.241q-0.033 0.614-0.179 1.194t-0.335 1.060-0.513 0.971-0.597 0.848-0.72 0.776-0.737 0.67-0.787 0.614-0.742 0.53-0.725 0.48q0.48 0.313 0.725 0.48t0.742 0.53 0.787 0.614 0.737 0.67 0.72 0.776 0.597 0.848 0.513 0.971 0.335 1.060 0.179 1.194h-14.241zM18.214 0q0.156 0 0.257 0.1t0.1 0.257v1.429q0 0.156-0.1 0.257t-0.257 0.1h-16.429q-0.156 0-0.257-0.1t-0.1-0.257v-1.429q0-0.156 0.1-0.257t0.257-0.1h16.429z"></path>
</svg>
