<!-- Generated by IcoMoon.io -->
<svg version="1.1" xmlns="http://www.w3.org/2000/svg" width="23" height="20" viewBox="0 0 23 20">
<title>id-card</title>
<path d="M10 13.527q0-0.603-0.084-1.122t-0.273-1.004-0.569-0.765-0.904-0.279q-0.714 0.714-1.741 0.714t-1.741-0.714q-0.525 0-0.904 0.279t-0.569 0.765-0.273 1.004-0.084 1.122q0 0.614 0.352 1.044t0.843 0.43h4.754q0.491 0 0.843-0.43t0.352-1.044zM8.571 8.571q0-0.893-0.625-1.518t-1.518-0.625-1.518 0.625-0.625 1.518 0.625 1.518 1.518 0.625 1.518-0.625 0.625-1.518zM20 13.929v-0.714q0-0.156-0.1-0.257t-0.257-0.1h-7.857q-0.156 0-0.257 0.1t-0.1 0.257v0.714q0 0.156 0.1 0.257t0.257 0.1h7.857q0.156 0 0.257-0.1t0.1-0.257zM15.714 11.071v-0.714q0-0.156-0.1-0.257t-0.257-0.1h-3.571q-0.156 0-0.257 0.1t-0.1 0.257v0.714q0 0.156 0.1 0.257t0.257 0.1h3.571q0.156 0 0.257-0.1t0.1-0.257zM20 11.071v-0.714q0-0.156-0.1-0.257t-0.257-0.1h-2.143q-0.156 0-0.257 0.1t-0.1 0.257v0.714q0 0.156 0.1 0.257t0.257 0.1h2.143q0.156 0 0.257-0.1t0.1-0.257zM20 8.214v-0.714q0-0.156-0.1-0.257t-0.257-0.1h-7.857q-0.156 0-0.257 0.1t-0.1 0.257v0.714q0 0.156 0.1 0.257t0.257 0.1h7.857q0.156 0 0.257-0.1t0.1-0.257zM1.429 4.286h20v-1.071q0-0.156-0.1-0.257t-0.257-0.1h-19.286q-0.156 0-0.257 0.1t-0.1 0.257v1.071zM22.857 3.214v13.571q0 0.737-0.525 1.261t-1.261 0.525h-19.286q-0.737 0-1.261-0.525t-0.525-1.261v-13.571q0-0.737 0.525-1.261t1.261-0.525h19.286q0.737 0 1.261 0.525t0.525 1.261z"></path>
</svg>
