<!-- Generated by IcoMoon.io -->
<svg version="1.1" xmlns="http://www.w3.org/2000/svg" width="20" height="20" viewBox="0 0 20 20">
<title>imdb</title>
<path d="M11.719 8.895v2.031q0 0.045 0.006 0.167t0 0.167l-0.017 0.134-0.039 0.128-0.073 0.084-0.123 0.061-0.179 0.017v-3.449q0.1 0 0.179 0.011t0.123 0.056 0.073 0.061 0.039 0.106 0.011 0.117v0.307zM15.246 9.967v1.35q0 0.011 0.006 0.14t0 0.173-0.028 0.128-0.084 0.117-0.151 0.033q-0.1 0-0.156-0.1-0.045-0.112-0.045-1.842v-0.273l0.017-0.095 0.039-0.078 0.056-0.061 0.089-0.017q0.067 0 0.112 0.017t0.073 0.050 0.045 0.067 0.022 0.095 0.006 0.089v0.206zM3.438 12.6h1.362v-5.268h-1.362v5.268zM8.281 12.6h1.183v-5.268h-1.775l-0.313 2.467q-0.223-1.652-0.357-2.467h-1.763v5.268h1.194v-3.482l0.502 3.482h0.848l0.48-3.56v3.56zM13.025 9.196q0-0.748-0.056-1.004-0.033-0.179-0.123-0.318t-0.19-0.229-0.279-0.156-0.296-0.095-0.346-0.045-0.324-0.017h-1.479v5.268h0.625q1.886 0.011 2.199-0.273t0.279-2.015q-0.011-0.692-0.011-1.116zM16.563 11.395v-1.484q0-0.324-0.022-0.502t-0.106-0.374-0.273-0.279-0.513-0.084q-0.513 0-0.859 0.379v-1.719h-1.306v5.268h1.228l0.078-0.335q0.335 0.402 0.859 0.402 0.558 0 0.737-0.34t0.179-0.932zM18.571 3.214v13.571q0 0.737-0.525 1.261t-1.261 0.525h-13.571q-0.737 0-1.261-0.525t-0.525-1.261v-13.571q0-0.737 0.525-1.261t1.261-0.525h13.571q0.737 0 1.261 0.525t0.525 1.261z"></path>
</svg>
