<!-- Generated by IcoMoon.io -->
<svg version="1.1" xmlns="http://www.w3.org/2000/svg" width="20" height="20" viewBox="0 0 20 20">
<title>inbox</title>
<path d="M12.846 10.714h3.527q-0.011-0.033-0.028-0.095t-0.028-0.084l-2.366-5.536h-7.902l-2.366 5.536q-0.011 0.033-0.028 0.095t-0.028 0.084h3.527l1.060 2.143h3.571zM18.571 11.049v5.379q0 0.29-0.212 0.502t-0.502 0.212h-15.714q-0.29 0-0.502-0.212t-0.212-0.502v-5.379q0-0.692 0.279-1.373l2.656-6.161q0.112-0.279 0.407-0.469t0.586-0.19h9.286q0.29 0 0.586 0.19t0.407 0.469l2.656 6.161q0.279 0.681 0.279 1.373z"></path>
</svg>
