<!-- Generated by IcoMoon.io -->
<svg version="1.1" xmlns="http://www.w3.org/2000/svg" width="20" height="20" viewBox="0 0 20 20">
<title>indent</title>
<path d="M3.929 9.286q0 0.156-0.1 0.257l-3.214 3.214q-0.1 0.1-0.257 0.1-0.145 0-0.251-0.106t-0.106-0.251v-6.429q0-0.145 0.106-0.251t0.251-0.106q0.156 0 0.257 0.1l3.214 3.214q0.1 0.1 0.1 0.257zM20 14.643v2.143q0 0.145-0.106 0.251t-0.251 0.106h-19.286q-0.145 0-0.251-0.106t-0.106-0.251v-2.143q0-0.145 0.106-0.251t0.251-0.106h19.286q0.145 0 0.251 0.106t0.106 0.251zM20 10.357v2.143q0 0.145-0.106 0.251t-0.251 0.106h-12.143q-0.145 0-0.251-0.106t-0.106-0.251v-2.143q0-0.145 0.106-0.251t0.251-0.106h12.143q0.145 0 0.251 0.106t0.106 0.251zM20 6.071v2.143q0 0.145-0.106 0.251t-0.251 0.106h-12.143q-0.145 0-0.251-0.106t-0.106-0.251v-2.143q0-0.145 0.106-0.251t0.251-0.106h12.143q0.145 0 0.251 0.106t0.106 0.251zM20 1.786v2.143q0 0.145-0.106 0.251t-0.251 0.106h-19.286q-0.145 0-0.251-0.106t-0.106-0.251v-2.143q0-0.145 0.106-0.251t0.251-0.106h19.286q0.145 0 0.251 0.106t0.106 0.251z"></path>
</svg>
