<!-- Generated by IcoMoon.io -->
<svg version="1.1" xmlns="http://www.w3.org/2000/svg" width="20" height="20" viewBox="0 0 20 20">
<title>info-circle</title>
<path d="M12.857 15.357v-1.786q0-0.156-0.1-0.257t-0.257-0.1h-1.071v-5.714q0-0.156-0.1-0.257t-0.257-0.1h-3.571q-0.156 0-0.257 0.1t-0.1 0.257v1.786q0 0.156 0.1 0.257t0.257 0.1h1.071v3.571h-1.071q-0.156 0-0.257 0.1t-0.1 0.257v1.786q0 0.156 0.1 0.257t0.257 0.1h5q0.156 0 0.257-0.1t0.1-0.257zM11.429 5.357v-1.786q0-0.156-0.1-0.257t-0.257-0.1h-2.143q-0.156 0-0.257 0.1t-0.1 0.257v1.786q0 0.156 0.1 0.257t0.257 0.1h2.143q0.156 0 0.257-0.1t0.1-0.257zM18.571 10q0 2.333-1.15 4.302t-3.119 3.119-4.302 1.15-4.302-1.15-3.119-3.119-1.15-4.302 1.15-4.302 3.119-3.119 4.302-1.15 4.302 1.15 3.119 3.119 1.15 4.302z"></path>
</svg>
