<!-- Generated by IcoMoon.io -->
<svg version="1.1" xmlns="http://www.w3.org/2000/svg" width="20" height="20" viewBox="0 0 20 20">
<title>instagram</title>
<path d="M12.857 10q0-1.183-0.837-2.020t-2.020-0.837-2.020 0.837-0.837 2.020 0.837 2.020 2.020 0.837 2.020-0.837 0.837-2.020zM14.397 10q0 1.83-1.283 3.114t-3.114 1.283-3.114-1.283-1.283-3.114 1.283-3.114 3.114-1.283 3.114 1.283 1.283 3.114zM15.603 5.424q0 0.424-0.301 0.725t-0.725 0.301-0.725-0.301-0.301-0.725 0.301-0.725 0.725-0.301 0.725 0.301 0.301 0.725zM10 2.969q-0.078 0-0.854-0.006t-1.177 0-1.077 0.033-1.15 0.112-0.798 0.206q-0.558 0.223-0.982 0.647t-0.647 0.982q-0.123 0.324-0.206 0.798t-0.112 1.15-0.033 1.077 0 1.177 0.006 0.854-0.006 0.854 0 1.177 0.033 1.077 0.112 1.15 0.206 0.798q0.223 0.558 0.647 0.982t0.982 0.647q0.324 0.123 0.798 0.206t1.15 0.112 1.077 0.033 1.177 0 0.854-0.006 0.854 0.006 1.177 0 1.077-0.033 1.15-0.112 0.798-0.206q0.558-0.223 0.982-0.647t0.647-0.982q0.123-0.324 0.206-0.798t0.112-1.15 0.033-1.077 0-1.177-0.006-0.854 0.006-0.854 0-1.177-0.033-1.077-0.112-1.15-0.206-0.798q-0.223-0.558-0.647-0.982t-0.982-0.647q-0.324-0.123-0.798-0.206t-1.15-0.112-1.077-0.033-1.177 0-0.854 0.006zM18.571 10q0 2.556-0.056 3.538-0.112 2.321-1.384 3.594t-3.594 1.384q-0.982 0.056-3.538 0.056t-3.538-0.056q-2.321-0.112-3.594-1.384t-1.384-3.594q-0.056-0.982-0.056-3.538t0.056-3.538q0.112-2.321 1.384-3.594t3.594-1.384q0.982-0.056 3.538-0.056t3.538 0.056q2.321 0.112 3.594 1.384t1.384 3.594q0.056 0.982 0.056 3.538z"></path>
</svg>
