<!-- Generated by IcoMoon.io -->
<svg version="1.1" xmlns="http://www.w3.org/2000/svg" width="20" height="20" viewBox="0 0 20 20">
<title>internet-explorer</title>
<path d="M20 10.458q0 0.625-0.078 1.161h-12.846q0 1.629 1.222 2.729t2.874 1.099q1.105 0 2.070-0.519t1.523-1.456h4.721q-0.625 1.775-1.903 3.136t-2.985 2.104-3.583 0.742q-2.087 0-3.973-0.926-2.545 1.295-4.397 1.295-2.645 0-2.645-2.935 0-1.283 0.502-3.069 0.19-0.67 1.217-2.556 2.221-4.018 5.301-6.763-2.054 0.882-4.766 3.951 0.703-3.058 3.164-5.017t5.597-1.959q0.335 0 0.502 0.011 2.846-1.306 4.833-1.306 0.714 0 1.295 0.145t1.055 0.452 0.742 0.854 0.268 1.283q0 1.295-0.837 3.192 1.127 2.031 1.127 4.353zM19.219 3.315q0-0.926-0.592-1.473t-1.529-0.547q-1.205 0-2.835 0.781 1.35 0.525 2.483 1.468t1.903 2.182q0.569-1.507 0.569-2.411zM1.429 17.121q0 0.96 0.541 1.479t1.501 0.519q1.283 0 2.969-0.926-1.362-0.804-2.383-2.042t-1.535-2.734q-1.094 2.288-1.094 3.705zM7.054 9.163h8.125q-0.056-1.585-1.261-2.645t-2.801-1.060q-1.607 0-2.807 1.060t-1.256 2.645z"></path>
</svg>
