<!-- Generated by IcoMoon.io -->
<svg version="1.1" xmlns="http://www.w3.org/2000/svg" width="20" height="20" viewBox="0 0 20 20">
<title>intersex</title>
<path d="M12.857 0.357q0-0.156 0.1-0.257t0.257-0.1h3.214q0.29 0 0.502 0.212t0.212 0.502v3.214q0 0.156-0.1 0.257t-0.257 0.1h-0.714q-0.156 0-0.257-0.1t-0.1-0.257v-1.496l-2.835 2.846q1.406 1.763 1.406 4.007 0 2.467-1.646 4.291t-4.068 2.093v1.473h1.071q0.156 0 0.257 0.1t0.1 0.257v0.714q0 0.156-0.1 0.257t-0.257 0.1h-1.071v1.071q0 0.156-0.1 0.257t-0.257 0.1h-0.714q-0.156 0-0.257-0.1t-0.1-0.257v-1.071h-1.071q-0.156 0-0.257-0.1t-0.1-0.257v-0.714q0-0.156 0.1-0.257t0.257-0.1h1.071v-1.473q-1.663-0.179-3.019-1.15t-2.081-2.494-0.592-3.253q0.179-2.277 1.786-3.945t3.873-1.925q1.317-0.156 2.545 0.212t2.21 1.15l2.846-2.835h-1.496q-0.156 0-0.257-0.1t-0.1-0.257v-0.714zM7.857 14.286q2.065 0 3.532-1.468t1.468-3.532-1.468-3.532-3.532-1.468-3.532 1.468-1.468 3.532 1.468 3.532 3.532 1.468z"></path>
</svg>
