<!-- Generated by IcoMoon.io -->
<svg version="1.1" xmlns="http://www.w3.org/2000/svg" width="23" height="20" viewBox="0 0 23 20">
<title>ioxhost</title>
<path d="M16.328 9.286q0 0.391-0.279 0.675t-0.681 0.285h-7.835q-0.402 0-0.681-0.285t-0.279-0.675 0.279-0.675 0.681-0.285h7.835q0.402 0 0.681 0.285t0.279 0.675zM18.717 9.286q0-0.96-0.257-1.897h-10.96q-0.402 0-0.681-0.279t-0.279-0.67q0-0.402 0.279-0.681t0.681-0.279h10.134q-0.982-1.596-2.623-2.533t-3.571-0.938q-1.975 0-3.655 0.977t-2.656 2.651-0.977 3.65q0 0.96 0.257 1.897h10.96q0.402 0 0.681 0.279t0.279 0.67q0 0.402-0.279 0.681t-0.681 0.279h-10.134q0.982 1.596 2.628 2.533t3.577 0.938q1.473 0 2.824-0.575t2.321-1.551 1.551-2.321 0.58-2.829zM22.857 6.44q0 0.391-0.279 0.67t-0.681 0.279h-1.462q0.19 0.949 0.19 1.897 0 1.864-0.731 3.566t-1.959 2.935-2.93 1.964-3.566 0.731q-2.746 0-5.006-1.484t-3.365-3.906h-2.109q-0.402 0-0.681-0.279t-0.279-0.681q0-0.391 0.279-0.67t0.681-0.279h1.473q-0.19-0.949-0.19-1.897 0-1.864 0.731-3.566t1.959-2.935 2.93-1.964 3.577-0.731q2.734 0 4.994 1.484t3.365 3.906h2.098q0.402 0 0.681 0.279t0.279 0.681z"></path>
</svg>
