<!-- Generated by IcoMoon.io -->
<svg version="1.1" xmlns="http://www.w3.org/2000/svg" width="20" height="20" viewBox="0 0 20 20">
<title>italic</title>
<path d="M4.286 18.549l0.19-0.949q0.246-0.078 0.686-0.184t0.804-0.212 0.664-0.262q0.313-0.391 0.458-1.127 0.011-0.078 0.692-3.225t1.272-6.066 0.58-3.309v-0.279q-0.268-0.145-0.608-0.206t-0.776-0.089-0.647-0.061l0.212-1.15q0.368 0.022 1.339 0.073t1.669 0.078 1.345 0.028q0.536 0 1.099-0.028t1.35-0.078 1.099-0.073q-0.056 0.435-0.212 0.993-0.335 0.112-1.133 0.318t-1.211 0.374q-0.089 0.212-0.156 0.474t-0.1 0.446-0.084 0.508-0.073 0.469q-0.301 1.652-0.977 4.682t-0.865 3.968q-0.022 0.1-0.145 0.647t-0.223 1.004-0.179 0.932-0.067 0.642l0.011 0.201q0.19 0.045 2.065 0.346-0.033 0.491-0.179 1.105-0.123 0-0.363 0.017t-0.363 0.017q-0.324 0-0.971-0.112t-0.96-0.112q-1.54-0.022-2.299-0.022-0.569 0-1.596 0.1t-1.35 0.123z"></path>
</svg>
