<!-- Generated by IcoMoon.io -->
<svg version="1.1" xmlns="http://www.w3.org/2000/svg" width="20" height="20" viewBox="0 0 20 20">
<title>joomla</title>
<path d="M13.371 11.975l-1.786 1.786-1.685 1.696-0.335 0.335q-0.725 0.714-1.691 0.971t-1.914 0.022q-0.179 0.781-0.804 1.283t-1.44 0.502q-0.949 0-1.618-0.675t-0.67-1.624q0-0.804 0.497-1.429t1.267-0.804q-0.246-0.96 0.011-1.931t0.982-1.696l0.134-0.134 1.685 1.696-0.123 0.123q-0.413 0.413-0.413 0.993t0.413 1.004q0.413 0.413 0.993 0.413t0.993-0.413l0.335-0.335 1.685-1.696 1.797-1.786zM9.565 4.364l0.134 0.134-1.696 1.696-0.134-0.134q-0.413-0.413-0.993-0.413t-0.993 0.413-0.413 0.999 0.413 0.999l3.806 3.806-1.685 1.696-1.797-1.786-1.685-1.696-0.335-0.335q-0.759-0.748-1.004-1.78t0.056-2.003q-0.781-0.167-1.283-0.792t-0.502-1.44q0-0.949 0.67-1.624t1.618-0.675q0.848 0 1.49 0.547t0.776 1.373q0.938-0.223 1.892 0.039t1.669 0.977zM18.571 16.272q0 0.949-0.67 1.624t-1.618 0.675q-0.826 0-1.462-0.525t-0.792-1.317q-0.96 0.313-2.003 0.067t-1.802-1.004l-0.123-0.134 1.685-1.696 0.134 0.134q0.413 0.413 0.993 0.413t0.993-0.413 0.413-0.993-0.413-0.993l-3.817-3.817 1.696-1.696 3.482 3.482 0.324 0.335q0.714 0.714 0.977 1.68t0.028 1.914q0.848 0.123 1.412 0.765t0.564 1.501zM18.549 3.728q0 0.859-0.569 1.507t-1.417 0.77q0.29 0.949 0.033 1.97t-1.004 1.769l-0.134 0.134-1.685-1.696 0.134-0.134q0.413-0.413 0.413-0.993t-0.413-0.993-0.993-0.413-0.993 0.413l-3.817 3.817-1.696-1.696 1.797-1.786 1.696-1.696 0.324-0.335q0.748-0.748 1.775-0.999t1.987 0.039q0.123-0.837 0.765-1.406t1.512-0.569q0.949 0 1.618 0.675t0.67 1.624z"></path>
</svg>
