<!-- Generated by IcoMoon.io -->
<svg version="1.1" xmlns="http://www.w3.org/2000/svg" width="20" height="20" viewBox="0 0 20 20">
<title>key</title>
<path d="M9.286 5.714q0-0.893-0.625-1.518t-1.518-0.625-1.518 0.625-0.625 1.518q0 0.469 0.212 0.926-0.458-0.212-0.926-0.212-0.893 0-1.518 0.625t-0.625 1.518 0.625 1.518 1.518 0.625 1.518-0.625 0.625-1.518q0-0.469-0.212-0.926 0.458 0.212 0.926 0.212 0.893 0 1.518-0.625t0.625-1.518zM18.783 13.571q0 0.19-0.547 0.737t-0.737 0.547q-0.1 0-0.318-0.179t-0.407-0.368-0.43-0.446-0.273-0.29l-1.071 1.071 2.455 2.455q0.313 0.313 0.313 0.759 0 0.469-0.435 0.904t-0.904 0.435q-0.446 0-0.759-0.313l-7.489-7.489q-1.964 1.462-4.074 1.462-1.819 0-2.963-1.144t-1.144-2.963q0-1.786 1.060-3.493t2.768-2.768 3.493-1.060q1.819 0 2.963 1.144t1.144 2.963q0 2.109-1.462 4.074l3.962 3.962 1.071-1.071q-0.033-0.033-0.29-0.273t-0.446-0.43-0.368-0.407-0.179-0.318q0-0.19 0.547-0.737t0.737-0.547q0.145 0 0.257 0.112 0.067 0.067 0.513 0.497t0.915 0.887 0.965 0.96 0.815 0.871 0.318 0.458z"></path>
</svg>
