<!-- Generated by IcoMoon.io -->
<svg version="1.1" xmlns="http://www.w3.org/2000/svg" width="23" height="20" viewBox="0 0 23 20">
<title>keyboard-o</title>
<path d="M5 13.036v1.071q0 0.179-0.179 0.179h-1.071q-0.179 0-0.179-0.179v-1.071q0-0.179 0.179-0.179h1.071q0.179 0 0.179 0.179zM6.429 10.179v1.071q0 0.179-0.179 0.179h-2.5q-0.179 0-0.179-0.179v-1.071q0-0.179 0.179-0.179h2.5q0.179 0 0.179 0.179zM5 7.321v1.071q0 0.179-0.179 0.179h-1.071q-0.179 0-0.179-0.179v-1.071q0-0.179 0.179-0.179h1.071q0.179 0 0.179 0.179zM16.429 13.036v1.071q0 0.179-0.179 0.179h-9.643q-0.179 0-0.179-0.179v-1.071q0-0.179 0.179-0.179h9.643q0.179 0 0.179 0.179zM9.286 10.179v1.071q0 0.179-0.179 0.179h-1.071q-0.179 0-0.179-0.179v-1.071q0-0.179 0.179-0.179h1.071q0.179 0 0.179 0.179zM7.857 7.321v1.071q0 0.179-0.179 0.179h-1.071q-0.179 0-0.179-0.179v-1.071q0-0.179 0.179-0.179h1.071q0.179 0 0.179 0.179zM12.143 10.179v1.071q0 0.179-0.179 0.179h-1.071q-0.179 0-0.179-0.179v-1.071q0-0.179 0.179-0.179h1.071q0.179 0 0.179 0.179zM10.714 7.321v1.071q0 0.179-0.179 0.179h-1.071q-0.179 0-0.179-0.179v-1.071q0-0.179 0.179-0.179h1.071q0.179 0 0.179 0.179zM15 10.179v1.071q0 0.179-0.179 0.179h-1.071q-0.179 0-0.179-0.179v-1.071q0-0.179 0.179-0.179h1.071q0.179 0 0.179 0.179zM19.286 13.036v1.071q0 0.179-0.179 0.179h-1.071q-0.179 0-0.179-0.179v-1.071q0-0.179 0.179-0.179h1.071q0.179 0 0.179 0.179zM13.571 7.321v1.071q0 0.179-0.179 0.179h-1.071q-0.179 0-0.179-0.179v-1.071q0-0.179 0.179-0.179h1.071q0.179 0 0.179 0.179zM16.429 7.321v1.071q0 0.179-0.179 0.179h-1.071q-0.179 0-0.179-0.179v-1.071q0-0.179 0.179-0.179h1.071q0.179 0 0.179 0.179zM19.286 7.321v3.929q0 0.179-0.179 0.179h-2.5q-0.179 0-0.179-0.179v-1.071q0-0.179 0.179-0.179h1.25v-2.679q0-0.179 0.179-0.179h1.071q0.179 0 0.179 0.179zM20.714 15.714v-10h-18.571v10h18.571zM22.143 5.714v10q0 0.592-0.419 1.010t-1.010 0.419h-18.571q-0.592 0-1.010-0.419t-0.419-1.010v-10q0-0.592 0.419-1.010t1.010-0.419h18.571q0.592 0 1.010 0.419t0.419 1.010z"></path>
</svg>
