<!-- Generated by IcoMoon.io -->
<svg version="1.1" xmlns="http://www.w3.org/2000/svg" width="20" height="20" viewBox="0 0 20 20">
<title>krw</title>
<path d="M5.737 13.337l0.904-3.337h-1.775l0.837 3.348q0.011 0.011 0.011 0.033t0.011 0.033q0-0.011 0.006-0.039t0.006-0.039zM7.031 8.571l0.391-1.429h-3.259l0.357 1.429h2.511zM9.174 8.571h1.551l-0.391-1.429h-0.781zM14.185 13.348l0.871-3.348h-1.808l0.904 3.337q0 0.011 0.006 0.039t0.017 0.039q0-0.011 0.006-0.033t0.006-0.033zM15.424 8.571l0.368-1.429h-3.315l0.379 1.429h2.567zM20 8.929v0.714q0 0.156-0.1 0.257t-0.257 0.1h-2.377l-1.83 6.875q-0.078 0.268-0.346 0.268h-1.775q-0.268 0-0.346-0.268l-1.853-6.875h-2.333l-1.864 6.875q-0.078 0.268-0.346 0.268h-1.775q-0.123 0-0.218-0.078t-0.117-0.19l-1.786-6.875h-2.321q-0.156 0-0.257-0.1t-0.1-0.257v-0.714q0-0.156 0.1-0.257t0.257-0.1h1.953l-0.368-1.429h-1.585q-0.156 0-0.257-0.1t-0.1-0.257v-0.714q0-0.156 0.1-0.257t0.257-0.1h1.217l-0.993-3.839q-0.056-0.167 0.056-0.313 0.112-0.134 0.29-0.134h1.529q0.29 0 0.346 0.268l1.004 4.018h4.007l1.083-4.018q0.078-0.268 0.346-0.268h1.406q0.268 0 0.346 0.268l1.094 4.018h4.074l1.038-4.018q0.056-0.268 0.346-0.268h1.529q0.179 0 0.29 0.134 0.112 0.145 0.056 0.313l-1.016 3.839h1.239q0.156 0 0.257 0.1t0.1 0.257v0.714q0 0.156-0.1 0.257t-0.257 0.1h-1.618l-0.379 1.429h1.998q0.156 0 0.257 0.1t0.1 0.257z"></path>
</svg>
