<!-- Generated by IcoMoon.io -->
<svg version="1.1" xmlns="http://www.w3.org/2000/svg" width="20" height="20" viewBox="0 0 20 20">
<title>language</title>
<path d="M8.728 12.031q-0.011 0.033-0.14-0.006t-0.352-0.128l-0.223-0.1q-0.491-0.223-0.971-0.547-0.078-0.056-0.458-0.352t-0.424-0.318q-0.748 1.15-1.496 2.020-0.904 1.060-1.172 1.228-0.045 0.022-0.218 0.045t-0.206 0q0.067-0.045 0.915-1.027 0.234-0.268 0.954-1.283t0.876-1.317q0.19-0.335 0.569-1.099t0.402-0.865q-0.089-0.011-1.228 0.368-0.089 0.022-0.307 0.084t-0.385 0.106-0.19 0.056q-0.022 0.022-0.022 0.117t-0.011 0.106q-0.056 0.112-0.346 0.167-0.257 0.078-0.525 0-0.201-0.045-0.313-0.234-0.045-0.067-0.056-0.257 0.067-0.022 0.273-0.056t0.329-0.067q0.647-0.179 1.172-0.357 1.116-0.391 1.138-0.391 0.112-0.022 0.48-0.218t0.491-0.24q0.1-0.033 0.24-0.089t0.162-0.061 0.067 0.006q0.022 0.134-0.011 0.368 0 0.022-0.14 0.301t-0.296 0.597-0.19 0.374q-0.279 0.558-0.859 1.462l0.714 0.313q0.134 0.067 0.831 0.357t0.753 0.313q0.045 0.011 0.117 0.285t0.050 0.34zM6.44 6.607q0.033 0.167-0.045 0.313-0.134 0.257-0.558 0.424-0.335 0.134-0.67 0.134-0.29-0.033-0.547-0.29-0.156-0.167-0.201-0.458l0.011-0.033q0.033 0.033 0.218 0.056t0.296 0 0.647-0.179q0.402-0.134 0.614-0.156 0.19 0 0.234 0.19zM14.23 8.047l0.703 2.533-1.551-0.469zM1.864 16.975l7.746-2.589v-11.518l-7.746 2.6v11.507zM15.714 13.438l1.138 0.346-2.020-7.333-1.116-0.346-2.411 5.982 1.138 0.346 0.502-1.228 2.355 0.725zM10.1 2.701l6.395 2.054v-4.241zM13.571 17.467l1.763 0.145-0.603 1.786-0.446-0.737q-1.451 0.926-3.080 1.205-0.647 0.134-1.016 0.134h-0.938q-0.882 0-2.227-0.435t-2.048-0.949q-0.089-0.078-0.089-0.179 0-0.089 0.056-0.151t0.145-0.061q0.045 0 0.201 0.084t0.34 0.184 0.229 0.123q0.815 0.413 1.78 0.686t1.758 0.273q1.060 0 1.864-0.162t1.752-0.564q0.167-0.078 0.34-0.173t0.379-0.212 0.318-0.184zM18.571 5.424v12.042l-8.638-2.746q-0.156 0.067-4.185 1.423t-4.107 1.356q-0.145 0-0.201-0.145 0-0.011-0.011-0.033v-12.031q0.033-0.1 0.045-0.112 0.056-0.067 0.223-0.123 1.194-0.402 1.663-0.558v-4.286l6.228 2.21q0.022 0 1.791-0.614t3.527-1.211 1.802-0.597q0.223 0 0.223 0.234v4.665z"></path>
</svg>
