<!-- Generated by IcoMoon.io -->
<svg version="1.1" xmlns="http://www.w3.org/2000/svg" width="23" height="20" viewBox="0 0 23 20">
<title>laptop</title>
<path d="M5.357 14.286q-0.737 0-1.261-0.525t-0.525-1.261v-7.857q0-0.737 0.525-1.261t1.261-0.525h12.143q0.737 0 1.261 0.525t0.525 1.261v7.857q0 0.737-0.525 1.261t-1.261 0.525h-12.143zM5 4.643v7.857q0 0.145 0.106 0.251t0.251 0.106h12.143q0.145 0 0.251-0.106t0.106-0.251v-7.857q0-0.145-0.106-0.251t-0.251-0.106h-12.143q-0.145 0-0.251 0.106t-0.106 0.251zM20.357 15h1.786v1.071q0 0.446-0.525 0.759t-1.261 0.313h-17.857q-0.737 0-1.261-0.313t-0.525-0.759v-1.071h19.643zM12.321 16.071q0.179 0 0.179-0.179t-0.179-0.179h-1.786q-0.179 0-0.179 0.179t0.179 0.179h1.786z"></path>
</svg>
