<!-- Generated by IcoMoon.io -->
<svg version="1.1" xmlns="http://www.w3.org/2000/svg" width="20" height="20" viewBox="0 0 20 20">
<title>lastfm</title>
<path d="M14.42 7.857q0 0.067 0.112 0.458 0.112 0.324 0.279 0.552t0.458 0.379 0.491 0.223 0.614 0.184q3.627 1.016 3.627 3.705 0 1.629-1.177 2.706t-2.84 1.077q-0.658 0-1.244-0.206t-1.021-0.508-0.859-0.831-0.703-0.977-0.597-1.155-0.485-1.15-0.441-1.189-0.396-1.060q-0.357-0.904-0.686-1.49t-0.82-1.077-1.161-0.714-1.585-0.223q-1.071 0-2.042 0.619t-1.54 1.613-0.569 2.065q0 1.786 1.189 3.119t2.941 1.334q1.975 0 2.879-1.060 0.625-0.703 0.926-1.295l0.938 1.696q-0.167 0.379-0.491 0.781l0.011 0.011q-1.462 1.696-4.33 1.696-1.641 0-3.008-0.882t-2.126-2.316-0.759-3.064q0-1.172 0.485-2.299t1.295-1.97 1.92-1.356 2.282-0.513q0.971 0 1.775 0.212t1.378 0.558 1.060 0.893 0.809 1.105 0.653 1.306 0.564 1.39 0.558 1.456 0.614 1.417q1.071 2.232 2.6 2.232 0.904 0 1.546-0.541t0.642-1.434q0-0.469-0.212-0.804t-0.564-0.513-0.809-0.352-0.943-0.301-0.977-0.379-0.904-0.58-0.725-0.915-0.435-1.367q-0.033-0.179-0.033-0.368 0-1.228 0.977-2.143t2.215-0.871q0.871 0.033 1.345 0.162t1.010 0.597h-0.011q0.134 0.123 0.257 0.273t0.29 0.402 0.212 0.307l-1.44 1.105q-0.29-0.547-0.603-0.781v-0.011q-0.257-0.234-1.083-0.234-0.547 0-0.938 0.368t-0.391 0.926z"></path>
</svg>
