<!-- Generated by IcoMoon.io -->
<svg version="1.1" xmlns="http://www.w3.org/2000/svg" width="20" height="20" viewBox="0 0 20 20">
<title>lastfm-square</title>
<path d="M17.411 11.741q0-1.931-2.612-2.667-0.391-0.112-0.592-0.184t-0.424-0.279-0.324-0.519q0-0.022-0.022-0.095t-0.033-0.134-0.011-0.084q0-0.402 0.273-0.664t0.675-0.262q0.603 0 0.792 0.167h-0.011q0.223 0.167 0.435 0.569l1.038-0.792q-0.435-0.603-0.547-0.714-0.368-0.324-0.753-0.435t-0.954-0.112q-0.893 0-1.585 0.642t-0.692 1.535q0 0.078 0.022 0.257 0.179 1.071 0.72 1.563t1.657 0.815q0.324 0.089 0.547 0.173t0.502 0.24 0.43 0.385 0.151 0.519v0.056q0.011 0.647-0.452 1.038t-1.122 0.391q-1.083 0-1.864-1.607-0.257-0.525-0.575-1.356t-0.536-1.401-0.603-1.233-0.826-1.066-1.155-0.675-1.641-0.273q-1.127 0-2.143 0.625t-1.607 1.652-0.558 2.143v0.011q0.045 1.205 0.564 2.221t1.49 1.646 2.188 0.631q2.076 0 3.114-1.228 0.223-0.301 0.346-0.569l-0.67-1.217q-0.469 0.893-1.105 1.295t-1.629 0.402q-1.283 0-2.132-0.971t-0.848-2.277q0-1.172 0.915-2.109t2.076-0.938q1.25 0 1.897 0.597t1.161 1.925q0.089 0.234 0.285 0.765t0.318 0.854 0.352 0.831 0.43 0.826 0.508 0.698 0.619 0.597 0.737 0.368 0.893 0.151q1.194 0 2.042-0.776t0.848-1.948zM18.571 4.643v10.714q0 1.328-0.943 2.271t-2.271 0.943h-10.714q-1.328 0-2.271-0.943t-0.943-2.271v-10.714q0-1.328 0.943-2.271t2.271-0.943h10.714q1.328 0 2.271 0.943t0.943 2.271z"></path>
</svg>
