<!-- Generated by IcoMoon.io -->
<svg version="1.1" xmlns="http://www.w3.org/2000/svg" width="20" height="20" viewBox="0 0 20 20">
<title>leaf</title>
<path d="M14.286 7.857q0-0.29-0.212-0.502t-0.502-0.212q-1.92 0-3.549 0.552t-2.896 1.496-2.628 2.45q-0.212 0.234-0.212 0.502 0 0.29 0.212 0.502t0.502 0.212q0.268 0 0.502-0.212 0.301-0.268 0.826-0.792t0.748-0.737q1.529-1.384 2.997-1.964t3.499-0.58q0.29 0 0.502-0.212t0.212-0.502zM20 5.647q0 1.060-0.223 2.154-0.513 2.5-2.059 4.275t-3.99 2.991q-2.388 1.205-4.888 1.205-1.652 0-3.192-0.525-0.167-0.056-0.982-0.469t-1.071-0.413q-0.179 0-0.441 0.357t-0.502 0.781-0.586 0.781-0.67 0.357q-0.48 0-0.709-0.195t-0.508-0.664q-0.022-0.045-0.067-0.123t-0.061-0.112-0.033-0.106-0.017-0.151q0-0.391 0.346-0.82t0.759-0.731 0.759-0.625 0.346-0.536q0-0.045-0.156-0.424t-0.179-0.491q-0.1-0.569-0.1-1.161 0-1.283 0.485-2.455t1.328-2.059 1.903-1.551 2.277-1.066q0.614-0.201 1.618-0.285t2.003-0.1 1.992-0.067 1.825-0.268 1.267-0.631l0.329-0.329 0.329-0.313 0.301-0.223 0.407-0.179 0.485-0.050q0.435 0 0.787 0.513t0.53 1.25 0.268 1.384 0.089 1.071z"></path>
</svg>
