<!-- Generated by IcoMoon.io -->
<svg version="1.1" xmlns="http://www.w3.org/2000/svg" width="23" height="20" viewBox="0 0 23 20">
<title>leanpub</title>
<path d="M21.127 4.375l1.73 14.196q-1.462 0-2.868-0.636-2.232-1.016-4.386-1.016-2.522 0-4.174 1.652-1.652-1.652-4.174-1.652-2.154 0-4.386 1.016-1.429 0.636-2.813 0.636h-0.056l1.73-14.196q2.5-1.417 5.379-1.417 2.6 0 4.319 1.183 1.719-1.183 4.319-1.183 2.879 0 5.379 1.417zM15.603 15.391q1.44 0 2.589 0.318t2.902 1.044l-1.384-11.395q-1.908-0.871-4.107-0.871-2.5 0-4.174 1.574-1.674-1.574-4.174-1.574-2.199 0-4.107 0.871l-1.384 11.395q1.172-0.48 1.847-0.725t1.657-0.441 1.987-0.195q2.254 0 4.174 1.205 1.92-1.205 4.174-1.205zM16.049 15.011l-0.614-10.123q-2.355 0.045-4.007 1.73-1.696-1.73-4.174-1.73-1.964 0-3.75 0.737l-1.272 10.502q1.384-0.569 2.55-0.848t2.472-0.279q2.333 0 4.174 1.138 1.92-1.194 4.174-1.138z"></path>
</svg>
