<!-- Generated by IcoMoon.io -->
<svg version="1.1" xmlns="http://www.w3.org/2000/svg" width="20" height="20" viewBox="0 0 20 20">
<title>legal</title>
<path d="M19.766 17.143q0 0.592-0.413 1.004l-1.194 1.205q-0.435 0.413-1.016 0.413-0.592 0-1.004-0.413l-4.051-4.063q-0.424-0.402-0.424-1.004 0-0.592 0.48-1.071l-2.857-2.857-1.406 1.406q-0.156 0.156-0.379 0.156t-0.379-0.156q0.022 0.022 0.14 0.134t0.14 0.145 0.112 0.128 0.112 0.151 0.067 0.151 0.061 0.184 0.017 0.201q0 0.424-0.313 0.759-0.033 0.033-0.184 0.201t-0.212 0.229-0.206 0.184-0.246 0.173-0.246 0.1-0.29 0.050q-0.446 0-0.759-0.313l-4.554-4.554q-0.313-0.313-0.313-0.759 0-0.145 0.050-0.29t0.1-0.246 0.173-0.246 0.184-0.206 0.229-0.212 0.201-0.184q0.335-0.313 0.759-0.313 0.112 0 0.201 0.017t0.184 0.061 0.151 0.067 0.151 0.112 0.128 0.112 0.145 0.14 0.134 0.14q-0.156-0.156-0.156-0.379t0.156-0.379l3.884-3.884q0.156-0.156 0.379-0.156t0.379 0.156q-0.022-0.022-0.14-0.134t-0.14-0.145-0.112-0.128-0.112-0.151-0.067-0.151-0.061-0.184-0.017-0.201q0-0.424 0.313-0.759 0.033-0.033 0.184-0.201t0.212-0.229 0.206-0.184 0.246-0.173 0.246-0.1 0.29-0.050q0.446 0 0.759 0.313l4.554 4.554q0.313 0.313 0.313 0.759 0 0.145-0.050 0.29t-0.1 0.246-0.173 0.246-0.184 0.206-0.229 0.212-0.201 0.184q-0.335 0.313-0.759 0.313-0.112 0-0.201-0.017t-0.184-0.061-0.151-0.067-0.151-0.112-0.128-0.112-0.145-0.14-0.134-0.14q0.156 0.156 0.156 0.379t-0.156 0.379l-1.406 1.406 2.857 2.857q0.48-0.48 1.071-0.48 0.58 0 1.016 0.413l4.051 4.051q0.413 0.435 0.413 1.016z"></path>
</svg>
