<!-- Generated by IcoMoon.io -->
<svg version="1.1" xmlns="http://www.w3.org/2000/svg" width="20" height="20" viewBox="0 0 20 20">
<title>lemon-o</title>
<path d="M17.132 9.219q0-0.491-0.078-1.267t-0.201-1.077q-0.134-0.335-0.19-0.491t-0.1-0.407-0.045-0.541q0-0.257 0.056-0.765t0.056-0.753q0-0.413-0.112-0.614-0.045-0.011-0.145-0.011-0.212 0-0.647 0.050t-0.658 0.050q-0.67 0-1.964-0.268t-1.953-0.268q-0.48 0-1.055 0.128t-0.949 0.262-0.999 0.379q-1.529 0.603-2.254 1.15-1.071 0.815-1.78 2.115t-0.982 2.634-0.273 2.773q0 0.446 0.14 1.339t0.14 1.35q0 0.257-0.123 0.742t-0.123 0.731 0.134 0.407 0.379 0.162q0.268 0 0.809-0.123t0.82-0.123q0.636 0 1.892 0.173t1.892 0.173q2.020 0 3.17-0.402 1.44-0.502 2.628-1.702t1.853-2.74 0.664-3.069zM18.56 9.196q0 1.842-0.781 3.655t-2.187 3.214-3.136 2.015q-1.384 0.491-3.638 0.491-0.636 0-1.897-0.162t-1.886-0.162q-0.268 0-0.809 0.162t-0.82 0.162q-0.815 0-1.378-0.619t-0.564-1.434q0-0.268 0.123-0.759t0.123-0.748q0-0.446-0.14-1.345t-0.14-1.356q0-1.239 0.201-2.427t0.608-2.338 1.122-2.165 1.674-1.741q0.871-0.658 2.589-1.339 2.165-0.871 3.527-0.871 0.67 0 1.959 0.268t1.936 0.268q0.212 0 0.636-0.056t0.647-0.056q0.904 0 1.317 0.564t0.413 1.501q0 0.257-0.056 0.759t-0.056 0.759q0 0.145 0.022 0.279t0.039 0.184 0.084 0.229 0.089 0.223q0.179 0.446 0.279 1.323t0.1 1.523z"></path>
</svg>
