<!-- Generated by IcoMoon.io -->
<svg version="1.1" xmlns="http://www.w3.org/2000/svg" width="20" height="20" viewBox="0 0 20 20">
<title>life-buoy</title>
<path d="M10 0q2.031 0 3.884 0.792t3.192 2.132 2.132 3.192 0.792 3.884-0.792 3.884-2.132 3.192-3.192 2.132-3.884 0.792-3.884-0.792-3.192-2.132-2.132-3.192-0.792-3.884 0.792-3.884 2.132-3.192 3.192-2.132 3.884-0.792zM10 1.429q-2.121 0-4.029 1.004l2.165 2.165q0.915-0.313 1.864-0.313t1.864 0.313l2.165-2.165q-1.908-1.004-4.029-1.004zM2.433 14.029l2.165-2.165q-0.313-0.915-0.313-1.864t0.313-1.864l-2.165-2.165q-1.004 1.908-1.004 4.029t1.004 4.029zM10 18.571q2.121 0 4.029-1.004l-2.165-2.165q-0.915 0.313-1.864 0.313t-1.864-0.313l-2.165 2.165q1.908 1.004 4.029 1.004zM10 14.286q1.775 0 3.030-1.256t1.256-3.030-1.256-3.030-3.030-1.256-3.030 1.256-1.256 3.030 1.256 3.030 3.030 1.256zM15.402 11.864l2.165 2.165q1.004-1.908 1.004-4.029t-1.004-4.029l-2.165 2.165q0.313 0.915 0.313 1.864t-0.313 1.864z"></path>
</svg>
