<!-- Generated by IcoMoon.io -->
<svg version="1.1" xmlns="http://www.w3.org/2000/svg" width="20" height="20" viewBox="0 0 20 20">
<title>lightbulb-o</title>
<path d="M12.5 6.429q0 0.145-0.106 0.251t-0.251 0.106-0.251-0.106-0.106-0.251q0-0.513-0.603-0.792t-1.183-0.279q-0.145 0-0.251-0.106t-0.106-0.251 0.106-0.251 0.251-0.106q0.558 0 1.11 0.179t0.971 0.603 0.419 1.004zM14.286 6.429q0-0.804-0.385-1.496t-1.004-1.133-1.373-0.692-1.523-0.251-1.523 0.251-1.373 0.692-1.004 1.133-0.385 1.496q0 1.127 0.759 2.009 0.112 0.123 0.34 0.368t0.34 0.368q1.429 1.708 1.574 3.326h2.545q0.145-1.618 1.574-3.326 0.112-0.123 0.34-0.368t0.34-0.368q0.759-0.882 0.759-2.009zM15.714 6.429q0 1.73-1.15 2.991-0.502 0.547-0.831 0.971t-0.664 1.066-0.379 1.2q0.525 0.313 0.525 0.915 0 0.413-0.279 0.714 0.279 0.301 0.279 0.714 0 0.58-0.502 0.904 0.145 0.257 0.145 0.525 0 0.513-0.352 0.792t-0.865 0.279q-0.223 0.491-0.67 0.781t-0.971 0.29-0.971-0.29-0.67-0.781q-0.513 0-0.865-0.279t-0.352-0.792q0-0.268 0.145-0.525-0.502-0.324-0.502-0.904 0-0.413 0.279-0.714-0.279-0.301-0.279-0.714 0-0.603 0.525-0.915-0.045-0.558-0.379-1.2t-0.664-1.066-0.831-0.971q-1.15-1.261-1.15-2.991 0-1.105 0.497-2.059t1.306-1.585 1.83-0.993 2.081-0.363 2.081 0.363 1.83 0.993 1.306 1.585 0.497 2.059z"></path>
</svg>
