<!-- Generated by IcoMoon.io -->
<svg version="1.1" xmlns="http://www.w3.org/2000/svg" width="23" height="20" viewBox="0 0 23 20">
<title>line-chart</title>
<path d="M22.857 17.143v1.429h-22.857v-17.143h1.429v15.714h21.429zM21.429 3.214v4.855q0 0.234-0.218 0.329t-0.396-0.084l-1.35-1.35-7.065 7.065q-0.112 0.112-0.257 0.112t-0.257-0.112l-2.6-2.6-4.643 4.643-2.143-2.143 6.529-6.529q0.112-0.112 0.257-0.112t0.257 0.112l2.6 2.6 5.179-5.179-1.35-1.35q-0.179-0.179-0.084-0.396t0.329-0.218h4.855q0.156 0 0.257 0.1t0.1 0.257z"></path>
</svg>
