<!-- Generated by IcoMoon.io -->
<svg version="1.1" xmlns="http://www.w3.org/2000/svg" width="20" height="20" viewBox="0 0 20 20">
<title>linkedin-square</title>
<path d="M4.074 15.781h2.578v-7.746h-2.578v7.746zM6.819 5.647q-0.011-0.58-0.402-0.96t-1.038-0.379-1.055 0.379-0.407 0.96q0 0.569 0.396 0.954t1.032 0.385h0.011q0.658 0 1.060-0.385t0.402-0.954zM13.348 15.781h2.578v-4.442q0-1.719-0.815-2.6t-2.154-0.882q-1.518 0-2.333 1.306h0.022v-1.127h-2.578q0.033 0.737 0 7.746h2.578v-4.33q0-0.424 0.078-0.625 0.167-0.391 0.502-0.664t0.826-0.273q1.295 0 1.295 1.752v4.141zM18.571 4.643v10.714q0 1.328-0.943 2.271t-2.271 0.943h-10.714q-1.328 0-2.271-0.943t-0.943-2.271v-10.714q0-1.328 0.943-2.271t2.271-0.943h10.714q1.328 0 2.271 0.943t0.943 2.271z"></path>
</svg>
