<!-- Generated by IcoMoon.io -->
<svg version="1.1" xmlns="http://www.w3.org/2000/svg" width="20" height="20" viewBox="0 0 20 20">
<title>linkedin</title>
<path d="M5.324 6.975v11.060h-3.683v-11.060h3.683zM5.558 3.56q0.011 0.815-0.564 1.362t-1.512 0.547h-0.022q-0.915 0-1.473-0.547t-0.558-1.362q0-0.826 0.575-1.367t1.501-0.541 1.484 0.541 0.569 1.367zM18.571 11.696v6.339h-3.672v-5.915q0-1.172-0.452-1.836t-1.412-0.664q-0.703 0-1.177 0.385t-0.709 0.954q-0.123 0.335-0.123 0.904v6.172h-3.672q0.022-4.453 0.022-7.221t-0.011-3.304l-0.011-0.536h3.672v1.607h-0.022q0.223-0.357 0.458-0.625t0.631-0.58 0.971-0.485 1.278-0.173q1.908 0 3.069 1.267t1.161 3.711z"></path>
</svg>
