<!-- Generated by IcoMoon.io -->
<svg version="1.1" xmlns="http://www.w3.org/2000/svg" width="20" height="20" viewBox="0 0 20 20">
<title>link</title>
<path d="M16.964 13.571q0-0.446-0.313-0.759l-2.321-2.321q-0.313-0.313-0.759-0.313-0.469 0-0.804 0.357 0.033 0.033 0.212 0.206t0.24 0.24 0.167 0.212 0.145 0.285 0.039 0.307q0 0.446-0.313 0.759t-0.759 0.313q-0.167 0-0.307-0.039t-0.285-0.145-0.212-0.167-0.24-0.24-0.206-0.212q-0.368 0.346-0.368 0.815 0 0.446 0.313 0.759l2.299 2.31q0.301 0.301 0.759 0.301 0.446 0 0.759-0.29l1.641-1.629q0.313-0.313 0.313-0.748zM9.118 5.703q0-0.446-0.313-0.759l-2.299-2.31q-0.313-0.313-0.759-0.313-0.435 0-0.759 0.301l-1.641 1.629q-0.313 0.313-0.313 0.748 0 0.446 0.313 0.759l2.321 2.321q0.301 0.301 0.759 0.301 0.469 0 0.804-0.346-0.033-0.033-0.212-0.206t-0.24-0.24-0.167-0.212-0.145-0.285-0.039-0.307q0-0.446 0.313-0.759t0.759-0.313q0.167 0 0.307 0.039t0.285 0.145 0.212 0.167 0.24 0.24 0.206 0.212q0.368-0.346 0.368-0.815zM19.107 13.571q0 1.339-0.949 2.266l-1.641 1.629q-0.926 0.926-2.266 0.926-1.35 0-2.277-0.949l-2.299-2.31q-0.926-0.926-0.926-2.266 0-1.373 0.982-2.333l-0.982-0.982q-0.96 0.982-2.321 0.982-1.339 0-2.277-0.938l-2.321-2.321q-0.938-0.938-0.938-2.277t0.949-2.266l1.641-1.629q0.926-0.926 2.266-0.926 1.35 0 2.277 0.949l2.299 2.31q0.926 0.926 0.926 2.266 0 1.373-0.982 2.333l0.982 0.982q0.96-0.982 2.321-0.982 1.339 0 2.277 0.938l2.321 2.321q0.938 0.938 0.938 2.277z"></path>
</svg>
