<!-- Generated by IcoMoon.io -->
<svg version="1.1" xmlns="http://www.w3.org/2000/svg" width="20" height="20" viewBox="0 0 20 20">
<title>linode</title>
<path d="M5.112 17.132l2.254 2.388-0.379-2.634-2.411-2.377zM7.634 19.654l3.058-2.433-0.123-2.734-3.348 2.4zM4.163 12.533l2.533 2.377-0.536-3.65-2.734-2.277zM6.953 15.033l3.538-2.388-0.156-3.616-3.929 2.232zM10.837 15.156l1.060 0.893-0.022-2.667-1.15-0.882q0 0.011 0.011 0.095t0 0.134-0.056 0.084l-0.871 0.58 0.949 0.781q0.078 0.067 0.078 0.982zM2.969 6.763l2.857 2.232-0.759-5.19-3.114-1.931zM14.52 14.163l0.167-2.612-2.567 1.83 0.022 2.679zM6.083 9.085l4.163-2.165-0.212-4.922-4.721 1.819zM15.603 13.158l0.223-2.6-2.522-1.585-0.022 1.172 1.607 1.060q0.067 0.045 0.045 0.1l-0.078 1.328zM17.734 11.607l0.335-2.478-1.998 1.429-0.223 2.545zM15.636 13.471l-0.792-0.547-0.089 1.306q0 0.056-0.045 0.089l-2.612 2.087q-0.078 0.056-0.156 0l-1.094-0.926 0.078 1.797q0 0.056-0.045 0.089l-3.27 2.612q-0.045 0.022-0.067 0.022-0.089-0.022-0.089-0.033l-2.545-2.701q-0.045-0.045-0.658-3.092-0.022-0.078 0.056-0.123l0.681-0.413q-1.049-0.96-1.060-1.027l-0.804-3.917q-0.022-0.078 0.067-0.134l1.049-0.502q-1.484-1.116-1.507-1.205l-1.071-5.201q-0.022-0.112 0.078-0.145l4.833-1.507q0.056 0 0.089 0.011l3.538 1.708q0.067 0.045 0.067 0.1l0.223 5.167q0 0.078-0.067 0.112l-1.317 0.681 1.406 0.949q0.056 0.022 0.056 0.089l0.056 1.373 1.35-0.826q0.056-0.045 0.123 0l0.938 0.625 0.033-1.228q0-0.067 0.056-0.1l2.299-1.406q0.067-0.033 0.123 0l2.734 1.507q0.045 0.045 0.056 0.078t-0.073 0.67-0.195 1.39-0.112 0.787q0 0.056-0.045 0.078l-2.132 1.708q-0.067 0.056-0.145 0z"></path>
</svg>
