<!-- Generated by IcoMoon.io -->
<svg version="1.1" xmlns="http://www.w3.org/2000/svg" width="20" height="20" viewBox="0 0 20 20">
<title>linux</title>
<path d="M8.828 4.587q-0.123 0.011-0.173 0.117t-0.095 0.106q-0.056 0.011-0.056-0.056 0-0.134 0.212-0.167h0.112zM9.799 4.743q-0.045 0.011-0.128-0.073t-0.195-0.050q0.268-0.123 0.357 0.022 0.033 0.067-0.033 0.1zM5.882 9.509q-0.045-0.011-0.067 0.033t-0.050 0.14-0.061 0.151-0.112 0.145q-0.112 0.123-0.011 0.134 0.045 0.011 0.14-0.078t0.14-0.201q0.011-0.033 0.022-0.078t0.022-0.067 0.017-0.050 0.006-0.045v-0.033l-0.011-0.028-0.033-0.022zM15.424 13.516q0-0.201-0.614-0.469 0.045-0.167 0.084-0.307t0.056-0.29 0.033-0.24 0.006-0.251-0.011-0.218-0.039-0.246-0.045-0.229-0.056-0.279-0.061-0.296q-0.112-0.536-0.525-1.15t-0.804-0.837q0.268 0.223 0.636 0.926 0.971 1.808 0.603 3.103-0.123 0.446-0.558 0.469-0.346 0.045-0.43-0.206t-0.089-0.932-0.128-1.194q-0.1-0.435-0.218-0.77t-0.218-0.508-0.173-0.273-0.145-0.167-0.084-0.078q-0.156-0.692-0.346-1.15t-0.329-0.625-0.262-0.368-0.167-0.446q-0.045-0.234 0.067-0.597t0.050-0.552-0.497-0.279q-0.167-0.033-0.497-0.201t-0.396-0.179q-0.089-0.011-0.123-0.29t0.089-0.569 0.402-0.301q0.413-0.033 0.569 0.335t0.045 0.647q-0.123 0.212-0.022 0.296t0.335 0.006q0.145-0.045 0.145-0.402v-0.413q-0.056-0.335-0.151-0.558t-0.234-0.34-0.262-0.167-0.301-0.084q-1.194 0.089-0.993 1.496 0 0.167-0.011 0.167-0.1-0.1-0.329-0.117t-0.368 0.006-0.173-0.056q0.011-0.636-0.179-1.004t-0.502-0.379q-0.301-0.011-0.463 0.307t-0.184 0.664q-0.011 0.167 0.039 0.413t0.145 0.419 0.173 0.151q0.112-0.033 0.179-0.156 0.045-0.1-0.078-0.089-0.078 0-0.173-0.162t-0.106-0.374q-0.011-0.246 0.1-0.413t0.379-0.156q0.19 0 0.301 0.234t0.106 0.435-0.017 0.246q-0.246 0.167-0.346 0.324-0.089 0.134-0.307 0.262t-0.229 0.14q-0.145 0.156-0.173 0.301t0.084 0.201q0.156 0.089 0.279 0.218t0.179 0.212 0.206 0.145 0.396 0.073q0.525 0.022 1.138-0.167 0.022-0.011 0.257-0.078t0.385-0.117 0.329-0.145 0.234-0.195q0.1-0.156 0.223-0.089 0.056 0.033 0.073 0.095t-0.033 0.134-0.184 0.106q-0.223 0.067-0.631 0.24t-0.508 0.218q-0.491 0.212-0.781 0.257-0.279 0.056-0.882-0.022-0.112-0.022-0.1 0.022t0.19 0.212q0.279 0.257 0.748 0.246 0.19-0.011 0.402-0.078t0.402-0.156 0.374-0.195 0.335-0.19 0.273-0.134 0.195-0.028 0.095 0.123q0 0.022-0.011 0.050t-0.045 0.056-0.067 0.050-0.095 0.056-0.1 0.050-0.112 0.056-0.106 0.050q-0.313 0.156-0.753 0.491t-0.742 0.48-0.547 0.011q-0.234-0.123-0.703-0.815-0.246-0.346-0.279-0.246-0.011 0.033-0.011 0.112 0 0.279-0.167 0.631t-0.329 0.619-0.234 0.647 0.128 0.703q-0.257 0.067-0.698 1.004t-0.53 1.574q-0.022 0.201-0.017 0.77t-0.061 0.658q-0.089 0.268-0.324 0.033-0.357-0.346-0.402-1.049-0.022-0.313 0.045-0.625 0.045-0.212-0.011-0.201-0.022 0.011-0.045 0.056-0.402 0.725 0.112 1.853 0.056 0.134 0.279 0.313t0.268 0.223q0.223 0.257 1.161 1.010t1.038 0.854q0.179 0.167 0.195 0.424t-0.156 0.48-0.508 0.257q0.089 0.167 0.324 0.497t0.313 0.603 0.078 0.787q0.513-0.268 0.078-1.027-0.045-0.089-0.117-0.179t-0.106-0.134-0.022-0.067q0.033-0.056 0.145-0.106t0.223 0.028q0.513 0.58 1.853 0.402 1.484-0.167 1.975-0.971 0.257-0.424 0.379-0.335 0.134 0.067 0.112 0.58-0.011 0.279-0.257 1.027-0.1 0.257-0.067 0.419t0.268 0.173q0.033-0.212 0.162-0.859t0.151-1.004q0.022-0.234-0.073-0.82t-0.084-1.083 0.257-0.787q0.167-0.201 0.569-0.201 0.011-0.413 0.385-0.592t0.809-0.117 0.67 0.251zM8.415 4.286q0.033-0.19-0.028-0.335t-0.128-0.167q-0.1-0.022-0.1 0.078 0.022 0.056 0.056 0.067 0.112 0 0.078 0.167-0.033 0.223 0.089 0.223 0.033 0 0.033-0.033zM13.092 6.484q-0.022-0.089-0.073-0.128t-0.145-0.056-0.162-0.061q-0.056-0.033-0.106-0.089t-0.078-0.089-0.061-0.073-0.045-0.045-0.045 0.017q-0.156 0.179 0.078 0.485t0.435 0.352q0.1 0.011 0.162-0.089t0.039-0.223zM11.105 4.107q0-0.123-0.056-0.218t-0.123-0.14-0.1-0.033q-0.067 0-0.089 0.022t0 0.045 0.056 0.033q0.156 0.045 0.201 0.346 0 0.033 0.089-0.022 0.022-0.022 0.022-0.033zM11.708 1.507q0-0.022-0.028-0.056t-0.1-0.078-0.106-0.067q-0.167-0.167-0.268-0.167-0.1 0.011-0.128 0.084t-0.011 0.145-0.006 0.14q-0.011 0.045-0.067 0.117t-0.067 0.1 0.033 0.095q0.045 0.033 0.089 0t0.123-0.1 0.167-0.1q0.011-0.011 0.1-0.011t0.167-0.022 0.1-0.078zM18.013 16.473q0.223 0.134 0.346 0.273t0.134 0.268-0.028 0.251-0.173 0.246-0.262 0.218-0.335 0.206-0.352 0.184-0.357 0.173-0.301 0.145q-0.424 0.212-0.954 0.625t-0.843 0.714q-0.19 0.179-0.759 0.218t-0.993-0.162q-0.201-0.1-0.329-0.262t-0.184-0.285-0.246-0.218-0.525-0.106q-0.491-0.011-1.451-0.011-0.212 0-0.636 0.017t-0.647 0.028q-0.491 0.011-0.887 0.167t-0.597 0.335-0.485 0.318-0.597 0.128q-0.324-0.011-1.239-0.346t-1.629-0.48q-0.212-0.045-0.569-0.106t-0.558-0.1-0.441-0.106-0.374-0.162-0.19-0.218q-0.112-0.257 0.078-0.742t0.201-0.608q0.011-0.179-0.045-0.446t-0.112-0.474-0.050-0.407 0.117-0.301q0.156-0.134 0.636-0.156t0.67-0.134q0.335-0.201 0.469-0.391t0.134-0.569q0.234 0.815-0.357 1.183-0.357 0.223-0.926 0.167-0.379-0.033-0.48 0.112-0.145 0.167 0.056 0.636 0.022 0.067 0.089 0.201t0.095 0.201 0.050 0.19 0.011 0.246q0 0.167-0.19 0.547t-0.156 0.536q0.033 0.19 0.413 0.29 0.223 0.067 0.943 0.206t1.11 0.229q0.268 0.067 0.826 0.246t0.921 0.257 0.619 0.045q0.48-0.067 0.72-0.313t0.257-0.536-0.084-0.653-0.212-0.58-0.223-0.407q-1.35-2.121-1.886-2.701-0.759-0.826-1.261-0.446-0.123 0.1-0.167-0.167-0.033-0.179-0.022-0.424 0.011-0.324 0.112-0.58t0.268-0.525 0.246-0.469q0.089-0.234 0.296-0.804t0.329-0.871 0.335-0.681 0.435-0.603q1.228-1.596 1.384-2.176-0.134-1.25-0.179-3.46-0.022-1.004 0.268-1.691t1.183-1.166q0.435-0.234 1.161-0.234 0.592-0.011 1.183 0.151t0.993 0.463q0.636 0.469 1.021 1.356t0.329 1.646q-0.056 1.060 0.335 2.388 0.379 1.261 1.484 2.433 0.614 0.658 1.11 1.819t0.664 2.132q0.089 0.547 0.056 0.943t-0.134 0.619-0.223 0.246q-0.112 0.022-0.262 0.212t-0.301 0.396-0.452 0.374-0.681 0.156q-0.201-0.011-0.352-0.056t-0.251-0.151-0.151-0.173-0.128-0.229-0.1-0.218q-0.246-0.413-0.458-0.335t-0.313 0.547 0.078 1.083q0.223 0.781 0.011 2.176-0.112 0.725 0.201 1.122t0.815 0.368 0.949-0.396q0.658-0.547 0.999-0.742t1.155-0.474q0.592-0.201 0.859-0.407t0.206-0.385-0.279-0.318-0.575-0.262q-0.368-0.123-0.552-0.536t-0.167-0.809 0.173-0.53q0.011 0.346 0.089 0.631t0.162 0.452 0.229 0.318 0.234 0.212 0.24 0.145 0.184 0.106z"></path>
</svg>
