<!-- Generated by IcoMoon.io -->
<svg version="1.1" xmlns="http://www.w3.org/2000/svg" width="20" height="20" viewBox="0 0 20 20">
<title>list</title>
<path d="M2.857 14.643v2.143q0 0.145-0.106 0.251t-0.251 0.106h-2.143q-0.145 0-0.251-0.106t-0.106-0.251v-2.143q0-0.145 0.106-0.251t0.251-0.106h2.143q0.145 0 0.251 0.106t0.106 0.251zM2.857 10.357v2.143q0 0.145-0.106 0.251t-0.251 0.106h-2.143q-0.145 0-0.251-0.106t-0.106-0.251v-2.143q0-0.145 0.106-0.251t0.251-0.106h2.143q0.145 0 0.251 0.106t0.106 0.251zM2.857 6.071v2.143q0 0.145-0.106 0.251t-0.251 0.106h-2.143q-0.145 0-0.251-0.106t-0.106-0.251v-2.143q0-0.145 0.106-0.251t0.251-0.106h2.143q0.145 0 0.251 0.106t0.106 0.251zM20 14.643v2.143q0 0.145-0.106 0.251t-0.251 0.106h-15q-0.145 0-0.251-0.106t-0.106-0.251v-2.143q0-0.145 0.106-0.251t0.251-0.106h15q0.145 0 0.251 0.106t0.106 0.251zM2.857 1.786v2.143q0 0.145-0.106 0.251t-0.251 0.106h-2.143q-0.145 0-0.251-0.106t-0.106-0.251v-2.143q0-0.145 0.106-0.251t0.251-0.106h2.143q0.145 0 0.251 0.106t0.106 0.251zM20 10.357v2.143q0 0.145-0.106 0.251t-0.251 0.106h-15q-0.145 0-0.251-0.106t-0.106-0.251v-2.143q0-0.145 0.106-0.251t0.251-0.106h15q0.145 0 0.251 0.106t0.106 0.251zM20 6.071v2.143q0 0.145-0.106 0.251t-0.251 0.106h-15q-0.145 0-0.251-0.106t-0.106-0.251v-2.143q0-0.145 0.106-0.251t0.251-0.106h15q0.145 0 0.251 0.106t0.106 0.251zM20 1.786v2.143q0 0.145-0.106 0.251t-0.251 0.106h-15q-0.145 0-0.251-0.106t-0.106-0.251v-2.143q0-0.145 0.106-0.251t0.251-0.106h15q0.145 0 0.251 0.106t0.106 0.251z"></path>
</svg>
