<!-- Generated by IcoMoon.io -->
<svg version="1.1" xmlns="http://www.w3.org/2000/svg" width="20" height="20" viewBox="0 0 20 20">
<title>list-ul</title>
<path d="M4.286 15.714q0 0.893-0.625 1.518t-1.518 0.625-1.518-0.625-0.625-1.518 0.625-1.518 1.518-0.625 1.518 0.625 0.625 1.518zM4.286 10q0 0.893-0.625 1.518t-1.518 0.625-1.518-0.625-0.625-1.518 0.625-1.518 1.518-0.625 1.518 0.625 0.625 1.518zM20 14.643v2.143q0 0.145-0.106 0.251t-0.251 0.106h-13.571q-0.145 0-0.251-0.106t-0.106-0.251v-2.143q0-0.145 0.106-0.251t0.251-0.106h13.571q0.145 0 0.251 0.106t0.106 0.251zM4.286 4.286q0 0.893-0.625 1.518t-1.518 0.625-1.518-0.625-0.625-1.518 0.625-1.518 1.518-0.625 1.518 0.625 0.625 1.518zM20 8.929v2.143q0 0.145-0.106 0.251t-0.251 0.106h-13.571q-0.145 0-0.251-0.106t-0.106-0.251v-2.143q0-0.145 0.106-0.251t0.251-0.106h13.571q0.145 0 0.251 0.106t0.106 0.251zM20 3.214v2.143q0 0.145-0.106 0.251t-0.251 0.106h-13.571q-0.145 0-0.251-0.106t-0.106-0.251v-2.143q0-0.145 0.106-0.251t0.251-0.106h13.571q0.145 0 0.251 0.106t0.106 0.251z"></path>
</svg>
