<!-- Generated by IcoMoon.io -->
<svg version="1.1" xmlns="http://www.w3.org/2000/svg" width="20" height="20" viewBox="0 0 20 20">
<title>list-ol</title>
<path d="M4.252 18.080q0 0.893-0.608 1.406t-1.512 0.513q-1.183 0-1.92-0.737l0.636-0.982q0.547 0.502 1.183 0.502 0.324 0 0.564-0.162t0.24-0.474q0-0.714-1.172-0.625l-0.29-0.625q0.089-0.112 0.363-0.485t0.474-0.603 0.413-0.43v-0.011q-0.179 0-0.541 0.011t-0.541 0.011v0.592h-1.183v-1.696h3.717v0.982l-1.060 1.283q0.569 0.134 0.904 0.547t0.335 0.982zM4.275 11.083v1.775h-4.040q-0.067-0.402-0.067-0.603 0-0.569 0.262-1.038t0.631-0.759 0.737-0.53 0.631-0.485 0.262-0.502q0-0.279-0.162-0.43t-0.441-0.151q-0.513 0-0.904 0.647l-0.949-0.658q0.268-0.569 0.798-0.887t1.177-0.318q0.815 0 1.373 0.463t0.558 1.256q0 0.558-0.379 1.021t-0.837 0.72-0.843 0.564-0.396 0.586h1.417v-0.67h1.172zM20 14.643v2.143q0 0.145-0.106 0.251t-0.251 0.106h-13.571q-0.145 0-0.251-0.106t-0.106-0.251v-2.143q0-0.156 0.1-0.257t0.257-0.1h13.571q0.145 0 0.251 0.106t0.106 0.251zM4.286 4.609v1.105h-3.739v-1.105h1.194q0-0.458 0.006-1.356t0.006-1.356v-0.134h-0.022q-0.089 0.19-0.558 0.603l-0.792-0.848 1.518-1.417h1.183v4.509h1.205zM20 8.929v2.143q0 0.145-0.106 0.251t-0.251 0.106h-13.571q-0.145 0-0.251-0.106t-0.106-0.251v-2.143q0-0.156 0.1-0.257t0.257-0.1h13.571q0.145 0 0.251 0.106t0.106 0.251zM20 3.214v2.143q0 0.145-0.106 0.251t-0.251 0.106h-13.571q-0.145 0-0.251-0.106t-0.106-0.251v-2.143q0-0.145 0.106-0.251t0.251-0.106h13.571q0.145 0 0.251 0.106t0.106 0.251z"></path>
</svg>
