<!-- Generated by IcoMoon.io -->
<svg version="1.1" xmlns="http://www.w3.org/2000/svg" width="20" height="20" viewBox="0 0 20 20">
<title>lock</title>
<path d="M7.143 8.571h5.714v-2.143q0-1.183-0.837-2.020t-2.020-0.837-2.020 0.837-0.837 2.020v2.143zM16.429 9.643v6.429q0 0.446-0.313 0.759t-0.759 0.313h-10.714q-0.446 0-0.759-0.313t-0.313-0.759v-6.429q0-0.446 0.313-0.759t0.759-0.313h0.357v-2.143q0-2.054 1.473-3.527t3.527-1.473 3.527 1.473 1.473 3.527v2.143h0.357q0.446 0 0.759 0.313t0.313 0.759z"></path>
</svg>
