<!-- Generated by IcoMoon.io -->
<svg version="1.1" xmlns="http://www.w3.org/2000/svg" width="20" height="20" viewBox="0 0 20 20">
<title>low-vision</title>
<path d="M3.739 15.134q-0.022 0-0.067-0.022-0.96-0.636-1.881-1.618t-1.557-2.009q-0.234-0.335-0.234-0.77 0-0.1 0.022-0.212t0.045-0.201 0.078-0.201 0.095-0.179 0.117-0.19 0.112-0.167 0.134-0.173 0.123-0.162q2.054-2.801 5.045-4.074-1.228-2.21-1.228-2.355 0-0.212 0.19-0.324 1.295-0.714 1.429-0.714 0.201 0 0.313 0.179l1.384 2.556q1.027-0.212 2.143-0.212 2.969 0 5.552 1.535t4.224 4.124q0.223 0.346 0.223 0.77t-0.223 0.77q-1.016 1.585-2.439 2.829t-3.108 1.959q1.228 2.21 1.228 2.355 0 0.223-0.19 0.324-1.295 0.714-1.417 0.714-0.212 0-0.324-0.179l-1.384-2.556-0.714-1.328-4.955-9.152 0.078-0.078q-0.647 0.268-1.105 0.525 0.033 0.056 1.417 2.612t2.712 5.011 1.328 2.489q0 0.078-0.1 0.1-0.145 0.033-0.804 0.033-0.636 0-0.67-0.078l-5.089-9.386q-0.435 0.313-0.915 0.759 0.268 0.48 2.388 4.392t2.121 3.956q0 0.112-0.123 0.112-0.156 0-0.921-0.246t-0.809-0.313l-1.183-2.199-2.5-4.609q-0.491 0.592-0.871 1.183 0.022 0.033 0.201 0.279t0.257 0.379l1.964 3.65q0 0.112-0.112 0.112zM13.002 13.996l0.547 1.016q3.047-1.239 5.022-4.297-2.009-3.092-5.123-4.342 0.748 0.714 1.15 1.657t0.402 1.97q0 1.183-0.525 2.238t-1.473 1.758zM9.464 7.143q0 0.223 0.156 0.379t0.379 0.156q0.96 0 1.641 0.681t0.681 1.641q0 0.223 0.156 0.379t0.379 0.156 0.379-0.156 0.156-0.379q0-1.406-0.993-2.4t-2.4-0.993q-0.223 0-0.379 0.156t-0.156 0.379zM13.549 6.417l-0.1-0.045 0.078 0.078z"></path>
</svg>
