<!-- Generated by IcoMoon.io -->
<svg version="1.1" xmlns="http://www.w3.org/2000/svg" width="20" height="20" viewBox="0 0 20 20">
<title>magic</title>
<path d="M13.996 6.484l3.27-3.27-1.194-1.194-3.27 3.27zM18.984 3.214q0 0.301-0.201 0.502l-14.353 14.353q-0.201 0.201-0.502 0.201t-0.502-0.201l-2.21-2.21q-0.201-0.201-0.201-0.502t0.201-0.502l14.353-14.353q0.201-0.201 0.502-0.201t0.502 0.201l2.21 2.21q0.201 0.201 0.201 0.502zM3.906 1.094l1.094 0.335-1.094 0.335-0.335 1.094-0.335-1.094-1.094-0.335 1.094-0.335 0.335-1.094zM7.813 2.902l2.188 0.67-2.188 0.67-0.67 2.188-0.67-2.188-2.188-0.67 2.188-0.67 0.67-2.188zM18.192 8.237l1.094 0.335-1.094 0.335-0.335 1.094-0.335-1.094-1.094-0.335 1.094-0.335 0.335-1.094zM11.049 1.094l1.094 0.335-1.094 0.335-0.335 1.094-0.335-1.094-1.094-0.335 1.094-0.335 0.335-1.094z"></path>
</svg>
