<!-- Generated by IcoMoon.io -->
<svg version="1.1" xmlns="http://www.w3.org/2000/svg" width="20" height="20" viewBox="0 0 20 20">
<title>magnet</title>
<path d="M18.571 9.286v1.429q0 2.243-1.099 4.040t-3.058 2.807-4.414 1.010-4.414-1.010-3.058-2.807-1.099-4.040v-1.429q0-0.29 0.212-0.502t0.502-0.212h4.286q0.29 0 0.502 0.212t0.212 0.502v1.429q0 0.58 0.262 1.004t0.597 0.636 0.792 0.335 0.714 0.145 0.491 0.022 0.491-0.022 0.714-0.145 0.792-0.335 0.597-0.636 0.262-1.004v-1.429q0-0.29 0.212-0.502t0.502-0.212h4.286q0.29 0 0.502 0.212t0.212 0.502zM7.143 2.143v4.286q0 0.29-0.212 0.502t-0.502 0.212h-4.286q-0.29 0-0.502-0.212t-0.212-0.502v-4.286q0-0.29 0.212-0.502t0.502-0.212h4.286q0.29 0 0.502 0.212t0.212 0.502zM18.571 2.143v4.286q0 0.29-0.212 0.502t-0.502 0.212h-4.286q-0.29 0-0.502-0.212t-0.212-0.502v-4.286q0-0.29 0.212-0.502t0.502-0.212h4.286q0.29 0 0.502 0.212t0.212 0.502z"></path>
</svg>
