<!-- Generated by IcoMoon.io -->
<svg version="1.1" xmlns="http://www.w3.org/2000/svg" width="20" height="20" viewBox="0 0 20 20">
<title>mail-forward</title>
<path d="M20 7.143q0 0.29-0.212 0.502l-5.714 5.714q-0.212 0.212-0.502 0.212t-0.502-0.212-0.212-0.502v-2.857h-2.5q-1.094 0-1.959 0.067t-1.719 0.24-1.484 0.474-1.177 0.776-0.893 1.127-0.541 1.546-0.195 2.020q0 0.614 0.056 1.373 0 0.067 0.028 0.262t0.028 0.296q0 0.167-0.095 0.279t-0.262 0.112q-0.179 0-0.313-0.19-0.078-0.1-0.145-0.246t-0.151-0.335-0.117-0.268q-1.417-3.181-1.417-5.033 0-2.221 0.592-3.717 1.808-4.498 9.766-4.498h2.5v-2.857q0-0.29 0.212-0.502t0.502-0.212 0.502 0.212l5.714 5.714q0.212 0.212 0.212 0.502z"></path>
</svg>
