<!-- Generated by IcoMoon.io -->
<svg version="1.1" xmlns="http://www.w3.org/2000/svg" width="20" height="20" viewBox="0 0 20 20">
<title>mail-reply</title>
<path d="M20 12.5q0 1.853-1.417 5.033-0.033 0.078-0.117 0.268t-0.151 0.335-0.145 0.246q-0.134 0.19-0.313 0.19-0.167 0-0.262-0.112t-0.095-0.279q0-0.1 0.028-0.296t0.028-0.262q0.056-0.759 0.056-1.373 0-1.127-0.195-2.020t-0.541-1.546-0.893-1.127-1.177-0.776-1.484-0.474-1.719-0.24-1.959-0.067h-2.5v2.857q0 0.29-0.212 0.502t-0.502 0.212-0.502-0.212l-5.714-5.714q-0.212-0.212-0.212-0.502t0.212-0.502l5.714-5.714q0.212-0.212 0.502-0.212t0.502 0.212 0.212 0.502v2.857h2.5q7.958 0 9.766 4.498 0.592 1.496 0.592 3.717z"></path>
</svg>
