<!-- Generated by IcoMoon.io -->
<svg version="1.1" xmlns="http://www.w3.org/2000/svg" width="20" height="20" viewBox="0 0 20 20">
<title>mail-reply-all</title>
<path d="M7.143 12.076v0.781q0 0.469-0.435 0.658-0.145 0.056-0.279 0.056-0.301 0-0.502-0.212l-5.714-5.714q-0.212-0.212-0.212-0.502t0.212-0.502l5.714-5.714q0.324-0.346 0.781-0.156 0.435 0.19 0.435 0.658v0.77l-4.431 4.442q-0.212 0.212-0.212 0.502t0.212 0.502zM20 12.5q0 0.647-0.19 1.49t-0.43 1.54-0.536 1.395-0.452 1.010l-0.223 0.446q-0.089 0.19-0.313 0.19-0.067 0-0.1-0.011-0.279-0.089-0.257-0.379 0.48-4.464-1.183-6.306-0.714-0.792-1.903-1.233t-2.985-0.586v2.801q0 0.469-0.435 0.658-0.145 0.056-0.279 0.056-0.301 0-0.502-0.212l-5.714-5.714q-0.212-0.212-0.212-0.502t0.212-0.502l5.714-5.714q0.324-0.346 0.781-0.156 0.435 0.19 0.435 0.658v2.924q4.587 0.313 6.685 2.467 1.886 1.931 1.886 5.681z"></path>
</svg>
