<!-- Generated by IcoMoon.io -->
<svg version="1.1" xmlns="http://www.w3.org/2000/svg" width="20" height="20" viewBox="0 0 20 20">
<title>male</title>
<path d="M15.714 7.857v4.643q0 0.446-0.313 0.759t-0.759 0.313-0.759-0.313-0.313-0.759v-3.929h-0.714v10.179q0 0.513-0.368 0.882t-0.882 0.368-0.882-0.368-0.368-0.882v-5.179h-0.714v5.179q0 0.513-0.368 0.882t-0.882 0.368-0.882-0.368-0.368-0.882v-10.179h-0.714v3.929q0 0.446-0.313 0.759t-0.759 0.313-0.759-0.313-0.313-0.759v-4.643q0-0.893 0.625-1.518t1.518-0.625h7.143q0.893 0 1.518 0.625t0.625 1.518zM12.5 2.857q0 1.038-0.731 1.769t-1.769 0.731-1.769-0.731-0.731-1.769 0.731-1.769 1.769-0.731 1.769 0.731 0.731 1.769z"></path>
</svg>
