<!-- Generated by IcoMoon.io -->
<svg version="1.1" xmlns="http://www.w3.org/2000/svg" width="20" height="20" viewBox="0 0 20 20">
<title>map-signs</title>
<path d="M19.475 3.315q0.112 0.112 0.112 0.257t-0.112 0.257l-1.574 1.574q-0.313 0.313-0.759 0.313h-15q-0.29 0-0.502-0.212t-0.212-0.502v-2.857q0-0.29 0.212-0.502t0.502-0.212h6.429v-0.714q0-0.29 0.212-0.502t0.502-0.212h1.429q0.29 0 0.502 0.212t0.212 0.502v0.714h5.714q0.446 0 0.759 0.313zM8.571 13.571h2.857v5.714q0 0.29-0.212 0.502t-0.502 0.212h-1.429q-0.29 0-0.502-0.212t-0.212-0.502v-5.714zM17.857 8.571q0.29 0 0.502 0.212t0.212 0.502v2.857q0 0.29-0.212 0.502t-0.502 0.212h-15q-0.446 0-0.759-0.313l-1.574-1.574q-0.112-0.112-0.112-0.257t0.112-0.257l1.574-1.574q0.313-0.313 0.759-0.313h5.714v-2.143h2.857v2.143h6.429z"></path>
</svg>
