<!-- Generated by IcoMoon.io -->
<svg version="1.1" xmlns="http://www.w3.org/2000/svg" width="23" height="20" viewBox="0 0 23 20">
<title>map-o</title>
<path d="M22.545 0.123q0.313 0.223 0.313 0.592v15.714q0 0.223-0.123 0.402t-0.324 0.257l-7.143 2.857q-0.268 0.123-0.536 0l-6.875-2.746-6.875 2.746q-0.112 0.056-0.268 0.056-0.212 0-0.402-0.123-0.313-0.223-0.313-0.592v-15.714q0-0.223 0.123-0.402t0.324-0.257l7.143-2.857q0.268-0.123 0.536 0l6.875 2.746 6.875-2.746q0.357-0.145 0.67 0.067zM8.214 1.629v14.174l6.429 2.567v-14.174zM1.429 4.051v14.174l6.071-2.422v-14.174zM21.429 15.949v-14.174l-6.071 2.422v14.174z"></path>
</svg>
