<!-- Generated by IcoMoon.io -->
<svg version="1.1" xmlns="http://www.w3.org/2000/svg" width="20" height="20" viewBox="0 0 20 20">
<title>map-pin</title>
<path d="M10 12.143q0.737 0 1.429-0.167v7.31q0 0.29-0.212 0.502t-0.502 0.212h-1.429q-0.29 0-0.502-0.212t-0.212-0.502v-7.31q0.692 0.167 1.429 0.167zM10 0q2.366 0 4.040 1.674t1.674 4.040-1.674 4.040-4.040 1.674-4.040-1.674-1.674-4.040 1.674-4.040 4.040-1.674zM10 2.5q0.156 0 0.257-0.1t0.1-0.257-0.1-0.257-0.257-0.1q-1.629 0-2.779 1.15t-1.15 2.779q0 0.156 0.1 0.257t0.257 0.1 0.257-0.1 0.1-0.257q0-1.328 0.943-2.271t2.271-0.943z"></path>
</svg>
