<!-- Generated by IcoMoon.io -->
<svg version="1.1" xmlns="http://www.w3.org/2000/svg" width="20" height="20" viewBox="0 0 20 20">
<title>mars-stroke-v</title>
<path d="M10 7.188q2.422 0.268 4.068 2.093t1.646 4.291q0 1.864-0.971 3.415t-2.634 2.366-3.56 0.603q-1.484-0.167-2.74-0.982t-2.031-2.098-0.898-2.779q-0.134-1.73 0.586-3.259t2.076-2.5 3.030-1.15v-1.473h-1.786q-0.156 0-0.257-0.1t-0.1-0.257v-0.714q0-0.156 0.1-0.257t0.257-0.1h1.786v-1.842l-1.027 1.027q-0.112 0.1-0.257 0.1t-0.246-0.1l-0.513-0.513q-0.1-0.1-0.1-0.246t0.1-0.257l2.254-2.243q0.212-0.212 0.502-0.212t0.502 0.212l2.254 2.243q0.1 0.112 0.1 0.257t-0.1 0.246l-0.513 0.513q-0.1 0.1-0.246 0.1t-0.257-0.1l-1.027-1.027v1.842h1.786q0.156 0 0.257 0.1t0.1 0.257v0.714q0 0.156-0.1 0.257t-0.257 0.1h-1.786v1.473zM9.286 18.571q2.065 0 3.532-1.468t1.468-3.532-1.468-3.532-3.532-1.468-3.532 1.468-1.468 3.532 1.468 3.532 3.532 1.468z"></path>
</svg>
