<!-- Generated by IcoMoon.io -->
<svg version="1.1" xmlns="http://www.w3.org/2000/svg" width="20" height="20" viewBox="0 0 20 20">
<title>mars</title>
<path d="M17.857 1.429q0.29 0 0.502 0.212t0.212 0.502v4.643q0 0.156-0.1 0.257t-0.257 0.1h-0.714q-0.156 0-0.257-0.1t-0.1-0.257v-2.924l-4.263 4.275q1.406 1.741 1.406 4.007 0 1.306-0.508 2.494t-1.373 2.054-2.054 1.373-2.494 0.508-2.494-0.508-2.054-1.373-1.373-2.054-0.508-2.494 0.508-2.494 1.373-2.054 2.054-1.373 2.494-0.508q2.266 0 4.007 1.406l4.263-4.263h-2.913q-0.156 0-0.257-0.1t-0.1-0.257v-0.714q0-0.156 0.1-0.257t0.257-0.1h4.643zM7.857 17.143q2.065 0 3.532-1.468t1.468-3.532-1.468-3.532-3.532-1.468-3.532 1.468-1.468 3.532 1.468 3.532 3.532 1.468z"></path>
</svg>
