<!-- Generated by IcoMoon.io -->
<svg version="1.1" xmlns="http://www.w3.org/2000/svg" width="23" height="20" viewBox="0 0 23 20">
<title>mars-double</title>
<path d="M17.857 4.643q0-0.156 0.1-0.257t0.257-0.1h3.214q0.29 0 0.502 0.212t0.212 0.502v3.214q0 0.156-0.1 0.257t-0.257 0.1h-0.714q-0.156 0-0.257-0.1t-0.1-0.257v-1.496l-2.835 2.846q0.848 1.060 1.2 2.388t0.106 2.757q-0.346 2.031-1.853 3.482t-3.549 1.741q-2.344 0.324-4.291-0.893t-2.695-3.348q-1.306-0.067-2.467-0.642t-1.981-1.484-1.267-2.148-0.357-2.567q0.1-1.507 0.871-2.812t2.031-2.137 2.768-0.999q1.317-0.156 2.539 0.212t2.215 1.15l2.846-2.835h-1.496q-0.156 0-0.257-0.1t-0.1-0.257v-0.714q0-0.156 0.1-0.257t0.257-0.1h3.214q0.29 0 0.502 0.212t0.212 0.502v3.214q0 0.156-0.1 0.257t-0.257 0.1h-0.714q-0.156 0-0.257-0.1t-0.1-0.257v-1.496l-2.835 2.846q0.658 0.826 1.038 1.886 2.031 0.1 3.661 1.384l2.846-2.835h-1.496q-0.156 0-0.257-0.1t-0.1-0.257v-0.714zM12.143 9.286q0-0.223-0.045-0.647-1.808 0.279-3.025 1.674t-1.217 3.259q0 0.223 0.045 0.647 1.808-0.279 3.025-1.674t1.217-3.259zM2.143 9.286q0 1.875 1.239 3.281t3.080 1.663q-0.033-0.324-0.033-0.658 0-2.344 1.507-4.124t3.772-2.193q-0.592-1.339-1.825-2.154t-2.74-0.815q-2.065 0-3.532 1.468t-1.468 3.532zM12.857 18.571q2.065 0 3.532-1.468t1.468-3.532q0-1.875-1.239-3.281t-3.080-1.663q0.033 0.313 0.033 0.658 0 2.344-1.507 4.124t-3.772 2.193q0.592 1.339 1.825 2.154t2.74 0.815z"></path>
</svg>
