<!-- Generated by IcoMoon.io -->
<svg version="1.1" xmlns="http://www.w3.org/2000/svg" width="20" height="20" viewBox="0 0 20 20">
<title>meanpath</title>
<path d="M16.060 9.397v1.272q0 0.268-0.151 0.424t-0.419 0.156h-2.254q-0.268 0-0.424-0.156t-0.156-0.424v-1.272q0-0.268 0.156-0.424t0.424-0.156h2.254q0.268 0 0.419 0.156t0.151 0.424zM10.592 11.964v-2.79q0-0.592-0.363-0.954t-0.954-0.363h-1.484q-0.759 0-1.071 0.58-0.313-0.58-1.071-0.58h-1.451q-0.592 0-0.954 0.363t-0.363 0.954v2.79q0 0.246 0.234 0.246h0.614q0.246 0 0.246-0.246v-2.567q0-0.268 0.151-0.424t0.43-0.156h1.049q0.268 0 0.424 0.156t0.156 0.424v2.567q0 0.246 0.234 0.246h0.603q0.246 0 0.246-0.246v-2.567q0-0.268 0.156-0.424t0.424-0.156h1.083q0.268 0 0.419 0.156t0.151 0.424v2.567q0 0.246 0.246 0.246h0.614q0.234 0 0.234-0.246zM17.165 10.893v-1.719q0-0.592-0.368-0.954t-0.96-0.363h-2.946q-0.592 0-0.96 0.363t-0.368 0.954v4.576q0 0.234 0.246 0.234h0.614q0.234 0 0.234-0.234v-2.009q0.346 0.469 1.049 0.469h2.132q0.592 0 0.96-0.363t0.368-0.954zM18.571 4.018v11.964q0 1.071-0.759 1.83t-1.83 0.759h-11.964q-1.071 0-1.83-0.759t-0.759-1.83v-11.964q0-1.071 0.759-1.83t1.83-0.759h11.964q1.071 0 1.83 0.759t0.759 1.83z"></path>
</svg>
