<!-- Generated by IcoMoon.io -->
<svg version="1.1" xmlns="http://www.w3.org/2000/svg" width="20" height="20" viewBox="0 0 20 20">
<title>medium</title>
<path d="M6.663 4.699v13.092q0 0.279-0.14 0.474t-0.407 0.195q-0.19 0-0.368-0.089l-5.19-2.6q-0.234-0.112-0.396-0.374t-0.162-0.519v-12.723q0-0.223 0.112-0.379t0.324-0.156q0.156 0 0.491 0.167l5.703 2.857q0.033 0.033 0.033 0.056zM7.377 5.826l5.96 9.665-5.96-2.969v-6.696zM20 6.027v11.763q0 0.279-0.156 0.452t-0.424 0.173-0.525-0.145l-4.922-2.455zM19.967 4.688q0 0.033-2.863 4.682t-3.354 5.441l-4.353-7.076 3.616-5.882q0.19-0.313 0.58-0.313 0.156 0 0.29 0.067l6.038 3.013q0.045 0.022 0.045 0.067z"></path>
</svg>
