<!-- Generated by IcoMoon.io -->
<svg version="1.1" xmlns="http://www.w3.org/2000/svg" width="20" height="20" viewBox="0 0 20 20">
<title>medkit</title>
<path d="M14.286 12.5v-2.143q0-0.156-0.1-0.257t-0.257-0.1h-2.5v-2.5q0-0.156-0.1-0.257t-0.257-0.1h-2.143q-0.156 0-0.257 0.1t-0.1 0.257v2.5h-2.5q-0.156 0-0.257 0.1t-0.1 0.257v2.143q0 0.156 0.1 0.257t0.257 0.1h2.5v2.5q0 0.156 0.1 0.257t0.257 0.1h2.143q0.156 0 0.257-0.1t0.1-0.257v-2.5h2.5q0.156 0 0.257-0.1t0.1-0.257zM7.143 4.286h5.714v-1.429h-5.714v1.429zM2.857 4.286v14.286h-0.357q-1.027 0-1.763-0.737t-0.737-1.763v-9.286q0-1.027 0.737-1.763t1.763-0.737h0.357zM16.071 4.286v14.286h-12.143v-14.286h1.786v-1.786q0-0.446 0.313-0.759t0.759-0.313h6.429q0.446 0 0.759 0.313t0.313 0.759v1.786h1.786zM20 6.786v9.286q0 1.027-0.737 1.763t-1.763 0.737h-0.357v-14.286h0.357q1.027 0 1.763 0.737t0.737 1.763z"></path>
</svg>
