<!-- Generated by IcoMoon.io -->
<svg version="1.1" xmlns="http://www.w3.org/2000/svg" width="23" height="20" viewBox="0 0 23 20">
<title>meetup</title>
<path d="M15.603 13.772q-0.045-0.268-0.307-0.379t-0.552-0.117-0.541-0.14-0.285-0.424q-0.056-0.525 0.368-1.557t0.837-2.020 0.357-1.423q-0.156-1.127-1.306-1.15-0.502-0.011-0.837 0.179l-0.033 0.022-0.056 0.028-0.050 0.022-0.056 0.022-0.056 0.006-0.067-0.017-0.067-0.039-0.073-0.056q-0.033-0.022-0.1-0.095t-0.1-0.1-0.095-0.084-0.106-0.084-0.106-0.061-0.123-0.050-0.128-0.028q-0.335-0.056-0.536 0.033t-0.502 0.346q-0.011 0.011-0.1 0.095t-0.14 0.123-0.167 0.112-0.184 0.061-0.19-0.033q-0.603-0.301-0.938-0.446-0.458-0.201-1.049 0.056t-0.848 0.725q-0.179 0.313-0.458 1.099t-0.485 1.479-0.446 1.496-0.24 0.815q-0.246 0.77 0.206 1.328t1.233 0.513q0.335-0.022 0.564-0.167t0.43-0.513q0.078-0.145 0.882-2.227t0.859-2.171q0.067-0.123 0.24-0.201t0.329 0q0.301 0.167 0.234 0.592-0.022 0.201-0.569 1.557t-0.558 1.479q-0.067 0.424 0.218 0.631t0.675 0.078 0.614-0.552q0.045-0.089 0.508-1.027t0.91-1.825 0.513-0.988q0.223-0.324 0.458-0.313 0.324 0 0.279 0.424-0.022 0.179-0.731 1.646t-0.787 1.78q-0.134 0.592 0.145 1.15t0.826 0.826q0.19 0.1 0.569 0.173t0.798 0.089 0.698-0.156 0.223-0.541zM4.989 16.183q0.033 0.167-0.056 0.307t-0.257 0.173q-0.156 0.033-0.296-0.056t-0.173-0.257q-0.033-0.156 0.056-0.301t0.246-0.179 0.301 0.056 0.179 0.257zM11.35 19.118q0.134 0.19 0.095 0.419t-0.229 0.363-0.419 0.089-0.363-0.234q-0.123-0.19-0.084-0.419t0.229-0.363 0.419-0.089 0.352 0.234zM2.69 10.056q-0.201 0.301-0.552 0.368t-0.642-0.145q-0.29-0.201-0.357-0.558t0.134-0.647q0.201-0.301 0.552-0.368t0.642 0.134q0.29 0.212 0.357 0.564t-0.134 0.653zM17.087 17.612q0.212 0.313 0.145 0.686t-0.379 0.586-0.675 0.145-0.575-0.379-0.145-0.681 0.368-0.592q0.313-0.212 0.675-0.145t0.586 0.379zM18.337 10.871q0.77 1.261 0.474 2.729t-1.501 2.316q-1.004 0.703-2.221 0.67-0.223 0.893-0.943 1.417t-1.602 0.497-1.563-0.642q-0.134 0.1-0.145 0.112-1.15 0.792-2.511 0.541t-2.154-1.412q-0.558-0.815-0.592-1.83-0.926-0.156-1.59-0.787t-0.898-1.429-0.022-1.696 0.904-1.546q-0.402-0.67-0.424-1.429t0.273-1.395 0.887-1.099 1.35-0.564q0.357-0.949 1.105-1.652t1.635-1.021 1.875-0.19 1.78 0.742q0.804-0.234 1.563-0.195t1.434 0.402 1.166 0.893 0.753 1.283 0.195 1.568q0.58 0.179 0.971 0.636t0.508 0.993-0.061 1.11-0.647 0.977zM5.792 3.504q0.156 0.223 0.106 0.497t-0.273 0.43q-0.212 0.156-0.485 0.106t-0.419-0.273q-0.156-0.223-0.106-0.497t0.273-0.43q0.212-0.156 0.485-0.106t0.419 0.273zM7.567 0.368q0.045 0.179-0.056 0.34t-0.29 0.206-0.346-0.061-0.201-0.296q-0.033-0.19 0.073-0.346t0.285-0.201q0.19-0.045 0.346 0.061t0.19 0.296zM20.804 10.949q0.045 0.223-0.073 0.413t-0.34 0.234q-0.212 0.045-0.402-0.073t-0.234-0.34 0.073-0.413 0.34-0.246q0.223-0.045 0.407 0.084t0.229 0.34zM13.393 0.982q0.179 0.301 0.095 0.653t-0.396 0.53q-0.301 0.179-0.642 0.095t-0.519-0.385q-0.179-0.313-0.095-0.658t0.385-0.536 0.647-0.1 0.525 0.402zM21.719 8.304q0.045 0.167-0.045 0.307t-0.257 0.184q-0.167 0.033-0.307-0.061t-0.173-0.251q-0.033-0.167 0.056-0.313t0.257-0.179q0.156-0.033 0.296 0.056t0.173 0.257zM19.587 5.614q0.167 0.246 0.117 0.547t-0.296 0.48q-0.246 0.167-0.547 0.112t-0.469-0.301-0.112-0.547 0.301-0.48 0.541-0.123 0.463 0.313z"></path>
</svg>
