<!-- Generated by IcoMoon.io -->
<svg version="1.1" xmlns="http://www.w3.org/2000/svg" width="20" height="20" viewBox="0 0 20 20">
<title>meh-o</title>
<path d="M14.286 12.143q0 0.29-0.212 0.502t-0.502 0.212h-7.143q-0.29 0-0.502-0.212t-0.212-0.502 0.212-0.502 0.502-0.212h7.143q0.29 0 0.502 0.212t0.212 0.502zM8.571 7.143q0 0.592-0.419 1.010t-1.010 0.419-1.010-0.419-0.419-1.010 0.419-1.010 1.010-0.419 1.010 0.419 0.419 1.010zM14.286 7.143q0 0.592-0.419 1.010t-1.010 0.419-1.010-0.419-0.419-1.010 0.419-1.010 1.010-0.419 1.010 0.419 0.419 1.010zM17.143 10q0-1.451-0.569-2.773t-1.523-2.277-2.277-1.523-2.773-0.569-2.773 0.569-2.277 1.523-1.523 2.277-0.569 2.773 0.569 2.773 1.523 2.277 2.277 1.523 2.773 0.569 2.773-0.569 2.277-1.523 1.523-2.277 0.569-2.773zM18.571 10q0 2.333-1.15 4.302t-3.119 3.119-4.302 1.15-4.302-1.15-3.119-3.119-1.15-4.302 1.15-4.302 3.119-3.119 4.302-1.15 4.302 1.15 3.119 3.119 1.15 4.302z"></path>
</svg>
