<!-- Generated by IcoMoon.io -->
<svg version="1.1" xmlns="http://www.w3.org/2000/svg" width="20" height="20" viewBox="0 0 20 20">
<title>mercury</title>
<path d="M12.121 3.527q1.618 0.804 2.606 2.349t0.988 3.41q0 2.467-1.646 4.291t-4.068 2.093v1.473h1.071q0.156 0 0.257 0.1t0.1 0.257v0.714q0 0.156-0.1 0.257t-0.257 0.1h-1.071v1.071q0 0.156-0.1 0.257t-0.257 0.1h-0.714q-0.156 0-0.257-0.1t-0.1-0.257v-1.071h-1.071q-0.156 0-0.257-0.1t-0.1-0.257v-0.714q0-0.156 0.1-0.257t0.257-0.1h1.071v-1.473q-2.422-0.268-4.068-2.093t-1.646-4.291q0-1.864 0.988-3.41t2.606-2.349q-1.842-1.071-2.545-3.047-0.067-0.179 0.039-0.329t0.296-0.151h0.77q0.234 0 0.324 0.223 0.491 1.183 1.563 1.908t2.388 0.725 2.388-0.725 1.563-1.908q0.089-0.223 0.413-0.223h0.681q0.19 0 0.296 0.151t0.039 0.329q-0.703 1.975-2.545 3.047zM9.286 14.286q2.065 0 3.532-1.468t1.468-3.532-1.468-3.532-3.532-1.468-3.532 1.468-1.468 3.532 1.468 3.532 3.532 1.468z"></path>
</svg>
