<!-- Generated by IcoMoon.io -->
<svg version="1.1" xmlns="http://www.w3.org/2000/svg" width="20" height="20" viewBox="0 0 20 20">
<title>microchip</title>
<path d="M3.571 14.286v1.429h-1.25q-0.179 0-0.179-0.179v-0.179h-0.536q-0.179 0-0.179-0.179v-0.357q0-0.179 0.179-0.179h0.536v-0.179q0-0.179 0.179-0.179h1.25zM3.571 11.429v1.429h-1.25q-0.179 0-0.179-0.179v-0.179h-0.536q-0.179 0-0.179-0.179v-0.357q0-0.179 0.179-0.179h0.536v-0.179q0-0.179 0.179-0.179h1.25zM3.571 8.571v1.429h-1.25q-0.179 0-0.179-0.179v-0.179h-0.536q-0.179 0-0.179-0.179v-0.357q0-0.179 0.179-0.179h0.536v-0.179q0-0.179 0.179-0.179h1.25zM3.571 5.714v1.429h-1.25q-0.179 0-0.179-0.179v-0.179h-0.536q-0.179 0-0.179-0.179v-0.357q0-0.179 0.179-0.179h0.536v-0.179q0-0.179 0.179-0.179h1.25zM3.571 2.857v1.429h-1.25q-0.179 0-0.179-0.179v-0.179h-0.536q-0.179 0-0.179-0.179v-0.357q0-0.179 0.179-0.179h0.536v-0.179q0-0.179 0.179-0.179h1.25zM15.714 1.071v16.429q0 0.446-0.313 0.759t-0.759 0.313h-9.286q-0.446 0-0.759-0.313t-0.313-0.759v-16.429q0-0.446 0.313-0.759t0.759-0.313h9.286q0.446 0 0.759 0.313t0.313 0.759zM18.571 14.821v0.357q0 0.179-0.179 0.179h-0.536v0.179q0 0.179-0.179 0.179h-1.25v-1.429h1.25q0.179 0 0.179 0.179v0.179h0.536q0.179 0 0.179 0.179zM18.571 11.964v0.357q0 0.179-0.179 0.179h-0.536v0.179q0 0.179-0.179 0.179h-1.25v-1.429h1.25q0.179 0 0.179 0.179v0.179h0.536q0.179 0 0.179 0.179zM18.571 9.107v0.357q0 0.179-0.179 0.179h-0.536v0.179q0 0.179-0.179 0.179h-1.25v-1.429h1.25q0.179 0 0.179 0.179v0.179h0.536q0.179 0 0.179 0.179zM18.571 6.25v0.357q0 0.179-0.179 0.179h-0.536v0.179q0 0.179-0.179 0.179h-1.25v-1.429h1.25q0.179 0 0.179 0.179v0.179h0.536q0.179 0 0.179 0.179zM18.571 3.393v0.357q0 0.179-0.179 0.179h-0.536v0.179q0 0.179-0.179 0.179h-1.25v-1.429h1.25q0.179 0 0.179 0.179v0.179h0.536q0.179 0 0.179 0.179z"></path>
</svg>
