<!-- Generated by IcoMoon.io -->
<svg version="1.1" xmlns="http://www.w3.org/2000/svg" width="20" height="20" viewBox="0 0 20 20">
<title>microphone</title>
<path d="M16.429 7.857v1.429q0 2.467-1.646 4.291t-4.068 2.093v1.473h2.857q0.29 0 0.502 0.212t0.212 0.502-0.212 0.502-0.502 0.212h-7.143q-0.29 0-0.502-0.212t-0.212-0.502 0.212-0.502 0.502-0.212h2.857v-1.473q-2.422-0.268-4.068-2.093t-1.646-4.291v-1.429q0-0.29 0.212-0.502t0.502-0.212 0.502 0.212 0.212 0.502v1.429q0 2.065 1.468 3.532t3.532 1.468 3.532-1.468 1.468-3.532v-1.429q0-0.29 0.212-0.502t0.502-0.212 0.502 0.212 0.212 0.502zM13.571 3.571v5.714q0 1.473-1.049 2.522t-2.522 1.049-2.522-1.049-1.049-2.522v-5.714q0-1.473 1.049-2.522t2.522-1.049 2.522 1.049 1.049 2.522z"></path>
</svg>
