<!-- Generated by IcoMoon.io -->
<svg version="1.1" xmlns="http://www.w3.org/2000/svg" width="20" height="20" viewBox="0 0 20 20">
<title>microphone-slash</title>
<path d="M5.167 10.547l-1.127 1.127q-0.469-1.15-0.469-2.388v-1.429q0-0.29 0.212-0.502t0.502-0.212 0.502 0.212 0.212 0.502v1.429q0 0.592 0.167 1.261zM17.6 3.828l-4.029 4.029v1.429q0 1.473-1.049 2.522t-2.522 1.049q-0.614 0-1.217-0.212l-1.071 1.071q1.083 0.569 2.288 0.569 2.065 0 3.532-1.468t1.468-3.532v-1.429q0-0.29 0.212-0.502t0.502-0.212 0.502 0.212 0.212 0.502v1.429q0 2.467-1.646 4.291t-4.068 2.093v1.473h2.857q0.29 0 0.502 0.212t0.212 0.502-0.212 0.502-0.502 0.212h-7.143q-0.29 0-0.502-0.212t-0.212-0.502 0.212-0.502 0.502-0.212h2.857v-1.473q-1.395-0.145-2.623-0.904l-2.835 2.835q-0.112 0.112-0.257 0.112t-0.257-0.112l-0.915-0.915q-0.112-0.112-0.112-0.257t0.112-0.257l13.772-13.772q0.112-0.112 0.257-0.112t0.257 0.112l0.915 0.915q0.112 0.112 0.112 0.257t-0.112 0.257zM13.359 2.355l-6.931 6.931v-5.714q0-1.473 1.049-2.522t2.522-1.049q1.138 0 2.059 0.658t1.3 1.696z"></path>
</svg>
