<!-- Generated by IcoMoon.io -->
<svg version="1.1" xmlns="http://www.w3.org/2000/svg" width="20" height="20" viewBox="0 0 20 20">
<title>minus-square-o</title>
<path d="M15 8.929v0.714q0 0.156-0.1 0.257t-0.257 0.1h-9.286q-0.156 0-0.257-0.1t-0.1-0.257v-0.714q0-0.156 0.1-0.257t0.257-0.1h9.286q0.156 0 0.257 0.1t0.1 0.257zM16.429 13.929v-9.286q0-0.737-0.525-1.261t-1.261-0.525h-9.286q-0.737 0-1.261 0.525t-0.525 1.261v9.286q0 0.737 0.525 1.261t1.261 0.525h9.286q0.737 0 1.261-0.525t0.525-1.261zM17.857 4.643v9.286q0 1.328-0.943 2.271t-2.271 0.943h-9.286q-1.328 0-2.271-0.943t-0.943-2.271v-9.286q0-1.328 0.943-2.271t2.271-0.943h9.286q1.328 0 2.271 0.943t0.943 2.271z"></path>
</svg>
