<!-- Generated by IcoMoon.io -->
<svg version="1.1" xmlns="http://www.w3.org/2000/svg" width="26" height="20" viewBox="0 0 26 20">
<title>mixcloud</title>
<path d="M18.359 12.254q0-0.658-0.379-1.189t-0.971-0.765q-0.078 0.502-0.257 1.027-0.078 0.268-0.307 0.424t-0.497 0.156q-0.134 0-0.268-0.033-0.346-0.112-0.502-0.43t-0.045-0.653q0.257-0.792 0.257-1.596 0-1.373-0.681-2.539t-1.853-1.847-2.545-0.681q-1.496 0-2.757 0.815t-1.864 2.165q1.205 0.313 2.098 1.183 0.246 0.257 0.246 0.614t-0.246 0.603-0.603 0.246-0.614-0.246q-0.837-0.837-2.009-0.837-1.183 0-2.020 0.831t-0.837 2.015 0.837 2.015 2.020 0.831h11.674q0.882 0 1.501-0.619t0.619-1.49zM20.067 12.254q0 1.585-1.122 2.701t-2.706 1.116h-11.674q-1.886 0-3.225-1.334t-1.339-3.22q0-1.708 1.116-2.98t2.779-1.518q0.692-2.054 2.467-3.326t3.951-1.272q2.623 0 4.559 1.769t2.193 4.347q1.295 0.279 2.148 1.323t0.854 2.394zM22.857 12.254q0 1.953-1.083 3.56-0.257 0.368-0.714 0.368-0.268 0-0.48-0.145-0.29-0.19-0.357-0.541t0.134-0.642q0.792-1.161 0.792-2.6t-0.792-2.6q-0.201-0.29-0.134-0.636t0.357-0.547 0.642-0.128 0.552 0.363q1.083 1.585 1.083 3.549zM25.714 12.254q0 2.723-1.496 4.944-0.257 0.379-0.714 0.379-0.257 0-0.469-0.145-0.29-0.201-0.363-0.547t0.128-0.636q1.205-1.83 1.205-3.996 0-2.176-1.205-3.984-0.201-0.29-0.128-0.642t0.363-0.541q0.29-0.201 0.636-0.134t0.547 0.368q1.496 2.21 1.496 4.933z"></path>
</svg>
