<!-- Generated by IcoMoon.io -->
<svg version="1.1" xmlns="http://www.w3.org/2000/svg" width="20" height="20" viewBox="0 0 20 20">
<title>mobile-phone</title>
<path d="M10.893 15.714q0-0.368-0.262-0.631t-0.631-0.262-0.631 0.262-0.262 0.631 0.262 0.631 0.631 0.262 0.631-0.262 0.262-0.631zM13.214 13.929v-7.857q0-0.145-0.106-0.251t-0.251-0.106h-5.714q-0.145 0-0.251 0.106t-0.106 0.251v7.857q0 0.145 0.106 0.251t0.251 0.106h5.714q0.145 0 0.251-0.106t0.106-0.251zM11.071 4.464q0-0.179-0.179-0.179h-1.786q-0.179 0-0.179 0.179t0.179 0.179h1.786q0.179 0 0.179-0.179zM14.286 4.286v11.429q0 0.58-0.424 1.004t-1.004 0.424h-5.714q-0.58 0-1.004-0.424t-0.424-1.004v-11.429q0-0.58 0.424-1.004t1.004-0.424h5.714q0.58 0 1.004 0.424t0.424 1.004z"></path>
</svg>
