<!-- Generated by IcoMoon.io -->
<svg version="1.1" xmlns="http://www.w3.org/2000/svg" width="23" height="20" viewBox="0 0 23 20">
<title>money</title>
<path d="M9.286 12.857h4.286v-1.071h-1.429v-5h-1.272l-1.652 1.529 0.859 0.893q0.469-0.413 0.614-0.636h0.022v3.214h-1.429v1.071zM15 10q0 0.781-0.234 1.585t-0.664 1.496-1.133 1.127-1.54 0.435-1.54-0.435-1.133-1.127-0.664-1.496-0.234-1.585 0.234-1.585 0.664-1.496 1.133-1.127 1.54-0.435 1.54 0.435 1.133 1.127 0.664 1.496 0.234 1.585zM20.714 12.857v-5.714q-1.183 0-2.020-0.837t-0.837-2.020h-12.857q0 1.183-0.837 2.020t-2.020 0.837v5.714q1.183 0 2.020 0.837t0.837 2.020h12.857q0-1.183 0.837-2.020t2.020-0.837zM22.143 3.571v12.857q0 0.29-0.212 0.502t-0.502 0.212h-20q-0.29 0-0.502-0.212t-0.212-0.502v-12.857q0-0.29 0.212-0.502t0.502-0.212h20q0.29 0 0.502 0.212t0.212 0.502z"></path>
</svg>
