<!-- Generated by IcoMoon.io -->
<svg version="1.1" xmlns="http://www.w3.org/2000/svg" width="20" height="20" viewBox="0 0 20 20">
<title>moon-o</title>
<path d="M15.513 14.542q-0.603 0.1-1.228 0.1-2.031 0-3.761-1.004t-2.734-2.734-1.004-3.761q0-2.143 1.161-3.984-2.243 0.67-3.666 2.556t-1.423 4.286q0 1.451 0.569 2.773t1.523 2.277 2.277 1.523 2.773 0.569q1.607 0 3.052-0.686t2.461-1.914zM17.779 13.594q-1.049 2.266-3.164 3.622t-4.615 1.356q-1.741 0-3.326-0.681t-2.734-1.83-1.83-2.734-0.681-3.326q0-1.708 0.642-3.265t1.741-2.695 2.628-1.836 3.237-0.765q0.491-0.022 0.681 0.435 0.201 0.458-0.167 0.804-0.96 0.871-1.468 2.026t-0.508 2.439q0 1.652 0.815 3.047t2.21 2.21 3.047 0.815q1.317 0 2.545-0.569 0.458-0.201 0.804 0.145 0.156 0.156 0.195 0.379t-0.050 0.424z"></path>
</svg>
