<!-- Generated by IcoMoon.io -->
<svg version="1.1" xmlns="http://www.w3.org/2000/svg" width="26" height="20" viewBox="0 0 26 20">
<title>motorcycle</title>
<path d="M25.681 11.563q0.134 1.15-0.246 2.215t-1.105 1.825-1.769 1.183-2.193 0.346q-1.797-0.123-3.119-1.395t-1.501-3.058q-0.134-1.239 0.307-2.349t1.323-1.903l-0.792-1.194q-1.071 0.893-1.685 2.165t-0.614 2.723q0 0.301-0.206 0.519t-0.508 0.218h-3.627q-0.257 1.83-1.663 3.058t-3.281 1.228q-2.065 0-3.532-1.468t-1.468-3.532 1.468-3.532 3.532-1.468q0.848 0 1.696 0.301l0.268-0.502q-1.373-1.228-3.393-1.228h-0.714q-0.29 0-0.502-0.212t-0.212-0.502 0.212-0.502 0.502-0.212h1.429q0.871 0 1.618 0.151t1.3 0.43 0.798 0.441 0.569 0.407h6.998l-0.949-1.429h-2.478q-0.335 0-0.547-0.251t-0.156-0.586q0.045-0.257 0.257-0.424t0.48-0.167h2.824q0.368 0 0.592 0.313l0.781 1.172 1.272-1.272q0.212-0.212 0.513-0.212h1.127q0.29 0 0.502 0.212t0.212 0.502v1.429q0 0.29-0.212 0.502t-0.502 0.212h-1.998l1.283 1.92q1.462-0.703 3.069-0.402 1.596 0.29 2.723 1.501t1.317 2.829zM5 15.714q1.283 0 2.266-0.809t1.239-2.048h-3.504q-0.391 0-0.614-0.346-0.201-0.357-0.011-0.703l1.641-3.092q-0.525-0.145-1.016-0.145-1.473 0-2.522 1.049t-1.049 2.522 1.049 2.522 2.522 1.049zM20.714 15.714q1.473 0 2.522-1.049t1.049-2.522-1.049-2.522-2.522-1.049q-0.67 0-1.35 0.268l1.942 2.902q0.167 0.257 0.112 0.547t-0.301 0.446q-0.167 0.123-0.402 0.123-0.391 0-0.592-0.324l-1.942-2.902q-1.038 1.060-1.038 2.511 0 1.473 1.049 2.522t2.522 1.049z"></path>
</svg>
