<!-- Generated by IcoMoon.io -->
<svg version="1.1" xmlns="http://www.w3.org/2000/svg" width="20" height="20" viewBox="0 0 20 20">
<title>music</title>
<path d="M18.571 2.5v12.5q0 0.558-0.379 0.993t-0.96 0.675-1.155 0.357-1.077 0.117-1.077-0.117-1.155-0.357-0.96-0.675-0.379-0.993 0.379-0.993 0.96-0.675 1.155-0.357 1.077-0.117q1.172 0 2.143 0.435v-5.993l-8.571 2.645v7.913q0 0.558-0.379 0.993t-0.96 0.675-1.155 0.357-1.077 0.117-1.077-0.117-1.155-0.357-0.96-0.675-0.379-0.993 0.379-0.993 0.96-0.675 1.155-0.357 1.077-0.117q1.172 0 2.143 0.435v-10.792q0-0.346 0.212-0.631t0.547-0.396l9.286-2.857q0.134-0.045 0.313-0.045 0.446 0 0.759 0.313t0.313 0.759z"></path>
</svg>
