<!-- Generated by IcoMoon.io -->
<svg version="1.1" xmlns="http://www.w3.org/2000/svg" width="20" height="20" viewBox="0 0 20 20">
<title>neuter</title>
<path d="M15.714 6.429q0 2.467-1.646 4.291t-4.068 2.093v6.83q0 0.156-0.1 0.257t-0.257 0.1h-0.714q-0.156 0-0.257-0.1t-0.1-0.257v-6.83q-2.422-0.268-4.068-2.093t-1.646-4.291q0-1.306 0.508-2.494t1.373-2.054 2.054-1.373 2.494-0.508 2.494 0.508 2.054 1.373 1.373 2.054 0.508 2.494zM9.286 11.429q2.065 0 3.532-1.468t1.468-3.532-1.468-3.532-3.532-1.468-3.532 1.468-1.468 3.532 1.468 3.532 3.532 1.468z"></path>
</svg>
