<!-- Generated by IcoMoon.io -->
<svg version="1.1" xmlns="http://www.w3.org/2000/svg" width="23" height="20" viewBox="0 0 23 20">
<title>newspaper-o</title>
<path d="M11.429 5.714h-4.286v4.286h4.286v-4.286zM12.857 12.857v1.429h-7.143v-1.429h7.143zM12.857 4.286v7.143h-7.143v-7.143h7.143zM20 12.857v1.429h-5.714v-1.429h5.714zM20 10v1.429h-5.714v-1.429h5.714zM20 7.143v1.429h-5.714v-1.429h5.714zM20 4.286v1.429h-5.714v-1.429h5.714zM2.857 15v-10.714h-1.429v10.714q0 0.29 0.212 0.502t0.502 0.212 0.502-0.212 0.212-0.502zM21.429 15v-12.143h-17.143v12.143q0 0.368-0.123 0.714h16.551q0.29 0 0.502-0.212t0.212-0.502zM22.857 1.429v13.571q0 0.893-0.625 1.518t-1.518 0.625h-18.571q-0.893 0-1.518-0.625t-0.625-1.518v-12.143h2.857v-1.429h20z"></path>
</svg>
