<!-- Generated by IcoMoon.io -->
<svg version="1.1" xmlns="http://www.w3.org/2000/svg" width="26" height="20" viewBox="0 0 26 20">
<title>object-ungroup</title>
<path d="M25.714 8.571h-1.429v7.143h1.429v4.286h-4.286v-1.429h-10v1.429h-4.286v-4.286h1.429v-1.429h-4.286v1.429h-4.286v-4.286h1.429v-7.143h-1.429v-4.286h4.286v1.429h10v-1.429h4.286v4.286h-1.429v1.429h4.286v-1.429h4.286v4.286zM22.857 5.714v1.429h1.429v-1.429h-1.429zM15.714 1.429v1.429h1.429v-1.429h-1.429zM1.429 1.429v1.429h1.429v-1.429h-1.429zM2.857 14.286v-1.429h-1.429v1.429h1.429zM17.143 12.857h-1.429v1.429h1.429v-1.429zM4.286 12.857h10v-1.429h1.429v-7.143h-1.429v-1.429h-10v1.429h-1.429v7.143h1.429v1.429zM10 18.571v-1.429h-1.429v1.429h1.429zM24.286 18.571v-1.429h-1.429v1.429h1.429zM22.857 15.714v-7.143h-1.429v-1.429h-4.286v4.286h1.429v4.286h-4.286v-1.429h-4.286v1.429h1.429v1.429h10v-1.429h1.429z"></path>
</svg>
