<!-- Generated by IcoMoon.io -->
<svg version="1.1" xmlns="http://www.w3.org/2000/svg" width="20" height="20" viewBox="0 0 20 20">
<title>odnoklassniki</title>
<path d="M10 10.123q-2.098 0-3.583-1.484t-1.484-3.571q0-2.098 1.484-3.583t3.583-1.484 3.583 1.484 1.484 3.583q0 2.087-1.484 3.571t-3.583 1.484zM10 2.567q-1.027 0-1.758 0.731t-0.731 1.769q0 1.027 0.731 1.758t1.758 0.731 1.758-0.731 0.731-1.758q0-1.038-0.731-1.769t-1.758-0.731zM15.837 10.737q0.145 0.301 0.167 0.552t-0.050 0.452-0.296 0.43-0.474 0.413-0.686 0.463q-1.283 0.815-3.516 1.049l0.815 0.804 2.98 2.98q0.335 0.346 0.335 0.826t-0.335 0.815l-0.134 0.145q-0.346 0.335-0.826 0.335t-0.826-0.335q-0.748-0.759-2.98-2.991l-2.98 2.991q-0.346 0.335-0.826 0.335t-0.815-0.335l-0.134-0.145q-0.346-0.335-0.346-0.815t0.346-0.826l3.783-3.783q-2.266-0.234-3.538-1.049-0.435-0.279-0.686-0.463t-0.474-0.413-0.296-0.43-0.050-0.452 0.167-0.552q0.112-0.223 0.313-0.391t0.469-0.246 0.625 0.022 0.725 0.391q0.056 0.045 0.167 0.123t0.48 0.273 0.77 0.34 1.027 0.268 1.261 0.123q1.016 0 1.942-0.285t1.339-0.564l0.424-0.279q0.368-0.29 0.725-0.391t0.625-0.022 0.469 0.246 0.313 0.391z"></path>
</svg>
