<!-- Generated by IcoMoon.io -->
<svg version="1.1" xmlns="http://www.w3.org/2000/svg" width="20" height="20" viewBox="0 0 20 20">
<title>odnoklassniki-square</title>
<path d="M11.775 6.473q0 0.737-0.519 1.256t-1.256 0.519-1.256-0.519-0.519-1.256 0.519-1.256 1.256-0.519 1.256 0.519 0.519 1.256zM14.163 10.525q-0.112-0.223-0.313-0.357t-0.53-0.106-0.675 0.307q-0.112 0.089-0.324 0.223t-0.904 0.357-1.417 0.223-1.384-0.201-0.96-0.402l-0.301-0.201q-0.346-0.279-0.675-0.307t-0.53 0.106-0.313 0.357q-0.246 0.502-0.022 0.831t0.971 0.82q0.926 0.592 2.522 0.748l-0.569 0.58q-1.585 1.585-2.132 2.121-0.246 0.246-0.246 0.586t0.246 0.586l0.1 0.1q0.246 0.246 0.586 0.246t0.586-0.246l2.132-2.132q1.272 1.283 2.132 2.132 0.246 0.246 0.586 0.246t0.586-0.246l0.1-0.1q0.246-0.246 0.246-0.586t-0.246-0.586l-2.132-2.121-0.58-0.58q1.574-0.156 2.511-0.748 0.748-0.491 0.971-0.82t-0.022-0.831zM13.616 6.473q0-1.496-1.060-2.556t-2.556-1.060-2.556 1.060-1.060 2.556 1.060 2.556 2.556 1.060 2.556-1.060 1.060-2.556zM18.571 4.643v10.714q0 1.328-0.943 2.271t-2.271 0.943h-10.714q-1.328 0-2.271-0.943t-0.943-2.271v-10.714q0-1.328 0.943-2.271t2.271-0.943h10.714q1.328 0 2.271 0.943t0.943 2.271z"></path>
</svg>
