<!-- Generated by IcoMoon.io -->
<svg version="1.1" xmlns="http://www.w3.org/2000/svg" width="26" height="20" viewBox="0 0 26 20">
<title>opencart</title>
<path d="M17.009 17.422q0 0.759-0.536 1.295t-1.295 0.536-1.3-0.536-0.541-1.295 0.541-1.3 1.3-0.541 1.295 0.541 0.536 1.3zM8.65 17.422q0 0.759-0.541 1.295t-1.3 0.536-1.295-0.536-0.536-1.295 0.536-1.3 1.295-0.541 1.3 0.541 0.541 1.3zM0 0.748q0.636 0.67 1.233 1.166t1.35 0.915 1.518 0.703 1.853 0.508 2.232 0.352 2.79 0.206 3.393 0.106 4.157 0.028q1.551 0 2.729 0.056t2.020 0.184 1.384 0.307 0.792 0.441 0.268 0.575-0.218 0.714-0.631 0.854-0.999 1.016-1.295 1.166-1.551 1.328q-2.065 1.752-3.192 2.757 0.324-0.569 0.854-1.217t1.049-1.177 1.055-1.099 0.926-1.021 0.603-0.898 0.145-0.781-0.508-0.619-1.3-0.458-2.277-0.262-3.393-0.056q-1.875 0.022-3.504-0.067t-2.857-0.257-2.282-0.458-1.78-0.575-1.367-0.698-1.021-0.742-0.759-0.798-0.564-0.776-0.446-0.759-0.407-0.664z"></path>
</svg>
