<!-- Generated by IcoMoon.io -->
<svg version="1.1" xmlns="http://www.w3.org/2000/svg" width="20" height="20" viewBox="0 0 20 20">
<title>opera</title>
<path d="M16.663 2.545q-1.842-1.228-4.007-1.228-1.73 0-3.27 0.815t-2.679 2.232q-0.837 1.038-1.334 2.433t-0.541 2.969v0.469q0.045 1.574 0.541 2.969t1.334 2.433q1.138 1.417 2.679 2.232t3.27 0.815q2.165 0 4.007-1.228-1.35 1.205-3.064 1.875t-3.599 0.67q-0.324 0-0.48-0.011-1.953-0.089-3.717-0.915t-3.036-2.154-2.020-3.136-0.748-3.783q0-2.031 0.792-3.884t2.132-3.192 3.192-2.132 3.884-0.792h0.033q1.875 0.011 3.577 0.675t3.052 1.869zM20 10q0 2.143-0.859 4.046t-2.377 3.309q-1.161 0.703-2.478 0.703-1.529 0-2.846-0.938 1.719-0.625 2.829-2.6t1.11-4.52q0-2.533-1.105-4.509t-2.824-2.612q1.328-0.926 2.835-0.926 1.328 0 2.522 0.725 1.507 1.395 2.349 3.292t0.843 4.029z"></path>
</svg>
