<!-- Generated by IcoMoon.io -->
<svg version="1.1" xmlns="http://www.w3.org/2000/svg" width="26" height="20" viewBox="0 0 26 20">
<title>optin-monster</title>
<path d="M5.379 18.694q-0.089 0.179-0.301 0.385t-0.413 0.285q-0.279 0.1-0.575-0.039t-0.318-0.352q-0.011-0.246 0.446-0.614t0.759-0.424q0.257-0.045 0.379 0.24t0.022 0.519zM20.346 18.694q0.078 0.179 0.29 0.385t0.424 0.285q0.279 0.1 0.575-0.039t0.307-0.352q0.022-0.246-0.441-0.614t-0.765-0.424q-0.246-0.045-0.368 0.24t-0.022 0.519zM20.882 17.478q0.145 0.301 0.631 0.664t0.865 0.463q0.502 0.145 0.915-0.050t0.413-0.564q0-0.513-0.753-1.122t-1.289-0.664q-0.446-0.056-0.709 0.419t-0.073 0.854zM4.821 17.478q-0.145 0.301-0.625 0.664t-0.859 0.463q-0.502 0.145-0.915-0.050t-0.413-0.564q0-0.513 0.753-1.122t1.289-0.664q0.446-0.056 0.703 0.419t0.067 0.854zM12.969 4.933h0.011q-0.458 0-0.848 0.167 0.301 0.089 0.491 0.34t0.19 0.552q0 0.391-0.301 0.67t-0.725 0.279q-0.58 0-0.893-0.48-0.056 0.257-0.056 0.469 0 0.826 0.625 1.412t1.507 0.586q0.893 0 1.518-0.586t0.625-1.412-0.625-1.412-1.518-0.586zM16.362 2.5q-1.105-1.217-2.461-1.468t-2.74 0.497q0.301-0.67 0.921-1.077t1.317-0.441 1.356 0.19 1.11 0.831 0.497 1.468zM24.732 16.328q0.089 0.123-0.123 0.469 0.078 0.257 0.078 0.446 0.011 0.625-0.497 1.256t-1.222 1.021-1.317 0.413q-0.536 0.022-1.027-0.24t-0.737-0.731q-7.667 0.279-14.051 0-0.257 0.458-0.742 0.725t-1.032 0.246q-0.96-0.033-2.003-0.898t-1.032-1.791q0.022-0.246 0.078-0.446-0.212-0.346-0.123-0.469 0.067-0.112 0.346-0.011 0.156-0.246 0.458-0.569-0.078-0.324 0.022-0.424 0.123-0.112 0.435 0.045 0.324-0.223 0.658-0.379 0-0.324 0.145-0.413 0.257-0.134 0.569 0.179 0.391-0.056 0.681 0.022 0.201 0.045 0.424 0.212v-0.815q-0.123 0-0.201-0.022-0.592-0.112-1.083-0.497t-0.614-0.977q-0.1-0.424 0-0.904 0.167-0.692 1.038-1.060 0.022-0.19 0.212-0.396t0.402-0.262 0.368 0.084 0.212 0.34h0.145q0.513 0.056 0.67 0.257 0.033 0.033 0.056 0.078 0.112-0.011 0.34-0.039t0.34-0.039q-0.167-0.123-0.335-0.19-0.257-0.446-1.016-0.48 0-0.067 0.011-0.112-0.692-0.022-1.323-0.206t-0.943-0.53q-0.357-0.402-0.474-1.027t-0.028-1.25q0.179-1.406 1.004-1.998 0.257-0.179 0.58-0.050t0.357 0.452q0 0.011 0.017 0.156t0.028 0.234 0.033 0.223 0.061 0.212 0.095 0.112q0.301 0.156 0.848 0.134 0.536-0.513 1.094-0.826-0.446-0.045-1.808 0.156l0.525-0.513q0.681-0.647 1.819-1.239 1.618-0.815 3.147-0.96-0.223-0.089-0.458-0.173t-0.525-0.156-0.474-0.117-0.53-0.123-0.48-0.112q6.641-1.406 10.089 1.551 1.094 0.938 1.763 2.478 0.949 0.112 1.35-0.1h0.011q0.056-0.033 0.095-0.112t0.061-0.212 0.033-0.218 0.033-0.24l0.011-0.156q0.033-0.313 0.357-0.446t0.58 0.056q0.815 0.58 1.016 1.987 0.078 0.636-0.039 1.261t-0.474 1.016q-0.313 0.357-0.932 0.541t-1.289 0.206v0.112q-0.792 0.022-1.060 0.48-0.156 0.056-0.346 0.19 0.123 0.011 0.357 0.039t0.335 0.039q0.011-0.056 0.056-0.089 0.179-0.201 0.67-0.257h0.145q0.056-0.201 0.212-0.335t0.368-0.089 0.402 0.257 0.212 0.402q0.882 0.357 1.038 1.060 0.1 0.446 0.011 0.904-0.134 0.592-0.625 0.982t-1.083 0.491q-0.112 0.022-0.19 0.022 0 0.547-0.011 0.815 0.223-0.167 0.424-0.212 0.29-0.078 0.681-0.022 0.313-0.313 0.569-0.179 0.156 0.1 0.156 0.413 0.368 0.179 0.658 0.379 0.301-0.145 0.424-0.045 0.112 0.112 0.022 0.424 0.313 0.335 0.458 0.569 0.257-0.089 0.346 0.011zM21.663 5.703q0 0.324-0.1 0.603 0.915 0.357 1.25 1.473 0.045-0.413-0.106-1.099t-0.463-1.010q-0.223-0.212-0.402-0.19t-0.179 0.223zM20.792 6.819q0.391 0.469 0.53 1.211t-0.006 1.39q0.748-0.145 1.083-0.502 0.145-0.156 0.201-0.313-0.033-0.714-0.346-1.278t-0.882-0.742q-0.167 0.167-0.58 0.234zM20.379 6.864q-0.335 0-0.491-0.011 0.469 1.283 0.592 2.667 0.234 0 0.48-0.033 0.179-0.759 0.011-1.507t-0.592-1.116zM2.924 7.779q0.335-1.116 1.25-1.473-0.1-0.279-0.1-0.603 0-0.201-0.184-0.223t-0.396 0.19q-0.313 0.324-0.463 1.010t-0.106 1.099zM3.326 8.917q0.324 0.346 1.083 0.502-0.145-0.647-0.006-1.39t0.53-1.211q-0.413-0.067-0.58-0.234-0.569 0.179-0.876 0.737t-0.352 1.283q0.1 0.19 0.201 0.313zM5.301 9.52q0.156-1.384 0.815-2.623-0.212 0.045-0.614 0.201l-0.502 0.212v-0.011q-0.513 0.993-0.223 2.188 0.279 0.033 0.525 0.033zM16.049 9.955q0.089 0.424 0.184 1.211t0.128 0.999q0.033 0.201 0.106 0.24t0.262-0.050q0.446-0.223 0.692-0.954t0.257-1.401q-0.268-0.022-1.629-0.045zM12.902 2.801q-1.295 0-2.221 0.921t-0.926 2.215q0 1.306 0.926 2.227t2.221 0.921 2.221-0.921 0.926-2.227q0-1.295-0.926-2.215t-2.221-0.921zM15.446 9.933q-1.172-0.022-2.355 0v-0.011q-0.011 0.301 0.028 0.96t0.151 0.737q0.324 0.156 1.044 0.162t1.066-0.117q0.1-0.033 0.123-0.435t-0.006-0.776-0.050-0.519zM12.455 12.154q0.089-0.045 0.106-0.536t-0.006-0.982-0.045-0.703v-0.011q-2.366 0.033-2.388 0.033-0.045 0.223-0.078 0.692t0 0.926 0.156 0.513q0.379 0.167 1.127 0.179t1.127-0.112zM8.058 10.045q-0.179 0.658 0.050 1.323t0.865 0.943q0.167 0.089 0.268 0.056t0.134-0.234q0.033-0.179 0.089-1.004t0.112-1.15q-0.77 0.022-1.518 0.067zM6.641 11.451q0.033 0.257-0.379 0.402 1.473 1.574 3.030 2.679t3.41 1.719q1.92-0.547 3.465-1.629t3.276-2.79q-0.368-0.145-0.335-0.379 0-0.022 0.006-0.039t0.017-0.033 0.011-0.028v0q-0.19-0.022-0.558-0.061t-0.536-0.050q-0.29 1.004-0.915 1.473-0.569 0.424-0.915-0.011-0.056-0.067-0.1-0.156-0.078-0.145-0.19-0.692-0.022 0.056-0.056 0.1t-0.084 0.078-0.089 0.061-0.106 0.045l-0.112 0.028-0.134 0.022-0.134 0.017-0.151 0.011-0.151 0.006q-1.183 0.1-1.819-0.123-0.045 0.19-0.112 0.296t-0.234 0.167-0.257 0.078-0.402 0.039q-0.067 0.011-0.1 0.011-1.998 0.19-2.266-0.446-0.022 0.703-0.625 0.603-0.525-0.089-1.016-0.603-0.134-0.145-0.223-0.29-0.19-0.324-0.29-0.725-0.647 0.067-0.971 0.112 0.011 0.022 0.045 0.112zM5.703 18.46q0.033-0.156 0.033-0.335-0.19-0.792-0.569-1.451t-0.815-0.781q-0.458-0.134-1.133 0.162t-1.166 0.893-0.435 1.2q0.391 0.592 1.116 1.038t1.328 0.469q0.569 0.022 1.049-0.313t0.592-0.882zM5.737 16.551q0.257 0.703 0.301 1.328 2.176-1.261 4.375-1.942-1.094-0.58-2.015-1.339t-2.003-1.842q-0.067 0.045-0.324 0.145 0 0.011-0.011 0.045t-0.011 0.056q0.346 0.201 0.246 0.413-0.134 0.257-0.625 0.379-0.112 0.145-0.324 0.268h-0.011q-0.022 0.926 0.011 1.674 0.212 0.379 0.391 0.815zM6.507 18.404q5.938 0.234 12.779 0-2.835-1.641-4.777-2.188-0.848 0.391-1.741 0.636-0.089 0.033-0.179 0-0.725-0.234-1.44-0.547-2.321 0.67-4.643 2.098h-0.011v0.011q0.011 0 0.011-0.011zM19.721 17.891q0.045-0.603 0.312-1.339 0.156-0.424 0.368-0.792l-0.011 0.011q0.033-0.859 0.033-1.708-0.167-0.089-0.335-0.279-0.469-0.1-0.625-0.368-0.1-0.223 0.246-0.424-0.022-0.045-0.022-0.1-0.179-0.045-0.313-0.134-2.277 2.121-4.275 3.17 2.21 0.658 4.621 1.964zM24.096 18.147q0.056-0.603-0.435-1.2t-1.161-0.893-1.138-0.162q-0.424 0.123-0.809 0.787t-0.575 1.445q0 0.179 0.033 0.335 0.112 0.547 0.592 0.882t1.049 0.313q0.603-0.022 1.328-0.469t1.116-1.038z"></path>
</svg>
