<!-- Generated by IcoMoon.io -->
<svg version="1.1" xmlns="http://www.w3.org/2000/svg" width="20" height="20" viewBox="0 0 20 20">
<title>pagelines</title>
<path d="M17.79 12.31q-0.357 0.893-0.848 1.54t-1.016 0.988-1.105 0.519-1.133 0.162-1.077-0.095-0.965-0.246-0.776-0.307-0.513-0.251l-0.19-0.112q-1.261 2.545-3.231 4.012t-4.291 1.479q-0.212 0-0.357-0.145t-0.145-0.357 0.145-0.352 0.357-0.14q1.931-0.011 3.599-1.2t2.807-3.287q-0.402 0.156-0.804 0.257t-0.926 0.145-1.016-0.028-1.038-0.318-1.027-0.658-0.943-1.116-0.831-1.629q1.272-0.525 2.388-0.636t1.869 0.084 1.39 0.631 0.988 0.859 0.631 0.915q0.592-1.462 0.882-3.248-0.078 0.011-0.201 0.028t-0.519 0.028-0.776-0.006-0.91-0.112-0.988-0.257-0.938-0.474-0.837-0.725-0.608-1.055-0.318-1.423q0.781-0.313 1.49-0.407t1.256 0.011 1.027 0.335 0.82 0.558 0.625 0.681 0.469 0.703 0.307 0.625 0.179 0.441l0.045 0.179q0.134-1.362 0.134-2.176-0.089-0.067-0.24-0.179t-0.547-0.497-0.709-0.798-0.603-1.038-0.368-1.256 0.134-1.417 0.781-1.546q0.815 0.279 1.423 0.686t0.943 0.854 0.536 0.949 0.229 0.993-0.006 0.954-0.145 0.854-0.212 0.692-0.19 0.469l-0.078 0.167q0.011 0.045 0.011 0.558t-0.011 0.804q0.033-0.078 0.112-0.206t0.34-0.48 0.564-0.647 0.792-0.619 1.021-0.497 1.25-0.162 1.479 0.268q-0.022 0.871-0.24 1.579t-0.558 1.166-0.776 0.798-0.91 0.508-0.943 0.268-0.893 0.106-0.753-0.011-0.519-0.050l-0.19-0.033q-0.257 1.641-0.815 3.158 0.067-0.078 0.201-0.206t0.552-0.458 0.865-0.586 1.11-0.469 1.311-0.223 1.44 0.262 1.529 0.865z"></path>
</svg>
