<!-- Generated by IcoMoon.io -->
<svg version="1.1" xmlns="http://www.w3.org/2000/svg" width="20" height="20" viewBox="0 0 20 20">
<title>paint-brush</title>
<path d="M18.025 0q0.781 0 1.367 0.519t0.586 1.3q0 0.703-0.502 1.685-3.705 7.020-5.19 8.393-1.083 1.016-2.433 1.016-1.406 0-2.416-1.032t-1.010-2.45q0-1.429 1.027-2.366l7.121-6.462q0.658-0.603 1.451-0.603zM7.879 11.54q0.435 0.848 1.189 1.451t1.68 0.848l0.011 0.792q0.045 2.377-1.445 3.873t-3.89 1.496q-1.373 0-2.433-0.519t-1.702-1.423-0.965-2.042-0.324-2.455q0.078 0.056 0.458 0.335t0.692 0.497 0.658 0.407 0.513 0.19q0.458 0 0.614-0.413 0.279-0.737 0.642-1.256t0.776-0.848 0.982-0.53 1.15-0.285 1.395-0.117z"></path>
</svg>
