<!-- Generated by IcoMoon.io -->
<svg version="1.1" xmlns="http://www.w3.org/2000/svg" width="20" height="20" viewBox="0 0 20 20">
<title>paperclip</title>
<path d="M17.813 15.458q0 1.306-0.882 2.187t-2.188 0.882q-1.507 0-2.623-1.116l-8.672-8.661q-1.261-1.283-1.261-3.025 0-1.775 1.228-3.013t3.002-1.239q1.763 0 3.047 1.261l6.752 6.763q0.112 0.112 0.112 0.246 0 0.179-0.34 0.519t-0.519 0.34q-0.145 0-0.257-0.112l-6.763-6.775q-0.882-0.859-2.020-0.859-1.183 0-1.998 0.837t-0.815 2.020q0 1.172 0.848 2.020l8.661 8.672q0.703 0.703 1.618 0.703 0.714 0 1.183-0.469t0.469-1.183q0-0.915-0.703-1.618l-6.484-6.484q-0.29-0.268-0.67-0.268-0.324 0-0.536 0.212t-0.212 0.536q0 0.357 0.279 0.658l4.576 4.576q0.112 0.112 0.112 0.246 0 0.179-0.346 0.525t-0.525 0.346q-0.134 0-0.246-0.112l-4.576-4.576q-0.703-0.681-0.703-1.663 0-0.915 0.636-1.551t1.551-0.636q0.982 0 1.663 0.703l6.484 6.484q1.116 1.094 1.116 2.623z"></path>
</svg>
