<!-- Generated by IcoMoon.io -->
<svg version="1.1" xmlns="http://www.w3.org/2000/svg" width="20" height="20" viewBox="0 0 20 20">
<title>paper-plane-o</title>
<path d="M19.688 0.123q0.368 0.268 0.301 0.714l-2.857 17.143q-0.056 0.324-0.357 0.502-0.156 0.089-0.346 0.089-0.123 0-0.268-0.056l-5.882-2.4-3.326 3.65q-0.201 0.234-0.525 0.234-0.156 0-0.257-0.045-0.212-0.078-0.335-0.262t-0.123-0.407v-5.045l-5.268-2.154q-0.413-0.156-0.446-0.614-0.033-0.435 0.357-0.658l18.571-10.714q0.391-0.234 0.759 0.022zM15.871 16.853l2.467-14.766-16.004 9.23 3.75 1.529 9.632-7.132-5.335 8.895z"></path>
</svg>
