<!-- Generated by IcoMoon.io -->
<svg version="1.1" xmlns="http://www.w3.org/2000/svg" width="20" height="20" viewBox="0 0 20 20">
<title>paper-plane</title>
<path d="M19.688 0.123q0.368 0.268 0.301 0.714l-2.857 17.143q-0.056 0.324-0.357 0.502-0.156 0.089-0.346 0.089-0.123 0-0.268-0.056l-5.056-2.065-2.701 3.292q-0.201 0.257-0.547 0.257-0.145 0-0.246-0.045-0.212-0.078-0.34-0.262t-0.128-0.407v-3.895l9.643-11.819-11.931 10.324-4.408-1.808q-0.413-0.156-0.446-0.614-0.022-0.446 0.357-0.658l18.571-10.714q0.167-0.1 0.357-0.1 0.223 0 0.402 0.123z"></path>
</svg>
