<!-- Generated by IcoMoon.io -->
<svg version="1.1" xmlns="http://www.w3.org/2000/svg" width="20" height="20" viewBox="0 0 20 20">
<title>paragraph</title>
<path d="M17.121 2.109v0.815q0 0.324-0.206 0.681t-0.474 0.357q-0.558 0-0.603 0.011-0.29 0.067-0.357 0.346-0.033 0.123-0.033 0.714v12.857q0 0.279-0.201 0.48t-0.48 0.201h-1.205q-0.279 0-0.48-0.201t-0.201-0.48v-13.594h-1.596v13.594q0 0.279-0.195 0.48t-0.485 0.201h-1.205q-0.29 0-0.485-0.201t-0.195-0.48v-5.536q-1.641-0.134-2.734-0.658-1.406-0.647-2.143-1.998-0.714-1.306-0.714-2.891 0-1.853 0.982-3.192 0.982-1.317 2.333-1.775 1.239-0.413 4.654-0.413h5.346q0.279 0 0.48 0.201t0.201 0.48z"></path>
</svg>
