<!-- Generated by IcoMoon.io -->
<svg version="1.1" xmlns="http://www.w3.org/2000/svg" width="20" height="20" viewBox="0 0 20 20">
<title>paste</title>
<path d="M8.571 18.571h10v-7.143h-4.643q-0.446 0-0.759-0.313t-0.313-0.759v-4.643h-4.286v12.857zM11.429 2.5v-0.714q0-0.145-0.106-0.251t-0.251-0.106h-7.857q-0.145 0-0.251 0.106t-0.106 0.251v0.714q0 0.145 0.106 0.251t0.251 0.106h7.857q0.145 0 0.251-0.106t0.106-0.251zM14.286 10h3.337l-3.337-3.337v3.337zM20 11.429v7.5q0 0.446-0.313 0.759t-0.759 0.313h-10.714q-0.446 0-0.759-0.313t-0.313-0.759v-1.786h-6.071q-0.446 0-0.759-0.313t-0.313-0.759v-15q0-0.446 0.313-0.759t0.759-0.313h12.143q0.446 0 0.759 0.313t0.313 0.759v3.661q0.234 0.145 0.402 0.312l4.554 4.554q0.313 0.313 0.536 0.848t0.223 0.982z"></path>
</svg>
