<!-- Generated by IcoMoon.io -->
<svg version="1.1" xmlns="http://www.w3.org/2000/svg" width="20" height="20" viewBox="0 0 20 20">
<title>paw</title>
<path d="M9.42 5.268q0 0.67-0.212 1.267t-0.703 1.032-1.172 0.435q-0.848 0-1.54-0.642t-1.027-1.512-0.335-1.685q0-0.67 0.212-1.267t0.703-1.032 1.172-0.435q0.859 0 1.546 0.642t1.021 1.507 0.335 1.691zM5.603 10.658q0 0.893-0.469 1.551t-1.328 0.658q-0.848 0-1.579-0.619t-1.122-1.49-0.391-1.696q0-0.893 0.469-1.557t1.328-0.664q0.848 0 1.579 0.619t1.122 1.496 0.391 1.702zM10 10.357q1.317 0 2.846 1.088t2.556 2.645 1.027 2.84q0 0.513-0.19 0.854t-0.541 0.502-0.72 0.223-0.848 0.061q-0.759 0-2.093-0.502t-2.037-0.502q-0.737 0-2.148 0.497t-2.238 0.497q-2.042 0-2.042-1.629 0-0.96 0.625-2.137t1.557-2.148 2.093-1.629 2.154-0.658zM12.667 8.002q-0.681 0-1.172-0.435t-0.703-1.032-0.212-1.267q0-0.826 0.335-1.691t1.021-1.507 1.546-0.642q0.681 0 1.172 0.435t0.703 1.032 0.212 1.267q0 0.815-0.335 1.685t-1.027 1.512-1.54 0.642zM17.489 6.842q0.859 0 1.328 0.664t0.469 1.557q0 0.826-0.391 1.696t-1.122 1.49-1.579 0.619q-0.859 0-1.328-0.658t-0.469-1.551q0-0.826 0.391-1.702t1.122-1.496 1.579-0.619z"></path>
</svg>
