<!-- Generated by IcoMoon.io -->
<svg version="1.1" xmlns="http://www.w3.org/2000/svg" width="20" height="20" viewBox="0 0 20 20">
<title>paypal</title>
<path d="M18.382 7.21q0.201 0.937-0.045 2.277-0.971 4.955-6.306 4.955h-0.491q-0.279 0-0.491 0.184t-0.268 0.474l-0.045 0.212-0.614 3.862-0.022 0.167q-0.056 0.29-0.273 0.474t-0.497 0.184h-2.801q-0.234 0-0.368-0.167t-0.1-0.402q0.1-0.625 0.296-1.875t0.296-1.875 0.301-1.869 0.301-1.869q0.056-0.413 0.48-0.413h1.462q1.484 0.022 2.634-0.234 1.953-0.435 3.203-1.607 1.138-1.060 1.73-2.746 0.268-0.781 0.391-1.484 0.011-0.067 0.028-0.084t0.039-0.011 0.067 0.039q0.882 0.658 1.094 1.808zM16.462 4.063q0 1.194-0.513 2.634-0.893 2.6-3.371 3.516-1.261 0.446-2.813 0.469 0 0.011-1.004 0.011l-1.004-0.011q-1.116 0-1.317 1.071-0.022 0.089-0.949 5.915-0.011 0.112-0.134 0.112h-3.292q-0.246 0-0.407-0.184t-0.128-0.43l2.589-16.417q0.056-0.324 0.307-0.536t0.575-0.212h6.674q0.379 0 1.088 0.145t1.244 0.357q1.194 0.458 1.825 1.373t0.631 2.187z"></path>
</svg>
