<!-- Generated by IcoMoon.io -->
<svg version="1.1" xmlns="http://www.w3.org/2000/svg" width="20" height="20" viewBox="0 0 20 20">
<title>pencil-square</title>
<path d="M5.938 12.366l1.696 1.696-0.58 0.58h-0.625v-1.071h-1.071v-0.625zM10.558 8.013q0.156 0.145-0.033 0.335l-3.248 3.248q-0.19 0.19-0.335 0.033-0.156-0.145 0.033-0.335l3.248-3.248q0.19-0.19 0.335-0.033zM7.5 15.714l6.071-6.071-3.214-3.214-6.071 6.071v3.214h3.214zM14.286 8.929l1.027-1.027q0.313-0.313 0.313-0.759t-0.313-0.759l-1.696-1.696q-0.313-0.313-0.759-0.313t-0.759 0.313l-1.027 1.027zM18.571 4.643v10.714q0 1.328-0.943 2.271t-2.271 0.943h-10.714q-1.328 0-2.271-0.943t-0.943-2.271v-10.714q0-1.328 0.943-2.271t2.271-0.943h10.714q1.328 0 2.271 0.943t0.943 2.271z"></path>
</svg>
