<!-- Generated by IcoMoon.io -->
<svg version="1.1" xmlns="http://www.w3.org/2000/svg" width="20" height="20" viewBox="0 0 20 20">
<title>pencil</title>
<path d="M5.48 17.143l1.016-1.016-2.623-2.623-1.016 1.016v1.194h1.429v1.429h1.194zM11.317 6.786q0-0.246-0.246-0.246-0.112 0-0.19 0.078l-6.049 6.049q-0.078 0.078-0.078 0.19 0 0.246 0.246 0.246 0.112 0 0.19-0.078l6.049-6.049q0.078-0.078 0.078-0.19zM10.714 4.643l4.643 4.643-9.286 9.286h-4.643v-4.643zM18.337 5.714q0 0.592-0.413 1.004l-1.853 1.853-4.643-4.643 1.853-1.842q0.402-0.424 1.004-0.424 0.592 0 1.016 0.424l2.623 2.612q0.413 0.435 0.413 1.016z"></path>
</svg>
