<!-- Generated by IcoMoon.io -->
<svg version="1.1" xmlns="http://www.w3.org/2000/svg" width="20" height="20" viewBox="0 0 20 20">
<title>percent</title>
<path d="M15.714 14.286q0-0.58-0.424-1.004t-1.004-0.424-1.004 0.424-0.424 1.004 0.424 1.004 1.004 0.424 1.004-0.424 0.424-1.004zM7.143 5.714q0-0.58-0.424-1.004t-1.004-0.424-1.004 0.424-0.424 1.004 0.424 1.004 1.004 0.424 1.004-0.424 0.424-1.004zM18.571 14.286q0 1.775-1.256 3.030t-3.030 1.256-3.030-1.256-1.256-3.030 1.256-3.030 3.030-1.256 3.030 1.256 1.256 3.030zM17.5 2.143q0 0.223-0.145 0.424l-11.786 15.714q-0.212 0.29-0.569 0.29h-1.786q-0.29 0-0.502-0.212t-0.212-0.502q0-0.223 0.145-0.424l11.786-15.714q0.212-0.29 0.569-0.29h1.786q0.29 0 0.502 0.212t0.212 0.502zM10 5.714q0 1.775-1.256 3.030t-3.030 1.256-3.030-1.256-1.256-3.030 1.256-3.030 3.030-1.256 3.030 1.256 1.256 3.030z"></path>
</svg>
