<!-- Generated by IcoMoon.io -->
<svg version="1.1" xmlns="http://www.w3.org/2000/svg" width="20" height="20" viewBox="0 0 20 20">
<title>phone</title>
<path d="M17.857 13.839q0 0.301-0.112 0.787t-0.234 0.765q-0.234 0.558-1.362 1.183-1.049 0.569-2.076 0.569-0.301 0-0.592-0.039t-0.642-0.14-0.525-0.162-0.619-0.229-0.547-0.201q-1.094-0.391-1.953-0.926-1.417-0.882-2.946-2.411t-2.411-2.946q-0.536-0.859-0.926-1.953-0.033-0.1-0.201-0.547t-0.229-0.619-0.162-0.525-0.14-0.642-0.039-0.592q0-1.027 0.569-2.076 0.625-1.127 1.183-1.362 0.279-0.123 0.765-0.234t0.787-0.112q0.156 0 0.234 0.033 0.201 0.067 0.592 0.848 0.123 0.212 0.335 0.603t0.391 0.709 0.346 0.597q0.033 0.045 0.195 0.279t0.24 0.396 0.078 0.318q0 0.223-0.318 0.558t-0.692 0.614-0.692 0.592-0.318 0.513q0 0.1 0.056 0.251t0.095 0.229 0.156 0.268 0.128 0.212q0.848 1.529 1.942 2.623t2.623 1.942q0.022 0.011 0.212 0.128t0.268 0.156 0.229 0.095 0.251 0.056q0.201 0 0.513-0.318t0.592-0.692 0.614-0.692 0.558-0.318q0.156 0 0.318 0.078t0.396 0.24 0.279 0.195q0.279 0.167 0.597 0.346t0.709 0.391 0.603 0.335q0.781 0.391 0.848 0.592 0.033 0.078 0.033 0.234z"></path>
</svg>
