<!-- Generated by IcoMoon.io -->
<svg version="1.1" xmlns="http://www.w3.org/2000/svg" width="20" height="20" viewBox="0 0 20 20">
<title>phone-square</title>
<path d="M15.714 13.315q0-0.123-0.022-0.179t-0.201-0.184-0.452-0.279-0.53-0.296-0.508-0.279-0.318-0.167q-0.056-0.033-0.212-0.145t-0.279-0.167-0.234-0.056q-0.167 0-0.407 0.229t-0.441 0.502-0.43 0.502-0.374 0.229q-0.078 0-0.184-0.039t-0.173-0.073-0.19-0.106-0.156-0.095q-1.105-0.614-1.897-1.412t-1.417-1.903q-0.022-0.033-0.095-0.156t-0.106-0.19-0.073-0.173-0.039-0.184q0-0.145 0.229-0.374t0.502-0.43 0.502-0.441 0.229-0.407q0-0.112-0.056-0.234t-0.167-0.279-0.145-0.212q-0.033-0.067-0.167-0.318t-0.279-0.508-0.296-0.53-0.279-0.452-0.184-0.201-0.179-0.022q-0.536 0-1.127 0.246-0.513 0.234-0.893 1.055t-0.379 1.456q0 0.179 0.028 0.379t0.056 0.34 0.1 0.368 0.112 0.329 0.14 0.368 0.123 0.335q0.67 1.83 2.416 3.577t3.577 2.416q0.067 0.022 0.335 0.123t0.368 0.14 0.329 0.112 0.368 0.1 0.34 0.056 0.379 0.028q0.636 0 1.456-0.379t1.055-0.893q0.246-0.592 0.246-1.127zM18.571 4.643v10.714q0 1.328-0.943 2.271t-2.271 0.943h-10.714q-1.328 0-2.271-0.943t-0.943-2.271v-10.714q0-1.328 0.943-2.271t2.271-0.943h10.714q1.328 0 2.271 0.943t0.943 2.271z"></path>
</svg>
