<!-- Generated by IcoMoon.io -->
<svg version="1.1" xmlns="http://www.w3.org/2000/svg" width="20" height="20" viewBox="0 0 20 20">
<title>pied-piper-pp</title>
<path d="M13.103 11.384q0 0.714-0.424 1.217t-1.016 0.502q-0.48 0-0.781-0.167v-3.092q0.313-0.19 0.781-0.19 0.592 0 1.016 0.508t0.424 1.222zM9.275 6.607q0 0.714-0.424 1.222t-1.016 0.508q-0.48 0-0.781-0.167v-3.092q0.313-0.19 0.781-0.19 0.592 0 1.016 0.502t0.424 1.217zM15.547 11.417q0-1.496-0.982-2.556t-2.377-1.060q-0.223 0-0.435 0.033-0.257 0.871-0.871 1.518-0.971 1.060-2.355 1.127v7.098l2.355-0.458v-2.299q0.569 0.212 1.306 0.212 1.395 0 2.377-1.060t0.982-2.556zM11.719 6.652q0-1.496-0.988-2.556t-2.383-1.060q-0.826 0-1.574 0.402h-2.076v9.375l2.355-0.458v-2.299q0.614 0.212 1.295 0.212 1.395 0 2.383-1.060t0.988-2.556zM18.571 4.643v10.714q0 1.328-0.943 2.271t-2.271 0.943h-10.714q-1.328 0-2.271-0.943t-0.943-2.271v-10.714q0-1.328 0.943-2.271t2.271-0.943h10.714q1.328 0 2.271 0.943t0.943 2.271z"></path>
</svg>
