<!-- Generated by IcoMoon.io -->
<svg version="1.1" xmlns="http://www.w3.org/2000/svg" width="23" height="20" viewBox="0 0 23 20">
<title>pied-piper-alt</title>
<path d="M13.694 10.368q0.837-0.033 1.602 0.229t1.317 0.653 1.127 1.055 0.938 1.205 0.843 1.345q0.368 0.625 0.876 1.217t0.843 0.898 1.105 0.988q-0.536 0.335-1.211 0.642t-1.546 0.658-1.272 0.53q-0.491-0.413-0.826-1.283t-0.485-1.836-0.368-2.015-0.474-1.881-0.809-1.373-1.367-0.541l-0.112 0.022-0.067 0.045q0.045 0.056 0.145 0.156 0.067 0.056 0.313 0.262t0.285 0.246 0.212 0.201 0.201 0.229 0.128 0.234 0.117 0.307 0.050 0.346 0.045 0.452l0.011 0.368q0.011 0.29-0.028 0.642t-0.084 0.58-0.14 0.653-0.128 0.592q-0.391-0.011-1.127 0.106t-1.094 0.117q-0.435 0-0.804-0.112-0.022-0.179-0.022-0.525 0-0.826 0.033-1.071 0.022-0.145 0.352-0.463t0.636-0.658 0.296-0.575q-0.268-0.022-0.48 0.268-0.402 0.592-1.244 1.11t-1.523 0.519q-0.279 0-0.843-0.703t-1.189-1.557-0.938-1.077q-0.067-0.045-0.301-0.335-5.379 1.25-5.725 1.25-0.179 0-0.313-0.123t-0.134-0.301q0-0.167 0.095-0.296t0.251-0.162l5.424-1.183q-0.089-0.156-0.089-0.279t0.061-0.195 0.179-0.128 0.223-0.078 0.257-0.050 0.206-0.050q0.045-0.011 0.173-0.084t0.195-0.073q0.167 0 0.313 0.179t0.223 0.368q1.819-0.413 1.92-0.413 0.19 0 0.329 0.123t0.14 0.313q0 0.167-0.095 0.29t-0.262 0.156l-2.031 0.446-0.011 0.179q-0.011 0.29 0.91 1.311t1.166 1.021q0.525 0 1.328-0.893t0.804-1.44q0-0.402-0.262-0.592t-0.569-0.206-0.569-0.128-0.262-0.379q0-0.179 0.112-0.379l-0.759-0.212q0.48-0.491 0.48-1.306 0-0.29-0.056-0.647 0.915-0.179 1.607-0.179 0.491 0 0.798 0.017t0.541 0.095 0.346 0.151 0.229 0.273 0.173 0.374 0.19 0.53 0.268 0.67l0.558-0.279q-0.033 0.446-0.257 0.67t-0.474 0.234-0.446 0.073-0.184 0.229zM14.364 7.746q-0.056-0.056-0.151-0.173t-0.134-0.162-0.117-0.128-0.112-0.117l-0.089-0.089-0.095-0.084-0.089-0.056-0.095-0.050q-0.078-0.033-0.162-0.056t-0.229-0.028-0.246-0.006h-0.781q-1.406 0-2.422 0.48 0.179-0.335 0.402-0.519t0.603-0.329 0.731-0.402 0.513-0.407 0.558-0.614 0.485-0.564q0.134 0.1 0.313 0.352t0.357 0.407 0.424 0.145l0.134-0.011v0.848l0.246 0.011q2.757-1.060 4.141-2.121 0.313-0.234 0.558-0.435t0.474-0.419 0.368-0.346 0.329-0.379 0.268-0.346 0.273-0.413 0.257-0.424 0.301-0.53 0.329-0.592l0.078-0.1q-0.022 0.592-0.48 1.551-0.882 1.842-2.288 2.946t-3.415 1.585q-0.156 0.033-0.469 0.084t-0.558 0.106-0.435 0.156q0.033 0.212 0.273 0.513t0.24 0.379q0 0.123-0.29 0.335zM11.897 18.025q0.435-0.29 1.468-0.53t1.635-0.24q0.1 0 0.251 0.173t0.313 0.474 0.29 0.558 0.268 0.569 0.162 0.368q-1.35 0.502-2.723 0.502-0.681 0-1.395-0.123zM9.23 10.804l0.536-0.134 1.217 1.975-0.815 0.536zM14.821 16.574q0.033 0.167 0.033 0.179 0 0.078-0.195 0.162t-0.513 0.145-0.603 0.106-0.597 0.084-0.357 0.050l-0.078-0.48q0.234-0.022 0.675-0.095t0.804-0.112 0.675-0.039h0.156zM9.721 9.565l-1.071 0.223-0.067-0.19q0.112-0.011 0.363-0.078t0.385-0.067q0.212 0 0.391 0.112zM11.897 16.641h0.346l0.112 0.926-0.458 0.134v-1.060zM21.819 0.011v0zM21.819 0.011l-0.011 0.056-0.022 0.022 0.011-0.033zM21.819 0.011l0.011-0.011z"></path>
</svg>
