<!-- Generated by IcoMoon.io -->
<svg version="1.1" xmlns="http://www.w3.org/2000/svg" width="26" height="20" viewBox="0 0 26 20">
<title>pied-piper</title>
<path d="M25.714 0q-0.77 0.513-1.395 1.027t-0.993 0.904-0.664 0.798-0.419 0.642-0.246 0.497-0.156 0.329q-0.112 0.201-0.396 1.523t-0.541 1.836q-0.167 0.324-0.558 0.675t-0.753 0.564-0.809 0.458-0.536 0.313q-0.525 0.346-1.685 2.578-3.806-0.156-7.031 1.763-1.027 0.592-3.382 1.998 0.525-0.179 0.96-0.346t0.614-0.246l0.167-0.078q0.792-0.301 1.819-0.72t1.49-0.597 1.205-0.385 1.59-0.352q2.076-0.346 5.19 0.078 0.011 0 0.112 0.033 0.123 0.067 0.156 0.19t-0.033 0.246l-2.165 3.85q-0.167 0.324-0.525 0.246-1.429-0.268-3.951-0.268-1.629 0-4.487 0.497t-4.375 0.519q-0.915 0.011-1.663-0.145t-1.194-0.413-0.681-0.446-0.368-0.379l-0.011-0.011v-0.022q0-0.067 0.067-0.067 1.54 0 4.141-0.614 2.143-4.085 4.18-5.848t4.28-1.763q0.056 0 0.162 0.006t0.424 0.056 0.614 0.134 0.686 0.273 0.703 0.441 0.603 0.658 0.446 0.921l1.138-1.975q0.022-0.045 0.234-0.474t0.497-0.965 0.681-1.222 0.938-1.49 1.122-1.529q0.737-0.915 1.429-1.579t1.356-1.077 1.032-0.597 0.982-0.441z"></path>
</svg>
