<!-- Generated by IcoMoon.io -->
<svg version="1.1" xmlns="http://www.w3.org/2000/svg" width="20" height="20" viewBox="0 0 20 20">
<title>pinterest-p</title>
<path d="M2.857 6.663q0-1.205 0.419-2.271t1.155-1.858 1.696-1.373 2.065-0.871 2.254-0.29q1.763 0 3.281 0.742t2.467 2.16 0.949 3.203q0 1.071-0.212 2.098t-0.67 1.975-1.116 1.669-1.618 1.15-2.109 0.43q-0.759 0-1.507-0.357t-1.071-0.982q-0.112 0.435-0.313 1.256t-0.262 1.060-0.229 0.792-0.29 0.792-0.357 0.698-0.513 0.865-0.692 0.965l-0.156 0.056-0.1-0.112q-0.167-1.752-0.167-2.098 0-1.027 0.24-2.305t0.742-3.209 0.58-2.266q-0.357-0.725-0.357-1.886 0-0.926 0.58-1.741t1.473-0.815q0.681 0 1.060 0.452t0.379 1.144q0 0.737-0.491 2.132t-0.491 2.087q0 0.703 0.502 1.166t1.217 0.463q0.614 0 1.138-0.279t0.876-0.759 0.625-1.060 0.424-1.233 0.223-1.239 0.073-1.11q0-1.931-1.222-3.008t-3.186-1.077q-2.232 0-3.728 1.445t-1.496 3.666q0 0.491 0.14 0.949t0.301 0.725 0.301 0.508 0.14 0.34q0 0.313-0.167 0.815t-0.413 0.502q-0.022 0-0.19-0.033-0.569-0.167-1.010-0.625t-0.681-1.055-0.363-1.205-0.123-1.189z"></path>
</svg>
