<!-- Generated by IcoMoon.io -->
<svg version="1.1" xmlns="http://www.w3.org/2000/svg" width="20" height="20" viewBox="0 0 20 20">
<title>pinterest-square</title>
<path d="M15.357 1.429q1.328 0 2.271 0.943t0.943 2.271v10.714q0 1.328-0.943 2.271t-2.271 0.943h-8.092q0.949-1.362 1.205-2.344 0.1-0.379 0.592-2.333 0.234 0.435 0.82 0.748t1.256 0.313q2.020 0 3.298-1.646t1.278-4.169q0-0.938-0.391-1.814t-1.077-1.551-1.702-1.083-2.199-0.407q-1.161 0-2.171 0.318t-1.708 0.854-1.2 1.222-0.742 1.429-0.24 1.479q0 1.138 0.441 2.009t1.3 1.228q0.145 0.056 0.262 0t0.162-0.212q0.112-0.491 0.167-0.681 0.067-0.257-0.123-0.469-0.558-0.692-0.558-1.674 0-1.674 1.155-2.863t3.019-1.189q1.663 0 2.595 0.904t0.932 2.344q0 1.875-0.753 3.192t-1.936 1.317q-0.67 0-1.083-0.485t-0.257-1.155q0.089-0.379 0.296-1.032t0.329-1.138 0.123-0.831q0-0.547-0.296-0.91t-0.843-0.363q-0.681 0-1.155 0.631t-0.474 1.557q0 0.804 0.268 1.35l-1.094 4.621q-0.268 1.116-0.078 2.835h-2.042q-1.328 0-2.271-0.943t-0.943-2.271v-10.714q0-1.328 0.943-2.271t2.271-0.943h10.714z"></path>
</svg>
