<!-- Generated by IcoMoon.io -->
<svg version="1.1" xmlns="http://www.w3.org/2000/svg" width="20" height="20" viewBox="0 0 20 20">
<title>pinterest</title>
<path d="M18.571 10q0 2.333-1.15 4.302t-3.119 3.119-4.302 1.15q-1.239 0-2.433-0.357 0.658-1.038 0.871-1.83 0.1-0.379 0.603-2.355 0.223 0.435 0.815 0.753t1.272 0.318q1.35 0 2.411-0.765t1.641-2.104 0.58-3.013q0-1.272-0.664-2.388t-1.925-1.819-2.846-0.703q-1.172 0-2.188 0.324t-1.724 0.859-1.217 1.233-0.748 1.445-0.24 1.496q0 1.161 0.446 2.042t1.306 1.239q0.335 0.134 0.424-0.223 0.022-0.078 0.089-0.346t0.089-0.335q0.067-0.257-0.123-0.48-0.569-0.681-0.569-1.685 0-1.685 1.166-2.896t3.052-1.211q1.685 0 2.628 0.915t0.943 2.377q0 1.897-0.765 3.225t-1.959 1.328q-0.681 0-1.094-0.485t-0.257-1.166q0.089-0.391 0.296-1.044t0.335-1.15 0.128-0.843q0-0.558-0.301-0.926t-0.859-0.368q-0.692 0-1.172 0.636t-0.48 1.585q0 0.815 0.279 1.362l-1.105 4.665q-0.19 0.781-0.145 1.975-2.299-1.016-3.717-3.136t-1.417-4.721q0-2.333 1.15-4.302t3.119-3.119 4.302-1.15 4.302 1.15 3.119 3.119 1.15 4.302z"></path>
</svg>
