<!-- Generated by IcoMoon.io -->
<svg version="1.1" xmlns="http://www.w3.org/2000/svg" width="20" height="20" viewBox="0 0 20 20">
<title>plane</title>
<path d="M17.5 1.786q0.491 0.58 0.134 1.652t-1.205 1.92l-1.797 1.797 1.786 7.768q0.056 0.212-0.134 0.368l-1.429 1.071q-0.078 0.067-0.212 0.067-0.045 0-0.078-0.011-0.167-0.033-0.234-0.179l-3.114-5.67-2.891 2.891 0.592 2.165q0.056 0.19-0.089 0.346l-1.071 1.071q-0.1 0.1-0.257 0.1h-0.022q-0.167-0.022-0.268-0.145l-2.109-2.812-2.813-2.109q-0.123-0.078-0.145-0.257-0.011-0.145 0.1-0.279l1.071-1.083q0.1-0.1 0.257-0.1 0.067 0 0.089 0.011l2.165 0.592 2.891-2.891-5.67-3.114q-0.156-0.089-0.19-0.268-0.022-0.179 0.1-0.301l1.429-1.429q0.156-0.145 0.335-0.089l7.422 1.775 1.786-1.786q0.848-0.848 1.92-1.205t1.652 0.134z"></path>
</svg>
