<!-- Generated by IcoMoon.io -->
<svg version="1.1" xmlns="http://www.w3.org/2000/svg" width="20" height="20" viewBox="0 0 20 20">
<title>play-circle</title>
<path d="M10 1.429q2.333 0 4.302 1.15t3.119 3.119 1.15 4.302-1.15 4.302-3.119 3.119-4.302 1.15-4.302-1.15-3.119-3.119-1.15-4.302 1.15-4.302 3.119-3.119 4.302-1.15zM14.286 10.614q0.357-0.201 0.357-0.614t-0.357-0.614l-6.071-3.571q-0.346-0.212-0.714-0.011-0.357 0.212-0.357 0.625v7.143q0 0.413 0.357 0.625 0.179 0.089 0.357 0.089 0.19 0 0.357-0.1z"></path>
</svg>
