<!-- Generated by IcoMoon.io -->
<svg version="1.1" xmlns="http://www.w3.org/2000/svg" width="20" height="20" viewBox="0 0 20 20">
<title>play-circle-o</title>
<path d="M14.643 10q0 0.413-0.357 0.614l-6.071 3.571q-0.167 0.1-0.357 0.1-0.179 0-0.357-0.089-0.357-0.212-0.357-0.625v-7.143q0-0.413 0.357-0.625 0.368-0.201 0.714 0.011l6.071 3.571q0.357 0.201 0.357 0.614zM16.071 10q0-1.652-0.815-3.047t-2.21-2.21-3.047-0.815-3.047 0.815-2.21 2.21-0.815 3.047 0.815 3.047 2.21 2.21 3.047 0.815 3.047-0.815 2.21-2.21 0.815-3.047zM18.571 10q0 2.333-1.15 4.302t-3.119 3.119-4.302 1.15-4.302-1.15-3.119-3.119-1.15-4.302 1.15-4.302 3.119-3.119 4.302-1.15 4.302 1.15 3.119 3.119 1.15 4.302z"></path>
</svg>
