<!-- Generated by IcoMoon.io -->
<svg version="1.1" xmlns="http://www.w3.org/2000/svg" width="20" height="20" viewBox="0 0 20 20">
<title>plug</title>
<path d="M19.587 5.056q0.413 0.424 0.413 1.010t-0.413 1.010l-4.475 4.464 1.674 1.674-1.786 1.786q-1.819 1.819-4.347 2.081t-4.593-1.122l-4.040 4.040h-2.020v-2.020l4.040-4.040q-1.384-2.065-1.122-4.593t2.081-4.347l1.786-1.786 1.674 1.674 4.464-4.475q0.424-0.413 1.016-0.413t1.004 0.413 0.413 1.010-0.413 1.010l-4.464 4.475 2.612 2.612 4.475-4.464q0.424-0.413 1.016-0.413t1.004 0.413z"></path>
</svg>
