<!-- Generated by IcoMoon.io -->
<svg version="1.1" xmlns="http://www.w3.org/2000/svg" width="20" height="20" viewBox="0 0 20 20">
<title>plus</title>
<path d="M17.857 8.214v2.143q0 0.446-0.313 0.759t-0.759 0.313h-4.643v4.643q0 0.446-0.313 0.759t-0.759 0.313h-2.143q-0.446 0-0.759-0.313t-0.313-0.759v-4.643h-4.643q-0.446 0-0.759-0.313t-0.313-0.759v-2.143q0-0.446 0.313-0.759t0.759-0.313h4.643v-4.643q0-0.446 0.313-0.759t0.759-0.313h2.143q0.446 0 0.759 0.313t0.313 0.759v4.643h4.643q0.446 0 0.759 0.313t0.313 0.759z"></path>
</svg>
