<!-- Generated by IcoMoon.io -->
<svg version="1.1" xmlns="http://www.w3.org/2000/svg" width="20" height="20" viewBox="0 0 20 20">
<title>plus-square</title>
<path d="M15.714 10.714v-1.429q0-0.29-0.212-0.502t-0.502-0.212h-3.571v-3.571q0-0.29-0.212-0.502t-0.502-0.212h-1.429q-0.29 0-0.502 0.212t-0.212 0.502v3.571h-3.571q-0.29 0-0.502 0.212t-0.212 0.502v1.429q0 0.29 0.212 0.502t0.502 0.212h3.571v3.571q0 0.29 0.212 0.502t0.502 0.212h1.429q0.29 0 0.502-0.212t0.212-0.502v-3.571h3.571q0.29 0 0.502-0.212t0.212-0.502zM18.571 4.643v10.714q0 1.328-0.943 2.271t-2.271 0.943h-10.714q-1.328 0-2.271-0.943t-0.943-2.271v-10.714q0-1.328 0.943-2.271t2.271-0.943h10.714q1.328 0 2.271 0.943t0.943 2.271z"></path>
</svg>
