<!-- Generated by IcoMoon.io -->
<svg version="1.1" xmlns="http://www.w3.org/2000/svg" width="20" height="20" viewBox="0 0 20 20">
<title>plus-circle</title>
<path d="M15 10.714v-1.429q0-0.29-0.212-0.502t-0.502-0.212h-2.857v-2.857q0-0.29-0.212-0.502t-0.502-0.212h-1.429q-0.29 0-0.502 0.212t-0.212 0.502v2.857h-2.857q-0.29 0-0.502 0.212t-0.212 0.502v1.429q0 0.29 0.212 0.502t0.502 0.212h2.857v2.857q0 0.29 0.212 0.502t0.502 0.212h1.429q0.29 0 0.502-0.212t0.212-0.502v-2.857h2.857q0.29 0 0.502-0.212t0.212-0.502zM18.571 10q0 2.333-1.15 4.302t-3.119 3.119-4.302 1.15-4.302-1.15-3.119-3.119-1.15-4.302 1.15-4.302 3.119-3.119 4.302-1.15 4.302 1.15 3.119 3.119 1.15 4.302z"></path>
</svg>
