<!-- Generated by IcoMoon.io -->
<svg version="1.1" xmlns="http://www.w3.org/2000/svg" width="20" height="20" viewBox="0 0 20 20">
<title>podcast</title>
<path d="M12.522 13.304q0 0.96-0.19 2.199-0.346 2.4-0.614 3.493-0.246 1.004-1.696 1.004t-1.696-1.004q-0.268-1.094-0.614-3.493-0.19-1.228-0.19-2.199 0-1.875 2.5-1.875t2.5 1.875zM18.571 8.571q0 2.679-1.496 4.844t-3.906 3.125q-0.089 0.033-0.167-0.033t-0.067-0.167q0.078-0.536 0.112-0.737 0.045-0.357 0.067-0.525 0.011-0.1 0.1-0.134 1.775-0.904 2.852-2.612t1.077-3.761q0-2.009-1.016-3.689t-2.757-2.617-3.761-0.826q-1.384 0.078-2.645 0.681t-2.16 1.568-1.429 2.254-0.519 2.684q0.011 2.054 1.105 3.756t2.868 2.584q0.078 0.033 0.1 0.134 0.033 0.234 0.067 0.502 0.011 0.1 0.056 0.363t0.067 0.396q0.011 0.1-0.073 0.167t-0.173 0.022q-1.652-0.647-2.913-1.892t-1.936-2.946-0.586-3.566q0.078-1.596 0.737-3.052t1.724-2.533 2.511-1.758 3.041-0.781q1.83-0.112 3.521 0.519t2.913 1.791 1.953 2.796 0.731 3.443zM12.522 8.214q0 1.038-0.731 1.769t-1.769 0.731-1.769-0.731-0.731-1.769 0.731-1.769 1.769-0.731 1.769 0.731 0.731 1.769zM15.737 8.571q0 1.362-0.597 2.55t-1.635 1.981q-0.089 0.067-0.179 0.022t-0.112-0.156q-0.067-0.58-0.324-1.027-0.078-0.112 0.033-0.223 0.647-0.603 1.016-1.417t0.368-1.73q0-1.239-0.653-2.277t-1.758-1.579-2.366-0.407q-1.484 0.167-2.556 1.261t-1.217 2.578q-0.112 1.027 0.262 1.964t1.099 1.607q0.112 0.112 0.033 0.223-0.268 0.458-0.324 1.038-0.022 0.1-0.112 0.145t-0.179-0.022q-1.060-0.826-1.657-2.042t-0.575-2.612q0.033-1.462 0.77-2.723t1.975-2.026 2.69-0.831q1.607-0.078 2.991 0.67t2.193 2.093 0.809 2.941z"></path>
</svg>
