<!-- Generated by IcoMoon.io -->
<svg version="1.1" xmlns="http://www.w3.org/2000/svg" width="20" height="20" viewBox="0 0 20 20">
<title>power-off</title>
<path d="M18.571 10q0 1.741-0.681 3.326t-1.83 2.734-2.734 1.83-3.326 0.681-3.326-0.681-2.734-1.83-1.83-2.734-0.681-3.326q0-2.031 0.898-3.828t2.528-3.013q0.48-0.357 1.066-0.279t0.932 0.558q0.357 0.469 0.273 1.055t-0.552 0.943q-1.094 0.826-1.691 2.020t-0.597 2.545q0 1.161 0.452 2.215t1.222 1.825 1.825 1.222 2.215 0.452 2.215-0.452 1.825-1.222 1.222-1.825 0.452-2.215q0-1.35-0.597-2.545t-1.691-2.020q-0.469-0.357-0.552-0.943t0.273-1.055q0.346-0.48 0.938-0.558t1.060 0.279q1.629 1.217 2.528 3.013t0.898 3.828zM11.429 1.429v7.143q0 0.58-0.424 1.004t-1.004 0.424-1.004-0.424-0.424-1.004v-7.143q0-0.58 0.424-1.004t1.004-0.424 1.004 0.424 0.424 1.004z"></path>
</svg>
