<!-- Generated by IcoMoon.io -->
<svg version="1.1" xmlns="http://www.w3.org/2000/svg" width="20" height="20" viewBox="0 0 20 20">
<title>print</title>
<path d="M5 17.143h10v-2.857h-10v2.857zM5 10h10v-4.286h-1.786q-0.446 0-0.759-0.313t-0.313-0.759v-1.786h-7.143v7.143zM17.857 10.714q0-0.29-0.212-0.502t-0.502-0.212-0.502 0.212-0.212 0.502 0.212 0.502 0.502 0.212 0.502-0.212 0.212-0.502zM19.286 10.714v4.643q0 0.145-0.106 0.251t-0.251 0.106h-2.5v1.786q0 0.446-0.313 0.759t-0.759 0.313h-10.714q-0.446 0-0.759-0.313t-0.313-0.759v-1.786h-2.5q-0.145 0-0.251-0.106t-0.106-0.251v-4.643q0-0.882 0.631-1.512t1.512-0.631h0.714v-6.071q0-0.446 0.313-0.759t0.759-0.313h7.5q0.446 0 0.982 0.223t0.848 0.536l1.696 1.696q0.313 0.313 0.536 0.848t0.223 0.982v2.857h0.714q0.882 0 1.512 0.631t0.631 1.512z"></path>
</svg>
