<!-- Generated by IcoMoon.io -->
<svg version="1.1" xmlns="http://www.w3.org/2000/svg" width="20" height="20" viewBox="0 0 20 20">
<title>product-hunt</title>
<path d="M12.835 8.504q0 0.625-0.441 1.060t-1.066 0.435h-2.824v-3.002h2.824q0.625 0 1.066 0.441t0.441 1.066zM14.833 8.504q0-1.451-1.021-2.478t-2.483-1.027h-4.833v10h2.009v-3.002h2.824q1.451 0 2.478-1.021t1.027-2.472zM20 10q0 2.031-0.792 3.884t-2.132 3.192-3.192 2.132-3.884 0.792-3.884-0.792-3.192-2.132-2.132-3.192-0.792-3.884 0.792-3.884 2.132-3.192 3.192-2.132 3.884-0.792 3.884 0.792 3.192 2.132 2.132 3.192 0.792 3.884z"></path>
</svg>
