<!-- Generated by IcoMoon.io -->
<svg version="1.1" xmlns="http://www.w3.org/2000/svg" width="20" height="20" viewBox="0 0 20 20">
<title>puzzle-piece</title>
<path d="M19.286 12.254q0 0.904-0.497 1.507t-1.378 0.603q-0.458 0-0.865-0.195t-0.658-0.424-0.631-0.424-0.792-0.195q-1.228 0-1.228 1.384 0 0.435 0.179 1.283t0.167 1.283v0.056q-0.246 0-0.368 0.011-0.379 0.033-1.088 0.128t-1.289 0.151-1.094 0.056q-0.681 0-1.15-0.296t-0.469-0.932q0-0.413 0.195-0.792t0.424-0.631 0.424-0.658 0.195-0.865q0-0.882-0.603-1.378t-1.507-0.497q-0.938 0-1.596 0.508t-0.658 1.423q0 0.48 0.167 0.926t0.374 0.72 0.374 0.592 0.167 0.564q0 0.502-0.513 0.993-0.413 0.391-1.306 0.391-1.060 0-2.734-0.268-0.1-0.022-0.307-0.045t-0.307-0.045l-0.145-0.022q-0.011 0-0.033-0.011-0.022 0-0.022-0.011v-11.429q0.022 0.011 0.195 0.039t0.379 0.056 0.24 0.039q1.674 0.268 2.734 0.268 0.893 0 1.306-0.391 0.513-0.491 0.513-0.993 0-0.246-0.167-0.564t-0.374-0.592-0.374-0.72-0.167-0.926q0-0.915 0.658-1.423t1.607-0.508q0.893 0 1.496 0.497t0.603 1.378q0 0.458-0.195 0.865t-0.424 0.658-0.424 0.631-0.195 0.792q0 0.636 0.469 0.932t1.15 0.296q0.714 0 2.009-0.167t1.819-0.19v0.022q-0.011 0.022-0.039 0.195t-0.056 0.379-0.039 0.24q-0.268 1.674-0.268 2.734 0 0.893 0.391 1.306 0.491 0.513 0.993 0.513 0.246 0 0.564-0.167t0.592-0.374 0.72-0.374 0.926-0.167q0.915 0 1.423 0.658t0.508 1.596z"></path>
</svg>
