<!-- Generated by IcoMoon.io -->
<svg version="1.1" xmlns="http://www.w3.org/2000/svg" width="20" height="20" viewBox="0 0 20 20">
<title>px</title>
<path d="M17.065 17.266l-0.067 0.067q-1.261 1.261-2.891 1.953-1.719 0.714-3.538 0.714-1.842 0-3.538-0.714-1.652-0.703-2.891-1.953-1.261-1.25-1.953-2.879-0.469-1.15-0.603-2.109-0.045-0.313 0.536-0.402 0.569-0.089 0.625 0.223 0.011 0.011 0.011 0.045 0.201 1.004 0.513 1.775 0.558 1.384 1.696 2.522 1.094 1.094 2.522 1.696 1.473 0.625 3.080 0.625 1.596 0 3.080-0.625 1.429-0.614 2.511-1.696l0.067-0.067q0.112-0.112 0.279-0.067 0.134 0.033 0.368 0.246 0.402 0.413 0.19 0.647zM11.797 10.402l-0.737 0.737 0.703 0.703q0.234 0.234-0.078 0.547-0.19 0.19-0.357 0.19-0.112 0-0.212-0.112l-0.692-0.681-0.737 0.737q-0.056 0.056-0.167 0.056-0.167 0-0.346-0.179l-0.022-0.022q-0.201-0.167-0.201-0.324 0-0.078 0.089-0.19l0.737-0.725-0.737-0.737q-0.179-0.179 0.156-0.502 0.201-0.201 0.346-0.201 0.067 0 0.145 0.056l0.725 0.737 0.725-0.725q0.201-0.19 0.536 0.145 0.301 0.301 0.123 0.491zM17.054 11.038q0 1.317-0.513 2.545-0.502 1.172-1.406 2.076-0.893 0.893-2.087 1.406t-2.545 0.513-2.545-0.513-2.087-1.406q-0.915-0.915-1.395-2.076-0.167-0.368-0.167-0.446h-0.011q-0.1-0.301 0.48-0.491 0.558-0.179 0.67 0.134 0.413 1.105 1.083 1.864h0.011v-3.806q0.033-1.518 1.138-2.589 1.172-1.15 2.824-1.15 1.641 0 2.801 1.15t1.161 2.779q0 1.641-1.166 2.801t-2.796 1.161q-0.647 0-1.25-0.179-0.313-0.123-0.145-0.681 0.179-0.569 0.491-0.48l0.156 0.033q0.156 0.033 0.368 0.067t0.335 0.033q1.161 0 1.964-0.798t0.804-1.948q0-1.127-0.804-1.908-0.792-0.792-1.953-0.792-1.194 0-1.987 0.893-0.714 0.804-0.714 1.786v4.609q1.228 0.748 2.701 0.748 1.071 0 2.065-0.407t1.741-1.155 1.155-1.73 0.407-2.042q0-2.21-1.574-3.783-1.563-1.563-3.783-1.563-2.232 0-3.795 1.563-0.592 0.592-0.859 0.971l-0.022 0.022q-0.089 0.123-0.145 0.173t-0.24 0.106-0.43-0.033q-0.234-0.056-0.407-0.184t-0.173-0.296v-7.589q0-0.167 0.117-0.296t0.307-0.128h9.788q0.335 0 0.335 0.614t-0.335 0.614h-9.051v5.391h0.011q0.446-0.469 1.138-0.938t1.205-0.681q1.217-0.513 2.578-0.513 1.35 0 2.545 0.513t2.087 1.406q0.904 0.904 1.406 2.076 0.513 1.25 0.513 2.556zM16.708 4.554q0.1 0.089 0.1 0.201t-0.061 0.201-0.184 0.234q-0.29 0.29-0.435 0.29-0.1 0-0.179-0.078-1.183-1.016-2.31-1.484-1.429-0.625-3.080-0.625-1.484 0-2.924 0.547-0.301 0.112-0.502-0.413-0.1-0.279-0.089-0.424 0.033-0.179 0.179-0.223 1.451-0.636 3.337-0.636 1.83 0 3.527 0.714 1.529 0.647 2.623 1.696z"></path>
</svg>
