<!-- Generated by IcoMoon.io -->
<svg version="1.1" xmlns="http://www.w3.org/2000/svg" width="20" height="20" viewBox="0 0 20 20">
<title>qq</title>
<path d="M3.013 8.996q-0.089-0.212-0.089-0.58 0-0.223 0.123-0.547t0.268-0.502q-0.011-0.246 0.084-0.592t0.251-0.48q0-1.551 1.032-3.22t2.427-2.338q1.551-0.737 3.616-0.737 1.484 0 2.969 0.614 0.547 0.234 1.004 0.536t0.792 0.625 0.614 0.759 0.469 0.826 0.363 0.943 0.285 0.999 0.246 1.094l0.011 0.056q0.614 0.926 0.614 1.674 0 0.156-0.1 0.446t-0.1 0.424q0 0.011 0.017 0.039t0.039 0.056 0.022 0.039q0.859 1.272 1.345 2.394t0.485 2.327q0 0.48-0.218 1.116t-0.619 0.636q-0.1 0-0.218-0.084t-0.212-0.195-0.212-0.29-0.179-0.296-0.151-0.29-0.1-0.195q-0.011-0.011-0.033-0.011l-0.056 0.045q-0.658 1.719-1.473 2.489 0.223 0.223 0.686 0.43t0.77 0.463 0.396 0.725q-0.022 0.045-0.045 0.179t-0.078 0.201q-0.714 1.083-3.371 1.083-0.592 0-1.233-0.1t-1.094-0.223-1.166-0.335q-0.167-0.056-0.257-0.078-0.156-0.045-0.513-0.050t-0.446-0.017q-0.458 0.502-1.423 0.725t-1.881 0.223q-0.391 0-0.77-0.017t-1.038-0.1-1.127-0.229-0.831-0.446-0.363-0.714q0-0.446 0.112-0.664t0.458-0.541q0.123-0.022 0.452-0.145t0.552-0.134q0.045 0 0.156-0.022 0.022-0.022 0.022-0.045l-0.022-0.033q-0.536-0.123-1.205-1.177t-0.815-1.747l-0.056-0.033q-0.045 0-0.134 0.223-0.201 0.458-0.608 0.831t-0.865 0.419h-0.011q-0.045 0-0.067-0.050t-0.056-0.061q-0.257-0.603-0.257-1.116 0-3.069 2.813-5.201z"></path>
</svg>
