<!-- Generated by IcoMoon.io -->
<svg version="1.1" xmlns="http://www.w3.org/2000/svg" width="20" height="20" viewBox="0 0 20 20">
<title>qrcode</title>
<path d="M6.429 12.857v1.429h-1.429v-1.429h1.429zM6.429 4.286v1.429h-1.429v-1.429h1.429zM15 4.286v1.429h-1.429v-1.429h1.429zM3.571 15.703h4.286v-4.275h-4.286v4.275zM3.571 7.143h4.286v-4.286h-4.286v4.286zM12.143 7.143h4.286v-4.286h-4.286v4.286zM9.286 10v7.143h-7.143v-7.143h7.143zM15 15.714v1.429h-1.429v-1.429h1.429zM17.857 15.714v1.429h-1.429v-1.429h1.429zM17.857 10v4.286h-4.286v-1.429h-1.429v4.286h-1.429v-7.143h4.286v1.429h1.429v-1.429h1.429zM9.286 1.429v7.143h-7.143v-7.143h7.143zM17.857 1.429v7.143h-7.143v-7.143h7.143z"></path>
</svg>
