<!-- Generated by IcoMoon.io -->
<svg version="1.1" xmlns="http://www.w3.org/2000/svg" width="20" height="20" viewBox="0 0 20 20">
<title>question-circle</title>
<path d="M11.429 15.357v-2.143q0-0.156-0.1-0.257t-0.257-0.1h-2.143q-0.156 0-0.257 0.1t-0.1 0.257v2.143q0 0.156 0.1 0.257t0.257 0.1h2.143q0.156 0 0.257-0.1t0.1-0.257zM14.286 7.857q0-0.982-0.619-1.819t-1.546-1.295-1.897-0.458q-2.712 0-4.141 2.377-0.167 0.268 0.089 0.469l1.473 1.116q0.078 0.067 0.212 0.067 0.179 0 0.279-0.134 0.592-0.759 0.96-1.027 0.379-0.268 0.96-0.268 0.536 0 0.954 0.29t0.419 0.658q0 0.424-0.223 0.681t-0.759 0.502q-0.703 0.313-1.289 0.965t-0.586 1.401v0.402q0 0.156 0.1 0.257t0.257 0.1h2.143q0.156 0 0.257-0.1t0.1-0.257q0-0.212 0.24-0.552t0.608-0.552q0.357-0.201 0.547-0.318t0.513-0.391 0.497-0.536 0.313-0.675 0.14-0.904zM18.571 10q0 2.333-1.15 4.302t-3.119 3.119-4.302 1.15-4.302-1.15-3.119-3.119-1.15-4.302 1.15-4.302 3.119-3.119 4.302-1.15 4.302 1.15 3.119 3.119 1.15 4.302z"></path>
</svg>
