<!-- Generated by IcoMoon.io -->
<svg version="1.1" xmlns="http://www.w3.org/2000/svg" width="20" height="20" viewBox="0 0 20 20">
<title>question</title>
<path d="M12.143 14.018v2.679q0 0.179-0.134 0.313t-0.313 0.134h-2.679q-0.179 0-0.313-0.134t-0.134-0.313v-2.679q0-0.179 0.134-0.313t0.313-0.134h2.679q0.179 0 0.313 0.134t0.134 0.313zM15.67 7.321q0 0.603-0.173 1.127t-0.391 0.854-0.614 0.664-0.642 0.485-0.681 0.396q-0.458 0.257-0.765 0.725t-0.307 0.748q0 0.19-0.134 0.363t-0.313 0.173h-2.679q-0.167 0-0.285-0.206t-0.117-0.419v-0.502q0-0.926 0.725-1.747t1.596-1.211q0.658-0.301 0.938-0.625t0.279-0.848q0-0.469-0.519-0.826t-1.2-0.357q-0.725 0-1.205 0.324-0.391 0.279-1.194 1.283-0.145 0.179-0.346 0.179-0.134 0-0.279-0.089l-1.83-1.395q-0.145-0.112-0.173-0.279t0.061-0.313q1.786-2.969 5.179-2.969 0.893 0 1.797 0.346t1.629 0.926 1.183 1.423 0.458 1.769z"></path>
</svg>
