<!-- Generated by IcoMoon.io -->
<svg version="1.1" xmlns="http://www.w3.org/2000/svg" width="20" height="20" viewBox="0 0 20 20">
<title>question-circle-o</title>
<path d="M11.25 13.393v1.786q0 0.156-0.1 0.257t-0.257 0.1h-1.786q-0.156 0-0.257-0.1t-0.1-0.257v-1.786q0-0.156 0.1-0.257t0.257-0.1h1.786q0.156 0 0.257 0.1t0.1 0.257zM14.107 7.857q0 0.558-0.167 1.004t-0.508 0.77-0.58 0.491-0.664 0.402q-0.357 0.201-0.519 0.313t-0.29 0.268-0.128 0.324v0.357q0 0.156-0.1 0.257t-0.257 0.1h-1.786q-0.156 0-0.257-0.1t-0.1-0.257v-0.759q0-0.391 0.117-0.72t0.268-0.53 0.435-0.396 0.458-0.285 0.497-0.234q0.592-0.279 0.837-0.48t0.246-0.547q0-0.469-0.485-0.798t-1.066-0.329q-0.625 0-1.060 0.301-0.324 0.223-0.893 0.926-0.1 0.134-0.279 0.134-0.123 0-0.212-0.067l-1.205-0.915q-0.112-0.078-0.134-0.223t0.056-0.257q1.362-2.143 3.895-2.143 1.44 0 2.662 0.999t1.222 2.394zM10 2.857q-1.451 0-2.773 0.569t-2.277 1.523-1.523 2.277-0.569 2.773 0.569 2.773 1.523 2.277 2.277 1.523 2.773 0.569 2.773-0.569 2.277-1.523 1.523-2.277 0.569-2.773-0.569-2.773-1.523-2.277-2.277-1.523-2.773-0.569zM18.571 10q0 2.333-1.15 4.302t-3.119 3.119-4.302 1.15-4.302-1.15-3.119-3.119-1.15-4.302 1.15-4.302 3.119-3.119 4.302-1.15 4.302 1.15 3.119 3.119 1.15 4.302z"></path>
</svg>
