<!-- Generated by IcoMoon.io -->
<svg version="1.1" xmlns="http://www.w3.org/2000/svg" width="20" height="20" viewBox="0 0 20 20">
<title>quora</title>
<path d="M14.007 8.783q0-3.549-1.172-5.296t-3.683-1.747q-2.478 0-3.638 1.752t-1.161 5.29q0 3.527 1.161 5.262t3.638 1.735q0.826 0 1.462-0.19-0.246-0.48-0.435-0.815t-0.491-0.725-0.597-0.631-0.703-0.402-0.865-0.162q-0.513 0-0.882 0.179l-0.547-1.083q1.172-1.016 3.080-1.016 1.473 0 2.405 0.603t1.68 1.73q0.748-1.663 0.748-4.487zM18.359 15.837h1.306q0.033 0.301-0.022 0.748t-0.296 1.060-0.647 1.122-1.194 0.871-1.814 0.363q-0.792 0-1.456-0.212t-1.177-0.625-0.882-0.871-0.737-1.071q-1.083 0.301-2.288 0.301-1.674 0-3.265-0.647t-2.824-1.769-1.987-2.779-0.753-3.544q0-1.897 0.753-3.566t1.992-2.796 2.829-1.775 3.253-0.647q1.35 0 2.662 0.402t2.422 1.183 1.964 1.836 1.334 2.444 0.48 2.919q0 2.121-0.898 3.878t-2.439 2.952q0.525 0.781 1.044 1.189t1.166 0.407q0.681 0 1.049-0.419t0.424-0.954z"></path>
</svg>
