<!-- Generated by IcoMoon.io -->
<svg version="1.1" xmlns="http://www.w3.org/2000/svg" width="20" height="20" viewBox="0 0 20 20">
<title>quote-left</title>
<path d="M9.286 10.714v4.286q0 0.893-0.625 1.518t-1.518 0.625h-4.286q-0.893 0-1.518-0.625t-0.625-1.518v-7.857q0-1.161 0.452-2.215t1.222-1.825 1.825-1.222 2.215-0.452h0.714q0.29 0 0.502 0.212t0.212 0.502v1.429q0 0.29-0.212 0.502t-0.502 0.212h-0.714q-1.183 0-2.020 0.837t-0.837 2.020v0.357q0 0.446 0.313 0.759t0.759 0.313h2.5q0.893 0 1.518 0.625t0.625 1.518zM19.286 10.714v4.286q0 0.893-0.625 1.518t-1.518 0.625h-4.286q-0.893 0-1.518-0.625t-0.625-1.518v-7.857q0-1.161 0.452-2.215t1.222-1.825 1.825-1.222 2.215-0.452h0.714q0.29 0 0.502 0.212t0.212 0.502v1.429q0 0.29-0.212 0.502t-0.502 0.212h-0.714q-1.183 0-2.020 0.837t-0.837 2.020v0.357q0 0.446 0.313 0.759t0.759 0.313h2.5q0.893 0 1.518 0.625t0.625 1.518z"></path>
</svg>
