<!-- Generated by IcoMoon.io -->
<svg version="1.1" xmlns="http://www.w3.org/2000/svg" width="20" height="20" viewBox="0 0 20 20">
<title>quote-right</title>
<path d="M9.286 3.571v7.857q0 1.161-0.452 2.215t-1.222 1.825-1.825 1.222-2.215 0.452h-0.714q-0.29 0-0.502-0.212t-0.212-0.502v-1.429q0-0.29 0.212-0.502t0.502-0.212h0.714q1.183 0 2.020-0.837t0.837-2.020v-0.357q0-0.446-0.313-0.759t-0.759-0.313h-2.5q-0.893 0-1.518-0.625t-0.625-1.518v-4.286q0-0.893 0.625-1.518t1.518-0.625h4.286q0.893 0 1.518 0.625t0.625 1.518zM19.286 3.571v7.857q0 1.161-0.452 2.215t-1.222 1.825-1.825 1.222-2.215 0.452h-0.714q-0.29 0-0.502-0.212t-0.212-0.502v-1.429q0-0.29 0.212-0.502t0.502-0.212h0.714q1.183 0 2.020-0.837t0.837-2.020v-0.357q0-0.446-0.313-0.759t-0.759-0.313h-2.5q-0.893 0-1.518-0.625t-0.625-1.518v-4.286q0-0.893 0.625-1.518t1.518-0.625h4.286q0.893 0 1.518 0.625t0.625 1.518z"></path>
</svg>
