<!-- Generated by IcoMoon.io -->
<svg version="1.1" xmlns="http://www.w3.org/2000/svg" width="20" height="20" viewBox="0 0 20 20">
<title>random</title>
<path d="M7.433 5.368q-0.67 1.027-1.529 3.047-0.246-0.502-0.413-0.809t-0.452-0.709-0.569-0.631-0.703-0.391-0.91-0.162h-2.5q-0.156 0-0.257-0.1t-0.1-0.257v-2.143q0-0.156 0.1-0.257t0.257-0.1h2.5q2.79 0 4.576 2.511zM20 14.286q0 0.156-0.1 0.257l-3.571 3.571q-0.1 0.1-0.257 0.1-0.145 0-0.251-0.106t-0.106-0.251v-2.143q-0.357 0-0.949 0.006t-0.904 0.011-0.815-0.011-0.792-0.056-0.714-0.117-0.703-0.206-0.647-0.318-0.658-0.446-0.614-0.597-0.625-0.776q0.658-1.038 1.518-3.047 0.246 0.502 0.413 0.809t0.452 0.709 0.569 0.631 0.703 0.391 0.91 0.162h2.857v-2.143q0-0.156 0.1-0.257t0.257-0.1q0.134 0 0.268 0.112l3.56 3.56q0.1 0.1 0.1 0.257zM20 4.286q0 0.156-0.1 0.257l-3.571 3.571q-0.1 0.1-0.257 0.1-0.145 0-0.251-0.106t-0.106-0.251v-2.143h-2.857q-0.536 0-0.971 0.167t-0.77 0.502-0.569 0.686-0.502 0.865q-0.357 0.692-0.871 1.908-0.324 0.737-0.552 1.239t-0.603 1.172-0.714 1.116-0.826 0.926-1.004 0.765-1.189 0.469-1.429 0.184h-2.5q-0.156 0-0.257-0.1t-0.1-0.257v-2.143q0-0.156 0.1-0.257t0.257-0.1h2.5q0.536 0 0.971-0.167t0.77-0.502 0.569-0.686 0.502-0.865q0.357-0.692 0.871-1.908 0.324-0.737 0.552-1.239t0.603-1.172 0.714-1.116 0.826-0.926 1.004-0.765 1.189-0.469 1.429-0.184h2.857v-2.143q0-0.156 0.1-0.257t0.257-0.1q0.134 0 0.268 0.112l3.56 3.56q0.1 0.1 0.1 0.257z"></path>
</svg>
