<!-- Generated by IcoMoon.io -->
<svg version="1.1" xmlns="http://www.w3.org/2000/svg" width="26" height="20" viewBox="0 0 26 20">
<title>ravelry</title>
<path d="M13.471 19.342q-0.067-0.011-0.123-0.045-0.145-0.089-0.402-0.257t-0.96-0.725-1.3-1.166-1.25-1.563-0.999-1.925q-0.19-0.033-1.953-0.413 0.737 2.377 2.623 4.040t4.364 2.054zM6.317 12.578l1.875 0.313q-0.279-0.848-0.458-1.869t-0.212-1.624l-0.045-0.592q-0.938 0.915-1.35 2.5 0.056 0.725 0.19 1.272zM7.545 5.781q-0.48 0.714-0.859 1.652 0.491-0.513 0.826-0.759zM23.583 10.625q0-1.797-0.692-3.426t-1.869-2.813-2.796-1.881-3.393-0.698q-1.641 0-3.136 0.586t-2.679 1.657q-0.335 0.647-0.502 1.786 0.67-0.569 1.596-0.932t1.769-0.48 1.596-0.151 1.211 0.011l0.446 0.033q0.368 0.011 0.592 0.173t0.273 0.368 0.073 0.413-0.011 0.318q-1.406-0.123-2.539-0.006t-2.042 0.485-1.59 0.798-1.462 1.099q0.045 0.402 0.128 1.032t0.396 1.987 0.692 2.003q1.373 0.067 2.762-0.162t2.394-0.597 1.814-0.748 1.222-0.658l0.413-0.268q0.246-0.179 0.441-0.229t0.34 0.056 0.19 0.385q0.156 1.083-0.435 1.35-2.321 1.083-5.212 1.496-1.507 0.223-3.538 0.179 0.458 1.071 1.228 1.97t1.529 1.417 1.456 0.882 1.133 0.485l0.435 0.134q1.596 0.257 2.935-0.167 2.176-1.105 3.504-3.225t1.328-4.665zM24.408 10.212q-0.156 1.507-0.446 2.366-0.781 2.321-2.026 3.867t-3.555 2.829q-0.536 0.368-0.915 0.491-0.804 0.29-1.819 0.179-0.402 0.033-0.815 0.033-3.158 0-5.631-1.931t-3.298-4.933q-0.011 0-0.045-0.006t-0.056-0.006q-0.067 0.558 0.028 1.256t0.29 1.283 0.402 1.094 0.352 0.798l0.156 0.29q0.089 0.134 0.603 0.915-0.792-0.424-1.39-1.189t-0.876-1.563-0.441-1.529-0.195-1.2l-0.022-0.469q-0.056-0.022-0.374-0.14t-0.541-0.201-0.592-0.229-0.642-0.279-0.558-0.285-0.474-0.301-0.279-0.285q0.212 0.112 0.564 0.285t1.261 0.508 1.624 0.424l0.022-0.357q0.123-1.663 1.049-3.237 0.458-2.254 1.964-4.074 0.312-1.283 0.904-2.388 0.167-0.313 0.357-0.502t0.547-0.357q1.763-0.826 3.387-1.161t3.371-0.123 3.421 1.083q2.455 1.283 3.717 3.75t0.971 5.29z"></path>
</svg>
