<!-- Generated by IcoMoon.io -->
<svg version="1.1" xmlns="http://www.w3.org/2000/svg" width="20" height="20" viewBox="0 0 20 20">
<title>recycle</title>
<path d="M9.33 13.047l-0.167 4.107-0.022 0.246-4.688-0.324q-0.402-0.033-0.748-0.352t-0.525-0.731q-0.123-0.301-0.162-0.614t0.045-0.725 0.134-0.614 0.24-0.714 0.212-0.592q0.871 0.134 5.681 0.313zM5.011 6.507l2.009 4.23-1.641-1.027q-0.703 0.804-1.244 1.613t-0.809 1.395-0.441 1.055-0.206 0.703l-0.045 0.234-2.121-3.984q-0.19-0.29-0.201-0.625t0.067-0.525l0.089-0.201q0.391-0.703 1.272-2.098l-1.563-0.96zM18.75 12.277l-2.098 4.007q-0.134 0.324-0.407 0.519t-0.485 0.229l-0.201 0.045q-0.792 0.078-2.444 0.134l0.089 1.83-2.567-4.096 2.355-4.040 0.078 1.931q1.897 0.179 3.158 0.056t1.897-0.368zM9.989 1.964q-0.525 0.703-2.958 4.855l-3.538-2.087-0.212-0.134 2.511-3.973q0.223-0.346 0.67-0.502t0.893-0.112q0.268 0.022 0.541 0.134t0.469 0.234 0.463 0.368 0.402 0.385 0.402 0.441 0.357 0.391zM17.299 5.391l2.366 4.051q0.201 0.413 0.14 0.848t-0.307 0.826q-0.145 0.223-0.368 0.413t-0.424 0.313-0.541 0.246-0.525 0.179-0.575 0.156-0.513 0.134q-0.379-0.804-2.958-4.866l3.493-2.176zM15.703 2.868l1.585-0.926-2.455 4.163-4.676-0.223 1.685-0.96q-0.379-0.993-0.837-1.853t-0.843-1.378-0.72-0.893-0.525-0.519l-0.19-0.145 4.52 0.011q0.346-0.033 0.647 0.117t0.435 0.318l0.123 0.167q0.435 0.681 1.25 2.121z"></path>
</svg>
