<!-- Generated by IcoMoon.io -->
<svg version="1.1" xmlns="http://www.w3.org/2000/svg" width="20" height="20" viewBox="0 0 20 20">
<title>reddit-alien</title>
<path d="M20 9.442q0 0.647-0.329 1.177t-0.887 0.809q0.134 0.513 0.134 1.071 0 1.73-1.189 3.203t-3.242 2.327-4.464 0.854-4.459-0.854-3.237-2.327-1.189-3.203q0-0.525 0.123-1.049-0.569-0.279-0.915-0.82t-0.346-1.189q0-0.915 0.647-1.568t1.574-0.653q0.949 0 1.618 0.703 2.433-1.696 5.748-1.808l1.295-5.815q0.033-0.145 0.167-0.234t0.29-0.056l4.118 0.904q0.201-0.413 0.603-0.664t0.882-0.251q0.692 0 1.183 0.485t0.491 1.177-0.491 1.183-1.183 0.491-1.177-0.485-0.485-1.177l-3.728-0.826-1.161 5.268q3.348 0.1 5.792 1.786 0.647-0.681 1.596-0.681 0.926 0 1.574 0.653t0.647 1.568zM4.665 11.663q0 0.692 0.485 1.183t1.177 0.491 1.183-0.491 0.491-1.183-0.491-1.177-1.183-0.485q-0.681 0-1.172 0.491t-0.491 1.172zM13.705 15.625q0.123-0.123 0.123-0.29t-0.123-0.29q-0.112-0.112-0.279-0.112t-0.29 0.112q-0.458 0.469-1.35 0.692t-1.786 0.223-1.786-0.223-1.35-0.692q-0.123-0.112-0.29-0.112t-0.279 0.112q-0.123 0.112-0.123 0.285t0.123 0.296q0.48 0.48 1.323 0.759t1.367 0.329 1.016 0.050 1.016-0.050 1.367-0.329 1.323-0.759zM13.672 13.337q0.692 0 1.177-0.491t0.485-1.183q0-0.681-0.491-1.172t-1.172-0.491q-0.692 0-1.183 0.485t-0.491 1.177 0.491 1.183 1.183 0.491z"></path>
</svg>
