<!-- Generated by IcoMoon.io -->
<svg version="1.1" xmlns="http://www.w3.org/2000/svg" width="20" height="20" viewBox="0 0 20 20">
<title>reddit</title>
<path d="M12.221 13.025q0.179 0.179 0 0.346-0.692 0.692-2.221 0.692t-2.221-0.692q-0.179-0.167 0-0.346 0.067-0.067 0.167-0.067t0.167 0.067q0.536 0.547 1.886 0.547 1.339 0 1.886-0.547 0.067-0.067 0.167-0.067t0.167 0.067zM8.795 11.004q0 0.413-0.29 0.703t-0.703 0.29-0.709-0.29-0.296-0.703q0-0.424 0.296-0.714t0.709-0.29 0.703 0.296 0.29 0.709zM13.203 11.004q0 0.413-0.296 0.703t-0.709 0.29-0.703-0.29-0.29-0.703 0.29-0.709 0.703-0.296 0.709 0.29 0.296 0.714zM16.004 9.665q0-0.547-0.391-0.938t-0.949-0.391-0.96 0.402q-1.451-1.004-3.471-1.071l0.703-3.158 2.232 0.502q0 0.413 0.29 0.703t0.703 0.29 0.709-0.296 0.296-0.709-0.296-0.709-0.709-0.296q-0.603 0-0.893 0.558l-2.467-0.547q-0.212-0.056-0.279 0.179l-0.77 3.482q-2.009 0.078-3.449 1.083-0.391-0.413-0.971-0.413-0.558 0-0.949 0.391t-0.391 0.938q0 0.391 0.206 0.714t0.552 0.491q-0.067 0.301-0.067 0.625 0 1.585 1.563 2.712t3.761 1.127q2.21 0 3.772-1.127t1.563-2.712q0-0.357-0.078-0.636 0.335-0.167 0.536-0.485t0.201-0.709zM20 10q0 2.031-0.792 3.884t-2.132 3.192-3.192 2.132-3.884 0.792-3.884-0.792-3.192-2.132-2.132-3.192-0.792-3.884 0.792-3.884 2.132-3.192 3.192-2.132 3.884-0.792 3.884 0.792 3.192 2.132 2.132 3.192 0.792 3.884z"></path>
</svg>
