<!-- Generated by IcoMoon.io -->
<svg version="1.1" xmlns="http://www.w3.org/2000/svg" width="20" height="20" viewBox="0 0 20 20">
<title>reddit-square</title>
<path d="M11.908 12.6q0.145 0.145 0 0.29-0.592 0.592-1.908 0.592t-1.908-0.592q-0.145-0.145 0-0.29 0.056-0.067 0.145-0.067t0.145 0.067q0.469 0.469 1.618 0.469t1.618-0.469q0.056-0.067 0.145-0.067t0.145 0.067zM8.973 10.859q0 0.346-0.257 0.603t-0.603 0.257-0.603-0.257-0.257-0.603q0-0.357 0.251-0.608t0.608-0.251 0.608 0.251 0.251 0.608zM12.746 10.859q0 0.346-0.257 0.603t-0.603 0.257-0.603-0.257-0.257-0.603q0-0.357 0.251-0.608t0.608-0.251 0.608 0.251 0.251 0.608zM15.145 9.71q0-0.469-0.335-0.804t-0.815-0.335q-0.469 0-0.815 0.346-1.261-0.871-2.98-0.915l0.603-2.712 1.908 0.435q0.011 0.357 0.262 0.603t0.597 0.246q0.357 0 0.608-0.251t0.251-0.608-0.251-0.608-0.608-0.251q-0.536 0-0.77 0.48l-2.109-0.469q-0.19-0.056-0.234 0.145l-0.67 2.991q-1.719 0.067-2.958 0.926-0.335-0.357-0.826-0.357-0.48 0-0.815 0.335t-0.335 0.804q0 0.335 0.179 0.614t0.469 0.424q-0.056 0.279-0.056 0.536 0 1.362 1.339 2.327t3.225 0.965q1.897 0 3.237-0.965t1.339-2.327q0-0.279-0.067-0.547 0.279-0.145 0.452-0.419t0.173-0.608zM18.571 4.643v10.714q0 1.328-0.943 2.271t-2.271 0.943h-10.714q-1.328 0-2.271-0.943t-0.943-2.271v-10.714q0-1.328 0.943-2.271t2.271-0.943h10.714q1.328 0 2.271 0.943t0.943 2.271z"></path>
</svg>
