<!-- Generated by IcoMoon.io -->
<svg version="1.1" xmlns="http://www.w3.org/2000/svg" width="20" height="20" viewBox="0 0 20 20">
<title>refresh</title>
<path d="M18.292 11.786q0 0.056-0.011 0.078-0.714 2.991-2.991 4.849t-5.335 1.858q-1.629 0-3.153-0.614t-2.718-1.752l-1.44 1.44q-0.212 0.212-0.502 0.212t-0.502-0.212-0.212-0.502v-5q0-0.29 0.212-0.502t0.502-0.212h5q0.29 0 0.502 0.212t0.212 0.502-0.212 0.502l-1.529 1.529q0.792 0.737 1.797 1.138t2.087 0.402q1.496 0 2.79-0.725t2.076-1.998q0.123-0.19 0.592-1.306 0.089-0.257 0.335-0.257h2.143q0.145 0 0.251 0.106t0.106 0.251zM18.571 2.857v5q0 0.29-0.212 0.502t-0.502 0.212h-5q-0.29 0-0.502-0.212t-0.212-0.502 0.212-0.502l1.54-1.54q-1.652-1.529-3.895-1.529-1.496 0-2.79 0.725t-2.076 1.998q-0.123 0.19-0.592 1.306-0.089 0.257-0.335 0.257h-2.221q-0.145 0-0.251-0.106t-0.106-0.251v-0.078q0.725-2.991 3.013-4.849t5.357-1.858q1.629 0 3.17 0.619t2.734 1.747l1.451-1.44q0.212-0.212 0.502-0.212t0.502 0.212 0.212 0.502z"></path>
</svg>
