<!-- Generated by IcoMoon.io -->
<svg version="1.1" xmlns="http://www.w3.org/2000/svg" width="20" height="20" viewBox="0 0 20 20">
<title>registered</title>
<path d="M11.629 7.846q0-0.982-0.67-1.35-0.368-0.201-1.306-0.201h-1.373v3.136h1.808q0.737 0 1.138-0.413t0.402-1.172zM12.21 11.027l2.288 4.163q0.089 0.19-0.011 0.346-0.089 0.179-0.301 0.179h-1.696q-0.223 0-0.313-0.19l-2.165-4.074h-1.73v3.906q0 0.156-0.1 0.257t-0.257 0.1h-1.496q-0.156 0-0.257-0.1t-0.1-0.257v-10.714q0-0.156 0.1-0.257t0.257-0.1h3.281q1.429 0 2.121 0.268 0.949 0.346 1.496 1.217t0.547 2.009q0 1.027-0.474 1.847t-1.289 1.222q0.067 0.112 0.1 0.179zM10 1.786q-1.674 0-3.192 0.653t-2.617 1.752-1.752 2.617-0.653 3.192 0.653 3.192 1.752 2.617 2.617 1.752 3.192 0.653 3.192-0.653 2.617-1.752 1.752-2.617 0.653-3.192-0.653-3.192-1.752-2.617-2.617-1.752-3.192-0.653zM20 10q0 2.031-0.792 3.884t-2.132 3.192-3.192 2.132-3.884 0.792-3.884-0.792-3.192-2.132-2.132-3.192-0.792-3.884 0.792-3.884 2.132-3.192 3.192-2.132 3.884-0.792 3.884 0.792 3.192 2.132 2.132 3.192 0.792 3.884z"></path>
</svg>
