<!-- Generated by IcoMoon.io -->
<svg version="1.1" xmlns="http://www.w3.org/2000/svg" width="20" height="20" viewBox="0 0 20 20">
<title>remove</title>
<path d="M16.629 14.754q0 0.446-0.313 0.759l-1.518 1.518q-0.313 0.313-0.759 0.313t-0.759-0.313l-3.281-3.281-3.281 3.281q-0.313 0.313-0.759 0.313t-0.759-0.313l-1.518-1.518q-0.313-0.313-0.313-0.759t0.313-0.759l3.281-3.281-3.281-3.281q-0.313-0.313-0.313-0.759t0.313-0.759l1.518-1.518q0.313-0.313 0.759-0.313t0.759 0.313l3.281 3.281 3.281-3.281q0.313-0.313 0.759-0.313t0.759 0.313l1.518 1.518q0.313 0.313 0.313 0.759t-0.313 0.759l-3.281 3.281 3.281 3.281q0.313 0.313 0.313 0.759z"></path>
</svg>
