<!-- Generated by IcoMoon.io -->
<svg version="1.1" xmlns="http://www.w3.org/2000/svg" width="20" height="20" viewBox="0 0 20 20">
<title>renren</title>
<path d="M14.074 17.522q-1.908 1.049-4.107 1.049-2.188 0-4.096-1.049 1.54-0.971 2.628-2.355t1.468-2.991q0.391 1.607 1.479 2.991t2.628 2.355zM8.549 1.585v5.413q0 2.813-1.412 5.128t-3.689 3.421q-2.020-2.4-2.020-5.525 0-2.087 0.932-3.901t2.561-3.008 3.627-1.529zM18.571 10.022q0 3.125-2.020 5.525-2.277-1.105-3.689-3.421t-1.412-5.128v-5.413q1.998 0.335 3.627 1.529t2.561 3.008 0.932 3.901z"></path>
</svg>
