<!-- Generated by IcoMoon.io -->
<svg version="1.1" xmlns="http://www.w3.org/2000/svg" width="20" height="20" viewBox="0 0 20 20">
<title>repeat</title>
<path d="M18.571 2.857v5q0 0.29-0.212 0.502t-0.502 0.212h-5q-0.469 0-0.658-0.446-0.19-0.435 0.156-0.77l1.54-1.54q-1.652-1.529-3.895-1.529-1.161 0-2.215 0.452t-1.825 1.222-1.222 1.825-0.452 2.215 0.452 2.215 1.222 1.825 1.825 1.222 2.215 0.452q1.328 0 2.511-0.58t1.998-1.641q0.078-0.112 0.257-0.134 0.167 0 0.279 0.1l1.529 1.54q0.1 0.089 0.106 0.229t-0.084 0.251q-1.217 1.473-2.946 2.282t-3.65 0.809q-1.741 0-3.326-0.681t-2.734-1.83-1.83-2.734-0.681-3.326 0.681-3.326 1.83-2.734 2.734-1.83 3.326-0.681q1.641 0 3.175 0.619t2.729 1.747l1.451-1.44q0.324-0.346 0.781-0.156 0.435 0.19 0.435 0.658z"></path>
</svg>
