<!-- Generated by IcoMoon.io -->
<svg version="1.1" xmlns="http://www.w3.org/2000/svg" width="20" height="20" viewBox="0 0 20 20">
<title>resistance</title>
<path d="M0.212 9.754q0.089-2.422 1.295-4.531t3.404-3.549h0.056q0 0.011-0.011 0.033-0.089 0.089-0.313 0.374t-0.58 0.854-0.67 1.233-0.497 1.512-0.156 1.68 0.435 1.758 1.211 1.719q0.558 0.558 1.138 0.776t1.010 0.128 0.776-0.262 0.525-0.363l0.179-0.179q0.435-0.569 0.592-1.3t0.073-1.367-0.234-1.194-0.296-0.893l-0.156-0.324q-0.112-0.279-0.34-0.552t-0.48-0.458-0.485-0.329-0.391-0.212l-0.145-0.067 1.161-1.283q0.435 0.19 0.871 0.58t0.658 0.681l0.212 0.301q0.011-0.536-0.206-1.155t-0.452-0.977l-0.223-0.346 1.797-2.042 1.786 2.020q-0.368 0.513-0.586 1.144t-0.251 1.010l-0.045 0.368q0.246-0.413 0.686-0.809t0.753-0.586l0.313-0.19 1.15 1.283q-0.491 0.156-0.949 0.558t-0.67 0.725l-0.212 0.324q-0.346 0.625-0.536 1.49t-0.078 1.897 0.636 1.747q0.368 0.502 0.865 0.675t0.949 0.061 0.848-0.296 0.642-0.374l0.234-0.179q0.67-0.592 1.077-1.283t0.541-1.356 0.112-1.356-0.201-1.317-0.413-1.2-0.508-1.038-0.502-0.804-0.385-0.53l-0.145-0.19q-0.156-0.145-0.078-0.145l0.112 0.033q0.446 0.324 0.698 0.513t0.692 0.558 0.714 0.647 0.653 0.725 0.619 0.859 0.508 0.982 0.424 1.15 0.262 1.306 0.117 1.518q0.033 2.891-1.205 5.19t-3.482 3.583-5.089 1.283q-2.065 0-3.917-0.826t-3.164-2.21-2.054-3.27-0.675-3.94z"></path>
</svg>
