<!-- Generated by IcoMoon.io -->
<svg version="1.1" xmlns="http://www.w3.org/2000/svg" width="23" height="20" viewBox="0 0 23 20">
<title>retweet</title>
<path d="M15 16.786q0 0.145-0.106 0.251t-0.251 0.106h-10.714q-0.089 0-0.151-0.022t-0.1-0.078-0.061-0.089-0.033-0.128-0.011-0.128v-6.696h-2.143q-0.29 0-0.502-0.212t-0.212-0.502q0-0.268 0.167-0.458l3.571-4.286q0.212-0.246 0.547-0.246t0.547 0.246l3.571 4.286q0.167 0.19 0.167 0.458 0 0.29-0.212 0.502t-0.502 0.212h-2.143v4.286h6.429q0.179 0 0.279 0.123l1.786 2.143q0.078 0.112 0.078 0.234zM22.143 12.143q0 0.268-0.167 0.458l-3.571 4.286q-0.223 0.257-0.547 0.257t-0.547-0.257l-3.571-4.286q-0.167-0.19-0.167-0.458 0-0.29 0.212-0.502t0.502-0.212h2.143v-4.286h-6.429q-0.179 0-0.279-0.134l-1.786-2.143q-0.078-0.1-0.078-0.223 0-0.145 0.106-0.251t0.251-0.106h10.714q0.089 0 0.151 0.022t0.1 0.078 0.061 0.089 0.033 0.128 0.011 0.128v6.696h2.143q0.29 0 0.502 0.212t0.212 0.502z"></path>
</svg>
