<!-- Generated by IcoMoon.io -->
<svg version="1.1" xmlns="http://www.w3.org/2000/svg" width="20" height="20" viewBox="0 0 20 20">
<title>rmb</title>
<path d="M10.999 17.143h-1.92q-0.145 0-0.251-0.1t-0.106-0.257v-3.683h-3.214q-0.145 0-0.251-0.1t-0.106-0.257v-1.15q0-0.145 0.106-0.251t0.251-0.106h3.214v-0.949h-3.214q-0.145 0-0.251-0.1t-0.106-0.257v-1.161q0-0.145 0.106-0.251t0.251-0.106h2.388l-3.583-6.451q-0.089-0.179 0-0.357 0.112-0.179 0.313-0.179h2.165q0.212 0 0.324 0.201l2.4 4.743q0.212 0.424 0.625 1.395 0.112-0.268 0.34-0.759t0.307-0.681l2.132-4.688q0.089-0.212 0.324-0.212h2.132q0.19 0 0.301 0.179 0.1 0.156 0.011 0.346l-3.493 6.462h2.4q0.145 0 0.251 0.106t0.106 0.251v1.161q0 0.156-0.106 0.257t-0.251 0.1h-3.237v0.949h3.237q0.145 0 0.251 0.106t0.106 0.251v1.15q0 0.156-0.106 0.257t-0.251 0.1h-3.237v3.683q0 0.145-0.106 0.251t-0.251 0.106z"></path>
</svg>
