<!-- Generated by IcoMoon.io -->
<svg version="1.1" xmlns="http://www.w3.org/2000/svg" width="23" height="20" viewBox="0 0 23 20">
<title>road</title>
<path d="M13.114 11.116v-0.045l-0.268-3.571q-0.011-0.145-0.123-0.251t-0.257-0.106h-2.076q-0.145 0-0.257 0.106t-0.123 0.251l-0.268 3.571v0.045q-0.011 0.134 0.089 0.223t0.234 0.089h2.723q0.134 0 0.234-0.089t0.089-0.223zM21.585 16.328q0 0.815-0.513 0.815h-7.857q0.145 0 0.246-0.106t0.089-0.251l-0.223-2.857q-0.011-0.145-0.123-0.251t-0.257-0.106h-3.036q-0.145 0-0.257 0.106t-0.123 0.251l-0.223 2.857q-0.011 0.145 0.089 0.251t0.246 0.106h-7.857q-0.513 0-0.513-0.815 0-0.603 0.29-1.295l4.654-11.652q0.089-0.212 0.29-0.368t0.424-0.156h3.783q-0.145 0-0.257 0.106t-0.123 0.251l-0.167 2.143q-0.011 0.156 0.089 0.257t0.246 0.1h1.853q0.145 0 0.246-0.1t0.089-0.257l-0.167-2.143q-0.011-0.145-0.123-0.251t-0.257-0.106h3.783q0.223 0 0.424 0.156t0.29 0.368l4.654 11.652q0.29 0.692 0.29 1.295z"></path>
</svg>
