<!-- Generated by IcoMoon.io -->
<svg version="1.1" xmlns="http://www.w3.org/2000/svg" width="20" height="20" viewBox="0 0 20 20">
<title>rocket</title>
<path d="M16.786 5q0-0.446-0.313-0.759t-0.759-0.312-0.759 0.312-0.313 0.759 0.313 0.759 0.759 0.313 0.759-0.313 0.313-0.759zM19.286 1.786q0 2.779-0.843 4.805t-2.829 4.023q-0.904 0.893-2.176 1.964l-0.223 4.23q-0.022 0.179-0.179 0.29l-4.286 2.5q-0.078 0.045-0.179 0.045-0.134 0-0.257-0.1l-0.714-0.714q-0.145-0.156-0.089-0.357l0.949-3.080-3.136-3.136-3.080 0.949q-0.033 0.011-0.1 0.011-0.156 0-0.257-0.1l-0.714-0.714q-0.19-0.212-0.056-0.435l2.5-4.286q0.112-0.156 0.29-0.179l4.23-0.223q1.071-1.272 1.964-2.176 2.098-2.087 3.996-2.879t4.81-0.792q0.156 0 0.268 0.106t0.112 0.251z"></path>
</svg>
