<!-- Generated by IcoMoon.io -->
<svg version="1.1" xmlns="http://www.w3.org/2000/svg" width="20" height="20" viewBox="0 0 20 20">
<title>rotate-left</title>
<path d="M18.571 10q0 1.741-0.681 3.326t-1.83 2.734-2.734 1.83-3.326 0.681q-1.92 0-3.65-0.809t-2.946-2.282q-0.078-0.112-0.073-0.251t0.095-0.229l1.529-1.54q0.112-0.1 0.279-0.1 0.179 0.022 0.257 0.134 0.815 1.060 1.998 1.641t2.511 0.58q1.161 0 2.215-0.452t1.825-1.222 1.222-1.825 0.452-2.215-0.452-2.215-1.222-1.825-1.825-1.222-2.215-0.452q-1.094 0-2.098 0.396t-1.786 1.133l1.529 1.54q0.346 0.335 0.156 0.77-0.19 0.446-0.658 0.446h-5q-0.29 0-0.502-0.212t-0.212-0.502v-5q0-0.469 0.446-0.658 0.435-0.19 0.77 0.156l1.451 1.44q1.194-1.127 2.729-1.747t3.175-0.619q1.741 0 3.326 0.681t2.734 1.83 1.83 2.734 0.681 3.326z"></path>
</svg>
