<!-- Generated by IcoMoon.io -->
<svg version="1.1" xmlns="http://www.w3.org/2000/svg" width="20" height="20" viewBox="0 0 20 20">
<title>rss-square</title>
<path d="M7.143 14.286q0-0.592-0.419-1.010t-1.010-0.419-1.010 0.419-0.419 1.010 0.419 1.010 1.010 0.419 1.010-0.419 0.419-1.010zM11.060 15.335q-0.145-2.6-1.97-4.425t-4.425-1.97q-0.156-0.011-0.268 0.1t-0.112 0.257v1.429q0 0.145 0.095 0.246t0.24 0.112q1.719 0.123 2.946 1.35t1.35 2.946q0.011 0.145 0.112 0.24t0.246 0.095h1.429q0.145 0 0.257-0.112t0.1-0.268zM15.346 15.346q-0.056-1.719-0.625-3.32t-1.557-2.902-2.288-2.288-2.902-1.557-3.32-0.625q-0.156-0.011-0.257 0.1-0.112 0.112-0.112 0.257v1.429q0 0.145 0.1 0.246t0.246 0.112q2.277 0.078 4.219 1.244t3.108 3.108 1.244 4.219q0.011 0.145 0.112 0.246t0.246 0.1h1.429q0.145 0 0.257-0.112 0.123-0.1 0.1-0.257zM18.571 4.643v10.714q0 1.328-0.943 2.271t-2.271 0.943h-10.714q-1.328 0-2.271-0.943t-0.943-2.271v-10.714q0-1.328 0.943-2.271t2.271-0.943h10.714q1.328 0 2.271 0.943t0.943 2.271z"></path>
</svg>
