<!-- Generated by IcoMoon.io -->
<svg version="1.1" xmlns="http://www.w3.org/2000/svg" width="20" height="20" viewBox="0 0 20 20">
<title>ruble</title>
<path d="M14.498 6.306q0-1.116-0.725-1.808t-1.908-0.692h-3.571v5h3.571q1.183 0 1.908-0.692t0.725-1.808zM17.143 6.306q0 2.154-1.412 3.516t-3.644 1.362h-3.795v1.317h5.636q0.156 0 0.257 0.1t0.1 0.257v1.429q0 0.156-0.1 0.257t-0.257 0.1h-5.636v2.143q0 0.156-0.106 0.257t-0.251 0.1h-1.864q-0.156 0-0.257-0.1t-0.1-0.257v-2.143h-2.5q-0.156 0-0.257-0.1t-0.1-0.257v-1.429q0-0.156 0.1-0.257t0.257-0.1h2.5v-1.317h-2.5q-0.156 0-0.257-0.1t-0.1-0.257v-1.663q0-0.145 0.1-0.251t0.257-0.106h2.5v-7.020q0-0.156 0.1-0.257t0.257-0.1h6.016q2.232 0 3.644 1.362t1.412 3.516z"></path>
</svg>
