<!-- Generated by IcoMoon.io -->
<svg version="1.1" xmlns="http://www.w3.org/2000/svg" width="20" height="20" viewBox="0 0 20 20">
<title>rupee</title>
<path d="M15.011 5.246v1.138q0 0.156-0.1 0.257t-0.257 0.1h-1.875q-0.257 1.607-1.44 2.612t-3.080 1.228q1.864 1.987 5.123 5.982 0.156 0.179 0.045 0.379-0.089 0.201-0.324 0.201h-2.176q-0.179 0-0.279-0.134-3.415-4.096-5.558-6.373-0.1-0.1-0.1-0.246v-1.417q0-0.145 0.106-0.251t0.251-0.106h1.25q1.473 0 2.372-0.48t1.144-1.395h-4.766q-0.156 0-0.257-0.1t-0.1-0.257v-1.138q0-0.156 0.1-0.257t0.257-0.1h4.609q-0.636-1.261-2.991-1.261h-1.618q-0.145 0-0.251-0.106t-0.106-0.251v-1.484q0-0.156 0.1-0.257t0.257-0.1h9.286q0.156 0 0.257 0.1t0.1 0.257v1.138q0 0.156-0.1 0.257t-0.257 0.1h-2.6q0.525 0.681 0.714 1.607h1.908q0.156 0 0.257 0.1t0.1 0.257z"></path>
</svg>
