<!-- Generated by IcoMoon.io -->
<svg version="1.1" xmlns="http://www.w3.org/2000/svg" width="20" height="20" viewBox="0 0 20 20">
<title>safari</title>
<path d="M10.592 9.967q0 0.29-0.184 0.502t-0.463 0.212q-0.29 0-0.502-0.184t-0.212-0.463q0-0.29 0.19-0.502t0.469-0.212 0.491 0.184 0.212 0.463zM10.759 10.614l3.906-6.484q-0.1 0.089-0.753 0.698t-1.401 1.3-1.523 1.417-1.306 1.233-0.564 0.575l-3.895 6.473q0.078-0.078 0.748-0.692t1.406-1.3 1.518-1.417 1.306-1.239 0.558-0.564zM17.98 10q0 2.243-1.161 4.141-0.033-0.022-0.19-0.123t-0.296-0.184-0.184-0.084q-0.145 0-0.145 0.145 0 0.112 0.658 0.491-0.826 1.25-2.059 2.126t-2.695 1.233l-0.179-0.748q-0.011-0.112-0.167-0.112-0.056 0-0.089 0.061t-0.022 0.106l0.179 0.759q-0.804 0.167-1.629 0.167-2.221 0-4.152-1.172 0.011-0.022 0.145-0.229t0.24-0.374 0.106-0.212q0-0.145-0.145-0.145-0.067 0-0.19 0.162t-0.251 0.385-0.151 0.257q-1.261-0.837-2.143-2.093t-1.228-2.729l0.77-0.167q0.112-0.033 0.112-0.167 0-0.056-0.061-0.089t-0.117-0.022l-0.759 0.167q-0.156-0.804-0.156-1.551 0-2.299 1.217-4.23 0.022 0.011 0.206 0.134t0.335 0.212 0.195 0.089q0.145 0 0.145-0.134 0-0.067-0.14-0.173t-0.363-0.24l-0.223-0.134q0.859-1.25 2.109-2.109t2.723-1.194l0.167 0.748q0.022 0.112 0.167 0.112 0.056 0 0.089-0.061t0.022-0.117l-0.167-0.737q0.792-0.145 1.496-0.145 2.277 0 4.23 1.217-0.435 0.625-0.435 0.725 0 0.145 0.134 0.145 0.123 0 0.536-0.714 1.239 0.837 2.093 2.076t1.2 2.69l-0.625 0.134q-0.112 0.022-0.112 0.179 0 0.056 0.061 0.089t0.106 0.022l0.636-0.145q0.156 0.804 0.156 1.563zM18.929 10q0-1.819-0.709-3.471t-1.903-2.846-2.846-1.903-3.471-0.709-3.471 0.709-2.846 1.903-1.903 2.846-0.709 3.471 0.709 3.471 1.903 2.846 2.846 1.903 3.471 0.709 3.471-0.709 2.846-1.903 1.903-2.846 0.709-3.471zM20 10q0 2.031-0.792 3.884t-2.132 3.192-3.192 2.132-3.884 0.792-3.884-0.792-3.192-2.132-2.132-3.192-0.792-3.884 0.792-3.884 2.132-3.192 3.192-2.132 3.884-0.792 3.884 0.792 3.192 2.132 2.132 3.192 0.792 3.884z"></path>
</svg>
