<!-- Generated by IcoMoon.io -->
<svg version="1.1" xmlns="http://www.w3.org/2000/svg" width="20" height="20" viewBox="0 0 20 20">
<title>scissors</title>
<path d="M10.714 10q0.29 0 0.502 0.212t0.212 0.502-0.212 0.502-0.502 0.212-0.502-0.212-0.212-0.502 0.212-0.502 0.502-0.212zM14.063 10.714l5.658 4.442q0.313 0.223 0.279 0.625-0.056 0.391-0.391 0.569l-1.429 0.714q-0.145 0.078-0.324 0.078-0.19 0-0.346-0.089l-7.701-4.319-1.228 0.737q-0.089 0.045-0.134 0.056 0.156 0.547 0.112 1.083-0.078 0.859-0.625 1.646t-1.473 1.378q-1.473 0.938-3.092 0.938-1.518 0-2.478-0.871-1.004-0.938-0.882-2.31 0.078-0.848 0.625-1.641t1.462-1.384q1.473-0.938 3.103-0.938 0.926 0 1.685 0.346 0.1-0.145 0.246-0.246l1.362-0.815-1.362-0.815q-0.145-0.1-0.246-0.246-0.759 0.346-1.685 0.346-1.629 0-3.103-0.938-0.915-0.592-1.462-1.384t-0.625-1.641q-0.056-0.658 0.173-1.261t0.709-1.038q0.949-0.882 2.478-0.882 1.618 0 3.092 0.938 0.926 0.58 1.473 1.373t0.625 1.652q0.045 0.536-0.112 1.083 0.045 0.011 0.134 0.056l1.228 0.737 7.701-4.319q0.156-0.089 0.346-0.089 0.179 0 0.324 0.078l1.429 0.714q0.335 0.179 0.391 0.569 0.033 0.402-0.279 0.625zM6.462 7.813q0.513-0.469 0.234-1.205t-1.183-1.306q-1.027-0.658-2.143-0.658-0.826 0-1.261 0.402-0.513 0.469-0.234 1.205t1.183 1.306q1.027 0.658 2.143 0.658 0.826 0 1.261-0.402zM5.513 16.127q0.904-0.569 1.183-1.306t-0.234-1.205q-0.435-0.402-1.261-0.402-1.116 0-2.143 0.658-0.904 0.569-1.183 1.306t0.234 1.205q0.435 0.402 1.261 0.402 1.116 0 2.143-0.658zM7.5 9.286l1.071 0.647v-0.123q0-0.402 0.368-0.625l0.156-0.089-0.882-0.525-0.29 0.29q-0.033 0.033-0.112 0.123t-0.134 0.134q-0.022 0.022-0.045 0.039t-0.033 0.028zM10 11.786l1.071 0.357 8.214-6.429-1.429-0.714-8.571 4.81v1.261l-1.786 1.071 0.1 0.089q0.022 0.022 0.078 0.067 0.045 0.045 0.123 0.134t0.123 0.134l0.29 0.29zM17.857 16.429l1.429-0.714-5.804-4.554-1.975 1.54q-0.022 0.033-0.145 0.078z"></path>
</svg>
