<!-- Generated by IcoMoon.io -->
<svg version="1.1" xmlns="http://www.w3.org/2000/svg" width="20" height="20" viewBox="0 0 20 20">
<title>scribd</title>
<path d="M18.17 17.288q0 0.993-0.703 1.702t-1.708 0.709-1.713-0.709-0.709-1.702q0-1.004 0.709-1.713t1.713-0.709 1.708 0.709 0.703 1.713zM15.569 14.152q-1.283 0.167-2.148 1.144t-0.865 2.294q0 0.826 0.368 1.54-1.629 0.871-4.23 0.871-1.217 0-2.243-0.234t-1.713-0.608-1.233-0.854-0.848-0.949-0.497-0.926-0.262-0.742-0.067-0.441q0-0.212 0.050-0.474t0.206-0.625 0.407-0.647 0.714-0.485 1.055-0.201 1.049 0.195 0.703 0.458 0.396 0.592 0.195 0.547 0.045 0.374q0 0.379-0.257 0.904 0.313 0.301 0.915 0.469t1.038 0.19l0.446 0.011q1.283 0 2.121-0.569t0.837-1.484q0-0.29-0.1-0.541t-0.352-0.497-0.552-0.458-0.826-0.491-1.044-0.53-1.334-0.631q-0.313-0.145-0.48-0.223-1.295-0.614-2.087-1.116t-1.367-1.138-0.804-1.401-0.229-1.814q0-0.871 0.229-1.674t0.737-1.535 1.256-1.272 1.858-0.859 2.472-0.318q1.339 0 2.455 0.29t1.836 0.748 1.222 1.049 0.714 1.177 0.212 1.155q0 0.513-0.167 0.921t-0.407 0.647-0.541 0.402-0.547 0.218-0.435 0.056h-0.446l-0.435-0.056-0.491-0.156-0.458-0.313-0.413-0.513-0.268-0.787-0.112-1.088q-0.167-0.179-0.658-0.285t-0.904-0.117l-0.413-0.011q-0.759 0-1.311 0.346t-0.787 0.781-0.234 0.848q0 0.268 0.056 0.48t0.268 0.513 0.592 0.569 1.083 0.597 1.674 0.653q0.848 0.279 1.546 0.597t1.217 0.619 0.926 0.658 0.675 0.664 0.458 0.698 0.296 0.692 0.162 0.709 0.067 0.692 0.011 0.698z"></path>
</svg>
