<!-- Generated by IcoMoon.io -->
<svg version="1.1" xmlns="http://www.w3.org/2000/svg" width="20" height="20" viewBox="0 0 20 20">
<title>search-minus</title>
<path d="M12.143 8.929v0.714q0 0.145-0.106 0.251t-0.251 0.106h-6.429q-0.145 0-0.251-0.106t-0.106-0.251v-0.714q0-0.145 0.106-0.251t0.251-0.106h6.429q0.145 0 0.251 0.106t0.106 0.251zM13.571 9.286q0-2.065-1.468-3.532t-3.532-1.468-3.532 1.468-1.468 3.532 1.468 3.532 3.532 1.468 3.532-1.468 1.468-3.532zM19.286 18.571q0 0.592-0.419 1.010t-1.010 0.419q-0.603 0-1.004-0.424l-3.828-3.817q-1.998 1.384-4.453 1.384-1.596 0-3.052-0.619t-2.511-1.674-1.674-2.511-0.619-3.052 0.619-3.052 1.674-2.511 2.511-1.674 3.052-0.619 3.052 0.619 2.511 1.674 1.674 2.511 0.619 3.052q0 2.455-1.384 4.453l3.828 3.828q0.413 0.413 0.413 1.004z"></path>
</svg>
