<!-- Generated by IcoMoon.io -->
<svg version="1.1" xmlns="http://www.w3.org/2000/svg" width="20" height="20" viewBox="0 0 20 20">
<title>search</title>
<path d="M13.571 9.286q0-2.065-1.468-3.532t-3.532-1.468-3.532 1.468-1.468 3.532 1.468 3.532 3.532 1.468 3.532-1.468 1.468-3.532zM19.286 18.571q0 0.58-0.424 1.004t-1.004 0.424q-0.603 0-1.004-0.424l-3.828-3.817q-1.998 1.384-4.453 1.384-1.596 0-3.052-0.619t-2.511-1.674-1.674-2.511-0.619-3.052 0.619-3.052 1.674-2.511 2.511-1.674 3.052-0.619 3.052 0.619 2.511 1.674 1.674 2.511 0.619 3.052q0 2.455-1.384 4.453l3.828 3.828q0.413 0.413 0.413 1.004z"></path>
</svg>
