<!-- Generated by IcoMoon.io -->
<svg version="1.1" xmlns="http://www.w3.org/2000/svg" width="23" height="20" viewBox="0 0 23 20">
<title>sellsy</title>
<path d="M16.741 15.301v-8.181q0-0.234-0.167-0.402t-0.391-0.167h-1.038q-0.223 0-0.391 0.167t-0.167 0.402v8.181q0 0.223 0.167 0.391t0.391 0.167h1.038q0.223 0 0.391-0.167t0.167-0.391zM13.571 15.301v-5.926q0-0.223-0.167-0.391t-0.391-0.167h-1.127q-0.223 0-0.391 0.167t-0.167 0.391v5.926q0 0.223 0.167 0.391t0.391 0.167h1.127q0.223 0 0.391-0.167t0.167-0.391zM10.313 15.301v-4.788q0-0.223-0.167-0.391t-0.391-0.167h-1.127q-0.223 0-0.391 0.167t-0.167 0.391v4.788q0 0.223 0.167 0.391t0.391 0.167h1.127q0.223 0 0.391-0.167t0.167-0.391zM7.054 15.301v-4.040q0-0.223-0.167-0.391t-0.391-0.167h-1.127q-0.223 0-0.391 0.167t-0.167 0.391v4.040q0 0.223 0.167 0.391t0.391 0.167h1.127q0.223 0 0.391-0.167t0.167-0.391zM22.857 13.672q0 1.853-1.317 3.17t-3.17 1.317h-13.884q-1.853 0-3.17-1.317t-1.317-3.17q0-1.295 0.703-2.394t1.875-1.657q-0.112-0.379-0.112-0.815 0-1.261 0.898-2.16t2.16-0.898q1.138 0 2.009 0.748 0.502-2.042 2.165-3.348t3.772-1.306q1.663 0 3.069 0.82t2.227 2.227 0.82 3.069q0 0.737-0.156 1.362 1.507 0.368 2.467 1.59t0.96 2.762z"></path>
</svg>
