<!-- Generated by IcoMoon.io -->
<svg version="1.1" xmlns="http://www.w3.org/2000/svg" width="20" height="20" viewBox="0 0 20 20">
<title>server</title>
<path d="M1.429 15.714h11.429v-1.429h-11.429v1.429zM1.429 10h11.429v-1.429h-11.429v1.429zM18.929 15q0-0.446-0.313-0.759t-0.759-0.313-0.759 0.313-0.313 0.759 0.313 0.759 0.759 0.313 0.759-0.313 0.313-0.759zM1.429 4.286h11.429v-1.429h-11.429v1.429zM18.929 9.286q0-0.446-0.313-0.759t-0.759-0.313-0.759 0.313-0.313 0.759 0.313 0.759 0.759 0.313 0.759-0.313 0.313-0.759zM18.929 3.571q0-0.446-0.313-0.759t-0.759-0.313-0.759 0.313-0.313 0.759 0.313 0.759 0.759 0.313 0.759-0.313 0.313-0.759zM20 12.857v4.286h-20v-4.286h20zM20 7.143v4.286h-20v-4.286h20zM20 1.429v4.286h-20v-4.286h20z"></path>
</svg>
