<!-- Generated by IcoMoon.io -->
<svg version="1.1" xmlns="http://www.w3.org/2000/svg" width="20" height="20" viewBox="0 0 20 20">
<title>share-alt-square</title>
<path d="M15.714 13.337q0-0.982-0.698-1.685t-1.68-0.703q-0.938 0-1.618 0.647l-2.69-1.339q0.022-0.179 0.022-0.257t-0.022-0.257l2.69-1.339q0.681 0.647 1.618 0.647 0.982 0 1.68-0.703t0.698-1.685-0.698-1.68-1.68-0.698-1.685 0.698-0.703 1.68q0 0.078 0.022 0.257l-2.69 1.339q-0.692-0.636-1.618-0.636-0.982 0-1.68 0.698t-0.698 1.68 0.698 1.68 1.68 0.698q0.926 0 1.618-0.636l2.69 1.339q-0.022 0.179-0.022 0.257 0 0.982 0.703 1.68t1.685 0.698 1.68-0.698 0.698-1.68zM18.571 4.643v10.714q0 1.328-0.943 2.271t-2.271 0.943h-10.714q-1.328 0-2.271-0.943t-0.943-2.271v-10.714q0-1.328 0.943-2.271t2.271-0.943h10.714q1.328 0 2.271 0.943t0.943 2.271z"></path>
</svg>
