<!-- Generated by IcoMoon.io -->
<svg version="1.1" xmlns="http://www.w3.org/2000/svg" width="20" height="20" viewBox="0 0 20 20">
<title>share-alt</title>
<path d="M15 11.429q1.484 0 2.528 1.044t1.044 2.528-1.044 2.528-2.528 1.044-2.528-1.044-1.044-2.528q0-0.134 0.022-0.379l-4.018-2.009q-1.027 0.96-2.433 0.96-1.484 0-2.528-1.044t-1.044-2.528 1.044-2.528 2.528-1.044q1.406 0 2.433 0.96l4.018-2.009q-0.022-0.246-0.022-0.379 0-1.484 1.044-2.528t2.528-1.044 2.528 1.044 1.044 2.528-1.044 2.528-2.528 1.044q-1.406 0-2.433-0.96l-4.018 2.009q0.022 0.246 0.022 0.379t-0.022 0.379l4.018 2.009q1.027-0.96 2.433-0.96z"></path>
</svg>
