<!-- Generated by IcoMoon.io -->
<svg version="1.1" xmlns="http://www.w3.org/2000/svg" width="20" height="20" viewBox="0 0 20 20">
<title>share-square</title>
<path d="M12.645 12.288l3.929-3.929q0.212-0.212 0.212-0.502t-0.212-0.502l-3.929-3.929q-0.335-0.346-0.77-0.156-0.446 0.19-0.446 0.658v1.786q-1.328 0-2.411 0.218t-1.814 0.569-1.272 0.882-0.854 1.066-0.497 1.217-0.24 1.244-0.056 1.233q0 2.020 1.864 4.509 0.123 0.134 0.279 0.134 0.078 0 0.145-0.033 0.246-0.1 0.212-0.368-0.491-3.951 0.692-5.279 0.513-0.58 1.451-0.843t2.5-0.262v1.786q0 0.469 0.446 0.658 0.134 0.056 0.268 0.056 0.29 0 0.502-0.212zM18.571 4.643v10.714q0 1.328-0.943 2.271t-2.271 0.943h-10.714q-1.328 0-2.271-0.943t-0.943-2.271v-10.714q0-1.328 0.943-2.271t2.271-0.943h10.714q1.328 0 2.271 0.943t0.943 2.271z"></path>
</svg>
