<!-- Generated by IcoMoon.io -->
<svg version="1.1" xmlns="http://www.w3.org/2000/svg" width="20" height="20" viewBox="0 0 20 20">
<title>share-square-o</title>
<path d="M16.429 11.038v2.891q0 1.328-0.943 2.271t-2.271 0.943h-9.286q-1.328 0-2.271-0.943t-0.943-2.271v-9.286q0-1.328 0.943-2.271t2.271-0.943h2.846q0.145 0 0.251 0.106t0.106 0.251q0 0.301-0.29 0.357-0.859 0.29-1.484 0.67-0.112 0.045-0.179 0.045h-1.25q-0.737 0-1.261 0.525t-0.525 1.261v9.286q0 0.737 0.525 1.261t1.261 0.525h9.286q0.737 0 1.261-0.525t0.525-1.261v-2.388q0-0.212 0.201-0.324 0.313-0.145 0.603-0.413 0.179-0.179 0.391-0.089 0.234 0.1 0.234 0.324zM19.074 5.502l-4.286 4.286q-0.201 0.212-0.502 0.212-0.134 0-0.279-0.056-0.435-0.19-0.435-0.658v-2.143h-1.786q-3.605 0-4.888 1.462-1.328 1.529-0.826 5.279 0.033 0.257-0.223 0.379-0.089 0.022-0.134 0.022-0.179 0-0.29-0.145-0.112-0.156-0.234-0.346t-0.441-0.765-0.552-1.11-0.43-1.272-0.195-1.362q0-0.547 0.039-1.016t0.156-1.004 0.312-0.982 0.525-0.91 0.765-0.826 1.055-0.686 1.39-0.541 1.78-0.34 2.193-0.123h1.786v-2.143q0-0.469 0.435-0.658 0.145-0.056 0.279-0.056 0.29 0 0.502 0.212l4.286 4.286q0.212 0.212 0.212 0.502t-0.212 0.502z"></path>
</svg>
