<!-- Generated by IcoMoon.io -->
<svg version="1.1" xmlns="http://www.w3.org/2000/svg" width="20" height="20" viewBox="0 0 20 20">
<title>sheqel</title>
<path d="M12.5 6.964v5.536q0 0.156-0.1 0.257t-0.257 0.1h-1.786q-0.156 0-0.257-0.1t-0.1-0.257v-5.536q0-1.25-0.893-2.143t-2.143-0.893h-3.036v12.857q0 0.156-0.1 0.257t-0.257 0.1h-1.786q-0.156 0-0.257-0.1t-0.1-0.257v-15q0-0.156 0.1-0.257t0.257-0.1h5.179q1.507 0 2.779 0.742t2.015 2.015 0.742 2.779zM16.786 1.786v9.821q0 1.507-0.742 2.779t-2.015 2.015-2.779 0.742h-5.179q-0.156 0-0.257-0.1t-0.1-0.257v-10.714q0-0.156 0.1-0.257t0.257-0.1h1.786q0.156 0 0.257 0.1t0.1 0.257v8.571h3.036q1.25 0 2.143-0.893t0.893-2.143v-9.821q0-0.156 0.1-0.257t0.257-0.1h1.786q0.156 0 0.257 0.1t0.1 0.257z"></path>
</svg>
