<!-- Generated by IcoMoon.io -->
<svg version="1.1" xmlns="http://www.w3.org/2000/svg" width="20" height="20" viewBox="0 0 20 20">
<title>shield</title>
<path d="M15 10.714v-7.143h-5v12.69q1.328-0.703 2.377-1.529 2.623-2.054 2.623-4.018zM17.143 2.143v8.571q0 0.96-0.374 1.903t-0.926 1.674-1.317 1.423-1.412 1.15-1.35 0.865-0.999 0.552-0.474 0.223q-0.134 0.067-0.29 0.067t-0.29-0.067q-0.179-0.078-0.474-0.223t-0.999-0.552-1.35-0.865-1.412-1.15-1.317-1.423-0.926-1.674-0.374-1.903v-8.571q0-0.29 0.212-0.502t0.502-0.212h12.857q0.29 0 0.502 0.212t0.212 0.502z"></path>
</svg>
