<!-- Generated by IcoMoon.io -->
<svg version="1.1" xmlns="http://www.w3.org/2000/svg" width="23" height="20" viewBox="0 0 23 20">
<title>ship</title>
<path d="M20.212 17.355q0.212-0.212 0.502-0.212t0.502 0.212l1.429 1.429-1.004 1.004-0.926-0.926-0.926 0.926q-0.201 0.212-0.502 0.212t-0.502-0.212l-0.926-0.926-0.926 0.926q-0.212 0.212-0.502 0.212t-0.502-0.212l-0.926-0.926-0.926 0.926q-0.212 0.212-0.502 0.212t-0.502-0.212l-0.926-0.926-0.926 0.926q-0.212 0.212-0.502 0.212t-0.502-0.212l-0.926-0.926-0.926 0.926q-0.212 0.212-0.502 0.212t-0.502-0.212l-0.926-0.926-0.926 0.926q-0.212 0.212-0.502 0.212t-0.502-0.212l-0.926-0.926-0.926 0.926q-0.212 0.212-0.502 0.212t-0.502-0.212l-1.429-1.429 1.004-1.004 0.926 0.926 0.926-0.926q0.212-0.212 0.502-0.212t0.502 0.212l0.926 0.926 0.926-0.926q0.212-0.212 0.502-0.212t0.502 0.212l0.926 0.926 0.926-0.926q0.212-0.212 0.502-0.212t0.502 0.212l0.926 0.926 0.926-0.926q0.212-0.212 0.502-0.212t0.502 0.212l0.926 0.926 0.926-0.926q0.212-0.212 0.502-0.212t0.502 0.212l0.926 0.926 0.926-0.926q0.212-0.212 0.502-0.212t0.502 0.212l0.926 0.926zM2.645 16.931q-0.212 0.212-0.502 0.212t-0.502-0.212l-1.429-1.429 1.004-1.004 0.926 0.915 0.926-0.915q0.212-0.212 0.502-0.212t0.502 0.212l0.926 0.915 0.714-0.714v-3.27l-2.344-3.504q-0.19-0.29-0.078-0.631t0.446-0.452l1.975-0.647v-3.337h1.429v-1.429h2.857v-1.429h2.857v1.429h2.857v1.429h1.429v3.337l1.975 0.647q0.335 0.112 0.446 0.452t-0.078 0.631l-2.344 3.504v3.27l0.212-0.201q0.212-0.212 0.502-0.212t0.502 0.212l0.926 0.915 0.926-0.915q0.212-0.212 0.502-0.212t0.502 0.212l1.429 1.429-1.004 1.004-0.926-0.926-0.926 0.926q-0.201 0.212-0.502 0.212t-0.502-0.212l-0.926-0.926-0.926 0.926q-0.212 0.212-0.502 0.212t-0.502-0.212l-0.926-0.926-0.926 0.926q-0.212 0.212-0.502 0.212t-0.502-0.212l-0.926-0.926-0.926 0.926q-0.212 0.212-0.502 0.212t-0.502-0.212l-0.926-0.926-0.926 0.926q-0.212 0.212-0.502 0.212t-0.502-0.212l-0.926-0.926-0.926 0.926q-0.212 0.212-0.502 0.212t-0.502-0.212l-0.926-0.926zM7.143 4.286v1.429l4.286-1.429 4.286 1.429v-1.429h-1.429v-1.429h-5.714v1.429h-1.429z"></path>
</svg>
