<!-- Generated by IcoMoon.io -->
<svg version="1.1" xmlns="http://www.w3.org/2000/svg" width="20" height="20" viewBox="0 0 20 20">
<title>shirtsinbulk</title>
<path d="M1.429 0h17.143v15.536l-8.661 3.772-8.482-3.772v-15.536zM17.455 14.81v-10.335h-14.911v10.335l7.377 3.281zM17.455 3.359v-2.243h-14.911v2.243h14.911zM3.449 6.685v1.283h-0.413v-1.283h0.413zM3.449 8.337v1.283h-0.413v-1.283h0.413zM3.449 9.989v1.283h-0.413v-1.283h0.413zM3.449 11.641v1.283h-0.413v-1.283h0.413zM3.449 13.292v1.283h-0.413v-1.283h0.413zM3.739 14.888l0.167-0.379 1.172 0.525-0.167 0.368zM5.257 15.558l0.167-0.379 1.172 0.513-0.167 0.379zM6.763 16.228l0.167-0.379 1.172 0.513-0.167 0.379zM8.281 16.886l0.167-0.368 1.161 0.513-0.167 0.379zM10.324 17.031l1.172-0.513 0.167 0.368-1.172 0.525zM11.83 16.362l1.172-0.513 0.167 0.379-1.172 0.513zM13.348 15.692l1.172-0.513 0.167 0.379-1.172 0.513zM14.855 15.033l1.172-0.525 0.167 0.379-1.172 0.513zM4.319 1.641v0.402h-1.272v-0.402h1.272zM6.127 1.641v0.402h-1.283v-0.402h1.283zM7.935 1.641v0.402h-1.283v-0.402h1.283zM9.732 1.641v0.402h-1.272v-0.402h1.272zM11.54 1.641v0.402h-1.272v-0.402h1.272zM13.348 1.641v0.402h-1.283v-0.402h1.283zM15.156 1.641v0.402h-1.283v-0.402h1.283zM16.953 1.641v0.402h-1.272v-0.402h1.272zM3.449 5.435v0.882h-0.413v-1.283h1.283v0.402h-0.871zM6.127 5.033v0.402h-1.283v-0.402h1.283zM7.935 5.033v0.402h-1.283v-0.402h1.283zM9.732 5.033v0.402h-1.272v-0.402h1.272zM11.54 5.033v0.402h-1.272v-0.402h1.272zM13.348 5.033v0.402h-1.283v-0.402h1.283zM15.156 5.033v0.402h-1.283v-0.402h1.283zM16.551 6.317v-0.882h-0.871v-0.402h1.283v1.283h-0.413zM16.551 7.969v-1.283h0.413v1.283h-0.413zM16.551 9.621v-1.283h0.413v1.283h-0.413zM16.551 11.272v-1.283h0.413v1.283h-0.413zM16.551 12.924v-1.283h0.413v1.283h-0.413zM16.551 14.576v-1.283h0.413v1.283h-0.413zM9.911 14.185q-1.44 0-2.467-1.021t-1.027-2.472q0-1.44 1.027-2.467t2.467-1.027q1.451 0 2.472 1.027t1.021 2.467q0 1.451-1.021 2.472t-2.472 1.021zM8.069 9.933q0 0.402 0.218 0.631t0.552 0.279 0.714 0.078 0.714 0.022 0.552 0.1 0.218 0.34q0 0.547-1.25 0.547-1.083 0-1.373-0.569h-0.033l-0.346 0.703q0.748 0.469 1.808 0.469 0.324 0 0.631-0.056t0.619-0.179 0.508-0.368 0.195-0.592q0-0.513-0.307-0.776t-0.753-0.301-0.887-0.033-0.748-0.056-0.307-0.285q0-0.234 0.229-0.368t0.452-0.167 0.458-0.033q0.379 0 0.787 0.123t0.575 0.379h0.033l0.335-0.647q-0.033-0.011-0.234-0.095t-0.251-0.1-0.218-0.078-0.246-0.078-0.223-0.050-0.268-0.045-0.257-0.011q-0.324 0-0.631 0.056t-0.603 0.184-0.48 0.379-0.184 0.597z"></path>
</svg>
