<!-- Generated by IcoMoon.io -->
<svg version="1.1" xmlns="http://www.w3.org/2000/svg" width="20" height="20" viewBox="0 0 20 20">
<title>shopping-cart</title>
<path d="M7.857 17.143q0 0.58-0.424 1.004t-1.004 0.424-1.004-0.424-0.424-1.004 0.424-1.004 1.004-0.424 1.004 0.424 0.424 1.004zM17.857 17.143q0 0.58-0.424 1.004t-1.004 0.424-1.004-0.424-0.424-1.004 0.424-1.004 1.004-0.424 1.004 0.424 0.424 1.004zM19.286 5v5.714q0 0.268-0.184 0.474t-0.452 0.24l-11.652 1.362q0.145 0.67 0.145 0.781 0 0.179-0.268 0.714h10.268q0.29 0 0.502 0.212t0.212 0.502-0.212 0.502-0.502 0.212h-11.429q-0.29 0-0.502-0.212t-0.212-0.502q0-0.123 0.089-0.352t0.179-0.402 0.24-0.446 0.173-0.329l-1.975-9.185h-2.277q-0.29 0-0.502-0.212t-0.212-0.502 0.212-0.502 0.502-0.212h2.857q0.179 0 0.318 0.073t0.218 0.173 0.145 0.273 0.089 0.29 0.061 0.329 0.050 0.29h13.404q0.29 0 0.502 0.212t0.212 0.502z"></path>
</svg>
