<!-- Generated by IcoMoon.io -->
<svg version="1.1" xmlns="http://www.w3.org/2000/svg" width="23" height="20" viewBox="0 0 23 20">
<title>shopping-basket</title>
<path d="M21.429 8.571q0.592 0 1.010 0.419t0.419 1.010-0.419 1.010-1.010 0.419h-0.167l-1.283 7.388q-0.089 0.513-0.491 0.848t-0.915 0.335h-14.286q-0.513 0-0.915-0.335t-0.491-0.848l-1.283-7.388h-0.167q-0.592 0-1.010-0.419t-0.419-1.010 0.419-1.010 1.010-0.419h20zM5.413 17.5q0.29-0.022 0.485-0.251t0.173-0.519l-0.357-4.643q-0.022-0.29-0.251-0.485t-0.519-0.173-0.485 0.251-0.173 0.519l0.357 4.643q0.022 0.279 0.229 0.469t0.485 0.19h0.056zM10 16.786v-4.643q0-0.29-0.212-0.502t-0.502-0.212-0.502 0.212-0.212 0.502v4.643q0 0.29 0.212 0.502t0.502 0.212 0.502-0.212 0.212-0.502zM14.286 16.786v-4.643q0-0.29-0.212-0.502t-0.502-0.212-0.502 0.212-0.212 0.502v4.643q0 0.29 0.212 0.502t0.502 0.212 0.502-0.212 0.212-0.502zM18.214 16.842l0.357-4.643q0.022-0.29-0.173-0.519t-0.485-0.251-0.519 0.173-0.251 0.485l-0.357 4.643q-0.022 0.29 0.173 0.519t0.485 0.251h0.056q0.279 0 0.485-0.19t0.229-0.469zM5.313 3.259l-1.038 4.598h-1.473l1.127-4.922q0.212-0.982 0.993-1.602t1.786-0.619h1.864q0-0.29 0.212-0.502t0.502-0.212h4.286q0.29 0 0.502 0.212t0.212 0.502h1.864q1.004 0 1.786 0.619t0.993 1.602l1.127 4.922h-1.473l-1.038-4.598q-0.123-0.491-0.508-0.804t-0.887-0.313h-1.864q0 0.29-0.212 0.502t-0.502 0.212h-4.286q-0.29 0-0.502-0.212t-0.212-0.502h-1.864q-0.502 0-0.887 0.313t-0.508 0.804z"></path>
</svg>
