<!-- Generated by IcoMoon.io -->
<svg version="1.1" xmlns="http://www.w3.org/2000/svg" width="20" height="20" viewBox="0 0 20 20">
<title>shopping-bag</title>
<path d="M19.609 15.714l0.391 3.493q0.033 0.313-0.179 0.558-0.212 0.234-0.536 0.234h-18.571q-0.324 0-0.536-0.234-0.212-0.246-0.179-0.558l0.391-3.493h19.219zM18.571 6.35l0.96 8.65h-19.063l0.96-8.65q0.033-0.268 0.234-0.452t0.48-0.184h2.857v1.429q0 0.592 0.419 1.010t1.010 0.419 1.010-0.419 0.419-1.010v-1.429h4.286v1.429q0 0.592 0.419 1.010t1.010 0.419 1.010-0.419 0.419-1.010v-1.429h2.857q0.279 0 0.48 0.184t0.234 0.452zM14.286 4.286v2.857q0 0.29-0.212 0.502t-0.502 0.212-0.502-0.212-0.212-0.502v-2.857q0-1.183-0.837-2.020t-2.020-0.837-2.020 0.837-0.837 2.020v2.857q0 0.29-0.212 0.502t-0.502 0.212-0.502-0.212-0.212-0.502v-2.857q0-1.775 1.256-3.030t3.030-1.256 3.030 1.256 1.256 3.030z"></path>
</svg>
