<!-- Generated by IcoMoon.io -->
<svg version="1.1" xmlns="http://www.w3.org/2000/svg" width="23" height="20" viewBox="0 0 23 20">
<title>shower</title>
<path d="M16.708 2.779q0.112 0.112 0.112 0.257t-0.112 0.257l-6.987 6.987q-0.112 0.112-0.257 0.112t-0.257-0.112l-0.915-0.915q-0.112-0.112-0.112-0.257t0.112-0.257l0.491-0.491q-0.804-1.016-0.91-2.31t0.519-2.4q-0.826-0.792-1.964-0.792-1.183 0-2.020 0.837t-0.837 2.020v14.286h-2.857v-14.286q0-1.161 0.452-2.215t1.222-1.825 1.825-1.222 2.215-0.452q1.183 0 2.243 0.458t1.853 1.283q1.049-0.435 2.199-0.273t2.065 0.887l0.491-0.491q0.112-0.112 0.257-0.112t0.257 0.112zM15.714 5.714q0.29 0 0.502 0.212t0.212 0.502-0.212 0.502-0.502 0.212-0.502-0.212-0.212-0.502 0.212-0.502 0.502-0.212zM18.571 7.143q-0.29 0-0.502-0.212t-0.212-0.502 0.212-0.502 0.502-0.212 0.502 0.212 0.212 0.502-0.212 0.502-0.502 0.212zM21.429 5.714q0.29 0 0.502 0.212t0.212 0.502-0.212 0.502-0.502 0.212-0.502-0.212-0.212-0.502 0.212-0.502 0.502-0.212zM14.286 7.143q0.29 0 0.502 0.212t0.212 0.502-0.212 0.502-0.502 0.212-0.502-0.212-0.212-0.502 0.212-0.502 0.502-0.212zM16.429 7.857q0-0.29 0.212-0.502t0.502-0.212 0.502 0.212 0.212 0.502-0.212 0.502-0.502 0.212-0.502-0.212-0.212-0.502zM20 7.143q0.29 0 0.502 0.212t0.212 0.502-0.212 0.502-0.502 0.212-0.502-0.212-0.212-0.502 0.212-0.502 0.502-0.212zM12.857 8.571q0.29 0 0.502 0.212t0.212 0.502-0.212 0.502-0.502 0.212-0.502-0.212-0.212-0.502 0.212-0.502 0.502-0.212zM15.714 10q-0.29 0-0.502-0.212t-0.212-0.502 0.212-0.502 0.502-0.212 0.502 0.212 0.212 0.502-0.212 0.502-0.502 0.212zM18.571 8.571q0.29 0 0.502 0.212t0.212 0.502-0.212 0.502-0.502 0.212-0.502-0.212-0.212-0.502 0.212-0.502 0.502-0.212zM14.286 11.429q-0.29 0-0.502-0.212t-0.212-0.502 0.212-0.502 0.502-0.212 0.502 0.212 0.212 0.502-0.212 0.502-0.502 0.212zM17.143 10q0.29 0 0.502 0.212t0.212 0.502-0.212 0.502-0.502 0.212-0.502-0.212-0.212-0.502 0.212-0.502 0.502-0.212zM12.857 11.429q0.29 0 0.502 0.212t0.212 0.502-0.212 0.502-0.502 0.212-0.502-0.212-0.212-0.502 0.212-0.502 0.502-0.212zM15.714 11.429q0.29 0 0.502 0.212t0.212 0.502-0.212 0.502-0.502 0.212-0.502-0.212-0.212-0.502 0.212-0.502 0.502-0.212zM14.286 12.857q0.29 0 0.502 0.212t0.212 0.502-0.212 0.502-0.502 0.212-0.502-0.212-0.212-0.502 0.212-0.502 0.502-0.212zM12.857 14.286q0.29 0 0.502 0.212t0.212 0.502-0.212 0.502-0.502 0.212-0.502-0.212-0.212-0.502 0.212-0.502 0.502-0.212z"></path>
</svg>
