<!-- Generated by IcoMoon.io -->
<svg version="1.1" xmlns="http://www.w3.org/2000/svg" width="20" height="20" viewBox="0 0 20 20">
<title>signing</title>
<path d="M9.989 7.511q0.357 0 0.658 0.201l2.478 1.652q0.681 0.446 1.228 1.083l1.629 1.897q0.446 0.513 0.324 1.183l-0.804 4.609q-0.067 0.357-0.329 0.597t-0.619 0.285l-5.882 0.625-3.929 0.357h-0.1q-0.435 0-0.753-0.313t-0.318-0.759q0-0.413 0.301-0.714t0.725-0.357l2.902-0.357h-5q-0.458 0-0.776-0.335t-0.296-0.792q0.022-0.435 0.357-0.725t0.77-0.29l4.933-0.011-5.815-0.714q-0.458-0.056-0.737-0.413t-0.212-0.815q0.067-0.391 0.385-0.642t0.731-0.251h0.112l5.368 0.67-3.917-1.049q-0.424-0.112-0.692-0.463t-0.201-0.765q0.067-0.402 0.368-0.653t0.692-0.251q0.067 0 0.223 0.022l5 1.071 2.422 0.413q0.011 0 0.033 0.006t0.033 0.006q0.257 0 0.34-0.257t-0.14-0.402l-2.076-1.395q-0.391-0.257-0.469-0.709t0.201-0.82q0.301-0.424 0.848-0.424zM9.208 9.766l2.076 1.395-2.433-0.413-0.056-0.022-0.402-0.424-2.656-2.924q-0.011-0.011-0.028-0.039t-0.028-0.039q-0.268-0.346-0.206-0.781t0.419-0.714q0.346-0.257 0.759-0.195t0.714 0.374l1.585 1.641q-0.022 0.011-0.056 0.039t-0.045 0.050q-0.357 0.502-0.257 1.105t0.614 0.949zM19.107 4.699l0.167 2.969q0.045 0.815-0.123 1.641l-0.536 2.444q-0.134 0.658-0.748 0.971l-1.183 0.603q0.022-0.692-0.435-1.217l-1.629-1.897q-0.592-0.681-1.306-1.15l-2.478-1.652q-0.379-0.257-0.848-0.257-0.569 0-0.982 0.413l-2.623-3.482q-0.279-0.368-0.201-0.82t0.458-0.709q0.368-0.246 0.798-0.156t0.698 0.446l2.969 3.929-2.924-5.078q-0.234-0.391-0.117-0.837t0.53-0.658q0.391-0.201 0.809-0.067t0.642 0.513l2.69 4.688-1.518-3.761q-0.167-0.391-0.050-0.826t0.497-0.625q0.413-0.212 0.848-0.067t0.625 0.569l2.154 4.632 1.127 2.188q0.089 0.167 0.257 0.195t0.301-0.084 0.123-0.29l-0.134-2.5q-0.022-0.458 0.29-0.792t0.77-0.346q0.435 0 0.748 0.318t0.335 0.753z"></path>
</svg>
