<!-- Generated by IcoMoon.io -->
<svg version="1.1" xmlns="http://www.w3.org/2000/svg" width="20" height="20" viewBox="0 0 20 20">
<title>sign-out</title>
<path d="M7.857 16.071q0 0.045 0.011 0.223t0.006 0.296-0.033 0.262-0.112 0.218-0.229 0.073h-3.571q-1.328 0-2.271-0.943t-0.943-2.271v-7.857q0-1.328 0.943-2.271t2.271-0.943h3.571q0.145 0 0.251 0.106t0.106 0.251q0 0.045 0.011 0.223t0.006 0.296-0.033 0.262-0.112 0.218-0.229 0.073h-3.571q-0.737 0-1.261 0.525t-0.525 1.261v7.857q0 0.737 0.525 1.261t1.261 0.525h3.482l0.128 0.011 0.128 0.033 0.089 0.061 0.078 0.1 0.022 0.151zM18.214 10q0 0.29-0.212 0.502l-6.071 6.071q-0.212 0.212-0.502 0.212t-0.502-0.212-0.212-0.502v-3.214h-5q-0.29 0-0.502-0.212t-0.212-0.502v-4.286q0-0.29 0.212-0.502t0.502-0.212h5v-3.214q0-0.29 0.212-0.502t0.502-0.212 0.502 0.212l6.071 6.071q0.212 0.212 0.212 0.502z"></path>
</svg>
