<!-- Generated by IcoMoon.io -->
<svg version="1.1" xmlns="http://www.w3.org/2000/svg" width="20" height="20" viewBox="0 0 20 20">
<title>signal</title>
<path d="M2.857 16.071v2.143q0 0.156-0.1 0.257t-0.257 0.1h-2.143q-0.156 0-0.257-0.1t-0.1-0.257v-2.143q0-0.156 0.1-0.257t0.257-0.1h2.143q0.156 0 0.257 0.1t0.1 0.257zM7.143 14.643v3.571q0 0.156-0.1 0.257t-0.257 0.1h-2.143q-0.156 0-0.257-0.1t-0.1-0.257v-3.571q0-0.156 0.1-0.257t0.257-0.1h2.143q0.156 0 0.257 0.1t0.1 0.257zM11.429 11.786v6.429q0 0.156-0.1 0.257t-0.257 0.1h-2.143q-0.156 0-0.257-0.1t-0.1-0.257v-6.429q0-0.156 0.1-0.257t0.257-0.1h2.143q0.156 0 0.257 0.1t0.1 0.257zM15.714 7.5v10.714q0 0.156-0.1 0.257t-0.257 0.1h-2.143q-0.156 0-0.257-0.1t-0.1-0.257v-10.714q0-0.156 0.1-0.257t0.257-0.1h2.143q0.156 0 0.257 0.1t0.1 0.257zM20 1.786v16.429q0 0.156-0.1 0.257t-0.257 0.1h-2.143q-0.156 0-0.257-0.1t-0.1-0.257v-16.429q0-0.156 0.1-0.257t0.257-0.1h2.143q0.156 0 0.257 0.1t0.1 0.257z"></path>
</svg>
