<!-- Generated by IcoMoon.io -->
<svg version="1.1" xmlns="http://www.w3.org/2000/svg" width="23" height="20" viewBox="0 0 23 20">
<title>simplybuilt</title>
<path d="M9.632 11.518q0-1.25-0.887-2.137t-2.137-0.887-2.132 0.887-0.882 2.137 0.882 2.132 2.132 0.882 2.137-0.882 0.887-2.132zM19.263 11.507q0-1.25-0.882-2.132t-2.132-0.882-2.137 0.882-0.887 2.132q0 1.261 0.887 2.143t2.137 0.882 2.132-0.887 0.882-2.137zM22.857 2.478v15.045q0 0.491-0.352 0.843t-0.854 0.352h-20.446q-0.502 0-0.854-0.352t-0.352-0.843v-15.045q0-0.491 0.352-0.843t0.854-0.352h4.81q0.491 0 0.848 0.352t0.357 0.843v1.797h8.415v-1.797q0-0.491 0.357-0.843t0.848-0.352h4.81q0.502 0 0.854 0.352t0.352 0.843z"></path>
</svg>
