<!-- Generated by IcoMoon.io -->
<svg version="1.1" xmlns="http://www.w3.org/2000/svg" width="23" height="20" viewBox="0 0 23 20">
<title>skyatlas</title>
<path d="M18.862 8.783q1.652 0 2.824 1.099t1.172 2.729q0 1.752-1.217 2.919t-2.98 1.166q-0.949 0-1.808-0.307t-1.54-0.82-1.317-1.183-1.217-1.406-1.155-1.479-1.211-1.412-1.306-1.183-1.518-0.82-1.775-0.307q-1.719 0-2.807 1.021t-1.088 2.729q0 1.752 1.161 2.79t2.935 1.038q1.116 0 2.321-0.419t2.154-1.099q0.056-0.045 0.234-0.206t0.335-0.268 0.246-0.106q0.156 0 0.273 0.117t0.117 0.273q0 0.268-0.67 0.859-1.127 0.982-2.617 1.585t-2.907 0.603q-1.484 0-2.74-0.647t-2.009-1.842-0.753-2.69q0-2.288 1.579-3.806t3.878-1.518q1.339 0 2.528 0.485t2.070 1.261 1.691 1.708 1.551 1.869 1.49 1.713 1.669 1.261 1.925 0.485q1.138 0 1.881-0.686t0.742-1.814q0-1.060-0.72-1.775t-1.78-0.714q-0.335 0-0.91 0.206t-0.765 0.206q-0.223 0-0.396-0.167t-0.173-0.391q0-0.201 0.095-0.636t0.095-0.658q0-1.775-1.2-2.935t-2.974-1.161q-0.647 0-1.244 0.206t-0.938 0.452-0.619 0.452-0.368 0.206q-0.167 0-0.285-0.117t-0.117-0.285q0-0.212 0.279-0.513 0.658-0.748 1.641-1.155t2.031-0.407q2.132 0 3.549 1.401t1.417 3.521q0 0.413-0.045 0.737 0.636-0.167 1.283-0.167z"></path>
</svg>
