<!-- Generated by IcoMoon.io -->
<svg version="1.1" xmlns="http://www.w3.org/2000/svg" width="20" height="20" viewBox="0 0 20 20">
<title>skype</title>
<path d="M14.52 11.864q0-0.558-0.218-1.021t-0.541-0.765-0.815-0.547-0.921-0.379-0.977-0.257l-1.161-0.268q-0.335-0.078-0.491-0.117t-0.391-0.128-0.335-0.179-0.184-0.234-0.084-0.335q0-0.859 1.607-0.859 0.48 0 0.859 0.134t0.603 0.318 0.424 0.374 0.446 0.324 0.536 0.134q0.525 0 0.843-0.357t0.318-0.859q0-0.614-0.625-1.11t-1.585-0.753-2.031-0.257q-0.759 0-1.473 0.173t-1.334 0.525-0.993 0.971-0.374 1.434q0 0.681 0.212 1.189t0.625 0.843 0.893 0.541 1.15 0.363l1.629 0.402q1.004 0.246 1.25 0.402 0.357 0.223 0.357 0.67 0 0.435-0.446 0.72t-1.172 0.285q-0.569 0-1.021-0.179t-0.725-0.43-0.508-0.502-0.513-0.43-0.603-0.179q-0.558 0-0.843 0.335t-0.285 0.837q0 1.027 1.362 1.758t3.248 0.731q0.815 0 1.563-0.206t1.367-0.597 0.988-1.044 0.368-1.468zM18.571 14.286q0 1.775-1.256 3.030t-3.030 1.256q-1.451 0-2.612-0.893-0.859 0.179-1.674 0.179-1.596 0-3.052-0.619t-2.511-1.674-1.674-2.511-0.619-3.052q0-0.815 0.179-1.674-0.893-1.161-0.893-2.612 0-1.775 1.256-3.030t3.030-1.256q1.451 0 2.612 0.893 0.859-0.179 1.674-0.179 1.596 0 3.052 0.619t2.511 1.674 1.674 2.511 0.619 3.052q0 0.815-0.179 1.674 0.893 1.161 0.893 2.612z"></path>
</svg>
