<!-- Generated by IcoMoon.io -->
<svg version="1.1" xmlns="http://www.w3.org/2000/svg" width="20" height="20" viewBox="0 0 20 20">
<title>slack</title>
<path d="M17.667 8.661q0.692 0 1.155 0.452t0.463 1.133q0 1.083-1.038 1.451l-1.92 0.658 0.625 1.864q0.078 0.234 0.078 0.525 0 0.658-0.469 1.138t-1.127 0.48q-0.525 0-0.954-0.301t-0.597-0.804l-0.614-1.842-3.46 1.183 0.614 1.83q0.089 0.268 0.089 0.525 0 0.658-0.469 1.138t-1.138 0.48q-0.525 0-0.949-0.301t-0.592-0.804l-0.614-1.819-1.708 0.592q-0.324 0.1-0.558 0.1-0.681 0-1.133-0.446t-0.452-1.127q0-0.525 0.307-0.949t0.798-0.592l1.741-0.592-1.172-3.493-1.741 0.603q-0.29 0.089-0.536 0.089-0.67 0-1.127-0.452t-0.458-1.122q0-0.525 0.307-0.949t0.798-0.592l1.752-0.592-0.592-1.775q-0.089-0.268-0.089-0.525 0-0.67 0.469-1.144t1.138-0.474q0.525 0 0.949 0.301t0.592 0.804l0.603 1.786 3.46-1.172-0.603-1.786q-0.089-0.268-0.089-0.525 0-0.658 0.474-1.138t1.133-0.48q0.525 0 0.954 0.307t0.597 0.798l0.592 1.797 1.808-0.614q0.234-0.067 0.48-0.067 0.67 0 1.144 0.441t0.474 1.099q0 0.502-0.335 0.91t-0.826 0.575l-1.752 0.603 1.172 3.527 1.83-0.625q0.268-0.089 0.513-0.089zM8.806 11.585l3.46-1.172-1.172-3.516-3.46 1.194z"></path>
</svg>
