<!-- Generated by IcoMoon.io -->
<svg version="1.1" xmlns="http://www.w3.org/2000/svg" width="20" height="20" viewBox="0 0 20 20">
<title>slideshare</title>
<path d="M9.743 8.259q0 0.926-0.709 1.59t-1.702 0.664-1.702-0.664-0.709-1.59q0-0.938 0.709-1.596t1.702-0.658 1.702 0.658 0.709 1.596zM15.346 8.259q0 0.926-0.703 1.59t-1.708 0.664q-0.993 0-1.702-0.664t-0.709-1.59q0-0.938 0.709-1.596t1.702-0.658q1.004 0 1.708 0.658t0.703 1.596zM17.857 10.268v-7.444q0-0.971-0.357-1.378t-1.239-0.407h-12.411q-0.926 0-1.256 0.379t-0.329 1.406v7.511q0.48 0.257 0.988 0.446t0.904 0.313 0.904 0.206 0.792 0.123 0.781 0.045 0.653 0.006 0.631-0.022 0.497-0.022q0.759-0.011 1.060 0.301 0.067 0.067 0.112 0.1 0.29 0.279 0.681 0.569 0.078-1.016 1.317-0.971 0.056 0 0.407 0.017t0.48 0.022 0.508 0.011 0.592-0.011 0.608-0.050 0.681-0.095 0.692-0.151 0.748-0.218 0.753-0.301 0.804-0.385zM19.676 10.212q-1.35 1.663-4.152 2.813 0.938 3.181-0.257 5.19-0.737 1.261-2.042 1.652-1.161 0.357-2.031-0.167-0.96-0.569-0.915-1.83l-0.011-3.638v-0.011q-0.089-0.022-0.273-0.067t-0.262-0.056l-0.011 3.772q0.045 1.272-0.926 1.83-0.882 0.525-2.042 0.167-1.306-0.402-2.031-1.674-1.172-2.009-0.246-5.167-2.801-1.15-4.152-2.813-0.279-0.413-0.045-0.703t0.67 0.011q0.045 0.022 0.128 0.078t0.117 0.089v-7.746q0-0.804 0.525-1.373t1.272-0.569h14.029q0.748 0 1.272 0.569t0.525 1.373v7.746l0.234-0.167q0.435-0.301 0.67-0.011t-0.045 0.703z"></path>
</svg>
