<!-- Generated by IcoMoon.io -->
<svg version="1.1" xmlns="http://www.w3.org/2000/svg" width="20" height="20" viewBox="0 0 20 20">
<title>sliders</title>
<path d="M5.357 15.714v1.429h-3.929v-1.429h3.929zM9.286 14.286q0.29 0 0.502 0.212t0.212 0.502v2.857q0 0.29-0.212 0.502t-0.502 0.212h-2.857q-0.29 0-0.502-0.212t-0.212-0.502v-2.857q0-0.29 0.212-0.502t0.502-0.212h2.857zM11.071 10v1.429h-9.643v-1.429h9.643zM3.929 4.286v1.429h-2.5v-1.429h2.5zM18.571 15.714v1.429h-8.214v-1.429h8.214zM7.857 2.857q0.29 0 0.502 0.212t0.212 0.502v2.857q0 0.29-0.212 0.502t-0.502 0.212h-2.857q-0.29 0-0.502-0.212t-0.212-0.502v-2.857q0-0.29 0.212-0.502t0.502-0.212h2.857zM15 8.571q0.29 0 0.502 0.212t0.212 0.502v2.857q0 0.29-0.212 0.502t-0.502 0.212h-2.857q-0.29 0-0.502-0.212t-0.212-0.502v-2.857q0-0.29 0.212-0.502t0.502-0.212h2.857zM18.571 10v1.429h-2.5v-1.429h2.5zM18.571 4.286v1.429h-9.643v-1.429h9.643z"></path>
</svg>
