<!-- Generated by IcoMoon.io -->
<svg version="1.1" xmlns="http://www.w3.org/2000/svg" width="20" height="20" viewBox="0 0 20 20">
<title>smile-o</title>
<path d="M14.085 11.998q-0.413 1.35-1.54 2.176t-2.545 0.826-2.545-0.826-1.54-2.176q-0.089-0.279 0.045-0.541t0.424-0.352q0.279-0.089 0.541 0.045t0.352 0.424q0.279 0.893 1.032 1.445t1.691 0.552 1.691-0.552 1.032-1.445q0.089-0.29 0.357-0.424t0.547-0.045 0.413 0.352 0.045 0.541zM8.571 7.143q0 0.592-0.419 1.010t-1.010 0.419-1.010-0.419-0.419-1.010 0.419-1.010 1.010-0.419 1.010 0.419 0.419 1.010zM14.286 7.143q0 0.592-0.419 1.010t-1.010 0.419-1.010-0.419-0.419-1.010 0.419-1.010 1.010-0.419 1.010 0.419 0.419 1.010zM17.143 10q0-1.451-0.569-2.773t-1.523-2.277-2.277-1.523-2.773-0.569-2.773 0.569-2.277 1.523-1.523 2.277-0.569 2.773 0.569 2.773 1.523 2.277 2.277 1.523 2.773 0.569 2.773-0.569 2.277-1.523 1.523-2.277 0.569-2.773zM18.571 10q0 2.333-1.15 4.302t-3.119 3.119-4.302 1.15-4.302-1.15-3.119-3.119-1.15-4.302 1.15-4.302 3.119-3.119 4.302-1.15 4.302 1.15 3.119 3.119 1.15 4.302z"></path>
</svg>
