<!-- Generated by IcoMoon.io -->
<svg version="1.1" xmlns="http://www.w3.org/2000/svg" width="20" height="20" viewBox="0 0 20 20">
<title>snapchat-ghost</title>
<path d="M10.179 1.429q1.496-0.011 2.684 0.765t1.825 2.148q0.301 0.647 0.301 1.998 0 0.525-0.1 2.132 0.156 0.078 0.313 0.078 0.201 0 0.569-0.151t0.569-0.151q0.324 0 0.625 0.201t0.301 0.513q0 0.357-0.352 0.603t-0.77 0.352-0.77 0.324-0.352 0.53q0 0.167 0.134 0.48 0.413 0.915 1.144 1.674t1.613 1.127q0.313 0.134 0.893 0.257 0.313 0.067 0.313 0.391 0 0.781-2.444 1.15-0.078 0.123-0.123 0.435t-0.156 0.519-0.368 0.206q-0.223 0-0.692-0.073t-0.714-0.073q-0.413 0-0.692 0.056-0.357 0.056-0.703 0.251t-0.647 0.424-0.647 0.452-0.848 0.374-1.105 0.151q-0.58 0-1.077-0.151t-0.837-0.374-0.642-0.452-0.647-0.424-0.692-0.251q-0.29-0.056-0.703-0.056-0.268 0-0.731 0.084t-0.653 0.084q-0.279 0-0.391-0.206t-0.156-0.53-0.123-0.446q-2.444-0.368-2.444-1.15 0-0.324 0.312-0.391 0.58-0.123 0.893-0.257 0.871-0.357 1.613-1.127t1.144-1.674q0.134-0.313 0.134-0.48 0-0.313-0.352-0.53t-0.776-0.329-0.776-0.352-0.352-0.586q0-0.301 0.29-0.508t0.614-0.206q0.167 0 0.536 0.145t0.592 0.145q0.201 0 0.357-0.078-0.1-1.585-0.1-2.121 0-1.362 0.301-2.009 0.714-1.529 1.92-2.21t2.946-0.703z"></path>
</svg>
