<!-- Generated by IcoMoon.io -->
<svg version="1.1" xmlns="http://www.w3.org/2000/svg" width="20" height="20" viewBox="0 0 20 20">
<title>snapchat</title>
<path d="M15.703 12.813q0-0.246-0.246-0.301-0.748-0.167-1.317-0.658t-0.893-1.205q-0.078-0.212-0.078-0.279 0-0.167 0.218-0.29t0.48-0.19 0.48-0.229 0.218-0.407q0-0.212-0.206-0.352t-0.43-0.14q-0.134 0-0.357 0.089t-0.346 0.089q-0.045 0-0.134-0.022 0.056-1.060 0.056-1.272 0-0.882-0.19-1.272-0.402-0.871-1.15-1.356t-1.696-0.485q-2.221 0-3.069 1.842-0.19 0.391-0.19 1.272 0 0.212 0.056 1.272-0.045 0.022-0.156 0.022-0.134 0-0.357-0.084t-0.335-0.084q-0.234 0-0.43 0.134t-0.195 0.357q0 0.234 0.218 0.396t0.48 0.229 0.48 0.19 0.218 0.29q0 0.067-0.078 0.279-0.714 1.54-2.21 1.864-0.246 0.056-0.246 0.301 0 0.513 1.529 0.759 0.022 0.056 0.067 0.29t0.128 0.34 0.262 0.106q0.134 0 0.419-0.050t0.441-0.050q0.391 0 0.748 0.167t0.603 0.363 0.642 0.363 0.854 0.167q0.48 0 0.882-0.167t0.642-0.363 0.597-0.363 0.748-0.167q0.156 0 0.441 0.045t0.43 0.045q0.179 0 0.257-0.112t0.123-0.335 0.067-0.279q1.529-0.246 1.529-0.759zM18.571 10q0 2.333-1.15 4.302t-3.119 3.119-4.302 1.15-4.302-1.15-3.119-3.119-1.15-4.302 1.15-4.302 3.119-3.119 4.302-1.15 4.302 1.15 3.119 3.119 1.15 4.302z"></path>
</svg>
