<!-- Generated by IcoMoon.io -->
<svg version="1.1" xmlns="http://www.w3.org/2000/svg" width="20" height="20" viewBox="0 0 20 20">
<title>snapchat-square</title>
<path d="M15.714 12.813q0-0.246-0.246-0.301-0.748-0.156-1.317-0.647t-0.893-1.217q-0.078-0.156-0.078-0.279 0-0.167 0.218-0.29t0.474-0.19 0.474-0.229 0.218-0.407q0-0.212-0.206-0.352t-0.43-0.14q-0.123 0-0.346 0.089t-0.357 0.089q-0.045 0-0.134-0.022 0.056-0.703 0.056-1.283 0-0.871-0.19-1.272-0.402-0.871-1.144-1.356t-1.702-0.485q-2.21 0-3.069 1.842-0.201 0.424-0.201 1.283 0 0.424 0.067 1.272-0.112 0.022-0.167 0.022-0.123 0-0.352-0.089t-0.34-0.089q-0.223 0-0.419 0.14t-0.195 0.363q0 0.234 0.218 0.396t0.474 0.229 0.474 0.19 0.218 0.29q0 0.123-0.078 0.279-0.714 1.54-2.21 1.864-0.246 0.056-0.246 0.301 0 0.525 1.54 0.77 0.022 0.056 0.067 0.29t0.123 0.34 0.257 0.106q0.145 0 0.43-0.056t0.43-0.056q0.391 0 0.753 0.167t0.608 0.363 0.642 0.363 0.854 0.167q0.48 0 0.882-0.167t0.642-0.363 0.603-0.363 0.753-0.167q0.145 0 0.435 0.050t0.435 0.050q0.167 0 0.251-0.106t0.128-0.346 0.056-0.273q1.54-0.246 1.54-0.77zM18.571 4.643v10.714q0 1.328-0.943 2.271t-2.271 0.943h-10.714q-1.328 0-2.271-0.943t-0.943-2.271v-10.714q0-1.328 0.943-2.271t2.271-0.943h10.714q1.328 0 2.271 0.943t0.943 2.271z"></path>
</svg>
