<!-- Generated by IcoMoon.io -->
<svg version="1.1" xmlns="http://www.w3.org/2000/svg" width="20" height="20" viewBox="0 0 20 20">
<title>snowflake-o</title>
<path d="M18.192 12.467l-1.864 0.368 2.076 1.194q0.257 0.145 0.329 0.43t-0.073 0.541q-0.156 0.257-0.435 0.329t-0.536-0.073l-2.076-1.183 0.614 1.786q0.145 0.424-0.134 0.709t-0.675 0.229-0.541-0.469l-1.138-3.348-3.025-1.741v3.493l2.321 2.656q0.179 0.201 0.19 0.435t-0.123 0.407-0.318 0.279-0.413 0.061-0.407-0.246l-1.25-1.429v2.388q0 0.29-0.212 0.502t-0.502 0.212-0.502-0.212-0.212-0.502v-2.388l-1.25 1.429q-0.179 0.201-0.407 0.246t-0.413-0.061-0.318-0.279-0.123-0.407 0.19-0.435l2.321-2.656v-3.493l-3.025 1.741-1.138 3.348q-0.145 0.413-0.541 0.469t-0.675-0.229-0.134-0.709l0.614-1.786-2.076 1.183q-0.257 0.145-0.536 0.073t-0.435-0.329q-0.145-0.257-0.073-0.541t0.329-0.43l2.076-1.194-1.864-0.368q-0.324-0.067-0.469-0.324t-0.095-0.519 0.285-0.446 0.558-0.117l3.46 0.692 3.025-1.752-3.025-1.752-3.46 0.692q-0.045 0.011-0.145 0.011-0.301 0-0.491-0.201t-0.212-0.446 0.123-0.48 0.446-0.29l1.864-0.368-2.076-1.194q-0.257-0.145-0.329-0.43t0.073-0.541 0.435-0.335 0.536 0.078l2.076 1.183-0.614-1.786q-0.145-0.424 0.134-0.709t0.675-0.229 0.541 0.469l1.138 3.348 3.025 1.741v-3.493l-2.321-2.656q-0.179-0.201-0.19-0.435t0.123-0.407 0.318-0.279 0.413-0.061 0.407 0.246l1.25 1.429v-2.388q0-0.29 0.212-0.502t0.502-0.212 0.502 0.212 0.212 0.502v2.388l1.25-1.429q0.179-0.201 0.407-0.246t0.413 0.061 0.318 0.279 0.123 0.407-0.19 0.435l-2.321 2.656v3.493l3.025-1.741 1.138-3.348q0.145-0.413 0.541-0.469t0.675 0.229 0.134 0.709l-0.614 1.786 2.076-1.183q0.257-0.145 0.536-0.073t0.435 0.329q0.145 0.257 0.073 0.541t-0.329 0.43l-2.076 1.194 1.864 0.368q0.301 0.056 0.446 0.29t0.123 0.48-0.212 0.446-0.491 0.201q-0.1 0-0.145-0.011l-3.46-0.692-3.025 1.752 3.025 1.752 3.46-0.692q0.324-0.067 0.558 0.117t0.285 0.446-0.095 0.519-0.469 0.324z"></path>
</svg>
