<!-- Generated by IcoMoon.io -->
<svg version="1.1" xmlns="http://www.w3.org/2000/svg" width="20" height="20" viewBox="0 0 20 20">
<title>soccer-ball-o</title>
<path d="M6.797 9.107l3.203-2.321 3.203 2.321-1.217 3.75h-3.962zM10 0q2.031 0 3.884 0.792t3.192 2.132 2.132 3.192 0.792 3.884-0.792 3.884-2.132 3.192-3.192 2.132-3.884 0.792-3.884-0.792-3.192-2.132-2.132-3.192-0.792-3.884 0.792-3.884 2.132-3.192 3.192-2.132 3.884-0.792zM16.908 15.067q1.663-2.266 1.663-5.067v-0.033l-1.138 0.993-2.679-2.5 0.703-3.605 1.496 0.134q-1.674-2.299-4.342-3.147l0.592 1.384-3.203 1.775-3.203-1.775 0.592-1.384q-2.667 0.848-4.342 3.147l1.507-0.134 0.692 3.605-2.679 2.5-1.138-0.993v0.033q0 2.801 1.663 5.067l0.335-1.473 3.638 0.446 1.551 3.326-1.295 0.77q1.306 0.435 2.679 0.435t2.679-0.435l-1.295-0.77 1.551-3.326 3.638-0.446z"></path>
</svg>
