<!-- Generated by IcoMoon.io -->
<svg version="1.1" xmlns="http://www.w3.org/2000/svg" width="20" height="20" viewBox="0 0 20 20">
<title>sort-numeric-asc</title>
<path d="M16.451 14.654q0-0.703-0.491-1.295t-1.15-0.592q-0.58 0-0.926 0.413t-0.346 1.049 0.407 1.060 1.166 0.424q0.558 0 0.949-0.301t0.391-0.759zM9.643 16.071q0 0.134-0.112 0.268l-3.56 3.56q-0.112 0.1-0.257 0.1-0.134 0-0.257-0.1l-3.571-3.571q-0.167-0.179-0.078-0.391 0.089-0.223 0.335-0.223h2.143v-15.357q0-0.156 0.1-0.257t0.257-0.1h2.143q0.156 0 0.257 0.1t0.1 0.257v15.357h2.143q0.156 0 0.257 0.1t0.1 0.257zM18.013 15.301q0 0.692-0.145 1.356t-0.458 1.272-0.759 1.066-1.099 0.731-1.423 0.273q-0.692 0-1.205-0.179-0.268-0.089-0.469-0.167l0.435-1.261q0.167 0.078 0.346 0.123 0.413 0.145 0.837 0.145 0.938 0 1.501-0.653t0.742-1.624h-0.022q-0.234 0.257-0.686 0.413t-0.943 0.156q-1.183 0-1.931-0.798t-0.748-1.925q0-1.172 0.804-1.987t2.020-0.815q1.373 0 2.288 1.055t0.915 2.818zM17.679 7.299v1.272h-5.234v-1.272h1.864v-4.821q0-0.078 0.006-0.212t0.006-0.19v-0.179h-0.022l-0.078 0.134q-0.089 0.145-0.29 0.346l-0.692 0.647-0.915-0.96 2.143-2.065h1.373v7.299h1.842z"></path>
</svg>
