<!-- Generated by IcoMoon.io -->
<svg version="1.1" xmlns="http://www.w3.org/2000/svg" width="20" height="20" viewBox="0 0 20 20">
<title>sort-amount-asc</title>
<path d="M8.214 16.071q0 0.134-0.112 0.268l-3.56 3.56q-0.112 0.1-0.257 0.1-0.134 0-0.257-0.1l-3.571-3.571q-0.167-0.179-0.078-0.391 0.089-0.223 0.335-0.223h2.143v-15.357q0-0.156 0.1-0.257t0.257-0.1h2.143q0.156 0 0.257 0.1t0.1 0.257v15.357h2.143q0.156 0 0.257 0.1t0.1 0.257zM20 17.5v2.143q0 0.156-0.1 0.257t-0.257 0.1h-9.286q-0.156 0-0.257-0.1t-0.1-0.257v-2.143q0-0.156 0.1-0.257t0.257-0.1h9.286q0.156 0 0.257 0.1t0.1 0.257zM17.857 11.786v2.143q0 0.156-0.1 0.257t-0.257 0.1h-7.143q-0.156 0-0.257-0.1t-0.1-0.257v-2.143q0-0.156 0.1-0.257t0.257-0.1h7.143q0.156 0 0.257 0.1t0.1 0.257zM15.714 6.071v2.143q0 0.156-0.1 0.257t-0.257 0.1h-5q-0.156 0-0.257-0.1t-0.1-0.257v-2.143q0-0.156 0.1-0.257t0.257-0.1h5q0.156 0 0.257 0.1t0.1 0.257zM13.571 0.357v2.143q0 0.156-0.1 0.257t-0.257 0.1h-2.857q-0.156 0-0.257-0.1t-0.1-0.257v-2.143q0-0.156 0.1-0.257t0.257-0.1h2.857q0.156 0 0.257 0.1t0.1 0.257z"></path>
</svg>
