<!-- Generated by IcoMoon.io -->
<svg version="1.1" xmlns="http://www.w3.org/2000/svg" width="20" height="20" viewBox="0 0 20 20">
<title>sort-alpha-asc</title>
<path d="M14.007 4.554h1.975l-0.804-2.433-0.134-0.525q-0.022-0.179-0.022-0.223h-0.045l-0.033 0.223q0 0.011-0.039 0.201t-0.084 0.324zM8.929 16.071q0 0.134-0.112 0.268l-3.56 3.56q-0.112 0.1-0.257 0.1-0.134 0-0.257-0.1l-3.571-3.571q-0.167-0.179-0.078-0.391 0.089-0.223 0.335-0.223h2.143v-15.357q0-0.156 0.1-0.257t0.257-0.1h2.143q0.156 0 0.257 0.1t0.1 0.257v15.357h2.143q0.156 0 0.257 0.1t0.1 0.257zM18.259 17.4v2.6h-6.518v-1.004l4.118-5.904q0.134-0.201 0.234-0.301l0.123-0.1v-0.033q-0.022 0-0.073 0.006t-0.084 0.006q-0.134 0.033-0.335 0.033h-2.589v1.283h-1.339v-2.556h6.328v0.993l-4.118 5.915q-0.067 0.089-0.234 0.29l-0.123 0.123v0.022l0.156-0.022q0.1-0.022 0.335-0.022h2.768v-1.328h1.35zM19.252 7.388v1.183h-3.214v-1.183h0.837l-0.525-1.607h-2.712l-0.525 1.607h0.837v1.183h-3.203v-1.183h0.781l2.567-7.388h1.808l2.567 7.388h0.781z"></path>
</svg>
