<!-- Generated by IcoMoon.io -->
<svg version="1.1" xmlns="http://www.w3.org/2000/svg" width="26" height="20" viewBox="0 0 26 20">
<title>soundcloud</title>
<path d="M8.75 15.313l0.179-2.69-0.179-5.837q-0.011-0.112-0.084-0.19t-0.184-0.078q-0.1 0-0.179 0.078t-0.078 0.19l-0.156 5.837 0.156 2.69q0.011 0.112 0.084 0.184t0.173 0.073q0.246 0 0.268-0.257zM12.054 14.989l0.123-2.355-0.134-6.54q0-0.179-0.145-0.268-0.089-0.056-0.179-0.056t-0.179 0.056q-0.145 0.089-0.145 0.268l-0.011 0.067-0.112 6.462q0 0.011 0.123 2.634v0.011q0 0.112 0.067 0.19 0.1 0.123 0.257 0.123 0.123 0 0.223-0.1 0.1-0.078 0.1-0.223zM0.391 11.194l0.223 1.429-0.223 1.406q-0.022 0.1-0.1 0.1t-0.1-0.1l-0.19-1.406 0.19-1.429q0.022-0.1 0.1-0.1t0.1 0.1zM1.35 10.313l0.29 2.31-0.29 2.266q-0.022 0.1-0.112 0.1-0.1 0-0.1-0.112l-0.257-2.254 0.257-2.31q0-0.1 0.1-0.1 0.089 0 0.112 0.1zM2.377 9.888l0.279 2.734-0.279 2.645q0 0.123-0.123 0.123-0.112 0-0.134-0.123l-0.234-2.645 0.234-2.734q0.022-0.134 0.134-0.134 0.123 0 0.123 0.134zM3.426 9.81l0.257 2.813-0.257 2.723q-0.022 0.145-0.156 0.145-0.145 0-0.145-0.145l-0.234-2.723 0.234-2.813q0-0.145 0.145-0.145 0.134 0 0.156 0.145zM4.475 10.011l0.234 2.612-0.234 2.746q-0.022 0.179-0.179 0.179-0.067 0-0.117-0.050t-0.050-0.128l-0.223-2.746 0.223-2.612q0-0.067 0.050-0.117t0.117-0.050q0.156 0 0.179 0.167zM5.525 8.382l0.234 4.241-0.234 2.746q0 0.078-0.056 0.14t-0.134 0.061q-0.179 0-0.201-0.201l-0.201-2.746 0.201-4.241q0.022-0.201 0.201-0.201 0.078 0 0.134 0.061t0.056 0.14zM6.574 7.422l0.212 5.223-0.212 2.723q0 0.089-0.061 0.151t-0.151 0.061q-0.201 0-0.223-0.212l-0.179-2.723 0.179-5.223q0.022-0.212 0.223-0.212 0.089 0 0.151 0.061t0.061 0.151zM7.667 6.975l0.201 5.647-0.201 2.701q-0.022 0.234-0.246 0.234-0.212 0-0.234-0.234l-0.179-2.701 0.179-5.647q0-0.1 0.073-0.173t0.162-0.073q0.1 0 0.167 0.073t0.078 0.173zM9.833 6.931l0.167 5.692-0.167 2.667q0 0.112-0.084 0.195t-0.195 0.084-0.19-0.078-0.089-0.201l-0.156-2.667 0.156-5.692q0-0.123 0.084-0.201t0.195-0.078 0.195 0.078 0.084 0.201zM10.938 7.143l0.156 5.491-0.156 2.634q0 0.123-0.089 0.212t-0.212 0.089-0.212-0.089-0.1-0.212l-0.134-2.634 0.134-5.491q0.011-0.134 0.1-0.223t0.212-0.089 0.206 0.089 0.095 0.223zM13.304 12.634l-0.156 2.578q0 0.145-0.1 0.246t-0.246 0.1-0.246-0.1-0.112-0.246l-0.067-1.272-0.067-1.306 0.134-7.098v-0.033q0.022-0.167 0.134-0.268 0.1-0.078 0.223-0.078 0.089 0 0.167 0.056 0.156 0.089 0.179 0.29zM25.714 12.422q0 1.306-0.926 2.227t-2.232 0.921h-8.772q-0.145-0.022-0.246-0.123t-0.1-0.246v-10.033q0-0.257 0.313-0.368 0.949-0.379 2.020-0.379 2.176 0 3.772 1.468t1.786 3.61q0.592-0.246 1.228-0.246 1.306 0 2.232 0.926t0.926 2.243z"></path>
</svg>
