<!-- Generated by IcoMoon.io -->
<svg version="1.1" xmlns="http://www.w3.org/2000/svg" width="26" height="20" viewBox="0 0 26 20">
<title>space-shuttle</title>
<path d="M7.634 12.5q-1.228 0.714-2.991 0.714h-1.429v-0.714h-0.714q-0.145 0-0.251-0.262t-0.106-0.631q0-0.268 0.078-0.547-0.647-0.022-1.077-0.117t-0.43-0.229 0.43-0.229 1.077-0.117q-0.078-0.279-0.078-0.547 0-0.368 0.106-0.631t0.251-0.262h0.714v-0.714h1.429q1.763 0 2.991 0.714h12.422q0.469 0.078 1.189 0.201t0.898 0.156q0.993 0.167 1.674 0.452t0.932 0.53 0.251 0.446-0.251 0.446-0.932 0.53-1.674 0.452q-0.179 0.033-0.898 0.156t-1.189 0.201h-12.422zM20.123 9.688q0.592 0.402 0.592 1.027t-0.592 1.027l0.904 0.335q0.759-0.536 0.759-1.362t-0.759-1.362zM7.69 12.679h11.328q-2.422 0.424-5.089 0.893-0.636 0-1.261 0.268t-0.926 0.536l-0.313 0.268-3.214 3.214q-0.29 0.29-0.787 0.502t-0.999 0.212h-1.071l-1.038-5.179h0.324q1.752 0 3.047-0.714zM4.643 8.036h-0.324l1.038-5.179h1.071q0.513 0 1.004 0.212t0.781 0.502l3.214 3.214q0.045 0.045 0.123 0.117t0.34 0.257 0.541 0.324 0.686 0.257 0.809 0.117l5.089 0.893h-11.328q-1.295-0.714-3.047-0.714z"></path>
</svg>
