<!-- Generated by IcoMoon.io -->
<svg version="1.1" xmlns="http://www.w3.org/2000/svg" width="20" height="20" viewBox="0 0 20 20">
<title>spinner</title>
<path d="M5.871 15.558q0 0.592-0.419 1.010t-1.010 0.419q-0.58 0-1.004-0.424t-0.424-1.004q0-0.592 0.419-1.010t1.010-0.419 1.010 0.419 0.419 1.010zM11.429 17.857q0 0.592-0.419 1.010t-1.010 0.419-1.010-0.419-0.419-1.010 0.419-1.010 1.010-0.419 1.010 0.419 0.419 1.010zM3.571 10q0 0.592-0.419 1.010t-1.010 0.419-1.010-0.419-0.419-1.010 0.419-1.010 1.010-0.419 1.010 0.419 0.419 1.010zM16.987 15.558q0 0.58-0.424 1.004t-1.004 0.424q-0.592 0-1.010-0.419t-0.419-1.010 0.419-1.010 1.010-0.419 1.010 0.419 0.419 1.010zM6.228 4.442q0 0.737-0.525 1.261t-1.261 0.525-1.261-0.525-0.525-1.261 0.525-1.261 1.261-0.525 1.261 0.525 0.525 1.261zM19.286 10q0 0.592-0.419 1.010t-1.010 0.419-1.010-0.419-0.419-1.010 0.419-1.010 1.010-0.419 1.010 0.419 0.419 1.010zM12.143 2.143q0 0.893-0.625 1.518t-1.518 0.625-1.518-0.625-0.625-1.518 0.625-1.518 1.518-0.625 1.518 0.625 0.625 1.518zM18.058 4.442q0 1.038-0.737 1.769t-1.763 0.731q-1.038 0-1.769-0.731t-0.731-1.769q0-1.027 0.731-1.763t1.769-0.737q1.027 0 1.763 0.737t0.737 1.763z"></path>
</svg>
