<!-- Generated by IcoMoon.io -->
<svg version="1.1" xmlns="http://www.w3.org/2000/svg" width="20" height="20" viewBox="0 0 20 20">
<title>square-o</title>
<path d="M14.643 2.857h-9.286q-0.737 0-1.261 0.525t-0.525 1.261v9.286q0 0.737 0.525 1.261t1.261 0.525h9.286q0.737 0 1.261-0.525t0.525-1.261v-9.286q0-0.737-0.525-1.261t-1.261-0.525zM17.857 4.643v9.286q0 1.328-0.943 2.271t-2.271 0.943h-9.286q-1.328 0-2.271-0.943t-0.943-2.271v-9.286q0-1.328 0.943-2.271t2.271-0.943h9.286q1.328 0 2.271 0.943t0.943 2.271z"></path>
</svg>
