<!-- Generated by IcoMoon.io -->
<svg version="1.1" xmlns="http://www.w3.org/2000/svg" width="20" height="20" viewBox="0 0 20 20">
<title>star-half-o</title>
<path d="M13.951 10.681l2.868-2.79-4.71-0.692-0.335-0.67-1.775-3.594v10.748l0.658 0.346 3.549 1.875-0.67-3.962-0.134-0.737zM18.996 7.757l-4.051 3.951 0.96 5.58q0.056 0.368-0.067 0.575t-0.379 0.206q-0.19 0-0.446-0.134l-5.011-2.634-5.011 2.634q-0.257 0.134-0.446 0.134-0.257 0-0.379-0.206t-0.067-0.575l0.96-5.58-4.063-3.951q-0.357-0.357-0.257-0.664t0.603-0.385l5.603-0.815 2.511-5.078q0.223-0.458 0.547-0.458 0.313 0 0.547 0.458l2.511 5.078 5.603 0.815q0.502 0.078 0.603 0.385t-0.268 0.664z"></path>
</svg>
