<!-- Generated by IcoMoon.io -->
<svg version="1.1" xmlns="http://www.w3.org/2000/svg" width="20" height="20" viewBox="0 0 20 20">
<title>star</title>
<path d="M19.286 7.221q0 0.246-0.29 0.536l-4.051 3.951 0.96 5.58q0.011 0.078 0.011 0.223 0 0.234-0.117 0.396t-0.34 0.162q-0.212 0-0.446-0.134l-5.011-2.634-5.011 2.634q-0.246 0.134-0.446 0.134-0.234 0-0.352-0.162t-0.117-0.396q0-0.067 0.022-0.223l0.96-5.58-4.063-3.951q-0.279-0.301-0.279-0.536 0-0.413 0.625-0.513l5.603-0.815 2.511-5.078q0.212-0.458 0.547-0.458t0.547 0.458l2.511 5.078 5.603 0.815q0.625 0.1 0.625 0.513z"></path>
</svg>
