<!-- Generated by IcoMoon.io -->
<svg version="1.1" xmlns="http://www.w3.org/2000/svg" width="20" height="20" viewBox="0 0 20 20">
<title>steam-square</title>
<path d="M15.29 7.221q0-0.893-0.636-1.523t-1.529-0.631-1.523 0.636-0.631 1.518q0 0.893 0.631 1.523t1.523 0.631 1.529-0.631 0.636-1.523zM8.482 13.783q0 0.926-0.647 1.568t-1.563 0.642q-0.625 0-1.15-0.324t-0.804-0.859q0.58 0.223 1.094 0.446 0.67 0.268 1.339-0.017t0.949-0.965q0.268-0.67-0.017-1.339t-0.965-0.938l-0.915-0.368q0.246-0.056 0.469-0.056 0.915 0 1.563 0.642t0.647 1.568zM18.571 4.643v10.714q0 1.328-0.943 2.271t-2.271 0.943h-10.714q-1.328 0-2.271-0.943t-0.943-2.271v-1.708l1.92 0.77q0.223 1.027 1.044 1.696t1.881 0.67q1.161 0 2.020-0.781t0.971-1.931l3.85-2.813q1.674 0 2.852-1.177t1.177-2.84q0-1.674-1.177-2.852t-2.852-1.177q-1.652 0-2.824 1.166t-1.194 2.818l-2.511 3.594q-0.1-0.011-0.313-0.011-0.837 0-1.529 0.413l-3.315-1.328v-5.223q0-1.328 0.943-2.271t2.271-0.943h10.714q1.328 0 2.271 0.943t0.943 2.271zM15.815 7.243q0 1.116-0.792 1.903t-1.908 0.787-1.903-0.787-0.787-1.903 0.787-1.908 1.903-0.792q1.127 0 1.914 0.787t0.787 1.914z"></path>
</svg>
