<!-- Generated by IcoMoon.io -->
<svg version="1.1" xmlns="http://www.w3.org/2000/svg" width="20" height="20" viewBox="0 0 20 20">
<title>steam</title>
<path d="M17.656 6.496q0 1.127-0.798 1.925t-1.925 0.798-1.925-0.798-0.798-1.925 0.798-1.925 1.925-0.798 1.925 0.798 0.798 1.925zM9.063 14.777q0-1.161-0.815-1.975t-1.975-0.815q-0.301 0-0.603 0.067l1.161 0.469q0.859 0.346 1.222 1.189t0.017 1.691q-0.346 0.859-1.194 1.217t-1.696 0.011q-0.234-0.089-0.692-0.273t-0.681-0.273q0.357 0.67 1.016 1.077t1.451 0.407q1.161 0 1.975-0.815t0.815-1.975zM18.326 6.507q0-1.406-0.999-2.405t-2.405-0.999q-1.417 0-2.416 0.999t-0.999 2.405q0 1.417 0.999 2.411t2.416 0.993q1.406 0 2.405-0.993t0.999-2.411zM20 6.507q0 2.109-1.49 3.594t-3.588 1.484l-4.877 3.56q-0.134 1.44-1.217 2.433t-2.556 0.993q-1.35 0-2.388-0.848t-1.317-2.143l-2.567-1.027v-4.788l4.342 1.752q0.882-0.536 1.931-0.536 0.145 0 0.391 0.022l3.17-4.542q0.022-2.087 1.512-3.56t3.577-1.473q2.098 0 3.588 1.49t1.49 3.588z"></path>
</svg>
