<!-- Generated by IcoMoon.io -->
<svg version="1.1" xmlns="http://www.w3.org/2000/svg" width="20" height="20" viewBox="0 0 20 20">
<title>stethoscope</title>
<path d="M16.429 7.857q0-0.29-0.212-0.502t-0.502-0.212-0.502 0.212-0.212 0.502 0.212 0.502 0.502 0.212 0.502-0.212 0.212-0.502zM17.857 7.857q0 0.692-0.396 1.239t-1.032 0.781v4.408q0 1.775-1.468 3.030t-3.532 1.256-3.532-1.256-1.468-3.030v-1.473q-1.83-0.223-3.058-1.429t-1.228-2.813v-5.714q0-0.29 0.212-0.502t0.502-0.212q0.067 0 0.179 0.022 0.19-0.335 0.525-0.536t0.725-0.201q0.592 0 1.010 0.419t0.419 1.010-0.419 1.010-1.010 0.419q-0.368 0-0.714-0.201v4.487q0 1.183 1.049 2.020t2.522 0.837 2.522-0.837 1.049-2.020v-4.487q-0.346 0.201-0.714 0.201-0.592 0-1.010-0.419t-0.419-1.010 0.419-1.010 1.010-0.419q0.391 0 0.725 0.201t0.525 0.536q0.112-0.022 0.179-0.022 0.29 0 0.502 0.212t0.212 0.502v5.714q0 1.607-1.228 2.813t-3.058 1.429v1.473q0 1.183 1.049 2.020t2.522 0.837 2.522-0.837 1.049-2.020v-4.408q-0.636-0.234-1.032-0.781t-0.396-1.239q0-0.893 0.625-1.518t1.518-0.625 1.518 0.625 0.625 1.518z"></path>
</svg>
