<!-- Generated by IcoMoon.io -->
<svg version="1.1" xmlns="http://www.w3.org/2000/svg" width="20" height="20" viewBox="0 0 20 20">
<title>sticky-note-o</title>
<path d="M17.054 14.286h-2.768v2.768q0.324-0.112 0.458-0.246l2.065-2.065q0.134-0.134 0.246-0.458zM13.929 12.857h3.214v-10h-14.286v14.286h10v-3.214q0-0.446 0.313-0.759t0.759-0.313zM18.571 2.5v11.429q0 0.446-0.223 0.982t-0.536 0.848l-2.054 2.054q-0.313 0.313-0.848 0.536t-0.982 0.223h-11.429q-0.446 0-0.759-0.313t-0.313-0.759v-15q0-0.446 0.313-0.759t0.759-0.313h15q0.446 0 0.759 0.313t0.313 0.759z"></path>
</svg>
