<!-- Generated by IcoMoon.io -->
<svg version="1.1" xmlns="http://www.w3.org/2000/svg" width="20" height="20" viewBox="0 0 20 20">
<title>stop-circle-o</title>
<path d="M10 1.429q2.333 0 4.302 1.15t3.119 3.119 1.15 4.302-1.15 4.302-3.119 3.119-4.302 1.15-4.302-1.15-3.119-3.119-1.15-4.302 1.15-4.302 3.119-3.119 4.302-1.15zM10 16.071q1.652 0 3.047-0.815t2.21-2.21 0.815-3.047-0.815-3.047-2.21-2.21-3.047-0.815-3.047 0.815-2.21 2.21-0.815 3.047 0.815 3.047 2.21 2.21 3.047 0.815zM6.786 13.571q-0.156 0-0.257-0.1t-0.1-0.257v-6.429q0-0.156 0.1-0.257t0.257-0.1h6.429q0.156 0 0.257 0.1t0.1 0.257v6.429q0 0.156-0.1 0.257t-0.257 0.1h-6.429z"></path>
</svg>
