<!-- Generated by IcoMoon.io -->
<svg version="1.1" xmlns="http://www.w3.org/2000/svg" width="20" height="20" viewBox="0 0 20 20">
<title>street-view</title>
<path d="M17.143 17.143q0 0.703-0.686 1.267t-1.83 0.904-2.511 0.513-2.829 0.173-2.829-0.173-2.511-0.513-1.83-0.904-0.686-1.267q0-0.547 0.368-0.988t1.016-0.742 1.317-0.497 1.462-0.329q0.29-0.056 0.536 0.117t0.29 0.463q0.056 0.29-0.117 0.536t-0.463 0.29q-0.647 0.112-1.183 0.262t-0.854 0.285-0.541 0.262-0.307 0.218-0.095 0.134q0.033 0.123 0.301 0.296t0.815 0.368 1.272 0.363 1.791 0.279 2.249 0.112 2.249-0.112 1.791-0.279 1.272-0.368 0.815-0.374 0.301-0.307q-0.011-0.045-0.095-0.123t-0.307-0.212-0.541-0.262-0.854-0.279-1.183-0.262q-0.29-0.045-0.463-0.29t-0.117-0.536q0.045-0.29 0.29-0.463t0.536-0.117q0.792 0.134 1.462 0.329t1.317 0.497 1.016 0.742 0.368 0.988zM12.857 7.143v4.286q0 0.29-0.212 0.502t-0.502 0.212h-0.714v4.286q0 0.29-0.212 0.502t-0.502 0.212h-2.857q-0.29 0-0.502-0.212t-0.212-0.502v-4.286h-0.714q-0.29 0-0.502-0.212t-0.212-0.502v-4.286q0-0.592 0.419-1.010t1.010-0.419h4.286q0.592 0 1.010 0.419t0.419 1.010zM11.786 2.857q0 1.038-0.731 1.769t-1.769 0.731-1.769-0.731-0.731-1.769 0.731-1.769 1.769-0.731 1.769 0.731 0.731 1.769z"></path>
</svg>
