<!-- Generated by IcoMoon.io -->
<svg version="1.1" xmlns="http://www.w3.org/2000/svg" width="20" height="20" viewBox="0 0 20 20">
<title>strikethrough</title>
<path d="M19.643 10q0.156 0 0.257 0.1t0.1 0.257v0.714q0 0.156-0.1 0.257t-0.257 0.1h-19.286q-0.156 0-0.257-0.1t-0.1-0.257v-0.714q0-0.156 0.1-0.257t0.257-0.1h19.286zM5.391 9.286q-0.313-0.391-0.569-0.893-0.536-1.094-0.536-2.098 0-2.020 1.496-3.449 1.484-1.417 4.386-1.417 0.558 0 1.864 0.212 0.737 0.134 1.975 0.536 0.112 0.424 0.234 1.317 0.156 1.373 0.156 2.042 0 0.201-0.056 0.502l-0.134 0.033-0.938-0.067-0.156-0.022q-0.558-1.663-1.15-2.288-0.982-1.016-2.344-1.016-1.272 0-2.031 0.658-0.748 0.647-0.748 1.629 0 0.815 0.737 1.563t3.114 1.44q0.77 0.223 1.931 0.737 0.647 0.313 1.060 0.58h-8.292zM11.049 12.143h4.587q0.078 0.435 0.078 1.027 0 1.239-0.458 2.366-0.257 0.625-0.792 1.161-0.413 0.391-1.217 0.904-0.893 0.536-1.708 0.737-0.893 0.234-2.266 0.234-1.272 0-2.176-0.257l-1.563-0.446q-0.636-0.179-0.804-0.313-0.089-0.089-0.089-0.246v-0.145q0-1.205-0.022-1.741-0.011-0.335 0-0.759l0.022-0.413v-0.491l1.138-0.022q0.167 0.379 0.335 0.792t0.251 0.625 0.14 0.301q0.391 0.636 0.893 1.049 0.48 0.402 1.172 0.636 0.658 0.246 1.473 0.246 0.714 0 1.551-0.301 0.859-0.29 1.362-0.96 0.525-0.681 0.525-1.44 0-0.938-0.904-1.752-0.379-0.324-1.529-0.792z"></path>
</svg>
