<!-- Generated by IcoMoon.io -->
<svg version="1.1" xmlns="http://www.w3.org/2000/svg" width="23" height="20" viewBox="0 0 23 20">
<title>stumbleupon</title>
<path d="M12.567 7.946v-1.317q0-0.469-0.335-0.804t-0.804-0.335-0.804 0.335-0.335 0.804v6.83q0 1.953-1.406 3.337t-3.382 1.384q-1.987 0-3.387-1.401t-1.401-3.387v-2.969h3.661v2.924q0 0.48 0.335 0.809t0.804 0.329 0.804-0.329 0.335-0.809v-6.92q0-1.908 1.412-3.259t3.365-1.35q1.964 0 3.371 1.362t1.406 3.281v1.518l-2.176 0.647zM18.482 10.424h3.661v2.969q0 1.987-1.401 3.387t-3.387 1.401q-1.975 0-3.382-1.39t-1.406-3.354v-2.991l1.462 0.681 2.176-0.647v3.013q0 0.469 0.335 0.798t0.804 0.329 0.804-0.329 0.335-0.798v-3.069z"></path>
</svg>
