<!-- Generated by IcoMoon.io -->
<svg version="1.1" xmlns="http://www.w3.org/2000/svg" width="20" height="20" viewBox="0 0 20 20">
<title>stumbleupon-circle</title>
<path d="M11.094 9.364l1.004-0.301v-0.692q0-0.882-0.647-1.507t-1.54-0.625-1.54 0.619-0.647 1.501v3.158q0 0.223-0.156 0.374t-0.368 0.151-0.363-0.151-0.151-0.374v-1.339h-1.685v1.362q0 0.915 0.642 1.551t1.557 0.636q0.904 0 1.546-0.631t0.642-1.523v-3.125q0-0.212 0.151-0.368t0.374-0.156q0.212 0 0.363 0.156t0.151 0.368v0.603zM14.81 11.54v-1.362h-1.674v1.406q0 0.223-0.151 0.374t-0.374 0.151q-0.212 0-0.363-0.156t-0.151-0.368v-1.373l-1.004 0.29-0.67-0.313v1.373q0 0.893 0.647 1.529t1.551 0.636 1.546-0.636 0.642-1.551zM18.571 10q0 2.333-1.15 4.302t-3.119 3.119-4.302 1.15-4.302-1.15-3.119-3.119-1.15-4.302 1.15-4.302 3.119-3.119 4.302-1.15 4.302 1.15 3.119 3.119 1.15 4.302z"></path>
</svg>
