<!-- Generated by IcoMoon.io -->
<svg version="1.1" xmlns="http://www.w3.org/2000/svg" width="20" height="20" viewBox="0 0 20 20">
<title>subway</title>
<path d="M13.571 0q2.065 0 3.532 1.044t1.468 2.528v10q0 1.451-1.401 2.478t-3.41 1.083l2.377 2.254q0.179 0.167 0.089 0.391t-0.335 0.223h-11.786q-0.246 0-0.335-0.223t0.089-0.391l2.377-2.254q-2.009-0.056-3.41-1.083t-1.401-2.478v-10q0-1.484 1.468-2.528t3.532-1.044h7.143zM4.643 14.643q0.737 0 1.261-0.525t0.525-1.261-0.525-1.261-1.261-0.525-1.261 0.525-0.525 1.261 0.525 1.261 1.261 0.525zM9.286 8.571v-5.714h-6.071v5.714h6.071zM15.357 14.643q0.737 0 1.261-0.525t0.525-1.261-0.525-1.261-1.261-0.525-1.261 0.525-0.525 1.261 0.525 1.261 1.261 0.525zM17.143 8.571v-5.714h-6.429v5.714h6.429z"></path>
</svg>
