<!-- Generated by IcoMoon.io -->
<svg version="1.1" xmlns="http://www.w3.org/2000/svg" width="20" height="20" viewBox="0 0 20 20">
<title>suitcase</title>
<path d="M7.143 4.286h5.714v-1.429h-5.714v1.429zM3.214 4.286v14.286h-0.714q-1.027 0-1.763-0.737t-0.737-1.763v-9.286q0-1.027 0.737-1.763t1.763-0.737h0.714zM15.714 4.286v14.286h-11.429v-14.286h1.429v-1.786q0-0.446 0.313-0.759t0.759-0.313h6.429q0.446 0 0.759 0.313t0.313 0.759v1.786h1.429zM20 6.786v9.286q0 1.027-0.737 1.763t-1.763 0.737h-0.714v-14.286h0.714q1.027 0 1.763 0.737t0.737 1.763z"></path>
</svg>
