<!-- Generated by IcoMoon.io -->
<svg version="1.1" xmlns="http://www.w3.org/2000/svg" width="20" height="20" viewBox="0 0 20 20">
<title>sun-o</title>
<path d="M16.429 10q0-1.306-0.508-2.494t-1.373-2.054-2.054-1.373-2.494-0.508-2.494 0.508-2.054 1.373-1.373 2.054-0.508 2.494 0.508 2.494 1.373 2.054 2.054 1.373 2.494 0.508 2.494-0.508 2.054-1.373 1.373-2.054 0.508-2.494zM19.509 13.092q-0.045 0.167-0.223 0.223l-3.259 1.071v3.415q0 0.179-0.145 0.29-0.167 0.112-0.324 0.045l-3.259-1.049-2.009 2.768q-0.112 0.145-0.29 0.145t-0.29-0.145l-2.009-2.768-3.259 1.049q-0.156 0.067-0.324-0.045-0.145-0.112-0.145-0.29v-3.415l-3.259-1.071q-0.179-0.056-0.223-0.223-0.056-0.19 0.045-0.324l2.009-2.768-2.009-2.768q-0.1-0.145-0.045-0.324 0.045-0.167 0.223-0.223l3.259-1.071v-3.415q0-0.179 0.145-0.29 0.167-0.112 0.324-0.045l3.259 1.049 2.009-2.768q0.1-0.134 0.29-0.134t0.29 0.134l2.009 2.768 3.259-1.049q0.156-0.067 0.324 0.045 0.145 0.112 0.145 0.29v3.415l3.259 1.071q0.179 0.056 0.223 0.223 0.056 0.179-0.045 0.324l-2.009 2.768 2.009 2.768q0.1 0.134 0.045 0.324z"></path>
</svg>
