<!-- Generated by IcoMoon.io -->
<svg version="1.1" xmlns="http://www.w3.org/2000/svg" width="20" height="20" viewBox="0 0 20 20">
<title>superpowers</title>
<path d="M16.44 10.368q0.078-1.317-0.368-2.528t-1.261-2.109-1.975-1.462-2.467-0.642q-1.295-0.078-2.517 0.357t-2.143 1.233-1.507 1.953-0.664 2.461q-0.078 1.317 0.368 2.528t1.261 2.109 1.981 1.462 2.472 0.642q1.73 0.1 3.27-0.658t2.5-2.182 1.049-3.164zM20 0l-3.895 3.884q1.339 1.306 2.015 3.036t0.564 3.583q-0.123 2.042-1.138 3.783t-2.69 2.852-3.705 1.39l-11.15 1.473 3.873-3.873q-1.339-1.295-2.015-3.030t-0.564-3.588q0.123-2.054 1.138-3.795t2.695-2.852 3.711-1.39q1.864-0.246 5.58-0.737t5.58-0.737z"></path>
</svg>
