<!-- Generated by IcoMoon.io -->
<svg version="1.1" xmlns="http://www.w3.org/2000/svg" width="20" height="20" viewBox="0 0 20 20">
<title>superscript</title>
<path d="M11.44 15.279v1.864h-2.768l-1.775-2.813-0.268-0.469q-0.089-0.1-0.123-0.234h-0.033q-0.011 0.033-0.028 0.073t-0.039 0.089-0.033 0.073q-0.112 0.223-0.279 0.491l-1.73 2.79h-2.879v-1.864h1.429l2.199-3.248-2.065-3.036h-1.529v-1.875h3.080l1.551 2.545q0.022 0.045 0.257 0.469 0.089 0.1 0.123 0.234h0.033q0.033-0.1 0.123-0.234l0.279-0.469 1.563-2.545h2.868v1.875h-1.395l-2.054 2.98 2.277 3.304h1.217zM18.549 7.701v2.299h-5.737l-0.033-0.301q-0.045-0.313-0.045-0.513 0-0.714 0.29-1.306t0.725-0.965 0.938-0.725 0.938-0.608 0.725-0.603 0.29-0.714q0-0.424-0.329-0.698t-0.787-0.273q-0.569 0-1.083 0.435-0.156 0.123-0.402 0.424l-1.172-1.027q0.29-0.413 0.703-0.737 0.926-0.725 2.098-0.725 1.228 0 1.987 0.664t0.759 1.769q0 0.625-0.273 1.15t-0.692 0.854-0.91 0.653-0.915 0.564-0.731 0.575-0.34 0.703h2.589v-0.893h1.406z"></path>
</svg>
