<!-- Generated by IcoMoon.io -->
<svg version="1.1" xmlns="http://www.w3.org/2000/svg" width="20" height="20" viewBox="0 0 20 20">
<title>tablet</title>
<path d="M10.714 15.714q0-0.29-0.212-0.502t-0.502-0.212-0.502 0.212-0.212 0.502 0.212 0.502 0.502 0.212 0.502-0.212 0.212-0.502zM15 13.929v-10.714q0-0.145-0.106-0.251t-0.251-0.106h-9.286q-0.145 0-0.251 0.106t-0.106 0.251v10.714q0 0.145 0.106 0.251t0.251 0.106h9.286q0.145 0 0.251-0.106t0.106-0.251zM16.429 3.214v12.143q0 0.737-0.525 1.261t-1.261 0.525h-9.286q-0.737 0-1.261-0.525t-0.525-1.261v-12.143q0-0.737 0.525-1.261t1.261-0.525h9.286q0.737 0 1.261 0.525t0.525 1.261z"></path>
</svg>
