<!-- Generated by IcoMoon.io -->
<svg version="1.1" xmlns="http://www.w3.org/2000/svg" width="20" height="20" viewBox="0 0 20 20">
<title>table</title>
<path d="M6.429 15.357v-2.143q0-0.156-0.1-0.257t-0.257-0.1h-3.571q-0.156 0-0.257 0.1t-0.1 0.257v2.143q0 0.156 0.1 0.257t0.257 0.1h3.571q0.156 0 0.257-0.1t0.1-0.257zM6.429 11.071v-2.143q0-0.156-0.1-0.257t-0.257-0.1h-3.571q-0.156 0-0.257 0.1t-0.1 0.257v2.143q0 0.156 0.1 0.257t0.257 0.1h3.571q0.156 0 0.257-0.1t0.1-0.257zM12.143 15.357v-2.143q0-0.156-0.1-0.257t-0.257-0.1h-3.571q-0.156 0-0.257 0.1t-0.1 0.257v2.143q0 0.156 0.1 0.257t0.257 0.1h3.571q0.156 0 0.257-0.1t0.1-0.257zM6.429 6.786v-2.143q0-0.156-0.1-0.257t-0.257-0.1h-3.571q-0.156 0-0.257 0.1t-0.1 0.257v2.143q0 0.156 0.1 0.257t0.257 0.1h3.571q0.156 0 0.257-0.1t0.1-0.257zM12.143 11.071v-2.143q0-0.156-0.1-0.257t-0.257-0.1h-3.571q-0.156 0-0.257 0.1t-0.1 0.257v2.143q0 0.156 0.1 0.257t0.257 0.1h3.571q0.156 0 0.257-0.1t0.1-0.257zM17.857 15.357v-2.143q0-0.156-0.1-0.257t-0.257-0.1h-3.571q-0.156 0-0.257 0.1t-0.1 0.257v2.143q0 0.156 0.1 0.257t0.257 0.1h3.571q0.156 0 0.257-0.1t0.1-0.257zM12.143 6.786v-2.143q0-0.156-0.1-0.257t-0.257-0.1h-3.571q-0.156 0-0.257 0.1t-0.1 0.257v2.143q0 0.156 0.1 0.257t0.257 0.1h3.571q0.156 0 0.257-0.1t0.1-0.257zM17.857 11.071v-2.143q0-0.156-0.1-0.257t-0.257-0.1h-3.571q-0.156 0-0.257 0.1t-0.1 0.257v2.143q0 0.156 0.1 0.257t0.257 0.1h3.571q0.156 0 0.257-0.1t0.1-0.257zM17.857 6.786v-2.143q0-0.156-0.1-0.257t-0.257-0.1h-3.571q-0.156 0-0.257 0.1t-0.1 0.257v2.143q0 0.156 0.1 0.257t0.257 0.1h3.571q0.156 0 0.257-0.1t0.1-0.257zM19.286 3.214v12.143q0 0.737-0.525 1.261t-1.261 0.525h-15q-0.737 0-1.261-0.525t-0.525-1.261v-12.143q0-0.737 0.525-1.261t1.261-0.525h15q0.737 0 1.261 0.525t0.525 1.261z"></path>
</svg>
