<!-- Generated by IcoMoon.io -->
<svg version="1.1" xmlns="http://www.w3.org/2000/svg" width="20" height="20" viewBox="0 0 20 20">
<title>tachometer</title>
<path d="M4.286 12.857q0-0.592-0.419-1.010t-1.010-0.419-1.010 0.419-0.419 1.010 0.419 1.010 1.010 0.419 1.010-0.419 0.419-1.010zM6.429 7.857q0-0.592-0.419-1.010t-1.010-0.419-1.010 0.419-0.419 1.010 0.419 1.010 1.010 0.419 1.010-0.419 0.419-1.010zM11.205 13.225l1.127-4.263q0.067-0.29-0.084-0.541t-0.43-0.329-0.536 0.073-0.335 0.441l-1.127 4.263q-0.67 0.056-1.194 0.485t-0.703 1.099q-0.223 0.859 0.223 1.629t1.306 0.993 1.629-0.223 0.993-1.306q0.179-0.67-0.067-1.306t-0.804-1.016zM18.571 12.857q0-0.592-0.419-1.010t-1.010-0.419-1.010 0.419-0.419 1.010 0.419 1.010 1.010 0.419 1.010-0.419 0.419-1.010zM11.429 5.714q0-0.592-0.419-1.010t-1.010-0.419-1.010 0.419-0.419 1.010 0.419 1.010 1.010 0.419 1.010-0.419 0.419-1.010zM16.429 7.857q0-0.592-0.419-1.010t-1.010-0.419-1.010 0.419-0.419 1.010 0.419 1.010 1.010 0.419 1.010-0.419 0.419-1.010zM20 12.857q0 2.913-1.574 5.391-0.212 0.324-0.603 0.324h-15.647q-0.391 0-0.603-0.324-1.574-2.467-1.574-5.391 0-2.031 0.792-3.884t2.132-3.192 3.192-2.132 3.884-0.792 3.884 0.792 3.192 2.132 2.132 3.192 0.792 3.884z"></path>
</svg>
