<!-- Generated by IcoMoon.io -->
<svg version="1.1" xmlns="http://www.w3.org/2000/svg" width="20" height="20" viewBox="0 0 20 20">
<title>tag</title>
<path d="M6.429 5q0-0.592-0.419-1.010t-1.010-0.419-1.010 0.419-0.419 1.010 0.419 1.010 1.010 0.419 1.010-0.419 0.419-1.010zM18.337 11.429q0 0.592-0.413 1.004l-5.48 5.491q-0.435 0.413-1.016 0.413-0.592 0-1.004-0.413l-7.98-7.991q-0.424-0.413-0.72-1.127t-0.296-1.306v-4.643q0-0.58 0.424-1.004t1.004-0.424h4.643q0.592 0 1.306 0.296t1.138 0.72l7.98 7.969q0.413 0.435 0.413 1.016z"></path>
</svg>
