<!-- Generated by IcoMoon.io -->
<svg version="1.1" xmlns="http://www.w3.org/2000/svg" width="23" height="20" viewBox="0 0 23 20">
<title>tags</title>
<path d="M5.714 5q0-0.592-0.419-1.010t-1.010-0.419-1.010 0.419-0.419 1.010 0.419 1.010 1.010 0.419 1.010-0.419 0.419-1.010zM17.623 11.429q0 0.592-0.413 1.004l-5.48 5.491q-0.435 0.413-1.016 0.413-0.592 0-1.004-0.413l-7.98-7.991q-0.424-0.413-0.72-1.127t-0.296-1.306v-4.643q0-0.58 0.424-1.004t1.004-0.424h4.643q0.592 0 1.306 0.296t1.138 0.72l7.98 7.969q0.413 0.435 0.413 1.016zM21.908 11.429q0 0.592-0.413 1.004l-5.48 5.491q-0.435 0.413-1.016 0.413-0.402 0-0.658-0.156t-0.592-0.502l5.246-5.246q0.413-0.413 0.413-1.004 0-0.58-0.413-1.016l-7.98-7.969q-0.424-0.424-1.138-0.72t-1.306-0.296h2.5q0.592 0 1.306 0.296t1.138 0.72l7.98 7.969q0.413 0.435 0.413 1.016z"></path>
</svg>
