<!-- Generated by IcoMoon.io -->
<svg version="1.1" xmlns="http://www.w3.org/2000/svg" width="20" height="20" viewBox="0 0 20 20">
<title>tasks</title>
<path d="M11.429 15.714h7.143v-1.429h-7.143v1.429zM7.143 10h11.429v-1.429h-11.429v1.429zM14.286 4.286h4.286v-1.429h-4.286v1.429zM20 13.571v2.857q0 0.29-0.212 0.502t-0.502 0.212h-18.571q-0.29 0-0.502-0.212t-0.212-0.502v-2.857q0-0.29 0.212-0.502t0.502-0.212h18.571q0.29 0 0.502 0.212t0.212 0.502zM20 7.857v2.857q0 0.29-0.212 0.502t-0.502 0.212h-18.571q-0.29 0-0.502-0.212t-0.212-0.502v-2.857q0-0.29 0.212-0.502t0.502-0.212h18.571q0.29 0 0.502 0.212t0.212 0.502zM20 2.143v2.857q0 0.29-0.212 0.502t-0.502 0.212h-18.571q-0.29 0-0.502-0.212t-0.212-0.502v-2.857q0-0.29 0.212-0.502t0.502-0.212h18.571q0.29 0 0.502 0.212t0.212 0.502z"></path>
</svg>
