<!-- Generated by IcoMoon.io -->
<svg version="1.1" xmlns="http://www.w3.org/2000/svg" width="23" height="20" viewBox="0 0 23 20">
<title>taxi</title>
<path d="M20.357 10q1.038 0 1.769 0.731t0.731 1.769v4.286q0 0.156-0.1 0.257t-0.257 0.1h-1.071v0.714q0 0.893-0.625 1.518t-1.518 0.625-1.518-0.625-0.625-1.518v-0.714h-11.429v0.714q0 0.893-0.625 1.518t-1.518 0.625-1.518-0.625-0.625-1.518v-0.714h-1.071q-0.156 0-0.257-0.1t-0.1-0.257v-4.286q0-1.038 0.731-1.769t1.769-0.731h0.313l1.172-4.676q0.257-1.049 1.161-1.758t1.998-0.709h1.429v-2.5q0-0.156 0.1-0.257t0.257-0.1h5q0.156 0 0.257 0.1t0.1 0.257v2.5h1.429q1.094 0 1.998 0.709t1.161 1.758l1.172 4.676h0.313zM3.571 15.357q0.737 0 1.261-0.525t0.525-1.261-0.525-1.261-1.261-0.525-1.261 0.525-0.525 1.261 0.525 1.261 1.261 0.525zM5.759 10h11.339l-0.993-3.984q-0.022-0.089-0.156-0.195t-0.234-0.106h-8.571q-0.1 0-0.234 0.106t-0.156 0.195zM19.286 15.357q0.737 0 1.261-0.525t0.525-1.261-0.525-1.261-1.261-0.525-1.261 0.525-0.525 1.261 0.525 1.261 1.261 0.525z"></path>
</svg>
