<!-- Generated by IcoMoon.io -->
<svg version="1.1" xmlns="http://www.w3.org/2000/svg" width="20" height="20" viewBox="0 0 20 20">
<title>telegram</title>
<path d="M13.27 14.587l1.641-7.734q0.1-0.491-0.117-0.703t-0.575-0.078l-9.643 3.717q-0.324 0.123-0.441 0.279t-0.028 0.296 0.357 0.218l2.467 0.77 5.725-3.605q0.234-0.156 0.357-0.067 0.078 0.056-0.045 0.167l-4.632 4.185-0.179 2.545q0.257 0 0.502-0.246l1.205-1.161 2.5 1.842q0.714 0.402 0.904-0.424zM20 10q0 2.031-0.792 3.884t-2.132 3.192-3.192 2.132-3.884 0.792-3.884-0.792-3.192-2.132-2.132-3.192-0.792-3.884 0.792-3.884 2.132-3.192 3.192-2.132 3.884-0.792 3.884 0.792 3.192 2.132 2.132 3.192 0.792 3.884z"></path>
</svg>
