<!-- Generated by IcoMoon.io -->
<svg version="1.1" xmlns="http://www.w3.org/2000/svg" width="23" height="20" viewBox="0 0 23 20">
<title>television</title>
<path d="M20 13.929v-10.714q0-0.145-0.106-0.251t-0.251-0.106h-17.857q-0.145 0-0.251 0.106t-0.106 0.251v10.714q0 0.145 0.106 0.251t0.251 0.106h17.857q0.145 0 0.251-0.106t0.106-0.251zM21.429 3.214v10.714q0 0.737-0.525 1.261t-1.261 0.525h-8.214v1.429h3.929q0.156 0 0.257 0.1t0.1 0.257v0.714q0 0.156-0.1 0.257t-0.257 0.1h-9.286q-0.156 0-0.257-0.1t-0.1-0.257v-0.714q0-0.156 0.1-0.257t0.257-0.1h3.929v-1.429h-8.214q-0.737 0-1.261-0.525t-0.525-1.261v-10.714q0-0.737 0.525-1.261t1.261-0.525h17.857q0.737 0 1.261 0.525t0.525 1.261z"></path>
</svg>
