<!-- Generated by IcoMoon.io -->
<svg version="1.1" xmlns="http://www.w3.org/2000/svg" width="20" height="20" viewBox="0 0 20 20">
<title>tencent-weibo</title>
<path d="M12.254 6.384q0 0.893-0.636 1.523t-1.518 0.631q-0.67 0-1.239-0.391-0.692 0.748-1.283 1.629-2.757 4.141-2.254 9.587 0.011 0.246-0.14 0.43t-0.385 0.206h-0.056q-0.223 0-0.391-0.151t-0.19-0.374q-0.156-1.406-0.039-2.762t0.329-2.422 0.603-2.076 0.77-1.735 0.826-1.395q0.681-1.004 1.473-1.842-0.179-0.391-0.179-0.859 0-0.893 0.631-1.523t1.523-0.631 1.523 0.631 0.631 1.523zM16.507 6.507q0 1.763-0.871 3.259t-2.372 2.366-3.265 0.871q-0.714 0-1.462-0.156-0.234-0.056-0.363-0.262t-0.073-0.441q0.056-0.223 0.257-0.352t0.435-0.084q0.569 0.145 1.205 0.145 1.083 0 2.076-0.424t1.708-1.138 1.138-1.708 0.424-2.076-0.424-2.076-1.138-1.708-1.708-1.138-2.076-0.424-2.076 0.424-1.708 1.138-1.138 1.708-0.424 2.076q0 1.272 0.58 2.433 0.112 0.223 0.039 0.446t-0.285 0.335-0.441 0.033-0.34-0.29q-0.714-1.373-0.714-2.958 0-1.328 0.519-2.533t1.39-2.076 2.076-1.384 2.522-0.513q1.763 0 3.265 0.871t2.372 2.372 0.871 3.265z"></path>
</svg>
