<!-- Generated by IcoMoon.io -->
<svg version="1.1" xmlns="http://www.w3.org/2000/svg" width="20" height="20" viewBox="0 0 20 20">
<title>terminal</title>
<path d="M7.243 10.971l-5.201 5.201q-0.112 0.112-0.257 0.112t-0.257-0.112l-0.558-0.558q-0.112-0.112-0.112-0.257t0.112-0.257l4.386-4.386-4.386-4.386q-0.112-0.112-0.112-0.257t0.112-0.257l0.558-0.558q0.112-0.112 0.257-0.112t0.257 0.112l5.201 5.201q0.112 0.112 0.112 0.257t-0.112 0.257zM19.286 16.071v0.714q0 0.156-0.1 0.257t-0.257 0.1h-10.714q-0.156 0-0.257-0.1t-0.1-0.257v-0.714q0-0.156 0.1-0.257t0.257-0.1h10.714q0.156 0 0.257 0.1t0.1 0.257z"></path>
</svg>
