<!-- Generated by IcoMoon.io -->
<svg version="1.1" xmlns="http://www.w3.org/2000/svg" width="20" height="20" viewBox="0 0 20 20">
<title>text-height</title>
<path d="M19.464 15.714q0.368 0 0.469 0.206t-0.123 0.497l-1.406 1.808q-0.223 0.29-0.547 0.29t-0.547-0.29l-1.406-1.808q-0.223-0.29-0.123-0.497t0.469-0.206h0.893v-11.429h-0.893q-0.368 0-0.469-0.206t0.123-0.497l1.406-1.808q0.223-0.29 0.547-0.29t0.547 0.29l1.406 1.808q0.223 0.29 0.123 0.497t-0.469 0.206h-0.893v11.429h0.893zM0.904 1.44l0.603 0.301q0.134 0.056 2.355 0.056 0.491 0 1.473-0.022t1.473-0.022q0.402 0 1.2 0.006t1.2 0.006h3.27q0.067 0 0.234 0.006t0.229 0 0.179-0.033 0.195-0.1 0.167-0.195l0.469-0.011q0.045 0 0.156 0.006t0.156 0.006q0.022 1.25 0.022 3.75 0 0.893-0.056 1.217-0.435 0.156-0.759 0.201-0.279-0.491-0.603-1.429-0.033-0.1-0.123-0.536t-0.162-0.82-0.084-0.396q-0.067-0.089-0.134-0.14t-0.173-0.067-0.145-0.028-0.201-0.006-0.184 0.006q-0.19 0-0.742-0.006t-0.831-0.006-0.714 0.022-0.792 0.067q-0.1 0.904-0.089 1.518 0 1.049 0.022 4.33t0.022 5.078q0 0.179-0.028 0.798t0 1.021 0.14 0.77q0.446 0.234 1.384 0.474t1.339 0.419q0.056 0.446 0.056 0.558 0 0.156-0.033 0.324l-0.379 0.011q-0.848 0.022-2.433-0.089t-2.31-0.112q-0.558 0-1.685 0.1t-1.696 0.1q-0.033-0.569-0.033-0.58v-0.1q0.19-0.301 0.686-0.48t1.099-0.324 0.871-0.301q0.212-0.469 0.212-4.275 0-1.127-0.033-3.382t-0.033-3.382v-1.306q0-0.022 0.006-0.173t0.006-0.279-0.011-0.285-0.033-0.268-0.056-0.156q-0.123-0.134-1.808-0.134-0.368 0-1.038 0.134t-0.893 0.29q-0.212 0.145-0.379 0.809t-0.352 1.239-0.474 0.597q-0.469-0.29-0.625-0.491v-4.275z"></path>
</svg>
