<!-- Generated by IcoMoon.io -->
<svg version="1.1" xmlns="http://www.w3.org/2000/svg" width="20" height="20" viewBox="0 0 20 20">
<title>text-width</title>
<path d="M2.333 1.44l0.603 0.301q0.134 0.056 2.355 0.056 0.491 0 1.473-0.022t1.473-0.022q0.781 0 2.751-0.011t3.398-0.006 2.757 0.050q0.368 0.011 0.625-0.346l0.469-0.011q0.045 0 0.156 0.006t0.156 0.006q0.022 1.25 0.022 3.75 0 0.893-0.056 1.217-0.435 0.156-0.759 0.201-0.279-0.491-0.603-1.429-0.033-0.1-0.123-0.53t-0.167-0.82-0.078-0.402q-0.112-0.145-0.301-0.212-0.056-0.022-0.737-0.022-0.335 0-1.038-0.011t-1.15-0.011-1.049 0.022-1.071 0.078q-0.1 0.904-0.089 1.518l0.011 1.696v-0.58q0 0.614 0.011 1.719t0.017 2.009 0.006 1.708q0 0.179-0.028 0.798t0 1.021 0.14 0.77q0.446 0.234 1.384 0.474t1.339 0.419q0.056 0.446 0.056 0.558 0 0.156-0.033 0.324l-0.379 0.011q-0.848 0.022-2.433-0.089t-2.31-0.112q-0.558 0-1.685 0.1t-1.696 0.1q-0.033-0.569-0.033-0.58v-0.1q0.19-0.301 0.686-0.48t1.099-0.324 0.871-0.301q0.078-0.179 0.128-0.826t0.067-1.624 0.017-1.73-0.006-1.713-0.006-0.993q0-0.078-0.028-0.24t-0.028-0.251q0-0.078 0.006-0.491t0.011-0.815 0-0.854-0.033-0.753-0.073-0.357q-0.123-0.134-1.808-0.134-0.458 0-1.819 0.151t-1.54 0.273q-0.212 0.134-0.379 0.798t-0.352 1.244-0.474 0.603q-0.469-0.29-0.625-0.491v-4.275zM16.049 15.748q0.134 0 0.469 0.218t0.642 0.463 0.664 0.547 0.402 0.335q0.29 0.234 0.29 0.547t-0.29 0.547q-0.045 0.033-0.402 0.335t-0.664 0.547-0.642 0.463-0.469 0.218q-0.145 0-0.229-0.117t-0.112-0.318-0.028-0.374 0.017-0.368 0.017-0.218h-11.429q0 0.022 0.017 0.218t0.017 0.368-0.028 0.374-0.112 0.318-0.229 0.117q-0.134 0-0.469-0.218t-0.642-0.463-0.664-0.547-0.402-0.335q-0.29-0.234-0.29-0.547t0.29-0.547q0.045-0.033 0.402-0.335t0.664-0.547 0.642-0.463 0.469-0.218q0.145 0 0.229 0.117t0.112 0.318 0.028 0.374-0.017 0.368-0.017 0.218h11.429q0-0.022-0.017-0.218t-0.017-0.368 0.028-0.374 0.112-0.318 0.229-0.117z"></path>
</svg>
