<!-- Generated by IcoMoon.io -->
<svg version="1.1" xmlns="http://www.w3.org/2000/svg" width="20" height="20" viewBox="0 0 20 20">
<title>th</title>
<path d="M5.714 13.929v2.143q0 0.446-0.313 0.759t-0.759 0.313h-3.571q-0.446 0-0.759-0.313t-0.313-0.759v-2.143q0-0.446 0.313-0.759t0.759-0.313h3.571q0.446 0 0.759 0.313t0.313 0.759zM5.714 8.214v2.143q0 0.446-0.313 0.759t-0.759 0.313h-3.571q-0.446 0-0.759-0.313t-0.313-0.759v-2.143q0-0.446 0.313-0.759t0.759-0.313h3.571q0.446 0 0.759 0.313t0.313 0.759zM12.857 13.929v2.143q0 0.446-0.313 0.759t-0.759 0.313h-3.571q-0.446 0-0.759-0.313t-0.313-0.759v-2.143q0-0.446 0.313-0.759t0.759-0.313h3.571q0.446 0 0.759 0.313t0.313 0.759zM5.714 2.5v2.143q0 0.446-0.313 0.759t-0.759 0.313h-3.571q-0.446 0-0.759-0.313t-0.313-0.759v-2.143q0-0.446 0.313-0.759t0.759-0.313h3.571q0.446 0 0.759 0.313t0.313 0.759zM12.857 8.214v2.143q0 0.446-0.313 0.759t-0.759 0.313h-3.571q-0.446 0-0.759-0.313t-0.313-0.759v-2.143q0-0.446 0.313-0.759t0.759-0.313h3.571q0.446 0 0.759 0.313t0.313 0.759zM20 13.929v2.143q0 0.446-0.313 0.759t-0.759 0.313h-3.571q-0.446 0-0.759-0.313t-0.313-0.759v-2.143q0-0.446 0.313-0.759t0.759-0.313h3.571q0.446 0 0.759 0.313t0.313 0.759zM12.857 2.5v2.143q0 0.446-0.313 0.759t-0.759 0.313h-3.571q-0.446 0-0.759-0.313t-0.313-0.759v-2.143q0-0.446 0.313-0.759t0.759-0.313h3.571q0.446 0 0.759 0.313t0.313 0.759zM20 8.214v2.143q0 0.446-0.313 0.759t-0.759 0.313h-3.571q-0.446 0-0.759-0.313t-0.313-0.759v-2.143q0-0.446 0.313-0.759t0.759-0.313h3.571q0.446 0 0.759 0.313t0.313 0.759zM20 2.5v2.143q0 0.446-0.313 0.759t-0.759 0.313h-3.571q-0.446 0-0.759-0.313t-0.313-0.759v-2.143q0-0.446 0.313-0.759t0.759-0.313h3.571q0.446 0 0.759 0.313t0.313 0.759z"></path>
</svg>
