<!-- Generated by IcoMoon.io -->
<svg version="1.1" xmlns="http://www.w3.org/2000/svg" width="20" height="20" viewBox="0 0 20 20">
<title>themeisle</title>
<path d="M9.509 3.449q0 0.324-0.19 0.586t-0.502 0.262-0.502-0.262-0.19-0.586 0.19-0.586 0.502-0.262 0.502 0.262 0.19 0.586zM7.679 18.806v-1.272q0-0.335-0.229-0.575t-0.564-0.24-0.558 0.24-0.223 0.575v1.272q0 0.335 0.229 0.58t0.552 0.246q0.335 0 0.564-0.246t0.229-0.58zM9.598 18.806v-1.272q0-0.335-0.223-0.575t-0.558-0.24-0.564 0.24-0.229 0.575v1.272q0 0.335 0.229 0.58t0.564 0.246q0.324 0 0.552-0.246t0.229-0.58zM11.54 18.806v-1.272q0-0.335-0.229-0.575t-0.564-0.24-0.564 0.24-0.229 0.575v1.272q0 0.335 0.229 0.58t0.564 0.246 0.564-0.246 0.229-0.58zM13.482 18.806v-1.272q0-0.335-0.229-0.575t-0.564-0.24-0.564 0.24-0.229 0.575v1.272q0 0.335 0.229 0.58t0.564 0.246 0.564-0.246 0.229-0.58zM16.473 11.172q-0.937 1.786-2.589 2.896t-3.605 1.11q-1.373 0-2.561-0.575t-1.992-1.529-1.261-2.204-0.458-2.589q0-0.982 0.234-1.942-1.161 1.953-1.161 4.353 0 1.808 0.725 3.482t2.065 2.801q0.335-0.636 1.016-0.636 0.625 0 0.96 0.558 0.357-0.558 0.971-0.558 0.625 0 0.96 0.558 0.357-0.558 0.971-0.558t0.971 0.558q0.335-0.558 0.96-0.558 0.313 0 0.586 0.173t0.419 0.452q1.25-1.049 1.975-2.584t0.815-3.209zM14.799 10.848q0-0.837-0.804-0.837-0.19 0-0.525 0.067-1.060 0.212-1.663 0.212-2.522 0-2.522-2.712 0-0.96 0.335-2.277-0.926 1.417-0.926 3.069 0 1.674 0.993 2.907t2.623 1.233q1.239 0 2.344-0.781 0.145-0.536 0.145-0.882zM9.866 3.493q0-0.558-0.357-0.999t-0.904-0.441-0.904 0.441-0.357 0.999q0 0.569 0.352 1.010t0.91 0.441 0.91-0.441 0.352-1.010zM16.886 7.277q0-1.071-0.419-1.998t-1.261-1.529-1.936-0.603q-0.859 0-1.663 0.391t-1.417 1.049q-0.536 1.775-0.536 2.991 0 1.161 0.508 1.752t1.646 0.592q0.592 0 1.585-0.212 0.402-0.067 0.592-0.067 0.569 0 0.865 0.313t0.296 0.893q0 0.29-0.045 0.513 0.837-0.759 1.311-1.847t0.474-2.238zM20 9.699q0 1.239-0.374 2.785t-1.044 2.282q-0.647 0.714-2.176 1.59t-2.545 1.166l-0.045 0.011v1.272q0 0.48-0.329 0.837t-0.809 0.357q-0.625 0-0.96-0.558-0.357 0.558-0.971 0.558t-0.971-0.558q-0.335 0.558-0.96 0.558-0.614 0-0.971-0.558-0.335 0.558-0.96 0.558-0.525 0-0.837-0.374t-0.313-0.91q-1.004 0.759-2.21 0.759-1.317 0-2.355-0.893 0.603-0.011 1.183-0.223-1.261-0.346-2.031-1.417 0.357 0.078 0.792 0.078 0.993 0 1.83-0.513-2.143-2.143-2.679-3.415-0.268-0.625-0.268-1.786 0-0.636 0.1-1.401t0.352-1.635 0.614-1.574 0.965-1.172 1.339-0.469q0.658 0 0.904 0.58 0.212-0.324 0.469-0.603 0.022-0.033 0.134-0.145t0.145-0.179q0.112-0.167 0.257-0.424t0.279-0.469 0.313-0.435q0.971-1.239 2.36-1.975t2.907-0.737q0.391 0 0.692 0.045 0.658-0.714 1.629-0.714 0.926 0 1.563 0.636 0.056 0.056 0.056 0.134 0 0.056-0.067 0.151t-0.14 0.179-0.179 0.19l-0.117 0.117q0.19 0.067 0.402 0.201t0.212 0.268q0 0.067-0.179 0.279 1.752 1.54 2.199 4.219 0.279-0.335 0.67-0.335 0.502 0 1.116 0.547 1.004 0.893 1.004 3.114z"></path>
</svg>
