<!-- Generated by IcoMoon.io -->
<svg version="1.1" xmlns="http://www.w3.org/2000/svg" width="20" height="20" viewBox="0 0 20 20">
<title>thermometer-quarter</title>
<path d="M11.429 15q0 0.893-0.625 1.518t-1.518 0.625-1.518-0.625-0.625-1.518q0-0.67 0.391-1.228t1.038-0.792v-1.551h1.429v1.551q0.647 0.234 1.038 0.792t0.391 1.228zM12.857 15q0-0.859-0.379-1.607t-1.049-1.25v-8.571q0-0.893-0.625-1.518t-1.518-0.625-1.518 0.625-0.625 1.518v8.571q-0.67 0.502-1.049 1.25t-0.379 1.607q0 1.484 1.044 2.528t2.528 1.044 2.528-1.044 1.044-2.528zM14.286 15q0 2.065-1.468 3.532t-3.532 1.468-3.532-1.468-1.468-3.532q0-2.031 1.429-3.493v-7.935q0-1.484 1.044-2.528t2.528-1.044 2.528 1.044 1.044 2.528v7.935q1.429 1.462 1.429 3.493zM15.714 8.571v1.429h-2.143v-1.429h2.143zM15.714 5.714v1.429h-2.143v-1.429h2.143zM15.714 2.857v1.429h-2.143v-1.429h2.143z"></path>
</svg>
