<!-- Generated by IcoMoon.io -->
<svg version="1.1" xmlns="http://www.w3.org/2000/svg" width="20" height="20" viewBox="0 0 20 20">
<title>thumb-tack</title>
<path d="M8.929 9.643v-5q0-0.156-0.1-0.257t-0.257-0.1-0.257 0.1-0.1 0.257v5q0 0.156 0.1 0.257t0.257 0.1 0.257-0.1 0.1-0.257zM16.429 13.571q0 0.29-0.212 0.502t-0.502 0.212h-4.788l-0.569 5.391q-0.022 0.134-0.117 0.229t-0.229 0.095h-0.011q-0.301 0-0.357-0.301l-0.848-5.413h-4.509q-0.29 0-0.502-0.212t-0.212-0.502q0-1.373 0.876-2.472t1.981-1.099v-5.714q-0.58 0-1.004-0.424t-0.424-1.004 0.424-1.004 1.004-0.424h7.143q0.58 0 1.004 0.424t0.424 1.004-0.424 1.004-1.004 0.424v5.714q1.105 0 1.981 1.099t0.876 2.472z"></path>
</svg>
