<!-- Generated by IcoMoon.io -->
<svg version="1.1" xmlns="http://www.w3.org/2000/svg" width="20" height="20" viewBox="0 0 20 20">
<title>thumbs-up</title>
<path d="M3.571 15q0-0.29-0.212-0.502t-0.502-0.212q-0.301 0-0.508 0.212t-0.206 0.502q0 0.301 0.206 0.508t0.508 0.206q0.29 0 0.502-0.206t0.212-0.508zM5.357 9.286v7.143q0 0.29-0.212 0.502t-0.502 0.212h-3.214q-0.29 0-0.502-0.212t-0.212-0.502v-7.143q0-0.29 0.212-0.502t0.502-0.212h3.214q0.29 0 0.502 0.212t0.212 0.502zM18.571 9.286q0 0.96-0.614 1.663 0.167 0.491 0.167 0.848 0.033 0.848-0.48 1.529 0.19 0.625 0 1.306-0.167 0.636-0.603 1.049 0.1 1.25-0.547 2.020-0.714 0.848-2.199 0.871h-1.44q-0.737 0-1.607-0.173t-1.356-0.324-1.345-0.441q-1.373-0.48-1.763-0.491-0.29-0.011-0.502-0.218t-0.212-0.497v-7.154q0-0.279 0.201-0.485t0.48-0.229q0.268-0.022 0.848-0.658t1.127-1.35q0.759-0.971 1.127-1.339 0.201-0.201 0.346-0.536t0.195-0.541 0.151-0.675q0.078-0.435 0.14-0.681t0.218-0.58 0.379-0.558q0.212-0.212 0.502-0.212 0.513 0 0.921 0.117t0.67 0.29 0.446 0.452 0.268 0.502 0.134 0.558 0.056 0.502 0.006 0.435q0 0.424-0.106 0.848t-0.212 0.67-0.307 0.625q-0.033 0.067-0.112 0.201t-0.123 0.246-0.089 0.268h3.092q0.871 0 1.507 0.636t0.636 1.507z"></path>
</svg>
