<!-- Generated by IcoMoon.io -->
<svg version="1.1" xmlns="http://www.w3.org/2000/svg" width="20" height="20" viewBox="0 0 20 20">
<title>thumbs-down</title>
<path d="M3.571 6.429q0 0.29-0.212 0.502t-0.502 0.212q-0.301 0-0.508-0.212t-0.206-0.502q0-0.301 0.206-0.508t0.508-0.206q0.29 0 0.502 0.206t0.212 0.508zM5.357 12.143v-7.143q0-0.29-0.212-0.502t-0.502-0.212h-3.214q-0.29 0-0.502 0.212t-0.212 0.502v7.143q0 0.29 0.212 0.502t0.502 0.212h3.214q0.29 0 0.502-0.212t0.212-0.502zM17.958 10.48q0.614 0.681 0.614 1.663-0.011 0.871-0.642 1.507t-1.501 0.636h-3.092q0.045 0.156 0.089 0.268t0.123 0.246 0.112 0.201q0.201 0.413 0.301 0.636t0.212 0.653 0.112 0.854q0 0.268-0.006 0.435t-0.056 0.502-0.134 0.558-0.268 0.502-0.446 0.452-0.67 0.29-0.921 0.117q-0.29 0-0.502-0.212-0.223-0.223-0.379-0.558t-0.218-0.58-0.14-0.681q-0.1-0.469-0.151-0.675t-0.195-0.541-0.346-0.536q-0.368-0.368-1.127-1.339-0.547-0.714-1.127-1.35t-0.848-0.658q-0.279-0.022-0.48-0.229t-0.201-0.485v-7.154q0-0.29 0.212-0.497t0.502-0.218q0.391-0.011 1.763-0.491 0.859-0.29 1.345-0.441t1.356-0.324 1.607-0.173h1.44q1.484 0.022 2.199 0.871 0.647 0.77 0.547 2.020 0.435 0.413 0.603 1.049 0.19 0.681 0 1.306 0.513 0.681 0.48 1.529 0 0.357-0.167 0.848z"></path>
</svg>
