<!-- Generated by IcoMoon.io -->
<svg version="1.1" xmlns="http://www.w3.org/2000/svg" width="20" height="20" viewBox="0 0 20 20">
<title>thumbs-o-up</title>
<path d="M4.286 15q0-0.29-0.212-0.502t-0.502-0.212-0.502 0.212-0.212 0.502 0.212 0.502 0.502 0.212 0.502-0.212 0.212-0.502zM17.143 8.571q0-0.569-0.435-0.999t-0.993-0.43h-3.929q0-0.647 0.536-1.78t0.536-1.791q0-1.094-0.357-1.618t-1.429-0.525q-0.29 0.29-0.424 0.949t-0.34 1.401-0.664 1.222q-0.246 0.257-0.859 1.016-0.045 0.056-0.257 0.335t-0.352 0.458-0.385 0.474-0.446 0.491-0.43 0.396-0.446 0.301-0.396 0.1h-0.357v7.143h0.357q0.145 0 0.352 0.033t0.368 0.073 0.424 0.123 0.391 0.128 0.396 0.14 0.324 0.117q2.355 0.815 3.817 0.815h1.35q2.143 0 2.143-1.864 0-0.29-0.056-0.625 0.335-0.179 0.53-0.586t0.195-0.82-0.201-0.77q0.592-0.558 0.592-1.328 0-0.279-0.112-0.619t-0.279-0.53q0.357-0.011 0.597-0.525t0.24-0.904zM18.571 8.56q0 0.993-0.547 1.819 0.1 0.368 0.1 0.77 0 0.859-0.424 1.607 0.033 0.234 0.033 0.48 0 1.127-0.67 1.987 0.011 1.551-0.949 2.45t-2.533 0.898h-1.44q-1.071 0-2.115-0.251t-2.416-0.731q-1.295-0.446-1.54-0.446h-3.214q-0.592 0-1.010-0.419t-0.419-1.010v-7.143q0-0.592 0.419-1.010t1.010-0.419h3.058q0.402-0.268 1.529-1.73 0.647-0.837 1.194-1.429 0.268-0.279 0.396-0.954t0.34-1.412 0.692-1.205q0.435-0.413 1.004-0.413 0.938 0 1.685 0.363t1.138 1.133 0.391 2.076q0 1.038-0.536 2.143h1.964q1.161 0 2.009 0.848t0.848 1.998z"></path>
</svg>
