<!-- Generated by IcoMoon.io -->
<svg version="1.1" xmlns="http://www.w3.org/2000/svg" width="20" height="20" viewBox="0 0 20 20">
<title>thumbs-o-down</title>
<path d="M4.286 5q0-0.29-0.212-0.502t-0.502-0.212-0.502 0.212-0.212 0.502 0.212 0.502 0.502 0.212 0.502-0.212 0.212-0.502zM17.143 11.429q0-0.391-0.24-0.904t-0.597-0.525q0.167-0.19 0.279-0.53t0.112-0.619q0-0.77-0.592-1.328 0.201-0.346 0.201-0.77 0-0.413-0.195-0.82t-0.53-0.586q0.056-0.335 0.056-0.625 0-0.949-0.547-1.406t-1.518-0.458h-1.429q-1.462 0-3.817 0.815-0.056 0.022-0.324 0.117t-0.396 0.14-0.391 0.128-0.424 0.123-0.368 0.073-0.352 0.033h-0.357v7.143h0.357q0.179 0 0.396 0.1t0.446 0.301 0.43 0.396 0.446 0.491 0.385 0.474 0.352 0.458 0.257 0.335q0.614 0.759 0.859 1.016 0.458 0.48 0.664 1.222t0.34 1.401 0.424 0.949q1.071 0 1.429-0.525t0.357-1.618q0-0.658-0.536-1.791t-0.536-1.78h3.929q0.558 0 0.993-0.43t0.435-0.999zM18.571 11.44q0 1.15-0.848 1.998t-2.009 0.848h-1.964q0.536 1.105 0.536 2.143 0 1.317-0.391 2.076-0.391 0.77-1.138 1.133t-1.685 0.363q-0.569 0-1.004-0.413-0.379-0.368-0.603-0.915t-0.285-1.010-0.195-0.943-0.346-0.714q-0.536-0.558-1.194-1.417-1.127-1.462-1.529-1.73h-3.058q-0.592 0-1.010-0.419t-0.419-1.010v-7.143q0-0.592 0.419-1.010t1.010-0.419h3.214q0.246 0 1.54-0.446 1.429-0.491 2.489-0.737t2.232-0.246h1.25q1.563 0 2.528 0.882t0.954 2.411v0.056q0.67 0.859 0.67 1.987 0 0.246-0.033 0.48 0.424 0.748 0.424 1.607 0 0.402-0.1 0.77 0.547 0.815 0.547 1.819z"></path>
</svg>
