<!-- Generated by IcoMoon.io -->
<svg version="1.1" xmlns="http://www.w3.org/2000/svg" width="20" height="20" viewBox="0 0 20 20">
<title>ticket</title>
<path d="M11.429 5.045l3.527 3.527-6.384 6.384-3.527-3.527zM9.074 15.971l6.897-6.897q0.212-0.212 0.212-0.502t-0.212-0.502l-4.040-4.040q-0.201-0.201-0.502-0.201t-0.502 0.201l-6.897 6.897q-0.212 0.212-0.212 0.502t0.212 0.502l4.040 4.040q0.201 0.201 0.502 0.201t0.502-0.201zM18.996 8.862l-10.123 10.134q-0.413 0.413-1.010 0.413t-1.010-0.413l-1.406-1.406q0.625-0.625 0.625-1.518t-0.625-1.518-1.518-0.625-1.518 0.625l-1.395-1.406q-0.413-0.413-0.413-1.010t0.413-1.010l10.123-10.112q0.413-0.413 1.010-0.413t1.010 0.413l1.395 1.395q-0.625 0.625-0.625 1.518t0.625 1.518 1.518 0.625 1.518-0.625l1.406 1.395q0.413 0.413 0.413 1.010t-0.413 1.010z"></path>
</svg>
