<!-- Generated by IcoMoon.io -->
<svg version="1.1" xmlns="http://www.w3.org/2000/svg" width="20" height="20" viewBox="0 0 20 20">
<title>times-circle-o</title>
<path d="M13.672 12.042l-1.629 1.629q-0.112 0.112-0.257 0.112t-0.257-0.112l-1.529-1.529-1.529 1.529q-0.112 0.112-0.257 0.112t-0.257-0.112l-1.629-1.629q-0.112-0.112-0.112-0.257t0.112-0.257l1.529-1.529-1.529-1.529q-0.112-0.112-0.112-0.257t0.112-0.257l1.629-1.629q0.112-0.112 0.257-0.112t0.257 0.112l1.529 1.529 1.529-1.529q0.112-0.112 0.257-0.112t0.257 0.112l1.629 1.629q0.112 0.112 0.112 0.257t-0.112 0.257l-1.529 1.529 1.529 1.529q0.112 0.112 0.112 0.257t-0.112 0.257zM16.071 10q0-1.652-0.815-3.047t-2.21-2.21-3.047-0.815-3.047 0.815-2.21 2.21-0.815 3.047 0.815 3.047 2.21 2.21 3.047 0.815 3.047-0.815 2.21-2.21 0.815-3.047zM18.571 10q0 2.333-1.15 4.302t-3.119 3.119-4.302 1.15-4.302-1.15-3.119-3.119-1.15-4.302 1.15-4.302 3.119-3.119 4.302-1.15 4.302 1.15 3.119 3.119 1.15 4.302z"></path>
</svg>
