<!-- Generated by IcoMoon.io -->
<svg version="1.1" xmlns="http://www.w3.org/2000/svg" width="20" height="20" viewBox="0 0 20 20">
<title>times-rectangle</title>
<path d="M13.114 14.743l1.629-1.629q0.112-0.112 0.112-0.257t-0.112-0.257l-2.6-2.6 2.6-2.6q0.112-0.112 0.112-0.257t-0.112-0.257l-1.629-1.629q-0.112-0.112-0.257-0.112t-0.257 0.112l-2.6 2.6-2.6-2.6q-0.112-0.112-0.257-0.112t-0.257 0.112l-1.629 1.629q-0.112 0.112-0.112 0.257t0.112 0.257l2.6 2.6-2.6 2.6q-0.112 0.112-0.112 0.257t0.112 0.257l1.629 1.629q0.112 0.112 0.257 0.112t0.257-0.112l2.6-2.6 2.6 2.6q0.112 0.112 0.257 0.112t0.257-0.112zM20 3.214v13.571q0 0.737-0.525 1.261t-1.261 0.525h-16.429q-0.737 0-1.261-0.525t-0.525-1.261v-13.571q0-0.737 0.525-1.261t1.261-0.525h16.429q0.737 0 1.261 0.525t0.525 1.261z"></path>
</svg>
