<!-- Generated by IcoMoon.io -->
<svg version="1.1" xmlns="http://www.w3.org/2000/svg" width="20" height="20" viewBox="0 0 20 20">
<title>times-circle</title>
<path d="M14.252 12.522q0-0.29-0.212-0.502l-2.020-2.020 2.020-2.020q0.212-0.212 0.212-0.502 0-0.301-0.212-0.513l-1.004-1.004q-0.212-0.212-0.513-0.212-0.29 0-0.502 0.212l-2.020 2.020-2.020-2.020q-0.212-0.212-0.502-0.212-0.301 0-0.513 0.212l-1.004 1.004q-0.212 0.212-0.212 0.513 0 0.29 0.212 0.502l2.020 2.020-2.020 2.020q-0.212 0.212-0.212 0.502 0 0.301 0.212 0.513l1.004 1.004q0.212 0.212 0.513 0.212 0.29 0 0.502-0.212l2.020-2.020 2.020 2.020q0.212 0.212 0.502 0.212 0.301 0 0.513-0.212l1.004-1.004q0.212-0.212 0.212-0.513zM18.571 10q0 2.333-1.15 4.302t-3.119 3.119-4.302 1.15-4.302-1.15-3.119-3.119-1.15-4.302 1.15-4.302 3.119-3.119 4.302-1.15 4.302 1.15 3.119 3.119 1.15 4.302z"></path>
</svg>
