<!-- Generated by IcoMoon.io -->
<svg version="1.1" xmlns="http://www.w3.org/2000/svg" width="20" height="20" viewBox="0 0 20 20">
<title>tint</title>
<path d="M10 12.857q0-0.402-0.223-0.77-0.011-0.011-0.173-0.251t-0.285-0.424-0.279-0.491-0.234-0.564q-0.045-0.179-0.234-0.179t-0.234 0.179q-0.078 0.257-0.234 0.564t-0.279 0.491-0.285 0.424-0.173 0.251q-0.223 0.368-0.223 0.77 0 0.592 0.419 1.010t1.010 0.419 1.010-0.419 0.419-1.010zM15.714 11.429q0 2.366-1.674 4.040t-4.040 1.674-4.040-1.674-1.674-4.040q0-1.618 0.904-3.069 0.067-0.1 0.698-1.010t1.127-1.685 1.11-1.987 0.926-2.249q0.1-0.335 0.379-0.525t0.569-0.19 0.575 0.19 0.374 0.525q0.313 1.038 0.926 2.249t1.11 1.987 1.127 1.685 0.698 1.010q0.904 1.417 0.904 3.069z"></path>
</svg>
