<!-- Generated by IcoMoon.io -->
<svg version="1.1" xmlns="http://www.w3.org/2000/svg" width="20" height="20" viewBox="0 0 20 20">
<title>toggle-left</title>
<path d="M12.857 6.429v7.143q0 0.29-0.212 0.502t-0.502 0.212q-0.223 0-0.413-0.134l-5-3.571q-0.301-0.212-0.301-0.58t0.301-0.58l5-3.571q0.19-0.134 0.413-0.134 0.29 0 0.502 0.212t0.212 0.502zM15.714 15.357v-10.714q0-0.145-0.106-0.251t-0.251-0.106h-10.714q-0.145 0-0.251 0.106t-0.106 0.251v10.714q0 0.145 0.106 0.251t0.251 0.106h10.714q0.145 0 0.251-0.106t0.106-0.251zM18.571 4.643v10.714q0 1.328-0.943 2.271t-2.271 0.943h-10.714q-1.328 0-2.271-0.943t-0.943-2.271v-10.714q0-1.328 0.943-2.271t2.271-0.943h10.714q1.328 0 2.271 0.943t0.943 2.271z"></path>
</svg>
