<!-- Generated by IcoMoon.io -->
<svg version="1.1" xmlns="http://www.w3.org/2000/svg" width="20" height="20" viewBox="0 0 20 20">
<title>toggle-right</title>
<path d="M13.571 10q0 0.368-0.301 0.58l-5 3.571q-0.346 0.257-0.737 0.056-0.391-0.19-0.391-0.636v-7.143q0-0.446 0.391-0.636 0.391-0.201 0.737 0.056l5 3.571q0.301 0.212 0.301 0.58zM15.714 15.357v-10.714q0-0.156-0.1-0.257t-0.257-0.1h-10.714q-0.156 0-0.257 0.1t-0.1 0.257v10.714q0 0.156 0.1 0.257t0.257 0.1h10.714q0.156 0 0.257-0.1t0.1-0.257zM18.571 4.643v10.714q0 1.328-0.943 2.271t-2.271 0.943h-10.714q-1.328 0-2.271-0.943t-0.943-2.271v-10.714q0-1.328 0.943-2.271t2.271-0.943h10.714q1.328 0 2.271 0.943t0.943 2.271z"></path>
</svg>
