<!-- Generated by IcoMoon.io -->
<svg version="1.1" xmlns="http://www.w3.org/2000/svg" width="23" height="20" viewBox="0 0 23 20">
<title>toggle-on</title>
<path d="M0 10q0-1.451 0.569-2.773t1.523-2.277 2.277-1.523 2.773-0.569h8.571q1.451 0 2.773 0.569t2.277 1.523 1.523 2.277 0.569 2.773-0.569 2.773-1.523 2.277-2.277 1.523-2.773 0.569h-8.571q-1.451 0-2.773-0.569t-2.277-1.523-1.523-2.277-0.569-2.773zM15.714 15.714q1.161 0 2.215-0.452t1.825-1.222 1.222-1.825 0.452-2.215-0.452-2.215-1.222-1.825-1.825-1.222-2.215-0.452-2.215 0.452-1.825 1.222-1.222 1.825-0.452 2.215 0.452 2.215 1.222 1.825 1.825 1.222 2.215 0.452z"></path>
</svg>
