<!-- Generated by IcoMoon.io -->
<svg version="1.1" xmlns="http://www.w3.org/2000/svg" width="23" height="20" viewBox="0 0 23 20">
<title>toggle-off</title>
<path d="M12.857 10q0-1.161-0.452-2.215t-1.222-1.825-1.825-1.222-2.215-0.452-2.215 0.452-1.825 1.222-1.222 1.825-0.452 2.215 0.452 2.215 1.222 1.825 1.825 1.222 2.215 0.452 2.215-0.452 1.825-1.222 1.222-1.825 0.452-2.215zM21.429 10q0-1.161-0.452-2.215t-1.222-1.825-1.825-1.222-2.215-0.452h-4.308q1.328 1.004 2.104 2.5t0.776 3.214-0.776 3.214-2.104 2.5h4.308q1.161 0 2.215-0.452t1.825-1.222 1.222-1.825 0.452-2.215zM22.857 10q0 1.451-0.569 2.773t-1.523 2.277-2.277 1.523-2.773 0.569h-8.571q-1.451 0-2.773-0.569t-2.277-1.523-1.523-2.277-0.569-2.773 0.569-2.773 1.523-2.277 2.277-1.523 2.773-0.569h8.571q1.451 0 2.773 0.569t2.277 1.523 1.523 2.277 0.569 2.773z"></path>
</svg>
