<!-- Generated by IcoMoon.io -->
<svg version="1.1" xmlns="http://www.w3.org/2000/svg" width="20" height="20" viewBox="0 0 20 20">
<title>toggle-up</title>
<path d="M14.208 12.467q-0.19 0.391-0.636 0.391h-7.143q-0.446 0-0.636-0.391-0.201-0.391 0.056-0.737l3.571-5q0.212-0.301 0.58-0.301t0.58 0.301l3.571 5q0.257 0.346 0.056 0.737zM15.714 15.357v-10.714q0-0.145-0.106-0.251t-0.251-0.106h-10.714q-0.145 0-0.251 0.106t-0.106 0.251v10.714q0 0.145 0.106 0.251t0.251 0.106h10.714q0.145 0 0.251-0.106t0.106-0.251zM18.571 4.643v10.714q0 1.328-0.943 2.271t-2.271 0.943h-10.714q-1.328 0-2.271-0.943t-0.943-2.271v-10.714q0-1.328 0.943-2.271t2.271-0.943h10.714q1.328 0 2.271 0.943t0.943 2.271z"></path>
</svg>
