<!-- Generated by IcoMoon.io -->
<svg version="1.1" xmlns="http://www.w3.org/2000/svg" width="23" height="20" viewBox="0 0 23 20">
<title>trademark</title>
<path d="M9.983 6.071v1.306q0 0.145-0.106 0.246t-0.251 0.1h-3.326v9.063q0 0.145-0.1 0.251t-0.246 0.106h-1.507q-0.145 0-0.251-0.1t-0.106-0.257v-9.063h-3.315q-0.145 0-0.251-0.1t-0.106-0.246v-1.306q0-0.156 0.1-0.257t0.257-0.1h8.85q0.145 0 0.251 0.106t0.106 0.251zM21.568 6.038l0.859 10.725q0.011 0.145-0.089 0.268-0.112 0.112-0.257 0.112h-1.496q-0.134 0-0.234-0.095t-0.112-0.229l-0.513-6.563-2.109 4.743q-0.089 0.212-0.324 0.212h-1.339q-0.223 0-0.324-0.212l-2.098-4.766-0.502 6.585q-0.011 0.134-0.112 0.229t-0.234 0.095h-1.507q-0.145 0-0.257-0.112-0.1-0.112-0.1-0.268l0.871-10.725q0.011-0.134 0.112-0.229t0.234-0.095h1.585q0.223 0 0.324 0.212l2.455 5.804q0.112 0.268 0.223 0.569 0.033-0.078 0.106-0.273t0.117-0.296l2.467-5.804q0.1-0.212 0.324-0.212h1.574q0.145 0 0.246 0.095t0.112 0.229z"></path>
</svg>
