<!-- Generated by IcoMoon.io -->
<svg version="1.1" xmlns="http://www.w3.org/2000/svg" width="20" height="20" viewBox="0 0 20 20">
<title>train</title>
<path d="M13.571 0q2.065 0 3.532 1.044t1.468 2.528v10q0 1.451-1.401 2.478t-3.41 1.083l2.377 2.254q0.179 0.167 0.089 0.391t-0.335 0.223h-11.786q-0.246 0-0.335-0.223t0.089-0.391l2.377-2.254q-2.009-0.056-3.41-1.083t-1.401-2.478v-10q0-1.484 1.468-2.528t3.532-1.044h7.143zM10 15q0.893 0 1.518-0.625t0.625-1.518-0.625-1.518-1.518-0.625-1.518 0.625-0.625 1.518 0.625 1.518 1.518 0.625zM16.429 8.571v-5.714h-12.857v5.714h12.857z"></path>
</svg>
