<!-- Generated by IcoMoon.io -->
<svg version="1.1" xmlns="http://www.w3.org/2000/svg" width="20" height="20" viewBox="0 0 20 20">
<title>transgender-alt</title>
<path d="M14.286 0.357q0-0.156 0.1-0.257t0.257-0.1h3.214q0.29 0 0.502 0.212t0.212 0.502v3.214q0 0.156-0.1 0.257t-0.257 0.1h-0.714q-0.156 0-0.257-0.1t-0.1-0.257v-1.496l-2.835 2.846q1.406 1.763 1.406 4.007 0 2.467-1.646 4.291t-4.068 2.093v1.473h1.071q0.156 0 0.257 0.1t0.1 0.257v0.714q0 0.156-0.1 0.257t-0.257 0.1h-1.071v1.071q0 0.156-0.1 0.257t-0.257 0.1h-0.714q-0.156 0-0.257-0.1t-0.1-0.257v-1.071h-1.071q-0.156 0-0.257-0.1t-0.1-0.257v-0.714q0-0.156 0.1-0.257t0.257-0.1h1.071v-1.473q-2.422-0.268-4.068-2.093t-1.646-4.291q0-2.243 1.406-4.007l-0.58-0.592-1.127 1.239q-0.1 0.112-0.246 0.117t-0.257-0.084l-0.536-0.491q-0.112-0.089-0.117-0.24t0.095-0.262l1.172-1.283-1.239-1.25v1.496q0 0.156-0.1 0.257t-0.257 0.1h-0.714q-0.156 0-0.257-0.1t-0.1-0.257v-3.214q0-0.29 0.212-0.502t0.502-0.212h3.214q0.156 0 0.257 0.1t0.1 0.257v0.714q0 0.156-0.1 0.257t-0.257 0.1h-1.484l1.183 1.194 0.96-1.049q0.1-0.112 0.246-0.117t0.257 0.084l0.536 0.491q0.112 0.089 0.117 0.24t-0.095 0.262l-1.004 1.105 0.636 0.625q1.763-1.406 4.007-1.406t4.007 1.406l2.846-2.835h-1.496q-0.156 0-0.257-0.1t-0.1-0.257v-0.714zM9.286 14.286q2.065 0 3.532-1.468t1.468-3.532-1.468-3.532-3.532-1.468-3.532 1.468-1.468 3.532 1.468 3.532 3.532 1.468z"></path>
</svg>
