<!-- Generated by IcoMoon.io -->
<svg version="1.1" xmlns="http://www.w3.org/2000/svg" width="20" height="20" viewBox="0 0 20 20">
<title>trash</title>
<path d="M7.857 15.357v-7.857q0-0.156-0.1-0.257t-0.257-0.1h-0.714q-0.156 0-0.257 0.1t-0.1 0.257v7.857q0 0.156 0.1 0.257t0.257 0.1h0.714q0.156 0 0.257-0.1t0.1-0.257zM10.714 15.357v-7.857q0-0.156-0.1-0.257t-0.257-0.1h-0.714q-0.156 0-0.257 0.1t-0.1 0.257v7.857q0 0.156 0.1 0.257t0.257 0.1h0.714q0.156 0 0.257-0.1t0.1-0.257zM13.571 15.357v-7.857q0-0.156-0.1-0.257t-0.257-0.1h-0.714q-0.156 0-0.257 0.1t-0.1 0.257v7.857q0 0.156 0.1 0.257t0.257 0.1h0.714q0.156 0 0.257-0.1t0.1-0.257zM7.5 4.286h5l-0.536-1.306q-0.078-0.1-0.19-0.123h-3.538q-0.112 0.022-0.19 0.123zM17.857 4.643v0.714q0 0.156-0.1 0.257t-0.257 0.1h-1.071v10.58q0 0.926-0.525 1.602t-1.261 0.675h-9.286q-0.737 0-1.261-0.653t-0.525-1.579v-10.625h-1.071q-0.156 0-0.257-0.1t-0.1-0.257v-0.714q0-0.156 0.1-0.257t0.257-0.1h3.449l0.781-1.864q0.167-0.413 0.603-0.703t0.882-0.29h3.571q0.446 0 0.882 0.29t0.603 0.703l0.781 1.864h3.449q0.156 0 0.257 0.1t0.1 0.257z"></path>
</svg>
