<!-- Generated by IcoMoon.io -->
<svg version="1.1" xmlns="http://www.w3.org/2000/svg" width="20" height="20" viewBox="0 0 20 20">
<title>tree</title>
<path d="M18.214 16.429q0 0.29-0.212 0.502t-0.502 0.212h-5.156q0.011 0.19 0.067 0.977t0.056 1.211q0 0.279-0.201 0.474t-0.48 0.195h-3.571q-0.279 0-0.48-0.195t-0.201-0.474q0-0.424 0.056-1.211t0.067-0.977h-5.156q-0.29 0-0.502-0.212t-0.212-0.502 0.212-0.502l4.487-4.498h-2.556q-0.29 0-0.502-0.212t-0.212-0.502 0.212-0.502l4.487-4.498h-2.199q-0.29 0-0.502-0.212t-0.212-0.502 0.212-0.502l4.286-4.286q0.212-0.212 0.502-0.212t0.502 0.212l4.286 4.286q0.212 0.212 0.212 0.502t-0.212 0.502-0.502 0.212h-2.199l4.487 4.498q0.212 0.212 0.212 0.502t-0.212 0.502-0.502 0.212h-2.556l4.487 4.498q0.212 0.212 0.212 0.502z"></path>
</svg>
