<!-- Generated by IcoMoon.io -->
<svg version="1.1" xmlns="http://www.w3.org/2000/svg" width="20" height="20" viewBox="0 0 20 20">
<title>trello</title>
<path d="M9.286 15v-11.429q0-0.156-0.1-0.257t-0.257-0.1h-5.357q-0.156 0-0.257 0.1t-0.1 0.257v11.429q0 0.156 0.1 0.257t0.257 0.1h5.357q0.156 0 0.257-0.1t0.1-0.257zM16.786 10.714v-7.143q0-0.156-0.1-0.257t-0.257-0.1h-5.357q-0.156 0-0.257 0.1t-0.1 0.257v7.143q0 0.156 0.1 0.257t0.257 0.1h5.357q0.156 0 0.257-0.1t0.1-0.257zM18.571 2.143v15.714q0 0.29-0.212 0.502t-0.502 0.212h-15.714q-0.29 0-0.502-0.212t-0.212-0.502v-15.714q0-0.29 0.212-0.502t0.502-0.212h15.714q0.29 0 0.502 0.212t0.212 0.502z"></path>
</svg>
