<!-- Generated by IcoMoon.io -->
<svg version="1.1" xmlns="http://www.w3.org/2000/svg" width="26" height="20" viewBox="0 0 26 20">
<title>tripadvisor</title>
<path d="M7.266 11.127q0 0.435-0.307 0.742t-0.731 0.307q-0.435 0-0.742-0.307t-0.307-0.742q0-0.424 0.307-0.731t0.742-0.307q0.424 0 0.731 0.307t0.307 0.731zM20.145 11.116q0 0.435-0.307 0.742t-0.742 0.307-0.742-0.307-0.307-0.742 0.307-0.737 0.742-0.301 0.742 0.301 0.307 0.737zM8.538 11.127q0-0.882-0.631-1.518t-1.523-0.636-1.523 0.631-0.631 1.523 0.631 1.523 1.523 0.631 1.523-0.631 0.631-1.523zM21.406 11.116q0-0.893-0.631-1.523t-1.523-0.631q-0.882 0-1.518 0.631t-0.636 1.523 0.631 1.523 1.523 0.631 1.523-0.631 0.631-1.523zM9.487 11.127q0 1.295-0.91 2.204t-2.193 0.91q-1.295 0-2.204-0.915t-0.91-2.199 0.915-2.193 2.199-0.91 2.193 0.91 0.91 2.193zM22.366 11.116q0 1.283-0.91 2.193t-2.204 0.91q-1.283 0-2.193-0.91t-0.91-2.193 0.91-2.193 2.193-0.91q1.295 0 2.204 0.91t0.91 2.193zM11.607 11.15q0-2.132-1.512-3.644t-3.644-1.512q-1.395 0-2.578 0.692t-1.875 1.881-0.692 2.584 0.692 2.584 1.875 1.881 2.578 0.692q2.132 0 3.644-1.512t1.512-3.644zM19.063 4.754q-2.835-1.239-6.205-1.239-3.56 0-6.395 1.228 1.306 0 2.489 0.508t2.037 1.367 1.362 2.042 0.508 2.489q0-1.283 0.485-2.45t1.317-2.015 1.981-1.373 2.422-0.558zM24.408 11.15q0-2.132-1.507-3.644t-3.638-1.512-3.644 1.512-1.512 3.644 1.512 3.644 3.644 1.512 3.638-1.512 1.507-3.644zM21.44 4.833h4.275q-0.491 0.569-0.837 1.278t-0.446 1.278q1.228 1.685 1.228 3.761 0 1.741-0.859 3.214t-2.333 2.327-3.203 0.854q-1.484 0-2.779-0.625t-2.188-1.73q-0.525 0.625-1.44 1.998-0.123-0.246-0.597-0.921t-0.831-1.088q-0.893 1.105-2.193 1.735t-2.785 0.631q-1.73 0-3.203-0.854t-2.333-2.327-0.859-3.214q0-2.076 1.228-3.761-0.1-0.569-0.446-1.278t-0.837-1.278h4.074q1.663-1.116 3.962-1.747t4.821-0.631q2.5 0 4.699 0.625t3.884 1.752z"></path>
</svg>
