<!-- Generated by IcoMoon.io -->
<svg version="1.1" xmlns="http://www.w3.org/2000/svg" width="20" height="20" viewBox="0 0 20 20">
<title>truck</title>
<path d="M7.143 15.714q0-0.58-0.424-1.004t-1.004-0.424-1.004 0.424-0.424 1.004 0.424 1.004 1.004 0.424 1.004-0.424 0.424-1.004zM2.857 10h4.286v-2.857h-1.763q-0.145 0-0.246 0.1l-2.176 2.176q-0.1 0.1-0.1 0.246v0.335zM17.143 15.714q0-0.58-0.424-1.004t-1.004-0.424-1.004 0.424-0.424 1.004 0.424 1.004 1.004 0.424 1.004-0.424 0.424-1.004zM20 3.571v11.429q0 0.167-0.045 0.296t-0.151 0.206-0.184 0.128-0.262 0.067-0.251 0.022-0.285 0-0.251-0.006q0 1.183-0.837 2.020t-2.020 0.837-2.020-0.837-0.837-2.020h-4.286q0 1.183-0.837 2.020t-2.020 0.837-2.020-0.837-0.837-2.020h-0.714q-0.033 0-0.251 0.006t-0.285 0-0.251-0.022-0.262-0.067-0.184-0.128-0.151-0.206-0.045-0.296q0-0.29 0.212-0.502t0.502-0.212v-3.571q0-0.089-0.006-0.391t0-0.424 0.028-0.385 0.073-0.413 0.156-0.34 0.251-0.335l2.21-2.21q0.212-0.212 0.564-0.357t0.653-0.145h1.786v-2.143q0-0.29 0.212-0.502t0.502-0.212h11.429q0.29 0 0.502 0.212t0.212 0.502z"></path>
</svg>
