<!-- Generated by IcoMoon.io -->
<svg version="1.1" xmlns="http://www.w3.org/2000/svg" width="20" height="20" viewBox="0 0 20 20">
<title>tty</title>
<path d="M5 14.643v2.143q0 0.156-0.1 0.257t-0.257 0.1h-2.143q-0.156 0-0.257-0.1t-0.1-0.257v-2.143q0-0.156 0.1-0.257t0.257-0.1h2.143q0.156 0 0.257 0.1t0.1 0.257zM2.857 10.357v2.143q0 0.156-0.1 0.257t-0.257 0.1h-2.143q-0.156 0-0.257-0.1t-0.1-0.257v-2.143q0-0.156 0.1-0.257t0.257-0.1h2.143q0.156 0 0.257 0.1t0.1 0.257zM9.286 14.643v2.143q0 0.156-0.1 0.257t-0.257 0.1h-2.143q-0.156 0-0.257-0.1t-0.1-0.257v-2.143q0-0.156 0.1-0.257t0.257-0.1h2.143q0.156 0 0.257 0.1t0.1 0.257zM7.143 10.357v2.143q0 0.156-0.1 0.257t-0.257 0.1h-2.143q-0.156 0-0.257-0.1t-0.1-0.257v-2.143q0-0.156 0.1-0.257t0.257-0.1h2.143q0.156 0 0.257 0.1t0.1 0.257zM0.737 8.571q-0.313 0-0.525-0.212t-0.212-0.513v-1.44h5.737v1.44q0 0.301-0.212 0.513t-0.513 0.212h-4.275zM13.571 14.643v2.143q0 0.156-0.1 0.257t-0.257 0.1h-2.143q-0.156 0-0.257-0.1t-0.1-0.257v-2.143q0-0.156 0.1-0.257t0.257-0.1h2.143q0.156 0 0.257 0.1t0.1 0.257zM11.429 10.357v2.143q0 0.156-0.1 0.257t-0.257 0.1h-2.143q-0.156 0-0.257-0.1t-0.1-0.257v-2.143q0-0.156 0.1-0.257t0.257-0.1h2.143q0.156 0 0.257 0.1t0.1 0.257zM17.857 14.643v2.143q0 0.156-0.1 0.257t-0.257 0.1h-2.143q-0.156 0-0.257-0.1t-0.1-0.257v-2.143q0-0.156 0.1-0.257t0.257-0.1h2.143q0.156 0 0.257 0.1t0.1 0.257zM15.714 10.357v2.143q0 0.156-0.1 0.257t-0.257 0.1h-2.143q-0.156 0-0.257-0.1t-0.1-0.257v-2.143q0-0.156 0.1-0.257t0.257-0.1h2.143q0.156 0 0.257 0.1t0.1 0.257zM20 5.804v0.145h-5.737v-0.112q0-1.161-4.263-1.138-4.263 0.011-4.263 1.138v0.112h-5.737v-0.145q0-0.19 0.095-0.48t0.379-0.714 0.731-0.843 1.233-0.848 1.786-0.753 2.5-0.53 3.276-0.206 3.27 0.206 2.5 0.53 1.791 0.753 1.233 0.848 0.731 0.843 0.379 0.714 0.095 0.48zM20 10.357v2.143q0 0.156-0.1 0.257t-0.257 0.1h-2.143q-0.156 0-0.257-0.1t-0.1-0.257v-2.143q0-0.156 0.1-0.257t0.257-0.1h2.143q0.156 0 0.257 0.1t0.1 0.257zM20 6.406v1.44q0 0.301-0.212 0.513t-0.513 0.212h-4.286q-0.301 0-0.513-0.212t-0.212-0.513v-1.44h5.737z"></path>
</svg>
