<!-- Generated by IcoMoon.io -->
<svg version="1.1" xmlns="http://www.w3.org/2000/svg" width="20" height="20" viewBox="0 0 20 20">
<title>tumblr</title>
<path d="M14.821 14.833l0.893 2.645q-0.257 0.391-1.239 0.737t-1.975 0.357q-1.161 0.022-2.126-0.29t-1.59-0.826-1.060-1.183-0.619-1.339-0.184-1.317v-6.071h-1.875v-2.4q0.804-0.29 1.44-0.776t1.016-1.004 0.647-1.138 0.379-1.105 0.167-0.988q0.011-0.056 0.050-0.095t0.084-0.039h2.723v4.732h3.717v2.813h-3.728v5.781q0 0.335 0.073 0.625t0.251 0.586 0.552 0.463 0.91 0.156q0.871-0.022 1.496-0.324z"></path>
</svg>
