<!-- Generated by IcoMoon.io -->
<svg version="1.1" xmlns="http://www.w3.org/2000/svg" width="20" height="20" viewBox="0 0 20 20">
<title>tumblr-square</title>
<path d="M14.107 16.306l-0.692-2.042q-0.491 0.246-1.15 0.246-0.402 0.011-0.692-0.117t-0.43-0.352-0.195-0.452-0.056-0.485v-4.442h2.868v-2.165h-2.857v-3.638h-2.098q-0.089 0-0.1 0.112-0.056 0.491-0.195 0.971t-0.435 1.060-0.859 1.060-1.323 0.759v1.842h1.451v4.665q0 0.636 0.24 1.283t0.725 1.239 1.35 0.954 1.97 0.34q0.77-0.011 1.523-0.279t0.954-0.558zM18.571 4.643v10.714q0 1.328-0.943 2.271t-2.271 0.943h-10.714q-1.328 0-2.271-0.943t-0.943-2.271v-10.714q0-1.328 0.943-2.271t2.271-0.943h10.714q1.328 0 2.271 0.943t0.943 2.271z"></path>
</svg>
