<!-- Generated by IcoMoon.io -->
<svg version="1.1" xmlns="http://www.w3.org/2000/svg" width="20" height="20" viewBox="0 0 20 20">
<title>turkish-lira</title>
<path d="M16.429 9.286q0 2.132-1.055 3.94t-2.863 2.863-3.94 1.055h-1.786q-0.156 0-0.257-0.1t-0.1-0.257v-6.819l-2.4 0.737q-0.033 0.011-0.1 0.011-0.112 0-0.212-0.067-0.145-0.112-0.145-0.29v-1.429q0-0.257 0.257-0.346l2.6-0.792v-1.038l-2.4 0.737q-0.033 0.011-0.1 0.011-0.112 0-0.212-0.067-0.145-0.112-0.145-0.29v-1.429q0-0.257 0.257-0.346l2.6-0.792v-2.79q0-0.156 0.1-0.257t0.257-0.1h1.786q0.156 0 0.257 0.1t0.1 0.257v2.020l4.185-1.295q0.167-0.056 0.313 0.056t0.145 0.29v1.429q0 0.257-0.257 0.346l-4.386 1.35v1.038l4.185-1.295q0.167-0.056 0.313 0.056t0.145 0.29v1.429q0 0.257-0.257 0.346l-4.386 1.35v5.435q2.098-0.145 3.549-1.685t1.451-3.661q0-0.156 0.1-0.257t0.257-0.1h1.786q0.156 0 0.257 0.1t0.1 0.257z"></path>
</svg>
