<!-- Generated by IcoMoon.io -->
<svg version="1.1" xmlns="http://www.w3.org/2000/svg" width="20" height="20" viewBox="0 0 20 20">
<title>twitter</title>
<path d="M18.795 4.554q-0.748 1.094-1.808 1.864 0.011 0.156 0.011 0.469 0 1.451-0.424 2.896t-1.289 2.773-2.059 2.349-2.879 1.629-3.605 0.608q-3.025 0-5.536-1.618 0.391 0.045 0.871 0.045 2.511 0 4.475-1.54-1.172-0.022-2.098-0.72t-1.272-1.78q0.368 0.056 0.681 0.056 0.48 0 0.949-0.123-1.25-0.257-2.070-1.244t-0.82-2.294v-0.045q0.759 0.424 1.629 0.458-0.737-0.491-1.172-1.283t-0.435-1.719q0-0.982 0.491-1.819 1.35 1.663 3.287 2.662t4.146 1.11q-0.089-0.424-0.089-0.826 0-1.496 1.055-2.55t2.55-1.055q1.563 0 2.634 1.138 1.217-0.234 2.288-0.871-0.413 1.283-1.585 1.987 1.038-0.112 2.076-0.558z"></path>
</svg>
