<!-- Generated by IcoMoon.io -->
<svg version="1.1" xmlns="http://www.w3.org/2000/svg" width="20" height="20" viewBox="0 0 20 20">
<title>twitter-square</title>
<path d="M15.714 6.808q-0.625 0.279-1.35 0.379 0.759-0.446 1.038-1.306-0.725 0.424-1.496 0.569-0.681-0.737-1.708-0.737-0.971 0-1.657 0.686t-0.686 1.657q0 0.324 0.056 0.536-1.44-0.078-2.701-0.725t-2.143-1.73q-0.324 0.558-0.324 1.183 0 1.272 1.016 1.953-0.525-0.011-1.116-0.29v0.022q0 0.837 0.558 1.49t1.373 0.809q-0.324 0.089-0.569 0.089-0.145 0-0.435-0.045 0.234 0.703 0.831 1.161t1.356 0.469q-1.295 1.004-2.913 1.004-0.29 0-0.558-0.033 1.652 1.049 3.594 1.049 1.25 0 2.344-0.396t1.875-1.060 1.345-1.529 0.837-1.808 0.273-1.881q0-0.201-0.011-0.301 0.703-0.502 1.172-1.217zM18.571 4.643v10.714q0 1.328-0.943 2.271t-2.271 0.943h-10.714q-1.328 0-2.271-0.943t-0.943-2.271v-10.714q0-1.328 0.943-2.271t2.271-0.943h10.714q1.328 0 2.271 0.943t0.943 2.271z"></path>
</svg>
