<!-- Generated by IcoMoon.io -->
<svg version="1.1" xmlns="http://www.w3.org/2000/svg" width="20" height="20" viewBox="0 0 20 20">
<title>umbrella</title>
<path d="M10.714 9.241v6.473q0 1.161-0.848 2.009t-2.009 0.848-2.009-0.848-0.848-2.009q0-0.29 0.212-0.502t0.502-0.212 0.502 0.212 0.212 0.502q0 0.558 0.435 0.993t0.993 0.435 0.993-0.435 0.435-0.993v-6.473q0.368-0.123 0.714-0.123t0.714 0.123zM19.286 9.542q0 0.145-0.106 0.251t-0.251 0.106q-0.123 0-0.257-0.112-0.547-0.513-1.038-0.77t-1.138-0.257q-0.759 0-1.429 0.413t-1.15 1.083q-0.078 0.112-0.195 0.313t-0.162 0.268q-0.123 0.19-0.313 0.19-0.201 0-0.324-0.19-0.045-0.067-0.162-0.268t-0.195-0.313q-0.48-0.67-1.144-1.083t-1.423-0.413-1.423 0.413-1.144 1.083q-0.078 0.112-0.195 0.313t-0.162 0.268q-0.123 0.19-0.324 0.19-0.19 0-0.313-0.19-0.045-0.067-0.162-0.268t-0.195-0.313q-0.48-0.67-1.15-1.083t-1.429-0.413q-0.647 0-1.138 0.257t-1.038 0.77q-0.134 0.112-0.257 0.112-0.145 0-0.251-0.106t-0.106-0.251q0-0.056 0.011-0.078 0.502-2.042 1.925-3.566t3.326-2.282 4.023-0.759q1.563 0 3.064 0.446t2.751 1.267 2.171 2.087 1.289 2.807q0.011 0.022 0.011 0.078zM10.714 1.429v1.094q-0.469-0.022-0.714-0.022t-0.714 0.022v-1.094q0-0.29 0.212-0.502t0.502-0.212 0.502 0.212 0.212 0.502z"></path>
</svg>
