<!-- Generated by IcoMoon.io -->
<svg version="1.1" xmlns="http://www.w3.org/2000/svg" width="20" height="20" viewBox="0 0 20 20">
<title>underline</title>
<path d="M1.964 2.489q-0.413-0.022-0.502-0.045l-0.033-0.982q0.145-0.011 0.446-0.011 0.67 0 1.25 0.045 1.473 0.078 1.853 0.078 0.96 0 1.875-0.033 1.295-0.045 1.629-0.056 0.625 0 0.96-0.022l-0.011 0.156 0.022 0.714v0.1q-0.67 0.1-1.384 0.1-0.67 0-0.882 0.279-0.145 0.156-0.145 1.473 0 0.145 0.006 0.363t0.006 0.285l0.011 2.556 0.156 3.125q0.067 1.384 0.569 2.254 0.391 0.658 1.071 1.027 0.982 0.525 1.975 0.525 1.161 0 2.132-0.313 0.625-0.201 1.105-0.569 0.536-0.402 0.725-0.714 0.402-0.625 0.592-1.272 0.234-0.815 0.234-2.556 0-0.882-0.039-1.429t-0.123-1.367-0.151-1.78l-0.045-0.658q-0.056-0.748-0.268-0.982-0.379-0.391-0.859-0.379l-1.116 0.022-0.156-0.033 0.022-0.96h0.938l2.288 0.112q0.848 0.033 2.188-0.112l0.201 0.022q0.067 0.424 0.067 0.569 0 0.078-0.045 0.346-0.502 0.134-0.938 0.145-0.815 0.123-0.882 0.19-0.167 0.167-0.167 0.458 0 0.078 0.017 0.301t0.017 0.346q0.089 0.212 0.246 4.42 0.067 2.176-0.167 3.393-0.167 0.848-0.458 1.362-0.424 0.725-1.25 1.373-0.837 0.636-2.031 0.993-1.217 0.368-2.846 0.368-1.864 0-3.17-0.513-1.328-0.525-1.998-1.362-0.681-0.848-0.926-2.176-0.179-0.893-0.179-2.645v-3.717q0-2.098-0.19-2.377-0.279-0.402-1.641-0.435zM18.571 18.214v-0.714q0-0.156-0.1-0.257t-0.257-0.1h-16.429q-0.156 0-0.257 0.1t-0.1 0.257v0.714q0 0.156 0.1 0.257t0.257 0.1h16.429q0.156 0 0.257-0.1t0.1-0.257z"></path>
</svg>
