<!-- Generated by IcoMoon.io -->
<svg version="1.1" xmlns="http://www.w3.org/2000/svg" width="20" height="20" viewBox="0 0 20 20">
<title>universal-access</title>
<path d="M15.335 7.333q-0.067-0.29-0.318-0.441t-0.541-0.084q-2.913 0.692-4.475 0.692t-4.475-0.692q-0.29-0.067-0.541 0.084t-0.318 0.441 0.084 0.541 0.441 0.318q2.165 0.513 3.382 0.647-0.022 1.763-0.173 3.002t-0.296 1.735-0.458 1.289l-0.1 0.234q-0.112 0.279 0.011 0.547t0.402 0.379q0.1 0.045 0.257 0.045 0.491 0 0.67-0.458l0.089-0.223q0.603-1.551 0.792-2.891h0.469q0.19 1.339 0.792 2.891l0.089 0.223q0.179 0.458 0.67 0.458 0.156 0 0.257-0.045 0.279-0.112 0.402-0.379t0.011-0.547l-0.1-0.234q-0.313-0.792-0.458-1.289t-0.296-1.735-0.173-3.002q1.217-0.134 3.382-0.647 0.29-0.067 0.441-0.318t0.084-0.541zM11.429 5.714q0-0.592-0.419-1.010t-1.010-0.419-1.010 0.419-0.419 1.010 0.419 1.010 1.010 0.419 1.010-0.419 0.419-1.010zM17.857 10q0 1.596-0.619 3.052t-1.674 2.511-2.511 1.674-3.052 0.619-3.052-0.619-2.511-1.674-1.674-2.511-0.619-3.052 0.619-3.052 1.674-2.511 2.511-1.674 3.052-0.619 3.052 0.619 2.511 1.674 1.674 2.511 0.619 3.052zM10 1.429q-1.741 0-3.326 0.681t-2.734 1.83-1.83 2.734-0.681 3.326 0.681 3.326 1.83 2.734 2.734 1.83 3.326 0.681 3.326-0.681 2.734-1.83 1.83-2.734 0.681-3.326-0.681-3.326-1.83-2.734-2.734-1.83-3.326-0.681zM20 10q0 2.031-0.792 3.884t-2.132 3.192-3.192 2.132-3.884 0.792-3.884-0.792-3.192-2.132-2.132-3.192-0.792-3.884 0.792-3.884 2.132-3.192 3.192-2.132 3.884-0.792 3.884 0.792 3.192 2.132 2.132 3.192 0.792 3.884z"></path>
</svg>
