<!-- Generated by IcoMoon.io -->
<svg version="1.1" xmlns="http://www.w3.org/2000/svg" width="20" height="20" viewBox="0 0 20 20">
<title>unlock-alt</title>
<path d="M15.357 8.571q0.446 0 0.759 0.313t0.313 0.759v6.429q0 0.446-0.313 0.759t-0.759 0.313h-10.714q-0.446 0-0.759-0.313t-0.313-0.759v-6.429q0-0.446 0.313-0.759t0.759-0.313h0.357v-3.571q0-2.065 1.468-3.532t3.532-1.468 3.532 1.468 1.468 3.532q0 0.29-0.212 0.502t-0.502 0.212h-0.714q-0.29 0-0.502-0.212t-0.212-0.502q0-1.183-0.837-2.020t-2.020-0.837-2.020 0.837-0.837 2.020v3.571h8.214z"></path>
</svg>
