<!-- Generated by IcoMoon.io -->
<svg version="1.1" xmlns="http://www.w3.org/2000/svg" width="20" height="20" viewBox="0 0 20 20">
<title>upload</title>
<path d="M15 16.429q0-0.29-0.212-0.502t-0.502-0.212-0.502 0.212-0.212 0.502 0.212 0.502 0.502 0.212 0.502-0.212 0.212-0.502zM17.857 16.429q0-0.29-0.212-0.502t-0.502-0.212-0.502 0.212-0.212 0.502 0.212 0.502 0.502 0.212 0.502-0.212 0.212-0.502zM19.286 13.929v3.571q0 0.446-0.313 0.759t-0.759 0.313h-16.429q-0.446 0-0.759-0.313t-0.313-0.759v-3.571q0-0.446 0.313-0.759t0.759-0.313h4.766q0.234 0.625 0.787 1.027t1.233 0.402h2.857q0.681 0 1.233-0.402t0.787-1.027h4.766q0.446 0 0.759 0.313t0.313 0.759zM15.658 6.696q-0.19 0.446-0.658 0.446h-2.857v5q0 0.29-0.212 0.502t-0.502 0.212h-2.857q-0.29 0-0.502-0.212t-0.212-0.502v-5h-2.857q-0.469 0-0.658-0.446-0.19-0.435 0.156-0.77l5-5q0.201-0.212 0.502-0.212t0.502 0.212l5 5q0.346 0.335 0.156 0.77z"></path>
</svg>
