<!-- Generated by IcoMoon.io -->
<svg version="1.1" xmlns="http://www.w3.org/2000/svg" width="26" height="20" viewBox="0 0 26 20">
<title>usb</title>
<path d="M25.536 8.984q0.179 0.089 0.179 0.301t-0.179 0.301l-3.571 2.143q-0.089 0.056-0.179 0.056-0.1 0-0.179-0.045-0.179-0.112-0.179-0.313v-1.429h-9.576q0.413 0.647 0.926 1.842 0.179 0.413 0.273 0.614t0.268 0.547 0.301 0.525 0.301 0.379 0.352 0.29 0.368 0.089h1.071v-1.071q0-0.156 0.1-0.257t0.257-0.1h3.571q0.156 0 0.257 0.1t0.1 0.257v3.571q0 0.156-0.1 0.257t-0.257 0.1h-3.571q-0.156 0-0.257-0.1t-0.1-0.257v-1.071h-1.071q-0.357 0-0.681-0.112t-0.569-0.262-0.502-0.452-0.413-0.513-0.374-0.636-0.318-0.642-0.313-0.675q-0.257-0.592-0.413-0.91t-0.402-0.725-0.497-0.597-0.519-0.19h-4.018q-0.246 0.938-1.016 1.54t-1.752 0.603q-1.183 0-2.020-0.837t-0.837-2.020 0.837-2.020 2.020-0.837q0.982 0 1.752 0.603t1.016 1.54h1.161q0.268 0 0.519-0.19t0.497-0.597 0.402-0.725 0.413-0.91q0.212-0.458 0.313-0.675t0.318-0.642 0.374-0.636 0.413-0.513 0.502-0.452 0.569-0.262 0.681-0.112h1.194q0.234-0.636 0.781-1.032t1.239-0.396q0.893 0 1.518 0.625t0.625 1.518-0.625 1.518-1.518 0.625q-0.692 0-1.239-0.396t-0.781-1.032h-1.194q-0.19 0-0.368 0.089t-0.352 0.29-0.301 0.379-0.301 0.525-0.268 0.547-0.273 0.614q-0.513 1.194-0.926 1.842h12.433v-1.429q0-0.201 0.179-0.313t0.357 0.011z"></path>
</svg>
