<!-- Generated by IcoMoon.io -->
<svg version="1.1" xmlns="http://www.w3.org/2000/svg" width="20" height="20" viewBox="0 0 20 20">
<title>usd</title>
<path d="M15.201 13.225q0 1.708-1.11 2.941t-2.885 1.523v1.953q0 0.156-0.1 0.257t-0.257 0.1h-1.507q-0.145 0-0.251-0.106t-0.106-0.251v-1.953q-0.737-0.1-1.423-0.346t-1.133-0.497-0.826-0.536-0.519-0.419-0.195-0.201q-0.19-0.234-0.022-0.458l1.15-1.507q0.078-0.112 0.257-0.134 0.167-0.022 0.268 0.1l0.022 0.022q1.261 1.105 2.712 1.395 0.413 0.089 0.826 0.089 0.904 0 1.59-0.48t0.686-1.362q0-0.313-0.167-0.592t-0.374-0.469-0.653-0.419-0.737-0.357-0.893-0.363q-0.435-0.179-0.686-0.279t-0.686-0.296-0.698-0.346-0.631-0.396-0.597-0.474-0.485-0.547-0.396-0.647-0.234-0.742-0.095-0.871q0-1.54 1.094-2.701t2.846-1.496v-2.009q0-0.145 0.106-0.251t0.251-0.106h1.507q0.156 0 0.257 0.1t0.1 0.257v1.964q0.636 0.067 1.233 0.257t0.971 0.374 0.709 0.419 0.435 0.324 0.167 0.156q0.19 0.201 0.056 0.424l-0.904 1.629q-0.089 0.167-0.257 0.179-0.156 0.033-0.301-0.078-0.033-0.033-0.162-0.134t-0.435-0.296-0.653-0.357-0.831-0.29-0.954-0.128q-1.060 0-1.73 0.48t-0.67 1.239q0 0.29 0.095 0.536t0.329 0.463 0.441 0.368 0.625 0.346 0.675 0.301 0.781 0.307q0.592 0.223 0.904 0.352t0.848 0.391 0.843 0.474 0.692 0.558 0.592 0.709 0.352 0.854 0.145 1.049z"></path>
</svg>
