<!-- Generated by IcoMoon.io -->
<svg version="1.1" xmlns="http://www.w3.org/2000/svg" width="20" height="20" viewBox="0 0 20 20">
<title>user-md</title>
<path d="M6.429 15q0 0.29-0.212 0.502t-0.502 0.212-0.502-0.212-0.212-0.502 0.212-0.502 0.502-0.212 0.502 0.212 0.212 0.502zM17.857 15.681q0 1.35-0.815 2.121t-2.165 0.77h-9.754q-1.35 0-2.165-0.77t-0.815-2.121q0-0.759 0.061-1.462t0.268-1.54 0.53-1.479 0.904-1.15 1.339-0.675q-0.246 0.58-0.246 1.339v2.266q-0.647 0.223-1.038 0.781t-0.391 1.239q0 0.893 0.625 1.518t1.518 0.625 1.518-0.625 0.625-1.518q0-0.681-0.396-1.239t-1.032-0.781v-2.266q0-0.692 0.279-1.038 1.473 1.161 3.292 1.161t3.292-1.161q0.279 0.346 0.279 1.038v0.714q-1.183 0-2.020 0.837t-0.837 2.020v0.993q-0.357 0.324-0.357 0.792 0 0.446 0.313 0.759t0.759 0.313 0.759-0.313 0.313-0.759q0-0.469-0.357-0.792v-0.993q0-0.58 0.424-1.004t1.004-0.424 1.004 0.424 0.424 1.004v0.993q-0.357 0.324-0.357 0.792 0 0.446 0.313 0.759t0.759 0.313 0.759-0.313 0.313-0.759q0-0.469-0.357-0.792v-0.993q0-0.759-0.385-1.423t-1.044-1.044q0-0.112 0.006-0.474t0-0.536-0.028-0.463-0.078-0.525-0.145-0.446q0.759 0.167 1.339 0.675t0.904 1.15 0.53 1.479 0.268 1.54 0.061 1.462zM14.286 5.714q0 1.775-1.256 3.030t-3.030 1.256-3.030-1.256-1.256-3.030 1.256-3.030 3.030-1.256 3.030 1.256 1.256 3.030z"></path>
</svg>
