<!-- Generated by IcoMoon.io -->
<svg version="1.1" xmlns="http://www.w3.org/2000/svg" width="20" height="20" viewBox="0 0 20 20">
<title>user-circle</title>
<path d="M16.998 14.944q-0.246-1.73-0.977-2.874t-2.059-1.323q-0.748 0.826-1.78 1.289t-2.182 0.463-2.182-0.463-1.78-1.289q-1.328 0.179-2.059 1.323t-0.977 2.874q1.183 1.674 3.025 2.651t3.973 0.977 3.973-0.977 3.025-2.651zM14.286 7.143q0-1.775-1.256-3.030t-3.030-1.256-3.030 1.256-1.256 3.030 1.256 3.030 3.030 1.256 3.030-1.256 1.256-3.030zM20 10q0 2.031-0.792 3.878t-2.126 3.192-3.186 2.137-3.895 0.792q-2.031 0-3.884-0.792t-3.192-2.132-2.132-3.192-0.792-3.884 0.792-3.884 2.132-3.192 3.192-2.132 3.884-0.792 3.884 0.792 3.192 2.132 2.132 3.192 0.792 3.884z"></path>
</svg>
