<!-- Generated by IcoMoon.io -->
<svg version="1.1" xmlns="http://www.w3.org/2000/svg" width="20" height="20" viewBox="0 0 20 20">
<title>user</title>
<path d="M17.143 15.614q0 1.217-0.698 2.087t-1.68 0.871h-9.531q-0.982 0-1.68-0.871t-0.698-2.087q0-0.949 0.095-1.791t0.352-1.696 0.653-1.462 1.049-0.993 1.501-0.385q1.462 1.429 3.493 1.429t3.493-1.429q0.848 0 1.501 0.385t1.049 0.993 0.653 1.462 0.352 1.696 0.095 1.791zM14.286 5.714q0 1.775-1.256 3.030t-3.030 1.256-3.030-1.256-1.256-3.030 1.256-3.030 3.030-1.256 3.030 1.256 1.256 3.030z"></path>
</svg>
