<!-- Generated by IcoMoon.io -->
<svg version="1.1" xmlns="http://www.w3.org/2000/svg" width="23" height="20" viewBox="0 0 23 20">
<title>user-times</title>
<path d="M7.857 10q-1.775 0-3.030-1.256t-1.256-3.030 1.256-3.030 3.030-1.256 3.030 1.256 1.256 3.030-1.256 3.030-3.030 1.256zM19.877 13.571l2.779 2.779q0.1 0.1 0.1 0.257 0 0.145-0.1 0.246l-1.518 1.518q-0.1 0.1-0.246 0.1-0.156 0-0.257-0.1l-2.779-2.779-2.779 2.779q-0.1 0.1-0.257 0.1-0.145 0-0.246-0.1l-1.518-1.518q-0.1-0.1-0.1-0.246 0-0.156 0.1-0.257l2.779-2.779-2.779-2.779q-0.1-0.1-0.1-0.257 0-0.145 0.1-0.246l1.518-1.518q0.1-0.1 0.246-0.1 0.156 0 0.257 0.1l2.779 2.779 2.779-2.779q0.1-0.1 0.257-0.1 0.145 0 0.246 0.1l1.518 1.518q0.1 0.1 0.1 0.246 0 0.156-0.1 0.257zM14.319 13.571l-2.020 2.020q-0.413 0.413-0.413 1.016 0 0.592 0.413 1.004l0.926 0.926q-0.234 0.033-0.491 0.033h-9.754q-1.35 0-2.165-0.77t-0.815-2.121q0-0.592 0.039-1.155t0.156-1.217 0.296-1.211 0.48-1.088 0.692-0.904 0.954-0.597 1.244-0.223q0.212 0 0.435 0.19 1.719 1.362 3.56 1.362t3.56-1.362q0.223-0.19 0.435-0.19 0.313 0 0.636 0.067-0.313 0.301-0.458 0.558t-0.145 0.625q0 0.603 0.413 1.016z"></path>
</svg>
