<!-- Generated by IcoMoon.io -->
<svg version="1.1" xmlns="http://www.w3.org/2000/svg" width="23" height="20" viewBox="0 0 23 20">
<title>user-plus</title>
<path d="M7.857 10q-1.775 0-3.030-1.256t-1.256-3.030 1.256-3.030 3.030-1.256 3.030 1.256 1.256 3.030-1.256 3.030-3.030 1.256zM18.571 11.429h3.929q0.145 0 0.251 0.106t0.106 0.251v2.143q0 0.145-0.106 0.251t-0.251 0.106h-3.929v3.929q0 0.145-0.106 0.251t-0.251 0.106h-2.143q-0.145 0-0.251-0.106t-0.106-0.251v-3.929h-3.929q-0.145 0-0.251-0.106t-0.106-0.251v-2.143q0-0.145 0.106-0.251t0.251-0.106h3.929v-3.929q0-0.145 0.106-0.251t0.251-0.106h2.143q0.145 0 0.251 0.106t0.106 0.251v3.929zM10.357 13.929q0 0.58 0.424 1.004t1.004 0.424h2.857v2.656q-0.759 0.558-1.908 0.558h-9.754q-1.35 0-2.165-0.77t-0.815-2.121q0-0.592 0.039-1.155t0.156-1.217 0.296-1.211 0.48-1.088 0.692-0.904 0.954-0.597 1.244-0.223q0.212 0 0.435 0.19 0.882 0.681 1.724 1.021t1.836 0.34 1.836-0.34 1.724-1.021q0.223-0.19 0.435-0.19 1.473 0 2.422 1.071h-2.489q-0.58 0-1.004 0.424t-0.424 1.004v2.143z"></path>
</svg>
