<!-- Generated by IcoMoon.io -->
<svg version="1.1" xmlns="http://www.w3.org/2000/svg" width="20" height="20" viewBox="0 0 20 20">
<title>user-secret</title>
<path d="M7.857 17.143l1.071-5-1.071-1.429-1.429-0.714zM10.714 17.143l1.429-7.143-1.429 0.714-1.071 1.429zM12.5 5.871q-0.022-0.045-0.045-0.067-0.112-0.089-1.071-0.089-0.781 0-1.864 0.212-0.078 0.022-0.234 0.022t-0.234-0.022q-1.083-0.212-1.864-0.212-0.96 0-1.071 0.089-0.022 0.022-0.045 0.067 0.022 0.201 0.045 0.301 0.022 0.033 0.084 0.073t0.084 0.117q0.022 0.045 0.084 0.229t0.078 0.229 0.084 0.19 0.095 0.19 0.1 0.156 0.134 0.151 0.156 0.106 0.195 0.089 0.229 0.045 0.273 0.022q0.402 0 0.658-0.14t0.363-0.335 0.162-0.385 0.128-0.329 0.195-0.14h0.134q0.123 0 0.195 0.14t0.128 0.329 0.162 0.385 0.363 0.335 0.658 0.14q0.145 0 0.273-0.022t0.229-0.045 0.195-0.089 0.156-0.106 0.134-0.151 0.1-0.156 0.095-0.19 0.084-0.19 0.078-0.229 0.084-0.229q0.022-0.078 0.084-0.117t0.084-0.073q0.022-0.1 0.045-0.301zM17.143 15.681q0 1.35-0.815 2.121t-2.165 0.77h-9.754q-1.35 0-2.165-0.77t-0.815-2.121q0-0.681 0.050-1.317t0.212-1.401 0.419-1.378 0.709-1.155 1.044-0.831l-1.004-2.455h2.388q-0.246-0.714-0.246-1.429 0-0.134 0.022-0.357-2.165-0.446-2.165-1.071 0-0.636 2.344-1.105 0.19-0.692 0.575-1.496t0.787-1.272q0.357-0.413 0.848-0.413 0.335 0 0.938 0.346t0.938 0.346 0.938-0.346 0.938-0.346q0.491 0 0.848 0.413 0.402 0.469 0.787 1.272t0.575 1.496q2.344 0.469 2.344 1.105 0 0.625-2.165 1.071 0.078 0.904-0.223 1.786h2.388l-0.915 2.511q0.703 0.368 1.2 1.077t0.731 1.602 0.324 1.691 0.089 1.657z"></path>
</svg>
