<!-- Generated by IcoMoon.io -->
<svg version="1.1" xmlns="http://www.w3.org/2000/svg" width="20" height="20" viewBox="0 0 20 20">
<title>user-o</title>
<path d="M14.833 8.75q0.525 0.156 0.999 0.424t0.993 0.815 0.887 1.289 0.614 1.92 0.246 2.64q0 1.719-1.116 2.941t-2.69 1.222h-9.531q-1.574 0-2.69-1.222t-1.116-2.941q0-1.462 0.246-2.64t0.614-1.92 0.887-1.289 0.993-0.815 0.999-0.424q-0.882-1.395-0.882-3.036 0-1.161 0.452-2.215t1.222-1.825 1.825-1.222 2.215-0.452 2.215 0.452 1.825 1.222 1.222 1.825 0.452 2.215q0 1.641-0.882 3.036zM10 1.429q-1.775 0-3.030 1.256t-1.256 3.030 1.256 3.030 3.030 1.256 3.030-1.256 1.256-3.030-1.256-3.030-3.030-1.256zM14.766 18.571q0.982 0 1.68-0.798t0.698-1.936q0-2.667-0.876-4.208t-2.517-1.618q-1.618 1.417-3.75 1.417t-3.75-1.417q-1.641 0.078-2.517 1.618t-0.876 4.208q0 1.138 0.698 1.936t1.68 0.798h9.531z"></path>
</svg>
