<!-- Generated by IcoMoon.io -->
<svg version="1.1" xmlns="http://www.w3.org/2000/svg" width="20" height="20" viewBox="0 0 20 20">
<title>user-circle-o</title>
<path d="M10 0q2.031 0 3.884 0.792t3.192 2.132 2.132 3.192 0.792 3.884q0 2.020-0.787 3.873t-2.126 3.192-3.192 2.137-3.895 0.798-3.895-0.792-3.186-2.137-2.126-3.192-0.792-3.878 0.792-3.884 2.132-3.192 3.192-2.132 3.884-0.792zM16.908 15.078q1.663-2.288 1.663-5.078 0-1.741-0.681-3.326t-1.83-2.734-2.734-1.83-3.326-0.681-3.326 0.681-2.734 1.83-1.83 2.734-0.681 3.326q0 2.79 1.663 5.078 0.737-3.65 3.415-3.65 1.462 1.429 3.493 1.429t3.493-1.429q2.679 0 3.415 3.65zM14.286 7.857q0-1.775-1.256-3.030t-3.030-1.256-3.030 1.256-1.256 3.030 1.256 3.030 3.030 1.256 3.030-1.256 1.256-3.030z"></path>
</svg>
