<!-- Generated by IcoMoon.io -->
<svg version="1.1" xmlns="http://www.w3.org/2000/svg" width="23" height="20" viewBox="0 0 23 20">
<title>venus-mars</title>
<path d="M18.571 0.357q0-0.156 0.1-0.257t0.257-0.1h3.214q0.29 0 0.502 0.212t0.212 0.502v3.214q0 0.156-0.1 0.257t-0.257 0.1h-0.714q-0.156 0-0.257-0.1t-0.1-0.257v-1.496l-2.835 2.846q0.848 1.060 1.2 2.388t0.106 2.757q-0.357 2.009-1.836 3.46t-3.499 1.752q-2.489 0.379-4.565-1.004-1.306 0.871-2.857 1.038v1.473h1.071q0.156 0 0.257 0.1t0.1 0.257v0.714q0 0.156-0.1 0.257t-0.257 0.1h-1.071v1.071q0 0.156-0.1 0.257t-0.257 0.1h-0.714q-0.156 0-0.257-0.1t-0.1-0.257v-1.071h-1.071q-0.156 0-0.257-0.1t-0.1-0.257v-0.714q0-0.156 0.1-0.257t0.257-0.1h1.071v-1.473q-1.73-0.19-3.119-1.222t-2.087-2.651-0.441-3.426q0.279-2.087 1.78-3.599t3.577-1.836q2.5-0.379 4.576 1.004 1.629-1.083 3.571-1.083 2.243 0 4.007 1.406l2.846-2.835h-1.496q-0.156 0-0.257-0.1t-0.1-0.257v-0.714zM10 12.779q1.429-1.462 1.429-3.493t-1.429-3.493q-1.429 1.462-1.429 3.493t1.429 3.493zM1.429 9.286q0 2.065 1.468 3.532t3.532 1.468q1.306 0 2.433-0.636-1.719-1.864-1.719-4.364t1.719-4.364q-1.127-0.636-2.433-0.636-2.065 0-3.532 1.468t-1.468 3.532zM13.571 14.286q2.065 0 3.532-1.468t1.468-3.532-1.468-3.532-3.532-1.468q-1.306 0-2.433 0.636 1.719 1.864 1.719 4.364t-1.719 4.364q1.127 0.636 2.433 0.636z"></path>
</svg>
