<!-- Generated by IcoMoon.io -->
<svg version="1.1" xmlns="http://www.w3.org/2000/svg" width="20" height="20" viewBox="0 0 20 20">
<title>venus-double</title>
<path d="M19.978 5.904q0.134 1.73-0.586 3.259t-2.076 2.5-3.030 1.15v2.902h2.5q0.156 0 0.257 0.1t0.1 0.257v0.714q0 0.156-0.1 0.257t-0.257 0.1h-2.5v2.5q0 0.156-0.1 0.257t-0.257 0.1h-0.714q-0.156 0-0.257-0.1t-0.1-0.257v-2.5h-5.714v2.5q0 0.156-0.1 0.257t-0.257 0.1h-0.714q-0.156 0-0.257-0.1t-0.1-0.257v-2.5h-2.5q-0.156 0-0.257-0.1t-0.1-0.257v-0.714q0-0.156 0.1-0.257t0.257-0.1h2.5v-2.902q-1.674-0.179-3.030-1.15t-2.076-2.5-0.586-3.259q0.19-2.299 1.836-3.979t3.934-1.892q2.299-0.234 4.208 1.049 1.908-1.283 4.208-1.049 2.288 0.212 3.934 1.892t1.836 3.979zM10 9.922q1.429-1.462 1.429-3.493t-1.429-3.493q-1.429 1.462-1.429 3.493t1.429 3.493zM6.429 11.429q1.283 0 2.433-0.636-1.719-1.842-1.719-4.364 0-2.5 1.719-4.364-1.15-0.636-2.433-0.636-2.065 0-3.532 1.468t-1.468 3.532 1.468 3.532 3.532 1.468zM12.857 15.714v-2.902q-1.529-0.167-2.857-1.049-1.328 0.882-2.857 1.049v2.902h5.714zM13.571 11.429q2.065 0 3.532-1.468t1.468-3.532-1.468-3.532-3.532-1.468q-1.283 0-2.433 0.636 1.719 1.864 1.719 4.364 0 2.522-1.719 4.364 1.15 0.636 2.433 0.636z"></path>
</svg>
