<!-- Generated by IcoMoon.io -->
<svg version="1.1" xmlns="http://www.w3.org/2000/svg" width="20" height="20" viewBox="0 0 20 20">
<title>venus</title>
<path d="M15.714 6.429q0 2.467-1.646 4.291t-4.068 2.093v2.902h2.5q0.156 0 0.257 0.1t0.1 0.257v0.714q0 0.156-0.1 0.257t-0.257 0.1h-2.5v2.5q0 0.156-0.1 0.257t-0.257 0.1h-0.714q-0.156 0-0.257-0.1t-0.1-0.257v-2.5h-2.5q-0.156 0-0.257-0.1t-0.1-0.257v-0.714q0-0.156 0.1-0.257t0.257-0.1h2.5v-2.902q-1.674-0.179-3.030-1.15t-2.076-2.5-0.586-3.259q0.123-1.496 0.898-2.779t2.031-2.098 2.74-0.982q1.897-0.212 3.56 0.603t2.634 2.366 0.971 3.415zM4.286 6.429q0 2.065 1.468 3.532t3.532 1.468 3.532-1.468 1.468-3.532-1.468-3.532-3.532-1.468-3.532 1.468-1.468 3.532z"></path>
</svg>
