<!-- Generated by IcoMoon.io -->
<svg version="1.1" xmlns="http://www.w3.org/2000/svg" width="20" height="20" viewBox="0 0 20 20">
<title>viadeo</title>
<path d="M14.576 12.344q0 2.4-1.641 4.174-1.652 1.797-4.219 1.797-2.589 0-4.219-1.797-1.641-1.775-1.641-4.174 0-1.641 0.759-3.019t2.109-2.193 2.991-0.815q1.071 0 2.031 0.346-0.357 0.692-0.435 1.406-0.737-0.312-1.596-0.312-1.864 0-3.131 1.373t-1.267 3.248q0 1.897 1.256 3.22t3.142 1.323 3.136-1.323 1.25-3.22q0-0.993-0.357-1.853 0.737-0.145 1.373-0.547 0.458 1.094 0.458 2.366zM12.299 10.234q0 2.143-0.887 3.85t-2.662 2.824l-0.156 0.011q-0.324 0-0.692-0.056 0.926-0.357 1.635-1.144t1.11-1.724 0.653-2.109 0.335-2.148 0.084-1.992q0-0.77-0.033-1.15 0.614 1.786 0.614 3.638zM11.685 6.574v0.022q-0.815-2.388-2.299-4.911 0.982 0.658 1.59 2.081t0.709 2.807zM14.408 8.839q-0.926 0-1.786-0.837 2.433-1.339 3.237-2.757 0.212-0.413 0.234-0.625-0.469 1.049-1.557 1.858t-2.282 1.088q-0.391-0.603-0.391-1.261 0-0.413 0.19-0.882t0.48-0.759q0.513-0.491 1.752-0.826 0.658-0.179 1.183-0.653t0.826-1.122q0.826 1.172 0.826 2.824 0 1.217-0.268 1.897-0.357 0.859-0.988 1.456t-1.456 0.597z"></path>
</svg>
