<!-- Generated by IcoMoon.io -->
<svg version="1.1" xmlns="http://www.w3.org/2000/svg" width="20" height="20" viewBox="0 0 20 20">
<title>viadeo-square</title>
<path d="M13.147 11.618q0-0.871-0.313-1.641-0.458 0.279-0.949 0.379 0.246 0.558 0.246 1.272 0 1.306-0.859 2.215t-2.154 0.91-2.16-0.91-0.865-2.215q0-1.283 0.871-2.227t2.154-0.943q0.592 0 1.094 0.212 0.045-0.48 0.301-0.971-0.67-0.234-1.395-0.234-1.719 0-2.874 1.211t-1.155 2.941 1.155 2.913 2.874 1.183 2.874-1.189 1.155-2.907zM11.161 7.656q0.022 0.268 0.022 0.792 0 0.703-0.056 1.373t-0.229 1.479-0.452 1.451-0.765 1.183-1.122 0.787q0.234 0.033 0.469 0.033h0.112q2.444-1.551 2.444-4.587 0-1.295-0.424-2.511zM11.161 7.656q-0.045-0.893-0.491-1.914t-1.094-1.456q1.027 1.741 1.585 3.371zM14.9 6.484q0-1.138-0.569-1.942-0.458 0.96-1.384 1.217-0.77 0.212-1.217 0.597t-0.446 1.11q0 0.446 0.268 0.859 0.826-0.19 1.568-0.748t1.066-1.283q-0.045 0.58-0.831 1.244t-1.546 1.088q0.58 0.58 1.228 0.58 0.569 0 1.004-0.413t0.67-1.004q0.19-0.469 0.19-1.306zM18.571 4.643v10.714q0 1.328-0.943 2.271t-2.271 0.943h-10.714q-1.328 0-2.271-0.943t-0.943-2.271v-10.714q0-1.328 0.943-2.271t2.271-0.943h10.714q1.328 0 2.271 0.943t0.943 2.271z"></path>
</svg>
