<!-- Generated by IcoMoon.io -->
<svg version="1.1" xmlns="http://www.w3.org/2000/svg" width="20" height="20" viewBox="0 0 20 20">
<title>video-camera</title>
<path d="M20 3.929v12.143q0 0.469-0.435 0.658-0.145 0.056-0.279 0.056-0.301 0-0.502-0.212l-4.498-4.498v1.853q0 1.328-0.943 2.271t-2.271 0.943h-7.857q-1.328 0-2.271-0.943t-0.943-2.271v-7.857q0-1.328 0.943-2.271t2.271-0.943h7.857q1.328 0 2.271 0.943t0.943 2.271v1.842l4.498-4.487q0.201-0.212 0.502-0.212 0.134 0 0.279 0.056 0.435 0.19 0.435 0.658z"></path>
</svg>
