<!-- Generated by IcoMoon.io -->
<svg version="1.1" xmlns="http://www.w3.org/2000/svg" width="20" height="20" viewBox="0 0 20 20">
<title>vimeo-square</title>
<path d="M15.848 7.121q0.112-2.411-1.797-2.478-2.578-0.089-3.482 2.913 0.491-0.212 0.915-0.212 0.949 0 0.826 1.071-0.045 0.636-0.826 1.864t-1.172 1.228q-0.48 0-0.915-1.886-0.145-0.603-0.502-2.846-0.335-2.109-1.786-1.975-0.658 0.078-1.83 1.116l-1.808 1.607 0.58 0.748q0.848-0.58 0.971-0.58 0.636 0 1.194 1.998 0.167 0.614 0.502 1.836t0.502 1.836q0.759 1.998 1.83 1.998 1.752 0 4.275-3.281 2.455-3.158 2.522-4.955zM18.571 4.643v10.714q0 1.328-0.943 2.271t-2.271 0.943h-10.714q-1.328 0-2.271-0.943t-0.943-2.271v-10.714q0-1.328 0.943-2.271t2.271-0.943h10.714q1.328 0 2.271 0.943t0.943 2.271z"></path>
</svg>
