<!-- Generated by IcoMoon.io -->
<svg version="1.1" xmlns="http://www.w3.org/2000/svg" width="20" height="20" viewBox="0 0 20 20">
<title>vimeo</title>
<path d="M19.074 5.781q-0.112 2.634-3.705 7.266-3.717 4.81-6.272 4.81-1.585 0-2.679-2.935-0.491-1.786-1.473-5.379-0.804-2.924-1.752-2.924-0.201 0-1.417 0.848l-0.859-1.094q0.268-0.234 1.205-1.077t1.451-1.289q1.741-1.54 2.69-1.629 1.060-0.1 1.708 0.619t0.904 2.271q0.491 3.203 0.737 4.163 0.614 2.779 1.339 2.779 0.569 0 1.719-1.797 1.127-1.797 1.217-2.746 0.145-1.551-1.217-1.551-0.636 0-1.35 0.29 1.339-4.386 5.123-4.263 2.801 0.089 2.634 3.638z"></path>
</svg>
