<!-- Generated by IcoMoon.io -->
<svg version="1.1" xmlns="http://www.w3.org/2000/svg" width="20" height="20" viewBox="0 0 20 20">
<title>vine</title>
<path d="M18.136 9.23v2.21q-1.127 0.257-2.21 0.257-0.725 1.518-1.847 3.025t-2.026 2.405-1.429 1.189q-0.893 0.502-1.808-0.033-0.313-0.19-0.675-0.485t-0.949-0.932-1.144-1.434-1.2-2.054-1.177-2.723-1.021-3.51-0.787-4.353h3.158q0.29 2.433 0.781 4.448t1.166 3.538 1.356 2.628 1.563 2.176q1.886-1.886 3.203-4.531-1.585-0.804-2.489-2.455t-0.904-3.717q0-2.143 1.161-3.51t3.17-1.367q1.987 0 3.047 1.177t1.060 3.32q0 1.775-0.647 3.192-0.078 0.011-0.218 0.033t-0.513 0.022-0.703-0.067-0.692-0.285-0.564-0.575q0.346-1.15 0.346-2.054 0-0.971-0.324-1.473t-0.882-0.502q-0.592 0-0.949 0.552t-0.357 1.568q0 2.076 1.172 3.276t2.98 1.2q0.692 0 1.35-0.156z"></path>
</svg>
