<!-- Generated by IcoMoon.io -->
<svg version="1.1" xmlns="http://www.w3.org/2000/svg" width="20" height="20" viewBox="0 0 20 20">
<title>volume-up</title>
<path d="M9.286 3.929v12.143q0 0.29-0.212 0.502t-0.502 0.212-0.502-0.212l-3.717-3.717h-2.924q-0.29 0-0.502-0.212t-0.212-0.502v-4.286q0-0.29 0.212-0.502t0.502-0.212h2.924l3.717-3.717q0.212-0.212 0.502-0.212t0.502 0.212 0.212 0.502zM13.571 10q0 0.848-0.474 1.579t-1.256 1.044q-0.112 0.056-0.279 0.056-0.29 0-0.502-0.206t-0.212-0.508q0-0.234 0.134-0.396t0.324-0.279 0.379-0.257 0.324-0.402 0.134-0.631-0.134-0.631-0.324-0.402-0.379-0.257-0.324-0.279-0.134-0.396q0-0.301 0.212-0.508t0.502-0.206q0.167 0 0.279 0.056 0.781 0.301 1.256 1.038t0.474 1.585zM16.429 10q0 1.708-0.949 3.153t-2.511 2.104q-0.145 0.056-0.279 0.056-0.301 0-0.513-0.212t-0.212-0.502q0-0.435 0.435-0.658 0.625-0.324 0.848-0.491 0.826-0.603 1.289-1.512t0.463-1.936-0.463-1.936-1.289-1.512q-0.223-0.167-0.848-0.491-0.435-0.223-0.435-0.658 0-0.29 0.212-0.502t0.502-0.212q0.145 0 0.29 0.056 1.563 0.658 2.511 2.104t0.949 3.153zM19.286 10q0 2.567-1.417 4.715t-3.772 3.164q-0.145 0.056-0.29 0.056-0.29 0-0.502-0.212t-0.212-0.502q0-0.402 0.435-0.658 0.078-0.045 0.251-0.117t0.251-0.117q0.513-0.279 0.915-0.569 1.373-1.016 2.143-2.533t0.77-3.225-0.77-3.225-2.143-2.533q-0.402-0.29-0.915-0.569-0.078-0.045-0.251-0.117t-0.251-0.117q-0.435-0.257-0.435-0.658 0-0.29 0.212-0.502t0.502-0.212q0.145 0 0.29 0.056 2.355 1.016 3.772 3.164t1.417 4.715z"></path>
</svg>
