<!-- Generated by IcoMoon.io -->
<svg version="1.1" xmlns="http://www.w3.org/2000/svg" width="20" height="20" viewBox="0 0 20 20">
<title>volume-control-phone</title>
<path d="M9.029 18.85q0-0.123-0.145-0.647t-0.346-1.194-0.223-0.77q-0.011-0.045-0.056-0.296t-0.095-0.402-0.151-0.24q-0.167-0.156-0.569-0.156-0.257 0-0.781 0.061t-0.792 0.061q-0.379 0-0.525-0.123-0.067-0.056-0.123-0.173t-0.084-0.223-0.073-0.268-0.056-0.206q-0.413-1.429-0.413-2.846t0.413-2.846q0.011-0.045 0.056-0.206t0.073-0.268 0.084-0.223 0.123-0.173q0.145-0.123 0.525-0.123 0.268 0 0.792 0.061t0.781 0.061q0.402 0 0.569-0.156 0.1-0.089 0.151-0.24t0.095-0.402 0.056-0.296q0.022-0.1 0.223-0.77t0.346-1.194 0.145-0.647q0-0.246-0.485-0.586t-0.843-0.474q-0.223-0.089-0.502-0.089-0.379 0-1.094 0.201-0.636 0.19-1.077 0.452t-0.792 0.737-0.513 0.781-0.508 1.055q-0.067 0.134-0.1 0.212-0.547 1.194-0.759 2.411t-0.212 2.723 0.212 2.723 0.759 2.411q0.625 1.362 0.926 1.797 0.703 1.016 1.998 1.417l0.067 0.022q0.714 0.201 1.094 0.201 0.279 0 0.502-0.089 0.357-0.134 0.843-0.474t0.485-0.586zM10.804 8.661q-0.29 0-0.502-0.212t-0.212-0.508 0.212-0.508q0.413-0.413 0.413-1.004 0-0.58-0.413-1.016-0.212-0.212-0.212-0.502t0.212-0.502 0.502-0.212 0.502 0.212q0.837 0.837 0.837 2.020t-0.837 2.020q-0.234 0.212-0.502 0.212zM12.824 10.681q-0.301 0-0.502-0.212-0.212-0.212-0.212-0.502t0.212-0.502q1.25-1.272 1.25-3.036t-1.25-3.036q-0.212-0.212-0.212-0.502t0.212-0.502 0.502-0.212 0.502 0.212q1.674 1.674 1.674 4.040t-1.674 4.040q-0.201 0.212-0.502 0.212zM14.844 12.701q-0.301 0-0.502-0.212-0.212-0.212-0.212-0.502t0.212-0.502q1.004-1.016 1.546-2.321t0.541-2.734-0.541-2.734-1.546-2.321q-0.212-0.212-0.212-0.502t0.212-0.502 0.502-0.212 0.502 0.212q1.217 1.217 1.864 2.779t0.647 3.281-0.647 3.281-1.864 2.779q-0.201 0.212-0.502 0.212z"></path>
</svg>
