<!-- Generated by IcoMoon.io -->
<svg version="1.1" xmlns="http://www.w3.org/2000/svg" width="20" height="20" viewBox="0 0 20 20">
<title>volume-down</title>
<path d="M12.143 3.929v12.143q0 0.29-0.212 0.502t-0.502 0.212-0.502-0.212l-3.717-3.717h-2.924q-0.29 0-0.502-0.212t-0.212-0.502v-4.286q0-0.29 0.212-0.502t0.502-0.212h2.924l3.717-3.717q0.212-0.212 0.502-0.212t0.502 0.212 0.212 0.502zM16.429 10q0 0.848-0.474 1.579t-1.256 1.044q-0.112 0.056-0.279 0.056-0.29 0-0.502-0.206t-0.212-0.508q0-0.234 0.134-0.396t0.324-0.279 0.379-0.257 0.324-0.402 0.134-0.631-0.134-0.631-0.324-0.402-0.379-0.257-0.324-0.279-0.134-0.396q0-0.301 0.212-0.508t0.502-0.206q0.167 0 0.279 0.056 0.781 0.301 1.256 1.038t0.474 1.585z"></path>
</svg>
