<!-- Generated by IcoMoon.io -->
<svg version="1.1" xmlns="http://www.w3.org/2000/svg" width="20" height="20" viewBox="0 0 20 20">
<title>warning</title>
<path d="M11.429 15.346v-2.121q0-0.156-0.106-0.262t-0.251-0.106h-2.143q-0.145 0-0.251 0.106t-0.106 0.262v2.121q0 0.156 0.106 0.262t0.251 0.106h2.143q0.145 0 0.251-0.106t0.106-0.262zM11.406 11.172l0.201-5.123q0-0.134-0.112-0.212-0.145-0.123-0.268-0.123h-2.455q-0.123 0-0.268 0.123-0.112 0.078-0.112 0.234l0.19 5.1q0 0.112 0.112 0.184t0.268 0.073h2.065q0.156 0 0.262-0.073t0.117-0.184zM11.25 0.748l8.571 15.714q0.391 0.703-0.022 1.406-0.19 0.324-0.519 0.513t-0.709 0.19h-17.143q-0.379 0-0.709-0.19t-0.519-0.513q-0.413-0.703-0.022-1.406l8.571-15.714q0.19-0.346 0.525-0.547t0.725-0.201 0.725 0.201 0.525 0.547z"></path>
</svg>
