<!-- Generated by IcoMoon.io -->
<svg version="1.1" xmlns="http://www.w3.org/2000/svg" width="23" height="20" viewBox="0 0 23 20">
<title>wechat</title>
<path d="M6.473 5.145q0-0.458-0.279-0.737t-0.737-0.279q-0.48 0-0.848 0.285t-0.368 0.731q0 0.435 0.368 0.72t0.848 0.285q0.458 0 0.737-0.273t0.279-0.731zM14.766 10.804q0-0.313-0.285-0.558t-0.731-0.246q-0.301 0-0.552 0.251t-0.251 0.552q0 0.313 0.251 0.564t0.552 0.251q0.446 0 0.731-0.246t0.285-0.569zM12.132 5.145q0-0.458-0.273-0.737t-0.731-0.279q-0.48 0-0.848 0.285t-0.368 0.731q0 0.435 0.368 0.72t0.848 0.285q0.458 0 0.731-0.273t0.273-0.731zM19.219 10.804q0-0.313-0.29-0.558t-0.725-0.246q-0.301 0-0.552 0.251t-0.251 0.552q0 0.313 0.251 0.564t0.552 0.251q0.435 0 0.725-0.246t0.29-0.569zM16.25 6.373q-0.346-0.045-0.781-0.045-1.886 0-3.471 0.859t-2.494 2.327-0.91 3.209q0 0.871 0.257 1.696-0.391 0.033-0.759 0.033-0.29 0-0.558-0.017t-0.614-0.073-0.497-0.078-0.608-0.117-0.558-0.117l-2.824 1.417 0.804-2.433q-3.237-2.266-3.237-5.469 0-1.886 1.088-3.471t2.946-2.494 4.057-0.91q1.964 0 3.711 0.737t2.924 2.037 1.523 2.907zM22.857 12.634q0 1.306-0.765 2.494t-2.070 2.16l0.614 2.020-2.221-1.217q-1.674 0.413-2.433 0.413-1.886 0-3.471-0.787t-2.494-2.137-0.91-2.946 0.91-2.946 2.494-2.137 3.471-0.787q1.797 0 3.382 0.787t2.539 2.143 0.954 2.941z"></path>
</svg>
