<!-- Generated by IcoMoon.io -->
<svg version="1.1" xmlns="http://www.w3.org/2000/svg" width="20" height="20" viewBox="0 0 20 20">
<title>weibo</title>
<path d="M7.533 14.33q0.234-0.379 0.123-0.77t-0.502-0.558q-0.379-0.156-0.815-0.011t-0.67 0.513q-0.246 0.379-0.145 0.765t0.48 0.564 0.831 0.028 0.698-0.53zM8.583 12.98q0.089-0.145 0.039-0.296t-0.195-0.206q-0.156-0.056-0.318 0.006t-0.24 0.206q-0.19 0.346 0.145 0.502 0.156 0.056 0.324-0.006t0.246-0.206zM10.525 14.174q-0.502 1.138-1.763 1.674t-2.5 0.134q-1.194-0.379-1.646-1.412t0.073-2.093q0.525-1.038 1.691-1.551t2.349-0.212q1.239 0.324 1.769 1.334t0.028 2.126zM14.007 12.388q-0.1-1.071-0.993-1.897t-2.327-1.217-3.064-0.234q-2.489 0.257-4.124 1.579t-1.479 2.952q0.1 1.071 0.993 1.897t2.327 1.217 3.064 0.234q2.489-0.257 4.124-1.579t1.479-2.952zM17.444 12.433q0 0.759-0.413 1.557t-1.217 1.529-1.881 1.311-2.522 0.926-3.019 0.346-3.069-0.374-2.684-1.038-1.914-1.685-0.725-2.227q0-1.283 0.776-2.734t2.204-2.879q1.886-1.886 3.811-2.634t2.751 0.078q0.725 0.714 0.223 2.333-0.045 0.156-0.011 0.223t0.112 0.078 0.162-0.006 0.151-0.039l0.067-0.022q1.551-0.658 2.746-0.658t1.708 0.681q0.502 0.703 0 1.987-0.022 0.145-0.050 0.223t0.050 0.14 0.134 0.084 0.19 0.067q0.636 0.201 1.15 0.525t0.893 0.91 0.379 1.3zM16.618 5.469q0.469 0.525 0.608 1.211t-0.073 1.311q-0.089 0.257-0.329 0.379t-0.497 0.045q-0.257-0.089-0.379-0.329t-0.045-0.497q0.223-0.703-0.268-1.239t-1.194-0.391q-0.268 0.056-0.502-0.089t-0.279-0.413q-0.056-0.268 0.089-0.497t0.413-0.285q0.67-0.145 1.328 0.061t1.127 0.731zM18.638 3.65q0.971 1.071 1.256 2.483t-0.151 2.695q-0.1 0.301-0.379 0.446t-0.58 0.045-0.446-0.379-0.056-0.58q0.313-0.915 0.112-1.92t-0.893-1.763q-0.692-0.77-1.652-1.066t-1.931-0.095q-0.313 0.067-0.58-0.106t-0.335-0.485 0.106-0.575 0.485-0.329q1.373-0.29 2.723 0.128t2.321 1.501z"></path>
</svg>
