<!-- Generated by IcoMoon.io -->
<svg version="1.1" xmlns="http://www.w3.org/2000/svg" width="20" height="20" viewBox="0 0 20 20">
<title>whatsapp</title>
<path d="M12.422 10.871q0.145 0 1.088 0.491t0.999 0.592q0.022 0.056 0.022 0.167 0 0.368-0.19 0.848-0.179 0.435-0.792 0.731t-1.138 0.296q-0.636 0-2.121-0.692-1.094-0.502-1.897-1.317t-1.652-2.065q-0.804-1.194-0.792-2.165v-0.089q0.033-1.016 0.826-1.763 0.268-0.246 0.58-0.246 0.067 0 0.201 0.017t0.212 0.017q0.212 0 0.296 0.073t0.173 0.307q0.089 0.223 0.368 0.982t0.279 0.837q0 0.234-0.385 0.642t-0.385 0.519q0 0.078 0.056 0.167 0.379 0.815 1.138 1.529 0.625 0.592 1.685 1.127 0.134 0.078 0.246 0.078 0.167 0 0.603-0.541t0.58-0.541zM10.156 16.786q1.417 0 2.718-0.558t2.238-1.496 1.496-2.238 0.558-2.718-0.558-2.718-1.496-2.238-2.238-1.496-2.718-0.558-2.718 0.558-2.238 1.496-1.496 2.238-0.558 2.718q0 2.266 1.339 4.107l-0.882 2.6 2.701-0.859q1.763 1.161 3.85 1.161zM10.156 1.362q1.708 0 3.265 0.67t2.684 1.797 1.797 2.684 0.67 3.265-0.67 3.265-1.797 2.684-2.684 1.797-3.265 0.67q-2.176 0-4.074-1.049l-4.654 1.496 1.518-4.52q-1.205-1.987-1.205-4.342 0-1.708 0.67-3.265t1.797-2.684 2.684-1.797 3.265-0.67z"></path>
</svg>
