<!-- Generated by IcoMoon.io -->
<svg version="1.1" xmlns="http://www.w3.org/2000/svg" width="20" height="20" viewBox="0 0 20 20">
<title>wheelchair-alt</title>
<path d="M17.478 9.074q0.379 0.391 0.324 0.915l-0.491 6.15q-0.045 0.469-0.385 0.781t-0.798 0.313q-0.067 0-0.1-0.011-0.491-0.033-0.809-0.407t-0.285-0.865l0.391-4.788-1.596 0.089q0.614 1.261 0.614 2.679 0 2.411-1.652 4.152l-1.529-1.529q1.016-1.127 1.016-2.623 0-1.618-1.144-2.768t-2.762-1.15q-1.496 0-2.634 1.027l-1.529-1.54q1.339-1.272 3.17-1.574l2.946-3.348-1.663-0.971-2.020 1.797q-0.368 0.335-0.859 0.307t-0.815-0.396-0.296-0.859 0.385-0.815l2.667-2.377q0.29-0.257 0.67-0.296t0.714 0.162l5.446 3.158q0.402 0.234 0.536 0.759 0.19 0.748-0.29 1.306l-2.288 2.589 4.141-0.223q0.547-0.033 0.926 0.357zM15.268 3.973q-0.826 0-1.406-0.58t-0.58-1.406 0.58-1.406 1.406-0.58 1.412 0.58 0.586 1.406-0.586 1.406-1.412 0.58zM8.27 17.835q1.183 0 2.188-0.681l1.551 1.551q-1.629 1.295-3.739 1.295-1.652 0-3.052-0.815t-2.215-2.21-0.815-3.047q0-2.098 1.295-3.75l1.551 1.551q-0.67 0.982-0.67 2.199 0 1.618 1.144 2.762t2.762 1.144z"></path>
</svg>
