<!-- Generated by IcoMoon.io -->
<svg version="1.1" xmlns="http://www.w3.org/2000/svg" width="20" height="20" viewBox="0 0 20 20">
<title>wheelchair</title>
<path d="M12.132 13.248l1.138 2.277q-0.647 1.998-2.344 3.237t-3.783 1.239q-1.741 0-3.22-0.865t-2.344-2.344-0.865-3.22q0-2.020 1.166-3.683t3.064-2.355l0.19 1.462q-1.362 0.603-2.176 1.847t-0.815 2.729q0 2.065 1.468 3.532t3.532 1.468q1.406 0 2.595-0.725t1.842-1.959 0.552-2.64zM18.248 14.364l0.647 1.272-2.857 1.429q-0.145 0.078-0.324 0.078-0.446 0-0.636-0.391l-2.667-5.324h-5.268q-0.268 0-0.474-0.184t-0.24-0.452l-1.071-8.694q-0.022-0.19 0.067-0.469 0.156-0.569 0.636-0.921t1.083-0.352q0.737 0 1.261 0.525t0.525 1.261q0 0.77-0.58 1.311t-1.339 0.463l0.413 3.225h4.721v1.429h-4.542l0.179 1.429h5.078q0.446 0 0.636 0.391l2.545 5.078z"></path>
</svg>
