<!-- Generated by IcoMoon.io -->
<svg version="1.1" xmlns="http://www.w3.org/2000/svg" width="23" height="20" viewBox="0 0 23 20">
<title>wifi</title>
<path d="M11.429 16.998q-0.223 0-1.038-0.82t-0.815-1.044q0-0.357 0.698-0.603t1.155-0.246 1.155 0.246 0.698 0.603q0 0.223-0.815 1.044t-1.038 0.82zM14.442 13.973q-0.022 0-0.446-0.279t-1.133-0.558-1.434-0.279-1.434 0.279-1.127 0.558-0.452 0.279q-0.201 0-1.044-0.837t-0.843-1.038q0-0.145 0.112-0.257 0.871-0.859 2.188-1.35t2.6-0.491 2.6 0.491 2.188 1.35q0.112 0.112 0.112 0.257 0 0.201-0.843 1.038t-1.044 0.837zM17.489 10.938q-0.123 0-0.257-0.089-1.518-1.172-2.812-1.724t-2.991-0.552q-0.949 0-1.903 0.246t-1.663 0.592-1.267 0.692-0.882 0.592-0.346 0.246q-0.19 0-1.027-0.837t-0.837-1.038q0-0.134 0.112-0.246 1.473-1.473 3.571-2.288t4.241-0.815 4.241 0.815 3.571 2.288q0.112 0.112 0.112 0.246 0 0.201-0.837 1.038t-1.027 0.837zM20.513 7.913q-0.123 0-0.246-0.1-1.998-1.752-4.146-2.64t-4.693-0.887-4.693 0.887-4.146 2.64q-0.123 0.1-0.246 0.1-0.19 0-1.032-0.837t-0.843-1.038q0-0.145 0.112-0.257 2.087-2.076 4.967-3.214t5.882-1.138 5.882 1.138 4.967 3.214q0.112 0.112 0.112 0.257 0 0.201-0.843 1.038t-1.032 0.837z"></path>
</svg>
