<!-- Generated by IcoMoon.io -->
<svg version="1.1" xmlns="http://www.w3.org/2000/svg" width="26" height="20" viewBox="0 0 26 20">
<title>wikipedia-w</title>
<path d="M16.674 18.292l-3.292-7.757q-0.279 0.547-1.769 3.41t-2.215 4.347q-0.011 0.011-0.307 0.006t-0.296-0.017q-0.915-2.154-2.852-6.551t-2.896-6.652q-0.234-0.558-0.742-1.2t-1.155-1.122-1.138-0.48q0-0.056-0.006-0.268t-0.006-0.301h6.507v0.558q-0.435 0.022-0.887 0.179t-0.742 0.48-0.112 0.714q0.29 0.658 2.416 5.569t2.628 6.027q0.346-0.681 1.563-2.974t1.462-2.762q-0.212-0.435-1.406-3.136t-1.518-3.292q-0.424-0.77-2.243-0.792v-0.558l5.725 0.011v0.525q-0.67 0.022-1.044 0.279t-0.14 0.77q0.368 0.781 0.971 2.115t0.96 2.093q1.228-2.388 1.931-4.051 0.268-0.614-0.112-0.887t-1.44-0.296q0.011-0.078 0.011-0.279v-0.268q0.714 0 1.903-0.006t2.009-0.011 1.032-0.006v0.547q-0.692 0.022-1.328 0.368t-1.004 0.904l-2.377 4.933q0.145 0.368 1.423 3.237t1.356 3.058l4.922-11.35q-0.156-0.424-0.552-0.698t-0.725-0.352-0.619-0.089v-0.558l5.134 0.045 0.011 0.022-0.011 0.491q-1.551 0.045-2.243 1.618-5.871 13.571-6.239 14.408h-0.547z"></path>
</svg>
