<!-- Generated by IcoMoon.io -->
<svg version="1.1" xmlns="http://www.w3.org/2000/svg" width="23" height="20" viewBox="0 0 23 20">
<title>window-restore</title>
<path d="M2.857 17.143h8.571v-5.714h-8.571v5.714zM14.286 11.429h5.714v-8.571h-8.571v2.857h1.071q0.737 0 1.261 0.525t0.525 1.261v3.929zM22.857 1.786v10.714q0 0.737-0.525 1.261t-1.261 0.525h-6.786v3.929q0 0.737-0.525 1.261t-1.261 0.525h-10.714q-0.737 0-1.261-0.525t-0.525-1.261v-10.714q0-0.737 0.525-1.261t1.261-0.525h6.786v-3.929q0-0.737 0.525-1.261t1.261-0.525h10.714q0.737 0 1.261 0.525t0.525 1.261z"></path>
</svg>
