<!-- Generated by IcoMoon.io -->
<svg version="1.1" xmlns="http://www.w3.org/2000/svg" width="20" height="20" viewBox="0 0 20 20">
<title>wordpress</title>
<path d="M1.417 10q0-1.819 0.748-3.493l4.096 11.217q-2.188-1.060-3.516-3.136t-1.328-4.587zM15.792 9.565q0 0.212-0.028 0.43t-0.112 0.552-0.128 0.491-0.195 0.658-0.195 0.647l-0.848 2.857-3.103-9.219q0.513-0.033 0.982-0.089 0.212-0.022 0.29-0.206t-0.028-0.346-0.318-0.151l-2.288 0.112q-0.837-0.011-2.254-0.112-0.134-0.011-0.229 0.056t-0.128 0.167-0.017 0.206 0.1 0.184 0.218 0.089l0.893 0.089 1.339 3.661-1.875 5.625-3.125-9.286q0.513-0.033 0.982-0.089 0.212-0.022 0.29-0.206t-0.028-0.346-0.318-0.151l-2.288 0.112q-0.078 0-0.257-0.006t-0.29-0.006q1.172-1.786 3.064-2.829t4.102-1.044q1.641 0 3.131 0.592t2.662 1.663h-0.112q-0.614 0-1.027 0.452t-0.413 1.066q0 0.134 0.022 0.268t0.045 0.24 0.089 0.257 0.1 0.234 0.134 0.251 0.14 0.234 0.162 0.268 0.156 0.257q0.703 1.194 0.703 2.366zM10.145 10.748l2.645 7.221q0.011 0.067 0.056 0.123-1.406 0.491-2.846 0.491-1.25 0-2.422-0.357zM17.522 5.882q1.060 1.942 1.060 4.118 0 2.333-1.161 4.302t-3.114 3.108l2.623-7.567q0.658-1.886 0.658-3.080 0-0.469-0.067-0.882zM10 0q2.031 0 3.884 0.792t3.192 2.132 2.132 3.192 0.792 3.884-0.792 3.884-2.132 3.192-3.192 2.132-3.884 0.792-3.884-0.792-3.192-2.132-2.132-3.192-0.792-3.884 0.792-3.884 2.132-3.192 3.192-2.132 3.884-0.792zM10 19.542q1.931 0 3.7-0.759t3.047-2.037 2.037-3.047 0.759-3.7-0.759-3.7-2.037-3.047-3.047-2.037-3.7-0.759-3.7 0.759-3.047 2.037-2.037 3.047-0.759 3.7 0.759 3.7 2.037 3.047 3.047 2.037 3.7 0.759z"></path>
</svg>
