<!-- Generated by IcoMoon.io -->
<svg version="1.1" xmlns="http://www.w3.org/2000/svg" width="20" height="20" viewBox="0 0 20 20">
<title>wpbeginner</title>
<path d="M4.286 9.286h1.786v-2.5h-1.786v2.5zM13.627 12.991v-1.027q-1.161 0.402-2.712 0.424-1.507 0.011-2.896-0.519t-2.461-1.367l0.011 1.071q0.982 0.893 2.366 1.434t3.036 0.53q1.44 0 2.656-0.547zM7.143 9.286h7.143v-2.5h-7.143v2.5zM20 8.929q0 2.087-1.105 3.929 0.993 1.138 0.993 2.556 0 1.752-1.445 2.991t-3.499 1.239q-1.362 0-2.511-0.586t-1.797-1.568q-0.212 0.011-0.636 0.011t-0.636-0.011q-0.647 0.982-1.797 1.568t-2.511 0.586q-2.054 0-3.499-1.239t-1.445-2.991q0-1.417 0.993-2.556-1.105-1.842-1.105-3.929 0-2.333 1.339-4.302t3.644-3.119 5.017-1.15 5.017 1.15 3.644 3.119 1.339 4.302z"></path>
</svg>
