<!-- Generated by IcoMoon.io -->
<svg version="1.1" xmlns="http://www.w3.org/2000/svg" width="20" height="20" viewBox="0 0 20 20">
<title>wpexplorer</title>
<path d="M10.58 11.473l1.819 3.672h-0.569l-1.953-3.906-1.908 3.906h-0.547l1.998-4.174-0.871-0.368 0.234-0.547 2.679 1.138-0.234 0.558zM6.283 4.866l3.393 1.451-1.451 3.393-3.393-1.451zM10.123 6.931l2.679 1.15-1.15 2.667-2.667-1.138zM13.259 8.605l2.132 0.904-0.915 2.121-2.121-0.904zM18.75 10q0-1.775-0.692-3.393t-1.869-2.796-2.796-1.869-3.393-0.692-3.393 0.692-2.796 1.869-1.869 2.796-0.692 3.393 0.692 3.393 1.869 2.796 2.796 1.869 3.393 0.692 3.393-0.692 2.796-1.869 1.869-2.796 0.692-3.393zM20 10q0 2.031-0.792 3.884t-2.132 3.192-3.192 2.132-3.884 0.792-3.884-0.792-3.192-2.132-2.132-3.192-0.792-3.884 0.792-3.884 2.132-3.192 3.192-2.132 3.884-0.792 3.884 0.792 3.192 2.132 2.132 3.192 0.792 3.884z"></path>
</svg>
