<!-- Generated by IcoMoon.io -->
<svg version="1.1" xmlns="http://www.w3.org/2000/svg" width="20" height="20" viewBox="0 0 20 20">
<title>wpforms</title>
<path d="M7.176 10.167v1.429h-2.813v-1.429h2.813zM7.176 7.321v1.417h-2.813v-1.417h2.813zM15.636 13.025v1.429h-3.806v-1.429h3.806zM15.636 10.167v1.429h-7.5v-1.429h7.5zM15.636 7.321v1.417h-7.5v-1.417h7.5zM17.143 16.92v-13.839q0-0.089-0.067-0.156t-0.156-0.067h-0.357l-4.219 2.857-2.344-1.908-2.344 1.908-4.219-2.857h-0.357q-0.089 0-0.156 0.067t-0.067 0.156v13.839q0 0.089 0.067 0.156t0.156 0.067h13.839q0.089 0 0.156-0.067t0.067-0.156zM7.6 4.531l2.065-1.674h-4.531zM12.4 4.531l2.467-1.674h-4.531zM18.571 3.080v13.839q0 0.692-0.48 1.172t-1.172 0.48h-13.839q-0.692 0-1.172-0.48t-0.48-1.172v-13.839q0-0.692 0.48-1.172t1.172-0.48h13.839q0.692 0 1.172 0.48t0.48 1.172z"></path>
</svg>
