<!-- Generated by IcoMoon.io -->
<svg version="1.1" xmlns="http://www.w3.org/2000/svg" width="20" height="20" viewBox="0 0 20 20">
<title>wrench</title>
<path d="M5 16.429q0-0.29-0.212-0.502t-0.502-0.212-0.502 0.212-0.212 0.502 0.212 0.502 0.502 0.212 0.502-0.212 0.212-0.502zM12.188 11.741l-7.612 7.612q-0.413 0.413-1.004 0.413-0.58 0-1.016-0.413l-1.183-1.205q-0.424-0.402-0.424-1.004 0-0.592 0.424-1.016l7.6-7.6q0.435 1.094 1.278 1.936t1.936 1.278zM19.263 6.886q0 0.435-0.257 1.183-0.525 1.496-1.836 2.427t-2.885 0.932q-2.065 0-3.532-1.468t-1.468-3.532 1.468-3.532 3.532-1.468q0.647 0 1.356 0.184t1.2 0.519q0.179 0.123 0.179 0.313t-0.179 0.313l-3.27 1.886v2.5l2.154 1.194q0.056-0.033 0.882-0.541t1.512-0.904 0.787-0.396q0.167 0 0.262 0.112t0.095 0.279z"></path>
</svg>
