<!-- Generated by IcoMoon.io -->
<svg version="1.1" xmlns="http://www.w3.org/2000/svg" width="20" height="20" viewBox="0 0 20 20">
<title>xing</title>
<path d="M8.806 7.444q-0.112 0.201-2.868 5.089-0.301 0.513-0.725 0.513h-2.667q-0.234 0-0.346-0.19t0-0.402l2.824-5q0.011 0 0-0.011l-1.797-3.114q-0.134-0.246-0.011-0.413 0.1-0.167 0.357-0.167h2.667q0.446 0 0.737 0.502zM17.801 0.279q0.123 0.179 0 0.413l-5.893 10.424v0.011l3.75 6.864q0.123 0.223 0.011 0.413-0.112 0.167-0.357 0.167h-2.667q-0.469 0-0.737-0.502l-3.783-6.942q0.201-0.357 5.926-10.513 0.279-0.502 0.714-0.502h2.69q0.246 0 0.346 0.167z"></path>
</svg>
