<!-- Generated by IcoMoon.io -->
<svg version="1.1" xmlns="http://www.w3.org/2000/svg" width="20" height="20" viewBox="0 0 20 20">
<title>xing-square</title>
<path d="M9.074 8.538q0-0.011-1.406-2.478-0.234-0.379-0.58-0.379h-2.054q-0.201 0-0.29 0.123-0.078 0.134 0.011 0.324l1.395 2.411v0.011l-2.187 3.862q-0.1 0.156 0 0.313 0.089 0.145 0.268 0.145h2.065q0.346 0 0.558-0.402zM16.038 2.991q-0.078-0.134-0.268-0.134h-2.087q-0.335 0-0.547 0.391l-4.587 8.136q0.011 0.022 2.924 5.368 0.223 0.391 0.58 0.391h2.054q0.201 0 0.279-0.134 0.089-0.145-0.011-0.313l-2.902-5.313v-0.011l4.565-8.069q0.089-0.179 0-0.313zM18.571 4.643v10.714q0 1.328-0.943 2.271t-2.271 0.943h-10.714q-1.328 0-2.271-0.943t-0.943-2.271v-10.714q0-1.328 0.943-2.271t2.271-0.943h10.714q1.328 0 2.271 0.943t0.943 2.271z"></path>
</svg>
