<!-- Generated by IcoMoon.io -->
<svg version="1.1" xmlns="http://www.w3.org/2000/svg" width="20" height="20" viewBox="0 0 20 20">
<title>yahoo</title>
<path d="M11.016 10.681l0.145 7.891q-0.692-0.123-1.172-0.123-0.458 0-1.172 0.123l0.145-7.891q-0.446-0.77-1.881-3.298t-2.416-4.18-2.020-3.203q0.647 0.167 1.205 0.167 0.491 0 1.239-0.167 0.703 1.239 1.49 2.561t1.864 3.086 1.546 2.533q0.413-0.681 1.222-1.981t1.311-2.121 1.172-1.964 1.194-2.115q0.603 0.156 1.194 0.156 0.625 0 1.272-0.156-0.313 0.435-0.67 0.988t-0.552 0.876-0.631 1.071-0.547 0.938q-1.629 2.768-3.94 6.808z"></path>
</svg>
