<!-- Generated by IcoMoon.io -->
<svg version="1.1" xmlns="http://www.w3.org/2000/svg" width="20" height="20" viewBox="0 0 20 20">
<title>yelp</title>
<path d="M10.056 14.721v1.417q-0.011 3.259-0.067 3.404-0.134 0.357-0.569 0.446-0.603 0.1-2.026-0.424t-1.814-0.993q-0.145-0.167-0.19-0.402-0.011-0.134 0.045-0.29 0.045-0.112 0.379-0.525t2.020-2.411q0.011 0 0.67-0.781 0.167-0.212 0.441-0.273t0.552 0.039q0.268 0.112 0.419 0.324t0.14 0.469zM8.393 11.92q-0.033 0.614-0.58 0.781l-1.339 0.435q-3.069 0.982-3.259 0.982-0.391-0.022-0.603-0.402-0.134-0.279-0.19-0.837-0.089-0.848 0.011-1.858t0.335-1.39 0.625-0.357q0.145 0 2.254 0.859 0.792 0.324 1.283 0.525l0.938 0.379q0.257 0.1 0.396 0.34t0.128 0.541zM17.612 15.234q-0.078 0.603-1.021 1.797t-1.512 1.417q-0.413 0.156-0.703-0.078-0.156-0.112-2.054-3.203l-0.525-0.859q-0.156-0.234-0.128-0.513t0.218-0.513q0.391-0.48 0.926-0.29 0.011 0.011 1.328 0.446 2.266 0.737 2.701 0.887t0.525 0.229q0.313 0.246 0.246 0.681zM10.112 8.181q0.056 1.138-0.603 1.362-0.647 0.19-1.272-0.792l-4.219-6.674q-0.089-0.391 0.212-0.692 0.458-0.48 2.316-0.999t2.506-0.352q0.446 0.112 0.547 0.502 0.033 0.201 0.246 3.41t0.268 4.235zM17.5 9.386q0.033 0.435-0.29 0.658-0.167 0.112-3.672 0.96-0.748 0.167-1.016 0.257l0.011-0.022q-0.257 0.067-0.513-0.045t-0.413-0.357q-0.335-0.525 0-0.971 0.011-0.011 0.837-1.138 1.395-1.908 1.674-2.277t0.379-0.435q0.313-0.212 0.725-0.022 0.536 0.257 1.373 1.49t0.904 1.869v0.033z"></path>
</svg>
