<!-- Generated by IcoMoon.io -->
<svg version="1.1" xmlns="http://www.w3.org/2000/svg" width="20" height="20" viewBox="0 0 20 20">
<title>yoast</title>
<path d="M4.498 2.433h7.712l-0.29 0.804h-7.422q-1.228 0-2.104 0.882t-0.876 2.109v8.605q0 1.060 0.675 1.892t1.713 1.044q0.257 0.056 1.094 0.056v0.804h-0.502q-1.563 0-2.673-1.116t-1.11-2.679v-8.605q0-1.563 1.11-2.679t2.673-1.116zM13.996 0h2.757l-5.379 14.442q-0.257 0.681-0.452 1.155t-0.502 1.094-0.603 1.044-0.72 0.876-0.887 0.725-1.066 0.458-1.295 0.206v-2.176q1.819-0.29 2.455-2.031 0.223-0.58 0.223-1.172 0-0.603-0.223-1.183l-3.181-8.181h2.545l2.087 6.529zM19.286 6.228v12.4h-8.873q0.413-0.614 0.502-0.815h7.567v-11.585q0-0.949-0.552-1.73t-1.445-1.105l0.279-0.748q1.127 0.379 1.825 1.378t0.698 2.204z"></path>
</svg>
