<!-- Generated by IcoMoon.io -->
<svg version="1.1" xmlns="http://www.w3.org/2000/svg" width="20" height="20" viewBox="0 0 20 20">
<title>youtube</title>
<path d="M12.266 13.884v2.355q0 0.748-0.435 0.748-0.257 0-0.502-0.246v-3.359q0.246-0.246 0.502-0.246 0.435 0 0.435 0.748zM16.038 13.895v0.513h-1.004v-0.513q0-0.759 0.502-0.759t0.502 0.759zM5.257 11.462h1.194v-1.049h-3.482v1.049h1.172v6.35h1.116v-6.35zM8.471 17.813h0.993v-5.513h-0.993v4.219q-0.335 0.469-0.636 0.469-0.201 0-0.234-0.234-0.011-0.033-0.011-0.391v-4.063h-0.993v4.364q0 0.547 0.089 0.815 0.134 0.413 0.647 0.413 0.536 0 1.138-0.681v0.603zM13.259 16.161v-2.199q0-0.815-0.1-1.105-0.19-0.625-0.792-0.625-0.558 0-1.038 0.603v-2.422h-0.993v7.4h0.993v-0.536q0.502 0.614 1.038 0.614 0.603 0 0.792-0.614 0.1-0.301 0.1-1.116zM17.031 16.049v-0.145h-1.016q0 0.569-0.022 0.681-0.078 0.402-0.446 0.402-0.513 0-0.513-0.77v-0.971h1.998v-1.15q0-0.882-0.301-1.295-0.435-0.569-1.183-0.569-0.759 0-1.194 0.569-0.313 0.413-0.313 1.295v1.931q0 0.882 0.324 1.295 0.435 0.569 1.205 0.569 0.804 0 1.205-0.592 0.201-0.301 0.234-0.603 0.022-0.1 0.022-0.647zM10.246 5.859v-2.344q0-0.77-0.48-0.77t-0.48 0.77v2.344q0 0.781 0.48 0.781t0.48-0.781zM18.27 14.241q0 2.612-0.29 3.906-0.156 0.658-0.647 1.105t-1.138 0.513q-2.054 0.234-6.194 0.234t-6.194-0.234q-0.647-0.067-1.144-0.513t-0.642-1.105q-0.29-1.25-0.29-3.906 0-2.612 0.29-3.906 0.156-0.658 0.647-1.105t1.15-0.525q2.042-0.223 6.183-0.223t6.194 0.223q0.647 0.078 1.144 0.525t0.642 1.105q0.29 1.25 0.29 3.906zM7.132 0h1.138l-1.35 4.453v3.025h-1.116v-3.025q-0.156-0.826-0.681-2.366-0.413-1.15-0.725-2.087h1.183l0.792 2.935zM11.261 3.717v1.953q0 0.904-0.313 1.317-0.424 0.569-1.183 0.569-0.748 0-1.172-0.569-0.313-0.424-0.313-1.317v-1.953q0-0.893 0.313-1.306 0.424-0.569 1.172-0.569 0.759 0 1.183 0.569 0.313 0.413 0.313 1.306zM15 1.908v5.569h-1.016v-0.614q-0.592 0.692-1.15 0.692-0.513 0-0.658-0.413-0.089-0.268-0.089-0.837v-4.397h1.016v4.096q0 0.368 0.011 0.391 0.033 0.246 0.234 0.246 0.301 0 0.636-0.48v-4.252h1.016z"></path>
</svg>
