<!-- Generated by IcoMoon.io -->
<svg version="1.1" xmlns="http://www.w3.org/2000/svg" width="20" height="20" viewBox="0 0 20 20">
<title>youtube-square</title>
<path d="M11.685 14.542v-1.752q0-0.558-0.324-0.558-0.19 0-0.368 0.179v2.5q0.179 0.179 0.368 0.179 0.324 0 0.324-0.547zM13.739 13.181h0.737v-0.379q0-0.569-0.368-0.569t-0.368 0.569v0.379zM7.366 10.212v0.781h-0.893v4.721h-0.826v-4.721h-0.871v-0.781h2.589zM9.609 11.618v4.096h-0.748v-0.446q-0.435 0.502-0.848 0.502-0.368 0-0.469-0.313-0.067-0.19-0.067-0.603v-3.237h0.737v3.013q0 0.268 0.011 0.29 0.011 0.167 0.167 0.167 0.223 0 0.469-0.346v-3.125h0.748zM12.422 12.857v1.629q0 0.58-0.078 0.815-0.134 0.469-0.592 0.469-0.391 0-0.759-0.458v0.402h-0.748v-5.502h0.748v1.797q0.357-0.446 0.759-0.446 0.458 0 0.592 0.469 0.078 0.234 0.078 0.826zM15.223 14.297v0.1q0 0.324-0.022 0.48-0.033 0.246-0.167 0.446-0.301 0.446-0.893 0.446-0.58 0-0.904-0.424-0.234-0.301-0.234-0.96v-1.44q0-0.658 0.223-0.96 0.324-0.424 0.893-0.424t0.871 0.424q0.234 0.324 0.234 0.96v0.848h-1.484v0.725q0 0.569 0.379 0.569 0.268 0 0.335-0.29 0-0.011 0.006-0.078t0.006-0.184v-0.24h0.759zM10.19 5.1v1.741q0 0.569-0.357 0.569t-0.357-0.569v-1.741q0-0.58 0.357-0.58t0.357 0.58zM16.138 13.058q0-1.975-0.212-2.902-0.112-0.491-0.48-0.82t-0.848-0.385q-1.518-0.167-4.598-0.167-3.069 0-4.587 0.167-0.491 0.056-0.854 0.385t-0.474 0.82q-0.223 0.971-0.223 2.902 0 1.964 0.223 2.902 0.112 0.48 0.474 0.815t0.843 0.391q1.529 0.167 4.598 0.167t4.598-0.167q0.48-0.056 0.843-0.391t0.474-0.815q0.223-0.938 0.223-2.902zM7.712 5.792l1.004-3.304h-0.837l-0.569 2.176-0.592-2.176h-0.871q0.078 0.257 0.257 0.77l0.268 0.77q0.391 1.15 0.513 1.763v2.243h0.826v-2.243zM10.938 6.696v-1.451q0-0.647-0.234-0.971-0.324-0.424-0.871-0.424-0.569 0-0.871 0.424-0.234 0.324-0.234 0.971v1.451q0 0.647 0.234 0.971 0.301 0.424 0.871 0.424 0.547 0 0.871-0.424 0.234-0.301 0.234-0.971zM12.958 8.036h0.748v-4.129h-0.748v3.158q-0.246 0.346-0.469 0.346-0.167 0-0.179-0.179-0.011-0.022-0.011-0.29v-3.036h-0.748v3.27q0 0.413 0.067 0.614 0.123 0.301 0.48 0.301 0.402 0 0.859-0.502v0.446zM18.571 4.643v10.714q0 1.328-0.943 2.271t-2.271 0.943h-10.714q-1.328 0-2.271-0.943t-0.943-2.271v-10.714q0-1.328 0.943-2.271t2.271-0.943h10.714q1.328 0 2.271 0.943t0.943 2.271z"></path>
</svg>
