<!-- Generated by IcoMoon.io -->
<svg version="1.1" xmlns="http://www.w3.org/2000/svg" width="20" height="20" viewBox="0 0 20 20">
<title>youtube-play</title>
<path d="M7.935 12.589l5.402-2.79-5.402-2.824v5.614zM10 2.969q1.875 0 3.622 0.050t2.561 0.106l0.815 0.045q0.011 0 0.19 0.017t0.257 0.033 0.262 0.050 0.318 0.089 0.313 0.145 0.346 0.218 0.324 0.296q0.067 0.067 0.173 0.206t0.324 0.653 0.296 1.127q0.089 0.714 0.14 1.523t0.061 1.267v1.964q0.011 1.618-0.201 3.237-0.078 0.614-0.279 1.11t-0.357 0.686l-0.156 0.19q-0.156 0.167-0.324 0.296t-0.346 0.212-0.313 0.14-0.318 0.089-0.268 0.050-0.257 0.033-0.184 0.017q-2.801 0.212-6.998 0.212-2.31-0.022-4.012-0.073t-2.238-0.084l-0.547-0.045-0.402-0.045q-0.402-0.056-0.608-0.112t-0.569-0.234-0.631-0.458q-0.067-0.067-0.173-0.206t-0.324-0.653-0.296-1.127q-0.089-0.714-0.14-1.523t-0.061-1.267v-1.964q-0.011-1.618 0.201-3.237 0.078-0.614 0.279-1.11t0.357-0.686l0.156-0.19q0.156-0.167 0.324-0.296t0.346-0.218 0.313-0.145 0.318-0.089 0.262-0.050 0.257-0.033 0.19-0.017q2.801-0.201 6.998-0.201z"></path>
</svg>
